<svg fill="none" height="178" viewBox="0 0 178 178" width="178" xmlns="http://www.w3.org/2000/svg" xmlns:xlink="http://www.w3.org/1999/xlink"><clipPath id="a"><path d="m42 26h94.8056v126.411h-94.8056z"/></clipPath><circle cx="89" cy="89" fill="#016099" r="89"/><g clip-path="url(#a)"><path d="m108.707 99.4452c23.162-7.1251 4.937-45.8607 28.093-52.9655l-15.492-8.2143c-23.1617 7.1252-4.936 45.8607-28.0933 52.9655-23.1569 7.1048-4.9368 45.8611-28.0936 52.9651l15.4922 8.22c23.1617-7.11 4.9367-45.861 28.0937-52.9708z" fill="#fffac2"/><path d="m85.5908 87.185c23.1622-7.1252 4.9368-45.8608 28.0932-52.9656l-15.4918-8.2194c-23.1619 7.1252-4.9367 45.8607-28.0935 52.9655-23.1569 7.1049-4.9368 45.8605-28.0987 52.9655l15.4922 8.219c23.1619-7.104 4.9367-45.8602 28.0986-52.965z" fill="#fffac2"/><path d="m89.1635 89.0783c23.1615-7.1252 4.9368-45.8608 28.0935-52.9656l-15.492-8.2194c-23.162 7.1252-4.9368 45.8607-28.0937 52.9656-23.1568 7.1048-4.9367 45.8611-28.1088 52.9651l15.5024 8.215c23.1772-7.125 4.9367-45.8559 28.0986-52.9607z" fill="#fc6719"/><path d="m100.529 95.0988c23.162-7.1252 4.936-45.8608 28.093-52.9656l-15.507-8.2194c-23.1621 7.1252-4.937 45.8607-28.0937 52.9656-23.1568 7.1048-4.9367 45.8606-28.0936 52.9656l15.4922 8.219c23.1569-7.105 4.9317-45.86 28.1091-52.9652z" fill="#fdb98d"/></g></svg>