<svg fill="none" height="179" viewBox="0 0 179 179" width="179" xmlns="http://www.w3.org/2000/svg"><path d="m26.6458 117.611 13.8991-13.899 13.5888 13.589 7.9344-7.929 13.8992 13.899v13.248l13.2477-13.248v-80.1178l-13.8992 13.8992v22.938h-3.1707v-7.7156h-7.7155v7.7156h-3.1707v-7.7156h-7.7156v7.7156h-3.1707v-22.938l-13.8992-13.8992-13.8992 13.8992v66.3256l4.0716 4.071z" fill="#016099"/><path d="m102.463 136.519v-13.248l13.899-13.899 7.934 7.929 13.589-13.589 13.899 13.899v9.838l4.072-4.071v-66.3256l-13.9-13.8992-13.899 13.8992v22.938h-3.17v-7.7156h-7.716v7.7156h-3.171v-7.7156h-7.715v7.7156h-3.171v-22.938l-13.8992-13.8992v80.1178z" fill="#3d113c"/><path d="m170.767 124.894c-.168.382-.341.764-.509 1.14.168-.376.341-.753.509-1.14z" fill="#00bcb4"/><path d="m169.881 126.838c-.209.438-.417.881-.631 1.319.214-.438.424-.878.631-1.319z" fill="#00bcb4"/><path d="m168.375 129.902c.249-.483.509-.972.728-1.46-.234.493-.494.977-.728 1.46z" fill="#00bcb4"/><path d="m171.529 123.113c-.248.597-.502 1.191-.763 1.781.257-.59.512-1.184.763-1.781z" fill="#fc6719"/><path d="m170.252 126.039-.371.804z" fill="#fc6719"/><path d="m169.25 128.156-.148.291z" fill="#fc6719"/><path d="m162.904 114.385-7.048 7.048-4.072 4.072v-7.894l-13.899-13.899-13.589 13.589-7.929-7.93-13.92 13.9v13.232l-13.2322-13.232v54.858c14.0752.009 27.9522-3.323 40.4882-9.723 12.537-6.399 23.375-15.683 31.624-27.088.117-.163.229-.331.346-.509.288-.401.572-.804.85-1.211.254-.367.509-.738.753-1.11s.545-.814.809-1.221c.265-.408.509-.774.733-1.166s.509-.809.758-1.221c.25-.413.509-.855.754-1.288.39-.679.77-1.357 1.14-2.036.264-.509.509-.967.783-1.46l.118-.219c.249-.484.508-.967.732-1.456l.148-.29c.214-.438.422-.875.631-1.318l.372-.804c.173-.382.346-.759.509-1.14.261-.591.515-1.184.763-1.782l.03-.066z" fill="#fc6719"/><g fill="#00bcb4"><path d="m8.18668 126.055c-.17813-.387-.35626-.774-.50895-1.166.15269.392.33082.779.50895 1.166z"/><path d="m9.17642 128.167c-.21884-.443-.42751-.891-.64126-1.339.21375.448.42751.894.64126 1.339z"/><path d="m9.31055 128.411c.24429.509.50894 1.018.74305 1.491-.25447-.495-.50215-.992-.74305-1.491z"/><path d="m171.529 123.114.031-.067z"/><path d="m89.2145 0c-14.6354.00545246-29.0441 3.61617-41.9525 10.513-12.9084 6.8968-23.9191 16.8674-32.0588 29.0304-8.13973 12.1631-13.1578 26.144-14.610716 40.7071-1.452911 14.563.704086 29.2595 6.280346 42.7915l8.65197-8.652 7.0489 7.043v-64.3807l13.8992-13.8991 13.8992 13.8991v22.938h3.1707v-7.7206h7.7155v7.7156h3.1707v-7.7156h7.7156v7.7156h3.1707v-22.933l13.8992-13.8991 13.8995 13.8991v22.938h3.17v-7.7206h7.716v7.7156h3.171v-7.7156h7.715v7.7156h3.171v-22.933l13.899-13.8991 13.899 13.8991v64.3807l7.049-7.048 8.652 8.652c5.574-13.532 7.729-28.2275 6.275-42.7893-1.454-14.5619-6.472-28.5415-14.612-40.7034-8.139-12.162-19.149-22.1319-32.056-29.0288-12.907-6.89692-27.314-10.50845565-41.9485-10.5155z"/><path d="m6.93335 123.205-.06616-.163z"/></g><path d="m9.30999 128.412-.12249-.25z" fill="#fdb98d"/><path d="m8.54181 126.828-.35626-.773z" fill="#fdb98d"/><path d="m75.9822 136.519v-13.233l-13.8992-13.899-7.9293 7.929-13.5887-13.589-13.9196 13.884v7.894l-4.0715-4.072-7.0488-7.048-8.65205 8.652.06616.163c.23411.563.47501 1.124.7227 1.684.17304.392.35117.779.50894 1.166l.35626.773c.20866.448.42242.896.64126 1.339l.12215.249c.24768.499.49707.994.74818 1.486l.1221.224c.2443.468.509.926.7482 1.39.3901.715.7888 1.426 1.196 2.132.2443.417.4784.84.7278 1.252.2493.412.5089.824.7634 1.237.2544.412.4784.768.7227 1.15s.5394.824.8143 1.232c.2748.407.5089.732.743 1.099.2341.366.57.819.8601 1.221l.341.509c8.2541 11.404 19.0977 20.685 31.6387 27.081 12.541 6.395 26.4212 9.721 40.4987 9.706v-54.859z" fill="#fdb98d"/></svg>