<svg width="179" height="179" viewBox="0 0 179 179" fill="none" xmlns="http://www.w3.org/2000/svg">
<g clip-path="url(#clip0_2831_6425)">
<path d="M89.0648 178.518C138.254 178.518 178.13 138.643 178.13 89.4537C178.13 40.2646 138.254 0.388916 89.0648 0.388916C39.8757 0.388916 0 40.2646 0 89.4537C0 138.643 39.8757 178.518 89.0648 178.518Z" fill="#00BCB4"/>
<path d="M85.2976 140.434C81.0594 136.196 78.1646 130.803 76.975 124.928C75.7854 119.054 76.3539 112.959 78.6094 107.406C80.8649 101.853 84.7072 97.0876 89.6561 93.7064C94.605 90.3251 100.441 88.4777 106.434 88.3951V86.6138C97.9471 86.7204 89.844 90.1666 83.8802 96.2057C77.9164 102.245 74.5723 110.391 74.5723 118.878C74.5723 127.366 77.9164 135.511 83.8802 141.551C89.844 147.59 97.9471 151.036 106.434 151.142V149.361C98.4926 149.262 90.9056 146.058 85.2976 140.434Z" fill="#FDB98D"/>
<path d="M85.2988 140.434C90.9076 146.056 98.4945 149.258 106.435 149.356V144.312C99.6861 144.312 93.2135 141.631 88.4413 136.859C83.669 132.087 80.988 125.614 80.988 118.865C80.988 112.116 83.669 105.644 88.4413 100.871C93.2135 96.0991 99.6861 93.4181 106.435 93.4181V88.3745C100.438 88.4532 94.5969 90.2993 89.6438 93.6816C84.6906 97.0639 80.8452 101.832 78.5889 107.389C76.3326 112.947 75.7658 119.046 76.9593 124.924C78.1528 130.802 81.0537 136.197 85.2988 140.434Z" fill="#FC6719"/>
<path d="M90.3426 135.391C87.0996 132.151 84.882 128.028 83.9664 123.536C83.0507 119.044 83.4775 114.382 85.1935 110.131C86.9095 105.88 89.8388 102.229 93.6161 99.6313C97.3935 97.034 101.852 95.606 106.435 95.5253V93.4336C99.6864 93.4336 93.2138 96.1146 88.4416 100.887C83.6693 105.659 80.9883 112.132 80.9883 118.881C80.9883 125.63 83.6693 132.102 88.4416 136.874C93.2138 141.647 99.6864 144.328 106.435 144.328V142.236C100.385 142.133 94.613 139.678 90.3426 135.391Z" fill="#FFFAC2"/>
<path d="M102.475 116.229C102.851 116.161 103.313 116.095 103.859 116.031C104.518 115.957 105.181 115.923 105.844 115.929C106.047 115.929 106.236 115.929 106.434 115.929V110.493H102.678L102.475 116.229Z" fill="#FDB98D"/>
<path d="M90.3418 135.391C94.6146 139.672 100.387 142.122 106.434 142.221V130.169C106.017 130.2 105.595 130.22 105.142 130.22C104.174 130.229 103.208 130.146 102.256 129.971C101.505 129.832 100.763 129.643 100.037 129.406C99.5188 129.238 99.0164 129.025 98.5357 128.769C98.1591 128.559 97.9029 128.41 97.7672 128.322L99.1668 125.777L99.635 126.062C99.9981 126.274 100.378 126.456 100.77 126.606C101.355 126.827 101.958 126.997 102.572 127.115C103.409 127.284 104.262 127.362 105.116 127.35C105.558 127.352 106 127.328 106.44 127.278V118.921C105.846 118.835 105.248 118.792 104.648 118.794C103.567 118.775 102.488 118.881 101.432 119.11C100.553 119.32 99.8352 119.515 99.2788 119.695L99.6147 109.394C99.6097 108.871 99.79 108.362 100.124 107.959C100.328 107.757 100.575 107.601 100.845 107.504C101.116 107.406 101.405 107.369 101.691 107.394H106.414V95.5254C101.831 95.606 97.3723 97.034 93.5949 99.6314C89.8175 102.229 86.8883 105.88 85.1723 110.131C83.4563 114.382 83.0295 119.044 83.9452 123.536C84.8608 128.028 87.0784 132.151 90.3214 135.391H90.3418Z" fill="#FDB98D"/>
<path d="M105.859 115.919C105.196 115.913 104.533 115.947 103.874 116.021C103.328 116.089 102.866 116.155 102.489 116.219L102.688 110.483H106.444V107.384H101.721C101.434 107.359 101.146 107.396 100.875 107.494C100.604 107.592 100.358 107.747 100.153 107.949C99.8198 108.352 99.6395 108.861 99.6445 109.384L99.3086 119.685C99.865 119.509 100.583 119.314 101.461 119.1C102.518 118.871 103.597 118.765 104.678 118.784C105.277 118.782 105.876 118.825 106.469 118.912V115.939C106.235 115.919 106.047 115.919 105.859 115.919Z" fill="#FC6719"/>
<path d="M105.111 127.396C104.257 127.408 103.404 127.33 102.566 127.161C101.952 127.043 101.349 126.873 100.764 126.653C100.372 126.5 99.9924 126.316 99.6295 126.103L99.1613 125.818L97.7617 128.363C97.894 128.451 98.1502 128.6 98.5302 128.81C99.0109 129.066 99.5133 129.279 100.032 129.447C100.758 129.684 101.499 129.873 102.251 130.012C103.202 130.187 104.169 130.27 105.136 130.261C105.584 130.261 106.012 130.261 106.429 130.21V127.355C105.991 127.394 105.551 127.408 105.111 127.396V127.396Z" fill="#FC6719"/>
<path d="M129.684 96.0699C126.639 93.019 123.012 90.6112 119.018 88.9894C115.024 87.3676 110.746 86.5649 106.436 86.6291V88.4103C110.485 88.3363 114.509 89.07 118.272 90.5686C122.035 92.0672 125.461 94.3005 128.351 97.1382C131.241 99.9759 133.537 103.361 135.104 107.096C136.671 110.831 137.478 114.841 137.478 118.891C137.478 122.941 136.671 126.951 135.104 130.686C133.537 134.421 131.241 137.806 128.351 140.643C125.461 143.481 122.035 145.715 118.272 147.213C114.509 148.712 110.485 149.445 106.436 149.371V151.153C112.854 151.239 119.153 149.409 124.526 145.897C129.899 142.385 134.102 137.35 136.598 131.436C139.094 125.522 139.77 118.998 138.538 112.698C137.306 106.398 134.224 100.608 129.684 96.0699V96.0699Z" fill="#FC6719"/>
<path d="M124.854 100.879C128.437 104.464 130.868 109.037 131.835 114.012C132.803 118.987 132.262 124.138 130.284 128.804C128.305 133.47 124.978 137.439 120.729 140.202C116.48 142.965 111.503 144.396 106.436 144.312V149.356C110.485 149.43 114.509 148.696 118.272 147.198C122.035 145.699 125.461 143.466 128.351 140.628C131.241 137.79 133.537 134.405 135.104 130.67C136.671 126.935 137.478 122.926 137.478 118.875C137.478 114.825 136.671 110.815 135.104 107.081C133.537 103.346 131.241 99.9606 128.351 97.1229C125.461 94.2852 122.035 92.0518 118.272 90.5532C114.509 89.0547 110.485 88.321 106.436 88.395V93.4386C109.848 93.3758 113.239 94.0024 116.404 95.2809C119.568 96.5595 122.443 98.4636 124.854 100.879V100.879Z" fill="#3D113C"/>
<path d="M124.854 100.879C122.443 98.4628 119.569 96.5578 116.404 95.2783C113.239 93.9989 109.849 93.3715 106.436 93.4336V95.5254C109.552 95.4457 112.653 95.9907 115.555 97.1282C118.457 98.2657 121.103 99.9727 123.335 102.149C125.567 104.325 127.341 106.925 128.553 109.798C129.764 112.67 130.388 115.756 130.388 118.873C130.388 121.99 129.764 125.076 128.553 127.949C127.341 130.821 125.567 133.422 123.335 135.598C121.103 137.773 118.457 139.481 115.555 140.618C112.653 141.756 109.552 142.3 106.436 142.221V144.313C111.503 144.396 116.48 142.965 120.729 140.202C124.978 137.439 128.305 133.47 130.284 128.804C132.262 124.138 132.803 118.987 131.835 114.012C130.868 109.037 128.437 104.464 124.854 100.879V100.879Z" fill="#FDB98D"/>
<path d="M111.347 107.394C112.568 107.394 113.179 107.903 113.179 108.921C113.187 109.257 113.124 109.592 112.996 109.903C112.912 110.103 112.817 110.299 112.711 110.488H106.436V115.944C107.574 115.958 108.703 116.154 109.779 116.524C110.745 116.86 111.626 117.4 112.365 118.107C113.003 118.736 113.483 119.507 113.764 120.357C114.041 121.196 114.182 122.074 114.182 122.957C114.194 123.963 114.002 124.96 113.617 125.889C113.24 126.775 112.664 127.563 111.932 128.189C111.106 128.879 110.146 129.39 109.113 129.691C108.241 129.953 107.343 130.115 106.436 130.174V142.221C109.552 142.301 112.653 141.756 115.555 140.618C118.457 139.481 121.103 137.774 123.335 135.598C125.567 133.422 127.341 130.821 128.553 127.949C129.764 125.076 130.388 121.99 130.388 118.873C130.388 115.756 129.764 112.67 128.553 109.798C127.341 106.925 125.567 104.325 123.335 102.149C121.103 99.9727 118.457 98.2657 115.555 97.1282C112.653 95.9907 109.552 95.4458 106.436 95.5255V107.389L111.347 107.394Z" fill="#FC6719"/>
<path d="M110.542 123.161C110.543 122.592 110.447 122.028 110.257 121.492C110.061 120.949 109.728 120.467 109.29 120.092C108.758 119.651 108.139 119.326 107.473 119.14C107.14 119.041 106.799 118.966 106.455 118.916V127.319C107.5 127.259 108.498 126.862 109.3 126.189C109.709 125.8 110.031 125.33 110.245 124.808C110.459 124.286 110.56 123.725 110.542 123.161V123.161Z" fill="#FC6719"/>
<path d="M112.711 110.493C112.817 110.304 112.912 110.108 112.996 109.908C113.124 109.597 113.187 109.262 113.179 108.926C113.179 107.908 112.568 107.399 111.347 107.399H106.436V110.498L112.711 110.493Z" fill="#3D113C"/>
<path d="M111.926 128.199C112.658 127.573 113.234 126.786 113.611 125.899C113.996 124.97 114.188 123.973 114.176 122.968C114.177 122.084 114.036 121.206 113.758 120.367C113.477 119.517 112.997 118.746 112.359 118.117C111.621 117.41 110.739 116.871 109.773 116.535C108.697 116.164 107.568 115.968 106.43 115.954V118.927C106.774 118.976 107.114 119.051 107.448 119.15C108.113 119.337 108.732 119.661 109.265 120.102C109.703 120.477 110.036 120.959 110.232 121.502C110.421 122.038 110.518 122.602 110.517 123.171C110.535 123.741 110.432 124.308 110.213 124.835C109.995 125.362 109.666 125.836 109.249 126.225C108.447 126.898 107.45 127.294 106.404 127.355V130.169C107.312 130.11 108.21 129.948 109.081 129.686C110.122 129.392 111.091 128.886 111.926 128.199Z" fill="#3D113C"/>
<path d="M71.9295 67.4164C68.4731 63.9533 66.1205 59.5436 65.1688 54.7442C64.2171 49.9448 64.709 44.9711 66.5824 40.4511C68.4557 35.9311 71.6265 32.0676 75.6942 29.3486C79.762 26.6296 84.5442 25.177 89.437 25.1742V23.7085C82.4856 23.7085 75.8189 26.47 70.9034 31.3854C65.988 36.3008 63.2266 42.9675 63.2266 49.919C63.2266 56.8704 65.988 63.5372 70.9034 68.4526C75.8189 73.368 82.4856 76.1295 89.437 76.1295V74.6841C86.1838 74.6864 82.9622 74.0455 79.9576 72.7983C76.953 71.551 74.2246 69.722 71.9295 67.4164V67.4164Z" fill="#FDB98D"/>
<path d="M71.9288 67.4164C74.2252 69.7192 76.9541 71.5454 79.9587 72.7901C82.9632 74.0347 86.1842 74.6732 89.4363 74.6688V70.5973C83.9562 70.5973 78.7004 68.4203 74.8254 64.5452C70.9503 60.6702 68.7733 55.4144 68.7733 49.9343C68.7733 44.4541 70.9503 39.1984 74.8254 35.3233C78.7004 31.4482 83.9562 29.2712 89.4363 29.2712V25.1997C84.5435 25.2025 79.7613 26.6551 75.6935 29.3741C71.6258 32.0931 68.455 35.9566 66.5817 40.4766C64.7083 44.9965 64.2164 49.9703 65.1681 54.7697C66.1198 59.569 68.4724 63.9787 71.9288 67.4418V67.4164Z" fill="#FC6719"/>
<path d="M76.0259 63.3197C73.3662 60.6687 71.5534 57.2878 70.8174 53.6054C70.0814 49.923 70.4553 46.105 71.8917 42.6353C73.3281 39.1657 75.7623 36.2006 78.8857 34.1159C82.0092 32.0313 85.6812 30.9209 89.4365 30.9256V29.2461C83.9563 29.2461 78.7006 31.4231 74.8255 35.2982C70.9504 39.1732 68.7734 44.4289 68.7734 49.9091C68.7734 55.3893 70.9504 60.645 74.8255 64.5201C78.7006 68.3952 83.9563 70.5721 89.4365 70.5721V68.8723C86.9456 68.8758 84.4785 68.387 82.1771 67.4341C79.8757 66.4813 77.7852 65.083 76.0259 63.3197V63.3197Z" fill="#FFFAC2"/>
<path d="M76.0262 63.3194C77.7856 65.0827 79.8761 66.4809 82.1775 67.4338C84.4789 68.3867 86.9459 68.8755 89.4368 68.872V58.6677H82.3116V56.2859C82.5288 56.123 82.9071 55.8482 83.4466 55.4614C83.9861 55.0746 84.5764 54.6318 85.2177 54.133C85.859 53.6377 86.5036 53.1287 87.1517 52.6062C87.7997 52.0837 88.3494 51.6002 88.8007 51.1557C89.0144 50.9521 89.2078 50.7435 89.4114 50.5399V42.5495C88.9643 42.4459 88.5063 42.3964 88.0474 42.4019C87.4456 42.3863 86.8467 42.4919 86.2865 42.7124C85.8455 42.8906 85.4378 43.1418 85.0803 43.4554C84.7921 43.7122 84.5419 44.0087 84.3372 44.3359C84.197 44.5541 84.0793 44.786 83.9861 45.0281C83.5416 44.9734 83.1207 44.7973 82.7697 44.5191C82.6332 44.4078 82.5234 44.2672 82.4486 44.1078C82.3737 43.9483 82.3356 43.7741 82.3371 43.5979C82.3617 42.9822 82.6245 42.4001 83.07 41.9744C83.2453 41.789 83.4359 41.6187 83.64 41.4655C83.9543 41.2201 84.2959 41.0118 84.6579 40.8446C85.1503 40.6289 85.6613 40.4585 86.1847 40.3356C86.851 40.1743 87.535 40.0974 88.2205 40.1066C88.6132 40.1079 89.0057 40.13 89.3961 40.1728V30.9253C85.6451 30.9246 81.9781 32.0365 78.859 34.1201C75.74 36.2038 73.3089 39.1657 71.8734 42.6311C70.4378 46.0966 70.0623 49.91 70.7942 53.5889C71.5262 57.2678 73.3328 60.647 75.9855 63.2991L76.0262 63.3194Z" fill="#FDB98D"/>
<path d="M87.5374 55.4359C87.059 55.8057 86.7197 56.0534 86.5195 56.1789H89.4561V53.8938L89.105 54.189C88.5214 54.6504 87.9989 55.0661 87.5374 55.4359Z" fill="#FDB98D"/>
<path d="M86.5194 56.1793C86.7196 56.0537 87.0589 55.8061 87.5373 55.4362C88.0157 55.0664 88.5399 54.6508 89.1099 54.1893L89.4611 53.8941V50.53C89.2575 50.7336 89.0641 50.9423 88.8503 51.1459C88.3991 51.5801 87.8494 52.0636 87.2014 52.5963C86.5533 53.129 85.9086 53.638 85.2674 54.1232C84.6261 54.6185 84.0357 55.0613 83.4963 55.4515C82.9568 55.8417 82.5785 56.1165 82.3613 56.276V58.6578H89.4865V56.1691L86.5194 56.1793Z" fill="#FC6719"/>
<path d="M88.2545 40.0864C87.569 40.0772 86.8851 40.1541 86.2187 40.3155C85.6954 40.4384 85.1843 40.6087 84.6919 40.8244C84.3299 40.9916 83.9884 41.2 83.674 41.4453C83.47 41.5985 83.2793 41.7688 83.104 41.9542C82.6585 42.38 82.3957 42.9621 82.3711 43.5778C82.3696 43.7539 82.4077 43.9282 82.4826 44.0876C82.5575 44.247 82.6672 44.3876 82.8037 44.499C83.1547 44.7771 83.5756 44.9532 84.0201 45.0079C84.1134 44.7659 84.231 44.5339 84.3713 44.3157C84.576 43.9885 84.8262 43.6921 85.1143 43.4353C85.4718 43.1216 85.8796 42.8704 86.3205 42.6922C86.8807 42.4717 87.4796 42.3661 88.0815 42.3818C88.5404 42.3762 88.9983 42.4258 89.4454 42.5294V40.1373C89.0496 40.0991 88.6521 40.0821 88.2545 40.0864Z" fill="#FC6719"/>
<path d="M107.962 31.3834C105.531 28.9464 102.643 27.0138 99.4628 25.6967C96.2827 24.3796 92.8737 23.7039 89.4316 23.7085V25.1539C95.9971 25.1539 102.294 27.762 106.936 32.4045C111.578 37.0469 114.187 43.3434 114.187 49.9088C114.187 56.4742 111.578 62.7708 106.936 67.4132C102.294 72.0556 95.9971 74.6637 89.4316 74.6637V76.1091C94.6126 76.1073 99.6769 74.5698 103.984 71.6908C108.292 68.8119 111.649 64.7207 113.632 59.9342C115.615 55.1478 116.135 49.8809 115.126 44.7991C114.117 39.7174 111.624 35.0488 107.962 31.3834V31.3834Z" fill="#FC6719"/>
<path d="M104.043 35.3022C106.933 38.192 108.902 41.8739 109.699 45.8824C110.496 49.8908 110.087 54.0457 108.523 57.8215C106.959 61.5974 104.31 64.8246 100.912 67.0951C97.5139 69.3656 93.5186 70.5773 89.4316 70.577V74.6485C95.9971 74.6485 102.294 72.0404 106.936 67.398C111.578 62.7555 114.187 56.459 114.187 49.8936C114.187 43.3282 111.578 37.0317 106.936 32.3892C102.294 27.7468 95.9971 25.1387 89.4316 25.1387V29.2102C92.1486 29.2117 94.8384 29.7508 97.3462 30.7963C99.8539 31.8419 102.13 33.3733 104.043 35.3022V35.3022Z" fill="#3D113C"/>
<path d="M104.044 35.3025C102.128 33.3806 99.8518 31.8561 97.3452 30.8168C94.8385 29.7774 92.1511 29.2436 89.4375 29.2461V30.9256C94.4675 30.9256 99.2915 32.9238 102.848 36.4805C106.405 40.0373 108.403 44.8613 108.403 49.8913C108.403 54.9213 106.405 59.7453 102.848 63.3021C99.2915 66.8589 94.4675 68.857 89.4375 68.857V70.5569C93.5199 70.5522 97.5093 69.3383 100.902 67.0684C104.296 64.7986 106.94 61.5745 108.503 57.803C110.066 54.0315 110.476 49.8817 109.682 45.8772C108.889 41.8727 106.927 38.193 104.044 35.3025V35.3025Z" fill="#FDB98D"/>
<path d="M91.0179 48.6826C91.2996 48.2646 91.5319 47.8155 91.7101 47.344C91.8846 46.8717 91.9726 46.3717 91.9697 45.8681C91.969 45.4454 91.9055 45.0252 91.7814 44.6212C91.6558 44.2081 91.4383 43.8288 91.1452 43.5117C90.8109 43.1621 90.4045 42.8895 89.9543 42.7127C89.789 42.6456 89.6188 42.5911 89.4453 42.5498V50.53C89.6387 50.3315 89.8423 50.1381 90.0255 49.9396C90.3899 49.5482 90.7218 49.1278 91.0179 48.6826Z" fill="#FC6719"/>
<path d="M91.1526 40.4935C91.9217 40.7375 92.6321 41.1378 93.2393 41.6692C93.7929 42.1669 94.2278 42.7826 94.5116 43.4708C94.8058 44.1964 94.9529 44.9731 94.9443 45.756C94.9489 46.3608 94.8631 46.9629 94.6898 47.5423C94.527 48.0744 94.3051 48.5866 94.0282 49.0692C93.7683 49.5357 93.4704 49.98 93.1375 50.3975C92.7982 50.8047 92.4691 51.1796 92.1502 51.5223C91.8312 51.865 91.3749 52.284 90.7811 52.7794C90.3434 53.156 89.9006 53.5275 89.4528 53.8939V56.1791H95.1224V58.6678H89.4375V68.8721C94.4675 68.8721 99.2915 66.8739 102.848 63.3172C106.405 59.7604 108.403 54.9364 108.403 49.9064C108.403 44.8764 106.405 40.0524 102.848 36.4956C99.2915 32.9388 94.4675 30.9407 89.4375 30.9407V40.1372C90.0205 40.1931 90.5956 40.3125 91.1526 40.4935Z" fill="#FC6719"/>
<path d="M95.1071 56.1792H89.4375V58.6679H95.1071V56.1792Z" fill="#3D113C"/>
<path d="M90.7604 52.7792C91.3101 52.3008 91.7664 51.8818 92.1294 51.5221C92.4925 51.1624 92.8284 50.7875 93.1371 50.3973C93.4747 49.9853 93.7777 49.5461 94.0431 49.0843C94.32 48.6017 94.5419 48.0895 94.7047 47.5574C94.878 46.978 94.9638 46.3759 94.9592 45.7711C94.9678 44.9882 94.8207 44.2114 94.5266 43.4859C94.2427 42.7977 93.8078 42.182 93.2542 41.6843C92.647 41.1528 91.9366 40.7526 91.1675 40.5086C90.6089 40.3273 90.032 40.2078 89.4473 40.1523V42.5647C89.6209 42.606 89.791 42.6605 89.9563 42.7276C90.4065 42.9044 90.8129 43.177 91.1472 43.5266C91.4403 43.8437 91.6578 44.223 91.7834 44.6361C91.9075 45.0401 91.971 45.4604 91.9717 45.883C91.9746 46.3866 91.8867 46.8866 91.7121 47.359C91.5339 47.8304 91.3016 48.2796 91.02 48.6975C90.7157 49.1437 90.3752 49.5641 90.0021 49.9546C89.8188 50.153 89.6153 50.3464 89.4219 50.5449V53.909C89.8799 53.5273 90.3278 53.1609 90.7604 52.7792Z" fill="#3D113C"/>
<path d="M39.5352 91.4892C36.2431 88.1961 34.0009 84.001 33.092 79.4341C32.1831 74.8672 32.6482 70.1334 34.4287 65.8307C36.2091 61.5281 39.2249 57.8497 43.0951 55.2603C46.9652 52.671 51.516 51.2868 56.1725 51.2828V49.9087C49.5585 49.9087 43.2154 52.5361 38.5386 57.2129C33.8618 61.8897 31.2344 68.2328 31.2344 74.8468C31.2344 81.4608 33.8618 87.8039 38.5386 92.4807C43.2154 97.1576 49.5585 99.785 56.1725 99.785V98.4057C53.0806 98.4049 50.0192 97.7936 47.1641 96.6066C44.309 95.4197 41.7165 93.6806 39.5352 91.4892V91.4892Z" fill="#FDB98D"/>
<path d="M39.5349 91.4893C41.7175 93.678 44.3106 95.4143 47.1656 96.5985C50.0206 97.7828 53.0814 98.3918 56.1722 98.3906V94.4972C50.958 94.4972 45.9573 92.4258 42.2702 88.7388C38.5832 85.0517 36.5118 80.051 36.5118 74.8368C36.5118 69.6225 38.5832 64.6218 42.2702 60.9348C45.9573 57.2477 50.958 55.1764 56.1722 55.1764V51.283C51.5158 51.287 46.965 52.6711 43.0948 55.2604C39.2247 57.8498 36.2088 61.5282 34.4284 65.8308C32.648 70.1335 32.1828 74.8673 33.0917 79.4343C34.0006 84.0012 36.2428 88.1962 39.5349 91.4893V91.4893Z" fill="#FC6719"/>
<path d="M43.433 87.6063C40.912 85.0846 39.1945 81.8725 38.4974 78.3756C37.8002 74.8787 38.1546 71.2536 39.5158 67.9578C40.877 64.6621 43.184 61.8435 46.1456 59.8577C49.1072 57.8719 52.5908 56.8079 56.1565 56.8001V55.1868C50.9422 55.1868 45.9415 57.2581 42.2545 60.9452C38.5675 64.6322 36.4961 69.6329 36.4961 74.8472C36.4961 80.0614 38.5675 85.0622 42.2545 88.7492C45.9415 92.4362 50.9422 94.5076 56.1565 94.5076V92.8942C53.7923 92.8921 51.4517 92.4239 49.2685 91.5166C47.0853 90.6093 45.1023 89.2805 43.433 87.6063V87.6063Z" fill="#FFFAC2"/>
<path d="M43.4323 87.6063C45.1021 89.2795 47.0852 90.6074 49.2684 91.5138C51.4516 92.4203 53.792 92.8876 56.1558 92.8891V84.0386H54.8326V69.9765L50.8374 73.0302C50.6948 73.0069 50.5561 72.964 50.4252 72.903C50.2699 72.835 50.1258 72.7441 49.9977 72.6332C49.8679 72.5191 49.7594 72.383 49.677 72.2312C49.589 72.0652 49.5452 71.8794 49.5498 71.6917C49.5487 71.4044 49.6396 71.1244 49.8094 70.8926C50.0248 70.61 50.2863 70.3657 50.5829 70.1699L53.9827 67.6252C54.2809 67.3942 54.6055 67.1995 54.9497 67.045C55.306 66.9058 55.6869 66.84 56.0693 66.8516H56.1558V56.8C52.5901 56.8079 49.1066 57.8718 46.145 59.8576C43.1833 61.8434 40.8763 64.6621 39.5152 67.9578C38.154 71.2535 37.7996 74.8786 38.4967 78.3755C39.1939 81.8725 40.9113 85.0845 43.4323 87.6063Z" fill="#FDB98D"/>
<path d="M56.0863 66.8363C55.7038 66.8247 55.323 66.8905 54.9666 67.0297C54.6224 67.1841 54.2978 67.3789 53.9996 67.6099L50.5999 70.1546C50.3033 70.3504 50.0418 70.5947 49.8263 70.8773C49.6566 71.1091 49.5656 71.3891 49.5667 71.6764C49.5621 71.8641 49.606 72.0499 49.694 72.2158C49.7763 72.3677 49.8849 72.5038 50.0146 72.6179C50.1428 72.7287 50.2869 72.8197 50.4421 72.8876C50.5731 72.9487 50.7118 72.9915 50.8544 73.0149L54.8495 69.9612V84.0233H56.1728V66.821L56.0863 66.8363Z" fill="#FC6719"/>
<path d="M73.7965 92.4766C77.2822 88.9892 79.6559 84.5469 80.6176 79.711C81.5793 74.875 81.0859 69.8625 79.1997 65.3069C77.3135 60.7513 74.1192 56.857 70.0205 54.1163C65.9217 51.3756 61.1025 49.9114 56.1719 49.9087V51.2828C59.2653 51.2828 62.3285 51.8921 65.1865 53.076C68.0445 54.2598 70.6413 55.9949 72.8287 58.1823C75.0161 60.3697 76.7513 62.9666 77.9351 65.8246C79.1189 68.6826 79.7282 71.7457 79.7282 74.8392C79.7282 77.9327 79.1189 80.9958 77.9351 83.8538C76.7513 86.7118 75.0161 89.3086 72.8287 91.4961C70.6413 93.6835 68.0445 95.4186 65.1865 96.6024C62.3285 97.7862 59.2653 98.3956 56.1719 98.3956V99.7748C59.4455 99.7788 62.6876 99.1361 65.7122 97.8837C68.7367 96.6312 71.4841 94.7937 73.7965 92.4766Z" fill="#FC6719"/>
<path d="M70.0914 60.953C72.8428 63.7035 74.7163 67.2084 75.4748 71.0242C76.2333 74.84 75.8427 78.795 74.3524 82.3886C72.8621 85.9823 70.3391 89.053 67.1027 91.2121C63.8664 93.3712 60.0623 94.5216 56.1719 94.5177V98.4111C59.2653 98.4111 62.3285 97.8018 65.1865 96.6179C68.0445 95.4341 70.6413 93.699 72.8287 91.5116C75.0161 89.3242 76.7513 86.7273 77.9351 83.8693C79.1189 81.0113 79.7282 77.9482 79.7282 74.8547C79.7282 71.7612 79.1189 68.6981 77.9351 65.8401C76.7513 62.9821 75.0161 60.3852 72.8287 58.1978C70.6413 56.0104 68.0445 54.2753 65.1865 53.0915C62.3285 51.9076 59.2653 51.2983 56.1719 51.2983V55.1917C58.7574 55.1865 61.3183 55.6928 63.7073 56.6816C66.0962 57.6703 68.2659 59.122 70.0914 60.953Z" fill="#3D113C"/>
<path d="M70.0914 88.7463C72.8428 85.9959 74.7163 82.4909 75.4748 78.6751C76.2333 74.8594 75.8427 70.9043 74.3524 67.3107C72.8621 63.717 70.3391 60.6463 67.1027 58.4872C63.8664 56.3281 60.0623 55.1777 56.1719 55.1817V56.795C58.567 56.7548 60.9462 57.1918 63.1707 58.0805C65.3952 58.9693 67.4205 60.292 69.1285 61.9716C70.8366 63.6512 72.1931 65.654 73.1191 67.8633C74.0451 70.0725 74.522 72.444 74.522 74.8395C74.522 77.235 74.0451 79.6065 73.1191 81.8158C72.1931 84.025 70.8366 86.0278 69.1285 87.7074C67.4205 89.387 65.3952 90.7097 63.1707 91.5985C60.9462 92.4873 58.567 92.9243 56.1719 92.884V94.4974C58.7566 94.504 61.3172 93.9993 63.7061 93.0123C66.095 92.0253 68.2651 90.5755 70.0914 88.7463Z" fill="#FDB98D"/>
<path d="M57.1185 66.9737C57.2749 67.0235 57.4225 67.0973 57.5562 67.1925V84.0385H56.1719V92.889C58.567 92.9292 60.9462 92.4922 63.1707 91.6034C65.3952 90.7146 67.4205 89.3919 69.1285 87.7123C70.8366 86.0328 72.1931 84.03 73.1191 81.8207C74.0451 79.6114 74.522 77.2399 74.522 74.8444C74.522 72.449 74.0451 70.0774 73.1191 67.8682C72.1931 65.6589 70.8366 63.6561 69.1285 61.9765C67.4205 60.297 65.3952 58.9742 63.1707 58.0855C60.9462 57.1967 58.567 56.7597 56.1719 56.7999V66.8413C56.4926 66.832 56.8126 66.8768 57.1185 66.9737V66.9737Z" fill="#FC6719"/>
<path d="M57.5562 67.1928C57.4225 67.0976 57.2749 67.0237 57.1185 66.9739C56.8129 66.8753 56.4929 66.8288 56.1719 66.8365V84.0387H57.5562V67.1928Z" fill="#3D113C"/>
</g>
<defs>
<clipPath id="clip0_2831_6425">
<rect width="178.13" height="178.13" fill="white" transform="translate(0 0.388916)"/>
</clipPath>
</defs>
</svg>
