<svg fill="none" height="179" viewBox="0 0 179 179" width="179" xmlns="http://www.w3.org/2000/svg" xmlns:xlink="http://www.w3.org/1999/xlink"><clipPath id="a"><path d="m0 .388916h178.13v178.13h-178.13z"/></clipPath><g clip-path="url(#a)"><path d="m89.0648 178.518c49.1892 0 89.0652-39.875 89.0652-89.0643 0-49.1891-39.876-89.064784-89.0652-89.064784-49.1891 0-89.0648 39.875684-89.0648 89.064784 0 49.1893 39.8757 89.0643 89.0648 89.0643z" fill="#00bcb4"/><path d="m85.2976 140.434c-4.2382-4.238-7.133-9.631-8.3226-15.506-1.1896-5.874-.6211-11.969 1.6344-17.522s6.0978-10.3184 11.0467-13.6996c4.9489-3.3813 10.7849-5.2287 16.7779-5.3113v-1.7813c-8.4869.1066-16.59 3.5528-22.5538 9.5919-5.9638 6.0393-9.3079 14.1853-9.3079 22.6723 0 8.488 3.3441 16.633 9.3079 22.673 5.9638 6.039 14.0669 9.485 22.5538 9.591v-1.781c-7.9414-.099-15.5284-3.303-21.1364-8.927z" fill="#fdb98d"/><path d="m85.2988 140.434c5.6088 5.622 13.1957 8.824 21.1362 8.922v-5.044c-6.7489 0-13.2215-2.681-17.9937-7.453-4.7723-4.772-7.4533-11.245-7.4533-17.994s2.681-13.221 7.4533-17.994c4.7722-4.7719 11.2448-7.4529 17.9937-7.4529v-5.0436c-5.997.0787-11.8381 1.9248-16.7912 5.3071-4.9532 3.3823-8.7986 8.1504-11.0549 13.7074-2.2563 5.558-2.8231 11.657-1.6296 17.535s4.0944 11.273 8.3395 15.51z" fill="#fc6719"/><path d="m90.3426 135.391c-3.243-3.24-5.4606-7.363-6.3762-11.855-.9157-4.492-.4889-9.154 1.2271-13.405s4.6453-7.902 8.4226-10.4997c3.7774-2.5973 8.2359-4.0253 12.8189-4.106v-2.0917c-6.7486 0-13.2212 2.681-17.9934 7.4534-4.7723 4.772-7.4533 11.245-7.4533 17.994s2.681 13.221 7.4533 17.993c4.7722 4.773 11.2448 7.454 17.9934 7.454v-2.092c-6.05-.103-11.822-2.558-16.0924-6.845z" fill="#fffac2"/><path d="m102.475 116.229c.376-.068.838-.134 1.384-.198.659-.074 1.322-.108 1.985-.102h.59v-5.436h-3.756z" fill="#fdb98d"/><path d="m90.3418 135.391c4.2728 4.281 10.0452 6.731 16.0922 6.83v-12.052c-.417.031-.839.051-1.292.051-.968.009-1.934-.074-2.886-.249-.751-.139-1.493-.328-2.219-.565-.5182-.168-1.0206-.381-1.5013-.637-.3766-.21-.6328-.359-.7685-.447l1.3996-2.545.4682.285c.3631.212.743.394 1.135.544.585.221 1.188.391 1.802.509.837.169 1.69.247 2.544.235.442.002.884-.022 1.324-.072v-8.357c-.594-.086-1.192-.129-1.792-.127-1.081-.019-2.16.087-3.216.316-.879.21-1.5968.405-2.1532.585l.3359-10.301c-.005-.523.1753-1.032.5093-1.435.204-.202.451-.358.721-.455.271-.098.56-.135.846-.11h4.723v-11.8686c-4.583.0806-9.0417 1.5086-12.8191 4.106-3.7774 2.5976-6.7066 6.2486-8.4226 10.4996s-2.1428 8.913-1.2271 13.405c.9156 4.492 3.1332 8.615 6.3762 11.855z" fill="#fdb98d"/><g fill="#fc6719"><path d="m105.859 115.919c-.663-.006-1.326.028-1.985.102-.546.068-1.008.134-1.385.198l.199-5.736h3.756v-3.099h-4.723c-.287-.025-.575.012-.846.11s-.517.253-.722.455c-.3332.403-.5135.912-.5085 1.435l-.3359 10.301c.5564-.176 1.2744-.371 2.1524-.585 1.057-.229 2.136-.335 3.217-.316.599-.002 1.198.041 1.791.128v-2.973c-.234-.02-.422-.02-.61-.02z"/><path d="m105.111 127.396c-.854.012-1.707-.066-2.545-.235-.614-.118-1.217-.288-1.802-.508-.392-.153-.7716-.337-1.1345-.55l-.4682-.285-1.3996 2.545c.1323.088.3885.237.7685.447.4807.256.9831.469 1.5018.637.726.237 1.467.426 2.219.565.951.175 1.918.258 2.885.249.448 0 .876 0 1.293-.051v-2.855c-.438.039-.878.053-1.318.041z"/><path d="m129.684 96.0699c-3.045-3.0509-6.672-5.4587-10.666-7.0805s-8.272-2.4245-12.582-2.3603v1.7812c4.049-.074 8.073.6597 11.836 2.1583s7.189 3.7319 10.079 6.5696 5.186 6.2228 6.753 9.9578 2.374 7.745 2.374 11.795-.807 8.06-2.374 11.795-3.863 7.12-6.753 9.957c-2.89 2.838-6.316 5.072-10.079 6.57-3.763 1.499-7.787 2.232-11.836 2.158v1.782c6.418.086 12.717-1.744 18.09-5.256s9.576-8.547 12.072-14.461 3.172-12.438 1.94-18.738-4.314-12.09-8.854-16.6281z"/></g><path d="m124.854 100.879c3.583 3.585 6.014 8.158 6.981 13.133.968 4.975.427 10.126-1.551 14.792-1.979 4.666-5.306 8.635-9.555 11.398s-9.226 4.194-14.293 4.11v5.044c4.049.074 8.073-.66 11.836-2.158 3.763-1.499 7.189-3.732 10.079-6.57s5.186-6.223 6.753-9.958 2.374-7.744 2.374-11.795c0-4.05-.807-8.06-2.374-11.794-1.567-3.735-3.863-7.1204-6.753-9.9581s-6.316-5.0711-10.079-6.5697c-3.763-1.4985-7.787-2.2322-11.836-2.1582v5.0436c3.412-.0628 6.803.5638 9.968 1.8423 3.164 1.2786 6.039 3.1827 8.45 5.5981z" fill="#3d113c"/><path d="m124.854 100.879c-2.411-2.4162-5.285-4.3212-8.45-5.6007-3.165-1.2794-6.555-1.9068-9.968-1.8447v2.0918c3.116-.0797 6.217.4653 9.119 1.6028s5.548 2.8445 7.78 5.0208c2.232 2.176 4.006 4.776 5.218 7.649 1.211 2.872 1.835 5.958 1.835 9.075s-.624 6.203-1.835 9.076c-1.212 2.872-2.986 5.473-5.218 7.649-2.232 2.175-4.878 3.883-7.78 5.02-2.902 1.138-6.003 1.682-9.119 1.603v2.092c5.067.083 10.044-1.348 14.293-4.111s7.576-6.732 9.555-11.398c1.978-4.666 2.519-9.817 1.551-14.792-.967-4.975-3.398-9.548-6.981-13.133z" fill="#fdb98d"/><path d="m111.347 107.394c1.221 0 1.832.509 1.832 1.527.008.336-.055.671-.183.982-.084.2-.179.396-.285.585h-6.275v5.456c1.138.014 2.267.21 3.343.58.966.336 1.847.876 2.586 1.583.638.629 1.118 1.4 1.399 2.25.277.839.418 1.717.418 2.6.012 1.006-.18 2.003-.565 2.932-.377.886-.953 1.674-1.685 2.3-.826.69-1.786 1.201-2.819 1.502-.872.262-1.77.424-2.677.483v12.047c3.116.08 6.217-.465 9.119-1.603 2.902-1.137 5.548-2.844 7.78-5.02s4.006-4.777 5.218-7.649c1.211-2.873 1.835-5.959 1.835-9.076s-.624-6.203-1.835-9.075c-1.212-2.873-2.986-5.473-5.218-7.649-2.232-2.1763-4.878-3.8833-7.78-5.0208s-6.003-1.6824-9.119-1.6027v11.8635z" fill="#fc6719"/><path d="m110.542 123.161c.001-.569-.095-1.133-.285-1.669-.196-.543-.529-1.025-.967-1.4-.532-.441-1.151-.766-1.817-.952-.333-.099-.674-.174-1.018-.224v8.403c1.045-.06 2.043-.457 2.845-1.13.409-.389.731-.859.945-1.381s.315-1.083.297-1.647z" fill="#fc6719"/><path d="m112.711 110.493c.106-.189.201-.385.285-.585.128-.311.191-.646.183-.982 0-1.018-.611-1.527-1.832-1.527h-4.911v3.099z" fill="#3d113c"/><path d="m111.926 128.199c.732-.626 1.308-1.413 1.685-2.3.385-.929.577-1.926.565-2.931.001-.884-.14-1.762-.418-2.601-.281-.85-.761-1.621-1.399-2.25-.738-.707-1.62-1.246-2.586-1.582-1.076-.371-2.205-.567-3.343-.581v2.973c.344.049.684.124 1.018.223.665.187 1.284.511 1.817.952.438.375.771.857.967 1.4.189.536.286 1.1.285 1.669.018.57-.085 1.137-.304 1.664-.218.527-.547 1.001-.964 1.39-.802.673-1.799 1.069-2.845 1.13v2.814c.908-.059 1.806-.221 2.677-.483 1.041-.294 2.01-.8 2.845-1.487z" fill="#3d113c"/><path d="m71.9295 67.4164c-3.4564-3.4631-5.809-7.8728-6.7607-12.6722s-.4598-9.7731 1.4136-14.2931c1.8733-4.52 5.0441-8.3835 9.1118-11.1025 4.0678-2.719 8.85-4.1716 13.7428-4.1744v-1.4657c-6.9514 0-13.6181 2.7615-18.5336 7.6769-4.9154 4.9154-7.6768 11.5821-7.6768 18.5336 0 6.9514 2.7614 13.6182 7.6768 18.5336 4.9155 4.9154 11.5822 7.6769 18.5336 7.6769v-1.4454c-3.2532.0023-6.4748-.6386-9.4794-1.8858-3.0046-1.2473-5.733-3.0763-8.0281-5.3819z" fill="#fdb98d"/><path d="m71.9288 67.4164c2.2964 2.3028 5.0253 4.129 8.0299 5.3737 3.0045 1.2446 6.2255 1.8831 9.4776 1.8787v-4.0715c-5.4801 0-10.7359-2.177-14.6109-6.0521-3.8751-3.875-6.0521-9.1308-6.0521-14.6109 0-5.4802 2.177-10.7359 6.0521-14.611 3.875-3.8751 9.1308-6.0521 14.6109-6.0521v-4.0715c-4.8928.0028-9.675 1.4554-13.7428 4.1744-4.0677 2.719-7.2385 6.5825-9.1118 11.1025-1.8734 4.5199-2.3653 9.4937-1.4136 14.2931.9517 4.7993 3.3043 9.209 6.7607 12.6721z" fill="#fc6719"/><path d="m76.0259 63.3197c-2.6597-2.651-4.4725-6.0319-5.2085-9.7143s-.3621-7.5004 1.0743-10.9701c1.4364-3.4696 3.8706-6.4347 6.994-8.5194 3.1235-2.0846 6.7955-3.195 10.5508-3.1903v-1.6795c-5.4802 0-10.7359 2.177-14.611 6.0521-3.8751 3.875-6.0521 9.1307-6.0521 14.6109s2.177 10.7359 6.0521 14.611 9.1308 6.052 14.611 6.052v-1.6998c-2.4909.0035-4.958-.4853-7.2594-1.4382-2.3014-.9528-4.3919-2.3511-6.1512-4.1144z" fill="#fffac2"/><path d="m76.0262 63.3194c1.7594 1.7633 3.8499 3.1615 6.1513 4.1144s4.7684 1.4417 7.2593 1.4382v-10.2043h-7.1252v-2.3818c.2172-.1629.5955-.4377 1.135-.8245s1.1298-.8296 1.7711-1.3284c.6413-.4953 1.2859-1.0043 1.934-1.5268.648-.5225 1.1977-1.006 1.649-1.4505.2137-.2036.4071-.4122.6107-.6158v-7.9904c-.4471-.1036-.9051-.1531-1.364-.1476-.6018-.0156-1.2007.09-1.7609.3105-.441.1782-.8487.4294-1.2062.743-.2882.2568-.5384.5533-.7431.8805-.1402.2182-.2579.4501-.3511.6922-.4445-.0547-.8654-.2308-1.2164-.509-.1365-.1113-.2463-.2519-.3211-.4113-.0749-.1595-.113-.3337-.1115-.5099.0246-.6157.2874-1.1978.7329-1.6235.1753-.1854.3659-.3557.57-.5089.3143-.2454.6559-.4537 1.0179-.6209.4924-.2157 1.0034-.3861 1.5268-.509.6663-.1613 1.3503-.2382 2.0358-.229.3927.0013.7852.0234 1.1756.0662v-9.2475c-3.751-.0007-7.418 1.1112-10.5371 3.1948-3.119 2.0837-5.5501 5.0456-6.9856 8.511-1.4356 3.4655-1.8111 7.2789-1.0792 10.9578.732 3.6789 2.5386 7.0581 5.1913 9.7102z" fill="#fdb98d"/><path d="m87.5374 55.4359c-.4784.3698-.8177.6175-1.0179.743h2.9366v-2.2851l-.3511.2952c-.5836.4614-1.1061.8771-1.5676 1.2469z" fill="#fdb98d"/><path d="m86.5194 56.1793c.2002-.1256.5395-.3732 1.0179-.7431.4784-.3698 1.0026-.7854 1.5726-1.2469l.3512-.2952v-3.3641c-.2036.2036-.397.4123-.6108.6159-.4512.4342-1.0009.9177-1.6489 1.4504-.6481.5327-1.2928 1.0417-1.934 1.5269-.6413.4953-1.2317.9381-1.7711 1.3283-.5395.3902-.9178.665-1.135.8245v2.3818h7.1252v-2.4887z" fill="#fc6719"/><path d="m88.2545 40.0864c-.6855-.0092-1.3694.0677-2.0358.2291-.5233.1229-1.0344.2932-1.5268.5089-.362.1672-.7035.3756-1.0179.6209-.204.1532-.3947.3235-.57.5089-.4455.4258-.7083 1.0079-.7329 1.6236-.0015.1761.0366.3504.1115.5098s.1846.3.3211.4114c.351.2781.7719.4542 1.2164.5089.0933-.242.2109-.474.3512-.6922.2047-.3272.4549-.6236.743-.8804.3575-.3137.7653-.5649 1.2062-.7431.5602-.2205 1.1591-.3261 1.761-.3104.4589-.0056.9168.044 1.3639.1476v-2.3921c-.3958-.0382-.7933-.0552-1.1909-.0509z" fill="#fc6719"/><path d="m107.962 31.3834c-2.431-2.437-5.319-4.3696-8.4992-5.6867-3.1801-1.3171-6.5891-1.9928-10.0312-1.9882v1.4454c6.5655 0 12.8624 2.6081 17.5044 7.2506 4.642 4.6424 7.251 10.9389 7.251 17.5043s-2.609 12.862-7.251 17.5044-10.9389 7.2505-17.5044 7.2505v1.4454c5.181-.0018 10.2453-1.5393 14.5524-4.4183 4.308-2.8789 7.665-6.9701 9.648-11.7566 1.983-4.7864 2.503-10.0533 1.494-15.1351-1.009-5.0817-3.502-9.7503-7.164-13.4157z" fill="#fc6719"/><path d="m104.043 35.3022c2.89 2.8898 4.859 6.5717 5.656 10.5802.797 4.0084.388 8.1633-1.176 11.9391-1.564 3.7759-4.213 7.0031-7.611 9.2736-3.3981 2.2705-7.3934 3.4822-11.4804 3.4819v4.0715c6.5655 0 12.8624-2.6081 17.5044-7.2505 4.642-4.6425 7.251-10.939 7.251-17.5044s-2.609-12.8619-7.251-17.5044c-4.642-4.6424-10.9389-7.2505-17.5044-7.2505v4.0715c2.717.0015 5.4068.5406 7.9146 1.5861 2.5077 1.0456 4.7838 2.577 6.6968 4.5059z" fill="#3d113c"/><path d="m104.044 35.3025c-1.916-1.9219-4.1922-3.4464-6.6988-4.4857-2.5067-1.0394-5.1941-1.5732-7.9077-1.5707v1.6795c5.03 0 9.854 1.9982 13.4105 5.5549 3.557 3.5568 5.555 8.3808 5.555 13.4108s-1.998 9.854-5.555 13.4108c-3.5565 3.5568-8.3805 5.5549-13.4105 5.5549v1.6999c4.0824-.0047 8.0718-1.2186 11.4645-3.4885 3.394-2.2698 6.038-5.4939 7.601-9.2654s1.973-7.9213 1.179-11.9258c-.793-4.0045-2.755-7.6842-5.638-10.5747z" fill="#fdb98d"/><path d="m91.0179 48.6826c.2817-.418.514-.8671.6922-1.3386.1745-.4723.2625-.9723.2596-1.4759-.0007-.4227-.0642-.8429-.1883-1.2469-.1256-.4131-.3431-.7924-.6362-1.1095-.3343-.3496-.7407-.6222-1.1909-.799-.1653-.0671-.3355-.1216-.509-.1629v7.9802c.1934-.1985.397-.3919.5802-.5904.3644-.3914.6963-.8118.9924-1.257z" fill="#fc6719"/><path d="m91.1526 40.4935c.7691.244 1.4795.6443 2.0867 1.1757.5536.4977.9885 1.1134 1.2723 1.8016.2942.7256.4413 1.5023.4327 2.2852.0046.6048-.0812 1.2069-.2545 1.7863-.1628.5321-.3847 1.0443-.6616 1.5269-.2599.4665-.5578.9108-.8907 1.3283-.3393.4072-.6684.7821-.9873 1.1248-.319.3427-.7753.7617-1.3691 1.2571-.4377.3766-.8805.7481-1.3283 1.1145v2.2852h5.6696v2.4887h-5.6849v10.2043c5.03 0 9.854-1.9982 13.4105-5.5549 3.557-3.5568 5.555-8.3808 5.555-13.4108s-1.998-9.854-5.555-13.4108c-3.5565-3.5568-8.3805-5.5549-13.4105-5.5549v9.1965c.583.0559 1.1581.1753 1.7151.3563z" fill="#fc6719"/><path d="m95.1071 56.1792h-5.6696v2.4887h5.6696z" fill="#3d113c"/><path d="m90.7604 52.7792c.5497-.4784 1.006-.8974 1.369-1.2571.3631-.3597.699-.7346 1.0077-1.1248.3376-.412.6406-.8512.906-1.313.2769-.4826.4988-.9948.6616-1.5269.1733-.5794.2591-1.1815.2545-1.7863.0086-.7829-.1385-1.5597-.4326-2.2852-.2839-.6882-.7188-1.3039-1.2724-1.8016-.6072-.5315-1.3176-.9317-2.0867-1.1757-.5586-.1813-1.1355-.3008-1.7202-.3563v2.4124c.1736.0413.3437.0958.509.1629.4502.1768.8566.4494 1.1909.799.2931.3171.5106.6964.6362 1.1095.1241.404.1876.8243.1883 1.2469.0029.5036-.085 1.0036-.2596 1.476-.1782.4714-.4105.9206-.6921 1.3385-.3043.4462-.6448.8666-1.0179 1.2571-.1833.1984-.3868.3918-.5802.5903v3.3641c.458-.3817.9059-.7481 1.3385-1.1298z" fill="#3d113c"/><path d="m39.5352 91.4892c-3.2921-3.2931-5.5343-7.4882-6.4432-12.0551s-.4438-9.3007 1.3367-13.6034c1.7804-4.3026 4.7962-7.981 8.6664-10.5704 3.8701-2.5893 8.4209-3.9735 13.0774-3.9775v-1.3741c-6.614 0-12.9571 2.6274-17.6339 7.3042s-7.3042 11.0199-7.3042 17.6339 2.6274 12.9571 7.3042 17.6339c4.6768 4.6769 11.0199 7.3043 17.6339 7.3043v-1.3793c-3.0919-.0008-6.1533-.6121-9.0084-1.7991-2.8551-1.1869-5.4476-2.926-7.6289-5.1174z" fill="#fdb98d"/><path d="m39.5349 91.4893c2.1826 2.1887 4.7757 3.925 7.6307 5.1092 2.855 1.1843 5.9158 1.7933 9.0066 1.7921v-3.8934c-5.2142 0-10.2149-2.0714-13.902-5.7584-3.687-3.6871-5.7584-8.6878-5.7584-13.902 0-5.2143 2.0714-10.215 5.7584-13.902 3.6871-3.6871 8.6878-5.7584 13.902-5.7584v-3.8934c-4.6564.004-9.2072 1.3881-13.0774 3.9774-3.8701 2.5894-6.886 6.2678-8.6664 10.5704-1.7804 4.3027-2.2456 9.0365-1.3367 13.6035.9089 4.5669 3.1511 8.7619 6.4432 12.055z" fill="#fc6719"/><path d="m43.433 87.6063c-2.521-2.5217-4.2385-5.7338-4.9356-9.2307-.6972-3.4969-.3428-7.122 1.0184-10.4178 1.3612-3.2957 3.6682-6.1143 6.6298-8.1001s6.4452-3.0498 10.0109-3.0576v-1.6133c-5.2143 0-10.215 2.0713-13.902 5.7584-3.687 3.687-5.7584 8.6877-5.7584 13.902 0 5.2142 2.0714 10.215 5.7584 13.902s8.6877 5.7584 13.902 5.7584v-1.6134c-2.3642-.0021-4.7048-.4703-6.888-1.3776s-4.1662-2.2361-5.8355-3.9103z" fill="#fffac2"/><path d="m43.4323 87.6063c1.6698 1.6732 3.6529 3.0011 5.8361 3.9075 2.1832.9065 4.5236 1.3738 6.8874 1.3753v-8.8505h-1.3232v-14.0621l-3.9952 3.0537c-.1426-.0233-.2813-.0662-.4122-.1272-.1553-.068-.2994-.1589-.4275-.2698-.1298-.1141-.2383-.2502-.3207-.402-.088-.166-.1318-.3518-.1272-.5395-.0011-.2873.0898-.5673.2596-.7991.2154-.2826.4769-.5269.7735-.7227l3.3998-2.5447c.2982-.231.6228-.4257.967-.5802.3563-.1392.7372-.205 1.1196-.1934h.0865v-10.0516c-3.5657.0079-7.0492 1.0718-10.0108 3.0576-2.9617 1.9858-5.2687 4.8045-6.6298 8.1002-1.3612 3.2957-1.7156 6.9208-1.0185 10.4177.6972 3.497 2.4146 6.709 4.9356 9.2308z" fill="#fdb98d"/><path d="m56.0863 66.8363c-.3825-.0116-.7633.0542-1.1197.1934-.3442.1544-.6688.3492-.967.5802l-3.3997 2.5447c-.2966.1958-.5581.4401-.7736.7227-.1697.2318-.2607.5118-.2596.7991-.0046.1877.0393.3735.1273.5394.0823.1519.1909.288.3206.4021.1282.1108.2723.2018.4275.2697.131.0611.2697.1039.4123.1273l3.9951-3.0537v14.0621h1.3233v-17.2023z" fill="#fc6719"/><path d="m73.7965 92.4766c3.4857-3.4874 5.8594-7.9297 6.8211-12.7656.9617-4.836.4683-9.8485-1.4179-14.4041s-5.0805-8.4499-9.1792-11.1906c-4.0988-2.7407-8.918-4.2049-13.8486-4.2076v1.3741c3.0934 0 6.1566.6093 9.0146 1.7932 2.858 1.1838 5.4548 2.9189 7.6422 5.1063s3.9226 4.7843 5.1064 7.6423 1.7931 5.9211 1.7931 9.0146-.6093 6.1566-1.7931 9.0146-2.919 5.4548-5.1064 7.6423c-2.1874 2.1874-4.7842 3.9225-7.6422 5.1063s-5.9212 1.7932-9.0146 1.7932v1.3792c3.2736.004 6.5157-.6387 9.5403-1.8911 3.0245-1.2525 5.7719-3.09 8.0843-5.4071z" fill="#fc6719"/><path d="m70.0914 60.953c2.7514 2.7505 4.6249 6.2554 5.3834 10.0712s.3679 7.7708-1.1224 11.3644c-1.4903 3.5937-4.0133 6.6644-7.2497 8.8235-3.2363 2.1591-7.0404 3.3095-10.9308 3.3056v3.8934c3.0934 0 6.1566-.6093 9.0146-1.7932 2.858-1.1838 5.4548-2.9189 7.6422-5.1063s3.9226-4.7843 5.1064-7.6423 1.7931-5.9211 1.7931-9.0146-.6093-6.1566-1.7931-9.0146-2.919-5.4549-5.1064-7.6423-4.7842-3.9225-7.6422-5.1063c-2.858-1.1839-5.9212-1.7932-9.0146-1.7932v3.8934c2.5855-.0052 5.1464.5011 7.5354 1.4899 2.3889.9887 4.5586 2.4404 6.3841 4.2714z" fill="#3d113c"/><path d="m70.0914 88.7463c2.7514-2.7504 4.6249-6.2554 5.3834-10.0712.7585-3.8157.3679-7.7708-1.1224-11.3644-1.4903-3.5937-4.0133-6.6644-7.2497-8.8235-3.2363-2.1591-7.0404-3.3095-10.9308-3.3055v1.6133c2.3951-.0402 4.7743.3968 6.9988 1.2855 2.2245.8888 4.2498 2.2115 5.9578 3.8911 1.7081 1.6796 3.0646 3.6824 3.9906 5.8917.926 2.2092 1.4029 4.5807 1.4029 6.9762s-.4769 4.767-1.4029 6.9763c-.926 2.2092-2.2825 4.212-3.9906 5.8916-1.708 1.6796-3.7333 3.0023-5.9578 3.8911s-4.6037 1.3258-6.9988 1.2855v1.6134c2.5847.0066 5.1453-.4981 7.5342-1.4851s4.559-2.4368 6.3853-4.266z" fill="#fdb98d"/><path d="m57.1185 66.9737c.1564.0498.304.1236.4377.2188v16.846h-1.3843v8.8505c2.3951.0402 4.7743-.3968 6.9988-1.2856s4.2498-2.2115 5.9578-3.8911c1.7081-1.6795 3.0646-3.6823 3.9906-5.8916s1.4029-4.5808 1.4029-6.9763c0-2.3954-.4769-4.767-1.4029-6.9762-.926-2.2093-2.2825-4.2121-3.9906-5.8917-1.708-1.6795-3.7333-3.0023-5.9578-3.891-2.2245-.8888-4.6037-1.3258-6.9988-1.2856v10.0414c.3207-.0093.6407.0355.9466.1324z" fill="#fc6719"/><path d="m57.5562 67.1928c-.1337-.0952-.2813-.1691-.4377-.2189-.3056-.0986-.6256-.1451-.9466-.1374v17.2022h1.3843z" fill="#3d113c"/></g></svg>