<svg width="180" height="179" viewBox="0 0 180 179" fill="none" xmlns="http://www.w3.org/2000/svg">
<g clip-path="url(#clip0_2831_6318)">
<path d="M66.294 96.7342H77.053V93.3955H64.4414V94.9223C64.4454 95.4138 64.6424 95.884 64.9899 96.2315C65.3374 96.579 65.8076 96.776 66.299 96.78L66.294 96.7342Z" fill="#3D113C"/>
<path d="M77.0519 92.4793V87.1253H67.1479V86.4077C67.1479 85.2266 67.6171 84.0939 68.4522 83.2587C69.2874 82.4236 70.4201 81.9544 71.6012 81.9544H73.4181C73.213 81.5782 73.1062 81.1563 73.1076 80.7279V79.0178H74.7159V68.8797H77.0316V61.2456H61.0711C60.4875 61.2456 59.9146 61.0888 59.4123 60.7915C58.91 60.4943 58.4969 60.0675 58.216 59.5559V66.3503H56.0784C55.7361 66.349 55.3949 66.3114 55.0605 66.2383V71.9385C55.0616 72.8948 55.3704 73.8255 55.9415 74.5927C56.5125 75.3599 57.3154 75.9229 58.2313 76.1983V88.815C58.2313 90.0203 58.7101 91.1763 59.5624 92.0287C60.4147 92.881 61.5707 93.3598 62.7761 93.3598H77.0723L77.0519 92.4793ZM64.705 70.9155V70.5389H60.7658C60.7685 69.9876 60.9886 69.4597 61.3784 69.0699C61.7682 68.6801 62.2961 68.46 62.8474 68.4573H69.4992C69.7726 68.4573 70.0433 68.5111 70.2958 68.6157C70.5483 68.7204 70.7778 68.8737 70.9711 69.067C71.1644 69.2603 71.3177 69.4897 71.4223 69.7423C71.527 69.9948 71.5808 70.2655 71.5808 70.5389H69.2651C69.5618 70.6831 69.8012 70.9232 69.9445 71.2203C70.0879 71.5174 70.1268 71.8542 70.055 72.1762C69.9832 72.4982 69.8048 72.7866 69.5488 72.9946C69.2928 73.2027 68.9741 73.3183 68.6442 73.3228H67.1174C66.4793 73.3228 65.8673 73.07 65.4151 72.6198C64.963 72.1696 64.7077 71.5586 64.705 70.9206V70.9155Z" fill="#FDB98D"/>
<path d="M58.2112 66.3301V59.5307C58.4921 60.0423 58.9053 60.469 59.4075 60.7663C59.9098 61.0635 60.4827 61.2203 61.0664 61.2204H77.0522V55.3472H51.2285V61.485C51.2299 62.7696 51.7408 64.0012 52.6491 64.9095C53.5575 65.8179 54.789 66.3288 56.0736 66.3301H58.2112Z" fill="#016099"/>
<path d="M66.4273 71.857C66.4282 71.5829 66.5059 71.3146 66.6517 71.0825C66.7974 70.8504 67.0053 70.6638 67.2517 70.5439H64.707V70.9206C64.707 71.2374 64.7694 71.5511 64.8907 71.8437C65.0119 72.1364 65.1896 72.4024 65.4136 72.6264C65.6376 72.8504 65.9035 73.0281 66.1962 73.1493C66.4889 73.2705 66.8026 73.3329 67.1194 73.3329H67.9032C67.7092 73.3336 67.5169 73.2959 67.3376 73.222C67.1582 73.148 66.9952 73.0393 66.858 72.9021C66.7209 72.765 66.6122 72.602 66.5382 72.4226C66.4643 72.2432 66.4266 72.051 66.4273 71.857V71.857Z" fill="white"/>
<path d="M68.6446 70.6C68.9166 70.7672 69.127 71.0181 69.2443 71.3151C69.3616 71.612 69.3794 71.939 69.2951 72.2469C69.2109 72.5549 69.029 72.8272 68.7768 73.023C68.5246 73.2188 68.2157 73.3276 67.8965 73.333H68.6446C68.9745 73.3285 69.2932 73.2129 69.5492 73.0048C69.8053 72.7968 69.9836 72.5084 70.0554 72.1864C70.1272 71.8644 70.0883 71.5276 69.945 71.2305C69.8016 70.9334 69.5622 70.6933 69.2655 70.5491H68.5327L68.6446 70.6Z" fill="white"/>
<path d="M68.6445 73.119C68.87 72.9918 69.0577 72.807 69.1883 72.5834C69.3189 72.3598 69.3878 72.1056 69.3878 71.8466C69.3878 71.5877 69.3189 71.3334 69.1883 71.1099C69.0577 70.8863 68.87 70.7015 68.6445 70.5743L68.5376 70.5183H67.25C67.0718 70.6047 66.913 70.7263 66.7831 70.8758C66.6533 71.0252 66.555 71.1995 66.4944 71.388C66.4337 71.5764 66.4118 71.7752 66.4301 71.9724C66.4484 72.1696 66.5064 72.361 66.6007 72.5351C66.695 72.7092 66.8235 72.8624 66.9787 72.9855C67.1338 73.1085 67.3122 73.1989 67.5032 73.2511C67.6942 73.3033 67.8938 73.3162 68.09 73.2891C68.2861 73.2621 68.4748 73.1955 68.6445 73.0936V73.119Z" fill="black"/>
<path d="M58.2118 55.3471H77.0427V39.1526H62.6905C59.9868 39.1507 57.3784 40.1512 55.3695 41.9608C53.3606 43.7704 52.094 46.2605 51.8144 48.9497H48.832V55.3471H58.2118V55.3471Z" fill="#3D113C"/>
<path d="M68.5391 70.544H71.5928C71.5928 69.9919 71.3735 69.4625 70.9831 69.0721C70.5927 68.6817 70.0633 68.4624 69.5112 68.4624H62.8492C62.2979 68.4651 61.77 68.6852 61.3802 69.075C60.9904 69.4648 60.7703 69.9927 60.7676 70.544H68.5391Z" fill="#3D113C"/>
<path d="M75.6783 83.2928C75.215 83.2958 74.7597 83.1722 74.3615 82.9354C73.9633 82.6987 73.6373 82.3577 73.4186 81.9492H71.6017C70.4206 81.9492 69.2879 82.4184 68.4528 83.2535C67.6176 84.0887 67.1484 85.2214 67.1484 86.4025V87.1201H77.0524V83.2928H75.6783Z" fill="#3D113C"/>
<path d="M75.6784 83.2931H77.0576V68.8799H74.7165V79.018H73.0879V80.728C73.0879 81.0622 73.1537 81.3931 73.2816 81.7019C73.4095 82.0106 73.5969 82.2911 73.8332 82.5274C74.0695 82.7637 74.35 82.9512 74.6588 83.079C74.9675 83.2069 75.2984 83.2727 75.6326 83.2727L75.6784 83.2931Z" fill="#FC6719"/>
<path d="M44.1799 39.3H40.7344V97.3245H44.1799V39.3Z" fill="#3D113C"/>
<path d="M42.7662 153.776C42.0696 153.66 41.3872 153.471 40.7305 153.211V163.538C41.4091 163.985 42.0876 164.423 42.7662 164.851V153.776Z" fill="#3D113C"/>
<path d="M42.7656 153.776V164.851C43.2339 165.143 43.7038 165.431 44.1754 165.716V153.909C43.703 153.898 43.2319 153.853 42.7656 153.776V153.776Z" fill="#3D113C"/>
<path d="M44.1794 109.407H49.2688V100.841C49.2688 100.379 49.1777 99.921 49.0007 99.4937C48.8237 99.0664 48.5643 98.6781 48.2372 98.3511C47.9102 98.0241 47.522 97.7647 47.0947 97.5877C46.6674 97.4107 46.2094 97.3196 45.7469 97.3196H40.2758C39.3417 97.3196 38.4459 97.6906 37.7854 98.3511C37.125 99.0116 36.7539 99.9074 36.7539 100.841V109.407H44.1794V109.407Z" fill="#FDB98D"/>
<path d="M44.1799 153.909V165.716C54.251 171.773 65.4277 175.762 77.0575 177.452V96.7342H66.2934C65.9441 96.7338 65.6021 96.6347 65.3067 96.4483C65.0114 96.2619 64.7747 95.9958 64.6241 95.6807C58.8008 95.9958 53.3136 98.5074 49.2693 102.709V109.402H51.7122V112.888H34.4082V143.842C34.4019 146.463 35.4202 148.983 37.2459 150.863C39.0715 152.744 41.5598 153.837 44.1799 153.909Z" fill="#016099"/>
<path d="M43.5188 112.893H44.1753H51.6415H51.6975V109.407H49.2546H44.7453H44.1753H40.7298H36.755H34.3477V112.893H34.368H40.7298H43.5188Z" fill="#3D113C"/>
<path d="M77.0527 95.6452V96.7343H87.9492C88.4406 96.7303 88.9108 96.5333 89.2583 96.1858C89.6058 95.8383 89.8028 95.3681 89.8068 94.8767V93.3499H77.0833L77.0527 95.6452Z" fill="black"/>
<path d="M96.01 66.33V59.5305C95.7292 60.0421 95.316 60.4689 94.8137 60.7661C94.3114 61.0634 93.7385 61.2202 93.1549 61.2202H77.052V68.8543H79.4847V78.9924H81.1133V80.7025C81.1147 81.1309 81.008 81.5528 80.8029 81.929H82.6198C83.8009 81.929 84.9336 82.3982 85.7687 83.2334C86.6038 84.0685 87.073 85.2012 87.073 86.3823V87.0999H77.0469V93.3955H91.4601C92.6655 93.3955 93.8215 92.9167 94.6738 92.0643C95.5261 91.212 96.0049 90.056 96.0049 88.8506V76.178C96.9208 75.9026 97.7237 75.3396 98.2947 74.5724C98.8658 73.8052 99.1746 72.8745 99.1757 71.9182V66.218C98.8413 66.2911 98.5001 66.3286 98.1578 66.33H96.01ZM93.0734 70.4015H89.5109V70.6967C89.5109 71.3365 89.2567 71.9501 88.8043 72.4025C88.3519 72.8549 87.7383 73.1091 87.0985 73.1091H85.5716C85.2559 73.1052 84.9499 72.9995 84.6991 72.8076C84.4483 72.6158 84.2662 72.3481 84.1798 72.0444C84.0935 71.7407 84.1075 71.4172 84.2198 71.1221C84.3321 70.827 84.5367 70.576 84.8031 70.4066H82.6351C82.6351 69.8545 82.8544 69.3251 83.2447 68.9347C83.6351 68.5443 84.1646 68.325 84.7166 68.325H91.3685C91.9197 68.3277 92.4476 68.5479 92.8374 68.9377C93.2272 69.3275 93.4474 69.8554 93.4501 70.4066L93.0734 70.4015Z" fill="#FC6719"/>
<path d="M96.0108 55.3472H77.0527V61.2254H93.1556C93.7393 61.2254 94.3122 61.0686 94.8145 60.7714C95.3167 60.4741 95.7299 60.0474 96.0108 59.5358V66.3301H98.128C99.4126 66.3288 100.644 65.8179 101.553 64.9095C102.461 64.0012 102.972 62.7696 102.973 61.485V55.3472H96.0108Z" fill="#3D113C"/>
<path d="M87.8009 71.6178C87.8009 72.0079 87.646 72.382 87.3701 72.6579C87.0943 72.9337 86.7202 73.0887 86.3301 73.0887H87.1138C87.4306 73.0887 87.7443 73.0263 88.037 72.905C88.3297 72.7838 88.5956 72.6061 88.8197 72.3821C89.0437 72.1581 89.2214 71.8922 89.3426 71.5995C89.4638 71.3068 89.5262 70.9931 89.5262 70.6763V70.3811H87.1291C87.3359 70.5143 87.5058 70.6974 87.6232 70.9136C87.7406 71.1297 87.8017 71.3719 87.8009 71.6178V71.6178Z" fill="white"/>
<path d="M85.5832 72.88C85.3664 72.7537 85.1859 72.5734 85.0593 72.3567C84.9327 72.1399 84.8642 71.8942 84.8607 71.6432C84.8571 71.3922 84.9184 71.1446 85.0388 70.9244C85.1592 70.7041 85.3345 70.5187 85.5476 70.3862H84.8198C84.5534 70.5557 84.3488 70.8066 84.2365 71.1017C84.1242 71.3968 84.1102 71.7203 84.1965 72.024C84.2829 72.3277 84.465 72.5954 84.7158 72.7872C84.9666 72.9791 85.2726 73.0848 85.5883 73.0887H86.3365C86.0733 73.0848 85.8156 73.0129 85.5883 72.88H85.5832Z" fill="white"/>
<path d="M87.8018 71.6178C87.8021 71.3714 87.7402 71.1289 87.6218 70.9127C87.5035 70.6966 87.3326 70.5137 87.1249 70.3811H85.5421C85.3277 70.5181 85.1525 70.7085 85.034 70.9336C84.9155 71.1588 84.8576 71.4109 84.866 71.6653C84.8745 71.9196 84.9491 72.1673 85.0823 72.3841C85.2156 72.6009 85.403 72.7792 85.6261 72.9016C85.8492 73.024 86.1003 73.0861 86.3547 73.082C86.6091 73.0779 86.8581 73.0076 87.0771 72.8781C87.2961 72.7486 87.4777 72.5643 87.6039 72.3433C87.73 72.1223 87.7965 71.8723 87.7967 71.6178H87.8018Z" fill="black"/>
<path d="M77.0527 48.9497V55.3471H111.6V55.225C111.6 53.5607 110.939 51.9646 109.762 50.7877C108.585 49.6109 106.989 48.9497 105.324 48.9497H102.403C102.123 46.2579 100.854 43.7657 98.8424 41.9557C96.8303 40.1458 94.2181 39.1469 91.5118 39.1526H77.0527V48.9497Z" fill="black"/>
<path d="M91.3748 68.2996H84.7281C84.176 68.2996 83.6465 68.5189 83.2562 68.9092C82.8658 69.2996 82.6465 69.8291 82.6465 70.3811H93.4666C93.4639 69.8299 93.2437 69.302 92.8539 68.9122C92.4642 68.5224 91.9363 68.3022 91.385 68.2996H91.3748Z" fill="#3D113C"/>
<path d="M87.0792 86.4078C87.0792 85.2268 86.6101 84.0941 85.7749 83.2589C84.9398 82.4238 83.8071 81.9546 82.626 81.9546H80.8243C80.6057 82.363 80.2797 82.704 79.8814 82.9408C79.4832 83.1776 79.0279 83.3012 78.5646 83.2982H77.0684V87.1254H87.0945L87.0792 86.4078Z" fill="black"/>
<path d="M77.0536 81.9495V83.2931H78.5498C79.2247 83.2931 79.872 83.025 80.3492 82.5478C80.8265 82.0706 81.0946 81.4233 81.0946 80.7484V79.0384H79.4659V68.8799H77.0332V81.9546L77.0536 81.9495Z" fill="#3D113C"/>
<path d="M100.257 97.2082H107.25V81.2733C107.25 80.6477 107.373 80.0282 107.612 79.4503C107.852 78.8723 108.202 78.3472 108.645 77.9048C109.087 77.4625 109.612 77.1116 110.19 76.8722C110.768 76.6328 111.388 76.5096 112.013 76.5096V91.0144H144.077V76.5706C145.34 76.5706 146.552 77.0725 147.445 77.9659C148.338 78.8593 148.84 80.0709 148.84 81.3343V97.2082H155.833C155.833 99.1559 155.158 101.043 153.923 102.55C152.688 104.056 150.969 105.087 149.059 105.468C153.942 108.498 158.117 112.543 161.301 117.327C164.484 122.112 166.601 127.526 167.508 133.201C176.051 118.104 180 100.842 178.87 83.5329C177.74 66.2239 171.58 49.6215 161.147 35.7641C150.714 21.9068 136.461 11.3976 120.139 5.52681C103.816 -0.34395 86.1352 -1.32076 69.2656 2.71632C52.3961 6.75339 37.0725 15.6286 25.1762 28.2524C13.2799 40.8761 5.32879 56.699 2.29895 73.7782C-0.730888 90.8574 1.29246 108.45 8.12058 124.395C14.9487 140.341 26.2844 153.945 40.7359 163.539V153.212C38.8596 152.469 37.2498 151.18 36.1154 149.511C34.981 147.842 34.3743 145.871 34.3742 143.853V112.894V109.408H36.7815V100.842C36.7815 99.908 37.1525 99.0122 37.813 98.3517C38.4735 97.6912 39.3693 97.3202 40.3033 97.3202H40.7614V39.3009H44.1815V97.3202H45.7388C46.2022 97.3188 46.6613 97.409 47.0897 97.5853C47.5182 97.7617 47.9076 98.0209 48.2358 98.3481C48.5639 98.6753 48.8242 99.064 49.0018 99.4919C49.1795 99.9199 49.2709 100.379 49.2709 100.842V102.71C53.3194 98.5016 58.8148 95.9877 64.646 95.6763C64.523 95.426 64.4586 95.151 64.4577 94.8722V93.3453H62.7782C61.5728 93.3453 60.4168 92.8665 59.5645 92.0142C58.7122 91.1619 58.2333 90.0059 58.2333 88.8005V76.1788C57.3175 75.9033 56.5146 75.3403 55.9436 74.5731C55.3725 73.8059 55.0637 72.8753 55.0626 71.9189V66.2188C53.9817 65.9841 53.0136 65.3865 52.3192 64.5255C51.6248 63.6645 51.246 62.5918 51.2456 61.4856V55.3478H48.8332V48.9504H51.8156C52.095 46.2629 53.3602 43.7742 55.3669 41.9649C57.3736 40.1556 59.9795 39.1539 62.6815 39.1533H91.513C94.2194 39.1476 96.8315 40.1464 98.8436 41.9564C100.856 43.7663 102.125 46.2585 102.404 48.9504H105.326C106.99 48.9504 108.586 49.6115 109.763 50.7884C110.94 51.9652 111.601 53.5613 111.601 55.2256V55.3427H103V61.4856C102.999 62.5918 102.621 63.6645 101.926 64.5255C101.232 65.3865 100.264 65.9841 99.1828 66.2188V71.9189C99.1818 72.8753 98.8729 73.8059 98.3018 74.5731C97.7308 75.3403 96.9279 75.9033 96.0121 76.1788V88.8158C96.0121 90.0211 95.5332 91.1771 94.6809 92.0295C93.8286 92.8818 92.6726 93.3606 91.4672 93.3606H89.7877V94.8874C89.7868 95.1663 89.7224 95.4413 89.5994 95.6916C93.4536 95.8968 97.194 97.0695 100.475 99.1015C100.332 98.4857 100.259 97.8557 100.257 97.2235V97.2082Z" fill="#00BCB4"/>
<path d="M137.2 149.379C133.838 149.38 130.588 150.587 128.039 152.779V169.869C135.696 166.244 142.798 161.547 149.13 155.919C147.854 153.911 146.091 152.259 144.006 151.116C141.92 149.972 139.579 149.375 137.2 149.379Z" fill="#00BCB4"/>
<path d="M111.188 115.244C111.188 115.367 111.223 115.484 111.238 115.606C111.223 115.484 111.208 115.367 111.188 115.244Z" fill="#3D113C"/>
<path d="M110.408 111.865C110.459 112.024 110.507 112.184 110.551 112.343C110.503 112.181 110.456 112.021 110.408 111.865Z" fill="#3D113C"/>
<path d="M111.324 116.298C111.324 116.423 111.336 116.551 111.36 116.68C111.36 116.54 111.348 116.413 111.324 116.298Z" fill="#3D113C"/>
<path d="M108.684 107.783C108.789 107.973 108.889 108.167 108.984 108.363C108.872 108.167 108.772 107.973 108.684 107.783Z" fill="#3D113C"/>
<path d="M109.121 108.638C109.213 108.832 109.309 109.025 109.396 109.219C109.325 109.02 109.218 108.832 109.121 108.638Z" fill="#3D113C"/>
<path d="M110.693 112.858C110.734 113.005 110.77 113.148 110.805 113.295C110.77 113.148 110.729 113.005 110.693 112.858Z" fill="#3D113C"/>
<path d="M110.975 114.053C110.975 114.171 111.021 114.288 111.046 114.401C111.021 114.263 111 114.166 110.975 114.053Z" fill="#3D113C"/>
<path d="M109.508 109.468C109.664 109.807 109.81 110.165 109.946 110.542C109.806 110.179 109.66 109.821 109.508 109.468Z" fill="#3D113C"/>
<path d="M92.2955 155.487C94.2631 155.496 96.211 155.095 98.0142 154.307C99.8174 153.52 101.436 152.364 102.767 150.915C104.097 149.465 105.11 147.753 105.74 145.889C106.37 144.025 106.603 142.05 106.425 140.09C106.247 138.131 105.661 136.23 104.705 134.51C103.749 132.791 102.445 131.29 100.875 130.104C99.3047 128.918 97.5041 128.073 95.5884 127.624C93.6728 127.174 91.6844 127.13 89.7508 127.495C92.6467 118.317 98.7422 110.484 106.928 105.422L107.065 105.458L107.304 105.493C105.296 102.622 102.66 100.245 99.5966 98.5431C96.5333 96.8413 93.1228 95.859 89.6236 95.6707C89.4729 95.9858 89.2363 96.2519 88.9409 96.4383C88.6456 96.6247 88.3035 96.7238 87.9543 96.7242H77.0527V177.442C80.6445 177.965 84.2646 178.269 87.8932 178.353V154.805C89.3152 155.264 90.8012 155.494 92.2955 155.487V155.487Z" fill="#3D113C"/>
<path d="M111.412 117.377C111.412 117.489 111.412 117.602 111.412 117.714C111.427 117.596 111.417 117.484 111.412 117.377Z" fill="#3D113C"/>
<path d="M110.088 110.908C110.149 111.071 110.205 111.239 110.261 111.417C110.2 111.239 110.144 111.071 110.088 110.908Z" fill="#3D113C"/>
<path d="M107.289 105.508C107.75 106.164 108.176 106.844 108.567 107.544C108.176 106.844 107.75 106.164 107.289 105.508Z" fill="#3D113C"/>
<path d="M128.017 152.784C125.429 154.995 123.729 158.069 123.23 161.437C122.732 164.804 123.468 168.239 125.305 171.106C126.218 170.712 127.122 170.301 128.017 169.874V152.784Z" fill="#FFFAC2"/>
<path d="M109.945 110.537C109.991 110.659 110.042 110.781 110.088 110.908C110.042 110.786 109.991 110.659 109.945 110.537Z" fill="#00BCB4"/>
<path d="M109.396 109.219L109.504 109.469L109.396 109.219Z" fill="#00BCB4"/>
<path d="M108.988 108.364L109.126 108.639L108.988 108.364Z" fill="#00BCB4"/>
<path d="M107.273 105.503L107.28 105.51L107.273 105.503Z" fill="#00BCB4"/>
<path d="M108.557 107.554L108.684 107.784L108.557 107.554Z" fill="#00BCB4"/>
<path d="M111.361 116.665C111.361 116.899 111.402 117.138 111.412 117.377C111.397 117.138 111.361 116.899 111.361 116.665Z" fill="#00BCB4"/>
<path d="M111.432 117.708C111.432 118.054 111.457 118.405 111.457 118.756C111.457 118.405 111.447 118.059 111.432 117.708Z" fill="#00BCB4"/>
<path d="M111.238 115.606C111.269 115.83 111.299 116.054 111.32 116.283C111.299 116.054 111.269 115.83 111.238 115.606Z" fill="#00BCB4"/>
<path d="M110.551 112.338C110.602 112.511 110.647 112.684 110.693 112.847C110.647 112.684 110.597 112.511 110.551 112.338Z" fill="#00BCB4"/>
<path d="M111.045 114.399C111.099 114.678 111.148 114.959 111.193 115.244C111.148 114.959 111.099 114.678 111.045 114.399Z" fill="#00BCB4"/>
<path d="M110.256 111.407C110.307 111.56 110.358 111.712 110.403 111.865C110.342 111.717 110.307 111.56 110.256 111.407Z" fill="#00BCB4"/>
<path d="M110.805 113.295C110.866 113.545 110.922 113.804 110.973 114.048C110.922 113.799 110.85 113.545 110.805 113.295Z" fill="#00BCB4"/>
<path d="M122.145 129.205C121.735 129.204 121.326 129.245 120.924 129.327C121.326 129.245 121.735 129.204 122.145 129.205V129.205Z" fill="#00BCB4"/>
<path d="M127.956 145.088H120.719C118.4 145.088 116.176 144.167 114.537 142.528C112.897 140.888 111.976 138.664 111.976 136.345V105.61H108.673C108.203 105.607 107.735 105.564 107.273 105.483L107.034 105.447L106.896 105.411C98.7111 110.477 92.6172 118.313 89.7248 127.494C91.8406 127.102 94.0181 127.199 96.0908 127.777C98.1636 128.355 100.077 129.399 101.684 130.83C103.292 132.26 104.551 134.039 105.365 136.031C106.18 138.023 106.529 140.174 106.385 142.321C106.24 144.468 105.607 146.554 104.534 148.419C103.46 150.284 101.975 151.879 100.191 153.082C98.4063 154.285 96.3707 155.064 94.2393 155.36C92.1078 155.656 89.937 155.46 87.8926 154.789V178.348C88.5898 178.348 89.2871 178.373 89.9843 178.373C102.134 178.387 114.157 175.906 125.31 171.085C123.474 168.218 122.737 164.784 123.235 161.416C123.734 158.049 125.434 154.975 128.023 152.763V145.088H127.956Z" fill="#00BCB4"/>
<path d="M120.47 109.504H119.758C119.468 109.504 119.18 109.447 118.912 109.337C118.644 109.226 118.4 109.063 118.195 108.857C118.4 109.063 118.644 109.226 118.912 109.337C119.18 109.447 119.468 109.504 119.758 109.504H120.475H120.47Z" fill="#00BCB4"/>
<path d="M121.676 106.923C121.768 106.964 121.855 107.016 121.936 107.076C121.855 107.016 121.768 106.964 121.676 106.923V106.923Z" fill="#00BCB4"/>
<path d="M117.549 107.295C117.548 107.735 117.679 108.166 117.925 108.531C117.679 108.166 117.548 107.735 117.549 107.295Z" fill="#00BCB4"/>
<path d="M106.413 141.388C106.417 139.315 105.963 137.267 105.085 135.388C104.207 133.51 102.925 131.849 101.332 130.522C99.7385 129.196 97.8724 128.237 95.8662 127.713C93.86 127.19 91.7631 127.115 89.7248 127.494C88.5067 131.382 87.8888 135.432 87.8926 139.505V139.505V154.774C90.013 155.469 92.2681 155.653 94.473 155.309C96.6779 154.964 98.7698 154.102 100.577 152.793C102.384 151.484 103.856 149.765 104.87 147.777C105.884 145.789 106.413 143.59 106.413 141.358V141.388Z" fill="#FFFAC2"/>
<path d="M134.944 106.806C134.769 106.81 134.596 106.848 134.436 106.918C134.596 106.848 134.769 106.81 134.944 106.806V106.806Z" fill="#3D113C"/>
<path d="M135.633 109.504H136.35C136.641 109.504 136.928 109.447 137.196 109.337C137.464 109.226 137.708 109.063 137.913 108.857C137.708 109.063 137.464 109.226 137.196 109.337C136.928 109.447 136.641 109.504 136.35 109.504H135.633Z" fill="#3D113C"/>
<path d="M138.553 107.295C138.551 107.64 138.467 107.98 138.309 108.287C138.467 107.98 138.551 107.64 138.553 107.295Z" fill="#3D113C"/>
<path d="M133.938 129.205C134.145 129.204 134.352 129.214 134.558 129.235C134.352 129.214 134.145 129.204 133.938 129.205Z" fill="#3D113C"/>
<path d="M150.133 122.166C150.131 119.953 150.65 117.77 151.649 115.795C152.647 113.82 154.096 112.107 155.879 110.796C153.804 108.778 151.518 106.99 149.059 105.462V105.462C148.519 105.568 147.97 105.621 147.42 105.62H144.117V136.35C144.117 138.669 143.196 140.893 141.556 142.533C139.917 144.172 137.693 145.094 135.374 145.094H128.02V152.784C129.554 151.467 131.355 150.496 133.298 149.936C135.241 149.376 137.282 149.241 139.282 149.538C141.282 149.836 143.195 150.56 144.89 151.662C146.586 152.764 148.025 154.217 149.11 155.924C155.57 150.187 161.166 143.544 165.722 136.202C163.753 136.418 161.76 136.216 159.875 135.608C157.99 135 156.254 134.001 154.782 132.676C153.31 131.35 152.134 129.729 151.332 127.918C150.53 126.107 150.12 124.147 150.128 122.166H150.133Z" fill="#3D113C"/>
<path d="M134.008 107.208C134.129 107.085 134.272 106.987 134.43 106.918C134.272 106.987 134.129 107.085 134.008 107.208V107.208Z" fill="#3D113C"/>
<path d="M150.131 122.166C150.123 124.147 150.533 126.107 151.335 127.918C152.137 129.729 153.313 131.351 154.785 132.676C156.257 134.001 157.993 135 159.878 135.608C161.764 136.216 163.756 136.418 165.725 136.203C166.339 135.215 166.933 134.214 167.506 133.2C166.152 124.676 162.074 116.82 155.882 110.806C154.099 112.116 152.65 113.827 151.651 115.8C150.652 117.773 150.131 119.954 150.131 122.166V122.166Z" fill="#FFFAC2"/>
<path d="M107.248 81.2725V97.2074H112.012V76.5088C111.386 76.5088 110.767 76.632 110.189 76.8714C109.611 77.1108 109.086 77.4617 108.643 77.904C108.201 78.3464 107.85 78.8715 107.611 79.4495C107.371 80.0274 107.248 80.6469 107.248 81.2725Z" fill="#424242"/>
<path d="M118.196 108.857C118.401 109.063 118.644 109.226 118.913 109.337C119.181 109.448 119.468 109.504 119.758 109.504H120.476C120.292 109.515 120.108 109.489 119.935 109.426C119.762 109.363 119.603 109.266 119.469 109.14C119.335 109.014 119.228 108.862 119.155 108.693C119.082 108.524 119.045 108.342 119.045 108.158C119.045 107.973 119.082 107.791 119.155 107.622C119.228 107.453 119.335 107.301 119.469 107.175C119.603 107.049 119.762 106.952 119.935 106.889C120.108 106.827 120.292 106.8 120.476 106.811H117.555V107.32C117.554 107.61 117.611 107.898 117.722 108.166C117.833 108.434 117.996 108.678 118.201 108.883L118.196 108.857Z" fill="white"/>
<path d="M121.158 106.999C121.41 107.151 121.605 107.381 121.714 107.654C121.823 107.927 121.84 108.228 121.763 108.512C121.685 108.795 121.516 109.045 121.283 109.224C121.05 109.403 120.765 109.501 120.471 109.503H121.158C121.515 109.503 121.857 109.362 122.11 109.109C122.362 108.857 122.504 108.514 122.504 108.157C122.504 107.8 122.362 107.458 122.11 107.205C121.857 106.953 121.515 106.811 121.158 106.811H120.471C120.713 106.815 120.949 106.882 121.158 107.004V106.999Z" fill="white"/>
<path d="M119.127 108.155C119.125 108.361 119.17 108.564 119.26 108.75C119.349 108.935 119.48 109.097 119.643 109.223C119.806 109.35 119.995 109.436 120.197 109.477C120.399 109.518 120.608 109.511 120.807 109.458C121.117 109.37 121.386 109.174 121.565 108.905C121.743 108.636 121.819 108.312 121.779 107.992C121.739 107.672 121.586 107.376 121.347 107.16C121.107 106.943 120.798 106.819 120.476 106.811C120.119 106.811 119.777 106.952 119.524 107.204C119.271 107.456 119.128 107.798 119.127 108.155V108.155Z" fill="black"/>
<path d="M116.084 135.271C116.084 136.879 116.723 138.421 117.859 139.557C118.996 140.694 120.538 141.333 122.145 141.333H127.953V129.205H122.145C121.735 129.204 121.326 129.245 120.924 129.327C120.727 129.367 120.534 129.417 120.344 129.474C119.108 129.86 118.028 130.63 117.262 131.673C116.496 132.716 116.083 133.977 116.084 135.271V135.271ZM121.993 135.271H124.538C124.791 135.271 125.035 135.372 125.214 135.551C125.394 135.731 125.494 135.974 125.494 136.228C125.494 136.482 125.394 136.725 125.214 136.905C125.035 137.084 124.791 137.185 124.538 137.185H123.52C123.104 137.185 122.705 137.02 122.411 136.726C122.117 136.432 121.952 136.033 121.952 135.617L121.993 135.271Z" fill="#00BCB4"/>
<path d="M144.105 97.2076H148.838V81.3338C148.838 80.0704 148.336 78.8587 147.443 77.9653C146.549 77.072 145.338 76.5701 144.074 76.5701V97.2076H144.105Z" fill="#3D113C"/>
<path d="M107.289 105.503L107.146 105.295L106.912 105.432L107.05 105.468L107.289 105.503Z" fill="#FFFAC2"/>
<path d="M112.012 91.0134V97.2072H100.256C100.262 99.1305 100.924 100.994 102.133 102.49C103.341 103.986 105.024 105.026 106.903 105.437L107.137 105.299L107.279 105.508C107.741 105.589 108.21 105.632 108.679 105.635H111.982V136.35C111.982 138.669 112.903 140.893 114.543 142.533C116.183 144.172 118.407 145.094 120.725 145.094H127.958V141.338H122.145C120.538 141.338 118.996 140.699 117.859 139.562C116.723 138.425 116.084 136.884 116.084 135.276V135.276C116.084 133.983 116.497 132.723 117.263 131.681C118.03 130.639 119.109 129.87 120.344 129.484C120.534 129.427 120.727 129.377 120.924 129.337C121.326 129.255 121.735 129.214 122.145 129.215H127.952V91.044L112.012 91.0134ZM121.173 109.498H119.759C119.173 109.498 118.611 109.265 118.197 108.851C117.782 108.437 117.55 107.875 117.55 107.289V106.78H121.158C121.515 106.78 121.858 106.922 122.11 107.175C122.362 107.427 122.504 107.77 122.504 108.127C122.504 108.484 122.362 108.826 122.11 109.078C121.858 109.331 121.515 109.473 121.158 109.473L121.173 109.498Z" fill="#FFFAC2"/>
<path d="M122.379 107.646C122.446 107.807 122.48 107.98 122.481 108.155C122.48 107.98 122.446 107.807 122.379 107.646V107.646Z" fill="#FFFAC2"/>
<path d="M122.38 107.646C122.284 107.421 122.129 107.225 121.932 107.081C122.129 107.225 122.284 107.421 122.38 107.646V107.646Z" fill="#FFFAC2"/>
<path d="M121.158 109.498C121.512 109.494 121.85 109.351 122.098 109.099C122.347 108.848 122.487 108.509 122.487 108.155C122.487 108.509 122.347 108.848 122.098 109.099C121.85 109.351 121.512 109.494 121.158 109.498V109.498Z" fill="#FFFAC2"/>
<path d="M122.145 141.333C120.693 141.336 119.288 140.818 118.186 139.873C117.084 138.927 116.357 137.618 116.139 136.182C115.921 134.747 116.225 133.28 116.997 132.05C117.769 130.82 118.956 129.908 120.344 129.479C119.109 129.865 118.03 130.634 117.263 131.676C116.497 132.718 116.084 133.978 116.084 135.271V135.271C116.084 136.067 116.241 136.855 116.545 137.591C116.85 138.326 117.296 138.995 117.859 139.557C118.422 140.12 119.09 140.567 119.826 140.871C120.561 141.176 121.349 141.333 122.145 141.333V141.333V141.333Z" fill="#FFFAC2"/>
<path d="M128.023 141.333H127.957V145.089H128.023V141.333Z" fill="#016099"/>
<path d="M127.957 105.61V129.19H128.023V99.4573H127.957V105.61Z" fill="#016099"/>
<path d="M148.834 97.2072H144.07V91.0134H127.957V99.4568H128.023V129.204H133.942C134.15 129.204 134.357 129.214 134.563 129.235C136.056 129.389 137.438 130.09 138.443 131.204C139.448 132.318 140.004 133.766 140.004 135.266V135.266C140.004 136.062 139.847 136.85 139.542 137.586C139.238 138.321 138.791 138.989 138.228 139.552C137.665 140.115 136.997 140.561 136.262 140.866C135.526 141.171 134.738 141.327 133.942 141.327H128.018V145.083H135.362C136.51 145.083 137.647 144.857 138.708 144.418C139.769 143.978 140.733 143.334 141.545 142.522C142.357 141.711 143.001 140.747 143.44 139.686C143.88 138.625 144.106 137.488 144.106 136.34V105.61H147.409C147.959 105.611 148.508 105.558 149.048 105.452C150.958 105.071 152.676 104.039 153.912 102.533C155.147 101.027 155.822 99.1397 155.822 97.192L148.834 97.2072ZM138.553 107.294C138.551 107.64 138.468 107.98 138.309 108.287C138.13 108.655 137.851 108.965 137.503 109.18C137.155 109.396 136.753 109.508 136.344 109.503H134.945C134.588 109.503 134.245 109.361 133.993 109.109C133.74 108.857 133.599 108.514 133.599 108.157C133.599 107.8 133.74 107.458 133.993 107.205C134.245 106.953 134.588 106.811 134.945 106.811H138.553V107.294Z" fill="#016099"/>
<path d="M136.976 108.155C136.976 108.513 136.834 108.856 136.581 109.109C136.328 109.362 135.985 109.504 135.627 109.504H136.345C136.928 109.497 137.486 109.262 137.899 108.849C138.312 108.437 138.547 107.879 138.553 107.295V106.786H135.632C135.81 106.787 135.987 106.823 136.151 106.892C136.316 106.961 136.465 107.063 136.59 107.19C136.715 107.317 136.813 107.468 136.879 107.634C136.946 107.799 136.978 107.977 136.976 108.155V108.155Z" fill="white"/>
<path d="M138.308 108.287C138.205 108.497 138.07 108.69 137.906 108.857C138.07 108.69 138.205 108.497 138.308 108.287V108.287Z" fill="white"/>
<path d="M134.944 109.498H135.631C135.288 109.477 134.966 109.326 134.731 109.076C134.496 108.826 134.365 108.496 134.365 108.152C134.365 107.809 134.496 107.479 134.731 107.228C134.966 106.978 135.288 106.827 135.631 106.806H134.944C134.587 106.806 134.244 106.948 133.992 107.2C133.739 107.453 133.598 107.795 133.598 108.152C133.598 108.509 133.739 108.852 133.992 109.104C134.244 109.357 134.587 109.498 134.944 109.498V109.498Z" fill="white"/>
<path d="M133.723 107.646C133.789 107.486 133.886 107.341 134.008 107.218C133.886 107.341 133.789 107.486 133.723 107.646V107.646Z" fill="white"/>
<path d="M133.617 108.155C133.618 107.98 133.652 107.807 133.719 107.646C133.652 107.807 133.618 107.98 133.617 108.155V108.155Z" fill="white"/>
<path d="M134.946 109.498C134.592 109.494 134.254 109.351 134.005 109.099C133.757 108.848 133.617 108.509 133.617 108.155C133.617 108.509 133.757 108.848 134.005 109.099C134.254 109.351 134.592 109.494 134.946 109.498Z" fill="white"/>
<path d="M134.946 106.999C134.639 107.181 134.413 107.471 134.313 107.813C134.212 108.155 134.246 108.522 134.406 108.84C134.565 109.158 134.84 109.403 135.174 109.526C135.508 109.65 135.877 109.642 136.205 109.504C136.533 109.366 136.797 109.108 136.942 108.783C137.088 108.459 137.105 108.09 136.989 107.754C136.874 107.417 136.635 107.136 136.321 106.969C136.007 106.802 135.641 106.76 135.297 106.852C135.173 106.884 135.055 106.934 134.946 106.999V106.999Z" fill="black"/>
<path d="M127.957 141.333H128.018V129.205H127.957V141.333Z" fill="#3D113C"/>
<path d="M133.939 141.333C135.495 141.336 136.992 140.741 138.122 139.67C139.251 138.6 139.926 137.136 140.005 135.582C140.085 134.028 139.564 132.503 138.55 131.322C137.537 130.142 136.108 129.396 134.559 129.24C134.353 129.22 134.146 129.209 133.939 129.21H128.02V141.338L133.939 141.333ZM131.109 135.261H133.654V135.607C133.654 136.023 133.488 136.422 133.194 136.716C132.9 137.01 132.502 137.175 132.086 137.175H131.068C130.814 137.175 130.571 137.074 130.392 136.894C130.212 136.715 130.111 136.472 130.111 136.218C130.111 135.964 130.212 135.721 130.392 135.541C130.571 135.362 130.814 135.261 131.068 135.261H131.109Z" fill="#3D113C"/>
<path d="M139.999 135.271C139.999 136.879 139.36 138.421 138.224 139.557C137.087 140.694 135.545 141.333 133.938 141.333V141.333C135.545 141.333 137.087 140.694 138.224 139.557C139.36 138.421 139.999 136.879 139.999 135.271V135.271C139.999 133.771 139.443 132.324 138.438 131.21C137.433 130.096 136.051 129.394 134.558 129.24C136.051 129.394 137.433 130.096 138.438 131.21C139.443 132.324 139.999 133.771 139.999 135.271V135.271Z" fill="#3D113C"/>
<path d="M123.576 137.165H124.594C124.847 137.165 125.091 137.064 125.27 136.884C125.45 136.705 125.55 136.462 125.55 136.208C125.55 135.954 125.45 135.711 125.27 135.531C125.091 135.352 124.847 135.251 124.594 135.251H122.049V135.597C122.049 136.006 122.208 136.399 122.493 136.691C122.779 136.984 123.167 137.154 123.576 137.165V137.165Z" fill="#016099"/>
<path d="M131.108 137.165H132.125C132.541 137.165 132.94 136.999 133.234 136.705C133.528 136.412 133.693 136.013 133.693 135.597V135.251H131.148C130.894 135.251 130.651 135.352 130.472 135.531C130.292 135.711 130.191 135.954 130.191 136.208C130.191 136.462 130.292 136.705 130.472 136.884C130.651 137.064 130.894 137.165 131.148 137.165H131.108Z" fill="#016099"/>
</g>
<defs>
<clipPath id="clip0_2831_6318">
<rect width="178.13" height="178.13" fill="white" transform="translate(0.919922 0.259277)"/>
</clipPath>
</defs>
</svg>
