<svg fill="none" height="179" viewBox="0 0 180 179" width="180" xmlns="http://www.w3.org/2000/svg" xmlns:xlink="http://www.w3.org/1999/xlink"><clipPath id="a"><path d="m.919922.259277h178.13v178.13h-178.13z"/></clipPath><g clip-path="url(#a)"><path d="m66.294 96.7342h10.759v-3.3387h-12.6116v1.5268c.004.4915.201.9617.5485 1.3092s.8177.5445 1.3091.5485z" fill="#3d113c"/><path d="m77.0519 92.4793v-5.354h-9.904v-.7176c0-1.1811.4692-2.3138 1.3043-3.149.8352-.8351 1.9679-1.3043 3.149-1.3043h1.8169c-.2051-.3762-.3119-.7981-.3105-1.2265v-1.7101h1.6083v-10.1381h2.3157v-7.6341h-15.9605c-.5836 0-1.1565-.1568-1.6588-.4541-.5023-.2972-.9154-.724-1.1963-1.2356v6.7944h-2.1376c-.3423-.0013-.6835-.0389-1.0179-.112v5.7002c.0011.9563.3099 1.887.881 2.6542.571.7672 1.3739 1.3302 2.2898 1.6056v12.6167c0 1.2053.4788 2.3613 1.3311 3.2137.8523.8523 2.0083 1.3311 3.2137 1.3311h14.2962zm-12.3469-21.5638v-.3766h-3.9392c.0027-.5513.2228-1.0792.6126-1.469s.9177-.6099 1.469-.6126h6.6518c.2734 0 .5441.0538.7966.1584.2525.1047.482.258.6753.4513s.3466.4227.4512.6753c.1047.2525.1585.5232.1585.7966h-2.3157c.2967.1442.5361.3843.6794.6814.1434.2971.1823.6339.1105.9559s-.2502.6104-.5062.8184c-.256.2081-.5747.3237-.9046.3282h-1.5268c-.6381 0-1.2501-.2528-1.7023-.703-.4521-.4502-.7074-1.0612-.7101-1.6992z" fill="#fdb98d"/><path d="m58.2112 66.3301v-6.7994c.2809.5116.6941.9383 1.1963 1.2356.5023.2972 1.0752.454 1.6589.4541h15.9858v-5.8732h-25.8237v6.1378c.0014 1.2846.5123 2.5162 1.4206 3.4245.9084.9084 2.1399 1.4193 3.4245 1.4206z" fill="#016099"/><path d="m66.4273 71.857c.0009-.2741.0786-.5424.2244-.7745.1457-.2321.3536-.4187.6-.5386h-2.5447v.3767c0 .3168.0624.6305.1837.9231.1212.2927.2989.5587.5229.7827s.4899.4017.7826.5229.6064.1836.9232.1836h.7838c-.194.0007-.3863-.037-.5656-.1109-.1794-.074-.3424-.1827-.4796-.3199-.1371-.1371-.2458-.3001-.3198-.4795-.0739-.1794-.1116-.3716-.1109-.5656z" fill="#fff"/><path d="m68.6446 70.6c.272.1672.4824.4181.5997.7151.1173.2969.1351.6239.0508.9318-.0842.308-.2661.5803-.5183.7761s-.5611.3046-.8803.31h.7481c.3299-.0045.6486-.1201.9046-.3282.2561-.208.4344-.4964.5062-.8184s.0329-.6588-.1104-.9559c-.1434-.2971-.3828-.5372-.6795-.6814h-.7328z" fill="#fff"/><path d="m68.6445 73.119c.2255-.1272.4132-.312.5438-.5356s.1995-.4778.1995-.7368c0-.2589-.0689-.5132-.1995-.7367-.1306-.2236-.3183-.4084-.5438-.5356l-.1069-.056h-1.2876c-.1782.0864-.337.208-.4669.3575-.1298.1494-.2281.3237-.2887.5122-.0607.1884-.0826.3872-.0643.5844s.0763.3886.1706.5627.2228.3273.378.4504c.1551.123.3335.2134.5245.2656s.3906.0651.5868.038c.1961-.027.3848-.0936.5545-.1955z" fill="#000"/><path d="m58.2118 55.3471h18.8309v-16.1945h-14.3522c-2.7037-.0019-5.3121.9986-7.321 2.8082s-3.2755 4.2997-3.5551 6.9889h-2.9824v6.3974z" fill="#3d113c"/><path d="m68.5391 70.544h3.0537c0-.5521-.2193-1.0815-.6097-1.4719s-.9198-.6097-1.4719-.6097h-6.662c-.5513.0027-1.0792.2228-1.469.6126s-.6099.9177-.6126 1.469z" fill="#3d113c"/><path d="m75.6783 83.2928c-.4633.003-.9186-.1206-1.3168-.3574-.3982-.2367-.7242-.5777-.9429-.9862h-1.8169c-1.1811 0-2.3138.4692-3.1489 1.3043-.8352.8352-1.3044 1.9679-1.3044 3.149v.7176h9.904v-3.8273z" fill="#3d113c"/><path d="m75.6784 83.2931h1.3792v-14.4132h-2.3411v10.1381h-1.6286v1.71c0 .3342.0658.6651.1937.9739.1279.3087.3153.5892.5516.8255s.5168.4238.8256.5516c.3087.1279.6396.1937.9738.1937z" fill="#fc6719"/><path d="m44.1799 39.3h-3.4455v58.0245h3.4455z" fill="#3d113c"/><path d="m42.7662 153.776c-.6966-.116-1.379-.305-2.0357-.565v10.327c.6786.447 1.3571.885 2.0357 1.313z" fill="#3d113c"/><path d="m42.7656 153.776v11.075c.4683.292.9382.58 1.4098.865v-11.807c-.4724-.011-.9435-.056-1.4098-.133z" fill="#3d113c"/><path d="m44.1794 109.407h5.0894v-8.566c0-.462-.0911-.92-.2681-1.3473s-.4364-.8156-.7635-1.1426c-.327-.327-.7152-.5864-1.1425-.7634s-.8853-.2681-1.3478-.2681h-5.4711c-.9341 0-1.8299.371-2.4904 1.0315-.6604.6605-1.0315 1.5563-1.0315 2.4899v8.566z" fill="#fdb98d"/><path d="m44.1799 153.909v11.807c10.0711 6.057 21.2478 10.046 32.8776 11.736v-80.7178h-10.7641c-.3493-.0004-.6913-.0995-.9867-.2859-.2953-.1864-.532-.4525-.6826-.7676-5.8233.3151-11.3105 2.8267-15.3548 7.0283v6.693h2.4429v3.486h-17.304v30.954c-.0063 2.621 1.012 5.141 2.8377 7.021 1.8256 1.881 4.3139 2.974 6.934 3.046z" fill="#016099"/><path d="m43.5188 112.893h.6565 7.4662.056v-3.486h-2.4429-4.5093-.57-3.4455-3.9748-2.4073v3.486h.0203 6.3618z" fill="#3d113c"/><path d="m77.0527 95.6452v1.0891h10.8965c.4914-.004.9616-.201 1.3091-.5485s.5445-.8177.5485-1.3091v-1.5268h-12.7235z" fill="#000"/><path d="m96.01 66.33v-6.7995c-.2808.5116-.694.9384-1.1963 1.2356-.5023.2973-1.0752.4541-1.6588.4541h-16.1029v7.6341h2.4327v10.1381h1.6286v1.7101c.0014.4284-.1053.8503-.3104 1.2265h1.8169c1.1811 0 2.3138.4692 3.1489 1.3044.8351.8351 1.3043 1.9678 1.3043 3.1489v.7176h-10.0261v6.2956h14.4132c1.2054 0 2.3614-.4788 3.2137-1.3312.8523-.8523 1.3311-2.0083 1.3311-3.2137v-12.6726c.9159-.2754 1.7188-.8384 2.2898-1.6056.5711-.7672.8799-1.6979.881-2.6542v-5.7002c-.3344.0731-.6756.1106-1.0179.112zm-2.9366 4.0715h-3.5625v.2952c0 .6398-.2542 1.2534-.7066 1.7058s-1.066.7066-1.7058.7066h-1.5269c-.3157-.0039-.6217-.1096-.8725-.3015-.2508-.1918-.4329-.4595-.5193-.7632-.0863-.3037-.0723-.6272.04-.9223s.3169-.5461.5833-.7155h-2.168c0-.5521.2193-1.0815.6096-1.4719.3904-.3904.9199-.6097 1.4719-.6097h6.6519c.5512.0027 1.0791.2229 1.4689.6127s.61.9177.6127 1.4689z" fill="#fc6719"/><path d="m96.0108 55.3472h-18.9581v5.8782h16.1029c.5837 0 1.1566-.1568 1.6589-.454.5022-.2973.9154-.724 1.1963-1.2356v6.7943h2.1172c1.2846-.0013 2.516-.5122 3.425-1.4206.908-.9083 1.419-2.1399 1.42-3.4245v-6.1378z" fill="#3d113c"/><path d="m87.8009 71.6178c0 .3901-.1549.7642-.4308 1.0401-.2758.2758-.6499.4308-1.04.4308h.7837c.3168 0 .6305-.0624.9232-.1837.2927-.1212.5586-.2989.7827-.5229.224-.224.4017-.4899.5229-.7826s.1836-.6064.1836-.9232v-.2952h-2.3971c.2068.1332.3767.3163.4941.5325.1174.2161.1785.4583.1777.7042z" fill="#fff"/><path d="m85.5832 72.88c-.2168-.1263-.3973-.3066-.5239-.5233-.1266-.2168-.1951-.4625-.1986-.7135-.0036-.251.0577-.4986.1781-.7188.1204-.2203.2957-.4057.5088-.5382h-.7278c-.2664.1695-.471.4204-.5833.7155s-.1263.6186-.04.9223c.0864.3037.2685.5714.5193.7632.2508.1919.5568.2976.8725.3015h.7482c-.2632-.0039-.5209-.0758-.7482-.2087z" fill="#fff"/><path d="m87.8018 71.6178c.0003-.2464-.0616-.4889-.18-.7051-.1183-.2161-.2892-.399-.4969-.5316h-1.5828c-.2144.137-.3896.3274-.5081.5525-.1185.2252-.1764.4773-.168.7317.0085.2543.0831.502.2163.7188.1333.2168.3207.3951.5438.5175s.4742.1845.7286.1804.5034-.0744.7224-.2039.4006-.3138.5268-.5348c.1261-.221.1926-.471.1928-.7255z" fill="#000"/><path d="m77.0527 48.9497v6.3974h34.5473v-.1221c0-1.6643-.661-3.2604-1.838-4.4373-1.177-1.1768-2.773-1.838-4.438-1.838h-2.921c-.28-2.6918-1.549-5.184-3.5606-6.994-2.0121-1.8099-4.6243-2.8088-7.3306-2.8031h-14.4591z" fill="#000"/><path d="m91.3748 68.2996h-6.6467c-.5521 0-1.0816.2193-1.4719.6096-.3904.3904-.6097.9199-.6097 1.4719h10.8201c-.0027-.5512-.2229-1.0791-.6127-1.4689-.3897-.3898-.9176-.61-1.4689-.6126z" fill="#3d113c"/><path d="m87.0792 86.4078c0-1.181-.4691-2.3137-1.3043-3.1489-.8351-.8351-1.9678-1.3043-3.1489-1.3043h-1.8017c-.2186.4084-.5446.7494-.9429.9862-.3982.2368-.8535.3604-1.3168.3574h-1.4962v3.8272h10.0261z" fill="#000"/><path d="m77.0536 81.9495v1.3436h1.4962c.6749 0 1.3222-.2681 1.7994-.7453.4773-.4772.7454-1.1245.7454-1.7994v-1.71h-1.6287v-10.1585h-2.4327v13.0747z" fill="#3d113c"/><path d="m100.257 97.2082h6.993v-15.9349c0-.6256.123-1.2451.362-1.823.24-.578.59-1.1031 1.033-1.5455.442-.4423.967-.7932 1.545-1.0326s1.198-.3626 1.823-.3626v14.5048h32.064v-14.4438c1.263 0 2.475.5019 3.368 1.3953s1.395 2.105 1.395 3.3684v15.8739h6.993c0 1.9477-.675 3.8348-1.91 5.3418-1.235 1.506-2.954 2.537-4.864 2.918 4.883 3.03 9.058 7.075 12.242 11.859 3.183 4.785 5.3 10.199 6.207 15.874 8.543-15.097 12.492-32.359 11.362-49.6681-1.13-17.309-7.29-33.9114-17.723-47.7688-10.433-13.8573-24.686-24.3665-41.008-30.23729-16.323-5.87076-34.0038-6.84757-50.8734-2.81049-16.8695 4.03707-32.1931 12.91228-44.0894 25.53608-11.8963 12.6237-19.84741 28.4466-22.87725 45.5258-3.029838 17.0792-1.00649 34.6718 5.82163 50.6168 6.82812 15.946 18.16382 29.55 32.61532 39.144v-10.327c-1.8763-.743-3.4861-2.032-4.6205-3.701s-1.7411-3.64-1.7412-5.658v-30.959-3.486h2.4073v-8.566c0-.934.371-1.8298 1.0315-2.4903s1.5563-1.0315 2.4903-1.0315h.4581v-58.0193h3.4201v58.0193h1.5573c.4634-.0014.9225.0888 1.3509.2651.4285.1764.8179.4356 1.1461.7628.3281.3272.5884.7159.766 1.1438.1777.428.2691.8871.2691 1.3501v1.868c4.0485-4.2084 9.5439-6.7223 15.3751-7.0337-.123-.2503-.1874-.5253-.1883-.8041v-1.5269h-1.6795c-1.2054 0-2.3614-.4788-3.2137-1.3311s-1.3312-2.0083-1.3312-3.2137v-12.6217c-.9158-.2755-1.7187-.8385-2.2897-1.6057-.5711-.7672-.8799-1.6978-.881-2.6542v-5.7001c-1.0809-.2347-2.049-.8323-2.7434-1.6933s-1.0732-1.9337-1.0736-3.0399v-6.1378h-2.4124v-6.3974h2.9824c.2794-2.6875 1.5446-5.1762 3.5513-6.9855s4.6126-2.811 7.3146-2.8116h28.8315c2.7064-.0057 5.3185.9931 7.3306 2.8031 2.0124 1.8099 3.2814 4.3021 3.5604 6.994h2.922c1.664 0 3.26.6611 4.437 1.838 1.177 1.1768 1.838 2.7729 1.838 4.4372v.1171h-8.601v6.1429c-.001 1.1062-.379 2.1789-1.074 3.0399-.694.861-1.662 1.4586-2.7432 1.6933v5.7001c-.001.9564-.3099 1.887-.881 2.6542-.571.7672-1.3739 1.3302-2.2897 1.6057v12.637c0 1.2053-.4789 2.3613-1.3312 3.2137-.8523.8523-2.0083 1.3311-3.2137 1.3311h-1.6795v1.5268c-.0009.2789-.0653.5539-.1883.8042 3.8542.2052 7.5946 1.3779 10.8756 3.4099-.143-.6158-.216-1.2458-.218-1.878z" fill="#00bcb4"/><path d="m137.2 149.379c-3.362.001-6.612 1.208-9.161 3.4v17.09c7.657-3.625 14.759-8.322 21.091-13.95-1.276-2.008-3.039-3.66-5.124-4.803-2.086-1.144-4.427-1.741-6.806-1.737z" fill="#00bcb4"/><path d="m111.188 115.244c0 .123.035.24.05.362-.015-.122-.03-.239-.05-.362z" fill="#3d113c"/><path d="m110.408 111.865c.051.159.099.319.143.478-.048-.162-.095-.322-.143-.478z" fill="#3d113c"/><path d="m111.324 116.298c0 .125.012.253.036.382 0-.14-.012-.267-.036-.382z" fill="#3d113c"/><path d="m108.684 107.783c.105.19.205.384.3.58-.112-.196-.212-.39-.3-.58z" fill="#3d113c"/><path d="m109.121 108.638c.092.194.188.387.275.581-.071-.199-.178-.387-.275-.581z" fill="#3d113c"/><path d="m110.693 112.858c.041.147.077.29.112.437-.035-.147-.076-.29-.112-.437z" fill="#3d113c"/><path d="m110.975 114.053c0 .118.046.235.071.348-.025-.138-.046-.235-.071-.348z" fill="#3d113c"/><path d="m109.508 109.468c.156.339.302.697.438 1.074-.14-.363-.286-.721-.438-1.074z" fill="#3d113c"/><path d="m92.2955 155.487c1.9676.009 3.9155-.392 5.7187-1.18 1.8032-.787 3.4218-1.943 4.7528-3.392 1.33-1.45 2.343-3.162 2.973-5.026s.863-3.839.685-5.799c-.178-1.959-.764-3.86-1.72-5.58-.956-1.719-2.26-3.22-3.83-4.406-1.5703-1.186-3.3709-2.031-5.2866-2.48-1.9156-.45-3.904-.494-5.8376-.129 2.8959-9.178 8.9914-17.011 17.1772-22.073l.137.036.239.035c-2.008-2.871-4.644-5.248-7.7074-6.9499-3.0633-1.7018-6.4738-2.6841-9.973-2.8724-.1507.3151-.3873.5812-.6827.7676-.2953.1864-.6374.2855-.9866.2859h-10.9016v80.7178c3.5918.523 7.2119.827 10.8405.911v-23.548c1.422.459 2.908.689 4.4023.682z" fill="#3d113c"/><path d="m111.412 117.377v.337c.015-.118.005-.23 0-.337z" fill="#3d113c"/><path d="m110.088 110.908c.061.163.117.331.173.509-.061-.178-.117-.346-.173-.509z" fill="#3d113c"/><path d="m107.289 105.508c.461.656.887 1.336 1.278 2.036-.391-.7-.817-1.38-1.278-2.036z" fill="#3d113c"/><path d="m128.017 152.784c-2.588 2.211-4.288 5.285-4.787 8.653-.498 3.367.238 6.802 2.075 9.669.913-.394 1.817-.805 2.712-1.232z" fill="#fffac2"/><g fill="#00bcb4"><path d="m109.945 110.537c.046.122.097.244.143.371-.046-.122-.097-.249-.143-.371z"/><path d="m109.396 109.219.108.25z"/><path d="m108.988 108.364.138.275z"/><path d="m107.273 105.503.007.007z"/><path d="m108.557 107.554.127.23z"/><path d="m111.361 116.665c0 .234.041.473.051.712-.015-.239-.051-.478-.051-.712z"/><path d="m111.432 117.708c0 .346.025.697.025 1.048 0-.351-.01-.697-.025-1.048z"/><path d="m111.238 115.606c.031.224.061.448.082.677-.021-.229-.051-.453-.082-.677z"/><path d="m110.551 112.338c.051.173.096.346.142.509-.046-.163-.096-.336-.142-.509z"/><path d="m111.045 114.399c.054.279.103.56.148.845-.045-.285-.094-.566-.148-.845z"/><path d="m110.256 111.407c.051.153.102.305.147.458-.061-.148-.096-.305-.147-.458z"/><path d="m110.805 113.295c.061.25.117.509.168.753-.051-.249-.123-.503-.168-.753z"/><path d="m122.145 129.205c-.41-.001-.819.04-1.221.122.402-.082.811-.123 1.221-.122z"/><path d="m127.956 145.088h-7.237c-2.319 0-4.543-.921-6.182-2.56-1.64-1.64-2.561-3.864-2.561-6.183v-30.735h-3.303c-.47-.003-.938-.046-1.4-.127l-.239-.036-.138-.036c-8.1849 5.066-14.2788 12.902-17.1712 22.083 2.1158-.392 4.2933-.295 6.366.283 2.0728.578 3.9862 1.622 5.5932 3.053 1.608 1.43 2.867 3.209 3.681 5.201.815 1.992 1.164 4.143 1.02 6.29-.145 2.147-.778 4.233-1.851 6.098-1.074 1.865-2.559 3.46-4.343 4.663-1.7847 1.203-3.8203 1.982-5.9517 2.278-2.1315.296-4.3023.1-6.3467-.571v23.559c.6972 0 1.3945.025 2.0917.025 12.1497.014 24.1727-2.467 35.3257-7.288-1.836-2.867-2.573-6.301-2.075-9.669.499-3.367 2.199-6.441 4.788-8.653v-7.675z"/><path d="m120.47 109.504h-.712c-.29 0-.578-.057-.846-.167-.268-.111-.512-.274-.717-.48.205.206.449.369.717.48.268.11.556.167.846.167h.717z"/><path d="m121.676 106.923c.092.041.179.093.26.153-.081-.06-.168-.112-.26-.153z"/><path d="m117.549 107.295c-.001.44.13.871.376 1.236-.246-.365-.377-.796-.376-1.236z"/></g><path d="m106.413 141.388c.004-2.073-.45-4.121-1.328-6-.878-1.878-2.16-3.539-3.753-4.866-1.5935-1.326-3.4596-2.285-5.4658-2.809-2.0062-.523-4.1031-.598-6.1414-.219-1.2181 3.888-1.836 7.938-1.8322 12.011v15.269c2.1204.695 4.3755.879 6.5804.535 2.2049-.345 4.2968-1.207 6.104-2.516 1.807-1.309 3.279-3.028 4.293-5.016s1.543-4.187 1.543-6.419z" fill="#fffac2"/><path d="m134.944 106.806c-.175.004-.348.042-.508.112.16-.07.333-.108.508-.112z" fill="#3d113c"/><path d="m135.633 109.504h.717c.291 0 .578-.057.846-.167.268-.111.512-.274.717-.48-.205.206-.449.369-.717.48-.268.11-.555.167-.846.167z" fill="#3d113c"/><path d="m138.553 107.295c-.002.345-.086.685-.244.992.158-.307.242-.647.244-.992z" fill="#3d113c"/><path d="m133.938 129.205c.207-.001.414.009.62.03-.206-.021-.413-.031-.62-.03z" fill="#3d113c"/><path d="m150.133 122.166c-.002-2.213.517-4.396 1.516-6.371.998-1.975 2.447-3.688 4.23-4.999-2.075-2.018-4.361-3.806-6.82-5.334-.54.106-1.089.159-1.639.158h-3.303v30.73c0 2.319-.921 4.543-2.561 6.183-1.639 1.639-3.863 2.561-6.182 2.561h-7.354v7.69c1.534-1.317 3.335-2.288 5.278-2.848s3.984-.695 5.984-.398c2 .298 3.913 1.022 5.608 2.124 1.696 1.102 3.135 2.555 4.22 4.262 6.46-5.737 12.056-12.38 16.612-19.722-1.969.216-3.962.014-5.847-.594s-3.621-1.607-5.093-2.932c-1.472-1.326-2.648-2.947-3.45-4.758s-1.212-3.771-1.204-5.752z" fill="#3d113c"/><path d="m134.008 107.208c.121-.123.264-.221.422-.29-.158.069-.301.167-.422.29z" fill="#3d113c"/><path d="m150.131 122.166c-.008 1.981.402 3.941 1.204 5.752s1.978 3.433 3.45 4.758 3.208 2.324 5.093 2.932c1.886.608 3.878.81 5.847.595.614-.988 1.208-1.989 1.781-3.003-1.354-8.524-5.432-16.38-11.624-22.394-1.783 1.31-3.232 3.021-4.231 4.994s-1.52 4.154-1.52 6.366z" fill="#fffac2"/><path d="m107.248 81.2725v15.9349h4.764v-20.6986c-.626 0-1.245.1232-1.823.3626s-1.103.5903-1.546 1.0326c-.442.4424-.793.9675-1.032 1.5455-.24.5779-.363 1.1974-.363 1.823z" fill="#424242"/><path d="m118.196 108.857c.205.206.448.369.717.48.268.111.555.167.845.167h.718c-.184.011-.368-.015-.541-.078s-.332-.16-.466-.286-.241-.278-.314-.447-.11-.351-.11-.535c0-.185.037-.367.11-.536s.18-.321.314-.447.293-.223.466-.286c.173-.062.357-.089.541-.078h-2.921v.509c-.001.29.056.578.167.846s.274.512.479.717z" fill="#fff"/><path d="m121.158 106.999c.252.152.447.382.556.655s.126.574.049.858c-.078.283-.247.533-.48.712s-.518.277-.812.279h.687c.357 0 .699-.141.952-.394.252-.252.394-.595.394-.952s-.142-.699-.394-.952c-.253-.252-.595-.394-.952-.394h-.687c.242.004.478.071.687.193z" fill="#fff"/><path d="m119.127 108.155c-.002.206.043.409.133.595.089.185.22.347.383.473.163.127.352.213.554.254s.411.034.61-.019c.31-.088.579-.284.758-.553.178-.269.254-.593.214-.913s-.193-.616-.432-.832c-.24-.217-.549-.341-.871-.349-.357 0-.699.141-.952.393s-.396.594-.397.951z" fill="#000"/><path d="m116.084 135.271c0 1.608.639 3.15 1.775 4.286 1.137 1.137 2.679 1.776 4.286 1.776h5.808v-12.128h-5.808c-.41-.001-.819.04-1.221.122-.197.04-.39.09-.58.147-1.236.386-2.316 1.156-3.082 2.199s-1.179 2.304-1.178 3.598zm5.909 0h2.545c.253 0 .497.101.676.28.18.18.28.423.28.677s-.1.497-.28.677c-.179.179-.423.28-.676.28h-1.018c-.416 0-.815-.165-1.109-.459s-.459-.693-.459-1.109z" fill="#00bcb4"/><path d="m144.105 97.2076h4.733v-15.8738c0-1.2634-.502-2.4751-1.395-3.3685-.894-.8933-2.105-1.3952-3.369-1.3952v20.6375z" fill="#3d113c"/><path d="m107.289 105.503-.143-.208-.234.137.138.036z" fill="#fffac2"/><path d="m112.012 91.0134v6.1938h-11.756c.006 1.9233.668 3.7868 1.877 5.2828 1.208 1.496 2.891 2.536 4.77 2.947l.234-.138.142.209c.462.081.931.124 1.4.127h3.303v30.715c0 2.319.921 4.543 2.561 6.183 1.64 1.639 3.864 2.561 6.182 2.561h7.233v-3.756h-5.813c-1.607 0-3.149-.639-4.286-1.776-1.136-1.137-1.775-2.678-1.775-4.286 0-1.293.413-2.553 1.179-3.595.767-1.042 1.846-1.811 3.081-2.197.19-.057.383-.107.58-.147.402-.082.811-.123 1.221-.122h5.807v-38.171zm9.161 18.4846h-1.414c-.586 0-1.148-.233-1.562-.647-.415-.414-.647-.976-.647-1.562v-.509h3.608c.357 0 .7.142.952.395.252.252.394.595.394.952s-.142.699-.394.951c-.252.253-.595.395-.952.395z" fill="#fffac2"/><path d="m122.379 107.646c.067.161.101.334.102.509-.001-.175-.035-.348-.102-.509z" fill="#fffac2"/><path d="m122.38 107.646c-.096-.225-.251-.421-.448-.565.197.144.352.34.448.565z" fill="#fffac2"/><path d="m121.158 109.498c.354-.004.692-.147.94-.399.249-.251.389-.59.389-.944 0 .354-.14.693-.389.944-.248.252-.586.395-.94.399z" fill="#fffac2"/><path d="m122.145 141.333c-1.452.003-2.857-.515-3.959-1.46-1.102-.946-1.829-2.255-2.047-3.691-.218-1.435.086-2.902.858-4.132s1.959-2.142 3.347-2.571c-1.235.386-2.314 1.155-3.081 2.197-.766 1.042-1.179 2.302-1.179 3.595 0 .796.157 1.584.461 2.32.305.735.751 1.404 1.314 1.966.563.563 1.231 1.01 1.967 1.314.735.305 1.523.462 2.319.462z" fill="#fffac2"/><path d="m128.023 141.333h-.066v3.756h.066z" fill="#016099"/><path d="m127.957 105.61v23.58h.066v-29.7327h-.066z" fill="#016099"/><path d="m148.834 97.2072h-4.764v-6.1938h-16.113v8.4434h.066v29.7472h5.919c.208 0 .415.01.621.031 1.493.154 2.875.855 3.88 1.969s1.561 2.562 1.561 4.062c0 .796-.157 1.584-.462 2.32-.304.735-.751 1.403-1.314 1.966s-1.231 1.009-1.966 1.314c-.736.305-1.524.461-2.32.461h-5.924v3.756h7.344c1.148 0 2.285-.226 3.346-.665 1.061-.44 2.025-1.084 2.837-1.896.812-.811 1.456-1.775 1.895-2.836.44-1.061.666-2.198.666-3.346v-30.73h3.303c.55.001 1.099-.052 1.639-.158 1.91-.381 3.628-1.413 4.864-2.919 1.235-1.506 1.91-3.3933 1.91-5.341zm-10.281 10.0868c-.002.346-.085.686-.244.993-.179.368-.458.678-.806.893-.348.216-.75.328-1.159.323h-1.399c-.357 0-.7-.142-.952-.394-.253-.252-.394-.595-.394-.952s.141-.699.394-.952c.252-.252.595-.394.952-.394h3.608z" fill="#016099"/><path d="m136.976 108.155c0 .358-.142.701-.395.954s-.596.395-.954.395h.718c.583-.007 1.141-.242 1.554-.655.413-.412.648-.97.654-1.554v-.509h-2.921c.178.001.355.037.519.106.165.069.314.171.439.298s.223.278.289.444c.067.165.099.343.097.521z" fill="#fff"/><path d="m138.308 108.287c-.103.21-.238.403-.402.57.164-.167.299-.36.402-.57z" fill="#fff"/><path d="m134.944 109.498h.687c-.343-.021-.665-.172-.9-.422s-.366-.58-.366-.924c0-.343.131-.673.366-.924.235-.25.557-.401.9-.422h-.687c-.357 0-.7.142-.952.394-.253.253-.394.595-.394.952s.141.7.394.952c.252.253.595.394.952.394z" fill="#fff"/><path d="m133.723 107.646c.066-.16.163-.305.285-.428-.122.123-.219.268-.285.428z" fill="#fff"/><path d="m133.617 108.155c.001-.175.035-.348.102-.509-.067.161-.101.334-.102.509z" fill="#fff"/><path d="m134.946 109.498c-.354-.004-.692-.147-.941-.399-.248-.251-.388-.59-.388-.944 0 .354.14.693.388.944.249.252.587.395.941.399z" fill="#fff"/><path d="m134.946 106.999c-.307.182-.533.472-.633.814-.101.342-.067.709.093 1.027.159.318.434.563.768.686.334.124.703.116 1.031-.022s.592-.396.737-.721c.146-.324.163-.693.047-1.029-.115-.337-.354-.618-.668-.785s-.68-.209-1.024-.117c-.124.032-.242.082-.351.147z" fill="#000"/><path d="m127.957 141.333h.061v-12.128h-.061z" fill="#3d113c"/><path d="m133.939 141.333c1.556.003 3.053-.592 4.183-1.663 1.129-1.07 1.804-2.534 1.883-4.088.08-1.554-.441-3.079-1.455-4.26-1.013-1.18-2.442-1.926-3.991-2.082-.206-.02-.413-.031-.62-.03h-5.919v12.128zm-2.83-6.072h2.545v.346c0 .416-.166.815-.46 1.109s-.692.459-1.108.459h-1.018c-.254 0-.497-.101-.676-.281-.18-.179-.281-.422-.281-.676s.101-.497.281-.677c.179-.179.422-.28.676-.28z" fill="#3d113c"/><path d="m139.999 135.271c0 1.608-.639 3.15-1.775 4.286-1.137 1.137-2.679 1.776-4.286 1.776 1.607 0 3.149-.639 4.286-1.776 1.136-1.136 1.775-2.678 1.775-4.286 0-1.5-.556-2.947-1.561-4.061s-2.387-1.816-3.88-1.97c1.493.154 2.875.856 3.88 1.97s1.561 2.561 1.561 4.061z" fill="#3d113c"/><path d="m123.576 137.165h1.018c.253 0 .497-.101.676-.281.18-.179.28-.422.28-.676s-.1-.497-.28-.677c-.179-.179-.423-.28-.676-.28h-2.545v.346c0 .409.159.802.444 1.094.286.293.674.463 1.083.474z" fill="#016099"/><path d="m131.108 137.165h1.017c.416 0 .815-.166 1.109-.46.294-.293.459-.692.459-1.108v-.346h-2.545c-.254 0-.497.101-.676.28-.18.18-.281.423-.281.677s.101.497.281.676c.179.18.422.281.676.281z" fill="#016099"/></g></svg>