<svg fill="none" height="179" viewBox="0 0 179 179" width="179" xmlns="http://www.w3.org/2000/svg" xmlns:xlink="http://www.w3.org/1999/xlink"><clipPath id="a"><path d="m.423828.129639h178.13v178.13h-178.13z"/></clipPath><g clip-path="url(#a)"><path d="m59.9251 132.963v-56.5482h-6.0615c-1.0115-.0003-2.0206-.0991-3.0129-.2952-14.8708 9.232-25.9671 23.4588-31.2999 40.1304 5.6966-.814 11.5024.28 16.5118 3.112s8.9408 7.243 11.1808 12.543c2.2401 5.301 2.6629 11.194 1.2026 16.76-1.4604 5.566-4.7218 10.492-9.2755 14.01 12.3466 8.486 26.6443 13.701 41.555 15.157 1.1722-5.683 4.2082-10.811 8.6266-14.571v-14.215h-13.3394c-4.2658 0-8.357-1.694-11.3738-4.71-3.0169-3.016-4.7124-7.107-4.7138-11.373z" fill="#00bcb4"/><path d="m162.602 132.027c-5.868 1.544-12.092.993-17.598-1.559-5.505-2.552-9.948-6.945-12.562-12.422-2.614-5.476-3.236-11.693-1.757-17.579 1.478-5.8854 4.963-11.0709 9.855-14.6623-3.773-3.6557-7.926-6.8974-12.388-9.6699-.992.196-2.001.2949-3.013.2952h-6.107v56.533c0 2.113-.416 4.205-1.225 6.157-.808 1.951-1.993 3.725-3.487 5.219s-3.267 2.679-5.219 3.487c-1.952.809-4.044 1.225-6.157 1.225h-13.6139v14.209c2.8545-2.437 6.202-4.229 9.8133-5.253 3.6116-1.023 7.4016-1.255 11.1106-.677 3.709.577 7.249 1.948 10.379 4.021 3.129 2.072 5.774 4.797 7.753 7.986 13.87-6.755 25.758-16.984 34.506-29.691v-1.125c-.005-2.189-.117-4.357-.29-6.494z" fill="#3d113c"/><path d="m145.676 91.2911c-1.617-1.9148-3.331-3.746-5.135-5.4864-4.885 3.5944-8.364 8.7795-9.839 14.6623-1.474 5.883-.852 12.096 1.761 17.57 2.613 5.473 7.052 9.865 12.553 12.418 5.501 2.554 11.721 3.109 17.588 1.572-.15-1.697-.357-3.393-.621-5.09-2.089-13.145-7.727-25.47-16.307-35.6459z" fill="#00bcb4"/><path d="m80.7051 177.826c2.8365.279 5.712.421 8.6265.428v-14.999c-4.4183 3.761-7.4544 8.889-8.6265 14.571z" fill="#fffac2"/><path d="m89.4878 178.259c13.4752.02 26.7782-3.032 38.8982-8.922-1.979-3.189-4.624-5.914-7.753-7.986-3.13-2.073-6.67-3.444-10.379-4.021-3.709-.578-7.499-.346-11.1106.677-3.6113 1.024-6.9588 2.816-9.8133 5.253v14.999z" fill="#00bcb4"/><path d="m89.4878.129694c-16.2354-.018039-32.1665 4.404546-46.0692 12.789106-13.9027 8.3846-25.2475 20.4118-32.8067 34.7801-7.55912 14.3682-11.044673 30.5302-10.079411 46.7369.965261 16.2062 6.344571 31.8402 15.555811 45.2102v-1.125c-.0059-6.819.9379-13.606 2.8042-20.164.2036-.708.4174-1.405.6362-2.102 5.3266-16.6701 16.4155-30.8984 31.2795-40.1352.9924.196 2.0015.2949 3.013.2951h6.1073v56.5481c0 4.267 1.6949 8.359 4.7119 11.376 3.0171 3.017 7.109 4.712 11.3757 4.712h26.9739c4.262-.007 8.348-1.705 11.359-4.721 3.012-3.016 4.703-7.104 4.703-11.367v-56.5481h6.108c1.011-.0002 2.02-.0991 3.012-.2951 8.953 5.5542 16.608 12.9682 22.444 21.7396 5.837 8.7716 9.72 18.6956 11.386 29.0986.264 1.673.471 3.369.621 5.089.188 2.138.29 4.306.29 6.494v1.125c9.371-13.592 14.758-29.533 15.553-46.0234.071-1.4657.109-2.9417.112-4.4278.003-11.7-2.3-23.2859-6.776-34.0957-4.477-10.8099-11.039-20.6318-19.312-28.9047-8.274-8.273-18.096-14.8347-28.906-19.31041-10.81-4.4757-22.396-6.77764-34.0962-6.774296z" fill="#fdb98d"/><path d="m49.2819 142.053c.002-3.735-.799-7.426-2.3487-10.824-1.5496-3.398-3.8118-6.423-6.633-8.871-2.8212-2.447-6.1356-4.259-9.7185-5.313s-7.3505-1.325-11.0475-.795c-.2239.697-.4377 1.394-.6362 2.101-1.8663 6.559-2.8101 13.346-2.8042 20.165v1.125c6.2153 9.022 14.0331 16.828 23.0652 23.029 3.1526-2.433 5.7047-5.556 7.4597-9.131 1.755-3.574 2.6662-7.504 2.6632-11.486z" fill="#fffac2"/><path d="m59.9248 49.4969h.0458v-26.6787c-2.3231.0041-4.5496.9297-6.1908 2.5738s-2.563 3.8722-2.563 6.1953v29.3252h8.708z" fill="#3d113c"/><path d="m59.9849 49.512h-.0611v11.4003h.0611z" fill="#424242"/><path d="m59.9853 60.9125h-.0615v.1332h.0615z" fill="#b3b3b3"/><path d="m73.0748 81.0512c0-.6574.2611-1.2878.7259-1.7526.4649-.4648 1.0953-.726 1.7526-.726h-5.3795v.8958c0 1.0798.429 2.1154 1.1925 2.879.7636.7635 1.7992 1.1925 2.8791 1.1925h1.3181c-.3272.0013-.6514-.0621-.954-.1867-.3025-.1246-.5774-.3079-.8088-.5392-.2313-.2314-.4146-.5063-.5392-.8088-.1246-.3026-.1881-.6268-.1867-.954z" fill="#fff"/><path d="m76.8149 78.5879h-1.2622c.6581 0 1.2891.2614 1.7544.7267s.7267 1.0964.7267 1.7544-.2614 1.2891-.7267 1.7544-1.0963.7267-1.7544.7267h1.2622c.6373-.0289 1.2388-.3024 1.6796-.7636.4407-.4612.6867-1.0745.6867-1.7124s-.246-1.2513-.6867-1.7125c-.4408-.4611-1.0423-.7346-1.6796-.7635z" fill="#fff"/><path d="m76.8165 78.939c-.3832-.2253-.8179-.348-1.2622-.3563-.3531-.0027-.7027.0701-1.0254.2134-.3227.1434-.611.354-.8457.6179-.2347.2638-.4103.5748-.515.912s-.1362.6929-.0923 1.0433c.0438.3503.1621.6873.3468.9882.1847.301.4315.559.724.7568s.6239.3309.972.3902.7048.0436 1.0463-.0461c.4762-.1174.9065-.3743 1.2358-.7378s.5426-.817.6126-1.3024c.07-.4855-.0066-.9808-.2198-1.4225-.2132-.4416-.5535-.8096-.9771-1.0567z" fill="#000"/><path d="m78.6376 119.812c-2.9601 0-5.7989 1.176-7.892 3.269s-3.269 4.932-3.269 7.892c.0027 2.959 1.1798 5.795 3.2726 7.886s4.9301 3.265 7.8884 3.265h10.6878v-22.312z" fill="#00bcb4"/><path d="m119.054 60.9124h8.708v-29.2285c-.003-2.3213-.926-4.5468-2.567-6.1887-1.641-1.6418-3.866-2.5661-6.187-2.5702v26.5719h.061z" fill="#3d113c"/><path d="m119.053 49.512h-.061v11.4003h.061z" fill="#b3b3b3"/><path d="m59.9699 49.4968v11.5326h-.0611v-.1323h-21.5689c-.0027 2.039.397 4.0585 1.1762 5.9427s1.9226 3.5962 3.3646 5.0377c1.442 1.4416 3.1543 2.5844 5.0388 3.363 1.8845.7785 3.9041 1.1776 5.9431 1.1742h6.1073v56.5483c0 2.113.4161 4.205 1.2246 6.157.8084 1.952 1.9935 3.725 3.4873 5.219 1.4939 1.494 3.2674 2.679 5.2192 3.487 1.9519.809 4.0439 1.225 6.1565 1.225h13.3139v-6.927h-10.6877c-1.4657 0-2.9171-.288-4.2712-.849s-2.5845-1.383-3.6209-2.42c-1.0364-1.036-1.8586-2.267-2.4194-3.621-.5609-1.354-.8496-2.805-.8496-4.271 0-1.466.2887-2.917.8496-4.271.5608-1.354 1.383-2.585 2.4194-3.621s2.2668-1.859 3.6209-2.419c1.3541-.561 2.8055-.85 4.2712-.85h10.6877v-70.3052zm16.8358 34.0279h-2.5855c-1.0798 0-2.1154-.429-2.879-1.1926-.7635-.7635-1.1925-1.7991-1.1925-2.879v-.8957h6.6671c.6373.0289 1.2389.3024 1.6796.7636.4407.4611.6867 1.0745.6867 1.7124s-.246 1.2512-.6867 1.7124-1.0423.7347-1.6796.7636z" fill="#fffac2"/><path d="m127.76 60.9124h-8.708v.2392h-.046v-11.6548h-29.6759v70.3152h11.0079c2.961 0 5.799 1.176 7.893 3.269 2.093 2.093 3.269 4.932 3.269 7.892-.003 2.959-1.18 5.795-3.273 7.886s-4.93 3.265-7.889 3.265h-11.0079v6.922h13.6349c4.265 0 8.357-1.694 11.374-4.71 3.016-3.016 4.712-7.107 4.713-11.373v-56.5483h6.108c2.035 0 4.05-.4008 5.93-1.1796s3.589-1.9203 5.028-3.3594 2.58-3.1475 3.359-5.0277 1.18-3.8954 1.18-5.9305h-12.897zm-18.932 18.5662c0 1.0798-.429 2.1154-1.193 2.879-.763.7635-1.799 1.1925-2.879 1.1925h-2.545c-.637-.0289-1.238-.3024-1.679-.7636-.441-.4611-.6869-1.0745-.6869-1.7124s.2459-1.2513.6869-1.7124c.441-.4612 1.042-.7347 1.679-.7636h6.617z" fill="#016099"/><path d="m119.053 60.9125h-.061v.2399h.061z" fill="#b3b3b3"/><path d="m103.453 78.583c.658 0 1.289.2614 1.755.7267.465.4653.726 1.0963.726 1.7544 0 .658-.261 1.2891-.726 1.7544-.466.4653-1.097.7266-1.755.7266h1.303c1.08 0 2.115-.4289 2.879-1.1925.764-.7635 1.193-1.7991 1.193-2.879v-.8957z" fill="#fff"/><path d="m102.212 83.1888c-.45-.285-.796-.7067-.987-1.2032-.192-.4964-.219-1.0413-.078-1.5544.142-.513.444-.9671.863-1.2953s.932-.5132 1.464-.5276h-1.262c-.637.0289-1.239.3024-1.68.7635-.44.4612-.6863 1.0746-.6863 1.7125s.2463 1.2512.6863 1.7124c.441.4612 1.043.7347 1.68.7636h1.262c-.444-.0083-.879-.131-1.262-.3563z" fill="#fff"/><path d="m103.453 78.5827c-.49 0-.969.1454-1.377.4177-.407.2724-.725.6595-.913 1.1124-.187.4529-.236.9512-.141 1.432.096.4808.332.9224.679 1.2691.346.3466.788.5827 1.269.6783.48.0956.979.0465 1.432-.1411.453-.1875.84-.5052 1.112-.9128s.418-.8868.418-1.377c.002-.3263-.06-.6498-.183-.9517-.124-.302-.307-.5763-.537-.807-.231-.2307-.505-.4131-.807-.5367s-.626-.1859-.952-.1832z" fill="#000"/><path d="m100.338 119.812h-11.0079v22.312h11.0079c1.466 0 2.918-.289 4.272-.849 1.354-.561 2.584-1.383 3.621-2.42 1.036-1.036 1.858-2.267 2.419-3.621s.85-2.805.85-4.271c-.003-2.958-1.18-5.795-3.273-7.885-2.093-2.091-4.93-3.266-7.889-3.266z" fill="#3d113c"/><g fill="#016099"><path d="m78.3535 130.927h4.723v3.563h-1.8322c-.7667 0-1.502-.304-2.0441-.847-.5421-.542-.8467-1.277-.8467-2.044z"/><path d="m83.05 134.475c.9725 0 1.7609-.789 1.7609-1.761 0-.973-.7884-1.761-1.7609-1.761s-1.7609.788-1.7609 1.761c0 .972.7884 1.761 1.7609 1.761z"/><path d="m96.9645 134.5h-1.8322v-3.562h4.7229v.636c.0048.382-.0665.762-.2097 1.117s-.3553.678-.6242.95c-.269.272-.5892.488-.9423.636-.3531.147-.7319.223-1.1145.223z"/><path d="m95.1633 134.475c.9725 0 1.7609-.789 1.7609-1.761 0-.973-.7884-1.761-1.7609-1.761-.9726 0-1.761.788-1.761 1.761 0 .972.7884 1.761 1.761 1.761z"/></g></g></svg>