<svg fill="none" height="377" viewBox="0 0 354 377" width="354" xmlns="http://www.w3.org/2000/svg"><path d="m270.61 47.1406c28.804 25.5243 51.691 54.6844 66.378 89.0494 14.687 34.366 21.246 73.935 12.263 110.653-8.984 36.647-33.51 70.37-65.593 94.54-32.084 24.17-71.796 38.714-108.372 34.508-36.575-4.278-70.085-27.307-98.2469-52.689-28.1623-25.453-50.906-53.33-64.0959-86.126-13.189939-32.797-16.82609-70.513-5.63247-103.025 11.19357-32.511 37.14567-59.8176 67.09037-84.9854 29.9449-25.2391 63.8819-48.339337 98.2469-48.909712s69.158 21.389112 97.962 46.984712z" fill="#016099"/><path d="m117.612 128.436-59.6784 59.679 59.6784 59.678c7.812 7.833 17.092 14.049 27.31 18.291 10.217 4.241 21.171 6.427 32.234 6.43v-24.866c-15.736 0-30.827-6.251-41.954-17.378s-17.378-26.218-17.378-41.953c0-15.736 6.251-30.827 17.378-41.954s26.218-17.378 41.954-17.378v-25.27c-11.063.004-22.017 2.189-32.234 6.431-10.218 4.242-19.498 10.457-27.31 18.29z" fill="#fffac2"/><path d="m117.955 188.363c0 15.711 6.232 30.781 17.329 41.903 11.096 11.122 26.152 17.388 41.862 17.424v-118.632c-15.706.038-30.757 6.303-41.852 17.42-11.096 11.116-17.331 26.179-17.339 41.885z" fill="#016099"/><path d="m177.291 129.057c15.6.206 30.491 6.548 41.449 17.652 10.959 11.105 17.103 26.078 17.103 41.68 0 15.601-6.144 30.574-17.103 41.679-10.958 11.104-25.849 17.446-41.449 17.652h-.135v24.866c11.114.023 22.121-2.157 32.387-6.412 10.267-4.256 19.588-10.503 27.426-18.382l59.679-59.678-59.679-59.678c-7.844-7.866-17.168-14.1-27.434-18.343s-21.271-6.411-32.379-6.378v25.342z" fill="#00bcb4"/><path d="m236.627 188.363c-.008-15.731-6.263-30.816-17.39-41.937s-26.214-17.368-41.946-17.368h-.135v118.642h.135c15.737 0 30.829-6.252 41.957-17.379 11.128-11.128 17.379-26.221 17.379-41.958z" fill="#3d113c"/></svg>