<svg width="354" height="377" viewBox="0 0 354 377" fill="none" xmlns="http://www.w3.org/2000/svg">
<path d="M270.61 47.1406C299.414 72.6649 322.301 101.825 336.988 136.19C351.675 170.556 358.234 210.125 349.251 246.843C340.267 283.49 315.741 317.213 283.658 341.383C251.574 365.553 211.862 380.097 175.286 375.891C138.711 371.613 105.201 348.584 77.0391 323.202C48.8768 297.749 26.1331 269.872 12.9432 237.076C-0.246739 204.279 -3.88289 166.563 7.31073 134.051C18.5043 101.54 44.4564 74.2334 74.4011 49.0656C104.346 23.8265 138.283 0.726263 172.648 0.155888C207.013 -0.414487 241.806 21.545 270.61 47.1406Z" fill="#016099"/>
<path d="M117.612 128.436L57.9336 188.115L117.612 247.793C125.424 255.626 134.704 261.842 144.922 266.084C155.139 270.325 166.093 272.511 177.156 272.514V247.648C161.42 247.648 146.329 241.397 135.202 230.27C124.075 219.143 117.824 204.052 117.824 188.317C117.824 172.581 124.075 157.49 135.202 146.363C146.329 135.236 161.42 128.985 177.156 128.985V103.715C166.093 103.719 155.139 105.904 144.922 110.146C134.704 114.388 125.424 120.603 117.612 128.436Z" fill="#FFFAC2"/>
<path d="M117.955 188.363C117.955 204.074 124.187 219.144 135.284 230.266C146.38 241.388 161.436 247.654 177.146 247.69V129.058C161.44 129.096 146.389 135.361 135.294 146.478C124.198 157.594 117.963 172.657 117.955 188.363Z" fill="#016099"/>
<path d="M177.291 129.057C192.891 129.263 207.782 135.605 218.74 146.709C229.699 157.814 235.843 172.787 235.843 188.389C235.843 203.99 229.699 218.963 218.74 230.068C207.782 241.172 192.891 247.514 177.291 247.72H177.156V272.586C188.27 272.609 199.277 270.429 209.543 266.174C219.81 261.918 229.131 255.671 236.969 247.792L296.648 188.114L236.969 128.436C229.125 120.57 219.801 114.336 209.535 110.093C199.269 105.85 188.264 103.682 177.156 103.715V129.057H177.291Z" fill="#00BCB4"/>
<path d="M236.627 188.363C236.619 172.632 230.364 157.547 219.237 146.426C208.11 135.305 193.023 129.058 177.291 129.058H177.156V247.7H177.291C193.028 247.7 208.12 241.448 219.248 230.321C230.376 219.193 236.627 204.1 236.627 188.363Z" fill="#3D113C"/>
</svg>
