<svg fill="none" height="179" viewBox="0 0 179 179" width="179" xmlns="http://www.w3.org/2000/svg"><path d="m60.5201 60.0088-29.315 29.3151 29.315 29.3151c3.8375 3.848 8.3961 6.901 13.4151 8.985 5.0189 2.083 10.3995 3.157 15.8338 3.158v-12.214c-7.7296 0-15.1427-3.071-20.6083-8.537-5.4657-5.465-8.5363-12.8783-8.5363-20.6079s3.0706-15.1426 8.5363-20.6083c5.4656-5.4657 12.8787-8.5362 20.6083-8.5362v-12.4131c-5.4343.0016-10.8149 1.075-15.8338 3.1587-5.019 2.0837-9.5776 5.1369-13.4151 8.9846z" fill="#fffac2"/><path d="m60.6875 89.4463c0 7.7175 3.0612 15.1197 8.5121 20.5827 5.4509 5.464 12.8463 8.542 20.5637 8.559v-58.2735c-7.7153.0188-15.1083 3.0959-20.5586 8.5567s-8.5132 12.8598-8.5172 20.5751z" fill="#016099"/><path d="m89.8341.259277h-.0662c-23.6215 0-46.2754 9.383583-62.9783 26.086423-16.7029 16.7029-26.086475 39.3569-26.086475 62.9783 0 23.621 9.383575 46.275 26.086475 62.978s39.3568 26.087 62.9783 26.087h.0662c23.6219 0 46.2749-9.384 62.9779-26.087s26.087-39.357 26.087-62.978c0-23.6214-9.384-46.2754-26.087-62.9783-16.703-16.70284-39.356-26.086423-62.9779-26.086423zm29.3149 118.379723c-7.775 7.774-18.32 12.14-29.3149 12.14-10.9948 0-21.5395-4.366-29.3151-12.14l-29.315-29.315 29.315-29.315c7.7756-7.7734 18.3203-12.1403 29.3151-12.1403 10.9949 0 21.5399 4.3669 29.3149 12.1403l29.315 29.315z" fill="#016099"/><path d="m89.8337 60.3141c7.663.1013 14.9773 3.2164 20.3603 8.6711 5.383 5.4546 8.402 12.8099 8.402 20.4735 0 7.6635-3.019 15.0183-8.402 20.4733s-12.6973 8.57-20.3603 8.671h-.0661v12.215c5.459.011 10.8664-1.06 15.9094-3.15s9.622-5.159 13.472-9.029l29.315-29.3152-29.315-29.315c-3.853-3.8636-8.434-6.9259-13.476-9.0101-5.043-2.0842-10.4489-3.1491-15.9054-3.1333v12.4487z" fill="#00bcb4"/><path d="m118.981 89.4463c-.004-7.7277-3.077-15.1374-8.543-20.6003-5.465-5.4628-12.8766-8.5315-20.6043-8.5315h-.0661v58.2785h.0661c7.7303 0 15.1443-3.07 20.6103-8.537 5.466-5.466 8.537-12.8794 8.537-20.6097z" fill="#3d113c"/></svg>