<svg width="179" height="179" viewBox="0 0 179 179" fill="none" xmlns="http://www.w3.org/2000/svg">
<g clip-path="url(#clip0_2831_5980)">
<path d="M178.43 89.0638C178.431 73.9275 174.573 59.0408 167.223 45.8092C159.872 32.5776 149.271 21.4376 136.419 13.441C123.568 5.44438 108.89 0.85497 93.7724 0.10605C78.6546 -0.64287 63.5954 2.47341 50.0164 9.16069C36.4375 15.848 24.7868 25.8856 16.1644 38.3259C7.542 50.7663 2.23233 65.1988 0.736682 80.261C-0.758969 95.3233 1.60875 110.518 7.6163 124.411C13.6238 138.304 23.073 150.437 35.0717 159.664C38.7897 151.196 44.8386 143.959 52.5131 138.798C51.2312 138.148 50.1837 137.115 49.5164 135.842C48.8492 134.569 48.5953 133.12 48.7901 131.696C48.985 130.272 49.6189 128.944 50.6036 127.897C51.5883 126.85 52.8749 126.137 54.2842 125.855C53.9706 124.777 53.8112 123.66 53.8109 122.537V113.376C51.2329 110.246 49.8256 106.316 49.831 102.261C49.831 101.91 49.831 101.563 49.8666 101.243C48.4955 100.488 47.3633 99.3647 46.5988 97.9992C45.8343 96.6337 45.4681 95.0812 45.5418 93.5179C45.6155 91.9547 46.1261 90.4435 47.0156 89.1559C47.9052 87.8684 49.138 86.8561 50.5741 86.2341C47.8871 83.0735 46.4147 79.0586 46.4211 74.9102C46.4211 74.5183 46.4211 74.1366 46.4618 73.7498C43.506 70.8368 41.6803 66.9691 41.31 62.8357C40.9397 58.7022 42.0489 54.5716 44.4399 51.1797C46.831 47.7877 50.3486 45.3548 54.366 44.3144C58.3834 43.2739 62.6398 43.6935 66.3767 45.4984C67.3498 42.1791 69.2838 39.2221 71.9349 37.0002C74.586 34.7784 77.8356 33.3911 81.274 33.0134C84.7124 32.6356 88.1856 33.2843 91.2559 34.8776C94.3261 36.4709 96.856 38.9374 98.5265 41.9664C100.908 40.7742 103.529 40.1406 106.192 40.114C108.855 40.0874 111.489 40.6683 113.893 41.8126C116.297 42.957 118.409 44.6345 120.068 46.7178C121.727 48.8011 122.888 51.2351 123.465 53.8349C127.349 54.0736 131.044 55.5992 133.965 58.1709C136.886 60.7425 138.868 64.2138 139.598 68.0368C140.327 71.8598 139.762 75.8169 137.993 79.2834C136.224 82.75 133.35 85.5286 129.826 87.1807C130.949 88.0178 131.843 89.123 132.427 90.3953C133.012 91.6675 133.268 93.0661 133.171 94.4628C133.075 95.8595 132.63 97.2098 131.877 98.3899C131.123 99.5699 130.086 100.542 128.859 101.217C128.859 101.563 128.895 101.91 128.895 102.235C128.901 106.29 127.494 110.221 124.915 113.351V122.511C124.914 123.407 124.811 124.3 124.61 125.173C126.055 125.499 127.357 126.28 128.324 127.402C129.291 128.525 129.872 129.928 129.98 131.406C130.089 132.883 129.719 134.356 128.926 135.607C128.133 136.859 126.959 137.822 125.577 138.355C133.55 143.541 139.834 150.944 143.654 159.654C154.479 151.345 163.246 140.657 169.277 128.416C175.307 116.175 178.439 102.71 178.43 89.0638V89.0638Z" fill="#016099"/>
<path d="M89.3661 172.073C88.7398 172.073 88.1392 171.824 87.6963 171.381C87.2535 170.938 87.0047 170.338 87.0047 169.712C87.0047 169.085 87.2535 168.485 87.6963 168.042C88.1392 167.599 88.7398 167.35 89.3661 167.35V163.309C88.7398 163.309 88.1392 163.06 87.6963 162.617C87.2535 162.174 87.0047 161.574 87.0047 160.948C87.0047 160.321 87.2535 159.721 87.6963 159.278C88.1392 158.835 88.7398 158.586 89.3661 158.586V154.545C88.7398 154.545 88.1392 154.296 87.6963 153.853C87.2535 153.411 87.0047 152.81 87.0047 152.184C87.0047 151.557 87.2535 150.957 87.6963 150.514C88.1392 150.071 88.7398 149.822 89.3661 149.822V143.369C88.2101 143.369 87.0725 143.079 86.0579 142.525C85.0433 141.971 84.184 141.171 83.5591 140.198C82.8682 141.08 81.9728 141.781 80.9502 142.24C79.9277 142.699 78.8088 142.901 77.6904 142.831C76.5719 142.76 75.4874 142.418 74.5307 141.834C73.5741 141.251 72.7739 140.443 72.1996 139.48C71.4321 140.406 70.4363 141.116 69.3106 141.538C68.1848 141.961 66.9682 142.083 65.7811 141.891C64.594 141.699 63.4775 141.201 62.5422 140.445C61.6068 139.689 60.885 138.702 60.4481 137.582C59.417 138.586 58.0971 139.242 56.6739 139.458C55.2508 139.673 53.7958 139.437 52.5137 138.783C44.8392 143.944 38.7902 151.181 35.0723 159.65C50.6233 171.654 69.7207 178.154 89.3661 178.129V172.073Z" fill="#3D113C"/>
<path d="M60.4472 137.577C60.8841 138.697 61.6059 139.684 62.5413 140.44C63.4766 141.195 64.5931 141.694 65.7802 141.886C66.9673 142.077 68.1839 141.956 69.3097 141.533C70.4354 141.11 71.4312 140.401 72.1987 139.475C72.7731 140.438 73.5732 141.245 74.5298 141.829C75.4865 142.413 76.571 142.755 77.6895 142.826C78.8079 142.896 79.9268 142.693 80.9493 142.235C81.9719 141.776 82.8673 141.075 83.5582 140.193C84.1825 141.166 85.0415 141.967 86.0562 142.522C87.0709 143.077 88.2087 143.368 89.3653 143.369V134.411H65.7046C64.5941 134.411 63.4891 134.255 62.4219 133.948L61.9995 133.821C60.1615 133.217 58.4984 132.174 57.1541 130.782C55.8098 129.391 54.8246 127.693 54.2839 125.836C53.2304 126.046 52.2404 126.499 51.3926 127.159C50.5448 127.819 49.8626 128.668 49.4 129.637C48.9374 130.607 48.7073 131.671 48.7278 132.745C48.7484 133.819 49.0191 134.874 49.5184 135.825C50.0178 136.777 50.732 137.598 51.6044 138.225C52.4769 138.852 53.4835 139.267 54.5443 139.437C55.6051 139.607 56.691 139.528 57.7156 139.205C58.7403 138.882 59.6756 138.324 60.4472 137.577V137.577Z" fill="#FDB98D"/>
<path d="M79.0803 83.6851C78.3284 84.984 77.4134 86.1812 76.3574 87.2476C78.7315 88.6745 80.7334 90.6442 82.1985 92.9949C83.6636 95.3456 84.5502 98.0103 84.7855 100.77H89.366V89.6804C85.342 88.9457 81.7026 86.8243 79.0803 83.6851V83.6851Z" fill="#FFFAC2"/>
<path d="M62 133.821L62.4224 133.948C62.4224 133.846 62.453 133.745 62.4682 133.643L62 133.821Z" fill="#FFFAC2"/>
<path d="M60.2537 133.088C60.8151 133.378 61.3989 133.624 61.9994 133.821L62.4676 133.643C62.4676 133.744 62.4422 133.851 62.4218 133.948C63.4891 134.255 64.594 134.411 65.7045 134.411H89.3652V129.602H87.3294C86.7477 129.602 86.1897 129.371 85.7784 128.959C85.367 128.548 85.1359 127.99 85.1359 127.408V125.51C85.1359 125.464 85.1359 125.423 85.1359 125.377H87.1717C87.7534 125.377 88.3114 125.609 88.7227 126.02C89.1341 126.431 89.3652 126.989 89.3652 127.571C89.3652 127.53 89.3652 127.495 89.3652 127.454V117.896H88.2048C87.3571 117.896 86.5442 117.559 85.9448 116.96C85.3454 116.36 85.0087 115.547 85.0087 114.7V104.521H84.7186C84.2825 107.913 82.8631 111.102 80.6355 113.697C78.4078 116.291 75.4693 118.177 72.1826 119.12C68.8959 120.064 65.4048 120.025 62.1401 119.008C58.8753 117.991 55.9797 116.04 53.8105 113.397V122.558C53.8187 124.734 54.4237 126.867 55.5598 128.724C56.6958 130.58 58.3194 132.09 60.2537 133.088V133.088Z" fill="#FFFAC2"/>
<path d="M53.8116 89.1817C52.6131 88.3316 51.5257 87.3348 50.5747 86.2146C49.1387 86.8366 47.9059 87.8489 47.0163 89.1364C46.1268 90.424 45.6162 91.9352 45.5425 93.4984C45.4688 95.0616 45.835 96.6142 46.5995 97.9797C47.364 99.3452 48.4961 100.469 49.8673 101.223C50.0801 97.531 51.4614 94.0019 53.8116 91.1462V89.1817Z" fill="#FFFAC2"/>
<path d="M53.8105 91.1412C54.1498 90.7136 54.5214 90.3031 54.9251 89.9095C54.5434 89.6805 54.177 89.4362 53.8105 89.1766V91.1412Z" fill="#FFFAC2"/>
<path d="M53.8121 89.1816C54.1734 89.4361 54.5449 89.6906 54.9266 89.9145C57.6865 87.1366 61.2975 85.3634 65.1832 84.8782C69.0688 84.3929 73.005 85.2236 76.3632 87.2375C77.4192 86.171 78.3343 84.9738 79.0861 83.6749C81.7056 86.8169 85.3432 88.9419 89.3667 89.6804V34.0073C87.1083 33.158 84.6988 32.7842 82.2893 32.9095C79.8797 33.0347 77.522 33.6563 75.3638 34.7351C73.2056 35.814 71.2935 37.3269 69.7472 39.1791C68.2009 41.0314 67.0538 43.183 66.3778 45.4992C62.6439 43.7045 58.3948 43.2913 54.385 44.3329C50.3753 45.3745 46.8644 47.8034 44.476 51.1884C42.0875 54.5734 40.976 58.6953 41.3388 62.8222C41.7017 66.9491 43.5154 70.8139 46.4578 73.7301C46.4578 74.1119 46.4171 74.4986 46.4171 74.8905C46.4189 77.69 47.0912 80.4484 48.3778 82.9348C49.6643 85.4212 51.5278 87.5632 53.8121 89.1816V89.1816Z" fill="#FDB98D"/>
<path d="M85.0098 104.496V114.675C85.0098 115.522 85.3465 116.335 85.9459 116.935C86.5453 117.534 87.3582 117.871 88.2059 117.871H89.3663V104.496H85.0098Z" fill="#FDB98D"/>
<path d="M89.366 127.454C89.366 127.495 89.366 127.531 89.366 127.571C89.366 126.989 89.1349 126.432 88.7235 126.02C88.3122 125.609 87.7542 125.378 87.1725 125.378H85.1367C85.1367 125.423 85.1367 125.464 85.1367 125.51V127.408C85.1367 127.99 85.3678 128.548 85.7792 128.959C86.1906 129.371 86.7485 129.602 87.3303 129.602H89.366V127.449V127.454Z" fill="#FC6719"/>
<path d="M87.0039 152.173C87.0039 152.8 87.2527 153.4 87.6956 153.843C88.1384 154.286 88.7391 154.535 89.3654 154.535V149.812C88.7391 149.812 88.1384 150.061 87.6956 150.503C87.2527 150.946 87.0039 151.547 87.0039 152.173V152.173Z" fill="#FDB98D"/>
<path d="M87.0039 160.948C87.0039 161.574 87.2527 162.175 87.6956 162.617C88.1384 163.06 88.7391 163.309 89.3654 163.309V158.586C88.7391 158.586 88.1384 158.835 87.6956 159.278C87.2527 159.721 87.0039 160.321 87.0039 160.948V160.948Z" fill="#FDB98D"/>
<path d="M87.0039 169.712C87.0039 170.338 87.2527 170.939 87.6956 171.381C88.1384 171.824 88.7391 172.073 89.3654 172.073V167.35C88.7391 167.35 88.1384 167.599 87.6956 168.042C87.2527 168.485 87.0039 169.085 87.0039 169.712V169.712Z" fill="#FDB98D"/>
<path d="M67.3494 119.774C71.6054 119.774 75.7155 118.224 78.9121 115.414C82.1087 112.604 84.1731 108.727 84.7196 104.506H89.3662V100.77H84.7858C84.4988 97.442 83.2658 94.2651 81.2323 91.6146C79.1987 88.964 76.4495 86.9504 73.3089 85.8114C70.1683 84.6723 66.7675 84.4553 63.5076 85.186C60.2477 85.9166 57.2648 87.5645 54.9109 89.935V89.935C54.5207 90.3286 54.1492 90.7392 53.7963 91.1667C51.4461 94.0224 50.0648 97.5514 49.852 101.244C49.852 101.59 49.8164 101.936 49.8164 102.262C49.8164 104.562 50.2695 106.84 51.1499 108.965C52.0302 111.091 53.3206 113.022 54.9472 114.649C56.5739 116.275 58.5051 117.566 60.6304 118.446C62.7558 119.326 65.0337 119.779 67.3342 119.779L67.3494 119.774ZM53.8116 106.369C53.407 105.039 53.2012 103.657 53.2009 102.267C53.2009 102.267 53.2009 102.267 53.2009 102.236C53.207 99.9227 53.7802 97.6461 54.8705 95.6057C55.9607 93.5653 57.5347 91.8233 59.4544 90.5324C61.3742 89.2415 63.5812 88.4411 65.8822 88.2012C68.1832 87.9613 70.5078 88.2892 72.6526 89.1564C72.9529 89.2785 73.243 89.4108 73.5331 89.5533C75.6006 90.5544 77.3931 92.0439 78.7558 93.8931C80.1184 95.7424 81.0102 97.8957 81.3539 100.167C81.6976 102.438 81.4829 104.759 80.7285 106.929C79.974 109.098 78.7025 111.051 77.0238 112.619C75.3451 114.187 73.3097 115.323 71.0937 115.928C68.8777 116.532 66.5477 116.588 64.3052 116.091C62.0627 115.593 59.9751 114.557 58.2231 113.071C56.471 111.586 55.1071 109.696 54.2493 107.565C54.0796 107.171 53.9337 106.773 53.8116 106.369Z" fill="#3D113C"/>
<path d="M72.6529 89.146C70.5083 88.2763 68.1829 87.9463 65.8809 88.1851C63.5789 88.4238 61.3708 89.224 59.4503 90.5154C57.5298 91.8068 55.9556 93.5499 54.8661 95.5917C53.7765 97.6335 53.2048 99.9115 53.2012 102.226C53.2012 102.226 53.2012 102.226 53.2012 102.256C53.2015 103.646 53.4073 105.029 53.8119 106.358C53.9374 106.769 54.0782 107.171 54.2343 107.565L70.78 91.0189L72.6529 89.146Z" fill="#016099"/>
<path d="M67.3493 116.405C69.6648 116.403 71.9445 115.832 73.9882 114.744C76.032 113.655 77.7775 112.082 79.0717 110.162C80.3659 108.242 81.1691 106.033 81.4111 103.73C81.6531 101.428 81.3264 99.1005 80.4596 96.9532L62.041 115.372C63.7272 116.056 65.5298 116.406 67.3493 116.405V116.405Z" fill="#016099"/>
<path d="M62.0399 115.372L80.4585 96.9533C79.1416 93.7141 76.6749 91.0753 73.5318 89.5431C72.66 90.1163 71.7385 90.6103 70.7785 91.019L54.248 107.565C54.9599 109.32 56.0161 110.916 57.3543 112.256C58.6926 113.597 60.2858 114.657 62.0399 115.372V115.372Z" fill="#FFFAC2"/>
<path d="M73.5327 89.5378C73.2426 89.3953 72.9525 89.263 72.6522 89.1409L70.7793 91.0138C71.7393 90.605 72.6608 90.1111 73.5327 89.5378V89.5378Z" fill="#FFFAC2"/>
<path d="M125.587 138.366C124.411 138.825 123.132 138.951 121.89 138.731C120.647 138.511 119.489 137.953 118.543 137.119C118.226 138.361 117.57 139.49 116.648 140.381C115.726 141.271 114.574 141.888 113.322 142.161C112.069 142.434 110.766 142.353 109.557 141.927C108.348 141.501 107.281 140.748 106.476 139.75C105.887 140.702 105.075 141.497 104.11 142.065C103.145 142.633 102.057 142.958 100.938 143.011C99.8197 143.064 98.7052 142.844 97.6908 142.37C96.6765 141.896 95.7929 141.182 95.1163 140.289C94.4827 141.232 93.6264 142.004 92.6232 142.537C91.6201 143.069 90.501 143.346 89.3652 143.343V149.802C89.9915 149.802 90.5922 150.05 91.0351 150.493C91.4779 150.936 91.7267 151.537 91.7267 152.163C91.7267 152.789 91.4779 153.39 91.0351 153.833C90.5922 154.276 89.9915 154.525 89.3652 154.525V158.566C89.9915 158.566 90.5922 158.814 91.0351 159.257C91.4779 159.7 91.7267 160.301 91.7267 160.927C91.7267 161.553 91.4779 162.154 91.0351 162.597C90.5922 163.04 89.9915 163.289 89.3652 163.289V167.33C89.9915 167.33 90.5922 167.578 91.0351 168.021C91.4779 168.464 91.7267 169.065 91.7267 169.691C91.7267 170.317 91.4779 170.918 91.0351 171.361C90.5922 171.804 89.9915 172.053 89.3652 172.053V178.129C109.009 178.159 128.106 171.664 143.659 159.665C139.84 150.955 133.558 143.552 125.587 138.366V138.366Z" fill="#270E11"/>
<path d="M118.375 133.139C117.845 133.407 117.295 133.635 116.731 133.821L116.471 133.902C115.354 134.24 114.193 134.412 113.026 134.411H89.3652V143.369C90.501 143.372 91.6201 143.095 92.6232 142.562C93.6264 142.03 94.4827 141.258 95.1163 140.315C95.7929 141.207 96.6765 141.921 97.6908 142.395C98.7052 142.869 99.8197 143.089 100.938 143.036C102.057 142.983 103.145 142.659 104.11 142.091C105.075 141.522 105.887 140.728 106.476 139.776C107.281 140.773 108.348 141.527 109.557 141.953C110.766 142.379 112.069 142.459 113.322 142.186C114.574 141.913 115.726 141.297 116.648 140.407C117.57 139.516 118.226 138.387 118.543 137.144C119.335 137.836 120.274 138.339 121.29 138.613C122.305 138.886 123.37 138.925 124.403 138.725C125.435 138.526 126.409 138.093 127.249 137.46C128.089 136.827 128.773 136.011 129.25 135.074C129.727 134.136 129.984 133.102 130.001 132.051C130.018 130.999 129.794 129.957 129.348 129.005C128.901 128.053 128.243 127.215 127.424 126.556C126.604 125.896 125.645 125.432 124.62 125.2C124.224 126.9 123.459 128.492 122.38 129.864C121.301 131.236 119.934 132.354 118.375 133.139Z" fill="#FC6719"/>
<path d="M111.163 84.7437C109.871 83.6604 108.742 82.3972 107.809 80.9928C106.028 84.1866 103.291 86.7422 99.9833 88.3004C96.6751 89.8587 92.9618 90.3413 89.3652 89.6804V100.77H93.9457C94.3143 96.4383 96.281 92.3983 99.4633 89.4361C102.646 86.4739 106.816 84.8013 111.163 84.7437V84.7437Z" fill="#00BCB4"/>
<path d="M111.382 119.774C107.126 119.774 103.016 118.224 99.8194 115.414C96.6228 112.604 94.5584 108.727 94.0119 104.506H93.7218V114.685C93.7218 115.533 93.385 116.346 92.7856 116.945C92.1862 117.544 91.3733 117.881 90.5256 117.881H89.3652V127.439C89.394 126.878 89.6372 126.35 90.0445 125.963C90.4518 125.577 90.9922 125.362 91.5537 125.363H93.5895V127.368C93.5899 127.938 93.3698 128.486 92.9752 128.898C92.5806 129.31 92.042 129.553 91.4723 129.577H89.3652V134.386H113.026C114.193 134.386 115.354 134.215 116.471 133.877L116.731 133.796C118.68 133.155 120.43 132.022 121.813 130.507C123.195 128.991 124.162 127.143 124.62 125.144C124.821 124.271 124.923 123.378 124.925 122.482V113.321C123.288 115.334 121.223 116.958 118.881 118.074C116.538 119.19 113.977 119.771 111.382 119.774Z" fill="#00BCB4"/>
<path d="M123.812 88.7745C123.42 88.8051 123.028 88.8254 122.631 88.8305C123.041 89.1698 123.435 89.5312 123.812 89.9146C124.188 90.298 124.56 90.7085 124.926 91.1462C127.276 94.0019 128.658 97.5309 128.87 101.223C130.097 100.548 131.134 99.5758 131.888 98.3958C132.641 97.2157 133.086 95.8654 133.182 94.4687C133.279 93.072 133.023 91.6734 132.438 90.4012C131.854 89.1289 130.96 88.0237 129.837 87.1866C128.282 87.9169 126.627 88.4125 124.926 88.6575C124.555 88.7033 124.183 88.744 123.812 88.7745Z" fill="#00BCB4"/>
<path d="M89.3652 55.22V89.6753C92.9618 90.3362 96.6751 89.8536 99.9833 88.2953C103.291 86.7371 106.028 84.1815 107.809 80.9877C108.742 82.3921 109.871 83.6553 111.163 84.7386H111.382C115.492 84.7287 119.474 86.1707 122.625 88.8101C123.022 88.8101 123.413 88.8101 123.805 88.7542C124.197 88.6982 124.548 88.6829 124.92 88.632C129.195 87.9932 133.082 85.7961 135.834 82.4635C138.587 79.1309 140.009 74.8982 139.829 70.5798C139.648 66.2613 137.877 62.1622 134.856 59.0711C131.835 55.98 127.777 54.1153 123.464 53.8357C122.888 51.2359 121.726 48.8019 120.068 46.7186C118.409 44.6353 116.297 42.9578 113.893 41.8134C111.488 40.6691 108.854 40.0882 106.192 40.1148C103.529 40.1414 100.907 40.775 98.5262 41.9672C96.5146 38.3102 93.2672 35.4886 89.3652 34.0073V55.22Z" fill="#FC6719"/>
<path d="M93.7218 114.7V104.521H89.3652V117.921H90.5256C90.9475 117.921 91.3652 117.838 91.7546 117.676C92.1441 117.514 92.4976 117.276 92.7947 116.976C93.0918 116.677 93.3267 116.321 93.4858 115.931C93.6449 115.54 93.7251 115.122 93.7218 114.7V114.7Z" fill="#FC6719"/>
<path d="M91.4683 129.602C92.0381 129.578 92.5767 129.335 92.9713 128.923C93.3659 128.512 93.586 127.963 93.5855 127.393V125.388H91.5498C90.9882 125.387 90.4479 125.602 90.0406 125.989C89.6332 126.375 89.3901 126.903 89.3613 127.464V129.617H91.4633L91.4683 129.602Z" fill="#FC6719"/>
<path d="M91.7267 152.173C91.7267 151.547 91.4779 150.946 91.0351 150.503C90.5922 150.061 89.9915 149.812 89.3652 149.812V154.535C89.9915 154.535 90.5922 154.286 91.0351 153.843C91.4779 153.4 91.7267 152.8 91.7267 152.173V152.173Z" fill="#FC6719"/>
<path d="M91.7267 160.948C91.7267 160.321 91.4779 159.721 91.0351 159.278C90.5922 158.835 89.9915 158.586 89.3652 158.586V163.309C89.9915 163.309 90.5922 163.06 91.0351 162.617C91.4779 162.175 91.7267 161.574 91.7267 160.948V160.948Z" fill="#FC6719"/>
<path d="M91.7267 169.712C91.7267 169.085 91.4779 168.485 91.0351 168.042C90.5922 167.599 89.9915 167.35 89.3652 167.35V172.073C89.9915 172.073 90.5922 171.824 91.0351 171.381C91.4779 170.939 91.7267 170.338 91.7267 169.712V169.712Z" fill="#FC6719"/>
<path d="M123.81 89.9144C123.434 89.5344 123.04 89.1731 122.63 88.8304C119.479 86.1909 115.497 84.7489 111.387 84.7588H111.168C106.823 84.8149 102.653 86.4848 99.47 89.4439C96.2869 92.4031 94.3179 96.4401 93.9457 100.77H89.3652V104.516H94.0119C94.5692 108.94 96.7933 112.985 100.23 115.826C103.668 118.667 108.059 120.089 112.509 119.804C116.959 119.518 121.132 117.546 124.178 114.289C127.224 111.032 128.913 106.736 128.9 102.277C128.9 101.925 128.9 101.579 128.864 101.259C128.651 97.5664 127.27 94.0374 124.92 91.1817C124.57 90.727 124.201 90.3046 123.81 89.9144ZM125.531 102.261C125.46 105.967 123.939 109.496 121.294 112.092C118.649 114.688 115.091 116.142 111.385 116.142C107.679 116.142 104.121 114.688 101.475 112.092C98.8301 109.496 97.3088 105.967 97.2386 102.261C97.2385 101.751 97.2657 101.242 97.32 100.735C97.6758 97.6138 99.0592 94.7 101.252 92.4516C103.446 90.2032 106.324 88.748 109.435 88.3149C112.546 87.8818 115.713 88.4955 118.437 90.0592C121.161 91.623 123.288 94.0482 124.482 96.9531C124.642 97.3467 124.782 97.7487 124.905 98.1593C125.304 99.4795 125.509 100.851 125.51 102.231C125.51 102.231 125.531 102.246 125.531 102.256V102.261Z" fill="#3D113C"/>
<path d="M111.382 88.1129C107.889 88.1148 104.52 89.4087 101.924 91.7455C99.3278 94.0823 97.6879 97.2968 97.3197 100.77C97.2654 101.277 97.2382 101.787 97.2383 102.297C97.2365 104.115 97.582 105.917 98.2562 107.605L116.675 89.1868C114.996 88.4912 113.199 88.1265 111.382 88.1129V88.1129Z" fill="#016099"/>
<path d="M124.483 96.9532L123.796 97.6403L106.064 115.372C108.212 116.241 110.54 116.57 112.845 116.329C115.149 116.088 117.359 115.284 119.28 113.989C121.201 112.694 122.774 110.947 123.861 108.901C124.949 106.855 125.517 104.573 125.516 102.256C125.516 102.256 125.516 102.256 125.516 102.226C125.514 100.846 125.31 99.4746 124.911 98.1543C124.795 97.7438 124.653 97.3434 124.483 96.9532Z" fill="#016099"/>
<path d="M124.484 96.9532C123.767 95.1979 122.708 93.6033 121.367 92.2627C120.027 90.9222 118.432 89.8626 116.677 89.146L98.2734 107.565C98.987 109.322 100.046 110.918 101.387 112.259C102.727 113.6 104.324 114.658 106.081 115.372L123.812 97.6402L124.484 96.9532Z" fill="#FFFAC2"/>
</g>
<defs>
<clipPath id="clip0_2831_5980">
<rect width="178.13" height="178.13" fill="white" transform="translate(0.300781)"/>
</clipPath>
</defs>
</svg>
