<svg fill="none" height="385" viewBox="0 0 395 385" width="395" xmlns="http://www.w3.org/2000/svg"><path d="m350.088 306.989c-24.079 34.069-50.934 56.43-87.241 66.629-36.382 10.198-93.598 12.278-129.68-4.129-36.0064-16.332-66.5445-40.73-93.9997-70.069-27.4551-29.266-36.46898-75.085-38.944438-112.332-2.550472-37.321 17.103238-76.416 43.433138-109.0805 26.3299-32.6649 59.411-58.9742 97.068-70.72468 37.582-11.6766 79.815-8.86831 116.497 5.24708 36.607 14.1893 67.813 39.6118 92.867 70.9464 25.055 31.2607 44.034 68.2857 44.859 105.9767.825 37.616-20.704 83.467-44.859 117.536z" fill="#00bcb4"/><path d="m203.57 372.521c-1.277 0-2.501-.508-3.404-1.411-.903-.902-1.41-2.127-1.41-3.404s.507-2.501 1.41-3.404 2.127-1.41 3.404-1.41v-8.239c-1.277 0-2.501-.507-3.404-1.41s-1.41-2.127-1.41-3.404.507-2.501 1.41-3.404 2.127-1.41 3.404-1.41v-8.239c-1.277 0-2.501-.507-3.404-1.41s-1.41-2.127-1.41-3.404.507-2.502 1.41-3.404c.903-.903 2.127-1.411 3.404-1.411v-13.156c-2.356 0-4.676-.591-6.744-1.721-2.069-1.129-3.821-2.76-5.095-4.743-1.408 1.799-3.234 3.228-5.318 4.163-2.085.935-4.366 1.348-6.646 1.204-2.281-.144-4.492-.841-6.442-2.031s-3.582-2.837-4.753-4.799c-1.564 1.887-3.594 3.333-5.89 4.195-2.295.862-4.775 1.11-7.195.719s-4.697-1.407-6.603-2.948c-1.907-1.54-3.379-3.552-4.27-5.836-2.102 2.047-4.793 3.385-7.694 3.824-2.902.439-5.868-.042-8.482-1.376-15.646 10.523-27.978 25.277-35.5581 42.541 31.7041 24.474 70.6391 37.726 110.6901 37.675z" fill="#3d113c"/><path d="m144.612 302.193c.891 2.284 2.362 4.296 4.269 5.837s4.183 2.557 6.604 2.948c2.42.391 4.9.143 7.195-.719s4.325-2.308 5.89-4.195c1.171 1.961 2.802 3.609 4.753 4.799 1.95 1.19 4.161 1.887 6.441 2.031 2.281.144 4.562-.269 6.646-1.205 2.085-.935 3.91-2.364 5.319-4.163 1.273 1.985 3.024 3.618 5.093 4.75 2.068 1.131 4.388 1.724 6.746 1.725v-18.261h-48.238c-2.264-.001-4.516-.319-6.692-.945l-.861-.259c-3.747-1.232-7.138-3.358-9.879-6.194-2.74-2.837-4.749-6.299-5.851-10.086-2.148.429-4.166 1.353-5.895 2.699-1.728 1.345-3.119 3.075-4.062 5.052s-1.413 4.146-1.371 6.336.594 4.34 1.612 6.28c1.018 1.939 2.474 3.614 4.253 4.893 1.779 1.278 3.831 2.124 5.994 2.47 2.162.347 4.376.185 6.465-.474 2.089-.658 3.996-1.795 5.569-3.319z" fill="#fdb98d"/><path d="m182.599 192.324c-1.533 2.648-3.398 5.089-5.551 7.263 4.84 2.909 8.921 6.925 11.908 11.717 2.987 4.793 4.795 10.225 5.274 15.852h9.339v-22.609c-8.204-1.498-15.624-5.823-20.97-12.223z" fill="#fffac2"/><path d="m147.777 294.536.862.26c0-.208.062-.416.093-.623z" fill="#fffac2"/><path d="m144.219 293.042c1.144.592 2.335 1.092 3.559 1.494l.954-.363c0 .207-.051.425-.093.622 2.176.626 4.429.944 6.693.944h48.237v-9.805h-4.15c-1.186 0-2.324-.471-3.162-1.31-.839-.838-1.31-1.976-1.31-3.162v-3.87c0-.093 0-.176 0-.27h4.15c1.186 0 2.324.471 3.162 1.31.839.839 1.31 1.976 1.31 3.162 0-.083 0-.155 0-.238v-19.486h-2.365c-1.729 0-3.386-.687-4.608-1.909s-1.908-2.879-1.908-4.607v-20.752h-.592c-.889 6.915-3.783 13.418-8.324 18.707-4.542 5.289-10.533 9.133-17.233 11.057-6.701 1.924-13.818 1.845-20.474-.229-6.656-2.073-12.56-6.05-16.982-11.439v18.676c.017 4.438 1.25 8.785 3.566 12.571 2.316 3.785 5.626 6.862 9.57 8.897z" fill="#fffac2"/><path d="m131.083 203.53c-2.444-1.734-4.661-3.766-6.6-6.05-2.927 1.269-5.441 3.332-7.254 5.957-1.814 2.625-2.855 5.706-3.005 8.893s.596 6.352 2.155 9.136 3.867 5.075 6.662 6.613c.434-7.528 3.25-14.722 8.042-20.544z" fill="#fffac2"/><path d="m131.083 207.525c.692-.872 1.449-1.709 2.272-2.511-.778-.467-1.525-.965-2.272-1.494z" fill="#fffac2"/><path d="m131.083 203.53c.737.519 1.495 1.038 2.273 1.494 5.626-5.663 12.988-9.278 20.91-10.267 7.922-.99 15.947.704 22.793 4.81 2.153-2.175 4.019-4.615 5.551-7.263 5.341 6.405 12.757 10.737 20.96 12.243v-113.501c-4.605-1.7315-9.517-2.4934-14.429-2.2381-4.913.2554-9.72 1.5225-14.119 3.7219-4.4 2.1995-8.299 5.2839-11.451 9.0602-3.153 3.776-5.491 8.163-6.869 12.885-7.613-3.659-16.276-4.502-24.45-2.378-8.175 2.123-15.333 7.075-20.202 13.976-4.87 6.901-7.136 15.305-6.396 23.718.74 8.414 4.437 16.293 10.436 22.238 0 .778-.083 1.567-.083 2.366.004 5.707 1.374 11.331 3.997 16.4s6.422 9.436 11.079 12.735z" fill="#fdb98d"/><path d="m194.687 234.75v20.752c0 1.728.686 3.386 1.908 4.608s2.879 1.908 4.608 1.908h2.365v-27.268z" fill="#fdb98d"/><path d="m203.571 281.557v.238c0-1.186-.472-2.323-1.31-3.162-.839-.839-1.976-1.31-3.162-1.31h-4.151v.27 3.87c0 1.186.471 2.324 1.31 3.162.839.839 1.976 1.31 3.162 1.31h4.151v-4.389z" fill="#fc6719"/><path d="m198.756 331.951c0 1.276.507 2.501 1.41 3.404s2.127 1.41 3.404 1.41v-9.629c-1.277 0-2.501.507-3.404 1.41s-1.41 2.128-1.41 3.405z" fill="#fdb98d"/><path d="m198.756 349.839c0 1.277.507 2.501 1.41 3.404s2.127 1.41 3.404 1.41v-9.629c-1.277 0-2.501.508-3.404 1.41-.903.903-1.41 2.128-1.41 3.405z" fill="#fdb98d"/><path d="m198.756 367.706c0 1.277.507 2.502 1.41 3.405s2.127 1.41 3.404 1.41v-9.629c-1.277 0-2.501.507-3.404 1.41s-1.41 2.128-1.41 3.404z" fill="#fdb98d"/><path d="m158.682 265.899c8.676-.001 17.056-3.161 23.573-8.89 6.517-5.728 10.725-13.633 11.84-22.238h9.473v-7.615h-9.338c-.585-6.786-3.099-13.263-7.245-18.667-4.146-5.403-9.751-9.508-16.154-11.831-6.402-2.322-13.336-2.764-19.982-1.275-6.646 1.49-12.727 4.849-17.526 9.682-.796.803-1.553 1.64-2.272 2.511-4.792 5.822-7.608 13.017-8.042 20.544 0 .706-.072 1.412-.072 2.076 0 4.69.923 9.334 2.718 13.667s4.426 8.27 7.742 11.586 7.253 5.947 11.586 7.742c4.333 1.794 8.977 2.718 13.668 2.718zm-27.6-27.33c-.825-2.711-1.245-5.529-1.245-8.363 0 0 0 0 0-.062.012-4.717 1.181-9.358 3.403-13.518 2.223-4.16 5.432-7.711 9.346-10.343 3.914-2.631 8.413-4.263 13.104-4.752 4.691-.49 9.431.179 13.803 1.947.613.249 1.204.519 1.795.809 4.215 2.041 7.87 5.078 10.648 8.848s4.596 8.16 5.297 12.79c.701 4.631.263 9.362-1.275 13.785s-4.131 8.405-7.553 11.602-7.572 5.511-12.09 6.745c-4.518 1.233-9.268 1.347-13.84.332s-8.828-3.127-12.4-6.156-6.352-6.881-8.101-11.226c-.346-.802-.643-1.615-.892-2.438z" fill="#3d113c"/><path d="m169.495 203.458c-4.373-1.774-9.113-2.446-13.807-1.959-4.693.486-9.194 2.118-13.11 4.75-3.915 2.633-7.124 6.187-9.346 10.349-2.221 4.163-3.387 8.807-3.394 13.525v.063c.001 2.833.42 5.652 1.245 8.363.256.837.543 1.656.861 2.459l33.732-33.732z" fill="#016099"/><path d="m158.681 259.03c4.721-.005 9.369-1.168 13.536-3.387 4.166-2.219 7.725-5.427 10.363-9.341 2.639-3.915 4.276-8.417 4.77-13.112.493-4.695-.173-9.439-1.94-13.816l-37.551 37.55c3.438 1.393 7.113 2.109 10.822 2.106z" fill="#016099"/><path d="m147.861 256.924 37.551-37.55c-2.685-6.604-7.714-11.984-14.122-15.107-1.777 1.168-3.656 2.175-5.613 3.009l-33.701 33.731c1.451 3.579 3.604 6.832 6.332 9.565 2.729 2.734 5.977 4.894 9.553 6.352z" fill="#fffac2"/><path d="m171.29 204.257c-.591-.291-1.183-.561-1.795-.81l-3.818 3.819c1.957-.834 3.836-1.841 5.613-3.009z" fill="#fffac2"/><path d="m277.414 303.802c-2.396.936-5.004 1.193-7.537.745s-4.894-1.586-6.823-3.287c-.646 2.532-1.983 4.835-3.863 6.65-1.88 1.816-4.228 3.072-6.782 3.629-2.553.556-5.211.392-7.676-.476s-4.64-2.405-6.281-4.439c-1.201 1.941-2.856 3.561-4.823 4.719-1.967 1.159-4.187 1.82-6.467 1.929-2.28.108-4.552-.341-6.62-1.307-2.068-.967-3.869-2.422-5.249-4.241-1.292 1.922-3.037 3.495-5.082 4.581-2.046 1.086-4.327 1.651-6.643 1.644v13.167c1.277 0 2.502.508 3.405 1.41.903.903 1.41 2.128 1.41 3.405s-.507 2.501-1.41 3.404-2.128 1.41-3.405 1.41v8.238c1.277 0 2.502.508 3.405 1.411.903.902 1.41 2.127 1.41 3.404s-.507 2.501-1.41 3.404-2.128 1.41-3.405 1.41v8.239c1.277 0 2.502.507 3.405 1.41s1.41 2.127 1.41 3.404-.507 2.501-1.41 3.404-2.128 1.41-3.405 1.41v12.389c40.048.06 78.983-13.181 110.691-37.643-7.787-17.756-20.594-32.849-36.845-43.423z" fill="#270e11"/><path d="m262.711 293.146c-1.08.547-2.201 1.012-3.351 1.39l-.529.166c-2.278.689-4.645 1.038-7.025 1.038h-48.238v18.261c2.316.007 4.597-.558 6.643-1.644 2.045-1.086 3.79-2.66 5.082-4.581 1.38 1.818 3.181 3.274 5.249 4.241 2.068.966 4.34 1.415 6.62 1.306 2.28-.108 4.5-.77 6.467-1.928s3.622-2.778 4.823-4.719c1.641 2.034 3.816 3.57 6.281 4.438s5.123 1.033 7.676.476c2.554-.556 4.902-1.813 6.782-3.628s3.217-4.118 3.863-6.651c1.614 1.411 3.53 2.435 5.6 2.993 2.07.559 4.241.638 6.346.23 2.105-.407 4.09-1.289 5.802-2.579 1.713-1.29 3.109-2.954 4.081-4.866.972-1.911 1.496-4.018 1.53-6.162s-.421-4.268-1.331-6.209c-.911-1.942-2.252-3.65-3.923-4.994-1.67-1.345-3.625-2.29-5.717-2.765-.806 3.466-2.365 6.713-4.565 9.51s-4.988 5.076-8.166 6.677z" fill="#fc6719"/><path d="m248.008 194.482c-2.633-2.209-4.936-4.784-6.837-7.647-3.631 6.511-9.211 11.721-15.955 14.898-6.745 3.177-14.315 4.161-21.648 2.813v22.609h9.339c.751-8.831 4.761-17.068 11.249-23.107 6.487-6.039 14.99-9.449 23.852-9.566z" fill="#00bcb4"/><path d="m248.455 265.899c-8.677-.001-17.057-3.161-23.574-8.89-6.517-5.728-10.725-13.633-11.839-22.238h-.592v20.752c0 1.728-.686 3.386-1.908 4.608s-2.88 1.908-4.608 1.908h-2.366v19.486c.059-1.143.555-2.22 1.385-3.008.831-.788 1.932-1.227 3.077-1.225h4.15v4.088c.001 1.162-.447 2.28-1.252 3.12-.804.839-1.902 1.335-3.064 1.383h-4.296v9.805h48.238c2.38.001 4.747-.349 7.025-1.038l.529-.166c3.973-1.305 7.542-3.615 10.36-6.705 2.817-3.091 4.789-6.857 5.722-10.934.411-1.779.62-3.6.623-5.426v-18.677c-3.337 4.105-7.547 7.415-12.322 9.691-4.776 2.275-9.998 3.459-15.288 3.466z" fill="#00bcb4"/><path d="m273.794 202.7c-.799.062-1.598.103-2.407.114.837.692 1.639 1.428 2.407 2.21.768.781 1.525 1.618 2.272 2.511 4.792 5.822 7.608 13.016 8.042 20.544 2.5-1.377 4.615-3.359 6.151-5.765 1.536-2.405 2.443-5.158 2.639-8.006.197-2.847-.325-5.698-1.516-8.292-1.192-2.594-3.015-4.847-5.303-6.554-3.171 1.489-6.545 2.5-10.013 2.999-.757.093-1.515.176-2.272.239z" fill="#00bcb4"/><g fill="#fc6719"><path d="m203.568 134.292v70.245c7.333 1.347 14.903.363 21.648-2.814 6.744-3.177 12.324-8.387 15.955-14.898 1.901 2.863 4.204 5.438 6.837 7.647h.447c8.379-.02 16.497 2.92 22.92 8.301.809 0 1.608 0 2.407-.115.799-.114 1.515-.145 2.273-.249 8.715-1.302 16.64-5.781 22.251-12.575 5.612-6.795 8.512-15.424 8.144-24.228s-3.979-17.161-10.138-23.462c-6.16-6.302-14.432-10.104-23.225-10.674-1.175-5.3-3.543-10.262-6.925-14.51-3.381-4.247-7.687-7.667-12.589-10s-10.272-3.517-15.7-3.463c-5.429.055-10.774 1.346-15.628 3.777-4.101-7.4558-10.722-13.2082-18.677-16.2281z"/><path d="m212.45 255.554v-20.752h-8.882v27.32h2.366c.86 0 1.712-.17 2.506-.501s1.514-.815 2.12-1.426 1.085-1.335 1.409-2.132c.325-.796.488-1.649.481-2.509z"/><path d="m207.854 285.935c1.162-.048 2.26-.544 3.064-1.383.805-.84 1.254-1.958 1.253-3.12v-4.088h-4.151c-1.145-.002-2.246.437-3.077 1.225-.83.788-1.326 1.865-1.384 3.008v4.389h4.285z"/><path d="m208.383 331.951c0-1.277-.507-2.502-1.41-3.405s-2.128-1.41-3.405-1.41v9.629c1.277 0 2.502-.507 3.405-1.41s1.41-2.128 1.41-3.404z"/><path d="m208.383 349.839c0-1.277-.507-2.502-1.41-3.405-.903-.902-2.128-1.41-3.405-1.41v9.629c1.277 0 2.502-.507 3.405-1.41s1.41-2.127 1.41-3.404z"/><path d="m208.383 367.706c0-1.276-.507-2.501-1.41-3.404s-2.128-1.41-3.405-1.41v9.629c1.277 0 2.502-.507 3.405-1.41s1.41-2.128 1.41-3.405z"/></g><path d="m273.793 205.024c-.768-.775-1.571-1.511-2.408-2.21-6.423-5.381-14.54-8.321-22.92-8.301h-.446c-8.86.115-17.361 3.519-23.85 9.552s-10.503 14.263-11.262 23.091h-9.339v7.636h9.474c1.136 9.02 5.67 17.266 12.678 23.058 7.007 5.791 15.96 8.692 25.032 8.109 9.073-.582 17.581-4.603 23.791-11.243 6.209-6.64 9.652-15.398 9.626-24.489 0-.716 0-1.422-.073-2.075-.434-7.528-3.25-14.723-8.041-20.544-.713-.927-1.467-1.789-2.262-2.584zm3.507 25.172c-.144 7.554-3.245 14.75-8.638 20.041-5.393 5.292-12.647 8.256-20.202 8.256-7.556 0-14.809-2.964-20.202-8.256-5.393-5.291-8.495-12.487-8.638-20.041 0-1.04.055-2.079.166-3.113.725-6.362 3.546-12.303 8.017-16.886 4.472-4.584 10.34-7.551 16.683-8.434 6.342-.883 12.798.368 18.352 3.556 5.553 3.188 9.889 8.133 12.324 14.055.325.802.612 1.622.862 2.459.815 2.691 1.231 5.488 1.234 8.3 0 0 .042.032.042.052z" fill="#3d113c"/><path d="m248.455 201.351c-7.121.004-13.989 2.642-19.282 7.406s-8.636 11.317-9.387 18.399c-.111 1.034-.166 2.073-.166 3.112-.004 3.707.701 7.38 2.075 10.822l37.551-37.55c-3.423-1.418-7.087-2.161-10.791-2.189z" fill="#016099"/><path d="m275.163 219.374-1.401 1.4-36.15 36.15c4.378 1.772 9.125 2.442 13.823 1.951 4.698-.492 9.203-2.13 13.119-4.77 3.917-2.641 7.125-6.203 9.342-10.374s3.375-8.822 3.373-13.546c0 0 0 0 0-.062-.003-2.812-.419-5.609-1.235-8.301-.235-.837-.525-1.653-.871-2.448z" fill="#016099"/><path d="m275.163 219.374c-1.461-3.579-3.621-6.83-6.355-9.563-2.733-2.733-5.984-4.893-9.562-6.354l-37.519 37.55c1.454 3.582 3.612 6.836 6.346 9.57s5.988 4.892 9.57 6.347l36.15-36.15z" fill="#fffac2"/></svg>