<svg fill="none" height="179" viewBox="0 0 179 179" width="179" xmlns="http://www.w3.org/2000/svg" xmlns:xlink="http://www.w3.org/1999/xlink"><clipPath id="a"><path d="m.300781 0h178.13v178.13h-178.13z"/></clipPath><g clip-path="url(#a)"><path d="m178.43 89.0638c.001-15.1363-3.857-30.023-11.207-43.2546-7.351-13.2316-17.952-24.3716-30.804-32.3682-12.851-7.99662-27.529-12.58603-42.6466-13.33495-15.1178-.74892-30.177 2.36736-43.756 9.05464-13.5789 6.68731-25.2296 16.72491-33.852 29.16521-8.6224 12.4404-13.93207 26.8729-15.427718 41.9351-1.495651 15.0623.872068 30.257 6.879618 44.15 6.0075 13.893 15.4567 26.026 27.4554 35.253 3.718-8.468 9.7669-15.705 17.4414-20.866-1.2819-.65-2.3294-1.683-2.9967-2.956-.6672-1.273-.9211-2.722-.7263-4.146.1949-1.424.8288-2.752 1.8135-3.799s2.2713-1.76 3.6806-2.042c-.3136-1.078-.473-2.195-.4733-3.318v-9.161c-2.578-3.13-3.9853-7.06-3.9799-11.115 0-.351 0-.698.0356-1.018-1.3711-.755-2.5033-1.8783-3.2678-3.2438s-1.1307-2.918-1.057-4.4813c.0737-1.5632.5843-3.0744 1.4738-4.362.8896-1.2875 2.1224-2.2998 3.5585-2.9218-2.687-3.1606-4.1594-7.1755-4.153-11.3239 0-.3919 0-.7736.0407-1.1604-2.9558-2.913-4.7815-6.7807-5.1518-10.9141-.3703-4.1335.7389-8.2641 3.1299-11.656 2.3911-3.392 5.9087-5.8249 9.9261-6.8653 4.0174-1.0405 8.2738-.6209 12.0107 1.184.9731-3.3193 2.9071-6.2763 5.5582-8.4982 2.6511-2.2218 5.9007-3.6091 9.3391-3.9868 3.4384-.3778 6.9116.2709 9.9819 1.8642 3.0702 1.5933 5.6001 4.0598 7.2706 7.0888 2.3815-1.1922 5.0025-1.8258 7.6655-1.8524s5.297.5543 7.701 1.6986c2.404 1.1444 4.516 2.8219 6.175 4.9052s2.82 4.5173 3.397 7.1171c3.884.2387 7.579 1.7643 10.5 4.336 2.921 2.5716 4.903 6.0429 5.633 9.8659.729 3.823.164 7.7801-1.605 11.2466-1.769 3.4666-4.643 6.2452-8.167 7.8973 1.123.8371 2.017 1.9423 2.601 3.2146.585 1.2722.841 2.6708.744 4.0675-.096 1.3967-.541 2.747-1.294 3.9271-.754 1.18-1.791 2.1521-3.018 2.8271 0 .346.036.693.036 1.018.006 4.055-1.401 7.986-3.98 11.116v9.16c-.001.896-.104 1.789-.305 2.662 1.445.326 2.747 1.107 3.714 2.229.967 1.123 1.548 2.526 1.656 4.004.109 1.477-.261 2.95-1.054 4.201-.793 1.252-1.967 2.215-3.349 2.748 7.973 5.186 14.257 12.589 18.077 21.299 10.825-8.309 19.592-18.997 25.623-31.238 6.03-12.241 9.162-25.706 9.153-39.3522z" fill="#016099"/><path d="m89.3661 172.073c-.6263 0-1.2269-.249-1.6698-.692-.4428-.443-.6916-1.043-.6916-1.669 0-.627.2488-1.227.6916-1.67.4429-.443 1.0435-.692 1.6698-.692v-4.041c-.6263 0-1.2269-.249-1.6698-.692-.4428-.443-.6916-1.043-.6916-1.669 0-.627.2488-1.227.6916-1.67.4429-.443 1.0435-.692 1.6698-.692v-4.041c-.6263 0-1.2269-.249-1.6698-.692-.4428-.442-.6916-1.043-.6916-1.669 0-.627.2488-1.227.6916-1.67.4429-.443 1.0435-.692 1.6698-.692v-6.453c-1.156 0-2.2936-.29-3.3082-.844s-1.8739-1.354-2.4988-2.327c-.6909.882-1.5863 1.583-2.6089 2.042-1.0225.459-2.1414.661-3.2598.591-1.1185-.071-2.203-.413-3.1597-.997-.9566-.583-1.7568-1.391-2.3311-2.354-.7675.926-1.7633 1.636-2.889 2.058-1.1258.423-2.3424.545-3.5295.353s-2.3036-.69-3.2389-1.446c-.9354-.756-1.6572-1.743-2.0941-2.863-1.0311 1.004-2.351 1.66-3.7742 1.876-1.4231.215-2.8781-.021-4.1602-.675-7.6745 5.161-13.7235 12.398-17.4414 20.867 15.551 12.004 34.6484 18.504 54.2938 18.479z" fill="#3d113c"/><path d="m60.4472 137.577c.4369 1.12 1.1587 2.107 2.0941 2.863.9353.755 2.0518 1.254 3.2389 1.446 1.1871.191 2.4037.07 3.5295-.353 1.1257-.423 2.1215-1.132 2.889-2.058.5744.963 1.3745 1.77 2.3311 2.354.9567.584 2.0412.926 3.1597.997 1.1184.07 2.2373-.133 3.2598-.591 1.0226-.459 1.918-1.16 2.6089-2.042.6243.973 1.4833 1.774 2.498 2.329s2.1525.846 3.3091.847v-8.958h-23.6607c-1.1105 0-2.2155-.156-3.2827-.463l-.4224-.127c-1.838-.604-3.5011-1.647-4.8454-3.039-1.3443-1.391-2.3295-3.089-2.8702-4.946-1.0535.21-2.0435.663-2.8913 1.323s-1.53 1.509-1.9926 2.478c-.4626.97-.6927 2.034-.6722 3.108.0206 1.074.2913 2.129.7906 3.08.4994.952 1.2136 1.773 2.086 2.4.8725.627 1.8791 1.042 2.9399 1.212s2.1467.091 3.1713-.232c1.0247-.323 1.96-.881 2.7316-1.628z" fill="#fdb98d"/><path d="m79.0803 83.6851c-.7519 1.2989-1.6669 2.4961-2.7229 3.5625 2.3741 1.4269 4.376 3.3966 5.8411 5.7473s2.3517 5.0154 2.587 7.7751h4.5805v-11.0896c-4.024-.7347-7.6634-2.8561-10.2857-5.9953z" fill="#fffac2"/><path d="m62 133.821.4224.127c0-.102.0306-.203.0458-.305z" fill="#fffac2"/><path d="m60.2537 133.088c.5614.29 1.1452.536 1.7457.733l.4682-.178c0 .101-.0254.208-.0458.305 1.0673.307 2.1722.463 3.2827.463h23.6607v-4.809h-2.0358c-.5817 0-1.1397-.231-1.551-.643-.4114-.411-.6425-.969-.6425-1.551v-1.898c0-.046 0-.087 0-.133h2.0358c.5817 0 1.1397.232 1.551.643.4114.411.6425.969.6425 1.551 0-.041 0-.076 0-.117v-9.558h-1.1604c-.8477 0-1.6606-.337-2.26-.936-.5994-.6-.9361-1.413-.9361-2.26v-10.179h-.2901c-.4361 3.392-1.8555 6.581-4.0831 9.176-2.2277 2.594-5.1662 4.48-8.4529 5.423-3.2867.944-6.7778.905-10.0425-.112-3.2648-1.017-6.1604-2.968-8.3296-5.611v9.161c.0082 2.176.6132 4.309 1.7493 6.166 1.136 1.856 2.7596 3.366 4.6939 4.364z" fill="#fffac2"/><path d="m53.8116 89.1817c-1.1985-.8501-2.2859-1.8469-3.2369-2.9671-1.436.622-2.6688 1.6343-3.5584 2.9218-.8895 1.2876-1.4001 2.7988-1.4738 4.362s.2925 3.1158 1.057 4.4813 1.8966 2.4893 3.2678 3.2433c.2128-3.692 1.5941-7.2211 3.9443-10.0768z" fill="#fffac2"/><path d="m53.8105 91.1412c.3393-.4276.7109-.8381 1.1146-1.2317-.3817-.229-.7481-.4733-1.1146-.7329z" fill="#fffac2"/><path d="m53.8121 89.1816c.3613.2545.7328.509 1.1145.7329 2.7599-2.7779 6.3709-4.5511 10.2566-5.0363 3.8856-.4853 7.8218.3454 11.18 2.3593 1.056-1.0665 1.9711-2.2637 2.7229-3.5626 2.6195 3.142 6.2571 5.267 10.2806 6.0055v-55.6731c-2.2584-.8493-4.6679-1.2231-7.0774-1.0978-2.4096.1252-4.7673.7468-6.9255 1.8256-2.1582 1.0789-4.0703 2.5918-5.6166 4.444-1.5463 1.8523-2.6934 4.0039-3.3694 6.3201-3.7339-1.7947-7.983-2.2079-11.9928-1.1663-4.0097 1.0416-7.5206 3.4705-9.909 6.8555-2.3885 3.385-3.5 7.5069-3.1372 11.6338.3629 4.1269 2.1766 7.9917 5.119 10.9079 0 .3818-.0407.7685-.0407 1.1604.0018 2.7995.6741 5.5579 1.9607 8.0443 1.2865 2.4864 3.15 4.6284 5.4343 6.2468z" fill="#fdb98d"/><path d="m85.0098 104.496v10.179c0 .847.3367 1.66.9361 2.26.5994.599 1.4123.936 2.26.936h1.1604v-13.375z" fill="#fdb98d"/><path d="m89.366 127.454v.117c0-.582-.2311-1.139-.6425-1.551-.4113-.411-.9693-.642-1.551-.642h-2.0358v.132 1.898c0 .582.2311 1.14.6425 1.551.4114.412.9693.643 1.5511.643h2.0357v-2.153z" fill="#fc6719"/><path d="m87.0039 152.173c0 .627.2488 1.227.6917 1.67.4428.443 1.0435.692 1.6698.692v-4.723c-.6263 0-1.227.249-1.6698.691-.4429.443-.6917 1.044-.6917 1.67z" fill="#fdb98d"/><path d="m87.0039 160.948c0 .626.2488 1.227.6917 1.669.4428.443 1.0435.692 1.6698.692v-4.723c-.6263 0-1.227.249-1.6698.692-.4429.443-.6917 1.043-.6917 1.67z" fill="#fdb98d"/><path d="m87.0039 169.712c0 .626.2488 1.227.6917 1.669.4428.443 1.0435.692 1.6698.692v-4.723c-.6263 0-1.227.249-1.6698.692-.4429.443-.6917 1.043-.6917 1.67z" fill="#fdb98d"/><path d="m67.3494 119.774c4.256 0 8.3661-1.55 11.5627-4.36s5.261-6.687 5.8075-10.908h4.6466v-3.736h-4.5804c-.287-3.328-1.52-6.5049-3.5535-9.1554-2.0336-2.6506-4.7828-4.6642-7.9234-5.8032-3.1406-1.1391-6.5414-1.3561-9.8013-.6254-3.2599.7306-6.2428 2.3785-8.5967 4.749-.3902.3936-.7617.8042-1.1146 1.2317-2.3502 2.8557-3.7315 6.3847-3.9443 10.0773 0 .346-.0356.692-.0356 1.018 0 2.3.4531 4.578 1.3335 6.703.8803 2.126 2.1707 4.057 3.7973 5.684 1.6267 1.626 3.5579 2.917 5.6832 3.797 2.1254.88 4.4033 1.333 6.7038 1.333zm-13.5378-13.405c-.4046-1.33-.6104-2.712-.6107-4.102 0 0 0 0 0-.031.0061-2.3133.5793-4.5899 1.6696-6.6303 1.0902-2.0404 2.6642-3.7824 4.5839-5.0733 1.9198-1.2909 4.1268-2.0913 6.4278-2.3312s4.6256.088 6.7704.9552c.3003.1221.5904.2544.8805.3969 2.0675 1.0011 3.86 2.4906 5.2227 4.3398 1.3626 1.8493 2.2544 4.0026 2.5981 6.2739.3437 2.271.129 4.592-.6254 6.762-.7545 2.169-2.026 4.122-3.7047 5.69s-3.7141 2.704-5.9301 3.309c-2.216.604-4.546.66-6.7885.163-2.2425-.498-4.3301-1.534-6.0821-3.02-1.7521-1.485-3.116-3.375-3.9738-5.506-.1697-.394-.3156-.792-.4377-1.196z" fill="#3d113c"/><path d="m72.6529 89.146c-2.1446-.8697-4.47-1.1997-6.772-.9609-2.302.2387-4.5101 1.0389-6.4306 2.3303s-3.4947 3.0345-4.5842 5.0763c-1.0896 2.0418-1.6613 4.3198-1.6649 6.6343v.03c.0003 1.39.2061 2.773.6107 4.102.1255.411.2663.813.4224 1.207l16.5457-16.5461z" fill="#016099"/><path d="m67.3493 116.405c2.3155-.002 4.5952-.573 6.6389-1.661 2.0438-1.089 3.7893-2.662 5.0835-4.582s2.0974-4.129 2.3394-6.432c.242-2.302-.0847-4.6295-.9515-6.7768l-18.4186 18.4188c1.6862.684 3.4888 1.034 5.3083 1.033z" fill="#016099"/><path d="m62.0399 115.372 18.4186-18.4187c-1.3169-3.2392-3.7836-5.878-6.9267-7.4102-.8718.5732-1.7933 1.0672-2.7533 1.4759l-16.5305 16.546c.7119 1.755 1.7681 3.351 3.1063 4.691 1.3383 1.341 2.9315 2.401 4.6856 3.116z" fill="#fffac2"/><path d="m73.5327 89.5378c-.2901-.1425-.5802-.2748-.8805-.3969l-1.8729 1.8729c.96-.4088 1.8815-.9027 2.7534-1.476z" fill="#fffac2"/><path d="m125.587 138.366c-1.176.459-2.455.585-3.697.365-1.243-.22-2.401-.778-3.347-1.612-.317 1.242-.973 2.371-1.895 3.262-.922.89-2.074 1.507-3.326 1.78-1.253.273-2.556.192-3.765-.234s-2.276-1.179-3.081-2.177c-.589.952-1.401 1.747-2.366 2.315s-2.053.893-3.172.946c-1.1183.053-2.2328-.167-3.2472-.641-1.0143-.474-1.8979-1.188-2.5745-2.081-.6336.943-1.4899 1.715-2.4931 2.248-1.0031.532-2.1222.809-3.258.806v6.459c.6263 0 1.227.248 1.6699.691.4428.443.6916 1.044.6916 1.67s-.2488 1.227-.6916 1.67c-.4429.443-1.0436.692-1.6699.692v4.041c.6263 0 1.227.248 1.6699.691.4428.443.6916 1.044.6916 1.67s-.2488 1.227-.6916 1.67c-.4429.443-1.0436.692-1.6699.692v4.041c.6263 0 1.227.248 1.6699.691.4428.443.6916 1.044.6916 1.67s-.2488 1.227-.6916 1.67c-.4429.443-1.0436.692-1.6699.692v6.076c19.6438.03 38.7408-6.465 54.2938-18.464-3.819-8.71-10.101-16.113-18.072-21.299z" fill="#270e11"/><path d="m118.375 133.139c-.53.268-1.08.496-1.644.682l-.26.081c-1.117.338-2.278.51-3.445.509h-23.6608v8.958c1.1358.003 2.2549-.274 3.258-.807 1.0032-.532 1.8595-1.304 2.4931-2.247.6766.892 1.5602 1.606 2.5745 2.08 1.0144.474 2.1289.694 3.2472.641 1.119-.053 2.207-.377 3.172-.945.965-.569 1.777-1.363 2.366-2.315.805.997 1.872 1.751 3.081 2.177s2.512.506 3.765.233c1.252-.273 2.404-.889 3.326-1.779.922-.891 1.578-2.02 1.895-3.263.792.692 1.731 1.195 2.747 1.469 1.015.273 2.08.312 3.113.112 1.032-.199 2.006-.632 2.846-1.265s1.524-1.449 2.001-2.386c.477-.938.734-1.972.751-3.023.017-1.052-.207-2.094-.653-3.046-.447-.952-1.105-1.79-1.924-2.449-.82-.66-1.779-1.124-2.804-1.356-.396 1.7-1.161 3.292-2.24 4.664s-2.446 2.49-4.005 3.275z" fill="#fc6719"/><path d="m111.163 84.7437c-1.292-1.0833-2.421-2.3465-3.354-3.7509-1.781 3.1938-4.518 5.7494-7.8257 7.3076-3.3082 1.5583-7.0215 2.0409-10.6181 1.38v11.0896h4.5805c.3686-4.3317 2.3353-8.3717 5.5176-11.3339 3.1827-2.9622 7.3527-4.6348 11.6997-4.6924z" fill="#00bcb4"/><path d="m111.382 119.774c-4.256 0-8.366-1.55-11.5626-4.36s-5.261-6.687-5.8075-10.908h-.2901v10.179c0 .848-.3368 1.661-.9362 2.26s-1.4123.936-2.26.936h-1.1604v9.558c.0288-.561.272-1.089.6793-1.476.4073-.386.9477-.601 1.5092-.6h2.0358v2.005c.0004.57-.2197 1.118-.6143 1.53s-.9332.655-1.5029.679h-2.1071v4.809h23.6608c1.167 0 2.328-.171 3.445-.509l.26-.081c1.949-.641 3.699-1.774 5.082-3.289 1.382-1.516 2.349-3.364 2.807-5.363.201-.873.303-1.766.305-2.662v-9.161c-1.637 2.013-3.702 3.637-6.044 4.753-2.343 1.116-4.904 1.697-7.499 1.7z" fill="#00bcb4"/><path d="m123.812 88.7745c-.392.0306-.784.0509-1.181.056.41.3393.804.7007 1.181 1.0841.376.3834.748.7939 1.114 1.2316 2.35 2.8557 3.732 6.3847 3.944 10.0768 1.227-.675 2.264-1.6472 3.018-2.8272.753-1.1801 1.198-2.5304 1.294-3.9271.097-1.3967-.159-2.7953-.744-4.0675-.584-1.2723-1.478-2.3775-2.601-3.2146-1.555.7303-3.21 1.2259-4.911 1.4709-.371.0458-.743.0865-1.114.117z" fill="#00bcb4"/><g fill="#fc6719"><path d="m89.3652 55.22v34.4553c3.5966.6609 7.3099.1783 10.6181-1.38 3.3077-1.5582 6.0447-4.1138 7.8257-7.3076.933 1.4044 2.062 2.6676 3.354 3.7509h.219c4.11-.0099 8.092 1.4321 11.243 4.0715.397 0 .788 0 1.18-.0559.392-.056.743-.0713 1.115-.1222 4.275-.6388 8.162-2.8359 10.914-6.1685 2.753-3.3326 4.175-7.5653 3.995-11.8837-.181-4.3185-1.952-8.4176-4.973-11.5087s-7.079-4.9558-11.392-5.2354c-.576-2.5998-1.738-5.0338-3.396-7.1171-1.659-2.0833-3.771-3.7608-6.175-4.9052-2.405-1.1443-5.039-1.7252-7.701-1.6986-2.663.0266-5.285.6602-7.6658 1.8524-2.0116-3.657-5.259-6.4786-9.161-7.9599z"/><path d="m93.7218 114.7v-10.179h-4.3566v13.4h1.1604c.4219 0 .8396-.083 1.229-.245.3895-.162.743-.4 1.0401-.7.2971-.299.532-.655.6911-1.045.1591-.391.2393-.809.236-1.231z"/><path d="m91.4683 129.602c.5698-.024 1.1084-.267 1.503-.679.3946-.411.6147-.96.6142-1.53v-2.005h-2.0357c-.5616-.001-1.1019.214-1.5092.601-.4074.386-.6505.914-.6793 1.475v2.153h2.102z"/><path d="m91.7267 152.173c0-.626-.2488-1.227-.6916-1.67-.4429-.442-1.0436-.691-1.6699-.691v4.723c.6263 0 1.227-.249 1.6699-.692.4428-.443.6916-1.043.6916-1.67z"/><path d="m91.7267 160.948c0-.627-.2488-1.227-.6916-1.67-.4429-.443-1.0436-.692-1.6699-.692v4.723c.6263 0 1.227-.249 1.6699-.692.4428-.442.6916-1.043.6916-1.669z"/><path d="m91.7267 169.712c0-.627-.2488-1.227-.6916-1.67-.4429-.443-1.0436-.692-1.6699-.692v4.723c.6263 0 1.227-.249 1.6699-.692.4428-.442.6916-1.043.6916-1.669z"/></g><path d="m123.81 89.9144c-.376-.38-.77-.7413-1.18-1.084-3.151-2.6395-7.133-4.0815-11.243-4.0716h-.219c-4.345.0561-8.515 1.726-11.698 4.6851-3.1831 2.9592-5.1521 6.9962-5.5243 11.3261h-4.5805v3.746h4.6467c.5573 4.424 2.7814 8.469 6.2181 11.31 3.438 2.841 7.829 4.263 12.279 3.978 4.45-.286 8.623-2.258 11.669-5.515s4.735-7.553 4.722-12.012c0-.352 0-.698-.036-1.018-.213-3.6926-1.594-7.2216-3.944-10.0773-.35-.4547-.719-.8771-1.11-1.2673zm1.721 12.3466c-.071 3.706-1.592 7.235-4.237 9.831s-6.203 4.05-9.909 4.05-7.264-1.454-9.91-4.05c-2.6449-2.596-4.1662-6.125-4.2364-9.831-.0001-.51.0271-1.019.0814-1.526.3558-3.1212 1.7392-6.035 3.932-8.2834 2.194-2.2484 5.072-3.7036 8.183-4.1367s6.278.1806 9.002 1.7443c2.724 1.5638 4.851 3.989 6.045 6.8939.16.3936.3.7956.423 1.2062.399 1.3202.604 2.6917.605 4.0717 0 0 .021.015.021.025z" fill="#3d113c"/><path d="m111.382 88.1129c-3.493.0019-6.862 1.2958-9.458 3.6326-2.5962 2.3368-4.2361 5.5513-4.6043 9.0245-.0543.507-.0815 1.017-.0814 1.527-.0018 1.818.3437 3.62 1.0179 5.308l18.4188-18.4182c-1.679-.6956-3.476-1.0603-5.293-1.0739z" fill="#016099"/><path d="m124.483 96.9532-.687.6871-17.732 17.7317c2.148.869 4.476 1.198 6.781.957 2.304-.241 4.514-1.045 6.435-2.34s3.494-3.042 4.581-5.088c1.088-2.046 1.656-4.328 1.655-6.645 0 0 0 0 0-.03-.002-1.38-.206-2.7514-.605-4.0717-.116-.4105-.258-.8109-.428-1.2011z" fill="#016099"/><path d="m124.484 96.9532c-.717-1.7553-1.776-3.3499-3.117-4.6905-1.34-1.3405-2.935-2.4001-4.69-3.1167l-18.4036 18.419c.7136 1.757 1.7726 3.353 3.1136 4.694 1.34 1.341 2.937 2.399 4.694 3.113l17.731-17.7318z" fill="#fffac2"/></g></svg>