<svg width="395" height="385" viewBox="0 0 395 385" fill="none" xmlns="http://www.w3.org/2000/svg">
<path d="M350.088 306.989C326.009 341.058 299.154 363.419 262.847 373.618C226.465 383.816 169.249 385.896 133.167 369.489C97.1606 353.157 66.6225 328.759 39.1673 299.42C11.7122 270.154 2.69832 224.335 0.222862 187.088C-2.32761 149.767 17.3261 110.672 43.656 78.0075C69.9859 45.3426 103.067 19.0333 140.724 7.28282C178.306 -4.39378 220.539 -1.58549 257.221 12.5299C293.828 26.7192 325.034 52.1417 350.088 83.4763C375.143 114.737 394.122 151.762 394.947 189.453C395.772 227.069 374.243 272.92 350.088 306.989Z" fill="#00BCB4"/>
<path d="M203.57 372.521C202.293 372.521 201.069 372.013 200.166 371.11C199.263 370.208 198.756 368.983 198.756 367.706C198.756 366.429 199.263 365.205 200.166 364.302C201.069 363.399 202.293 362.892 203.57 362.892V354.653C202.293 354.653 201.069 354.146 200.166 353.243C199.263 352.34 198.756 351.116 198.756 349.839C198.756 348.562 199.263 347.338 200.166 346.435C201.069 345.532 202.293 345.025 203.57 345.025V336.786C202.293 336.786 201.069 336.279 200.166 335.376C199.263 334.473 198.756 333.249 198.756 331.972C198.756 330.695 199.263 329.47 200.166 328.568C201.069 327.665 202.293 327.157 203.57 327.157V314.001C201.214 314.001 198.894 313.41 196.826 312.28C194.757 311.151 193.005 309.52 191.731 307.537C190.323 309.336 188.497 310.765 186.413 311.7C184.328 312.635 182.047 313.048 179.767 312.904C177.486 312.76 175.275 312.063 173.325 310.873C171.375 309.683 169.743 308.036 168.572 306.074C167.008 307.961 164.978 309.407 162.682 310.269C160.387 311.131 157.907 311.379 155.487 310.988C153.067 310.597 150.79 309.581 148.884 308.04C146.977 306.5 145.505 304.488 144.614 302.204C142.512 304.251 139.821 305.589 136.92 306.028C134.018 306.467 131.052 305.986 128.438 304.652C112.792 315.175 100.46 329.929 92.8799 347.193C124.584 371.667 163.519 384.919 203.57 384.868V372.521Z" fill="#3D113C"/>
<path d="M144.612 302.193C145.503 304.477 146.974 306.489 148.881 308.03C150.788 309.571 153.064 310.587 155.485 310.978C157.905 311.369 160.385 311.121 162.68 310.259C164.975 309.397 167.005 307.951 168.57 306.064C169.741 308.025 171.372 309.673 173.323 310.863C175.273 312.053 177.484 312.75 179.764 312.894C182.045 313.038 184.326 312.625 186.41 311.689C188.495 310.754 190.32 309.325 191.729 307.526C193.002 309.511 194.753 311.144 196.822 312.276C198.89 313.407 201.21 314 203.568 314.001V295.74H155.33C153.066 295.739 150.814 295.421 148.638 294.795L147.777 294.536C144.03 293.304 140.639 291.178 137.898 288.342C135.158 285.505 133.149 282.043 132.047 278.256C129.899 278.685 127.881 279.609 126.152 280.955C124.424 282.3 123.033 284.03 122.09 286.007C121.147 287.984 120.677 290.153 120.719 292.343C120.761 294.533 121.313 296.683 122.331 298.623C123.349 300.562 124.805 302.237 126.584 303.516C128.363 304.794 130.415 305.64 132.578 305.986C134.74 306.333 136.954 306.171 139.043 305.512C141.132 304.854 143.039 303.717 144.612 302.193V302.193Z" fill="#FDB98D"/>
<path d="M182.599 192.324C181.066 194.972 179.201 197.413 177.048 199.587C181.888 202.496 185.969 206.512 188.956 211.304C191.943 216.097 193.751 221.529 194.23 227.156H203.569V204.547C195.365 203.049 187.945 198.724 182.599 192.324V192.324Z" fill="#FFFAC2"/>
<path d="M147.777 294.536L148.639 294.796C148.639 294.588 148.701 294.38 148.732 294.173L147.777 294.536Z" fill="#FFFAC2"/>
<path d="M144.219 293.042C145.363 293.634 146.554 294.134 147.778 294.536L148.732 294.173C148.732 294.38 148.681 294.598 148.639 294.795C150.815 295.421 153.068 295.739 155.332 295.739H203.569V285.934H199.419C198.233 285.934 197.095 285.463 196.257 284.624C195.418 283.786 194.947 282.648 194.947 281.462V277.592C194.947 277.499 194.947 277.416 194.947 277.322H199.097C200.283 277.322 201.421 277.793 202.259 278.632C203.098 279.471 203.569 280.608 203.569 281.794C203.569 281.711 203.569 281.639 203.569 281.556V262.07H201.204C199.475 262.07 197.818 261.383 196.596 260.161C195.374 258.939 194.688 257.282 194.688 255.554V234.802H194.096C193.207 241.717 190.313 248.22 185.772 253.509C181.23 258.798 175.239 262.642 168.539 264.566C161.838 266.49 154.721 266.411 148.065 264.337C141.409 262.264 135.505 258.287 131.083 252.898V271.574C131.1 276.012 132.333 280.359 134.649 284.145C136.965 287.93 140.275 291.007 144.219 293.042V293.042Z" fill="#FFFAC2"/>
<path d="M131.083 203.53C128.639 201.796 126.422 199.764 124.483 197.48C121.556 198.749 119.042 200.812 117.229 203.437C115.415 206.062 114.374 209.143 114.224 212.33C114.074 215.517 114.82 218.682 116.379 221.466C117.938 224.25 120.246 226.541 123.041 228.079C123.475 220.551 126.291 213.357 131.083 207.535V203.53Z" fill="#FFFAC2"/>
<path d="M131.083 207.525C131.775 206.653 132.532 205.816 133.355 205.014C132.577 204.547 131.83 204.049 131.083 203.52V207.525Z" fill="#FFFAC2"/>
<path d="M131.083 203.53C131.82 204.049 132.578 204.568 133.356 205.024C138.982 199.361 146.344 195.746 154.266 194.757C162.188 193.767 170.213 195.461 177.059 199.567C179.212 197.392 181.078 194.952 182.61 192.304C187.951 198.709 195.367 203.041 203.57 204.547V91.046C198.965 89.3145 194.053 88.5526 189.141 88.8079C184.228 89.0633 179.421 90.3304 175.022 92.5298C170.622 94.7293 166.723 97.8137 163.571 101.59C160.418 105.366 158.08 109.753 156.702 114.475C149.089 110.816 140.426 109.973 132.252 112.097C124.077 114.22 116.919 119.172 112.05 126.073C107.18 132.974 104.914 141.378 105.654 149.791C106.394 158.205 110.091 166.084 116.09 172.029C116.09 172.807 116.007 173.596 116.007 174.395C116.011 180.102 117.381 185.726 120.004 190.795C122.627 195.864 126.426 200.231 131.083 203.53V203.53Z" fill="#FDB98D"/>
<path d="M194.687 234.75V255.502C194.687 257.23 195.373 258.888 196.595 260.11C197.817 261.332 199.474 262.018 201.203 262.018H203.568V234.75H194.687Z" fill="#FDB98D"/>
<path d="M203.571 281.557C203.571 281.64 203.571 281.712 203.571 281.795C203.571 280.609 203.099 279.472 202.261 278.633C201.422 277.794 200.285 277.323 199.099 277.323H194.948C194.948 277.417 194.948 277.5 194.948 277.593V281.463C194.948 282.649 195.419 283.787 196.258 284.625C197.097 285.464 198.234 285.935 199.42 285.935H203.571V281.546V281.557Z" fill="#FC6719"/>
<path d="M198.756 331.951C198.756 333.227 199.263 334.452 200.166 335.355C201.069 336.258 202.293 336.765 203.57 336.765V327.136C202.293 327.136 201.069 327.643 200.166 328.546C199.263 329.449 198.756 330.674 198.756 331.951V331.951Z" fill="#FDB98D"/>
<path d="M198.756 349.839C198.756 351.116 199.263 352.34 200.166 353.243C201.069 354.146 202.293 354.653 203.57 354.653V345.024C202.293 345.024 201.069 345.532 200.166 346.434C199.263 347.337 198.756 348.562 198.756 349.839V349.839Z" fill="#FDB98D"/>
<path d="M198.756 367.706C198.756 368.983 199.263 370.208 200.166 371.111C201.069 372.014 202.293 372.521 203.57 372.521V362.892C202.293 362.892 201.069 363.399 200.166 364.302C199.263 365.205 198.756 366.43 198.756 367.706V367.706Z" fill="#FDB98D"/>
<path d="M158.682 265.899C167.358 265.898 175.738 262.738 182.255 257.009C188.772 251.281 192.98 243.376 194.095 234.771H203.568V227.156H194.23C193.645 220.37 191.131 213.893 186.985 208.489C182.839 203.086 177.234 198.981 170.831 196.658C164.429 194.336 157.495 193.894 150.849 195.383C144.203 196.873 138.122 200.232 133.323 205.065V205.065C132.527 205.868 131.77 206.705 131.051 207.576C126.259 213.398 123.443 220.593 123.009 228.12C123.009 228.826 122.937 229.532 122.937 230.196C122.937 234.886 123.86 239.53 125.655 243.863C127.45 248.196 130.081 252.133 133.397 255.449C136.713 258.765 140.65 261.396 144.983 263.191C149.316 264.985 153.96 265.909 158.651 265.909L158.682 265.899ZM131.082 238.569C130.257 235.858 129.837 233.04 129.837 230.206C129.837 230.206 129.837 230.206 129.837 230.144C129.849 225.427 131.018 220.786 133.24 216.626C135.463 212.466 138.672 208.915 142.586 206.283C146.5 203.652 150.999 202.02 155.69 201.531C160.381 201.041 165.121 201.71 169.493 203.478C170.106 203.727 170.697 203.997 171.288 204.287C175.503 206.328 179.158 209.365 181.936 213.135C184.714 216.905 186.532 221.295 187.233 225.925C187.934 230.556 187.496 235.287 185.958 239.71C184.42 244.133 181.827 248.115 178.405 251.312C174.983 254.509 170.833 256.823 166.315 258.057C161.797 259.29 157.047 259.404 152.475 258.389C147.903 257.374 143.647 255.262 140.075 252.233C136.503 249.204 133.723 245.352 131.974 241.007C131.628 240.205 131.331 239.392 131.082 238.569Z" fill="#3D113C"/>
<path d="M169.495 203.458C165.122 201.684 160.382 201.012 155.688 201.499C150.995 201.985 146.494 203.617 142.578 206.249C138.663 208.882 135.454 212.436 133.232 216.598C131.011 220.761 129.845 225.405 129.838 230.123C129.838 230.123 129.838 230.123 129.838 230.186C129.839 233.019 130.258 235.838 131.083 238.549C131.339 239.386 131.626 240.205 131.944 241.008L165.676 207.276L169.495 203.458Z" fill="#016099"/>
<path d="M158.681 259.03C163.402 259.025 168.05 257.862 172.217 255.643C176.383 253.424 179.942 250.216 182.58 246.302C185.219 242.387 186.856 237.885 187.35 233.19C187.843 228.495 187.177 223.751 185.41 219.374L147.859 256.924C151.297 258.317 154.972 259.033 158.681 259.03V259.03Z" fill="#016099"/>
<path d="M147.861 256.924L185.412 219.374C182.727 212.77 177.698 207.39 171.29 204.267C169.513 205.435 167.634 206.442 165.677 207.276L131.976 241.007C133.427 244.586 135.58 247.839 138.308 250.572C141.037 253.306 144.285 255.466 147.861 256.924V256.924Z" fill="#FFFAC2"/>
<path d="M171.29 204.257C170.699 203.966 170.107 203.696 169.495 203.447L165.677 207.266C167.634 206.432 169.513 205.425 171.29 204.257V204.257Z" fill="#FFFAC2"/>
<path d="M277.414 303.802C275.018 304.738 272.41 304.995 269.877 304.547C267.344 304.099 264.983 302.961 263.054 301.26C262.408 303.792 261.071 306.095 259.191 307.91C257.311 309.726 254.963 310.982 252.409 311.539C249.856 312.095 247.198 311.931 244.733 311.063C242.268 310.195 240.093 308.658 238.452 306.624C237.251 308.565 235.596 310.185 233.629 311.343C231.662 312.502 229.442 313.163 227.162 313.272C224.882 313.38 222.61 312.931 220.542 311.965C218.474 310.998 216.673 309.543 215.293 307.724C214.001 309.646 212.256 311.219 210.211 312.305C208.165 313.391 205.884 313.956 203.568 313.949V327.116C204.845 327.116 206.07 327.624 206.973 328.526C207.876 329.429 208.383 330.654 208.383 331.931C208.383 333.208 207.876 334.432 206.973 335.335C206.07 336.238 204.845 336.745 203.568 336.745V344.983C204.845 344.983 206.07 345.491 206.973 346.394C207.876 347.296 208.383 348.521 208.383 349.798C208.383 351.075 207.876 352.299 206.973 353.202C206.07 354.105 204.845 354.612 203.568 354.612V362.851C204.845 362.851 206.07 363.358 206.973 364.261C207.876 365.164 208.383 366.388 208.383 367.665C208.383 368.942 207.876 370.166 206.973 371.069C206.07 371.972 204.845 372.479 203.568 372.479V384.868C243.616 384.928 282.551 371.687 314.259 347.225C306.472 329.469 293.665 314.376 277.414 303.802V303.802Z" fill="#270E11"/>
<path d="M262.711 293.146C261.631 293.693 260.51 294.158 259.36 294.536L258.831 294.702C256.553 295.391 254.186 295.74 251.806 295.74H203.568V314.001C205.884 314.008 208.165 313.443 210.211 312.357C212.256 311.271 214.001 309.697 215.293 307.776C216.673 309.594 218.474 311.05 220.542 312.017C222.61 312.983 224.882 313.432 227.162 313.323C229.442 313.215 231.662 312.553 233.629 311.395C235.596 310.237 237.251 308.617 238.452 306.676C240.093 308.71 242.268 310.246 244.733 311.114C247.198 311.982 249.856 312.147 252.409 311.59C254.963 311.034 257.311 309.777 259.191 307.962C261.071 306.147 262.408 303.844 263.054 301.311C264.668 302.722 266.584 303.746 268.654 304.304C270.724 304.863 272.895 304.942 275 304.534C277.105 304.127 279.09 303.245 280.802 301.955C282.515 300.665 283.911 299.001 284.883 297.089C285.855 295.178 286.379 293.071 286.413 290.927C286.447 288.783 285.992 286.659 285.082 284.718C284.171 282.776 282.83 281.068 281.159 279.724C279.489 278.379 277.534 277.434 275.442 276.959C274.636 280.425 273.077 283.672 270.877 286.469C268.677 289.266 265.889 291.545 262.711 293.146Z" fill="#FC6719"/>
<path d="M248.008 194.482C245.375 192.273 243.072 189.698 241.171 186.835C237.54 193.346 231.96 198.556 225.216 201.733C218.471 204.91 210.901 205.894 203.568 204.546V227.155H212.907C213.658 218.324 217.668 210.087 224.156 204.048C230.643 198.009 239.146 194.599 248.008 194.482V194.482Z" fill="#00BCB4"/>
<path d="M248.455 265.899C239.778 265.898 231.398 262.738 224.881 257.009C218.364 251.281 214.156 243.376 213.042 234.771H212.45V255.523C212.45 257.251 211.764 258.909 210.542 260.131C209.32 261.353 207.662 262.039 205.934 262.039H203.568V281.525C203.627 280.382 204.123 279.305 204.953 278.517C205.784 277.729 206.885 277.29 208.03 277.292H212.18V281.38C212.181 282.542 211.733 283.66 210.928 284.5C210.124 285.339 209.026 285.835 207.864 285.883H203.568V295.688H251.806C254.186 295.689 256.553 295.339 258.831 294.65L259.36 294.484C263.333 293.179 266.902 290.869 269.72 287.779C272.537 284.688 274.509 280.922 275.442 276.845C275.853 275.066 276.062 273.245 276.065 271.419V252.742C272.728 256.847 268.518 260.157 263.743 262.433C258.967 264.708 253.745 265.892 248.455 265.899Z" fill="#00BCB4"/>
<path d="M273.794 202.7C272.995 202.762 272.196 202.803 271.387 202.814C272.224 203.506 273.026 204.242 273.794 205.024C274.562 205.805 275.319 206.642 276.066 207.535C280.858 213.357 283.674 220.551 284.108 228.079C286.608 226.702 288.723 224.72 290.259 222.314C291.795 219.909 292.702 217.156 292.898 214.308C293.095 211.461 292.573 208.61 291.382 206.016C290.19 203.422 288.367 201.169 286.079 199.462C282.908 200.951 279.534 201.962 276.066 202.461C275.309 202.554 274.551 202.637 273.794 202.7Z" fill="#00BCB4"/>
<path d="M203.568 134.292V204.537C210.901 205.884 218.471 204.9 225.216 201.723C231.96 198.546 237.54 193.336 241.171 186.825C243.072 189.688 245.375 192.263 248.008 194.472H248.455C256.834 194.452 264.952 197.392 271.375 202.773C272.184 202.773 272.983 202.773 273.782 202.658C274.581 202.544 275.297 202.513 276.055 202.409C284.77 201.107 292.695 196.628 298.306 189.834C303.918 183.039 306.818 174.41 306.45 165.606C306.082 156.802 302.471 148.445 296.312 142.144C290.152 135.842 281.88 132.04 273.087 131.47C271.912 126.17 269.544 121.208 266.162 116.96C262.781 112.713 258.475 109.293 253.573 106.96C248.671 104.627 243.301 103.443 237.873 103.497C232.444 103.552 227.099 104.843 222.245 107.274C218.144 99.8182 211.523 94.0658 203.568 91.0459V134.292Z" fill="#FC6719"/>
<path d="M212.45 255.554V234.802H203.568V262.122H205.934C206.794 262.122 207.646 261.952 208.44 261.621C209.234 261.29 209.954 260.806 210.56 260.195C211.166 259.584 211.645 258.86 211.969 258.063C212.294 257.267 212.457 256.414 212.45 255.554V255.554Z" fill="#FC6719"/>
<path d="M207.854 285.935C209.016 285.887 210.114 285.391 210.918 284.552C211.723 283.712 212.172 282.594 212.171 281.432V277.344H208.02C206.875 277.342 205.774 277.781 204.943 278.569C204.113 279.357 203.617 280.434 203.559 281.577V285.966H207.844L207.854 285.935Z" fill="#FC6719"/>
<path d="M208.383 331.951C208.383 330.674 207.876 329.449 206.973 328.546C206.07 327.643 204.845 327.136 203.568 327.136V336.765C204.845 336.765 206.07 336.258 206.973 335.355C207.876 334.452 208.383 333.227 208.383 331.951V331.951Z" fill="#FC6719"/>
<path d="M208.383 349.839C208.383 348.562 207.876 347.337 206.973 346.434C206.07 345.532 204.845 345.024 203.568 345.024V354.653C204.845 354.653 206.07 354.146 206.973 353.243C207.876 352.34 208.383 351.116 208.383 349.839V349.839Z" fill="#FC6719"/>
<path d="M208.383 367.706C208.383 366.43 207.876 365.205 206.973 364.302C206.07 363.399 204.845 362.892 203.568 362.892V372.521C204.845 372.521 206.07 372.014 206.973 371.111C207.876 370.208 208.383 368.983 208.383 367.706V367.706Z" fill="#FC6719"/>
<path d="M273.793 205.024C273.025 204.249 272.222 203.513 271.385 202.814C264.962 197.433 256.845 194.493 248.465 194.513H248.019C239.159 194.628 230.658 198.032 224.169 204.065C217.68 210.098 213.666 218.328 212.907 227.156H203.568V234.792H213.042C214.178 243.812 218.712 252.058 225.72 257.85C232.727 263.641 241.68 266.542 250.752 265.959C259.825 265.377 268.333 261.356 274.543 254.716C280.752 248.076 284.195 239.318 284.169 230.227C284.169 229.511 284.169 228.805 284.096 228.152C283.662 220.624 280.846 213.429 276.055 207.608C275.342 206.681 274.588 205.819 273.793 205.024ZM277.3 230.196C277.156 237.75 274.055 244.946 268.662 250.237C263.269 255.529 256.015 258.493 248.46 258.493C240.904 258.493 233.651 255.529 228.258 250.237C222.865 244.946 219.763 237.75 219.62 230.196C219.62 229.156 219.675 228.117 219.786 227.083C220.511 220.721 223.332 214.78 227.803 210.197C232.275 205.613 238.143 202.646 244.486 201.763C250.828 200.88 257.284 202.131 262.838 205.319C268.391 208.507 272.727 213.452 275.162 219.374C275.487 220.176 275.774 220.996 276.024 221.833C276.839 224.524 277.255 227.321 277.258 230.133C277.258 230.133 277.3 230.165 277.3 230.185V230.196Z" fill="#3D113C"/>
<path d="M248.455 201.351C241.334 201.355 234.466 203.993 229.173 208.757C223.88 213.521 220.537 220.074 219.786 227.156C219.675 228.19 219.62 229.229 219.62 230.268C219.616 233.975 220.321 237.648 221.695 241.09L259.246 203.54C255.823 202.122 252.159 201.379 248.455 201.351V201.351Z" fill="#016099"/>
<path d="M275.163 219.374L273.762 220.774L237.612 256.924C241.99 258.696 246.737 259.366 251.435 258.875C256.133 258.383 260.638 256.745 264.554 254.105C268.471 251.464 271.679 247.902 273.896 243.731C276.113 239.56 277.271 234.909 277.269 230.185C277.269 230.185 277.269 230.185 277.269 230.123C277.266 227.311 276.85 224.514 276.034 221.822C275.799 220.985 275.509 220.169 275.163 219.374Z" fill="#016099"/>
<path d="M275.163 219.374C273.702 215.795 271.542 212.544 268.808 209.811C266.075 207.078 262.824 204.918 259.246 203.457L221.727 241.007C223.181 244.589 225.339 247.843 228.073 250.577C230.807 253.311 234.061 255.469 237.643 256.924L273.793 220.774L275.163 219.374Z" fill="#FFFAC2"/>
</svg>
