<svg fill="none" height="179" viewBox="0 0 178 179" width="178" xmlns="http://www.w3.org/2000/svg"><circle cx="89" cy="89" fill="#00bcb4" r="89"/><path d="m88.3975 116.918c-3.3829-.018-6.7191-.791-9.7649-2.263-3.0458-1.473-5.7242-3.607-7.8394-6.247h-.1018v10.148h17.7061z" fill="#3d113c"/><path d="m35 132.639v27.63c2.7352 2.058 5.5866 3.956 8.54 5.685v-33.315z" fill="#fdb98d"/><path d="m76.5351 108.408c-4.6521-2.413-8.3612-6.316-10.5351-11.0845.7597 5.4095 3.4399 10.3655 7.5512 13.9635 4.1113 3.597 9.3794 5.596 14.8422 5.631v-5.563c-4.1325-.012-8.2009-1.023-11.8583-2.947z" fill="#fffac2"/><path d="m65.9844 90.071c.9563 2.1521 2.2443 4.1408 3.817 5.8936 2.3556 2.5868 5.227 4.6514 8.4291 6.0614 3.2021 1.409 6.664 2.132 10.1626 2.122v-14.077z" fill="#fffac2"/><path d="m61.0313 47.4828v48.4615h4.4227c.1679.458.346.911.5445 1.3537 2.1739 4.769 5.8831 8.671 10.5351 11.085 3.6594 1.923 7.7296 2.932 11.8634 2.941v-7.176c-3.4986.01-6.9604-.713-10.1625-2.122-3.2021-1.41-6.0735-3.4746-8.4291-6.0614-1.5727-1.7528-2.8607-3.7415-3.8171-5.8935h22.3935v-70.0711c-7.266.035-14.2224 2.9459-19.3479 8.0962-5.1254 5.1502-8.0027 12.1206-8.0026 19.3866z" fill="#016099"/><path d="m70.6921 118.562h-35.6921v11.135h35.6921z" fill="#016099"/><path d="m70.6921 129.692h-35.6921v2.947h35.6921z" fill="#fbf9c6"/><path d="m54.6699 132.639v38.837c5.1741 2.13 10.5386 3.765 16.0215 4.881v-43.718z" fill="#fdb98d"/><path d="m88.398 127.387v-8.825h-14.7593v58.35c4.8772.819 9.8138 1.232 14.7593 1.237v-2.952c-.7158-.031-1.392-.337-1.8876-.854-.4957-.517-.7723-1.206-.7723-1.923 0-.716.2766-1.405.7723-1.922.4956-.517 1.1718-.823 1.8876-.854v-4.926c-.7158-.031-1.392-.337-1.8876-.854-.4957-.517-.7723-1.206-.7723-1.923 0-.716.2766-1.405.7723-1.922.4956-.517 1.1718-.823 1.8876-.854v-15.726c-.7158-.031-1.392-.337-1.8876-.854-.4957-.517-.7723-1.206-.7723-1.922 0-.717.2766-1.406.7723-1.923.4956-.517 1.1718-.823 1.8876-.854v-4.901c-.7158-.03-1.392-.336-1.8876-.854-.4957-.517-.7723-1.206-.7723-1.922 0-.717.2766-1.405.7723-1.923.4956-.517 1.1718-.823 1.8876-.853z" fill="#fdb98d"/><g fill="#fbf9c6"><path d="m70.6914 118.562v57.8c.967.199 1.9442.382 2.9213.545v-58.345z"/><path d="m88.3977 127.386c-.6088.029-1.1914.256-1.658.648-.4667.392-.7915.927-.9246 1.522-.1331.594-.0669 1.216.1882 1.77.2552.553.6852 1.007 1.2238 1.292h1.1706z"/><path d="m87.2285 132.639c.3617.192.7615.302 1.1706.321v-.321z"/><path d="m85.752 140.665c-.0009.714.2737 1.402.7665 1.919.4929.518 1.1661.826 1.8799.86v-5.558c-.7138.034-1.387.342-1.8799.859-.4928.518-.7674 1.205-.7665 1.92z"/><path d="m85.752 161.949c-.0009.715.2737 1.402.7665 1.92.4929.517 1.1661.825 1.8799.859v-5.558c-.7138.034-1.387.342-1.8799.859-.4928.518-.7674 1.205-.7665 1.92z"/><path d="m85.752 172.423c-.0008.714.2737 1.402.7666 1.919.4928.518 1.1661.826 1.8799.86v-5.573c-.7165.034-1.392.344-1.8852.864-.4933.521-.766 1.212-.7613 1.93z"/></g><path d="m88.5359 116.923h-.1375v1.639h17.9856v-10.154h-.101c-2.13 2.66-4.831 4.806-7.9033 6.28-3.0721 1.474-6.4365 2.238-9.8438 2.235z" fill="#270e11"/><path d="m106.384 132.639v-14.077h-17.9856v8.825h.1375c.7383 0 1.4464.293 1.9685.815s.8154 1.23.8154 1.969c0 .738-.2933 1.446-.8154 1.968s-1.2302.816-1.9685.816h-.1375v4.916h.1375c.7383 0 1.4464.293 1.9685.815s.8154 1.231.8154 1.969-.2933 1.446-.8154 1.968c-.5221.523-1.2302.816-1.9685.816h-.1375v15.731h.1375c.7383 0 1.4464.294 1.9685.816s.8154 1.23.8154 1.968-.2933 1.447-.8154 1.969-1.2302.815-1.9685.815h-.1375v4.891h.1375c.7383 0 1.4464.293 1.9685.815s.8154 1.231.8154 1.969-.2933 1.446-.8154 1.968-1.2302.816-1.9685.816h-.1375v2.952h.1375c19.3171.029 38.1151-6.251 53.5351-17.885v-27.625z" fill="#fc6719"/><path d="m100.537 108.408c-3.7005 1.946-7.8205 2.958-12.0011 2.947h-.1375v5.568h.1375c5.4878-.002 10.7903-1.986 14.9311-5.588 4.141-3.601 6.842-8.577 7.605-14.0115-2.174 4.7685-5.883 8.6715-10.535 11.0845z" fill="#00bcb4"/><path d="m88.3984 90.071v14.077h.1375c3.5224.03 7.0115-.684 10.2395-2.094 3.2276-1.41 6.1226-3.4852 8.4946-6.0894 1.573-1.7528 2.861-3.7415 3.817-5.8936z" fill="#00bcb4"/><path d="m88.5359 20h-.1375v70.0711h22.6886c-.956 2.152-2.244 4.1407-3.817 5.8935-2.372 2.6042-5.267 4.6794-8.4946 6.0894-3.228 1.41-6.7171 2.124-10.2395 2.094h-.1375v7.207h.1375c4.1806.011 8.3006-1.001 12.0011-2.947 4.652-2.413 8.361-6.316 10.535-11.0845.198-.4428.376-.8957.544-1.3538h4.423v-48.4868c0-3.6109-.711-7.1863-2.094-10.522-1.382-3.3357-3.409-6.3663-5.963-8.9186-2.554-2.5522-5.586-4.5762-8.9227-5.9561-3.3367-1.38-6.9126-2.0889-10.5234-2.0862z" fill="#3d113c"/><path d="m142.077 118.562h-35.692v11.135h35.692z" fill="#3d113c"/><path d="m142.077 129.692h-35.692v2.947h35.692z" fill="#00bcb4"/><path d="m88.5359 127.386h-.1375v5.599h.1375c.7383 0 1.4464-.293 1.9685-.816.5221-.522.8154-1.23.8154-1.968s-.2933-1.447-.8154-1.969-1.2302-.815-1.9685-.815z" fill="#00bcb4"/><path d="m91.3198 140.665c0-.738-.2933-1.446-.8154-1.969-.5221-.522-1.2302-.815-1.9685-.815h-.1375v5.553h.1375c.7357 0 1.4414-.292 1.9631-.81.5216-.519.8167-1.223.8208-1.959z" fill="#00bcb4"/><path d="m91.3198 161.949c0-.739-.2933-1.447-.8154-1.969s-1.2302-.815-1.9685-.815h-.1375v5.552h.1375c.7357 0 1.4414-.291 1.9631-.81.5216-.518.8167-1.223.8208-1.958z" fill="#00bcb4"/><path d="m91.3198 172.423c0-.366-.072-.728-.2119-1.066-.14-.337-.345-.644-.6035-.903-.2585-.258-.5654-.463-.9032-.603s-.6998-.212-1.0653-.212h-.1375v5.552h.1375c.7357 0 1.4414-.291 1.9631-.81.5216-.518.8167-1.222.8208-1.958z" fill="#00bcb4"/><path d="m52.7051 101.863v-62.8693h-7.2015v62.8693h-1.9645v64.096c3.5782 2.099 7.2992 3.944 11.1356 5.522v-69.618z" fill="#016099"/></svg>