<svg width="179" height="179" viewBox="0 0 179 179" fill="none" xmlns="http://www.w3.org/2000/svg">
<path d="M89.5843 178.389C138.773 178.389 178.649 138.513 178.649 89.324C178.649 40.1349 138.773 0.259277 89.5843 0.259277C40.3952 0.259277 0.519531 40.1349 0.519531 89.324C0.519531 138.513 40.3952 178.389 89.5843 178.389Z" fill="#FFFAC2"/>
<path d="M72.4178 95.2326C69.6388 92.482 65.884 90.9434 61.974 90.9529C58.064 90.9625 54.3167 92.5194 51.5512 95.2835L42.0391 104.801L52.4316 115.203L72.4178 95.2326Z" fill="#00BCB4"/>
<path d="M42.039 104.801L32.649 114.191C29.8849 116.956 28.3279 120.704 28.3184 124.614C28.3089 128.524 29.8475 132.278 32.5981 135.057L38.7817 128.874L42.1204 125.535L45.2249 122.431L48.5636 119.092L52.4468 115.209L42.039 104.801Z" fill="#FC6719"/>
<path d="M62.9616 125.723L72.4738 116.211C75.2482 113.437 76.8068 109.674 76.8068 105.75C76.8068 101.826 75.2482 98.0633 72.4738 95.2887L72.4178 95.2378L52.4316 115.204L62.9616 125.723Z" fill="#016099"/>
<path d="M52.4308 115.204L48.5475 119.087L45.2191 122.405L42.1145 125.51L38.7758 128.848L32.582 135.057L32.6329 135.113C35.4075 137.888 39.1705 139.446 43.0942 139.446C47.0179 139.446 50.7809 137.888 53.5555 135.113L62.9455 125.723L52.4308 115.204Z" fill="#3D113C"/>
<path d="M142.112 109.173L137.374 104.435L132.631 109.173L128.223 104.765L132.961 100.027L128.223 95.2888L130.35 93.1615L124.834 87.6445L110.074 102.404L123.408 115.738C127.334 119.663 132.654 121.875 138.205 121.889C143.757 121.903 149.088 119.719 153.034 115.814L144.255 107.035L142.112 109.173Z" fill="#016099"/>
<path d="M96.475 59.2964C92.5701 63.2422 90.3862 68.5735 90.4005 74.1249C90.4148 79.6763 92.6262 84.9962 96.5514 88.9219L110.059 102.429L124.818 87.6699L96.475 59.2964Z" fill="#FDB98D"/>
<path d="M128.223 95.3042L132.961 100.048L128.223 104.786L132.63 109.198L137.373 104.455L142.112 109.198L144.239 107.071L139.496 102.328L135.088 97.9201L130.35 93.1819L128.223 95.3042Z" fill="#FFFAC2"/>
<path d="M153.095 86.0618L139.76 72.7275L124.828 87.6599L130.345 93.1768L132.625 90.8968L137.363 95.635L142.102 90.8968L146.509 95.3042L141.771 100.042L146.509 104.781L144.229 107.061L153.008 115.84L153.09 115.764C157.029 111.825 159.242 106.484 159.243 100.914C159.244 95.3437 157.032 90.0014 153.095 86.0618Z" fill="#3D113C"/>
<path d="M139.761 72.7326L126.254 59.2253C124.304 57.2745 121.988 55.727 119.439 54.6712C116.891 53.6154 114.159 53.072 111.401 53.072C108.642 53.072 105.91 53.6154 103.362 54.6712C100.813 55.727 98.4975 57.2745 96.547 59.2253L96.4707 59.3068L124.829 87.665L139.761 72.7326Z" fill="#FC6719"/>
<path d="M137.373 95.6398L132.63 90.8965L130.35 93.1816L135.088 97.9199L139.495 102.327L144.239 107.071L146.519 104.786L141.78 100.047L146.519 95.3039L142.111 90.8965L137.373 95.6398Z" fill="#00BCB4"/>
<path d="M67.5374 39.9568C62.9208 39.981 58.5015 41.8319 55.2456 45.105C51.9897 48.378 50.162 52.807 50.1621 57.4237V73.2925H67.5374V39.9568Z" fill="#016099"/>
<path d="M50.1621 73.2922V88.9727C50.162 93.5894 51.9897 98.0183 55.2456 101.291C58.5015 104.564 62.9208 106.415 67.5374 106.44V73.2922H50.1621Z" fill="#FFFAC2"/>
<path d="M85.0956 73.2925V57.4084C85.0915 52.7785 83.2495 48.3397 79.9743 45.0673C76.699 41.7949 72.2586 39.9568 67.6287 39.9568H67.5371V73.2925H85.0956Z" fill="#3D113C"/>
<path d="M67.5371 73.2922V106.435H67.6287C72.2612 106.435 76.704 104.594 79.9797 101.319C83.2553 98.0429 85.0956 93.6001 85.0956 88.9676V73.2922H67.5371Z" fill="#00BCB4"/>
</svg>
