<svg fill="none" height="179" viewBox="0 0 179 179" width="179" xmlns="http://www.w3.org/2000/svg"><path d="m89.5843 178.389c49.1887 0 89.0647-39.876 89.0647-89.065 0-49.1891-39.876-89.064723-89.0647-89.064723-49.1891 0-89.064769 39.875623-89.064769 89.064723 0 49.189 39.875669 89.065 89.064769 89.065z" fill="#fffac2"/><path d="m72.4178 95.2326c-2.779-2.7506-6.5338-4.2892-10.4438-4.2797-3.91.0096-7.6573 1.5665-10.4228 4.3306l-9.5121 9.5175 10.3925 10.402z" fill="#00bcb4"/><path d="m42.039 104.801-9.39 9.39c-2.7641 2.765-4.3211 6.513-4.3306 10.423s1.5291 7.664 4.2797 10.443l6.1836-6.183 3.3387-3.339 3.1045-3.104 3.3387-3.339 3.8832-3.883z" fill="#fc6719"/><path d="m62.9616 125.723 9.5122-9.512c2.7744-2.774 4.333-6.537 4.333-10.461s-1.5586-7.6867-4.333-10.4613l-.056-.0509-19.9862 19.9662z" fill="#016099"/><path d="m52.4308 115.204-3.8833 3.883-3.3284 3.318-3.1046 3.105-3.3387 3.338-6.1938 6.209.0509.056c2.7746 2.775 6.5376 4.333 10.4613 4.333s7.6867-1.558 10.4613-4.333l9.39-9.39z" fill="#3d113c"/><path d="m142.112 109.173-4.738-4.738-4.743 4.738-4.408-4.408 4.738-4.738-4.738-4.7382 2.127-2.1273-5.516-5.517-14.76 14.7595 13.334 13.334c3.926 3.925 9.246 6.137 14.797 6.151 5.552.014 10.883-2.17 14.829-6.075l-8.779-8.779z" fill="#016099"/><path d="m96.475 59.2964c-3.9049 3.9458-6.0888 9.2771-6.0745 14.8285s2.2257 10.8713 6.1509 14.797l13.5076 13.5071 14.759-14.7591z" fill="#fdb98d"/><path d="m128.223 95.3042 4.738 4.7438-4.738 4.738 4.407 4.412 4.743-4.743 4.739 4.743 2.127-2.127-4.743-4.743-4.408-4.4079-4.738-4.7382z" fill="#fffac2"/><path d="m153.095 86.0618-13.335-13.3343-14.932 14.9324 5.517 5.5169 2.28-2.28 4.738 4.7382 4.739-4.7382 4.407 4.4074-4.738 4.7378 4.738 4.739-2.28 2.28 8.779 8.779.082-.076c3.939-3.939 6.152-9.28 6.153-14.85.001-5.5703-2.211-10.9126-6.148-14.8522z" fill="#3d113c"/><path d="m139.761 72.7326-13.507-13.5073c-1.95-1.9508-4.266-3.4983-6.815-4.5541-2.548-1.0558-5.28-1.5992-8.038-1.5992-2.759 0-5.491.5434-8.039 1.5992-2.549 1.0558-4.8645 2.6033-6.815 4.5541l-.0763.0815 28.3583 28.3582z" fill="#fc6719"/><path d="m137.373 95.6398-4.743-4.7433-2.28 2.2851 4.738 4.7383 4.407 4.4071 4.744 4.744 2.28-2.285-4.739-4.739 4.739-4.7431-4.408-4.4074z" fill="#00bcb4"/><path d="m67.5374 39.9568c-4.6166.0242-9.0359 1.8751-12.2918 5.1482-3.2559 3.273-5.0836 7.702-5.0835 12.3187v15.8688h17.3753z" fill="#016099"/><path d="m50.1621 73.2922v15.6805c-.0001 4.6167 1.8276 9.0456 5.0835 12.3183 3.2559 3.273 7.6752 5.124 12.2918 5.149v-33.1478z" fill="#fffac2"/><path d="m85.0956 73.2925v-15.8841c-.0041-4.6299-1.8461-9.0687-5.1213-12.3411-3.2753-3.2724-7.7157-5.1105-12.3456-5.1105h-.0916v33.3357z" fill="#3d113c"/><path d="m67.5371 73.2922v33.1428h.0916c4.6325 0 9.0753-1.841 12.351-5.116 3.2756-3.2761 5.1159-7.7189 5.1159-12.3514v-15.6754z" fill="#00bcb4"/></svg>