<svg fill="none" height="178" viewBox="0 0 178 178" width="178" xmlns="http://www.w3.org/2000/svg" xmlns:xlink="http://www.w3.org/1999/xlink"><clipPath id="a"><path d="m64 25h49.3877v128.38h-49.3877z"/></clipPath><circle cx="89" cy="89" fill="#fdb98d" r="89"/><g clip-path="url(#a)"><path d="m85.7369 27.9568v10.9982l-21.7369 21.7369h5.8834l18.8308-18.8308.0662.0661v-16.9274h-.0662c-.39-.0027-.7767.0718-1.1378.2192s-.6895.3648-.9663.6397c-.2767.2748-.4963.6017-.6462.9618s-.227.7462-.227 1.1363z" fill="#fffac2"/><path d="m88.6938 41.8813-18.8308 18.8309h-5.863v87.5888c0 1.35.5362 2.644 1.4907 3.599.9544.954 2.2489 1.49 3.5987 1.49h19.6706v-111.4425z" fill="#016099"/><path d="m107.504 60.6918h5.863l-21.7164-21.7369v-10.9982c.0001-.7729-.3023-1.5152-.8426-2.0678-.5403-.5527-1.2755-.8719-2.0482-.8891v16.9477z" fill="#00bcb4"/><path d="m107.504 60.6921-18.7442-18.7443v111.4582h19.5482c1.35 0 2.645-.536 3.599-1.491.954-.954 1.491-2.249 1.491-3.598v-87.6249z" fill="#3d113c"/><path d="m81.3301 43.364-9.9578 9.9578-3.0445-3.0446c-.3713-.3713-.5799-.8748-.5799-1.3999s.2086-1.0286.5799-1.3999l7.1399-7.1399c.3713-.3713.8748-.5799 1.3999-.5799s1.0287.2086 1.3999.5799l3.0446 3.0445z" fill="#00bcb4"/><path d="m102.374 93.0859c-.027-.3189-.066-.6344-.117-.9466-.315-1.9458-1.042-3.8017-2.135-5.4425-1.0917-1.6409-2.5228-3.0286-4.1965-4.0696-.1861.037-.3753.0558-.565.056h-1.1349v10.5758c-.004.7959-.3234 1.5579-.8882 2.1188-.5647.5609-1.3288.8751-2.1247.8738h-2.5447v5.4664h.0305c2.705.004 5.3702-.652 7.7646-1.9104 2.3945-1.2584 4.4459-3.0817 5.9769-5.3119v-.2087c-.015-.3969-.031-.799-.066-1.2011z" fill="#016099"/><path d="m88.6934 68.4126c-3.0378-.0049-6.0191.8212-8.6212 2.3889-2.602 1.5678-4.7256 3.8174-6.1409 6.5054s-2.0683 5.7119-1.8884 8.7444 1.1859 5.958 2.9091 8.4598v-.2086c-.0061-1.2746.1652-2.5439.5089-3.7713.0356-.1323.0763-.2646.1171-.3919.997-3.1182 3.0719-5.7794 5.8528-7.5069.186.0371.3752.0558.5649.056h1.14v10.5758c.0027.3959.0835.7873.2377 1.1519.1543.3646.379.6951.6613.9727.2823.2775.6166.4966.9837.6447s.7599.2222 1.1557.2182h5.0436c.7978 0 1.5628-.3169 2.1269-.881.5641-.564.881-1.3291.881-2.1268v-10.5606h1.14c.1897-.0002.3789-.0189.5649-.0559 1.676 1.0385 3.1088 2.4254 4.2015 4.0667 1.092 1.6413 1.819 3.4985 2.13 5.4454.051.3121.09.6277.117.9466.035.4021.056.8041.056 1.2164v.2086c1.754-2.543 2.762-5.5256 2.911-8.6112 0-.2749 0-.5514 0-.8296-.001-4.4166-1.756-8.652-4.879-11.7755-3.1222-3.1235-7.357-4.8795-11.7736-4.8822z" fill="#fffac2"/><path d="m86.1734 96.2516c-.395 0-.7861-.0778-1.151-.229s-.6965-.3727-.9758-.652-.5009-.6109-.6521-.9758c-.1511-.365-.2289-.7561-.2289-1.1511v-10.5605h-1.14c-.1897-.0002-.3789-.019-.565-.056-2.7847 1.729-4.8616 4.3943-5.8579 7.5171-.0407.1323-.0814.2595-.117.3918-.3438 1.2274-.5151 2.4967-.509 3.7713v.2087c1.1581 1.6756 2.612 3.1261 4.2904 4.2802 2.3106 1.5877 4.9863 2.5627 7.7766 2.8347.5293.051 1.0671.078 1.6134.082v-5.4614z" fill="#00bcb4"/><path d="m94.227 79.7822h-.0102v.0461h.0102z" fill="#b3b3b3"/><path d="m95.8554 79.7823v-5.466c0-.4347-.1727-.8515-.48-1.1588-.3073-.3074-.7242-.48-1.1588-.48v4.9723h-5.5525v18.6019h2.5447c.395 0 .7861-.0778 1.151-.229.365-.1512.6965-.3727.9758-.652s.5009-.6109.6521-.9758c.1511-.365.2289-.7561.2289-1.1511v-10.5605h1.14c.381 0 .7582-.0751 1.1102-.2208.352-.1458.6718-.3595.9411-.6289.2694-.2694.4831-.5892.6289-.9411.1458-.352.2208-.7292.2208-1.1102z" fill="#3d113c"/><path d="m86.4283 77.6497h-3.2572v-4.9927c-.4347 0-.8515.1726-1.1588.48-.3073.3073-.48.7241-.48 1.1588v5.4864h-2.4073c0 .3809.075.7582.2208 1.1101.1458.352.3595.6718.6289.9412.2694.2693.5892.483.9411.6288.352.1458.7292.2208 1.1102.2208h1.14v10.5758c.004.7951.3227 1.5563.8864 2.117.5636.5608 1.3263.8756 2.1214.8756h2.4888v-18.6018z" fill="#016099"/></g></svg>