<svg fill="none" height="350" viewBox="0 0 363 350" width="363" xmlns="http://www.w3.org/2000/svg"><path d="m281.983 28.8631c30.028 18.6627 53.111 50.0245 66.792 85.9469 13.612 35.852 17.821 76.264 8.069 113.941-9.752 37.676-33.467 72.616-65.6 94.225-32.134 21.54-72.687 29.818-109.661 24.907-36.975-4.911-70.371-23.012-99.5581-45.604-29.1166-22.592-53.9535-49.604-68.0558-82.579-14.10224-33.046-17.46995-71.985-8.77004-109.521 8.77004-37.6059 29.53764-73.7386 60.33814-92.1908 30.8005-18.382109 71.6338-19.01356 110.5728-16.34745 38.869 2.6661 75.844 8.55955 105.873 27.22235z" fill="#fdb98d"/><path d="m170.7 54.0248-8.475-8.4751-14.993 15.0025 10.9 10.8996h23.167v-28.0675l-10.599 10.5991z" fill="#016099"/><path d="m158.131 71.4521h-5.44v21.1983h28.607v-21.1983z" fill="#fffac2"/><path d="m204.465 71.4518 10.899-10.8996-14.992-15.0025-8.475 8.4751v-.0414l-10.599-10.5991v28.0675z" fill="#3d113c"/><path d="m204.465 71.4521h-23.167v21.1983h28.606v-21.1983z" fill="#00bcb4"/><path d="m269.439 152.184-59.534-59.5336h-28.606v64.2376h-.072v81.063h.072v48.892c16.373.022 32.588-3.193 47.714-9.459s28.864-15.459 40.426-27.052c13.011-13.018 20.32-30.669 20.32-49.074s-7.309-36.057-20.32-49.074z" fill="#3d113c"/><path d="m152.692 92.6606-59.5334 59.5234c-13.0145 13.017-20.3256 30.671-20.3256 49.079 0 18.407 7.3111 36.061 20.3256 49.079 11.5624 11.591 25.3004 20.783 40.4264 27.047s31.341 9.477 47.713 9.454v-194.1824z" fill="#016099"/><path d="m175.849 135.223v14.505c-4.698.685-9.249 2.145-13.469 4.321-4.1 2.107-7.769 4.964-10.816 8.423-3.117 3.584-5.528 7.725-7.108 12.205-1.757 5.037-2.62 10.342-2.549 15.676-.079 5.385.784 10.743 2.549 15.831 3.074 8.856 9.472 16.168 17.841 20.39 4.252 2.172 8.854 3.575 13.594 4.145v17.924h5.18v-118.331c-3.471.187-5.222 1.813-5.222 4.911zm0 81.571c-5.054-1.376-9.492-4.426-12.588-8.651-3.246-4.324-4.87-10.351-4.87-18.08 0-7.418 1.596-13.341 4.787-17.769 3.057-4.334 7.544-7.452 12.671-8.807z" fill="#fdb98d"/><path d="m186.975 230.843c5.091-.288 10.1-1.411 14.826-3.325 2.906-1.215 5.698-2.689 8.34-4.404-1.132-1.747-2.265-3.55-3.398-5.408l-3.398-5.564c-1.776 1.145-3.636 2.153-5.564 3.015-3.414 1.52-7.083 2.384-10.817 2.549v-55.14c4.946.414 8.886 1.547 11.822 3.398 2.177 1.287 4.221 2.786 6.102 4.476 1.574-1.148 2.846-2.658 3.71-4.404.731-1.358 1.152-2.862 1.233-4.403.055-1.386-.306-2.757-1.036-3.937-.722-1.082-1.606-2.047-2.622-2.86-1.964-1.256-4.046-2.318-6.216-3.17-2.991-1.285-7.315-2.083-12.972-2.393v-18.07c-1.686-.604-3.462-.916-5.253-.922-.238 0-.445 0-.673 0v118.331h5.926z" fill="#fc6719"/></svg>