<svg fill="none" height="179" viewBox="0 0 179 179" width="179" xmlns="http://www.w3.org/2000/svg" xmlns:xlink="http://www.w3.org/1999/xlink"><clipPath id="a"><path d="m.070313.259277h178.13v178.13h-178.13z"/></clipPath><g clip-path="url(#a)"><path d="m89.1351 178.389c49.1889 0 89.0649-39.876 89.0649-89.065 0-49.1891-39.876-89.064723-89.0649-89.064723-49.1891 0-89.0647875 39.875623-89.0647875 89.064723 0 49.189 39.8756875 89.065 89.0647875 89.065z" fill="#fdb98d"/><path d="m83.9279 34.7552-4.1631-4.1632-7.3644 7.3695 5.3541 5.354h11.3799v-13.7872l-5.2065 5.2065z" fill="#016099"/><path d="m77.754 43.3159h-2.672v10.413h14.0519v-10.413z" fill="#fffac2"/><path d="m100.515 43.3155 5.354-5.354-7.3646-7.3695-4.1632 4.1632v-.0204l-5.2064-5.2065v13.7872z" fill="#3d113c"/><path d="m100.515 43.3159h-11.3802v10.413h14.0522v-10.413z" fill="#00bcb4"/><path d="m132.431 82.9723-29.244-29.2438h-14.0518v31.5544h-.0356v39.8191h.0356v24.017c8.0425.011 16.0078-1.568 23.4378-4.646s14.179-7.594 19.858-13.289c6.391-6.394 9.982-15.065 9.982-24.106 0-9.0405-3.591-17.7113-9.982-24.1057z" fill="#3d113c"/><path d="m75.0835 53.7336-29.2438 29.2387c-6.3929 6.3946-9.9842 15.0665-9.9842 24.1087 0 9.042 3.5913 17.714 9.9842 24.108 5.6795 5.694 12.4283 10.209 19.8584 13.286 7.4302 3.077 15.3952 4.656 23.4373 4.644v-95.3854z" fill="#016099"/><path d="m86.4586 74.6411v7.1252c-2.3077.3362-4.5436 1.0534-6.6162 2.1223-2.014 1.0353-3.8163 2.4387-5.3134 4.1377-1.5309 1.7608-2.7155 3.7949-3.4913 5.9953-.8632 2.4742-1.2869 5.0802-1.252 7.7004-.039 2.645.3847 5.277 1.252 7.777 1.51 4.349 4.6529 7.941 8.7639 10.016 2.0885 1.066 4.3491 1.755 6.6773 2.035v8.805h2.5448v-58.1262c-1.705.0916-2.5651.8906-2.5651 2.4123zm0 40.0689c-2.4827-.676-4.6627-2.174-6.1837-4.25-1.5946-2.124-2.392-5.084-2.392-8.881 0-3.6436.7838-6.5531 2.3513-8.7279 1.5017-2.129 3.7055-3.6607 6.2244-4.326z" fill="#fdb98d"/><path d="m91.9236 121.611c2.5008-.141 4.9614-.693 7.283-1.633 1.4274-.597 2.7984-1.321 4.0974-2.163-.557-.859-1.113-1.744-1.67-2.657l-1.6691-2.733c-.8721.562-1.7857 1.057-2.733 1.481-1.6771.746-3.4795 1.171-5.3134 1.252v-27.086c2.4294.2036 4.3651.76 5.8071 1.6693 1.0694.632 2.0735 1.3685 2.9974 2.1986.773-.5636 1.398-1.3057 1.822-2.163.359-.6674.566-1.4061.606-2.163.027-.681-.15-1.3545-.509-1.9339-.355-.5317-.789-1.0055-1.288-1.4047-.965-.6171-1.9873-1.1387-3.0533-1.5574-1.4692-.6311-3.5932-1.0229-6.372-1.1756v-8.876c-.828-.2967-1.7007-.4499-2.5803-.4529-.1171 0-.2189 0-.3308 0v58.1266h2.9111z" fill="#fc6719"/></g></svg>