<svg fill="none" height="179" viewBox="0 0 178 179" width="178" xmlns="http://www.w3.org/2000/svg" xmlns:xlink="http://www.w3.org/1999/xlink"><clipPath id="a"><path d="m27 26h123.673v152.224h-123.673z"/></clipPath><circle cx="89" cy="89" fill="#fffac2" r="89"/><g clip-path="url(#a)"><path d="m150.672 105.726c0-.041 0-.077 0-.117 0-16.4004-6.515-32.1287-18.111-43.7253-11.597-11.5966-27.325-18.1115-43.7251-18.1115h-.1679v134.4518s21.832-1.224 32.832-4.724 29.172-19 29.172-19z" fill="#3d113c"/><path d="m27 105.609v.117 47.274s13.5 12 26.5 18 35.1684 7.224 35.1684 7.224v-134.4518c-16.3709.0445-32.0561 6.579-43.6164 18.1707-11.5602 11.5918-18.0521 27.2947-18.052 43.6661z" fill="#fc6719"/><path d="m75.2981 28.7888h-4.0206c-3.474.0068-6.8035 1.3915-9.2576 3.8504s-3.8324 5.791-3.8324 9.265h2.8806c3.2318-5.7707 8.2154-10.3639 14.23-13.1154z" fill="#fc6719"/><path d="m88.6741 28.6974v-2.6974h-.5089c-7.3765.0059-14.5098 2.6381-20.1221 7.425-5.6122 4.7869-9.3367 11.4158-10.506 18.699-.7121 4.4352-.4532 8.9721.7587 13.2975s3.3481 8.3363 6.261 11.7558 6.5331 6.1662 10.6108 8.0504c4.0778 1.8842 8.5158 2.8611 13.0078 2.8632h.5089v-2.6974-11.4105h-5.0538c-.7352 0-1.4631-.1448-2.1424-.4261-.6792-.2814-1.2963-.6938-1.8162-1.2136-.5199-.5199-.9322-1.137-1.2136-1.8163-.2813-.6792-.4261-1.4072-.4261-2.1423 0-.7352.1448-1.4632.4261-2.1424.2814-.6793.6937-1.2964 1.2136-1.8163.5199-.5198 1.137-.9322 1.8162-1.2136.6793-.2813 1.4072-.4261 2.1424-.4261h5.0538v-34.0889z" fill="#fdb98d"/><path d="m84.898 69.9777c.6718 0 1.2164-.5446 1.2164-1.2164s-.5446-1.2164-1.2164-1.2164-1.2164.5446-1.2164 1.2164.5446 1.2164 1.2164 1.2164z" fill="#fdb98d"/><path d="m75.6708 49.4419c-.1111-.0228-.2257-.0228-.3368 0z" fill="#000"/><path d="m115.281 41.9042h2.768c0-3.4775-1.381-6.8127-3.839-9.2722-2.459-2.4594-5.793-3.8418-9.271-3.8432h-3.888c6.014 2.7515 10.998 7.3447 14.23 13.1154z" fill="#3d113c"/><path d="m118.717 51.4471c-.609-3.354-1.77-6.5838-3.436-9.5579-2.651-4.7502-6.505-8.7191-11.175-11.5082-4.6708-2.789-9.993-4.2999-15.4322-4.381v36.8117h4.0716c1.4847 0 2.9087.5899 3.9586 1.6398s1.6397 2.4738 1.6397 3.9586-.5898 2.9087-1.6397 3.9586-2.4739 1.6398-3.9586 1.6398h-4.0716v14.0824c4.5081-.0738 8.9459-1.1286 13.0052-3.0911 4.059-1.9625 7.642-4.7856 10.5-8.2729 2.857-3.4873 4.921-7.5553 6.048-11.9209 1.126-4.3657 1.288-8.9243.474-13.3589zm-22.0935.8499v-.3817c0-.656.2606-1.2851.7245-1.749.4638-.4639 1.0929-.7245 1.749-.7245h1.583c.111-.0227.225-.0227.336 0h4.168v.3818c0 .3248-.064.6464-.188.9465-.125.3001-.307.5728-.537.8025-.229.2296-.502.4118-.802.5361s-.622.1883-.947.1883z" fill="#fc6719"/><path d="m92.7299 62.8118h-9.1101c-1.4847 0-2.9087.5898-3.9586 1.6397s-1.6397 2.4738-1.6397 3.9586.5898 2.9088 1.6397 3.9587 2.4739 1.6397 3.9586 1.6397h9.105c1.4848 0 2.9087-.5898 3.9586-1.6397s1.6398-2.4739 1.6398-3.9587-.5899-2.9087-1.6398-3.9586-2.4738-1.6397-3.9586-1.6397zm-7.8326 7.1659c-.2404.001-.4756-.0693-.6761-.2019s-.3572-.3216-.4503-.5432c-.0931-.2215-.1185-.4657-.073-.7018.0455-.236.16-.4532.3289-.6242s.3846-.2882.62-.3367c.2355-.0484.48-.0261.7027.0642.2227.0904.4137.2447.5488.4435s.2083.4332.2103.6735c.0013.1602-.029.319-.0892.4675-.0602.1484-.1491.2834-.2617.3974-.1125.114-.2465.2046-.3941.2666-.1477.0621-.3061.0944-.4663.0951zm6.5551 0c-.2407.003-.477-.0655-.6788-.1969s-.36-.3197-.4547-.541c-.0947-.2214-.1216-.4659-.0772-.7026.0444-.2366.158-.4548.3265-.6269.1684-.172.3842-.2902.6198-.3395.2357-.0493.4807-.0276.7041.0625.2233.09.4148.2443.5504.4433s.209.4337.2111.6745c.0027.3217-.1222.6315-.3473.8613-.2251.2299-.5321.3612-.8539.3653z" fill="#fffac2"/><path d="m91.4527 69.9777c.6718 0 1.2164-.5446 1.2164-1.2164s-.5446-1.2164-1.2164-1.2164-1.2164.5446-1.2164 1.2164.5446 1.2164 1.2164 1.2164z" fill="#fc6719"/><path d="m101.017 49.4419c-.112-.0228-.226-.0228-.337 0z" fill="#009688"/><path d="m75.6698 49.4421h-.3206c-.3498.0477-.6693.224-.8962.4945-.2268.2705-.3448.6159-.3308.9686.014.3528.1589.6877.4065.9394.2475.2518.58.4022.9325.4221h.0559c.3739.0187.7401-.111 1.0188-.3608.2788-.2499.4476-.5997.4697-.9734.0222-.3737-.1042-.741-.3515-1.022-.2473-.2811-.5955-.4531-.969-.4786z" fill="#3d113c"/><path d="m77.2537 49.4419h-1.5828c.3735.0255.7218.1975.9691.4786.2473.281.3736.6483.3514 1.022-.0221.3737-.1909.7235-.4697.9734-.2787.2498-.6449.3795-1.0187.3608h-.056c-.3645-.0055-.7128-.151-.973-.4063-.2602-.2552-.4122-.6008-.4247-.9651-.0124-.3643.1158-.7194.3579-.9918.2422-.2724.5799-.4413.9431-.4716h-4.1784v.3817c0 .656.2606 1.2851.7244 1.749.4639.4639 1.093.7245 1.749.7245h6.0819v-.3818c0-.656-.2606-1.2851-.7245-1.7489-.4638-.4639-1.093-.7245-1.749-.7245z" fill="#fff"/><path d="m101.015 49.4421c.35.0477.67.224.896.4945.227.2705.345.6159.331.9686-.014.3528-.159.6877-.406.9394-.248.2518-.58.4022-.933.4221h-.056c-.374.0187-.74-.111-1.0185-.3608-.2788-.2499-.4476-.5997-.4697-.9734-.0222-.3737.1042-.741.3515-1.022.2473-.2811.5957-.4531.9687-.4786h-1.5825c-.656 0-1.2851.2606-1.749.7244-.4639.4639-.7245 1.093-.7245 1.749v.3817h6.082c.656 0 1.285-.2605 1.749-.7244s.724-1.093.724-1.749v-.3817z" fill="#fff"/><path d="m101.016 49.4419h-.336c-.373.0255-.7213.1975-.9686.4786-.2473.281-.3736.6483-.3515 1.022s.191.7235.4697.9734c.2784.2498.6454.3795 1.0184.3608h.056c.353-.0199.685-.1703.933-.422.247-.2518.392-.5867.406-.9395.014-.3527-.104-.6981-.33-.9686-.227-.2705-.547-.4468-.897-.4945z" fill="#3d113c"/></g></svg>