<svg width="179" height="179" viewBox="0 0 179 179" fill="none" xmlns="http://www.w3.org/2000/svg">
<g clip-path="url(#clip0_2831_5893)">
<path d="M28.7559 125.663V154.097C38.6732 163.393 50.5888 170.293 63.5878 174.267V125.663H28.7559Z" fill="#FC6719"/>
<path d="M87.1144 23.8082H83.0684L85.0889 27.5439L87.1144 23.8082Z" fill="#016099"/>
<path d="M66.9773 52.93H89.7576V43.652H70.713V25.0706C65.588 26.7451 61.1231 29.9963 57.9561 34.3597C54.7891 38.7232 53.0818 43.9758 53.0781 49.3674V93.8998C53.0755 95.8701 53.4611 97.8215 54.2131 99.6426C54.9651 101.464 56.0686 103.119 57.4606 104.513C58.8526 105.907 60.5058 107.014 62.3256 107.769C64.1454 108.524 66.0962 108.913 68.0665 108.914H68.7993V105.524C63.3306 100.037 60.2643 92.6029 60.2746 84.8559V59.6124C60.2786 57.8378 60.9867 56.1374 62.2435 54.8845C63.5002 53.6316 65.2028 52.9287 66.9773 52.93V52.93Z" fill="#016099"/>
<path d="M77.4615 23.8389C76.1966 23.8965 74.9378 24.0479 73.6953 24.2918L75.4563 27.544L77.4615 23.8389Z" fill="#016099"/>
<path d="M39.4622 114.196C36.602 114.196 33.8589 115.333 31.8364 117.355C29.814 119.377 28.6777 122.121 28.6777 124.981V125.663H63.5809V114.217H63.8609L39.4622 114.196Z" fill="#FDB98D"/>
<path d="M66.977 52.9299C65.2006 52.9299 63.4971 53.6356 62.241 54.8916C60.9849 56.1477 60.2793 57.8513 60.2793 59.6276V84.8711C60.2887 92.6425 63.3815 100.093 68.8786 105.586C74.3757 111.079 81.828 114.167 89.5994 114.171H89.7572V103.178H87.9046C87.4174 103.178 86.95 102.984 86.6055 102.64C86.2609 102.295 86.0674 101.828 86.0674 101.34V99.7526C86.0674 99.7169 86.0674 99.6813 86.0674 99.6406H87.7621C88.2494 99.6406 88.7167 99.8342 89.0613 100.179C89.4058 100.523 89.5994 100.991 89.5994 101.478C89.5994 101.218 89.6549 100.961 89.7623 100.725V52.9299H66.977ZM70.4683 71.8066H78.3009C80.5301 71.944 82.2605 72.9415 82.2605 74.1477V74.5141H74.7485C72.3667 74.4531 70.4683 73.425 70.4683 72.1577V71.8066ZM73.1453 78.0818C73.4747 77.8535 73.8322 77.6687 74.209 77.5322C74.5975 77.3905 75.0002 77.2915 75.4101 77.237C75.9674 77.1614 76.5323 77.1614 77.0896 77.237C77.4995 77.2915 77.9023 77.3905 78.2907 77.5322C78.6675 77.6687 79.025 77.8535 79.3544 78.0818L82.459 80.2652L79.3544 82.4485C78.4266 83.0391 77.3497 83.3528 76.2499 83.3528C75.1501 83.3528 74.0731 83.0391 73.1453 82.4485L70.0408 80.2652L73.1453 78.0818ZM68.8041 97.7168C67.8308 96.6835 67.2437 95.3462 67.1418 93.9304C67.0399 92.5147 67.4294 91.107 68.2445 89.945C69.0597 88.783 70.2507 87.9377 71.6166 87.5516C72.9826 87.1656 74.4399 87.2624 75.7427 87.8259C77.0455 88.3893 78.1142 89.3848 78.7684 90.6445C79.4226 91.9042 79.6224 93.351 79.334 94.7408C79.0456 96.1306 78.2866 97.3785 77.1852 98.2738C76.0838 99.1692 74.7073 99.6573 73.2878 99.6559C72.4476 99.6565 71.6161 99.4847 70.8449 99.1512C70.0737 98.8177 69.3791 98.3295 68.8041 97.7168V97.7168ZM88.2762 94.8056C88.1007 94.8056 87.9324 94.7359 87.8083 94.6119C87.6843 94.4878 87.6145 94.3195 87.6145 94.144V93.4824H88.2762C88.4516 93.4824 88.6199 93.5521 88.744 93.6762C88.8681 93.8003 88.9378 93.9685 88.9378 94.144C88.9378 94.3195 88.8681 94.4878 88.744 94.6119C88.6199 94.7359 88.4516 94.8056 88.2762 94.8056V94.8056Z" fill="#FFFAC2"/>
<path d="M89.676 19.0752L87.1161 23.8083L85.0905 27.544L83.07 23.8083L80.4439 18.9581H80.1029L77.4615 23.8389L75.4562 27.544L73.6953 24.2918L70.8045 18.9581H70.7129V25.0705V43.652H89.7575V23.8083V19.2279L89.676 19.0752Z" fill="#FDB98D"/>
<path d="M78.3064 71.8066H70.4688V72.1731C70.4688 73.4403 72.3671 74.4684 74.749 74.5295H82.2609V74.163C82.2609 72.9416 80.5305 71.9441 78.3064 71.8066Z" fill="#270E11"/>
<path d="M73.2867 87.2988C72.0657 87.2988 70.8722 87.6608 69.857 88.3392C68.8417 89.0175 68.0505 89.9817 67.5832 91.1097C67.116 92.2378 66.9937 93.4791 67.2319 94.6766C67.4701 95.8741 68.0581 96.9741 68.9214 97.8375C69.7848 98.7009 70.8848 99.2889 72.0824 99.5271C73.2799 99.7653 74.5212 99.643 75.6492 99.1757C76.7773 98.7085 77.7414 97.9172 78.4198 96.902C79.0981 95.8868 79.4602 94.6932 79.4602 93.4722C79.4636 92.6606 79.3062 91.8563 78.9971 91.1058C78.6881 90.3552 78.2335 89.6733 77.6595 89.0994C77.0856 88.5255 76.4037 88.0709 75.6532 87.7618C74.9027 87.4528 74.0984 87.2954 73.2867 87.2988V87.2988Z" fill="#FC6719"/>
<path d="M87.7573 99.6304H86.0625C86.0625 99.666 86.0625 99.7016 86.0625 99.7423V101.335C86.0625 101.823 86.2561 102.29 86.6006 102.634C86.9452 102.979 87.4125 103.173 87.8998 103.173H89.7523V100.714C89.645 100.951 89.5894 101.208 89.5895 101.468C89.5895 100.981 89.3966 100.515 89.0531 100.17C88.7097 99.8259 88.2437 99.6317 87.7573 99.6304V99.6304Z" fill="#FC6719"/>
<path d="M82.1687 80.0413L79.68 79.456C79.1886 79.3445 78.6905 79.2646 78.1888 79.2168C78.4285 79.5987 78.5625 80.0374 78.577 80.4881C78.5915 80.9387 78.4859 81.3851 78.2712 81.7816C78.0565 82.1781 77.7403 82.5104 77.355 82.7445C76.9696 82.9787 76.529 83.1062 76.0782 83.1141C75.6274 83.122 75.1825 83.01 74.7892 82.7895C74.3959 82.569 74.0683 82.248 73.8398 81.8593C73.6113 81.4706 73.4902 81.0281 73.4889 80.5772C73.4876 80.1264 73.6061 79.6832 73.8323 79.2932C73.5167 79.339 73.2165 79.3899 72.9467 79.456L70.2595 80.082L73.1299 78.0463L70.0254 80.2296L73.1299 82.413C74.0577 83.0035 75.1347 83.3172 76.2345 83.3172C77.3343 83.3172 78.4112 83.0035 79.339 82.413L82.4436 80.2296L79.339 78.0463L82.1687 80.0413Z" fill="white"/>
<path d="M73.8219 79.288C73.5957 79.678 73.4772 80.1212 73.4785 80.5721C73.4798 81.023 73.6009 81.4654 73.8294 81.8541C74.0579 82.2428 74.3856 82.5639 74.7789 82.7843C75.1722 83.0048 75.617 83.1168 76.0678 83.1089C76.5186 83.101 76.9593 82.9735 77.3446 82.7394C77.7299 82.5052 78.0461 82.1729 78.2609 81.7765C78.4756 81.38 78.5811 80.9336 78.5666 80.4829C78.5521 80.0323 78.4182 79.5935 78.1785 79.2117C76.7281 79.0701 75.2664 79.0957 73.8219 79.288V79.288Z" fill="#270E11"/>
<path d="M77.0897 77.2166C76.5324 77.141 75.9674 77.141 75.4102 77.2166C75.9674 77.141 76.5324 77.141 77.0897 77.2166Z" fill="#270E11"/>
<path d="M79.3549 78.0666C79.0255 77.8382 78.668 77.6535 78.2912 77.5169C77.9028 77.3752 77.5 77.2762 77.0901 77.2217C76.5328 77.1461 75.9679 77.1461 75.4106 77.2217C75.0007 77.2762 74.598 77.3752 74.2095 77.5169C73.8327 77.6535 73.4752 77.8382 73.1458 78.0666L70.2754 80.1023L72.9372 79.4763C73.212 79.4102 73.5072 79.3593 73.8227 79.3135C75.2672 79.1212 76.7289 79.0955 78.1793 79.2371C78.6809 79.2849 79.179 79.3648 79.6705 79.4763L82.1592 80.0616L79.3549 78.0666Z" fill="#270E11"/>
<path d="M88.2769 94.7954C88.4523 94.7954 88.6206 94.7257 88.7447 94.6016C88.8688 94.4776 88.9385 94.3093 88.9385 94.1338C88.9385 93.9583 88.8688 93.79 88.7447 93.6659C88.6206 93.5419 88.4523 93.4722 88.2769 93.4722H87.6152V94.1541C87.6205 94.3261 87.6926 94.4892 87.8161 94.6089C87.9396 94.7286 88.1048 94.7955 88.2769 94.7954V94.7954Z" fill="#270E11"/>
<path d="M89.5999 114.171C85.7349 114.168 81.9085 113.402 78.3401 111.917C74.7716 110.432 71.5312 108.258 68.8045 105.519V114.217H63.5879V125.658V174.262C72.0194 176.831 80.7856 178.135 89.5999 178.13H89.7577V114.171H89.5999Z" fill="#3D113C"/>
<path d="M89.7567 0H89.5989C71.7328 0.0021641 54.2802 5.37749 39.5088 15.4276C24.7374 25.4777 13.33 39.738 6.76861 56.3557C0.20726 72.9734 -1.20469 91.1803 2.71621 108.611C6.63712 126.042 15.7096 141.89 28.755 154.097V125.663H28.6786V124.981C28.6786 122.121 29.8148 119.377 31.8373 117.355C33.8598 115.333 36.6029 114.196 39.4631 114.196H63.8668H68.8036V108.913H68.0707C66.1017 108.913 64.1521 108.526 62.333 107.772C60.5139 107.019 58.861 105.914 57.4688 104.522C56.0765 103.13 54.9721 101.477 54.2186 99.6578C53.4651 97.8387 53.0773 95.889 53.0773 93.9201V49.3673C53.0778 43.9731 54.7835 38.7171 57.9508 34.3505C61.118 29.984 65.5846 26.7306 70.7121 25.0552V18.9479H70.8037L73.6894 24.2816C74.9319 24.0377 76.1907 23.8863 77.4556 23.8286L80.097 18.9479H80.438L83.0641 23.7981H87.1102L89.6549 19.0649L89.7364 19.2176L92.2149 23.7981H96.261L98.8871 18.9479H99.0703L101.712 23.8286C102.977 23.8863 104.235 24.0377 105.478 24.2816L108.364 18.9479H108.455V25.0552C113.588 26.7253 118.062 29.9765 121.235 34.3435C124.408 38.7104 126.118 43.9693 126.121 49.3673V93.8997C126.123 95.87 125.738 97.8214 124.986 99.6425C124.234 101.464 123.13 103.119 121.738 104.513C120.346 105.907 118.693 107.014 116.873 107.769C115.053 108.524 113.102 108.913 111.132 108.913H110.399V114.227H115.336H139.74C142.6 114.227 145.343 115.363 147.366 117.386C149.388 119.408 150.524 122.151 150.524 125.011V125.693H150.453V154.128C163.5 141.931 172.579 126.094 176.511 108.672C180.443 91.2496 179.046 73.0479 172.501 56.4299C165.957 39.8119 154.568 25.5452 139.812 15.4823C125.057 5.41943 107.617 0.0251942 89.7567 0V0Z" fill="#00BCB4"/>
<path d="M115.611 125.663V174.267C128.61 170.293 140.526 163.393 150.443 154.097V125.663H115.611Z" fill="#FC6719"/>
<path d="M96.2863 23.8082H92.2402L94.2607 27.5439L96.2863 23.8082Z" fill="#3D113C"/>
<path d="M105.504 24.2918C104.262 24.0479 103.003 23.8965 101.738 23.8389L103.744 27.544L105.504 24.2918Z" fill="#3D113C"/>
<path d="M108.487 25.0706V43.652H89.7578V52.93H112.217C113.994 52.93 115.697 53.6357 116.953 54.8917C118.209 56.1478 118.915 57.8514 118.915 59.6277V84.8712C118.925 92.618 115.859 100.052 110.39 105.539V108.914H111.123C113.092 108.914 115.042 108.526 116.861 107.772C118.68 107.019 120.333 105.914 121.725 104.522C123.117 103.13 124.222 101.477 124.975 99.6579C125.729 97.8388 126.117 95.8891 126.117 93.9202V49.3674C126.113 43.9764 124.407 38.7243 121.241 34.3609C118.075 29.9975 113.611 26.746 108.487 25.0706V25.0706Z" fill="#3D113C"/>
<path d="M115.61 125.663H150.518V124.981C150.518 122.121 149.382 119.377 147.36 117.355C145.337 115.333 142.594 114.196 139.734 114.196H115.33H115.61V125.663Z" fill="#FDB98D"/>
<path d="M112.222 52.9299H89.757V100.735C89.9021 100.412 90.1373 100.138 90.4343 99.9458C90.7314 99.7535 91.0776 99.651 91.4315 99.6508H93.1262V101.33C93.1253 101.808 92.9401 102.266 92.6091 102.611C92.2782 102.955 91.8271 103.158 91.35 103.178H89.752V114.171C95.6938 114.151 101.488 112.316 106.359 108.914C110.237 106.214 113.405 102.617 115.592 98.4292C117.779 94.241 118.921 89.5859 118.919 84.8609V59.6174C118.917 57.8429 118.21 56.1419 116.954 54.888C115.698 53.6342 113.996 52.9299 112.222 52.9299V52.9299ZM91.5841 94.1542C91.5841 94.2851 91.5453 94.413 91.4726 94.5218C91.3999 94.6306 91.2966 94.7154 91.1757 94.7655C91.0548 94.8155 90.9218 94.8286 90.7934 94.8031C90.6651 94.7776 90.5472 94.7146 90.4547 94.622C90.3621 94.5295 90.2991 94.4116 90.2736 94.2833C90.2481 94.1549 90.2612 94.0219 90.3113 93.901C90.3613 93.7801 90.4461 93.6768 90.5549 93.6041C90.6637 93.5314 90.7917 93.4926 90.9225 93.4926H91.5841V94.1542ZM96.9382 74.1681C96.9382 72.9008 98.8366 71.8727 101.218 71.8117H108.73V72.1781C108.73 73.3894 107 74.3818 104.771 74.5192H96.9382V74.1681ZM99.8443 78.0818C99.9528 78.0072 100.065 77.9359 100.18 77.8681C100.413 77.7344 100.656 77.6203 100.908 77.5271C101.275 77.3932 101.656 77.2977 102.043 77.2421H102.155L102.562 77.2014C102.971 77.1761 103.382 77.1915 103.789 77.2472L104.201 77.3184C104.603 77.4007 104.994 77.5288 105.366 77.7001C105.488 77.7578 105.607 77.8189 105.723 77.8833C105.838 77.9478 105.95 78.0191 106.058 78.0971L109.163 80.2805L106.058 82.4638C105.131 83.0544 104.054 83.368 102.954 83.368C101.854 83.368 100.777 83.0544 99.8494 82.4638L96.7448 80.2805L99.8443 78.0818ZM110.395 97.7168C109.41 98.7545 108.094 99.4166 106.674 99.5894C105.254 99.7622 103.819 99.4348 102.614 98.6636C101.409 97.8923 100.511 96.7253 100.073 95.3634C99.6354 94.0014 99.6861 92.5296 100.216 91.2009C100.746 89.8723 101.723 88.7699 102.978 88.0833C104.233 87.3967 105.688 87.1689 107.093 87.4389C108.498 87.709 109.764 88.4601 110.675 89.563C111.586 90.666 112.085 92.0519 112.084 93.4824C112.085 95.0582 111.48 96.574 110.395 97.7168V97.7168Z" fill="#00BCB4"/>
<path d="M108.395 18.9581L105.504 24.2918L103.744 27.544L101.738 23.8389L99.0969 18.9581H98.9137L96.2875 23.8083L94.2619 27.544L92.2414 23.8083L89.7578 19.2279V23.8083V43.652H108.487V25.0705V18.9581H108.395Z" fill="#FC6719"/>
<path d="M104.298 71.7861H101.214C98.8319 71.8472 96.9336 72.8753 96.9336 74.1425V74.509H104.766C106.995 74.3716 108.726 73.374 108.726 72.1678V71.8014L104.298 71.7861Z" fill="#270E11"/>
<path d="M110.394 89.2379C109.409 88.2002 108.094 87.538 106.674 87.3653C105.254 87.1925 103.818 87.5199 102.613 88.2911C101.408 89.0624 100.51 90.2293 100.072 91.5913C99.6347 92.9533 99.6854 94.4251 100.216 95.7538C100.746 97.0824 101.722 98.1848 102.977 98.8714C104.232 99.558 105.687 99.7858 107.092 99.5158C108.497 99.2457 109.764 98.4946 110.675 97.3917C111.586 96.2887 112.084 94.9028 112.084 93.4723C112.084 91.8965 111.479 90.3807 110.394 89.2379Z" fill="#3D113C"/>
<path d="M91.361 103.173C91.8381 103.153 92.2891 102.95 92.6201 102.606C92.951 102.261 93.1363 101.803 93.1372 101.325V99.6456H91.4322C91.0784 99.6459 90.7321 99.7483 90.4351 99.9406C90.1381 100.133 89.9029 100.407 89.7578 100.73V103.188L91.361 103.173Z" fill="#3D113C"/>
<path d="M106.052 82.4486L109.156 80.2652L106.052 78.0819L108.861 80.0565L106.393 79.4509C105.901 79.3394 105.403 79.2595 104.902 79.2117C105.141 79.5936 105.275 80.0323 105.29 80.483C105.304 80.9336 105.199 81.38 104.984 81.7765C104.769 82.173 104.453 82.5053 104.068 82.7394C103.682 82.9735 103.242 83.1011 102.791 83.109C102.34 83.1169 101.895 83.0049 101.502 82.7844C101.109 82.5639 100.781 82.2429 100.553 81.8542C100.324 81.4654 100.203 81.023 100.202 80.5721C100.2 80.1212 100.319 79.6781 100.545 79.288C100.23 79.3338 99.9293 79.3847 99.6596 79.4509L96.9978 80.0769L99.8682 78.0411L96.7637 80.2245L99.8682 82.4079C100.789 82.9994 101.859 83.3172 102.954 83.3244C104.049 83.3316 105.123 83.0279 106.052 82.4486V82.4486Z" fill="white"/>
<path d="M100.521 79.288C100.295 79.678 100.176 80.1212 100.178 80.5721C100.179 81.023 100.3 81.4654 100.529 81.8541C100.757 82.2428 101.085 82.5639 101.478 82.7843C101.871 83.0048 102.316 83.1168 102.767 83.1089C103.218 83.101 103.658 82.9735 104.044 82.7394C104.429 82.5052 104.745 82.1729 104.96 81.7765C105.175 81.38 105.28 80.9336 105.266 80.4829C105.251 80.0323 105.117 79.5935 104.878 79.2117C103.427 79.0701 101.966 79.0957 100.521 79.288V79.288Z" fill="#270E11"/>
<path d="M103.783 77.2166C103.377 77.1609 102.966 77.1456 102.557 77.1708C102.966 77.1456 103.377 77.161 103.783 77.2166V77.2166Z" fill="#FBF9C6"/>
<path d="M106.054 78.0671C105.945 77.9923 105.832 77.9208 105.717 77.8528C105.832 77.9174 105.945 77.9889 106.054 78.0671Z" fill="#FBF9C6"/>
<path d="M104.195 77.288C104.597 77.3703 104.988 77.4984 105.361 77.6697C104.988 77.4983 104.597 77.3703 104.195 77.288V77.288Z" fill="#FBF9C6"/>
<path d="M106.053 78.0665C105.945 77.9919 105.833 77.9206 105.717 77.8528C105.602 77.7849 105.483 77.7238 105.361 77.6696C104.989 77.4983 104.598 77.3702 104.196 77.2879L103.783 77.2166C103.377 77.161 102.966 77.1456 102.557 77.1708L102.15 77.2115H102.038C101.651 77.2672 101.27 77.3627 100.903 77.4965C100.651 77.5898 100.408 77.7038 100.175 77.8375C100.06 77.902 99.9478 77.9732 99.8392 78.0513L96.9688 80.087L99.6305 79.461C99.9053 79.3949 100.201 79.344 100.516 79.2982C101.961 79.1059 103.422 79.0803 104.873 79.2218C105.374 79.2696 105.872 79.3495 106.364 79.461L108.853 80.0463L106.053 78.0665Z" fill="#270E11"/>
<path d="M90.2617 94.1542C90.2617 94.3297 90.3314 94.4979 90.4555 94.622C90.5796 94.7461 90.7479 94.8158 90.9233 94.8158C91.0988 94.8158 91.2671 94.7461 91.3912 94.622C91.5153 94.4979 91.585 94.3297 91.585 94.1542V93.4926H90.9233C90.7479 93.4926 90.5796 93.5623 90.4555 93.6863C90.3314 93.8104 90.2617 93.9787 90.2617 94.1542V94.1542Z" fill="#270E11"/>
<path d="M115.331 114.217H110.394V105.519C109.153 106.767 107.802 107.901 106.358 108.908C101.491 112.311 95.7006 114.147 89.7617 114.171V178.13C98.368 178.12 106.927 176.864 115.173 174.399L115.616 174.267V125.663V114.217H115.331Z" fill="#270E11"/>
</g>
<defs>
<clipPath id="clip0_2831_5893">
<rect width="178.13" height="178.13" fill="white" transform="translate(0.535156)"/>
</clipPath>
</defs>
</svg>
