<svg fill="none" height="179" viewBox="0 0 179 179" width="179" xmlns="http://www.w3.org/2000/svg" xmlns:xlink="http://www.w3.org/1999/xlink"><clipPath id="a"><path d="m.535156 0h178.13v178.13h-178.13z"/></clipPath><g clip-path="url(#a)"><path d="m28.7559 125.663v28.434c9.9173 9.296 21.8329 16.196 34.8319 20.17v-48.604z" fill="#fc6719"/><path d="m87.1144 23.8082h-4.046l2.0205 3.7357z" fill="#016099"/><path d="m66.9773 52.93h22.7803v-9.278h-19.0446v-18.5814c-5.125 1.6745-9.5899 4.9257-12.7569 9.2891-3.167 4.3635-4.8743 9.6161-4.878 15.0077v44.5324c-.0026 1.9703.383 3.9217 1.135 5.7428.752 1.8214 1.8555 3.4764 3.2475 4.8704s3.0452 2.501 4.865 3.256 3.7706 1.144 5.7409 1.145h.7328v-3.39c-5.4687-5.487-8.535-12.9211-8.5247-20.6681v-25.2435c.004-1.7746.7121-3.475 1.9689-4.7279 1.2567-1.2529 2.9593-1.9558 4.7338-1.9545z" fill="#016099"/><path d="m77.4615 23.8389c-1.2649.0576-2.5237.209-3.7662.4529l1.761 3.2522z" fill="#016099"/><path d="m39.4622 114.196c-2.8602 0-5.6033 1.137-7.6258 3.159-2.0224 2.022-3.1587 4.766-3.1587 7.626v.682h34.9032v-11.446h.28z" fill="#fdb98d"/><path d="m66.977 52.9299c-1.7764 0-3.4799.7057-4.736 1.9617-1.2561 1.2561-1.9617 2.9597-1.9617 4.736v25.2435c.0094 7.7714 3.1022 15.2219 8.5993 20.7149s12.9494 8.581 20.7208 8.585h.1578v-10.993h-1.8526c-.4872 0-.9546-.194-1.2991-.538-.3446-.345-.5381-.812-.5381-1.3v-1.5874c0-.0357 0-.0713 0-.112h1.6947c.4873 0 .9546.1936 1.2992.5384.3445.344.5381.812.5381 1.299 0-.26.0555-.517.1629-.753v-47.7951zm3.4913 18.8767h7.8326c2.2292.1374 3.9596 1.1349 3.9596 2.3411v.3664h-7.512c-2.3818-.061-4.2802-1.0891-4.2802-2.3564zm2.677 6.2752c.3294-.2283.6869-.4131 1.0637-.5496.3885-.1417.7912-.2407 1.2011-.2952.5573-.0756 1.1222-.0756 1.6795 0 .4099.0545.8127.1535 1.2011.2952.3768.1365.7343.3213 1.0637.5496l3.1046 2.1834-3.1046 2.1833c-.9278.5906-2.0047.9043-3.1045.9043s-2.1768-.3137-3.1046-.9043l-3.1045-2.1833zm-4.3412 19.635c-.9733-1.0333-1.5604-2.3706-1.6623-3.7864-.1019-1.4157.2876-2.8234 1.1027-3.9854.8152-1.162 2.0062-2.0073 3.3721-2.3934 1.366-.386 2.8233-.2892 4.1261.2743 1.3028.5634 2.3715 1.5589 3.0257 2.8186s.854 2.7065.5656 4.0963-1.0474 2.6377-2.1488 3.533c-1.1014.8954-2.4779 1.3835-3.8974 1.3821-.8402.0006-1.6717-.1712-2.4429-.5047s-1.4658-.8217-2.0408-1.4344zm19.4721-2.9112c-.1755 0-.3438-.0697-.4679-.1937-.124-.1241-.1938-.2924-.1938-.4679v-.6616h.6617c.1754 0 .3437.0697.4678.1938s.1938.2923.1938.4678-.0697.3438-.1938.4679c-.1241.124-.2924.1937-.4678.1937z" fill="#fffac2"/><path d="m89.676 19.0752-2.5599 4.7331-2.0256 3.7357-2.0205-3.7357-2.6261-4.8502h-.341l-2.6414 4.8808-2.0053 3.7051-1.7609-3.2522-2.8908-5.3337h-.0916v6.1124 18.5815h19.0446v-19.8437-4.5804z" fill="#fdb98d"/><path d="m78.3064 71.8066h-7.8376v.3665c0 1.2672 1.8983 2.2953 4.2802 2.3564h7.5119v-.3665c0-1.2214-1.7304-2.2189-3.9545-2.3564z" fill="#270e11"/><path d="m73.2867 87.2988c-1.221 0-2.4145.362-3.4297 1.0404-1.0153.6783-1.8065 1.6425-2.2738 2.7705-.4672 1.1281-.5895 2.3694-.3513 3.5669s.8262 2.2975 1.6895 3.1609c.8634.8634 1.9634 1.4514 3.161 1.6896 1.1975.2382 2.4388.1159 3.5668-.3514 1.1281-.4672 2.0922-1.2585 2.7706-2.2737.6783-1.0152 1.0404-2.2088 1.0404-3.4298.0034-.8116-.154-1.6159-.4631-2.3664-.309-.7506-.7636-1.4325-1.3376-2.0064-.5739-.5739-1.2558-1.0285-2.0063-1.3376-.7505-.309-1.5548-.4664-2.3665-.463z" fill="#fc6719"/><path d="m87.7573 99.6304h-1.6948v.1119 1.5927c0 .488.1936.955.5381 1.299.3446.345.8119.539 1.2992.539h1.8525v-2.459c-.1073.237-.1629.494-.1628.754 0-.487-.1929-.953-.5364-1.298-.3434-.3441-.8094-.5383-1.2958-.5396z" fill="#fc6719"/><path d="m82.1687 80.0413-2.4887-.5853c-.4914-.1115-.9895-.1914-1.4912-.2392.2397.3819.3737.8206.3882 1.2713.0145.4506-.0911.897-.3058 1.2935s-.5309.7288-.9162.9629c-.3854.2342-.826.3617-1.2768.3696s-.8957-.1041-1.289-.3246-.7209-.5415-.9494-.9302-.3496-.8312-.3509-1.2821c-.0013-.4508.1172-.894.3434-1.284-.3156.0458-.6158.0967-.8856.1628l-2.6872.626 2.8704-2.0357-3.1045 2.1833 3.1045 2.1834c.9278.5905 2.0048.9042 3.1046.9042s2.1767-.3137 3.1045-.9042l3.1046-2.1834-3.1046-2.1833z" fill="#fff"/><g fill="#270e11"><path d="m73.8219 79.288c-.2262.39-.3447.8332-.3434 1.2841s.1224.8933.3509 1.282.5562.7098.9495.9302c.3933.2205.8381.3325 1.2889.3246s.8915-.1354 1.2768-.3695c.3853-.2342.7015-.5665.9163-.9629.2147-.3965.3202-.8429.3057-1.2936-.0145-.4506-.1484-.8894-.3881-1.2712-1.4504-.1416-2.9121-.116-4.3566.0763z"/><path d="m77.0897 77.2166c-.5573-.0756-1.1223-.0756-1.6795 0 .5572-.0756 1.1222-.0756 1.6795 0z"/><path d="m79.3549 78.0666c-.3294-.2284-.6869-.4131-1.0637-.5497-.3884-.1417-.7912-.2407-1.2011-.2952-.5573-.0756-1.1222-.0756-1.6795 0-.4099.0545-.8126.1535-1.2011.2952-.3768.1366-.7343.3213-1.0637.5497l-2.8704 2.0357 2.6618-.626c.2748-.0661.57-.117.8855-.1628 1.4445-.1923 2.9062-.218 4.3566-.0764.5016.0478.9997.1277 1.4912.2392l2.4887.5853z"/><path d="m88.2769 94.7954c.1754 0 .3437-.0697.4678-.1938.1241-.124.1938-.2923.1938-.4678s-.0697-.3438-.1938-.4679c-.1241-.124-.2924-.1937-.4678-.1937h-.6617v.6819c.0053.172.0774.3351.2009.4548s.2887.1866.4608.1865z"/></g><path d="m89.5999 114.171c-3.865-.003-7.6914-.769-11.2598-2.254-3.5685-1.485-6.8089-3.659-9.5356-6.398v8.698h-5.2166v11.441 48.604c8.4315 2.569 17.1977 3.873 26.012 3.868h.1578v-63.959z" fill="#3d113c"/><path d="m89.7567 0h-.1578c-17.8661.0021641-35.3187 5.37749-50.0901 15.4276-14.7714 10.0501-26.1788 24.3104-32.74019 40.9281-6.56135 16.6177-7.9733 34.8246-4.0524 52.2553 3.92091 17.431 12.99339 33.279 26.03879 45.486v-28.434h-.0764v-.682c0-2.86 1.1362-5.604 3.1587-7.626s4.7656-3.159 7.6258-3.159h24.4037 4.9368v-5.283h-.7329c-1.969 0-3.9186-.387-5.7377-1.141-1.8191-.753-3.472-1.858-4.8642-3.25-1.3923-1.392-2.4967-3.045-3.2502-4.8642-.7535-1.8191-1.1413-3.7688-1.1413-5.7377v-44.5528c.0005-5.3942 1.7062-10.6502 4.8735-15.0168 3.1672-4.3665 7.6338-7.6199 12.7613-9.2953v-6.1073h.0916l2.8857 5.3337c1.2425-.2439 2.5013-.3953 3.7662-.453l2.6414-4.8807h.341l2.6261 4.8502h4.0461l2.5447-4.7332.0815.1527 2.4785 4.5805h4.0461l2.6261-4.8502h.1832l2.6417 4.8807c1.265.0577 2.523.2091 3.766.453l2.886-5.3337h.091v6.1073c5.133 1.6701 9.607 4.9213 12.78 9.2883 3.173 4.3669 4.883 9.6258 4.886 15.0238v44.5324c.002 1.9703-.383 3.9217-1.135 5.7428-.752 1.8215-1.856 3.4765-3.248 4.8705s-3.045 2.501-4.865 3.256-3.771 1.144-5.741 1.144h-.733v5.314h4.937 24.404c2.86 0 5.603 1.136 7.626 3.159 2.022 2.022 3.158 4.765 3.158 7.625v.682h-.071v28.435c13.047-12.197 22.126-28.034 26.058-45.456 3.932-17.4224 2.535-35.6241-4.01-52.2421-6.544-16.618-17.933-30.8847-32.689-40.9476-14.755-10.06287-32.195-15.4571058-50.0553-15.4823z" fill="#00bcb4"/><path d="m115.611 125.663v48.604c12.999-3.974 24.915-10.874 34.832-20.17v-28.434z" fill="#fc6719"/><path d="m96.2863 23.8082h-4.0461l2.0205 3.7357z" fill="#3d113c"/><path d="m105.504 24.2918c-1.242-.2439-2.501-.3953-3.766-.4529l2.006 3.7051z" fill="#3d113c"/><path d="m108.487 25.0706v18.5814h-18.7292v9.278h22.4592c1.777 0 3.48.7057 4.736 1.9617 1.256 1.2561 1.962 2.9597 1.962 4.736v25.2435c.01 7.7468-3.056 15.1808-8.525 20.6678v3.375h.733c1.969 0 3.919-.388 5.738-1.142 1.819-.753 3.472-1.858 4.864-3.25s2.497-3.045 3.25-4.8641c.754-1.8191 1.142-3.7688 1.142-5.7377v-44.5528c-.004-5.391-1.71-10.6431-4.876-15.0065s-7.63-7.6149-12.754-9.2903z" fill="#3d113c"/><path d="m115.61 125.663h34.908v-.682c0-2.86-1.136-5.604-3.158-7.626-2.023-2.022-4.766-3.159-7.626-3.159h-24.404.28z" fill="#fdb98d"/><path d="m112.222 52.9299h-22.465v47.8051c.1451-.323.3803-.597.6773-.7892.2971-.1923.6433-.2948.9972-.295h1.6947v1.6792c-.0009.478-.1861.936-.5171 1.281-.3309.344-.782.547-1.2591.567h-1.598v10.993c5.9418-.02 11.736-1.855 16.607-5.257 3.878-2.7 7.046-6.297 9.233-10.4848 2.187-4.1882 3.329-8.8433 3.327-13.5683v-25.2435c-.002-1.7745-.709-3.4755-1.965-4.7294-1.256-1.2538-2.958-1.9581-4.732-1.9581zm-20.6379 41.2243c0 .1309-.0388.2588-.1115.3676s-.176.1936-.2969.2437c-.1209.05-.2539.0631-.3823.0376-.1283-.0255-.2462-.0885-.3387-.1811-.0926-.0925-.1556-.2104-.1811-.3387-.0255-.1284-.0124-.2614.0377-.3823.05-.1209.1348-.2242.2436-.2969s.2368-.1115.3676-.1115h.6616zm5.3541-19.9861c0-1.2673 1.8984-2.2954 4.2798-2.3564h7.512v.3664c0 1.2113-1.73 2.2037-3.959 2.3411h-7.8328zm2.9061 3.9137c.1085-.0746.2207-.1459.3357-.2137.233-.1337.476-.2478.728-.341.367-.1339.748-.2294 1.135-.285h.112l.407-.0407c.409-.0253.82-.0099 1.227.0458l.412.0712c.402.0823.793.2104 1.165.3817.122.0577.241.1188.357.1832.115.0645.227.1358.335.2138l3.105 2.1834-3.105 2.1833c-.927.5906-2.004.9042-3.104.9042s-2.177-.3136-3.1046-.9042l-3.1046-2.1833zm10.5507 19.635c-.985 1.0377-2.301 1.6998-3.721 1.8726s-2.855-.1546-4.06-.9258c-1.205-.7713-2.103-1.9383-2.541-3.3002-.4376-1.362-.3869-2.8338.143-4.1625.53-1.3286 1.507-2.431 2.762-3.1176s2.71-.9144 4.115-.6444c1.405.2701 2.671 1.0212 3.582 2.1241.911 1.103 1.41 2.4889 1.409 3.9194.001 1.5758-.604 3.0916-1.689 4.2344z" fill="#00bcb4"/><path d="m108.395 18.9581-2.891 5.3337-1.76 3.2522-2.006-3.7051-2.6411-4.8808h-.1832l-2.6262 4.8502-2.0256 3.7357-2.0205-3.7357-2.4836-4.5804v4.5804 19.8437h18.7292v-18.5815-6.1124z" fill="#fc6719"/><path d="m104.298 71.7861h-3.084c-2.3821.0611-4.2804 1.0892-4.2804 2.3564v.3665h7.8324c2.229-.1374 3.96-1.135 3.96-2.3412v-.3664z" fill="#270e11"/><path d="m110.394 89.2379c-.985-1.0377-2.3-1.6999-3.72-1.8726-1.42-.1728-2.856.1546-4.061.9258-1.205.7713-2.103 1.9382-2.541 3.3002-.4373 1.362-.3866 2.8338.144 4.1625.53 1.3286 1.506 2.431 2.761 3.1176s2.71.9144 4.115.6444c1.405-.2701 2.672-1.0212 3.583-2.1241.911-1.103 1.409-2.4889 1.409-3.9194 0-1.5758-.605-3.0916-1.69-4.2344z" fill="#3d113c"/><path d="m91.361 103.173c.4771-.02.9281-.223 1.2591-.567.3309-.345.5162-.803.5171-1.281v-1.6794h-1.705c-.3538.0003-.7001.1027-.9971.295-.297.1924-.5322.4664-.6773.7894v2.458z" fill="#3d113c"/><path d="m106.052 82.4486 3.104-2.1834-3.104-2.1833 2.809 1.9746-2.468-.6056c-.492-.1115-.99-.1914-1.491-.2392.239.3819.373.8206.388 1.2713.014.4506-.091.897-.306 1.2935s-.531.7288-.916.9629c-.386.2341-.826.3617-1.277.3696s-.896-.1041-1.289-.3246-.721-.5415-.949-.9302c-.229-.3888-.35-.8312-.351-1.2821-.002-.4509.117-.894.343-1.2841-.315.0458-.6157.0967-.8854.1629l-2.6618.626 2.8704-2.0358-3.1045 2.1834 3.1045 2.1834c.9208.5915 1.9908.9093 3.0858.9165s2.169-.2965 3.098-.8758z" fill="#fff"/><path d="m100.521 79.288c-.226.39-.345.8332-.343 1.2841.001.4509.122.8933.351 1.282.228.3887.556.7098.949.9302.393.2205.838.3325 1.289.3246s.891-.1354 1.277-.3695c.385-.2342.701-.5665.916-.9629.215-.3965.32-.8429.306-1.2936-.015-.4506-.149-.8894-.388-1.2712-1.451-.1416-2.912-.116-4.357.0763z" fill="#270e11"/><path d="m103.783 77.2166c-.406-.0557-.817-.071-1.226-.0458.409-.0252.82-.0098 1.226.0458z" fill="#fbf9c6"/><path d="m106.054 78.0671c-.109-.0748-.222-.1463-.337-.2143.115.0646.228.1361.337.2143z" fill="#fbf9c6"/><path d="m104.195 77.288c.402.0823.793.2104 1.166.3817-.373-.1714-.764-.2994-1.166-.3817z" fill="#fbf9c6"/><path d="m106.053 78.0665c-.108-.0746-.22-.1459-.336-.2137-.115-.0679-.234-.129-.356-.1832-.372-.1713-.763-.2994-1.165-.3817l-.413-.0713c-.406-.0556-.817-.071-1.226-.0458l-.407.0407h-.112c-.387.0557-.768.1512-1.135.285-.252.0933-.495.2073-.728.341-.115.0645-.2272.1357-.3358.2138l-2.8704 2.0357 2.6617-.626c.2748-.0661.5705-.117.8855-.1628 1.445-.1923 2.906-.2179 4.357-.0764.501.0478.999.1277 1.491.2392l2.489.5853z" fill="#270e11"/><path d="m90.2617 94.1542c0 .1755.0697.3437.1938.4678s.2924.1938.4678.1938c.1755 0 .3438-.0697.4679-.1938s.1938-.2923.1938-.4678v-.6616h-.6617c-.1754 0-.3437.0697-.4678.1937-.1241.1241-.1938.2924-.1938.4679z" fill="#270e11"/><path d="m115.331 114.217h-4.937v-8.698c-1.241 1.248-2.592 2.382-4.036 3.389-4.867 3.403-10.6574 5.239-16.5963 5.263v63.959c8.6063-.01 17.1653-1.266 25.4113-3.731l.443-.132v-48.604-11.446z" fill="#270e11"/></g></svg>