<svg width="179" height="179" viewBox="0 0 179 179" fill="none" xmlns="http://www.w3.org/2000/svg">
<g clip-path="url(#clip0_2831_6489)">
<path d="M40.0235 132.342V109.714H42.4105V100.971C42.4105 100.037 42.7815 99.141 43.442 98.4805C44.1025 97.82 44.9983 97.449 45.9324 97.449H46.8383V64.3678V47.2114C46.8383 45.9468 46.4688 44.7098 45.7753 43.6524C45.0818 42.595 44.0944 41.7633 42.9346 41.2595C41.7747 40.7557 40.4929 40.6017 39.2468 40.8166C38.0006 41.0314 36.8444 41.6057 35.9202 42.4688C34.996 43.3319 34.3442 44.4462 34.0448 45.6748C33.7454 46.9034 33.8115 48.1927 34.2349 49.3843C34.6584 50.5758 35.4208 51.6176 36.4284 52.3817C37.436 53.1458 38.6449 53.5988 39.9065 53.6851V57.1357C37.9635 57.045 36.0899 56.386 34.518 55.2403C32.9461 54.0946 31.7451 52.5126 31.064 50.6906C30.3829 48.8687 30.2517 46.8868 30.6865 44.9909C31.1214 43.0951 32.1033 41.3686 33.5103 40.0255C34.9174 38.6825 36.6877 37.7821 38.6018 37.436C40.5159 37.0899 42.4894 37.3133 44.2777 38.0784C46.066 38.8436 47.5903 40.1169 48.6616 41.7405C49.7329 43.364 50.304 45.2663 50.3042 47.2114C50.3042 47.2114 50.3042 47.2368 50.3042 47.2521V97.4388H50.5026C52.2502 94.1027 54.7112 91.1926 57.7107 88.9153C60.7103 86.6379 64.1746 85.0493 67.8576 84.2623V80.145C66.6914 79.7283 65.6826 78.9614 64.9692 77.9492C64.2558 76.937 63.8728 75.729 63.8725 74.4906V61.1971C63.8725 61.1615 63.8725 61.1258 63.8725 61.0851H54.9355V54.6928H64.4222C64.7098 49.4953 66.9775 44.6054 70.7591 41.0283C74.5407 37.4511 79.549 35.4585 84.7544 35.4599H94.7297C99.9351 35.4585 104.943 37.4511 108.725 41.0283C112.507 44.6054 114.774 49.4953 115.062 54.6928H124.549V61.0902H115.622C115.622 61.1258 115.622 61.1615 115.622 61.2022V74.4906C115.621 75.7302 115.236 76.9391 114.521 77.9515C113.806 78.9638 112.795 79.73 111.627 80.145V84.2623C117.056 85.4259 121.961 88.3224 125.601 92.5156C129.242 96.7087 131.421 101.971 131.811 107.511H131.852C133.814 107.513 135.754 107.921 137.55 108.709C139.347 109.497 140.961 110.649 142.29 112.091H154.825C154.825 112.091 154.825 112.132 154.825 112.157C154.825 113.105 154.639 114.044 154.276 114.919C153.913 115.795 153.382 116.59 152.712 117.26C152.042 117.931 151.246 118.462 150.37 118.825C149.495 119.188 148.556 119.374 147.609 119.374H145.878C146.01 120.154 146.077 120.944 146.077 121.736V134.149C146.26 134.149 146.443 134.149 146.626 134.149C149.584 134.148 152.491 134.917 155.06 136.382C157.629 137.846 159.773 139.955 161.279 142.5C172.076 127.937 178.171 110.425 178.75 92.3045C179.329 74.1842 174.365 56.3188 164.52 41.0951C154.676 25.8714 140.42 14.0145 123.657 7.1087C106.894 0.202897 88.4234 -1.42295 70.7121 2.4484C53.0008 6.31974 36.8927 15.5039 24.54 28.7738C12.1873 42.0436 4.17836 58.7672 1.58327 76.7099C-1.01182 94.6527 1.93053 112.96 10.0172 129.186C18.1038 145.412 30.9496 158.784 46.8383 167.515V142.282C44.832 141.506 43.1073 140.142 41.891 138.368C40.6747 136.594 40.0237 134.493 40.0235 132.342V132.342Z" fill="#FFFAC2"/>
<path d="M85.5595 112.728C83.1849 112.73 80.8341 112.254 78.6479 111.327C76.4617 110.4 74.485 109.041 72.8359 107.333V176.91C78.4079 177.981 84.0691 178.519 89.743 178.518V112.728H85.5595Z" fill="#FFFAC2"/>
<path d="M72.8359 107.328C74.4849 109.036 76.4617 110.395 78.6479 111.322C80.8341 112.249 83.1849 112.725 85.5595 112.722H89.743V93.2198H86.4196C85.8675 93.2198 85.338 93.0005 84.9477 92.6101C84.5573 92.2198 84.338 91.6903 84.338 91.1382H89.743V87.1074H82.1088C79.9441 87.105 77.8258 86.48 76.0066 85.3068C74.1873 84.1337 72.7439 82.462 71.8486 80.4912C71.7061 80.1807 71.5788 79.8652 71.4669 79.5395C71.0438 78.3411 70.827 77.0797 70.8256 75.8089V75.1066C69.9374 74.8125 69.1643 74.2462 68.6162 73.4879C68.0681 72.7297 67.7727 71.818 67.772 70.8824V64.2407H70.8256V61.0903H63.8633C63.8633 61.126 63.8633 61.1616 63.8633 61.2023V74.4908C63.8643 75.7303 64.2488 76.9392 64.9641 77.9516C65.6794 78.9639 66.6904 79.7302 67.8585 80.1451V95.0113C67.8504 99.6083 69.6362 104.027 72.8359 107.328V107.328Z" fill="#016099"/>
<path d="M50.3046 47.2676C50.3046 47.2676 50.3046 47.2421 50.3046 47.2268C50.3047 45.2808 49.7332 43.3776 48.6611 41.7535C47.5891 40.1295 46.0636 38.856 44.2741 38.0913C42.4847 37.3265 40.51 37.1042 38.5953 37.4518C36.6806 37.7995 34.9101 38.7018 33.5037 40.0468C32.0974 41.3918 31.1169 43.1203 30.6842 45.0176C30.2515 46.9149 30.3856 48.8975 31.0698 50.7193C31.7539 52.5411 32.9581 54.1218 34.5328 55.2652C36.1074 56.4087 37.9832 57.0645 39.9273 57.1512V53.7006C38.6661 53.6153 37.4572 53.1635 36.4492 52.4007C35.4412 51.6378 34.6779 50.5971 34.2532 49.4065C33.8285 48.2158 33.7608 46.9271 34.0584 45.6985C34.3561 44.4699 35.0061 43.355 35.9287 42.4908C36.8512 41.6265 38.0061 41.0505 39.2515 40.8336C40.4968 40.6167 41.7785 40.7682 42.9389 41.2696C44.0993 41.7711 45.088 42.6005 45.7835 43.6561C46.4791 44.7117 46.8511 45.9475 46.854 47.2116V64.3578V97.439H50.3199L50.3046 47.2676Z" fill="#3D113C"/>
<path d="M50.3038 142.989C49.3842 142.96 48.4724 142.811 47.5911 142.547C47.3316 142.47 47.0822 142.374 46.8379 142.277V167.515C47.9779 168.143 49.1332 168.745 50.3038 169.322V142.989Z" fill="#3D113C"/>
<path d="M50.5032 97.4541H50.3047V97.8409L50.5032 97.4541Z" fill="#FDB98D"/>
<path d="M47.5912 109.714H54.9098V100.971C54.9098 100.037 54.5387 99.141 53.8782 98.4805C53.2177 97.82 52.3219 97.449 51.3879 97.449H50.5023L50.3038 97.8358V97.449H45.9269C44.9938 97.4503 44.0993 97.822 43.4399 98.4823C42.7805 99.1426 42.4102 100.038 42.4102 100.971V109.709H47.5912V109.714Z" fill="#FDB98D"/>
<path d="M67.8574 95.0164V84.2625C64.1731 85.0511 60.7079 86.6421 57.7082 88.9221C54.7086 91.2022 52.2484 94.1153 50.5025 97.4542H51.3932C52.3273 97.4542 53.2231 97.8253 53.8835 98.4857C54.544 99.1462 54.9151 100.042 54.9151 100.976V109.715H40.0234V132.347C40.0246 134.497 40.6761 136.597 41.8924 138.37C43.1086 140.143 44.8327 141.507 46.8382 142.282C47.0875 142.378 47.3471 142.47 47.5914 142.552C48.4727 142.816 49.3845 142.965 50.3041 142.994V169.332C57.4387 172.863 65.0175 175.413 72.8349 176.915V107.328C69.6364 104.028 67.8507 99.6116 67.8574 95.0164Z" fill="#FC6719"/>
<path d="M86.8457 80.5014V81.0663C86.8457 81.3624 86.904 81.6555 87.0173 81.9291C87.1306 82.2026 87.2967 82.4512 87.5061 82.6605C87.7154 82.8699 87.964 83.036 88.2375 83.1493C88.5111 83.2626 88.8042 83.3209 89.1003 83.3209H89.7416V61.0903H86.8457V80.5064V80.5014Z" fill="#FC6719"/>
<path d="M79.0542 69.6864C79.0542 69.2963 79.2092 68.9222 79.485 68.6464C79.7608 68.3705 80.135 68.2156 80.525 68.2156H77.334V68.7245C77.334 69.3643 77.5881 69.9779 78.0406 70.4303C78.493 70.8827 79.1066 71.1369 79.7464 71.1369H80.5301C80.1427 71.1383 79.7703 70.9867 79.4939 70.7151C79.2176 70.4435 79.0596 70.0739 79.0542 69.6864V69.6864Z" fill="#FFFAC2"/>
<path d="M81.2735 68.2207H80.5254C80.9155 68.2207 81.2896 68.3757 81.5654 68.6515C81.8413 68.9273 81.9962 69.3015 81.9962 69.6915C81.9962 70.0816 81.8413 70.4557 81.5654 70.7316C81.2896 71.0074 80.9155 71.1624 80.5254 71.1624H81.2735C81.648 71.1403 81.9999 70.976 82.2572 70.7031C82.5146 70.4302 82.6579 70.0692 82.6579 69.6941C82.6579 69.319 82.5146 68.958 82.2572 68.6851C81.9999 68.4121 81.648 68.2478 81.2735 68.2258V68.2207Z" fill="#FFFAC2"/>
<path d="M81.2739 70.9486C81.6063 70.751 81.8514 70.4345 81.9595 70.0632C82.0677 69.6919 82.0309 69.2934 81.8566 68.9482C81.6824 68.6029 81.3836 68.3367 81.0206 68.2032C80.6577 68.0697 80.2576 68.079 79.9011 68.229C79.5447 68.3791 79.2585 68.6588 79.1003 69.0117C78.9422 69.3647 78.9238 69.7644 79.049 70.1304C79.1741 70.4963 79.4335 70.8011 79.7747 70.9832C80.1159 71.1653 80.5134 71.2111 80.8871 71.1115C81.0232 71.0762 81.1535 71.0213 81.2739 70.9486Z" fill="black"/>
<path d="M86.8462 61.09H89.7421V35.4597H84.7544C79.549 35.4583 74.5407 37.4509 70.7591 41.0281C66.9775 44.6052 64.7098 49.4951 64.4222 54.6926H54.9355V61.09H86.8462V61.09Z" fill="#3D113C"/>
<path d="M84.332 91.1382C84.332 91.6903 84.5513 92.2197 84.9417 92.6101C85.3321 93.0005 85.8615 93.2198 86.4136 93.2198H89.7421V91.1382H84.332Z" fill="#3D113C"/>
<path d="M89.7436 83.6975V83.3209H89.1024C88.5044 83.3209 87.9309 83.0834 87.5081 82.6605C87.0853 82.2377 86.8477 81.6643 86.8477 81.0663V61.0903H70.8466V64.2407H67.793V70.8976C67.7937 71.8333 68.0891 72.7449 68.6372 73.5032C69.1853 74.2614 69.9584 74.8278 70.8466 75.1218V75.8242C70.848 77.095 71.0648 78.3564 71.4879 79.5547C71.5999 79.8805 71.7271 80.196 71.8696 80.5065C72.7675 82.4754 74.2115 84.1453 76.0302 85.3181C77.8489 86.4908 79.9658 87.1172 82.1299 87.1227H89.764V83.7128L89.7436 83.6975ZM81.2748 71.1318H79.748C79.1082 71.1318 78.4946 70.8776 78.0422 70.4252C77.5898 69.9728 77.3356 69.3592 77.3356 68.7194V68.2104H81.2748C81.6493 68.2325 82.0012 68.3968 82.2585 68.6697C82.5159 68.9427 82.6592 69.3036 82.6592 69.6787C82.6592 70.0538 82.5159 70.4148 82.2585 70.6877C82.0012 70.9607 81.6493 71.125 81.2748 71.147V71.1318ZM73.8901 66.9432H73.3812C73.3878 66.3931 73.6092 65.8675 73.9981 65.4786C74.3871 65.0896 74.9127 64.8682 75.4627 64.8616H82.1095C82.6616 64.8616 83.191 65.0809 83.5814 65.4713C83.9718 65.8616 84.1911 66.3911 84.1911 66.9432H73.8901Z" fill="#FDB98D"/>
<path d="M82.108 64.8869H75.4917C74.9417 64.8935 74.4161 65.1149 74.0271 65.5038C73.6382 65.8928 73.4168 66.4184 73.4102 66.9684H84.2303C84.2303 66.6916 84.1751 66.4176 84.068 66.1623C83.9609 65.9071 83.8039 65.6758 83.6063 65.482C83.4086 65.2881 83.1743 65.1357 82.9171 65.0335C82.6598 64.9313 82.3847 64.8815 82.108 64.8869V64.8869Z" fill="#016099"/>
<path d="M100.751 155.982C99.7838 152.698 99.8295 149.199 100.882 145.942C101.934 142.684 103.944 139.819 106.649 137.722V107.328C105 109.036 103.023 110.395 100.837 111.322C98.651 112.249 96.3003 112.725 93.9257 112.722H89.7422V178.518C91.3572 178.518 92.9638 178.474 94.5619 178.386C92.7811 174.524 92.4256 170.156 93.5585 166.057C94.6914 161.958 97.2394 158.392 100.751 155.993V155.982Z" fill="#00BCB4"/>
<path d="M111.627 84.2626V80.1453C112.793 79.7287 113.802 78.9617 114.515 77.9495C115.228 76.9373 115.611 75.7293 115.612 74.491V61.1974C115.612 61.1618 115.612 61.1262 115.612 61.0854H108.639V64.2358H111.922V70.8928C111.921 71.869 111.6 72.818 111.006 73.5933C110.413 74.3687 109.581 74.9273 108.639 75.1831V75.8193C108.638 77.0901 108.421 78.3515 107.998 79.5498C107.886 79.8756 107.759 80.1911 107.616 80.5016C106.718 82.4701 105.274 84.1397 103.455 85.3124C101.637 86.4851 99.5198 87.1116 97.356 87.1178H89.7422V91.1486H95.1522C95.1522 91.7007 94.9329 92.2301 94.5426 92.6205C94.1522 93.0109 93.6227 93.2302 93.0707 93.2302H89.7422V112.733H93.9257C96.3003 112.735 98.651 112.259 100.837 111.332C103.023 110.405 105 109.047 106.649 107.338V137.732C109.634 135.414 113.308 134.16 117.088 134.169C117.261 134.169 117.429 134.169 117.597 134.169V121.751C117.597 120.96 117.663 120.17 117.795 119.39H116.065C114.151 119.39 112.315 118.629 110.962 117.276C109.608 115.923 108.848 114.087 108.848 112.173C108.848 112.173 108.848 112.132 108.848 112.107H121.383C122.713 110.664 124.327 109.513 126.123 108.724C127.919 107.936 129.86 107.528 131.821 107.526C131.434 101.983 129.255 96.7157 125.612 92.5193C121.969 88.323 117.061 85.425 111.627 84.2626V84.2626Z" fill="#3D113C"/>
<path d="M103.921 84.9902C105.528 83.8465 106.803 82.2977 107.616 80.5014C107.759 80.1909 107.886 79.8754 107.998 79.5496C108.421 78.3513 108.638 77.0899 108.639 75.8191V75.2033C109.581 74.9475 110.413 74.3888 111.006 73.6135C111.6 72.8381 111.921 71.8892 111.922 70.9129V64.2407H108.639V61.0903H92.6381V81.0714C92.6381 81.3675 92.5797 81.6606 92.4664 81.9342C92.3531 82.2077 92.1871 82.4563 91.9777 82.6656C91.7683 82.875 91.5198 83.0411 91.2463 83.1544C90.9727 83.2677 90.6795 83.326 90.3835 83.326H89.7422V87.1125H97.3763C99.7266 87.1096 102.016 86.3671 103.921 84.9902ZM97.3763 64.7242H103.993C104.542 64.7321 105.067 64.9539 105.456 65.3426C105.844 65.7313 106.066 66.2561 106.074 66.8057H95.2693C95.2693 66.5302 95.3239 66.2575 95.4301 66.0032C95.5363 65.749 95.6919 65.5184 95.8879 65.3248C96.0839 65.1312 96.3164 64.9784 96.5719 64.8753C96.8274 64.7722 97.1008 64.7208 97.3763 64.7242ZM96.7808 69.4472C96.7808 69.0614 96.9323 68.6911 97.2026 68.416C97.473 68.1409 97.8406 67.983 98.2262 67.9763H102.165V68.4853C102.165 69.1251 101.911 69.7387 101.459 70.1911C101.006 70.6435 100.393 70.8976 99.7531 70.8976H98.2262C97.8405 70.8963 97.4708 70.7436 97.1966 70.4723C96.9224 70.201 96.7658 69.8328 96.7605 69.4472H96.7808Z" fill="#FC6719"/>
<path d="M89.7422 80.5014V83.3209H90.3835C90.6795 83.3209 90.9727 83.2626 91.2463 83.1493C91.5198 83.036 91.7683 82.8699 91.9777 82.6605C92.1871 82.4512 92.3531 82.2026 92.4664 81.9291C92.5797 81.6555 92.6381 81.3624 92.6381 81.0663V61.0903H89.7422V80.5064V80.5014Z" fill="#3D113C"/>
<path d="M100.43 69.4471C100.43 69.8372 100.275 70.2113 99.999 70.4871C99.7232 70.7629 99.3491 70.9179 98.959 70.9179H99.7428C100.383 70.9179 100.996 70.6637 101.449 70.2113C101.901 69.7589 102.155 69.1453 102.155 68.5055V67.9966H98.9641C99.3498 67.9979 99.7195 68.1506 99.9937 68.4219C100.268 68.6933 100.424 69.0614 100.43 69.4471V69.4471Z" fill="#FDB98D"/>
<path d="M98.2321 70.9178H98.9548C98.5647 70.9178 98.1906 70.7628 97.9147 70.487C97.6389 70.2111 97.4839 69.837 97.4839 69.4469C97.4839 69.0568 97.6389 68.6827 97.9147 68.4069C98.1906 68.131 98.5647 67.9761 98.9548 67.9761H98.2066C97.8322 67.9981 97.4803 68.1624 97.2229 68.4354C96.9656 68.7083 96.8223 69.0692 96.8223 69.4444C96.8223 69.8195 96.9656 70.1804 97.2229 70.4534C97.4803 70.7263 97.8322 70.8906 98.2066 70.9127L98.2321 70.9178Z" fill="#FDB98D"/>
<path d="M98.2114 68.1851C97.879 68.3828 97.6339 68.6992 97.5258 69.0705C97.4176 69.4418 97.4544 69.8403 97.6287 70.1856C97.8029 70.5308 98.1017 70.797 98.4647 70.9305C98.8276 71.064 99.2277 71.0548 99.5842 70.9047C99.9406 70.7546 100.227 70.4749 100.385 70.122C100.543 69.7691 100.561 69.3693 100.436 69.0034C100.311 68.6375 100.052 68.3327 99.7106 68.1506C99.3694 67.9685 98.9719 67.9226 98.5982 68.0223C98.4621 68.0577 98.3319 68.1126 98.2114 68.1851V68.1851Z" fill="black"/>
<path d="M89.7422 54.6926V61.09H124.549V54.6926H115.057C114.769 49.496 112.502 44.6069 108.722 41.0298C104.941 37.4528 99.9344 35.4596 94.7298 35.4597H89.7422V54.6926Z" fill="black"/>
<path d="M106.09 66.8111C106.082 66.2615 105.86 65.7366 105.471 65.3479C105.082 64.9592 104.558 64.7374 104.008 64.7295H97.3765C97.1031 64.7295 96.8325 64.7833 96.5799 64.8879C96.3274 64.9926 96.0979 65.1459 95.9046 65.3392C95.7113 65.5325 95.558 65.7619 95.4534 66.0145C95.3488 66.267 95.2949 66.5377 95.2949 66.8111H106.115H106.09Z" fill="#3D113C"/>
<path d="M95.1522 91.1382H89.7422V93.2198H93.0656C93.3394 93.2204 93.6106 93.1671 93.8637 93.0628C94.1169 92.9585 94.3469 92.8052 94.5408 92.6119C94.7346 92.4185 94.8884 92.1888 94.9933 91.9359C95.0982 91.6831 95.1522 91.412 95.1522 91.1382V91.1382Z" fill="black"/>
<path d="M146.642 134.144C146.459 134.144 146.276 134.144 146.093 134.144V144.104C146.093 147.573 144.715 150.899 142.262 153.352C139.809 155.805 136.482 157.183 133.013 157.183H131.898V167.907C143.446 161.682 153.483 152.995 161.3 142.46C159.789 139.92 157.643 137.818 155.073 136.36C152.503 134.902 149.597 134.138 146.642 134.144Z" fill="#FC6719"/>
<path d="M131.863 157.204V164.838V167.932H131.894V157.204H131.863Z" fill="#FC6719"/>
<path d="M130.682 157.204C127.213 157.204 123.886 155.826 121.433 153.373C118.98 150.92 117.602 147.593 117.602 144.124V134.164C117.429 134.164 117.261 134.164 117.093 134.164C114.446 134.164 111.835 134.781 109.468 135.966C107.1 137.152 105.042 138.873 103.456 140.993C101.871 143.112 100.801 145.573 100.332 148.178C99.8634 150.784 100.009 153.463 100.756 156.003C97.2451 158.402 94.6972 161.968 93.5643 166.067C92.4314 170.166 92.7869 174.534 94.5677 178.396C107.62 177.703 120.358 174.137 131.873 167.953V164.858V157.224L130.682 157.204Z" fill="#FDB98D"/>
<path d="M131.863 107.506H131.822C131.822 107.704 131.853 107.903 131.863 108.101V107.506Z" fill="#FFFAC2"/>
<path d="M121.388 112.106H108.848C108.848 112.106 108.848 112.147 108.848 112.173C108.848 113.12 109.034 114.059 109.397 114.934C109.76 115.81 110.291 116.606 110.961 117.276C111.632 117.946 112.427 118.477 113.303 118.84C114.178 119.203 115.117 119.389 116.064 119.389H117.795C117.663 120.17 117.597 120.96 117.596 121.751V134.164C120.504 134.252 123.34 135.083 125.835 136.579C128.33 138.075 130.4 140.186 131.847 142.709V108.101C131.847 107.903 131.821 107.704 131.806 107.506C129.846 107.513 127.909 107.925 126.116 108.717C124.323 109.509 122.713 110.663 121.388 112.106V112.106ZM122.441 129.181C122.441 129.423 122.37 129.659 122.236 129.86C122.101 130.061 121.911 130.217 121.687 130.31C121.464 130.402 121.219 130.427 120.982 130.379C120.745 130.332 120.527 130.216 120.356 130.045C120.185 129.874 120.069 129.657 120.022 129.42C119.975 129.183 119.999 128.937 120.092 128.714C120.184 128.491 120.341 128.3 120.541 128.166C120.742 128.032 120.978 127.96 121.22 127.96C121.38 127.96 121.539 127.992 121.687 128.053C121.836 128.114 121.97 128.204 122.084 128.318C122.197 128.431 122.287 128.566 122.349 128.714C122.41 128.862 122.441 129.021 122.441 129.181V129.181Z" fill="#FFFAC2"/>
<path d="M131.125 144.155C130.901 144.65 130.699 145.159 130.52 145.681C130.401 146.021 130.294 146.37 130.199 146.73C129.428 149.586 129.41 152.593 130.148 155.458L130.606 155.423C131.018 155.392 131.436 155.367 131.863 155.362V142.709C131.605 143.171 131.359 143.652 131.125 144.155Z" fill="#FFFAC2"/>
<path d="M130.61 155.413L130.152 155.448C129.421 152.582 129.439 149.577 130.203 146.72C130.298 146.381 130.405 146.031 130.524 145.671C130.7 145.152 130.902 144.643 131.13 144.145C131.357 143.646 131.603 143.164 131.868 142.699C130.421 140.176 128.351 138.065 125.856 136.569C123.361 135.073 120.525 134.242 117.617 134.154V144.114C117.617 147.583 118.995 150.91 121.448 153.363C123.901 155.816 127.228 157.194 130.697 157.194H131.878V155.341C131.44 155.357 131.023 155.377 130.61 155.413ZM128.656 151.28C128.506 151.276 128.36 151.227 128.237 151.141C128.114 151.054 128.019 150.933 127.965 150.792C127.91 150.652 127.899 150.499 127.931 150.352C127.964 150.205 128.039 150.071 128.148 149.966C128.256 149.862 128.393 149.792 128.541 149.765C128.689 149.739 128.842 149.757 128.98 149.816C129.118 149.876 129.236 149.976 129.317 150.102C129.399 150.228 129.442 150.376 129.44 150.527C129.439 150.628 129.417 150.728 129.377 150.82C129.337 150.913 129.278 150.997 129.206 151.067C129.133 151.137 129.046 151.192 128.952 151.229C128.858 151.265 128.757 151.283 128.656 151.28V151.28Z" fill="#FFFAC2"/>
<path d="M131.863 155.352C131.44 155.352 131.023 155.377 130.605 155.413C131.023 155.377 131.44 155.357 131.863 155.352Z" fill="#FFFAC2"/>
<path d="M131.125 144.155C131.349 143.659 131.595 143.177 131.863 142.709C131.605 143.171 131.359 143.652 131.125 144.155Z" fill="#FFFAC2"/>
<path d="M130.52 145.672C130.696 145.152 130.898 144.644 131.125 144.145C130.901 144.647 130.699 145.156 130.52 145.672Z" fill="#FFFAC2"/>
<path d="M131.894 109.302V142.663C133.341 140.156 135.404 138.059 137.888 136.572C140.372 135.085 143.195 134.256 146.088 134.164V121.751C146.088 120.959 146.022 120.17 145.89 119.389H147.62C149.534 119.389 151.37 118.629 152.723 117.276C154.077 115.922 154.837 114.087 154.837 112.173C154.837 112.173 154.837 112.132 154.837 112.106H142.302C140.972 110.664 139.358 109.512 137.562 108.724C135.765 107.936 133.825 107.528 131.863 107.526V108.121C131.884 108.503 131.894 108.9 131.894 109.302ZM142.475 127.955C142.716 127.955 142.952 128.026 143.153 128.161C143.354 128.295 143.511 128.486 143.603 128.709C143.696 128.932 143.72 129.178 143.673 129.415C143.626 129.651 143.509 129.869 143.338 130.04C143.168 130.211 142.95 130.327 142.713 130.374C142.476 130.421 142.23 130.397 142.007 130.305C141.784 130.212 141.593 130.056 141.459 129.855C141.325 129.654 141.253 129.418 141.253 129.176C141.253 129.016 141.285 128.857 141.346 128.709C141.408 128.561 141.498 128.426 141.611 128.313C141.724 128.199 141.859 128.109 142.007 128.048C142.155 127.986 142.314 127.955 142.475 127.955V127.955Z" fill="#00BCB4"/>
<path d="M131.894 109.302C131.894 108.9 131.894 108.498 131.863 108.101V142.709L131.894 142.663V109.302Z" fill="#00BCB4"/>
<path d="M131.984 155.351C132.528 155.351 133.063 155.382 133.592 155.428C134.691 151.147 134.085 146.608 131.902 142.765V155.351H131.984Z" fill="#00BCB4"/>
<path d="M131.863 155.351H131.894V142.765L131.863 142.709V155.351Z" fill="#00BCB4"/>
<path d="M131.894 142.663V142.765C134.076 146.608 134.682 151.147 133.583 155.428C133.075 155.377 132.52 155.351 131.975 155.351H131.889V157.204H133.003C136.472 157.204 139.799 155.826 142.252 153.373C144.705 150.92 146.083 147.593 146.083 144.124V134.164C143.19 134.257 140.369 135.086 137.886 136.573C135.403 138.061 133.341 140.157 131.894 142.663ZM135.039 149.753C135.19 149.753 135.338 149.798 135.463 149.882C135.589 149.965 135.687 150.085 135.744 150.224C135.802 150.364 135.817 150.517 135.788 150.665C135.758 150.813 135.686 150.949 135.579 151.056C135.472 151.163 135.336 151.236 135.188 151.265C135.04 151.295 134.886 151.279 134.747 151.222C134.607 151.164 134.488 151.066 134.404 150.94C134.32 150.815 134.276 150.667 134.276 150.516C134.276 150.314 134.356 150.12 134.499 149.977C134.642 149.833 134.837 149.753 135.039 149.753Z" fill="#00BCB4"/>
<path d="M131.863 155.352V157.204H131.894V155.352H131.863Z" fill="#00BCB4"/>
<path d="M131.894 142.766V142.664L131.863 142.71L131.894 142.766Z" fill="#00BCB4"/>
<path d="M121.216 130.403C121.89 130.403 122.437 129.856 122.437 129.181C122.437 128.507 121.89 127.96 121.216 127.96C120.541 127.96 119.994 128.507 119.994 129.181C119.994 129.856 120.541 130.403 121.216 130.403Z" fill="#273329"/>
<path d="M142.473 130.403C143.148 130.403 143.695 129.856 143.695 129.181C143.695 128.507 143.148 127.96 142.473 127.96C141.799 127.96 141.252 128.507 141.252 129.181C141.252 129.856 141.799 130.403 142.473 130.403Z" fill="#273329"/>
<path d="M128.656 151.28C129.078 151.28 129.419 150.938 129.419 150.516C129.419 150.095 129.078 149.753 128.656 149.753C128.234 149.753 127.893 150.095 127.893 150.516C127.893 150.938 128.234 151.28 128.656 151.28Z" fill="#273329"/>
<path d="M135.033 151.28C135.455 151.28 135.796 150.938 135.796 150.516C135.796 150.095 135.455 149.753 135.033 149.753C134.611 149.753 134.27 150.095 134.27 150.516C134.27 150.938 134.611 151.28 135.033 151.28Z" fill="#273329"/>
</g>
<defs>
<clipPath id="clip0_2831_6489">
<rect width="178.13" height="178.13" fill="white" transform="translate(0.677734 0.388916)"/>
</clipPath>
</defs>
</svg>
