<svg fill="none" height="179" viewBox="0 0 179 179" width="179" xmlns="http://www.w3.org/2000/svg" xmlns:xlink="http://www.w3.org/1999/xlink"><clipPath id="a"><path d="m.677734.388916h178.13v178.13h-178.13z"/></clipPath><g clip-path="url(#a)"><path d="m40.0235 132.342v-22.628h2.387v-8.743c0-.934.371-1.83 1.0315-2.4905s1.5563-1.0315 2.4904-1.0315h.9059v-33.0812-17.1564c0-1.2646-.3695-2.5016-1.063-3.559s-1.6809-1.8891-2.8407-2.3929c-1.1599-.5038-2.4417-.6578-3.6878-.4429-1.2462.2148-2.4024.7891-3.3266 1.6522s-1.576 1.9774-1.8754 3.206-.2333 2.5179.1901 3.7095c.4235 1.1915 1.1859 2.2333 2.1935 2.9974s2.2165 1.2171 3.4781 1.3034v3.4506c-1.943-.0907-3.8166-.7497-5.3885-1.8954s-2.7729-2.7277-3.454-4.5497c-.6811-1.8219-.8123-3.8038-.3775-5.6997.4349-1.8958 1.4168-3.6223 2.8238-4.9654 1.4071-1.343 3.1774-2.2434 5.0915-2.5895s3.8876-.1227 5.6759.6424c1.7883.7652 3.3126 2.0385 4.3839 3.6621 1.0713 1.6235 1.6424 3.5258 1.6426 5.4709v.0407 50.1867h.1984c1.7476-3.3361 4.2086-6.2462 7.2081-8.5235 2.9996-2.2774 6.4639-3.866 10.1469-4.653v-4.1173c-1.1662-.4167-2.175-1.1836-2.8884-2.1958s-1.0964-2.2202-1.0967-3.4586v-13.2935c0-.0356 0-.0713 0-.112h-8.937v-6.3923h9.4867c.2876-5.1975 2.5553-10.0874 6.3369-13.6645 3.7816-3.5772 8.7899-5.5698 13.9953-5.5684h9.9753c5.2054-.0014 10.2133 1.9912 13.9953 5.5684 3.782 3.5771 6.049 8.467 6.337 13.6645h9.487v6.3974h-8.927v.112 13.2884c-.001 1.2396-.386 2.4485-1.101 3.4609-.715 1.0123-1.726 1.7785-2.894 2.1935v4.1173c5.429 1.1636 10.334 4.0601 13.974 8.2533 3.641 4.1931 5.82 9.4554 6.21 14.9954h.041c1.962.002 3.902.41 5.698 1.198 1.797.788 3.411 1.94 4.74 3.382h12.535v.066c0 .948-.186 1.887-.549 2.762-.363.876-.894 1.671-1.564 2.341-.67.671-1.466 1.202-2.342 1.565-.875.363-1.814.549-2.761.549h-1.731c.132.78.199 1.57.199 2.362v12.413h.549c2.958-.001 5.865.768 8.434 2.233 2.569 1.464 4.713 3.573 6.219 6.118 10.797-14.563 16.892-32.075 17.471-50.1955.579-18.1203-4.385-35.9857-14.23-51.2094-9.844-15.2237-24.1-27.0806-40.863-33.9864-16.763-6.905803-35.2336-8.53165-52.9449-4.6603-17.7113 3.87134-33.8194 13.0555-46.1721 26.3254-12.3527 13.2698-20.36164 29.9934-22.95673 47.9361-2.59509 17.9428.34726 36.2501 8.43393 52.4761 8.0866 16.226 20.9324 29.598 36.8211 38.329v-25.233c-2.0063-.776-3.731-2.14-4.9473-3.914s-1.8673-3.875-1.8675-6.026z" fill="#fffac2"/><path d="m85.5595 112.728c-2.3746.002-4.7254-.474-6.9116-1.401s-4.1629-2.286-5.812-3.994v69.577c5.572 1.071 11.2332 1.609 16.9071 1.608v-65.79z" fill="#fffac2"/><path d="m72.8359 107.328c1.649 1.708 3.6258 3.067 5.812 3.994s4.537 1.403 6.9116 1.4h4.1835v-19.5022h-3.3234c-.5521 0-1.0816-.2193-1.4719-.6097-.3904-.3903-.6097-.9198-.6097-1.4719h5.405v-4.0308h-7.6342c-2.1647-.0024-4.283-.6274-6.1022-1.8006-1.8193-1.1731-3.2627-2.8448-4.158-4.8156-.1425-.3105-.2698-.626-.3817-.9517-.4231-1.1984-.6399-2.4598-.6413-3.7306v-.7023c-.8882-.2941-1.6613-.8604-2.2094-1.6187-.5481-.7582-.8435-1.6699-.8442-2.6055v-6.6417h3.0536v-3.1504h-6.9623v.112 13.2885c.001 1.2395.3855 2.4484 1.1008 3.4608.7153 1.0123 1.7263 1.7786 2.8944 2.1935v14.8662c-.0081 4.597 1.7777 9.0157 4.9774 12.3167z" fill="#016099"/><path d="m50.3046 47.2676s0-.0255 0-.0408c.0001-1.946-.5714-3.8492-1.6435-5.4733-1.072-1.624-2.5975-2.8975-4.387-3.6622-1.7894-.7648-3.7641-.9871-5.6788-.6395-1.9147.3477-3.6852 1.25-5.0916 2.595-1.4063 1.345-2.3868 3.0735-2.8195 4.9708s-.2986 3.8799.3856 5.7017c.6841 1.8218 1.8883 3.4025 3.463 4.5459 1.5746 1.1435 3.4504 1.7993 5.3945 1.886v-3.4506c-1.2612-.0853-2.4701-.5371-3.4781-1.2999-1.008-.7629-1.7713-1.8036-2.196-2.9942-.4247-1.1907-.4924-2.4794-.1948-3.708.2977-1.2286.9477-2.3435 1.8703-3.2077.9225-.8643 2.0774-1.4403 3.3228-1.6572 1.2453-.2169 2.527-.0654 3.6874.436 1.1604.5015 2.1491 1.3309 2.8446 2.3865.6956 1.0556 1.0676 2.2914 1.0705 3.5555v17.1462 33.0812h3.4659z" fill="#3d113c"/><path d="m50.3038 142.989c-.9196-.029-1.8314-.178-2.7127-.442-.2595-.077-.5089-.173-.7532-.27v25.238c1.14.628 2.2953 1.23 3.4659 1.807z" fill="#3d113c"/><path d="m50.5032 97.4541h-.1985v.3868z" fill="#fdb98d"/><path d="m47.5912 109.714h7.3186v-8.743c0-.934-.3711-1.83-1.0316-2.4905s-1.5563-1.0315-2.4903-1.0315h-.8856l-.1985.3868v-.3868h-4.3769c-.9331.0013-1.8276.373-2.487 1.0333s-1.0297 1.5557-1.0297 2.4887v8.738h5.181z" fill="#fdb98d"/><path d="m67.8574 95.0164v-10.7539c-3.6843.7886-7.1495 2.3796-10.1492 4.6596-2.9996 2.2801-5.4598 5.1932-7.2057 8.5321h.8907c.9341 0 1.8299.3711 2.4903 1.0315.6605.6605 1.0316 1.5563 1.0316 2.4903v8.739h-14.8917v22.632c.0012 2.15.6527 4.25 1.869 6.023 1.2162 1.773 2.9403 3.137 4.9458 3.912.2493.096.5089.188.7532.27.8813.264 1.7931.413 2.7127.442v26.338c7.1346 3.531 14.7134 6.081 22.5308 7.583v-69.587c-3.1985-3.3-4.9842-7.7164-4.9775-12.3116z" fill="#fc6719"/><path d="m86.8457 80.5014v.5649c0 .2961.0583.5892.1716.8628.1133.2735.2794.5221.4888.7314.2093.2094.4579.3755.7314.4888.2736.1133.5667.1716.8628.1716h.6413v-22.2306h-2.8959v19.4161z" fill="#fc6719"/><path d="m79.0542 69.6864c0-.3901.155-.7642.4308-1.04.2758-.2759.65-.4308 1.04-.4308h-3.191v.5089c0 .6398.2541 1.2534.7066 1.7058.4524.4524 1.066.7066 1.7058.7066h.7837c-.3874.0014-.7598-.1502-1.0362-.4218-.2763-.2716-.4343-.6412-.4397-1.0287z" fill="#fffac2"/><path d="m81.2735 68.2207h-.7481c.3901 0 .7642.155 1.04.4308.2759.2758.4308.65.4308 1.04 0 .3901-.1549.7642-.4308 1.0401-.2758.2758-.6499.4308-1.04.4308h.7481c.3745-.0221.7264-.1864.9837-.4593.2574-.2729.4007-.6339.4007-1.009s-.1433-.7361-.4007-1.009c-.2573-.273-.6092-.4373-.9837-.4593z" fill="#fffac2"/><path d="m81.2739 70.9486c.3324-.1976.5775-.5141.6856-.8854.1082-.3713.0714-.7698-.1029-1.115-.1742-.3453-.473-.6115-.836-.745-.3629-.1335-.763-.1242-1.1195.0258-.3564.1501-.6426.4298-.8008.7827-.1581.353-.1765.7527-.0513 1.1187.1251.3659.3845.6707.7257.8528s.7387.2279 1.1124.1283c.1361-.0353.2664-.0902.3868-.1629z" fill="#000"/><path d="m86.8462 61.09h2.8959v-25.6303h-4.9877c-5.2054-.0014-10.2137 1.9912-13.9953 5.5684-3.7816 3.5771-6.0493 8.467-6.3369 13.6645h-9.4867v6.3974z" fill="#3d113c"/><path d="m84.332 91.1382c0 .5521.2193 1.0815.6097 1.4719s.9198.6097 1.4719.6097h3.3285v-2.0816z" fill="#3d113c"/><path d="m89.7436 83.6975v-.3766h-.6412c-.598 0-1.1715-.2375-1.5943-.6604-.4228-.4228-.6604-.9962-.6604-1.5942v-19.976h-16.0011v3.1504h-3.0536v6.6569c.0007.9357.2961 1.8473.8442 2.6056.5481.7582 1.3212 1.3246 2.2094 1.6186v.7024c.0014 1.2708.2182 2.5322.6413 3.7305.112.3258.2392.6413.3817.9518.8979 1.9689 2.3419 3.6388 4.1606 4.8116 1.8187 1.1727 3.9356 1.7991 6.0997 1.8046h7.6341v-3.4099zm-8.4688-12.5657h-1.5268c-.6398 0-1.2534-.2542-1.7058-.7066s-.7066-1.066-.7066-1.7058v-.509h3.9392c.3745.0221.7264.1864.9837.4593.2574.273.4007.6339.4007 1.009s-.1433.7361-.4007 1.009c-.2573.273-.6092.4373-.9837.4593zm-7.3847-4.1886h-.5089c.0066-.5501.228-1.0757.6169-1.4646.389-.389.9146-.6104 1.4646-.617h6.6468c.5521 0 1.0815.2193 1.4719.6097.3904.3903.6097.9198.6097 1.4719z" fill="#fdb98d"/><path d="m82.108 64.8869h-6.6163c-.55.0066-1.0756.228-1.4646.6169-.3889.389-.6103.9146-.6169 1.4646h10.8201c0-.2768-.0552-.5508-.1623-.8061-.1071-.2552-.2641-.4865-.4617-.6803-.1977-.1939-.432-.3463-.6892-.4485-.2573-.1022-.5324-.152-.8091-.1466z" fill="#016099"/><path d="m100.751 155.982c-.9672-3.284-.9215-6.783.131-10.04 1.052-3.258 3.062-6.123 5.767-8.22v-30.394c-1.649 1.708-3.626 3.067-5.812 3.994s-4.5367 1.403-6.9113 1.4h-4.1835v65.796c1.615 0 3.2216-.044 4.8197-.132-1.7808-3.862-2.1363-8.23-1.0034-12.329s3.6809-7.665 7.1925-10.064z" fill="#00bcb4"/><path d="m111.627 84.2626v-4.1173c1.166-.4166 2.175-1.1836 2.888-2.1958s1.096-2.2202 1.097-3.4585v-13.2936c0-.0356 0-.0712 0-.112h-6.973v3.1504h3.283v6.657c-.001.9762-.322 1.9252-.916 2.7005-.593.7754-1.425 1.334-2.367 1.5898v.6362c-.001 1.2708-.218 2.5322-.641 3.7305-.112.3258-.239.6413-.382.9518-.898 1.9685-2.342 3.6381-4.161 4.8108-1.818 1.1727-3.9352 1.7992-6.099 1.8054h-7.6138v4.0308h5.41c0 .5521-.2193 1.0815-.6096 1.4719-.3904.3904-.9199.6097-1.4719.6097h-3.3285v19.5028h4.1835c2.3746.002 4.7253-.474 6.9113-1.401s4.163-2.285 5.812-3.994v30.394c2.985-2.318 6.659-3.572 10.439-3.563h.509v-12.418c0-.791.066-1.581.198-2.361h-1.73c-1.914 0-3.75-.761-5.103-2.114-1.354-1.353-2.114-3.189-2.114-5.103 0 0 0-.041 0-.066h12.535c1.33-1.443 2.944-2.594 4.74-3.383 1.796-.788 3.737-1.196 5.698-1.198-.387-5.543-2.566-10.8103-6.209-15.0067-3.643-4.1963-8.551-7.0943-13.985-8.2567z" fill="#3d113c"/><path d="m103.921 84.9902c1.607-1.1437 2.882-2.6925 3.695-4.4888.143-.3105.27-.626.382-.9518.423-1.1983.64-2.4597.641-3.7305v-.6158c.942-.2558 1.774-.8145 2.367-1.5898.594-.7754.915-1.7243.916-2.7006v-6.6722h-3.283v-3.1504h-16.0009v19.9811c0 .2961-.0584.5892-.1717.8628-.1133.2735-.2793.5221-.4887.7314-.2094.2094-.4579.3755-.7314.4888-.2736.1133-.5668.1716-.8628.1716h-.6413v3.7865h7.6341c2.3503-.0029 4.6397-.7454 6.5447-2.1223zm-6.5447-20.266h6.6167c.549.0079 1.074.2297 1.463.6184.388.3887.61.9135.618 1.4631h-10.8047c0-.2755.0546-.5482.1608-.8025.1062-.2542.2618-.4848.4578-.6784s.4285-.3464.684-.4495.5289-.1545.8044-.1511zm-.5955 4.723c0-.3858.1515-.7561.4218-1.0312.2704-.2751.638-.433 1.0236-.4397h3.9388v.509c0 .6398-.254 1.2534-.706 1.7058-.453.4524-1.066.7065-1.7059.7065h-1.5269c-.3857-.0013-.7554-.154-1.0296-.4253s-.4308-.6395-.4361-1.0251z" fill="#fc6719"/><path d="m89.7422 80.5014v2.8195h.6413c.296 0 .5892-.0583.8628-.1716.2735-.1133.522-.2794.7314-.4888.2094-.2093.3754-.4579.4887-.7314.1133-.2736.1717-.5667.1717-.8628v-19.976h-2.8959v19.4161z" fill="#3d113c"/><path d="m100.43 69.4471c0 .3901-.155.7642-.431 1.04-.2758.2758-.6499.4308-1.04.4308h.7838c.6402 0 1.2532-.2542 1.7062-.7066.452-.4524.706-1.066.706-1.7058v-.5089h-3.1909c.3857.0013.7554.154 1.0296.4253.2743.2714.4303.6395.4363 1.0252z" fill="#fdb98d"/><path d="m98.2321 70.9178h.7227c-.3901 0-.7642-.155-1.0401-.4308-.2758-.2759-.4308-.65-.4308-1.0401s.155-.7642.4308-1.04c.2759-.2759.65-.4308 1.0401-.4308h-.7482c-.3744.022-.7263.1863-.9837.4593-.2573.2729-.4006.6338-.4006 1.009 0 .3751.1433.736.4006 1.009.2574.2729.6093.4372.9837.4593z" fill="#fdb98d"/><path d="m98.2114 68.1851c-.3324.1977-.5775.5141-.6856.8854-.1082.3713-.0714.7698.1029 1.1151.1742.3452.473.6114.836.7449.3629.1335.763.1243 1.1195-.0258.3564-.1501.6428-.4298.8008-.7827s.176-.7527.051-1.1186-.384-.6707-.7254-.8528c-.3412-.1821-.7387-.228-1.1124-.1283-.1361.0354-.2663.0903-.3868.1628z" fill="#000"/><path d="m89.7422 54.6926v6.3974h34.8068v-6.3974h-9.492c-.288-5.1966-2.555-10.0857-6.335-13.6628-3.781-3.577-8.7876-5.5702-13.9922-5.5701h-4.9876z" fill="#000"/><path d="m106.09 66.8111c-.008-.5496-.23-1.0745-.619-1.4632s-.913-.6105-1.463-.6184h-6.6315c-.2734 0-.544.0538-.7966.1584-.2525.1047-.482.258-.6753.4513s-.3466.4227-.4512.6753c-.1046.2525-.1585.5232-.1585.7966h10.8201z" fill="#3d113c"/><path d="m95.1522 91.1382h-5.41v2.0816h3.3234c.2738.0006.545-.0527.7981-.157.2532-.1043.4832-.2576.6771-.4509.1938-.1934.3476-.4231.4525-.676.1049-.2528.1589-.5239.1589-.7977z" fill="#000"/><path d="m146.642 134.144c-.183 0-.366 0-.549 0v9.96c0 3.469-1.378 6.795-3.831 9.248s-5.78 3.831-9.249 3.831h-1.115v10.724c11.548-6.225 21.585-14.912 29.402-25.447-1.511-2.54-3.657-4.642-6.227-6.1s-5.476-2.222-8.431-2.216z" fill="#fc6719"/><path d="m131.863 157.204v7.634 3.094h.031v-10.728z" fill="#fc6719"/><path d="m130.682 157.204c-3.469 0-6.796-1.378-9.249-3.831s-3.831-5.78-3.831-9.249v-9.96c-.173 0-.341 0-.509 0-2.647 0-5.258.617-7.625 1.802-2.368 1.186-4.426 2.907-6.012 5.027-1.585 2.119-2.655 4.58-3.124 7.185-.4686 2.606-.323 5.285.424 7.825-3.5109 2.399-6.0588 5.965-7.1917 10.064s-.7774 8.467 1.0034 12.329c13.0523-.693 25.7903-4.259 37.3053-10.443v-3.095-7.634z" fill="#fdb98d"/><g fill="#fffac2"><path d="m131.863 107.506h-.041c0 .198.031.397.041.595z"/><path d="m121.388 112.106h-12.54v.067c0 .947.186 1.886.549 2.761.363.876.894 1.672 1.564 2.342.671.67 1.466 1.201 2.342 1.564.875.363 1.814.549 2.761.549h1.731c-.132.781-.198 1.571-.199 2.362v12.413c2.908.088 5.744.919 8.239 2.415s4.565 3.607 6.012 6.13v-34.608c0-.198-.026-.397-.041-.595-1.96.007-3.897.419-5.69 1.211s-3.403 1.946-4.728 3.389zm1.053 17.075c0 .242-.071.478-.205.679-.135.201-.325.357-.549.45-.223.092-.468.117-.705.069-.237-.047-.455-.163-.626-.334s-.287-.388-.334-.625-.023-.483.07-.706c.092-.223.249-.414.449-.548.201-.134.437-.206.679-.206.16 0 .319.032.467.093.149.061.283.151.397.265.113.113.203.248.265.396.061.148.092.307.092.467z"/><path d="m131.125 144.155c-.224.495-.426 1.004-.605 1.526-.119.34-.226.689-.321 1.049-.771 2.856-.789 5.863-.051 8.728l.458-.035c.412-.031.83-.056 1.257-.061v-12.653c-.258.462-.504.943-.738 1.446z"/><path d="m130.61 155.413-.458.035c-.731-2.866-.713-5.871.051-8.728.095-.339.202-.689.321-1.049.176-.519.378-1.028.606-1.526.227-.499.473-.981.738-1.446-1.447-2.523-3.517-4.634-6.012-6.13s-5.331-2.327-8.239-2.415v9.96c0 3.469 1.378 6.796 3.831 9.249s5.78 3.831 9.249 3.831h1.181v-1.853c-.438.016-.855.036-1.268.072zm-1.954-4.133c-.15-.004-.296-.053-.419-.139-.123-.087-.218-.208-.272-.349-.055-.14-.066-.293-.034-.44.033-.147.108-.281.217-.386.108-.104.245-.174.393-.201.148-.026.301-.008.439.051.138.06.256.16.337.286.082.126.125.274.123.425-.001.101-.023.201-.063.293-.04.093-.099.177-.171.247-.073.07-.16.125-.254.162-.094.036-.195.054-.296.051z"/><path d="m131.863 155.352c-.423 0-.84.025-1.258.061.418-.036.835-.056 1.258-.061z"/><path d="m131.125 144.155c.224-.496.47-.978.738-1.446-.258.462-.504.943-.738 1.446z"/><path d="m130.52 145.672c.176-.52.378-1.028.605-1.527-.224.502-.426 1.011-.605 1.527z"/></g><path d="m131.894 109.302v33.361c1.447-2.507 3.51-4.604 5.994-6.091s5.307-2.316 8.2-2.408v-12.413c0-.792-.066-1.581-.198-2.362h1.73c1.914 0 3.75-.76 5.103-2.113 1.354-1.354 2.114-3.189 2.114-5.103 0 0 0-.041 0-.067h-12.535c-1.33-1.442-2.944-2.594-4.74-3.382-1.797-.788-3.737-1.196-5.699-1.198v.595c.021.382.031.779.031 1.181zm10.581 18.653c.241 0 .477.071.678.206.201.134.358.325.45.548.093.223.117.469.07.706-.047.236-.164.454-.335.625-.17.171-.388.287-.625.334s-.483.023-.706-.069c-.223-.093-.414-.249-.548-.45s-.206-.437-.206-.679c0-.16.032-.319.093-.467.062-.148.152-.283.265-.396.113-.114.248-.204.396-.265.148-.062.307-.093.468-.093z" fill="#00bcb4"/><path d="m131.894 109.302c0-.402 0-.804-.031-1.201v34.608l.031-.046z" fill="#00bcb4"/><path d="m131.984 155.351c.544 0 1.079.031 1.608.077 1.099-4.281.493-8.82-1.69-12.663v12.586z" fill="#00bcb4"/><path d="m131.863 155.351h.031v-12.586l-.031-.056z" fill="#00bcb4"/><path d="m131.894 142.663v.102c2.182 3.843 2.788 8.382 1.689 12.663-.508-.051-1.063-.077-1.608-.077h-.086v1.853h1.114c3.469 0 6.796-1.378 9.249-3.831s3.831-5.78 3.831-9.249v-9.96c-2.893.093-5.714.922-8.197 2.409-2.483 1.488-4.545 3.584-5.992 6.09zm3.145 7.09c.151 0 .299.045.424.129.126.083.224.203.281.342.058.14.073.293.044.441-.03.148-.102.284-.209.391s-.243.18-.391.209c-.148.03-.302.014-.441-.043-.14-.058-.259-.156-.343-.282-.084-.125-.128-.273-.128-.424 0-.202.08-.396.223-.539.143-.144.338-.224.54-.224z" fill="#00bcb4"/><path d="m131.863 155.352v1.852h.031v-1.852z" fill="#00bcb4"/><path d="m131.894 142.766v-.102l-.031.046z" fill="#00bcb4"/><path d="m121.216 130.403c.674 0 1.221-.547 1.221-1.222 0-.674-.547-1.221-1.221-1.221-.675 0-1.222.547-1.222 1.221 0 .675.547 1.222 1.222 1.222z" fill="#273329"/><path d="m142.473 130.403c.675 0 1.222-.547 1.222-1.222 0-.674-.547-1.221-1.222-1.221-.674 0-1.221.547-1.221 1.221 0 .675.547 1.222 1.221 1.222z" fill="#273329"/><path d="m128.656 151.28c.422 0 .763-.342.763-.764 0-.421-.341-.763-.763-.763s-.763.342-.763.763c0 .422.341.764.763.764z" fill="#273329"/><path d="m135.033 151.28c.422 0 .763-.342.763-.764 0-.421-.341-.763-.763-.763s-.763.342-.763.763c0 .422.341.764.763.764z" fill="#273329"/></g></svg>