<svg fill="none" height="179" viewBox="0 0 179 179" width="179" xmlns="http://www.w3.org/2000/svg" xmlns:xlink="http://www.w3.org/1999/xlink"><clipPath id="a"><path d="m-.001953 0h178.13v178.13h-178.13z"/></clipPath><g clip-path="url(#a)"><path d="m85.6665 126.284c1.1943-.129 2.4039-.197 3.6287-.204v-26.7651c-4.6789 8.1751-5.9809 17.8531-3.6287 26.9741z" fill="#fbae17"/><path d="m84.5276 117.24c-.0076-6.29 1.6387-12.472 4.7739-17.925-4.3953-7.6714-11.4562-13.4603-19.8405-16.2662-8.3842-2.8059-17.5072-2.4333-25.6347 1.0471-8.1274 3.4804-14.6927 9.8259-18.4476 17.8301-3.755 8.004-4.4379 17.109-1.919 25.584-3.7254 2.533-6.946 5.738-9.4968 9.451 9.7696 15.288 23.9596 27.242 40.6848 34.273 6.2211 2.607 12.7201 4.494 19.3703 5.623 4.97.847 10.0027 1.272 15.0443 1.273h.2392v-52.05c-1.2249 0-2.4344.068-3.6288.204-.7619-2.954-1.1467-5.993-1.1451-9.044z" fill="#fdb98d"/><path d="m162.858 39.1579c-12.969-19.7448-33.251-33.52882-56.384-38.319682-23.132-4.790868-47.2203-.196141-66.9651 12.773382-19.7449 12.9695-33.52886 33.2514-38.31973 56.384-4.79086 23.1325-.196142 47.2204 12.77343 66.9654 2.5508-3.713 5.7714-6.918 9.4968-9.451-2.519-8.475-1.8361-17.58 1.9189-25.584 3.755-8.0043 10.3202-14.3498 18.4477-17.8302 8.1275-3.4805 17.2504-3.8531 25.6347-1.0472 8.3842 2.8059 15.4452 8.5948 19.8405 16.2662 4.3953-7.6714 11.4558-13.4603 19.8408-16.2662 8.384-2.8059 17.507-2.4333 25.634 1.0472 8.128 3.4804 14.693 9.8259 18.448 17.8302 3.755 8.004 4.438 17.109 1.919 25.584 3.602 2.452 6.733 5.533 9.242 9.095 9.236-14.637 14.01-31.646 13.739-48.9508-.271-17.3049-5.575-34.1563-15.266-48.4963z" fill="#3d113c"/><path d="m89.54 126.075c1.1502 0 2.2851.061 3.4048.163 2.3338-9.107 1.0266-18.764-3.644-26.9231v26.7651z" fill="#fbae17"/><path d="m155.143 127.51c2.519-8.475 1.836-17.58-1.919-25.584-3.755-8.0042-10.321-14.3497-18.448-17.8301-8.128-3.4804-17.251-3.853-25.635-1.0471s-15.4449 8.5948-19.8402 16.2662c4.6706 8.159 5.9778 17.816 3.644 26.923-1.1197-.107-2.2546-.163-3.4048-.163h-.2392v52.055c5.1098-.011 10.2093-.459 15.2432-1.339 6.881-1.206 13.595-3.224 20.001-6.01 16.4-7.15 30.278-19.055 39.84-34.176-2.509-3.562-5.64-6.643-9.242-9.095z" fill="#fc6719"/><path d="m89.2603 24.7906c-4.1629.0031-8.28.8699-12.0907 2.5458-3.8108 1.6758-7.2323 4.1242-10.0482 7.1903h-26.5413v.1374c0 4.0494 1.6086 7.9329 4.4719 10.7963 2.8634 2.8633 6.7469 4.472 10.7963 4.472h3.6949c-.2802 1.6529-.4215 3.3264-.4224 5.0029v47.3617c0 3.637.7163 7.238 2.1079 10.597 1.3916 3.36 3.4314 6.413 6.0028 8.984 5.1931 5.193 12.2366 8.111 19.5808 8.111h2.504v-105.1984z" fill="#fffac2"/><path d="m137.92 34.5267h-26.521c-2.811-3.0608-6.226-5.5061-10.03-7.1817-3.803-1.6757-7.9122-2.5454-12.0682-2.5544v105.2084h2.4225c3.6374 0 7.2391-.717 10.5997-2.109 3.36-1.392 6.413-3.433 8.985-6.005 2.571-2.573 4.611-5.627 6.002-8.987 1.391-3.361 2.106-6.963 2.105-10.601v-47.3312c-.001-1.6765-.142-3.35-.423-5.0029h3.66c4.049 0 7.933-1.6086 10.796-4.472 2.863-2.8633 4.472-6.7469 4.472-10.7962 0-.0866 0-.1222 0-.168z" fill="#00bcb4"/><g fill="#273329"><path d="m66.7604 73.2623c1.4307 0 2.5906-1.1598 2.5906-2.5905s-1.1599-2.5905-2.5906-2.5905-2.5905 1.1598-2.5905 2.5905 1.1598 2.5905 2.5905 2.5905z"/><path d="m111.76 73.2623c1.431 0 2.591-1.1598 2.591-2.5905s-1.16-2.5905-2.591-2.5905c-1.43 0-2.59 1.1598-2.59 2.5905s1.16 2.5905 2.59 2.5905z"/><path d="m82.5071 117.459c.8938 0 1.6184-.725 1.6184-1.619s-.7246-1.618-1.6184-1.618-1.6184.724-1.6184 1.618.7246 1.619 1.6184 1.619z"/><path d="m96.0149 117.459c.8939 0 1.6185-.725 1.6185-1.619s-.7246-1.618-1.6185-1.618c-.8938 0-1.6184.724-1.6184 1.618s.7246 1.619 1.6184 1.619z"/></g></g></svg>