<svg fill="none" height="178" viewBox="0 0 178 178" width="178" xmlns="http://www.w3.org/2000/svg" xmlns:xlink="http://www.w3.org/1999/xlink"><clipPath id="a"><path d="m26 38h126.365v102.017h-126.365z"/></clipPath><circle cx="89" cy="89" fill="#3d113c" r="89"/><g clip-path="url(#a)"><path d="m85.629 101.185-37.3614 37.356c.4672.469 1.0224.842 1.6337 1.095.6114.254 1.2669.385 1.9289.385s1.3175-.131 1.9288-.385c.6114-.253 1.1666-.626 1.6338-1.095l33.7173-33.707v-.193z" fill="#00bcb4"/><path d="m89.109 97.5473-58.8183-58.8082c-.4725-.4725-1.1132-.7379-1.7813-.7379s-1.3089.2654-1.7813.7379c-.4725.4724-.7379 1.1131-.7379 1.7813 0 .6681.2654 1.3088.7379 1.7812l58.8998 58.8844 3.4557-3.4555z" fill="#00bcb4"/><path d="m151.633 42.2904c.472-.4724.737-1.1132.737-1.7813s-.265-1.3088-.737-1.7813c-.473-.4724-1.114-.7378-1.782-.7378s-1.308.2654-1.781.7378l-58.8845 58.8998 3.5626 3.5624z" fill="#016099"/><path d="m122.99 138.541c.467.469 1.023.842 1.634 1.095.611.254 1.267.385 1.929.385s1.317-.131 1.929-.385c.611-.253 1.166-.626 1.633-1.095l-37.361-37.361-3.5626 3.563z" fill="#016099"/><g fill="#fdb98d"><path d="m88.9922 39.7202v92.6528h.0254v-92.6528z"/><path d="m64.2988 125.747c2.6443 1.596 5.4423 2.922 8.3518 3.959v-12.311z"/><path d="m94.4902 40.1326v91.8284h.056v-91.8183z"/><path d="m72.6545 61.9559v-.8194l-12.2146-12.2146c-1.5478 1.1641-3.0215 2.4237-4.4126 3.7712l12.9526 12.9373z"/><path d="m65.1121 69.4985-12.7795-12.7795c-1.2423 1.5107-2.388 3.0984-3.4303 4.7535l12.123 12.1128z"/><path d="m72.6558 42.387c-2.6136.9294-5.138 2.0928-7.5425 3.476l7.5425 7.5425z"/><path d="m57.1626 77.4483-10.9677-10.9473c-.8927 1.9117-1.6528 3.8826-2.275 5.8986l9.161 9.161z"/><path d="m72.6561 69.6868-29.0096 29.0096c.5827 2.0496 1.3071 4.0566 2.1681 6.0056l26.8415-26.8416z"/><path d="m42.4609 78.6492c-.7286 4.5218-.7869 9.1263-.173 13.665l6.9267-6.9165z"/><path d="m72.6553 85.5913-24.2256 24.2257c1.0062 1.682 2.1179 3.298 3.3285 4.84l20.8971-20.8972z"/><path d="m72.6551 101.49-17.2684 17.264c1.3628 1.367 2.8093 2.649 4.3311 3.837l12.9322-12.932z"/><path d="m100.006 95.3374v35.5296h.03v-35.4991z"/><path d="m133.766 77.5345c-.627-3.3737-1.629-6.6667-2.988-9.8175l-3.415 3.415z"/><path d="m119.412 79.082 14.52 14.5201c.41-2.4967.616-5.0226.616-7.5527l-11.054-11.0492z"/><path d="m105.502 69.361 15.777-15.7772c-1.352-1.3771-2.788-2.6689-4.3-3.868l-11.477 11.4716z"/><path d="m105.502 85.2602 22.673-22.6733c-.995-1.6916-2.096-3.3184-3.298-4.8706l-19.375 19.3703z"/><path d="m105.502 129.044c1.954-.787 3.852-1.707 5.68-2.753l-5.68-5.68z"/><path d="m105.502 92.9657v3.9901l18.495 18.4952c1.24-1.508 2.384-3.092 3.425-4.744l-19.849-19.8484z"/><path d="m112.424 46.5348c-2.206-1.354-4.521-2.5202-6.922-3.4862v10.4078z"/><path d="m105.502 112.881 10.352 10.351c1.552-1.155 3.031-2.406 4.428-3.745l-14.76-14.76z"/><path d="m111.463 87.0368 18.703 18.7032c.898-1.906 1.663-3.872 2.291-5.883l-16.912-16.907z"/><path d="m100.036 90.7265v-49.4946h-.03v49.5302z"/><path d="m100.038 95.3678v-4.6415l-.031.0305v-49.5302c-1.7984-.4712-3.6238-.8332-5.466-1.084v91.8084c1.8422-.251 3.6676-.613 5.466-1.085v-35.5287z"/></g><path d="m105.502 61.1875 11.471-11.4817c-1.451-1.1501-2.971-2.2123-4.549-3.1809l-6.922 6.9216z" fill="#fc6719"/><path d="m105.503 77.0867 19.376-19.3754c-1.12-1.4454-2.323-2.8236-3.604-4.1276l-15.777 15.7772z" fill="#fc6719"/><path d="m119.411 79.0817 4.072-4.0715 11.049 11.0491c0-2.8545-.262-5.703-.784-8.5095l-6.387-6.4178 3.415-3.415c-.759-1.7624-1.628-3.4758-2.601-5.1301l-22.673 22.6734v7.7053l2.092-2.0917 19.848 19.8491c1.015-1.607 1.929-3.274 2.739-4.993l-18.719-18.6935 4.071-4.0716 16.907 16.9071c.637-2.0481 1.13-4.1381 1.476-6.2549z" fill="#fc6719"/><path d="m105.504 104.712 14.759 14.759c1.317-1.263 2.56-2.602 3.72-4.01l-18.495-18.4952z" fill="#fc6719"/><path d="m105.502 120.611 5.68 5.68c1.617-.923 3.177-1.943 4.672-3.053l-10.352-10.352z" fill="#fc6719"/><path d="m88.21 39.71c-1.5744 0-3.13.078-4.667.2341v92.2099c1.5336.153 3.0892.231 4.667.234h.7837v-92.6679z" fill="#fffac2"/><path d="m78.0759 40.8247c-1.837.4094-3.6472.9312-5.4203 1.5625v11.0185l-7.5425-7.5425c-1.6119.9238-3.167 1.9435-4.6568 3.0537l12.2146 12.2146v.8194l-3.6745 3.6745-12.9679-12.9322c-1.3143 1.2664-2.5532 2.609-3.7102 4.0207l12.7948 12.7846-4.0715 4.0715-12.1383-12.0975c-1.0052 1.6187-1.9095 3.298-2.7075 5.0283l10.9677 10.9473-4.0716 4.0716-9.1609-9.161c-.6326 2.0534-1.1207 4.1486-1.4607 6.2702l6.7435 6.7689-6.9267 6.9165c.2907 2.1629.7346 4.3025 1.3283 6.4025l29.0097-29.0097v8.1533l-26.8314 26.8616c.7726 1.75 1.653 3.449 2.6363 5.09l24.2256-24.2259v8.1736l-20.8971 20.8973c1.1299 1.436 2.3433 2.804 3.6339 4.097l17.2632-17.263v8.173l-12.9322 12.932c1.4626 1.141 2.9922 2.193 4.5805 3.151l8.3517-8.352v12.311c1.7731.632 3.5833 1.153 5.4203 1.563z" fill="#fffac2"/><path d="m100.037 41.2319v89.6251c1.858-.49 3.684-1.095 5.466-1.812v-85.9961c-1.782-.7193-3.608-1.3262-5.466-1.817z" fill="#fc6719"/><path d="m89.0234 39.7202v92.6528c1.8285-.03 3.6537-.168 5.4661-.412v-91.8285c-1.8124-.2444-3.6376-.382-5.4661-.4123z" fill="#fc6719"/><path d="m78.123 40.8146v90.4644c1.7778.398 3.5775.69 5.3897.875v-92.2097c-1.8121.1837-3.6118.4743-5.3897.8703z" fill="#fdb98d"/><path d="m78.0762 40.8246v90.4444h.0458v-90.4545z" fill="#fdb98d"/></g></svg>