<svg width="256" height="294" viewBox="0 0 256 294" fill="none" xmlns="http://www.w3.org/2000/svg">
<path d="M219.931 89.6552C244.977 117.702 261.64 155.84 254.188 188.441C246.788 221.041 215.222 248.157 180.552 262.387C145.881 276.618 108.054 278.015 74.056 264.406C40.0581 250.796 9.83767 222.128 2.33432 188.492C-5.16902 154.857 10.0447 116.253 34.7281 88.3098C59.4633 60.3146 93.7199 42.9275 127.563 43.2897C161.405 43.6002 194.886 61.6082 219.931 89.6552Z" fill="#FBD48B"/>
<path d="M175.859 31.719C175.859 31.719 169.9 33.7714 168.258 36.1354C166.616 38.4995 166.859 47.7961 163.841 50.4414C161.875 52.0374 159.361 52.7964 156.84 52.5546L149.467 40.0046C149.467 40.0046 154.674 41.4565 156.939 39.2444C159.204 37.0324 161.371 31.0653 164.875 29.3625C168.379 27.6598 175.859 31.719 175.859 31.719Z" fill="#5A6174" stroke="#5A6174" stroke-width="0.919403" stroke-linecap="round" stroke-linejoin="round"/>
<path d="M163.932 50.5327L156.368 39.3281" stroke="#6EC6D8" stroke-width="1.3791" stroke-miterlimit="10" stroke-linecap="round"/>
<path d="M166.73 42.6875L160.011 34.8428" stroke="#6EC6D8" stroke-width="1.3791" stroke-miterlimit="10" stroke-linecap="round"/>
<path d="M168.971 35.1238L163.932 30.084" stroke="#6EC6D8" stroke-width="1.3791" stroke-miterlimit="10" stroke-linecap="round"/>
<path d="M74.4873 35.4041C74.4873 35.4041 80.4468 37.4565 82.0888 39.8205C83.7307 42.1846 83.4874 51.4888 86.5052 54.1265C88.4711 55.723 90.9848 56.4845 93.5062 56.2473L100.88 43.6897C100.88 43.6897 95.6726 45.1416 93.3997 42.9295C91.1269 40.7175 88.9757 34.7656 85.4714 33.0476C81.9671 31.3297 74.4873 35.4041 74.4873 35.4041Z" fill="#5A6174" stroke="#5A6174" stroke-width="0.919403" stroke-linecap="round" stroke-linejoin="round"/>
<path d="M86.4141 54.2182L93.9775 43.0137" stroke="#6EC6D8" stroke-width="1.3791" stroke-miterlimit="10" stroke-linecap="round"/>
<path d="M83.6182 46.3732L90.3379 38.5361" stroke="#6EC6D8" stroke-width="1.3791" stroke-miterlimit="10" stroke-linecap="round"/>
<path d="M81.374 38.8093L86.4138 33.7695" stroke="#6EC6D8" stroke-width="1.3791" stroke-miterlimit="10" stroke-linecap="round"/>
<path d="M87.2913 197.634C86.212 200.702 85.6592 203.931 85.6562 207.183C85.6562 212.583 91.0287 215.62 94.4362 216.279C98.8257 216.953 103.292 216.953 107.682 216.279C111.694 215.62 114.222 203.913 114.222 203.913L87.2913 197.634Z" fill="#5A6174"/>
<path d="M158.224 197.634C159.303 200.702 159.856 203.931 159.859 207.183C159.859 212.583 154.486 215.62 151.079 216.279C146.689 216.953 142.223 216.953 137.833 216.279C133.821 215.62 131.293 203.913 131.293 203.913L158.224 197.634Z" fill="#5A6174"/>
<path d="M166.696 28.4418C163.946 28.6713 160.565 27.4883 160.565 27.4883C160.565 27.4883 163.978 25.1634 163.58 24.9363C161.342 25.3481 159.047 25.2542 156.849 24.6607C156.608 24.5139 156.36 24.3727 156.112 24.2373C156.114 24.197 156.153 24.1694 156.23 24.1548C156.308 24.1401 158.921 22.7575 158.317 22.3098C155.257 22.7826 152.2 21.5645 149.466 21.9619C148.59 21.8206 147.707 21.7346 146.821 21.7043C137.108 21.3733 128.809 27.6987 126.838 36.2886C125.926 39.0567 124.364 43.5225 122.954 45.9677C124.801 45.1823 126.306 42.5383 126.306 42.5383C125.913 45.1374 124.851 47.576 123.236 49.5902C123.558 49.959 125.443 49.198 126.088 48.9372L126.07 49.4733C125.72 50.4194 125.008 52.1612 124.338 52.8194C123.396 53.7454 125.954 52.8745 125.954 52.8745L124.914 83.3815C124.565 93.6312 133.134 102.24 144.063 102.612C154.991 102.985 164.137 94.9973 164.487 84.7476L165.98 40.9357C166.1 37.2265 165.069 33.5813 163.043 30.5509L163.12 30.5535C163.12 30.5535 166.776 28.9929 166.696 28.4418Z" fill="#EE787A"/>
<path d="M112.44 71.5934C109.821 71.9043 106.551 70.8773 106.551 70.8773C106.551 70.8773 109.737 68.5292 109.349 68.3238C107.224 68.7933 105.029 68.7782 102.91 68.2794C102.674 68.1461 102.433 68.0184 102.192 67.8963C102.192 67.8575 102.229 67.8297 102.302 67.813C102.375 67.7964 104.827 66.3808 104.235 65.97C101.327 66.5252 98.3672 65.4538 95.7684 65.9256C94.9269 65.8185 94.0801 65.7647 93.2325 65.7646C83.943 65.7646 76.2201 72.1208 74.6168 80.4476C73.8362 83.14 72.4896 87.4866 71.2217 89.8847C72.9612 89.0687 74.3129 86.4762 74.3129 86.4762C74.0212 88.9891 73.0863 91.3695 71.6094 93.3598C71.929 93.7039 73.7052 92.9101 74.3129 92.6381V93.1544C74.0091 94.0759 73.3856 95.7745 72.7673 96.4296C71.8976 97.3511 74.3129 96.4296 74.3129 96.4296V125.807C74.3129 135.677 82.7799 143.676 93.2325 143.676C103.685 143.676 112.163 135.693 112.163 125.823V83.634C112.156 80.0624 111.053 76.5901 109.019 73.7418H109.092C109.092 73.7418 112.535 72.1208 112.44 71.5934Z" fill="#EE787A"/>
<path d="M174.727 118.082C179.936 192.37 161.59 210.263 126.032 210.263C82.773 210.263 69.8633 188.746 74.3931 118.082C70.9957 50.1366 77.3374 22.2788 124.673 19.5607C174.644 16.6913 179.03 48.098 174.727 118.082Z" fill="#EE787A"/>
<path d="M97.4008 130.829L95.6398 128.007C95.3526 127.564 95.1825 127.057 95.1448 126.532C95.1072 126.008 95.2032 125.481 95.4241 125.001C95.6451 124.521 95.984 124.103 96.4101 123.784C96.8363 123.464 97.3362 123.255 97.8646 123.173L100.418 122.747C100.939 122.659 101.474 122.699 101.975 122.863C102.475 123.027 102.927 123.311 103.289 123.688C103.651 124.066 103.913 124.526 104.051 125.027C104.189 125.529 104.199 126.057 104.08 126.564L103.291 129.84C103.151 130.456 102.827 131.018 102.362 131.454C101.896 131.89 101.309 132.179 100.677 132.286C100.044 132.392 99.3946 132.31 98.8109 132.05C98.2273 131.791 97.7363 131.365 97.4008 130.829V130.829Z" fill="#FDD38B"/>
<path d="M147.883 128.684L147.811 125.371C147.807 124.855 147.927 124.344 148.159 123.883C148.392 123.422 148.731 123.025 149.146 122.726C149.56 122.427 150.039 122.237 150.539 122.17C151.04 122.104 151.547 122.164 152.016 122.345L154.319 123.246C154.791 123.427 155.21 123.726 155.539 124.116C155.869 124.505 156.098 124.974 156.207 125.479C156.316 125.984 156.302 126.511 156.164 127.013C156.027 127.514 155.771 127.975 155.42 128.353L153.171 130.77C152.747 131.225 152.202 131.543 151.606 131.683C151.009 131.823 150.388 131.778 149.821 131.554C149.254 131.33 148.767 130.938 148.422 130.427C148.077 129.916 147.889 129.309 147.883 128.684Z" fill="#FDD38B"/>
<path d="M173.067 119.672C173.067 119.672 156.105 125.439 124.201 125.329C92.2963 125.218 75.8559 119.335 75.8559 119.335" stroke="#B55A5B" stroke-width="4.59702" stroke-linecap="round" stroke-linejoin="round"/>
<path d="M124.9 118.763C145.789 118.763 162.724 101.828 162.724 80.9389C162.724 60.0495 145.789 43.1152 124.9 43.1152C104.01 43.1152 87.0762 60.0495 87.0762 80.9389C87.0762 101.828 104.01 118.763 124.9 118.763Z" fill="#EEEAE5"/>
<path d="M124.899 101.534C136.274 101.534 145.495 92.3131 145.495 80.9384C145.495 69.5638 136.274 60.3428 124.899 60.3428C113.525 60.3428 104.304 69.5638 104.304 80.9384C104.304 92.3131 113.525 101.534 124.899 101.534Z" fill="#5A6174"/>
<path d="M25.1929 83.0117L20.3809 83.0449L21.4254 234.18L26.2375 234.146L25.1929 83.0117Z" fill="#798DAC"/>
<path d="M40.1626 82.9111L35.3506 82.9443L36.3952 234.079L41.2072 234.046L40.1626 82.9111Z" fill="#798DAC"/>
<path d="M55.1353 82.9872L50.3232 83.0205L51.3678 234.155L56.1799 234.122L55.1353 82.9872Z" fill="#798DAC"/>
<path d="M70.106 82.8886L65.2939 82.9219L66.3385 234.057L71.1506 234.023L70.106 82.8886Z" fill="#798DAC"/>
<path d="M85.0777 82.4414L80.2656 82.4746L81.3102 233.609L86.1222 233.576L85.0777 82.4414Z" fill="#798DAC"/>
<path d="M100.049 82.3408L95.2373 82.374L96.2819 233.509L101.094 233.475L100.049 82.3408Z" fill="#798DAC"/>
<path d="M115.021 82.4179L110.209 82.4512L111.254 233.586L116.066 233.553L115.021 82.4179Z" fill="#798DAC"/>
<path d="M129.993 82.3183L125.181 82.3516L126.225 233.486L131.037 233.453L129.993 82.3183Z" fill="#798DAC"/>
<path d="M143.895 82.3955L139.083 82.4287L140.128 233.563L144.94 233.53L143.895 82.3955Z" fill="#798DAC"/>
<path d="M158.866 82.2949L154.054 82.3281L155.098 233.463L159.91 233.429L158.866 82.2949Z" fill="#798DAC"/>
<path d="M173.838 82.371L169.026 82.4043L170.071 233.539L174.883 233.506L173.838 82.371Z" fill="#798DAC"/>
<path d="M188.81 82.2724L183.998 82.3057L185.043 233.44L189.855 233.407L188.81 82.2724Z" fill="#798DAC"/>
<path d="M203.78 81.8251L198.968 81.8584L200.012 232.993L204.824 232.96L203.78 81.8251Z" fill="#798DAC"/>
<path d="M218.751 81.7255L213.939 81.7588L214.984 232.893L219.796 232.86L218.751 81.7255Z" fill="#798DAC"/>
<path d="M233.723 81.8017L228.911 81.835L229.956 232.97L234.768 232.936L233.723 81.8017Z" fill="#798DAC"/>
<path d="M233.43 229.229H22.3345C19.2034 229.229 16.665 231.768 16.665 234.899V242.809C16.665 245.94 19.2034 248.479 22.3345 248.479H233.43C236.561 248.479 239.099 245.94 239.099 242.809V234.899C239.099 231.768 236.561 229.229 233.43 229.229Z" fill="#5A6174"/>
<path d="M233.383 75.9238H22.1766C19.076 75.9238 16.5625 78.4373 16.5625 81.5379V81.5385C16.5625 84.6391 19.076 87.1526 22.1766 87.1526H233.383C236.483 87.1526 238.997 84.6391 238.997 81.5385V81.5379C238.997 78.4373 236.483 75.9238 233.383 75.9238Z" fill="#5A6174"/>
<path d="M55.1426 61.8828C57.5288 61.8828 59.7018 60.5921 60.955 58.431C61.7768 57.0135 61.9651 55.2849 61.5578 53.4591C60.9546 51.3961 59.4995 50.1431 58.4514 49.4949C57.7836 49.1081 57.0364 48.8749 56.1003 48.7615C55.834 48.7292 55.569 48.7133 55.3066 48.7133C52.92 48.7133 50.7471 50.0037 49.4939 52.1653C48.6721 53.5826 48.4838 55.3112 48.9345 57.3028C49.3007 58.9226 50.3628 60.2774 51.9995 61.1014C52.6662 61.4882 53.4126 61.7212 54.3484 61.8345C54.6147 61.8669 54.8799 61.8828 55.1426 61.8828ZM55.142 64.641C54.7702 64.6408 54.3943 64.6186 54.0168 64.5728C52.8561 64.432 51.7156 64.1254 50.6155 63.4873C48.3946 62.3773 46.7916 60.3324 46.2441 57.9111C45.6962 55.4894 45.8318 52.9824 47.1079 50.7817C48.8321 47.8076 51.9226 45.9551 55.3066 45.9551C55.6787 45.9551 56.0543 45.9775 56.4321 46.0233C57.5928 46.1641 58.7333 46.4707 59.8339 47.1081C61.8685 48.364 63.4913 50.2435 64.2052 52.6849C64.7526 55.1065 64.6171 57.6137 63.3413 59.8144C61.6167 62.7883 58.5264 64.641 55.142 64.641Z" fill="#7ACCC7"/>
<path d="M72.4446 97.3258L74.5529 97.5812C75.1119 97.649 75.675 97.4919 76.1182 97.1444C76.5614 96.797 76.8484 96.2878 76.9161 95.7287C76.9839 95.1697 76.8268 94.6065 76.4793 94.1633C76.1319 93.7201 75.6226 93.4331 75.0635 93.3654L72.9554 93.1099C72.6762 93.0589 72.3893 93.0675 72.1137 93.1355C71.8382 93.2035 71.5802 93.3292 71.3569 93.5043C71.1335 93.6794 70.9499 93.9001 70.818 94.1514C70.6862 94.4028 70.6092 94.6791 70.5921 94.9624C70.5255 95.5213 70.683 96.0838 71.0303 96.5267C71.3775 96.9697 71.886 97.257 72.4446 97.3258Z" fill="#7ACCC7"/>
<path d="M57.5675 91.2459C57.0085 91.1781 56.4454 91.3351 56.0021 91.6825C55.5589 92.0299 55.2717 92.5391 55.2039 93.0982C55.1361 93.6573 55.2932 94.2204 55.6406 94.6636C55.988 95.1069 56.4972 95.394 57.0563 95.4618L59.1645 95.717C59.7235 95.7847 60.2867 95.6276 60.7299 95.2802C61.1731 94.9328 61.4601 94.4234 61.5278 93.8643C61.5956 93.3052 61.4384 92.7423 61.0909 92.2991C60.7435 91.8559 60.2343 91.5689 59.6752 91.5011L57.5675 91.2459Z" fill="#7ACCC7"/>
<path d="M65.3927 99.0386C65.1135 98.9876 64.8266 98.9962 64.5511 99.0642C64.2755 99.1322 64.0175 99.2579 63.7942 99.433C63.5708 99.6081 63.3872 99.8288 63.2553 100.08C63.1235 100.331 63.0464 100.608 63.0293 100.891L62.7742 102.999C62.7407 103.276 62.762 103.556 62.8369 103.825C62.9119 104.093 63.039 104.345 63.211 104.564C63.383 104.783 63.5965 104.967 63.8394 105.104C64.0823 105.241 64.3498 105.328 64.6266 105.362C64.9034 105.396 65.1841 105.374 65.4526 105.299C65.7212 105.224 65.9723 105.097 66.1918 104.925C66.4112 104.753 66.5946 104.54 66.7315 104.297C66.8684 104.054 66.9561 103.786 66.9896 103.51L67.2453 101.402C67.3119 100.843 67.1542 100.28 66.807 99.8375C66.4598 99.3946 65.9513 99.1074 65.3927 99.0386Z" fill="#7ACCC7"/>
<path d="M69.109 86.0126C69.1768 85.4535 69.0196 84.8904 68.6722 84.4472C68.3248 84.004 67.8155 83.7169 67.2564 83.6492C66.6973 83.5815 66.1343 83.7386 65.6911 84.086C65.2479 84.4334 64.9609 84.9426 64.8931 85.5017L64.6375 87.6099C64.5698 88.1689 64.727 88.7321 65.0744 89.1753C65.4218 89.6185 65.931 89.9055 66.4901 89.9732C67.0492 90.041 67.6123 89.8839 68.0555 89.5364C68.4987 89.189 68.7857 88.6798 68.8535 88.1208L69.109 86.0126Z" fill="#7ACCC7"/>
<path d="M78.9706 46.9967L81.4989 47.3029C82.058 47.3707 82.6211 47.2134 83.0643 46.8661C83.5076 46.5187 83.7947 46.0094 83.8625 45.4504C83.9303 44.8913 83.7732 44.3282 83.4258 43.885C83.0784 43.4417 82.5692 43.1548 82.0101 43.087L79.4818 42.7808C79.2026 42.7298 78.9157 42.7384 78.6401 42.8064C78.3646 42.8744 78.1066 43.0001 77.8833 43.1752C77.6599 43.3503 77.4763 43.571 77.3444 43.8223C77.2126 44.0737 77.1355 44.35 77.1184 44.6333C77.0894 45.1846 77.2611 45.7277 77.6016 46.1621C77.9421 46.5966 78.4284 46.8931 78.9706 46.9967V46.9967Z" fill="#7ACCC7"/>
<path d="M98.3626 49.3472L100.891 49.6534C101.168 49.6869 101.448 49.6657 101.717 49.5907C101.986 49.5158 102.237 49.3886 102.456 49.2166C102.676 49.0446 102.859 48.8309 102.996 48.5881C103.133 48.3452 103.221 48.0779 103.254 47.8011C103.288 47.5243 103.266 47.2436 103.191 46.9751C103.116 46.7065 102.989 46.4553 102.817 46.2359C102.645 46.0165 102.432 45.833 102.189 45.6961C101.946 45.5592 101.679 45.4715 101.402 45.4379L98.8734 45.1313C98.5942 45.0803 98.3073 45.0891 98.0318 45.1571C97.7562 45.2251 97.4983 45.3508 97.2749 45.5259C97.0515 45.701 96.8678 45.9215 96.7359 46.1728C96.6041 46.4242 96.5271 46.7005 96.51 46.9838C96.4435 47.5427 96.6012 48.1052 96.9484 48.5481C97.2956 48.991 97.8041 49.2783 98.3626 49.3472V49.3472Z" fill="#7ACCC7"/>
<path d="M90.9792 39.6825C91.2584 39.7336 91.5452 39.7249 91.8208 39.6569C92.0964 39.5889 92.3544 39.4632 92.5778 39.2881C92.8012 39.113 92.9848 38.8924 93.1167 38.641C93.2485 38.3896 93.3254 38.1133 93.3425 37.83L93.6744 35.0895C93.7422 34.5304 93.585 33.9675 93.2375 33.5243C92.8901 33.0811 92.3809 32.7941 91.8218 32.7264C91.2628 32.6586 90.6996 32.8157 90.2564 33.1632C89.8132 33.5106 89.5262 34.0198 89.4585 34.5789L89.1523 37.1072C89.0767 37.6876 89.2228 38.2751 89.5615 38.7525C89.9001 39.2299 90.4064 39.562 90.9792 39.6825V39.6825Z" fill="#7ACCC7"/>
<path d="M88.5785 59.4977C88.8577 59.5488 89.1446 59.5401 89.4201 59.4721C89.6957 59.4041 89.9537 59.2784 90.1771 59.1033C90.4005 58.9282 90.5841 58.7076 90.716 58.4562C90.8478 58.2048 90.9248 57.9283 90.9418 57.645L91.2479 55.1166C91.3157 54.5576 91.1585 53.9946 90.8111 53.5514C90.4637 53.1083 89.9546 52.8214 89.3956 52.7537C88.8365 52.686 88.2735 52.8431 87.8304 53.1905C87.3872 53.5379 87.1002 54.047 87.0325 54.606L86.7259 57.1343C86.6593 57.6932 86.8168 58.2557 87.164 58.6986C87.5113 59.1416 88.0199 59.4289 88.5785 59.4977V59.4977Z" fill="#7ACCC7"/>
<path d="M90.8459 81.5389C92.0294 81.5389 93.1121 80.8902 93.7423 79.8036C94.1434 79.112 94.2283 78.2366 94.0375 77.3677C93.7365 76.3379 92.9917 75.7011 92.4849 75.3871C92.1695 75.2043 91.8181 75.0973 90.9514 75.016C89.7677 75.016 88.685 75.6647 88.0551 76.7511C87.6536 77.4436 87.5687 78.3186 87.8025 79.3524C87.9736 80.1082 88.4691 80.7403 89.3135 81.1683C89.6275 81.3506 89.9787 81.4575 90.4522 81.5149C90.5844 81.5311 90.7159 81.5389 90.8459 81.5389ZM90.8459 84.2971C90.6061 84.2971 90.3639 84.2828 90.1204 84.2531C89.3724 84.1625 88.6378 83.9654 87.9289 83.5539C86.4978 82.8386 85.4654 81.5217 85.1123 79.961C84.7593 78.4007 84.8467 76.7857 85.669 75.3675C86.7799 73.4515 88.771 72.2578 90.9514 72.2578C91.1912 72.2578 91.4335 72.2724 91.6769 72.3018C92.4244 72.3923 93.1595 72.59 93.8683 73.001C95.1793 73.81 96.2252 75.021 96.6849 76.594C97.0374 78.1542 96.9506 79.7697 96.1282 81.1874C95.017 83.1037 93.0261 84.2971 90.8459 84.2971Z" fill="#7ACCC7"/>
</svg>
