<svg fill="none" height="294" viewBox="0 0 256 294" width="256" xmlns="http://www.w3.org/2000/svg"><path d="m219.931 89.6552c25.046 28.0468 41.709 66.1848 34.257 98.7858-7.4 32.6-38.966 59.716-73.636 73.946-34.671 14.231-72.498 15.628-106.496 2.019-33.9979-13.61-64.21833-42.278-71.72168-75.914-7.50334-33.635 7.71038-72.239 32.39378-100.1822 24.7352-27.9952 58.9918-45.3823 92.8349-45.0201 33.842.3105 67.323 18.3185 92.368 46.3655z" fill="#fbd48b"/><path d="m175.859 31.719s-5.959 2.0524-7.601 4.4164c-1.642 2.3641-1.399 11.6607-4.417 14.306-1.966 1.596-4.48 2.355-7.001 2.1132l-7.373-12.55s5.207 1.4519 7.472-.7602c2.265-2.212 4.432-8.1791 7.936-9.8819 3.504-1.7027 10.984 2.3565 10.984 2.3565z" fill="#5a6174" stroke="#5a6174" stroke-linecap="round" stroke-linejoin="round" stroke-width=".919403"/><path d="m163.932 50.5327-7.564-11.2046" stroke="#6ec6d8" stroke-linecap="round" stroke-miterlimit="10" stroke-width="1.3791"/><path d="m166.73 42.6875-6.719-7.8447" stroke="#6ec6d8" stroke-linecap="round" stroke-miterlimit="10" stroke-width="1.3791"/><path d="m168.971 35.1238-5.039-5.0398" stroke="#6ec6d8" stroke-linecap="round" stroke-miterlimit="10" stroke-width="1.3791"/><path d="m74.4873 35.4041s5.9595 2.0524 7.6015 4.4164c1.6419 2.3641 1.3986 11.6683 4.4164 14.306 1.9659 1.5965 4.4796 2.358 7.001 2.1208l7.3738-12.5576s-5.2074 1.4519-7.4803-.7602c-2.2728-2.212-4.424-8.1639-7.9283-9.8819-3.5043-1.7179-10.9841 2.3565-10.9841 2.3565z" fill="#5a6174" stroke="#5a6174" stroke-linecap="round" stroke-linejoin="round" stroke-width=".919403"/><path d="m86.4141 54.2182 7.5634-11.2045" stroke="#6ec6d8" stroke-linecap="round" stroke-miterlimit="10" stroke-width="1.3791"/><path d="m83.6182 46.3732 6.7197-7.8371" stroke="#6ec6d8" stroke-linecap="round" stroke-miterlimit="10" stroke-width="1.3791"/><path d="m81.374 38.8093 5.0398-5.0398" stroke="#6ec6d8" stroke-linecap="round" stroke-miterlimit="10" stroke-width="1.3791"/><path d="m87.2913 197.634c-1.0793 3.068-1.6321 6.297-1.6351 9.549 0 5.4 5.3725 8.437 8.78 9.096 4.3895.674 8.8558.674 13.2458 0 4.012-.659 6.54-12.366 6.54-12.366z" fill="#5a6174"/><path d="m158.224 197.634c1.079 3.068 1.632 6.297 1.635 9.549 0 5.4-5.373 8.437-8.78 9.096-4.39.674-8.856.674-13.246 0-4.012-.659-6.54-12.366-6.54-12.366z" fill="#5a6174"/><path d="m166.696 28.4418c-2.75.2295-6.131-.9535-6.131-.9535s3.413-2.3249 3.015-2.552c-2.238.4118-4.533.3179-6.731-.2756-.241-.1468-.489-.288-.737-.4234.002-.0403.041-.0679.118-.0825.078-.0147 2.691-1.3973 2.087-1.845-3.06.4728-6.117-.7453-8.851-.3479-.876-.1413-1.759-.2273-2.645-.2576-9.713-.331-18.012 5.9944-19.983 14.5843-.912 2.7681-2.474 7.2339-3.884 9.6791 1.847-.7854 3.352-3.4294 3.352-3.4294-.393 2.5991-1.455 5.0377-3.07 7.0519.322.3688 2.207-.3922 2.852-.653l-.018.5361c-.35.9461-1.062 2.6879-1.732 3.3461-.942.926 1.616.0551 1.616.0551l-1.04 30.507c-.349 10.2497 8.22 18.8585 19.149 19.2305 10.928.373 20.074-7.6147 20.424-17.8644l1.493-43.8119c.12-3.7092-.911-7.3544-2.937-10.3848l.077.0026s3.656-1.5606 3.576-2.1117z" fill="#ee787a"/><path d="m112.44 71.5934c-2.619.3109-5.889-.7161-5.889-.7161s3.186-2.3481 2.798-2.5535c-2.125.4695-4.32.4544-6.439-.0444-.236-.1333-.477-.261-.718-.3831 0-.0388.037-.0666.11-.0833.073-.0166 2.525-1.4322 1.933-1.843-2.908.5552-5.8678-.5162-8.4666-.0444-.8415-.1071-1.6883-.1609-2.5359-.161-9.2895 0-17.0124 6.3562-18.6157 14.683-.7806 2.6924-2.1272 7.039-3.3951 9.4371 1.7395-.816 3.0912-3.4085 3.0912-3.4085-.2917 2.5129-1.2266 4.8933-2.7035 6.8836.3196.3441 2.0958-.4497 2.7035-.7217v.5163c-.3038.9215-.9273 2.6201-1.5456 3.2752-.8697.9215 1.5456 0 1.5456 0v29.3774c0 9.87 8.467 17.869 18.9196 17.869 10.4525 0 18.9305-7.983 18.9305-17.853v-42.189c-.007-3.5716-1.11-7.0439-3.144-9.8922h.073s3.443-1.621 3.348-2.1484z" fill="#ee787a"/><path d="m174.727 118.082c5.209 74.288-13.137 92.181-48.695 92.181-43.259 0-56.1687-21.517-51.6389-92.181-3.3974-67.9454 2.9443-95.8032 50.2799-98.5213 49.971-2.8694 54.357 28.5373 50.054 98.5213z" fill="#ee787a"/><path d="m97.4008 130.829-1.761-2.822c-.2872-.443-.4573-.95-.495-1.475-.0376-.524.0584-1.051.2793-1.531.221-.48.5599-.898.986-1.217.4262-.32.9261-.529 1.4545-.611l2.5534-.426c.521-.088 1.056-.048 1.557.116.5.164.952.448 1.314.825.362.378.624.838.762 1.339.138.502.148 1.03.029 1.537l-.789 3.276c-.14.616-.464 1.178-.929 1.614-.466.436-1.053.725-1.685.832-.633.106-1.2824.024-1.8661-.236-.5836-.259-1.0746-.685-1.4101-1.221z" fill="#fdd38b"/><path d="m147.883 128.684-.072-3.313c-.004-.516.116-1.027.348-1.488.233-.461.572-.858.987-1.157.414-.299.893-.489 1.393-.556.501-.066 1.008-.006 1.477.175l2.303.901c.472.181.891.48 1.22.87.33.389.559.858.668 1.363s.095 1.032-.043 1.534c-.137.501-.393.962-.744 1.34l-2.249 2.417c-.424.455-.969.773-1.565.913-.597.14-1.218.095-1.785-.129s-1.054-.616-1.399-1.127-.533-1.118-.539-1.743z" fill="#fdd38b"/><path d="m173.067 119.672s-16.962 5.767-48.866 5.657c-31.9047-.111-48.3451-5.994-48.3451-5.994" stroke="#b55a5b" stroke-linecap="round" stroke-linejoin="round" stroke-width="4.59702"/><path d="m124.9 118.763c20.889 0 37.824-16.935 37.824-37.8241 0-20.8894-16.935-37.8237-37.824-37.8237-20.89 0-37.8238 16.9343-37.8238 37.8237 0 20.8891 16.9338 37.8241 37.8238 37.8241z" fill="#eeeae5"/><path d="m124.899 101.534c11.375 0 20.596-9.2209 20.596-20.5956 0-11.3746-9.221-20.5956-20.596-20.5956-11.374 0-20.595 9.221-20.595 20.5956 0 11.3747 9.221 20.5956 20.595 20.5956z" fill="#5a6174"/><g fill="#798dac"><path d="m25.1929 83.0117-4.812.0332 1.0445 151.1351 4.8121-.034z"/><path d="m40.1626 82.9111-4.812.0332 1.0446 151.1347 4.812-.033z"/><path d="m55.1353 82.9872-4.8121.0333 1.0446 151.1345 4.8121-.033z"/><path d="m70.106 82.8886-4.8121.0333 1.0446 151.1351 4.8121-.034z"/><path d="m85.0777 82.4414-4.8121.0332 1.0446 151.1344 4.812-.033z"/><path d="m100.049 82.3408-4.8117.0332 1.0446 151.135 4.8121-.034z"/><path d="m115.021 82.4179-4.812.0333 1.045 151.1348 4.812-.033z"/><path d="m129.993 82.3183-4.812.0333 1.044 151.1344 4.812-.033z"/><path d="m143.895 82.3955-4.812.0332 1.045 151.1343 4.812-.033z"/><path d="m158.866 82.2949-4.812.0332 1.044 151.1349 4.812-.034z"/><path d="m173.838 82.371-4.812.0333 1.045 151.1347 4.812-.033z"/><path d="m188.81 82.2724-4.812.0333 1.045 151.1343 4.812-.033z"/><path d="m203.78 81.8251-4.812.0333 1.044 151.1346 4.812-.033z"/><path d="m218.751 81.7255-4.812.0333 1.045 151.1342 4.812-.033z"/><path d="m233.723 81.8017-4.812.0333 1.045 151.135 4.812-.034z"/></g><path d="m233.43 229.229h-211.0955c-3.1311 0-5.6695 2.539-5.6695 5.67v7.91c0 3.131 2.5384 5.67 5.6695 5.67h211.0955c3.131 0 5.669-2.539 5.669-5.67v-7.91c0-3.131-2.538-5.67-5.669-5.67z" fill="#5a6174"/><path d="m233.383 75.9238h-211.2064c-3.1006 0-5.6141 2.5135-5.6141 5.6141v.0006c0 3.1006 2.5135 5.6141 5.6141 5.6141h211.2064c3.1 0 5.614-2.5135 5.614-5.6141v-.0006c0-3.1006-2.514-5.6141-5.614-5.6141z" fill="#5a6174"/><path d="m55.1426 61.8828c2.3862 0 4.5592-1.2907 5.8124-3.4518.8218-1.4175 1.0101-3.1461.6028-4.9719-.6032-2.063-2.0583-3.316-3.1064-3.9642-.6678-.3868-1.415-.62-2.3511-.7334-.2663-.0323-.5313-.0482-.7937-.0482-2.3866 0-4.5595 1.2904-5.8127 3.452-.8218 1.4173-1.0101 3.1459-.5594 5.1375.3662 1.6198 1.4283 2.9746 3.065 3.7986.6667.3868 1.4131.6198 2.3489.7331.2663.0324.5315.0483.7942.0483zm-.0006 2.7582c-.3718-.0002-.7477-.0224-1.1252-.0682-1.1607-.1408-2.3012-.4474-3.4013-1.0855-2.2209-1.11-3.8239-3.1549-4.3714-5.5762-.5479-2.4217-.4123-4.9287.8638-7.1294 1.7242-2.9741 4.8147-4.8266 8.1987-4.8266.3721 0 .7477.0224 1.1255.0682 1.1607.1408 2.3012.4474 3.4018 1.0848 2.0346 1.2559 3.6574 3.1354 4.3713 5.5768.5474 2.4216.4119 4.9288-.8639 7.1295-1.7246 2.9739-4.8149 4.8266-8.1993 4.8266z" fill="#7accc7"/><path d="m72.4446 97.3258 2.1083.2554c.559.0678 1.1221-.0893 1.5653-.4368.4432-.3474.7302-.8566.7979-1.4157.0678-.559-.0893-1.1222-.4368-1.5654-.3474-.4432-.8567-.7302-1.4158-.7979l-2.1081-.2555c-.2792-.051-.5661-.0424-.8417.0256-.2755.068-.5335.1937-.7568.3688-.2234.1751-.407.3958-.5389.6471-.1318.2514-.2088.5277-.2259.811-.0666.5589.0909 1.1214.4382 1.5643.3472.443.8557.7303 1.4143.7991z" fill="#7accc7"/><path d="m57.5675 91.2459c-.559-.0678-1.1221.0892-1.5654.4366-.4432.3474-.7304.8566-.7982 1.4157s.0893 1.1222.4367 1.5654c.3474.4433.8566.7304 1.4157.7982l2.1082.2552c.559.0677 1.1222-.0894 1.5654-.4368s.7302-.8568.7979-1.4159c.0678-.5591-.0894-1.122-.4369-1.5652-.3474-.4432-.8566-.7302-1.4157-.798z" fill="#7accc7"/><path d="m65.3927 99.0386c-.2792-.051-.5661-.0424-.8416.0256-.2756.068-.5336.1937-.7569.3688-.2234.1751-.407.3958-.5389.647-.1318.251-.2089.528-.226.811l-.2551 2.108c-.0335.277-.0122.557.0627.826.075.268.2021.52.3741.739s.3855.403.6284.54.5104.224.7872.258.5575.012.826-.063c.2686-.075.5197-.202.7392-.374.2194-.172.4028-.385.5397-.628s.2246-.511.2581-.787l.2557-2.108c.0666-.559-.0911-1.122-.4383-1.5645-.3472-.4429-.8557-.7301-1.4143-.7989z" fill="#7accc7"/><path d="m69.109 86.0126c.0678-.5591-.0894-1.1222-.4368-1.5654s-.8567-.7303-1.4158-.798-1.1221.0894-1.5653.4368-.7302.8566-.798 1.4157l-.2556 2.1082c-.0677.559.0895 1.1222.4369 1.5654s.8566.7302 1.4157.7979c.5591.0678 1.1222-.0893 1.5654-.4368.4432-.3474.7302-.8566.798-1.4156z" fill="#7accc7"/><path d="m78.9706 46.9967 2.5283.3062c.5591.0678 1.1222-.0895 1.5654-.4368.4433-.3474.7304-.8567.7982-1.4157.0678-.5591-.0893-1.1222-.4367-1.5654-.3474-.4433-.8566-.7302-1.4157-.798l-2.5283-.3062c-.2792-.051-.5661-.0424-.8417.0256-.2755.068-.5335.1937-.7568.3688-.2234.1751-.407.3958-.5389.6471-.1318.2514-.2089.5277-.226.811-.029.5513.1427 1.0944.4832 1.5288.3405.4345.8268.731 1.369.8346z" fill="#7accc7"/><path d="m98.3626 49.3472 2.5284.3062c.277.0335.557.0123.826-.0627.269-.0749.52-.2021.739-.3741.22-.172.403-.3857.54-.6285.137-.2429.225-.5102.258-.787.034-.2768.012-.5575-.063-.826-.075-.2686-.202-.5198-.374-.7392s-.385-.4029-.628-.5398-.51-.2246-.787-.2582l-2.5286-.3066c-.2792-.051-.5661-.0422-.8416.0258-.2756.068-.5335.1937-.7569.3688s-.4071.3956-.539.6469c-.1318.2514-.2088.5277-.2259.811-.0665.5589.0912 1.1214.4384 1.5643s.8557.7302 1.4142.7991z" fill="#7accc7"/><path d="m90.9792 39.6825c.2792.0511.566.0424.8416-.0256s.5336-.1937.757-.3688.407-.3957.5389-.6471c.1318-.2514.2087-.5277.2258-.811l.3319-2.7405c.0678-.5591-.0894-1.122-.4369-1.5652-.3474-.4432-.8566-.7302-1.4157-.7979-.559-.0678-1.1222.0893-1.5654.4368-.4432.3474-.7302.8566-.7979 1.4157l-.3062 2.5283c-.0756.5804.0705 1.1679.4092 1.6453.3386.4774.8449.8095 1.4177.93z" fill="#7accc7"/><path d="m88.5785 59.4977c.2792.0511.5661.0424.8416-.0256.2756-.068.5336-.1937.757-.3688s.407-.3957.5389-.6471c.1318-.2514.2088-.5279.2258-.8112l.3061-2.5284c.0678-.559-.0894-1.122-.4368-1.5652-.3474-.4431-.8565-.73-1.4155-.7977-.5591-.0677-1.1221.0894-1.5652.4368-.4432.3474-.7302.8565-.7979 1.4155l-.3066 2.5283c-.0666.5589.0909 1.1214.4381 1.5643.3473.443.8559.7303 1.4145.7991z" fill="#7accc7"/><path d="m90.8459 81.5389c1.1835 0 2.2662-.6487 2.8964-1.7353.4011-.6916.486-1.567.2952-2.4359-.301-1.0298-1.0458-1.6666-1.5526-1.9806-.3154-.1828-.6668-.2898-1.5335-.3711-1.1837 0-2.2664.6487-2.8963 1.7351-.4015.6925-.4864 1.5675-.2526 2.6013.1711.7558.6666 1.3879 1.511 1.8159.314.1823.6652.2892 1.1387.3466.1322.0162.2637.024.3937.024zm0 2.7582c-.2398 0-.482-.0143-.7255-.044-.748-.0906-1.4826-.2877-2.1915-.6992-1.4311-.7153-2.4635-2.0322-2.8166-3.5929-.353-1.5603-.2656-3.1753.5567-4.5935 1.1109-1.916 3.102-3.1097 5.2824-3.1097.2398 0 .4821.0146.7255.044.7475.0905 1.4826.2882 2.1914.6992 1.311.809 2.3569 2.02 2.8166 3.593.3525 1.5602.2657 3.1757-.5567 4.5934-1.1112 1.9163-3.1021 3.1097-5.2823 3.1097z" fill="#7accc7"/></svg>