<svg width="240" height="294" viewBox="0 0 240 294" fill="none" xmlns="http://www.w3.org/2000/svg">
<g clip-path="url(#clip0_2842_9116)">
<path d="M231.965 91.8416C246.504 124.682 241.092 165.78 223.217 198.853C205.293 231.913 174.869 256.886 138.929 266.307C102.978 275.776 61.5111 269.694 36.1469 247C10.7452 224.244 1.48353 184.939 2.26185 146.121C3.04017 107.303 13.896 69.0338 39.9333 46.4011C65.9707 23.7685 107.239 16.784 145.112 25.6075C182.948 34.3697 217.426 59.0013 231.965 91.8416Z" fill="#7D8CA9"/>
<path d="M216.732 220.33C216.682 219.696 216.3 218.538 214.242 217.905L197.361 212.716C197.282 212.666 197.219 212.596 197.178 212.513L194.772 195.005C194.478 192.876 193.398 192.307 192.779 192.157C192.161 192.008 190.939 192.018 189.704 193.776L179.552 208.228C179.48 208.287 179.393 208.325 179.302 208.338L161.905 205.216C159.79 204.836 158.915 205.689 158.582 206.23C158.249 206.772 157.88 207.937 159.172 209.655L169.779 223.777C169.814 223.863 169.824 223.956 169.81 224.048L161.464 239.63C161.171 240.06 160.984 240.553 160.918 241.07C160.852 241.586 160.909 242.111 161.085 242.601C161.612 243.778 163.042 244.218 164.842 243.602L181.548 237.877C181.638 237.891 181.726 237.911 181.814 237.935V237.935L194.053 250.687C194.561 251.267 195.223 251.691 195.962 251.909C196.286 251.995 196.625 252.005 196.952 251.937C197.28 251.87 197.588 251.726 197.85 251.519C198.231 251.164 198.522 250.723 198.7 250.234C198.878 249.745 198.937 249.22 198.873 248.703L198.593 231.044C198.617 230.954 198.664 230.873 198.731 230.808L214.638 223.107C216.572 222.168 216.78 220.964 216.732 220.33Z" fill="#E9C17B"/>
<path d="M175.56 162.742C175.439 162.415 175.056 161.862 173.881 161.84L164.193 161.662C164.144 161.647 164.1 161.62 164.066 161.582L160.145 152.714C159.667 151.636 159.01 151.5 158.662 151.514C158.314 151.529 157.67 151.72 157.286 152.834L154.122 161.992C154.093 162.035 154.054 162.069 154.007 162.091L144.362 163.08C143.189 163.201 142.856 163.783 142.762 164.119C142.669 164.455 142.652 165.126 143.592 165.835L151.325 171.674C151.356 171.714 151.375 171.762 151.38 171.812L149.346 181.293C149.257 181.564 149.233 181.853 149.276 182.135C149.32 182.417 149.43 182.685 149.597 182.917C150.052 183.459 150.873 183.474 151.728 182.877L159.671 177.326C159.72 177.322 159.77 177.319 159.82 177.32L168.205 182.19C168.561 182.419 168.974 182.542 169.397 182.545C169.581 182.541 169.761 182.495 169.924 182.41C170.087 182.324 170.227 182.202 170.334 182.053C170.481 181.807 170.567 181.531 170.587 181.246C170.606 180.961 170.558 180.676 170.447 180.413L167.626 171.144C167.624 171.094 167.637 171.043 167.662 171L174.885 164.528C175.755 163.736 175.682 163.071 175.56 162.742Z" fill="#E9C17B"/>
<path d="M227.977 173.284C227.739 173.253 227.281 173.308 226.891 174.019L223.687 179.863C223.662 179.888 223.631 179.906 223.597 179.915L216.941 179.47C216.132 179.415 215.838 179.776 215.737 179.989C215.636 180.203 215.545 180.658 216.101 181.249L220.669 186.103C220.685 186.134 220.693 186.169 220.691 186.204L218.21 192.396C217.909 193.149 218.158 193.538 218.332 193.703C218.506 193.868 218.91 194.091 219.643 193.746L225.672 190.901C225.705 190.895 225.739 190.899 225.771 190.91L230.894 195.182C231.03 195.323 231.198 195.43 231.384 195.494C231.57 195.557 231.768 195.576 231.962 195.548C232.437 195.443 232.709 194.948 232.618 194.237L231.775 187.625C231.788 187.593 231.803 187.562 231.819 187.532V187.532L237.466 183.979C237.72 183.837 237.927 183.625 238.065 183.369C238.121 183.256 238.15 183.132 238.149 183.006C238.149 182.88 238.119 182.756 238.063 182.644C237.961 182.477 237.82 182.336 237.653 182.233C237.486 182.13 237.298 182.068 237.102 182.052L230.557 180.811C230.528 180.796 230.503 180.773 230.485 180.745L228.851 174.276C228.645 173.482 228.215 173.313 227.977 173.284Z" fill="#E9C17B"/>
<path d="M183.474 0.601219C182.633 0.436233 181.765 0.492719 180.953 0.765361C180.142 1.038 179.415 1.51733 178.845 2.15606C171.145 10.7844 158.231 22.3937 140.443 28.6991C130.004 32.3906 118.908 33.8616 107.867 33.0179C91.2461 31.8021 73.4634 34.5019 55.0134 41.0419C42.9685 45.3289 31.4249 50.911 20.585 57.6899C19.6442 58.2889 18.9342 59.1892 18.571 60.2437C18.2079 61.2982 18.2131 62.4446 18.5857 63.4958L48.3759 147.538C48.6208 148.228 49.0165 148.856 49.5343 149.374C50.0521 149.892 50.6788 150.289 51.369 150.535C52.0593 150.78 52.7956 150.869 53.5245 150.795C54.2534 150.72 54.9564 150.484 55.5825 150.103C65.9524 143.809 76.9317 138.578 88.353 134.49C106.723 127.978 124.485 125.327 141.147 126.607C151.967 127.45 162.843 125.998 173.064 122.346C195.675 114.331 210.432 97.9522 215.728 91.28C216.248 90.6256 216.593 89.8498 216.73 89.0256C216.868 88.2014 216.793 87.3558 216.514 86.5682L187.17 3.79107C186.884 2.9842 186.392 2.26571 185.744 1.70638C185.096 1.14704 184.314 0.766252 183.474 0.601219V0.601219ZM180.831 7.28728C180.496 7.64592 180.151 8.01066 179.795 8.3814C180.149 8.01117 180.495 7.64642 180.831 7.28728V7.28728ZM182.508 5.45467C182.109 5.9023 181.684 6.3676 181.246 6.84142C181.684 6.36779 182.109 5.90211 182.508 5.45467ZM179.331 8.86378C178.867 9.3396 178.391 9.82402 177.894 10.3168C178.391 9.82396 178.87 9.3397 179.331 8.86378V8.86378ZM177.759 10.4524C177.222 10.9838 176.66 11.5243 176.083 12.0727C176.66 11.5275 177.222 10.9837 177.76 10.4553L177.759 10.4524ZM175.564 12.5589C175.129 12.9654 174.684 13.3749 174.229 13.7875C174.684 13.3749 175.129 12.9654 175.564 12.5589V12.5589ZM173.638 14.32C173.08 14.8169 172.508 15.3168 171.921 15.8198C172.509 15.3177 173.081 14.8178 173.638 14.32V14.32ZM171.666 16.0414C170.996 16.6093 170.302 17.1802 169.594 17.7499C170.302 17.1802 170.993 16.6115 171.668 16.0405L171.666 16.0414ZM168.974 18.2444C168.44 18.6676 167.897 19.0906 167.343 19.5133C167.898 19.0913 168.441 18.6683 168.974 18.2444V18.2444ZM166.623 20.0584C165.979 20.5404 165.32 21.0207 164.648 21.4992C165.32 21.0208 165.977 20.5408 166.62 20.0592L166.623 20.0584ZM164.251 21.7854C163.451 22.3485 162.631 22.9062 161.79 23.4606C162.629 22.9069 163.451 22.3485 164.251 21.7854V21.7854ZM161.089 23.9141C160.452 24.327 159.805 24.7356 159.147 25.1399C159.806 24.7352 160.454 24.3266 161.089 23.9141V23.9141ZM158.302 25.6514C157.575 26.0882 156.834 26.52 156.079 26.9471C156.833 26.5226 157.574 26.0915 158.303 25.6537L158.302 25.6514ZM155.534 27.2563C154.605 27.7723 153.657 28.2769 152.688 28.7702C153.656 28.2785 154.604 27.7747 155.534 27.2588L155.534 27.2563ZM151.921 29.1506C151.179 29.5207 150.427 29.8828 149.665 30.2367C150.428 29.8861 151.18 29.5249 151.921 29.1532L151.921 29.1506ZM148.695 30.6803C147.885 31.0454 147.063 31.3996 146.228 31.7431C147.062 31.4008 147.884 31.0475 148.694 30.6832L148.695 30.6803ZM145.536 32.0341C144.479 32.4597 143.403 32.8681 142.308 33.2595C143.403 32.8702 144.479 32.4629 145.535 32.0375L145.536 32.0341ZM139.954 34.0628C139.792 34.1143 139.627 34.1665 139.463 34.2182C139.626 34.17 139.792 34.1207 139.954 34.0663L139.954 34.0628ZM137.313 34.8699C137.111 34.9282 136.909 34.988 136.705 35.0452C136.906 34.9941 137.108 34.9344 137.311 34.8762L137.313 34.8699ZM134.106 35.7326C133.95 35.7706 133.791 35.8063 133.635 35.8434C133.789 35.8124 133.947 35.7766 134.103 35.7385L134.106 35.7326ZM131.342 36.36C131.119 36.4068 130.897 36.4551 130.673 36.5003C130.895 36.461 131.117 36.4125 131.34 36.3658L131.342 36.36ZM127.932 37.01C127.793 37.033 127.651 37.053 127.512 37.077C127.649 37.0589 127.791 37.039 127.93 37.0141L127.932 37.01ZM125.05 37.4359C124.809 37.4681 124.568 37.5001 124.325 37.5295C124.566 37.506 124.808 37.475 125.048 37.4418L125.05 37.4359ZM121.441 37.8376C121.329 37.848 121.214 37.8541 121.102 37.864C121.212 37.86 121.326 37.8521 121.439 37.8435L121.441 37.8376ZM118.438 38.0423C118.18 38.0581 117.924 38.0693 117.665 38.0802C117.922 38.0734 118.179 38.0616 118.436 38.0481L118.438 38.0423ZM114.633 38.1624C114.564 38.1633 114.493 38.1613 114.424 38.1628C114.491 38.1672 114.562 38.1691 114.631 38.1682L114.633 38.1624ZM111.509 38.1236C111.239 38.1165 110.968 38.1079 110.696 38.0978C110.966 38.1138 111.236 38.1223 111.51 38.1267L111.509 38.1236ZM107.519 37.9291L107.511 37.9316C106.329 37.8447 105.149 37.779 103.972 37.7344C105.148 37.7792 106.328 37.845 107.511 37.9316L107.519 37.9291ZM136.674 121.434C135.805 121.406 134.935 121.375 134.07 121.367C134.933 121.381 135.803 121.412 136.672 121.44L136.674 121.434ZM132.734 121.374C131.951 121.375 131.168 121.372 130.391 121.391C131.166 121.378 131.949 121.381 132.731 121.38L132.734 121.374ZM128.972 121.441C128.228 121.466 127.482 121.487 126.744 121.525C127.48 121.493 128.226 121.472 128.969 121.447L128.972 121.441ZM125.312 121.62C124.586 121.667 123.858 121.71 123.137 121.769C123.856 121.716 124.584 121.675 125.31 121.626L125.312 121.62ZM121.699 121.907C120.989 121.975 120.277 122.037 119.573 122.115C120.275 122.041 120.985 121.979 121.696 121.912L121.699 121.907ZM118.147 122.29C117.45 122.375 116.745 122.459 116.051 122.555C116.743 122.463 117.444 122.38 118.144 122.295L118.147 122.29ZM114.641 122.767C113.954 122.87 113.264 122.969 112.582 123.082C113.261 122.974 113.951 122.874 114.639 122.771L114.641 122.767ZM111.165 123.333C110.497 123.45 109.828 123.565 109.166 123.692C109.825 123.569 110.494 123.455 111.162 123.337L111.165 123.333ZM107.755 123.977C107.103 124.109 106.45 124.238 105.804 124.379C106.447 124.242 107.1 124.112 107.752 123.982L107.755 123.977ZM104.404 124.696C103.769 124.84 103.132 124.982 102.502 125.134C103.13 124.986 103.767 124.844 104.402 124.702L104.404 124.696ZM101.108 125.484C100.492 125.638 99.8751 125.791 99.2664 125.952C99.8725 125.795 100.487 125.643 101.106 125.488L101.108 125.484ZM97.8767 126.333C97.2814 126.497 96.684 126.659 96.0964 126.83C96.6814 126.663 97.2785 126.501 97.875 126.336L97.8767 126.333ZM94.7115 127.238C94.1376 127.409 93.5613 127.579 92.9947 127.754C93.5587 127.583 94.1344 127.413 94.7087 127.241L94.7115 127.238ZM91.6154 128.193C91.0637 128.367 90.5109 128.542 89.9682 128.724C90.5094 128.548 91.0617 128.373 91.6129 128.197L91.6154 128.193ZM88.5882 129.193C88.063 129.372 87.5362 129.55 87.0191 129.732C87.5341 129.554 88.0604 129.376 88.5856 129.197L88.5882 129.193ZM58.4618 45.0653C58.9675 44.8928 59.4721 44.7213 59.9858 44.5515C59.4707 44.725 58.9649 44.897 58.4593 45.0694L58.4618 45.0653ZM61.3524 44.1101C61.8706 43.9461 62.3894 43.782 62.9119 43.6168C62.387 43.7819 61.8664 43.9478 61.3499 44.1142L61.3524 44.1101ZM64.314 43.1964C64.8429 43.039 65.373 42.8837 65.9079 42.7309C65.3716 42.8861 64.8395 43.0426 64.3114 43.2004L64.314 43.1964ZM67.3426 42.3298C67.8836 42.181 68.4271 42.0352 68.973 41.8923C68.4245 42.0382 67.8799 42.1854 67.3397 42.3339L67.3426 42.3298ZM70.4284 41.5182C70.9831 41.3796 71.5405 41.2437 72.1001 41.1106C71.5384 41.2466 70.9802 41.3838 70.4258 41.5223L70.4284 41.5182ZM73.5795 40.7656C74.1446 40.6375 74.713 40.5145 75.2833 40.3926C74.7103 40.5186 74.1417 40.6418 73.5766 40.7699L73.5795 40.7656ZM76.7857 40.0805C77.3623 39.964 77.9428 39.8548 78.5231 39.7456C77.939 39.8593 77.3585 39.9679 76.7792 40.0846L76.7857 40.0805ZM80.0438 39.4673C80.632 39.3642 81.2238 39.2685 81.816 39.1739C81.2196 39.2718 80.6273 39.3677 80.0397 39.4706L80.0438 39.4673ZM83.3484 38.9328C83.9503 38.8438 84.5561 38.7634 85.162 38.683C84.5519 38.7667 83.9461 38.8471 83.3443 38.9361L83.3484 38.9328ZM86.6957 38.4842C87.3121 38.4104 87.9326 38.347 88.5527 38.2825C87.9296 38.3499 87.3095 38.4131 86.6924 38.4872L86.6957 38.4842ZM90.0858 38.1267C90.7199 38.069 91.358 38.0237 91.9961 37.9766C91.355 38.0267 90.717 38.0718 90.0829 38.1296L90.0858 38.1267ZM93.5118 37.8671C94.1706 37.8272 94.8327 37.8015 95.4947 37.7737C94.8306 37.8074 94.1689 37.8299 93.5089 37.8701L93.5118 37.8671ZM96.9718 37.7113C97.6671 37.6889 98.3675 37.6872 99.0683 37.6801C98.3645 37.6901 97.6645 37.6936 96.9686 37.7143L96.9718 37.7113ZM100.461 37.6655C101.246 37.6687 102.036 37.6938 102.824 37.7119C102.032 37.6944 101.243 37.6717 100.458 37.6686L100.461 37.6655ZM57.1299 45.5248C56.6707 45.6859 56.2192 45.8497 55.7661 46.0135C56.0661 45.9048 56.3586 45.7932 56.6618 45.6861C56.8145 45.6339 56.974 45.5813 57.1287 45.5271L57.1299 45.5248ZM23.2295 61.844L23.4326 61.7138L23.2295 61.844ZM54.2052 46.5816C53.767 46.7446 53.3345 46.9097 52.9029 47.0746C53.3321 46.9145 53.7658 46.7489 54.2046 46.5857L54.2052 46.5816ZM51.3966 47.6629C50.9699 47.8308 50.5473 47.9974 50.1276 48.169C50.5503 47.9964 50.9715 47.8277 51.3966 47.6629ZM48.6805 48.7592C48.2686 48.929 47.8616 49.0992 47.4596 49.2698C47.8648 49.0962 48.2709 48.9255 48.6826 48.7558L48.6805 48.7592ZM46.0573 49.8686C45.6624 50.0396 45.2711 50.2106 44.8836 50.3815C45.274 50.2066 45.6646 50.0363 46.0594 49.8653L46.0573 49.8686ZM43.5375 50.9831C43.1585 51.1543 42.7828 51.3253 42.4103 51.4962C42.7837 51.3228 43.1604 51.1505 43.5399 50.9796L43.5375 50.9831ZM41.1247 52.0952C40.763 52.265 40.4029 52.4354 40.0482 52.6042C40.4032 52.432 40.763 52.2629 41.1251 52.0924L41.1247 52.0952ZM38.814 53.2019C38.4718 53.3688 38.1295 53.5357 37.7955 53.7012C38.1306 53.5327 38.4716 53.3663 38.8144 53.1992L38.814 53.2019ZM36.6225 54.2902C36.2982 54.4533 35.9734 54.6173 35.6581 54.7796C35.9745 54.6144 36.297 54.4518 36.6229 54.2875L36.6225 54.2902ZM34.5447 55.357C34.2402 55.5158 33.9328 55.6762 33.6368 55.833C33.9339 55.6732 34.2401 55.5138 34.5451 55.3541L34.5447 55.357ZM32.5954 56.391C32.3104 56.547 32.0207 56.699 31.7434 56.8506C32.0211 56.6963 32.31 56.5417 32.5958 56.3881L32.5954 56.391ZM30.7676 57.3891C30.5029 57.5387 30.2317 57.6856 29.9752 57.8299C30.2327 57.6826 30.5024 57.5341 30.7683 57.3862L30.7676 57.3891ZM29.0649 58.347C28.8246 58.4843 28.5771 58.6238 28.3455 58.7576C28.5781 58.6209 28.8244 58.4817 29.0662 58.3472L29.0649 58.347ZM27.4954 59.2536C27.2795 59.3805 27.0547 59.5108 26.8474 59.6336C27.0563 59.5096 27.2793 59.3779 27.4958 59.2508L27.4954 59.2536ZM26.0729 60.0985C25.8792 60.2144 25.6757 60.3354 25.4913 60.4477C25.6759 60.332 25.8788 60.2113 26.0731 60.0952L26.0729 60.0985ZM24.7406 60.9084C24.5909 61.0012 24.4289 61.0992 24.2858 61.1879C24.4291 61.0958 24.5911 60.9977 24.7408 60.9049L24.7406 60.9084ZM53.0192 145.893C53.1727 145.799 53.3432 145.697 53.5025 145.602C53.3432 145.697 53.1725 145.799 53.0192 145.893ZM85.5719 130.257C85.1106 130.424 84.6471 130.591 84.1923 130.759C84.6469 130.59 85.1103 130.424 85.5716 130.257L85.5719 130.257ZM82.7512 131.307C82.3132 131.474 81.87 131.642 81.4406 131.81C81.8722 131.641 82.313 131.474 82.7511 131.306L82.7512 131.307ZM80.0152 132.38C79.5992 132.546 79.1794 132.71 78.7706 132.881C79.1801 132.712 79.5996 132.547 80.015 132.379L80.0152 132.38ZM77.3576 133.472C76.967 133.636 76.5717 133.799 76.1875 133.964C76.5721 133.799 76.9668 133.635 77.3556 133.472L77.3576 133.472ZM74.7939 134.573C74.4258 134.734 74.0531 134.896 73.6909 135.058C74.0533 134.894 74.4256 134.734 74.7937 134.572L74.7939 134.573ZM72.3238 135.678C71.9786 135.836 71.6268 135.994 71.2883 136.151C71.6261 135.991 71.9808 135.834 72.326 135.677L72.3238 135.678ZM69.9397 136.787C69.6196 136.938 69.2941 137.09 68.9791 137.241C69.2939 137.09 69.6194 136.937 69.9401 136.788L69.9397 136.787ZM67.6613 137.885C67.3639 138.031 67.0601 138.177 66.7689 138.322C67.0605 138.177 67.3637 138.03 67.6611 137.884L67.6613 137.885ZM65.4937 138.965C65.2158 139.106 64.9303 139.249 64.6578 139.388C64.9299 139.248 65.2154 139.105 65.4933 138.964L65.4937 138.965ZM63.4349 140.024C63.1752 140.16 62.9074 140.298 62.653 140.432C62.907 140.296 63.1742 140.159 63.4316 140.024L63.4349 140.024ZM61.4859 141.056C61.2441 141.186 60.993 141.319 60.754 141.448C60.9926 141.318 61.243 141.185 61.4856 141.055L61.4859 141.056ZM59.6407 142.061C59.4162 142.184 59.1883 142.308 58.9717 142.428C59.1879 142.307 59.4182 142.182 59.6402 142.06L59.6407 142.061ZM57.9537 143.003C57.7364 143.125 57.5093 143.252 57.298 143.373C57.5089 143.251 57.7361 143.124 57.9533 143.001L57.9537 143.003ZM56.4006 143.889C56.1837 144.015 55.9552 144.145 55.7463 144.267C55.9564 144.145 56.1837 144.015 56.4006 143.889V143.889ZM54.8147 144.817C54.6522 144.913 54.4819 145.013 54.3223 145.107C54.4778 145.014 54.653 144.915 54.8147 144.817V144.817ZM137.78 121.469C139.022 121.522 140.269 121.596 141.521 121.692C142.626 121.778 143.718 121.831 144.802 121.867C143.718 121.831 142.626 121.778 141.521 121.692C140.27 121.596 139.023 121.522 137.78 121.469L137.78 121.469ZM145.284 121.884C146.314 121.909 147.334 121.913 148.344 121.896C147.333 121.914 146.312 121.91 145.282 121.885L145.284 121.884ZM148.905 121.885C149.915 121.86 150.916 121.818 151.906 121.752C150.913 121.82 149.913 121.862 148.901 121.887L148.905 121.885ZM152.318 121.721C153.337 121.648 154.348 121.558 155.344 121.444C154.344 121.56 153.334 121.65 152.315 121.724L152.318 121.721ZM155.408 121.437C156.413 121.32 157.404 121.178 158.387 121.021C157.399 121.181 156.409 121.322 155.404 121.438L155.408 121.437ZM158.827 120.953C159.766 120.798 160.693 120.626 161.61 120.435C160.691 120.625 159.762 120.798 158.824 120.954L158.827 120.953ZM162.102 120.331C163.021 120.135 163.93 119.925 164.827 119.698C163.929 119.927 163.02 120.138 162.099 120.333L162.102 120.331ZM165.174 119.607C166.071 119.375 166.957 119.128 167.833 118.867C166.956 119.13 166.069 119.377 165.171 119.609L165.174 119.607ZM167.992 118.821C168.879 118.554 169.751 118.265 170.619 117.972C169.749 118.269 168.878 118.555 167.988 118.823L167.992 118.821ZM171.055 117.823C171.917 117.523 172.766 117.21 173.605 116.884C172.884 117.165 172.156 117.438 171.418 117.7C171.294 117.743 171.172 117.783 171.051 117.825L171.055 117.823ZM211.306 88.912C211.506 88.6665 211.697 88.4294 211.868 88.2141C211.694 88.4312 211.502 88.6676 211.302 88.9114L211.306 88.912ZM174.073 116.696C174.758 116.423 175.435 116.144 176.104 115.856C175.433 116.145 174.755 116.425 174.069 116.697L174.073 116.696ZM176.795 115.558C177.514 115.241 178.226 114.918 178.927 114.585C178.223 114.919 177.508 115.244 176.792 115.561L176.795 115.558ZM179.176 114.469C179.949 114.099 180.707 113.717 181.456 113.329C180.703 113.719 179.946 114.102 179.172 114.471L179.176 114.469ZM182.086 112.998C182.665 112.692 183.237 112.381 183.802 112.066C183.235 112.382 182.662 112.694 182.083 112.999L182.086 112.998ZM184.362 111.755C185.068 111.353 185.765 110.945 186.452 110.531C185.765 110.946 185.068 111.355 184.358 111.757L184.362 111.755ZM186.906 110.25C187.458 109.913 188.001 109.572 188.535 109.229C187.998 109.574 187.454 109.915 186.903 110.252L186.906 110.25ZM189.139 108.839C189.725 108.455 190.302 108.069 190.869 107.68C190.301 108.07 189.723 108.457 189.135 108.84L189.139 108.839ZM191.094 107.528C191.721 107.095 192.333 106.658 192.936 106.221C192.331 106.66 191.717 107.097 191.092 107.53L191.094 107.528ZM193.489 105.813C193.944 105.479 194.391 105.143 194.83 104.806C194.389 105.144 193.94 105.48 193.484 105.816L193.489 105.813ZM195.311 104.439C195.872 104.005 196.421 103.57 196.958 103.135C196.42 103.571 195.871 104.006 195.309 104.44L195.311 104.439ZM197.371 102.797C197.787 102.457 198.196 102.117 198.597 101.778C198.194 102.117 197.785 102.458 197.369 102.798L197.371 102.797ZM199.099 101.352C199.551 100.964 199.995 100.578 200.427 100.195C199.991 100.58 199.549 100.966 199.096 101.353L199.099 101.352ZM200.607 100.038C201.086 99.6105 201.548 99.1884 202.001 98.7686C201.546 99.1897 201.084 99.6118 200.605 100.039L200.607 100.038ZM202.445 98.3565C202.784 98.04 203.114 97.7269 203.436 97.4171C203.11 97.7287 202.778 98.0425 202.44 98.3586L202.445 98.3565ZM203.794 97.0738C204.208 96.6717 204.61 96.2757 204.999 95.8859C204.607 96.276 204.204 96.6726 203.79 97.0754L203.794 97.0738ZM205.314 95.5654C205.61 95.2659 205.9 94.9696 206.18 94.679C205.896 94.9705 205.606 95.2665 205.31 95.5669L205.314 95.5654ZM206.533 94.311C206.863 93.9657 207.184 93.6253 207.49 93.2947C207.179 93.6268 206.858 93.9666 206.528 94.3124L206.533 94.311ZM207.589 93.1869C207.917 92.8324 208.225 92.4908 208.528 92.1554C208.222 92.493 207.913 92.8351 207.585 93.1895L207.589 93.1869ZM208.805 91.8445C209.035 91.5866 209.257 91.3353 209.469 91.0907C209.253 91.3367 209.031 91.5889 208.801 91.8473L208.805 91.8445ZM209.674 90.8561C209.94 90.5481 210.193 90.2523 210.432 89.9687C210.188 90.2545 209.935 90.5513 209.67 90.8588L209.674 90.8561ZM210.597 89.7743C210.783 89.5514 210.961 89.3364 211.129 89.132C210.958 89.3388 210.779 89.5528 210.594 89.7738L210.597 89.7743Z" fill="#50D2C2"/>
<path d="M95.6905 281.912C93.7188 282.611 91.5501 282.498 89.6617 281.598C87.7734 280.698 86.32 279.085 85.6211 277.113L9.53321 62.4521C9.18184 61.4746 9.02716 60.4373 9.07777 59.3997C9.12837 58.3622 9.38347 57.3449 9.8283 56.4062C10.2731 55.4676 10.8988 54.626 11.6697 53.9299C12.4407 53.2337 13.3418 52.6966 14.3208 52.3496C15.2999 52.0025 16.3378 51.8525 17.3751 51.9077C18.4124 51.9629 19.4285 52.2223 20.3652 52.6713C21.3019 53.1203 22.1405 53.75 22.8332 54.5241C23.5259 55.2981 24.059 56.2014 24.4017 57.182L100.491 271.842C100.837 272.819 100.988 273.854 100.934 274.888C100.88 275.923 100.622 276.937 100.177 277.872C99.7308 278.807 99.1053 279.645 98.3355 280.338C97.5658 281.031 96.667 281.566 95.6905 281.912V281.912Z" fill="#FCD28A"/>
<path d="M117.177 116.147C125.528 117.64 132.399 113.319 132.308 108.194C127.172 107.517 120.416 112.546 117.177 116.147Z" fill="#F3A474"/>
<path d="M105.514 111.557C111.08 114.415 119.416 113.601 121.025 108.289C116.501 106.313 109.61 108.89 105.514 111.557Z" fill="#F3A474"/>
<path d="M95.8092 104.088C100.474 108.284 107.622 109.04 110.332 104.971C106.767 102.082 100.291 102.604 95.8092 104.088Z" fill="#F3A474"/>
<path d="M88.7549 94.3672C91.7679 98.9582 97.6049 101.742 101.254 98.7282C99.1909 95.2271 92.7304 94.097 88.7549 94.3672Z" fill="#F3A474"/>
<path d="M94.6279 90.0919C94.2167 88.6123 93.2966 87.3252 92.0297 86.4571C91.8012 86.2799 91.5696 86.0932 91.3013 85.9174C89.3715 84.5961 87.191 83.6849 84.8948 83.2405C86.2558 87.8656 90.6076 91.7981 94.6279 90.0919Z" fill="#F3A474"/>
<path d="M91.05 79.8857C91.2522 76.55 87.4889 73.0856 84.3688 71.5941C84.4083 75.9915 87.1836 80.3695 91.05 79.8857Z" fill="#F3A474"/>
<path d="M90.8514 69.1326C91.946 66.2414 89.5352 62.3849 87.2035 60.4162C86.2055 64.1307 87.3995 68.542 90.8514 69.1326Z" fill="#F3A474"/>
<path d="M94.0221 58.6997C95.6694 56.4362 94.5886 52.6539 93.0091 50.4388C90.7986 54.4367 91.9432 57.7215 94.0221 58.6997Z" fill="#F3A474"/>
<path d="M130.465 105.6C131.588 101.432 128.089 96.9643 124.698 94.3077C123.41 102.672 127.095 105.778 130.465 105.6Z" fill="#F3A474"/>
<path d="M120.207 105.352C122.412 101.845 120.248 96.341 118.111 93.6993C117.558 94.8228 117.117 95.9985 116.797 97.2089C115.95 100.636 116.666 104.439 120.207 105.352Z" fill="#F3A474"/>
<path d="M111.775 91.133C106.899 96.6743 108.057 100.735 110.544 102.142C113.394 99.5973 113.062 94.5763 111.775 91.133Z" fill="#F3A474"/>
<path d="M106.345 86.7289C100.73 90.414 100.581 94.4551 102.338 96.2613C105.641 94.6423 106.66 89.6618 106.345 86.7289Z" fill="#F3A474"/>
<path d="M102.377 80.7489C98.6946 81.9025 94.9097 84.864 96.3573 88.2353C99.6015 87.6323 101.901 83.5996 102.377 80.7489Z" fill="#F3A474"/>
<path d="M93.1767 78.7822C96.0632 78.9882 99.0838 76.1572 100.334 73.6132C95.0577 73.8451 92.8964 76.6393 93.1767 78.7822Z" fill="#F3A474"/>
<path d="M93.0554 68.7841C95.4902 69.6741 98.8633 67.8685 100.534 65.9464C96.2498 65.0154 93.4841 66.6763 93.0554 68.7841Z" fill="#F3A474"/>
<path d="M103.143 58.3808C99.4442 56.5287 96.7024 57.7231 96.032 59.1372C97.9342 60.4538 101.086 59.6591 103.143 58.3808Z" fill="#F3A474"/>
<path d="M136.217 106.229C166.23 98.4305 172.967 57.7979 144.494 42.7029L144.33 42.9781C170.744 57.2794 165.803 93.5078 140.681 103.707C137.571 104.883 134.36 105.766 131.087 106.347C104.281 110.432 81.5024 81.8314 96.8824 56.0301L96.6004 55.8776C79.8616 83.416 106.428 114.845 136.217 106.229Z" fill="#F3A474"/>
<path d="M140.582 105.917C143.117 110.368 151.24 110.564 157.652 105.01C153.027 103.572 144.649 102.707 140.582 105.917Z" fill="#F3A474"/>
<path d="M150.312 100.179C154.424 103.968 162.003 100.403 165.311 95.0523C160.44 94.9028 153.201 96.2145 150.312 100.179Z" fill="#F3A474"/>
<path d="M157.815 91.9055C162.225 94.0119 167.981 89.7079 169.841 83.7163C165.233 84.7344 159.402 87.5993 157.815 91.9055Z" fill="#F3A474"/>
<path d="M162.423 81.8981C167.099 82.6112 170.693 77.2416 170.933 71.7566C167.378 73.5553 162.405 77.8332 162.423 81.8981Z" fill="#F3A474"/>
<path d="M164.419 65.7896C164.278 66.0784 164.175 66.3566 164.068 66.6247C163.422 68.0218 163.291 69.6023 163.696 71.087C168.027 70.5071 169.754 64.9004 168.557 60.2301C166.812 61.7812 165.404 63.6733 164.419 65.7896Z" fill="#F3A474"/>
<path d="M161.552 60.4886C165.122 58.9262 165.267 53.7464 163.051 49.9464C161.125 52.7958 159.672 57.726 161.552 60.4886Z" fill="#F3A474"/>
<path d="M154.883 41.7448C153.886 44.6276 153.787 49.1757 156.207 51.1001C158.884 48.8734 157.653 44.4719 154.883 41.7448Z" fill="#F3A474"/>
<path d="M144.804 36.1872C144.552 38.906 145.595 42.6988 148.159 43.8034C149.446 41.8995 148.751 38.491 144.804 36.1872Z" fill="#F3A474"/>
<path d="M140.018 90.0928C138.491 94.1028 137.737 99.7202 140.839 102.746C143.828 101.174 145.404 96.6209 140.018 90.0928Z" fill="#F3A474"/>
<path d="M148.291 88.5466C147.396 87.6704 146.416 86.8848 145.366 86.2016C144.901 89.5998 145.837 95.4003 149.527 97.287C152.101 94.6886 150.771 91.0543 148.291 88.5466Z" fill="#F3A474"/>
<path d="M149.497 80.7541C150.153 84.3733 152.446 88.8527 156.196 89.5807C157.604 87.1031 156.53 83.0593 149.497 80.7541Z" fill="#F3A474"/>
<path d="M160.23 80.3311C160.814 77.8709 158.611 74.4467 151.911 74.1904C153.139 76.873 156.563 80.6302 160.23 80.3311Z" fill="#F3A474"/>
<path d="M161.262 70.3779C160.782 66.7402 156.024 66.1293 152.26 67.0244C154.127 69.2315 158.167 71.5197 161.262 70.3779Z" fill="#F3A474"/>
<path d="M150.365 59.847C152.789 61.3901 156.792 62.3088 159.159 60.6273C158.304 58.6426 155.016 57.3449 150.365 59.847Z" fill="#F3A474"/>
<path d="M146.27 53.363C148.689 54.1573 152.511 53.9856 154.148 51.9755C152.7 50.3835 149.476 50.3711 146.27 53.363Z" fill="#F3A474"/>
<path d="M146.657 45.2073C145.357 44.335 142.391 44.7136 140.159 48.1951C142.58 48.2387 145.696 47.3117 146.657 45.2073Z" fill="#F3A474"/>
<mask id="mask0_2842_9116" style="mask-type:alpha" maskUnits="userSpaceOnUse" x="9" y="0" width="208" height="282">
<path d="M183.474 0.141259C182.633 -0.0237275 181.765 0.0327585 180.953 0.3054C180.142 0.578041 179.415 1.05737 178.845 1.69609C171.145 10.3245 158.231 21.9337 140.443 28.2391C130.004 31.9306 118.908 33.4016 107.867 32.558C91.2461 31.3422 73.4634 34.0419 55.0134 40.5819C42.9685 44.869 31.4249 50.451 20.585 57.23C19.6442 57.8289 18.9342 58.7292 18.571 59.7838C18.2079 60.8383 18.2131 61.9846 18.5857 63.0358L48.3759 147.078C48.6208 147.769 49.0165 148.396 49.5343 148.914C50.0521 149.433 50.6788 149.829 51.369 150.075C52.0593 150.32 52.7956 150.409 53.5245 150.335C54.2534 150.26 54.9564 150.024 55.5825 149.643C65.9524 143.349 76.9317 138.118 88.353 134.03C106.723 127.518 124.485 124.867 141.147 126.147C151.967 126.99 162.843 125.538 173.064 121.886C195.675 113.871 210.432 97.4923 215.728 90.82C216.248 90.1657 216.593 89.3899 216.73 88.5656C216.868 87.7414 216.793 86.8958 216.514 86.1082L187.17 3.33111C186.884 2.52424 186.392 1.80575 185.744 1.24642C185.096 0.68708 184.314 0.306291 183.474 0.141259V0.141259ZM180.831 6.82732C180.496 7.18596 180.151 7.5507 179.795 7.92144C180.149 7.5512 180.495 7.18646 180.831 6.82732V6.82732ZM182.508 4.99471C182.109 5.44234 181.684 5.90764 181.246 6.38146C181.684 5.90783 182.109 5.44215 182.508 4.99471ZM179.331 8.40382C178.867 8.87963 178.391 9.36406 177.894 9.85684C178.391 9.364 178.87 8.87974 179.331 8.40382V8.40382ZM177.759 9.9924C177.222 10.5238 176.66 11.0644 176.083 11.6127C176.66 11.0676 177.222 10.5238 177.76 9.99532L177.759 9.9924ZM175.564 12.099C175.129 12.5054 174.684 12.9149 174.229 13.3275C174.684 12.9149 175.129 12.5054 175.564 12.099V12.099ZM173.638 13.86C173.08 14.3569 172.508 14.8568 171.921 15.3598C172.509 14.8578 173.081 14.3579 173.638 13.86V13.86ZM171.666 15.5815C170.996 16.1494 170.302 16.7203 169.594 17.29C170.302 16.7203 170.993 16.1515 171.668 15.5805L171.666 15.5815ZM168.974 17.7844C168.44 18.2076 167.897 18.6306 167.343 19.0534C167.898 18.6313 168.441 18.2083 168.974 17.7844V17.7844ZM166.623 19.5985C165.979 20.0804 165.32 20.5607 164.648 21.0392C165.32 20.5609 165.977 20.0809 166.62 19.5993L166.623 19.5985ZM164.251 21.3254C163.451 21.8885 162.631 22.4462 161.79 23.0006C162.629 22.447 163.451 21.8885 164.251 21.3254V21.3254ZM161.089 23.4542C160.452 23.867 159.805 24.2756 159.147 24.68C159.806 24.2753 160.454 23.8667 161.089 23.4542V23.4542ZM158.302 25.1914C157.575 25.6282 156.834 26.0601 156.079 26.4871C156.833 26.0627 157.574 25.6316 158.303 25.1938L158.302 25.1914ZM155.534 26.7964C154.605 27.3123 153.657 27.817 152.688 28.3102C153.656 27.8186 154.604 27.3147 155.534 26.7989L155.534 26.7964ZM151.921 28.6907C151.179 29.0608 150.427 29.4228 149.665 29.7767C150.428 29.4261 151.18 29.0649 151.921 28.6932L151.921 28.6907ZM148.695 30.2203C147.885 30.5854 147.063 30.9397 146.228 31.2832C147.062 30.9408 147.884 30.5875 148.694 30.2232L148.695 30.2203ZM145.536 31.5741C144.479 31.9997 143.403 32.4081 142.308 32.7995C143.403 32.4102 144.479 32.0029 145.535 31.5776L145.536 31.5741ZM139.954 33.6028C139.792 33.6543 139.627 33.7065 139.463 33.7582C139.626 33.7101 139.792 33.6608 139.954 33.6063L139.954 33.6028ZM137.313 34.41C137.111 34.4682 136.909 34.528 136.705 34.5852C136.906 34.5341 137.108 34.4744 137.311 34.4162L137.313 34.41ZM134.106 35.2726C133.95 35.3107 133.791 35.3463 133.635 35.3834C133.789 35.3524 133.947 35.3167 134.103 35.2786L134.106 35.2726ZM131.342 35.9C131.119 35.9468 130.897 35.9951 130.673 36.0403C130.895 36.001 131.117 35.9526 131.34 35.9058L131.342 35.9ZM127.932 36.55C127.793 36.5731 127.651 36.593 127.512 36.6171C127.649 36.5989 127.791 36.579 127.93 36.5542L127.932 36.55ZM125.05 36.9759C124.809 37.0081 124.568 37.0401 124.325 37.0695C124.566 37.046 124.808 37.015 125.048 36.9818L125.05 36.9759ZM121.441 37.3777C121.329 37.388 121.214 37.3941 121.102 37.4041C121.212 37.4 121.326 37.3922 121.439 37.3836L121.441 37.3777ZM118.438 37.5823C118.18 37.5982 117.924 37.6093 117.665 37.6202C117.922 37.6135 118.179 37.6016 118.436 37.5881L118.438 37.5823ZM114.633 37.7024C114.564 37.7033 114.493 37.7013 114.424 37.7029C114.491 37.7073 114.562 37.7091 114.631 37.7082L114.633 37.7024ZM111.509 37.6637C111.239 37.6565 110.968 37.648 110.696 37.6378C110.966 37.6539 111.236 37.6624 111.51 37.6668L111.509 37.6637ZM107.519 37.4691L107.511 37.4716C106.329 37.3848 105.149 37.319 103.972 37.2744C105.148 37.3193 106.328 37.385 107.511 37.4716L107.519 37.4691ZM136.674 120.974C135.805 120.946 134.935 120.915 134.07 120.907C134.933 120.921 135.803 120.952 136.672 120.98L136.674 120.974ZM132.734 120.914C131.951 120.915 131.168 120.912 130.391 120.931C131.166 120.918 131.949 120.921 132.731 120.92L132.734 120.914ZM128.972 120.981C128.228 121.006 127.482 121.027 126.744 121.066C127.48 121.033 128.226 121.012 128.969 120.987L128.972 120.981ZM125.312 121.16C124.586 121.207 123.858 121.25 123.137 121.309C123.856 121.256 124.584 121.215 125.31 121.166L125.312 121.16ZM121.699 121.447C120.989 121.515 120.277 121.577 119.573 121.655C120.275 121.581 120.985 121.519 121.696 121.452L121.699 121.447ZM118.147 121.83C117.45 121.915 116.745 121.999 116.051 122.095C116.743 122.003 117.444 121.921 118.144 121.835L118.147 121.83ZM114.641 122.307C113.954 122.41 113.264 122.509 112.582 122.622C113.261 122.514 113.951 122.414 114.639 122.311L114.641 122.307ZM111.165 122.873C110.497 122.99 109.828 123.105 109.166 123.232C109.825 123.109 110.494 122.995 111.162 122.877L111.165 122.873ZM107.755 123.518C107.103 123.649 106.45 123.778 105.804 123.919C106.447 123.782 107.1 123.652 107.752 123.522L107.755 123.518ZM104.404 124.236C103.769 124.38 103.132 124.522 102.502 124.674C103.13 124.526 103.767 124.384 104.402 124.242L104.404 124.236ZM101.108 125.024C100.492 125.178 99.8751 125.331 99.2664 125.492C99.8725 125.335 100.487 125.183 101.106 125.028L101.108 125.024ZM97.8767 125.873C97.2814 126.037 96.684 126.199 96.0964 126.37C96.6814 126.203 97.2785 126.041 97.875 125.877L97.8767 125.873ZM94.7115 126.778C94.1376 126.949 93.5613 127.119 92.9947 127.294C93.5587 127.123 94.1344 126.953 94.7087 126.781L94.7115 126.778ZM91.6154 127.733C91.0637 127.907 90.5109 128.082 89.9682 128.265C90.5094 128.088 91.0617 127.913 91.6129 127.737L91.6154 127.733ZM88.5882 128.733C88.063 128.912 87.5362 129.09 87.0191 129.272C87.5341 129.094 88.0604 128.916 88.5856 128.737L88.5882 128.733ZM58.4618 44.6053C58.9675 44.4328 59.4721 44.2613 59.9858 44.0916C59.4707 44.2651 58.9649 44.437 58.4593 44.6095L58.4618 44.6053ZM61.3524 43.6501C61.8706 43.4862 62.3894 43.3221 62.9119 43.1568C62.387 43.322 61.8664 43.4878 61.3499 43.6543L61.3524 43.6501ZM64.314 42.7364C64.8429 42.579 65.373 42.4237 65.9079 42.2709C65.3716 42.4261 64.8395 42.5826 64.3114 42.7404L64.314 42.7364ZM67.3426 41.8698C67.8836 41.7211 68.4271 41.5752 68.973 41.4324C68.4245 41.5782 67.8799 41.7255 67.3397 41.874L67.3426 41.8698ZM70.4284 41.0583C70.9831 40.9197 71.5405 40.7838 72.1001 40.6507C71.5384 40.7867 70.9802 40.9238 70.4258 41.0623L70.4284 41.0583ZM73.5795 40.3056C74.1446 40.1776 74.713 40.0545 75.2833 39.9327C74.7103 40.0586 74.1417 40.1818 73.5766 40.3099L73.5795 40.3056ZM76.7857 39.6206C77.3623 39.504 77.9428 39.3949 78.5231 39.2857C77.939 39.3994 77.3585 39.5079 76.7792 39.6247L76.7857 39.6206ZM80.0438 39.0073C80.632 38.9042 81.2238 38.8085 81.816 38.714C81.2196 38.8118 80.6273 38.9078 80.0397 39.0107L80.0438 39.0073ZM83.3484 38.4729C83.9503 38.3839 84.5561 38.3034 85.162 38.223C84.5519 38.3067 83.9461 38.3871 83.3443 38.4761L83.3484 38.4729ZM86.6957 38.0243C87.3121 37.9504 87.9326 37.8871 88.5527 37.8226C87.9296 37.89 87.3095 37.9532 86.6924 38.0272L86.6957 38.0243ZM90.0858 37.6667C90.7199 37.609 91.358 37.5638 91.9961 37.5166C91.355 37.5667 90.717 37.6119 90.0829 37.6696L90.0858 37.6667ZM93.5118 37.4071C94.1706 37.3673 94.8327 37.3415 95.4947 37.3138C94.8306 37.3474 94.1689 37.3699 93.5089 37.4102L93.5118 37.4071ZM96.9718 37.2514C97.6671 37.2289 98.3675 37.2272 99.0683 37.2201C98.3645 37.2301 97.6645 37.2337 96.9686 37.2543L96.9718 37.2514ZM100.461 37.2056C101.246 37.2087 102.036 37.2339 102.824 37.2519C102.032 37.2344 101.243 37.2117 100.458 37.2086L100.461 37.2056ZM57.1299 45.0649C56.6707 45.2259 56.2192 45.3898 55.7661 45.5535C56.0661 45.4448 56.3586 45.3332 56.6618 45.2261C56.8145 45.1739 56.974 45.1214 57.1287 45.0672L57.1299 45.0649ZM23.2295 61.384L23.4326 61.2538L23.2295 61.384ZM54.2052 46.1217C53.767 46.2846 53.3345 46.4498 52.9029 46.6146C53.3321 46.4545 53.7658 46.2889 54.2046 46.1257L54.2052 46.1217ZM51.3966 47.203C50.9699 47.3709 50.5473 47.5374 50.1276 47.709C50.5503 47.5365 50.9715 47.3677 51.3966 47.203ZM48.6805 48.2992C48.2686 48.469 47.8616 48.6392 47.4596 48.8098C47.8648 48.6362 48.2709 48.4655 48.6826 48.2958L48.6805 48.2992ZM46.0573 49.4087C45.6624 49.5796 45.2711 49.7507 44.8836 49.9215C45.274 49.7467 45.6646 49.5764 46.0594 49.4054L46.0573 49.4087ZM43.5375 50.5231C43.1585 50.6944 42.7828 50.8653 42.4103 51.0363C42.7837 50.8628 43.1604 50.6906 43.5399 50.5196L43.5375 50.5231ZM41.1247 51.6353C40.763 51.805 40.4029 51.9754 40.0482 52.1442C40.4032 51.972 40.763 51.8029 41.1251 51.6324L41.1247 51.6353ZM38.814 52.742C38.4718 52.9088 38.1295 53.0757 37.7955 53.2413C38.1306 53.0727 38.4716 52.9063 38.8144 52.7393L38.814 52.742ZM36.6225 53.8302C36.2982 53.9934 35.9734 54.1574 35.6581 54.3197C35.9745 54.1544 36.297 53.9918 36.6229 53.8275L36.6225 53.8302ZM34.5447 54.897C34.2402 55.0559 33.9328 55.2162 33.6368 55.373C33.9339 55.2132 34.2401 55.0538 34.5451 54.8942L34.5447 54.897ZM32.5954 55.931C32.3104 56.087 32.0207 56.2391 31.7434 56.3906C32.0211 56.2363 32.31 56.0817 32.5958 55.9281L32.5954 55.931ZM30.7676 56.9291C30.5029 57.0787 30.2317 57.2256 29.9752 57.3699C30.2327 57.2226 30.5024 57.0742 30.7683 56.9262L30.7676 56.9291ZM29.0649 57.8871C28.8246 58.0243 28.5771 58.1639 28.3455 58.2977C28.5781 58.1609 28.8244 58.0217 29.0662 57.8873L29.0649 57.8871ZM27.4954 58.7937C27.2795 58.9206 27.0547 59.0508 26.8474 59.1737C27.0563 59.0497 27.2793 58.9179 27.4958 58.7908L27.4954 58.7937ZM26.0729 59.6385C25.8792 59.7544 25.6757 59.8754 25.4913 59.9877C25.6759 59.872 25.8788 59.7513 26.0731 59.6352L26.0729 59.6385ZM24.7406 60.4484C24.5909 60.5412 24.4289 60.6392 24.2858 60.7279C24.4291 60.6358 24.5911 60.5378 24.7408 60.445L24.7406 60.4484ZM53.0192 145.433C53.1727 145.339 53.3432 145.237 53.5025 145.142C53.3432 145.237 53.1725 145.339 53.0192 145.433ZM85.5719 129.797C85.1106 129.964 84.6471 130.131 84.1923 130.3C84.6469 130.13 85.1103 129.964 85.5716 129.797L85.5719 129.797ZM82.7512 130.847C82.3132 131.014 81.87 131.182 81.4406 131.35C81.8722 131.181 82.313 131.014 82.7511 130.846L82.7512 130.847ZM80.0152 131.92C79.5992 132.086 79.1794 132.25 78.7706 132.421C79.1801 132.252 79.5996 132.088 80.015 131.919L80.0152 131.92ZM77.3576 133.012C76.967 133.176 76.5717 133.339 76.1875 133.504C76.5721 133.339 76.9668 133.175 77.3556 133.012L77.3576 133.012ZM74.7939 134.113C74.4258 134.274 74.0531 134.436 73.6909 134.598C74.0533 134.434 74.4256 134.274 74.7937 134.112L74.7939 134.113ZM72.3238 135.218C71.9786 135.376 71.6268 135.534 71.2883 135.691C71.6261 135.531 71.9808 135.374 72.326 135.217L72.3238 135.218ZM69.9397 136.327C69.6196 136.478 69.2941 136.63 68.9791 136.781C69.2939 136.63 69.6194 136.477 69.9401 136.328L69.9397 136.327ZM67.6613 137.425C67.3639 137.571 67.0601 137.717 66.7689 137.862C67.0605 137.717 67.3637 137.57 67.6611 137.424L67.6613 137.425ZM65.4937 138.505C65.2158 138.647 64.9303 138.789 64.6578 138.928C64.9299 138.788 65.2154 138.645 65.4933 138.504L65.4937 138.505ZM63.4349 139.564C63.1752 139.7 62.9074 139.838 62.653 139.972C62.907 139.836 63.1742 139.699 63.4316 139.564L63.4349 139.564ZM61.4859 140.596C61.2441 140.726 60.993 140.859 60.754 140.988C60.9926 140.858 61.243 140.725 61.4856 140.595L61.4859 140.596ZM59.6407 141.601C59.4162 141.724 59.1883 141.848 58.9717 141.969C59.1879 141.847 59.4182 141.722 59.6402 141.6L59.6407 141.601ZM57.9537 142.543C57.7364 142.665 57.5093 142.792 57.298 142.913C57.5089 142.791 57.7361 142.664 57.9533 142.542L57.9537 142.543ZM56.4006 143.429C56.1837 143.555 55.9552 143.685 55.7463 143.807C55.9564 143.685 56.1837 143.555 56.4006 143.429V143.429ZM54.8147 144.357C54.6522 144.453 54.4819 144.553 54.3223 144.647C54.4778 144.554 54.653 144.455 54.8147 144.357V144.357ZM137.78 121.009C139.022 121.062 140.269 121.136 141.521 121.232C142.626 121.318 143.718 121.371 144.802 121.407C143.718 121.371 142.626 121.318 141.521 121.232C140.27 121.136 139.023 121.062 137.78 121.009L137.78 121.009ZM145.284 121.424C146.314 121.449 147.334 121.453 148.344 121.436C147.333 121.454 146.312 121.45 145.282 121.425L145.284 121.424ZM148.905 121.425C149.915 121.4 150.916 121.358 151.906 121.292C150.913 121.36 149.913 121.402 148.901 121.427L148.905 121.425ZM152.318 121.261C153.337 121.188 154.348 121.098 155.344 120.984C154.344 121.1 153.334 121.19 152.315 121.264L152.318 121.261ZM155.408 120.977C156.413 120.86 157.404 120.718 158.387 120.561C157.399 120.721 156.409 120.862 155.404 120.978L155.408 120.977ZM158.827 120.493C159.766 120.338 160.693 120.166 161.61 119.975C160.691 120.165 159.762 120.338 158.824 120.494L158.827 120.493ZM162.102 119.871C163.021 119.675 163.93 119.465 164.827 119.239C163.929 119.467 163.02 119.678 162.099 119.873L162.102 119.871ZM165.174 119.147C166.071 118.915 166.957 118.668 167.833 118.407C166.956 118.67 166.069 118.917 165.171 119.149L165.174 119.147ZM167.992 118.361C168.879 118.094 169.751 117.805 170.619 117.512C169.749 117.809 168.878 118.095 167.988 118.363L167.992 118.361ZM171.055 117.363C171.917 117.063 172.766 116.75 173.605 116.424C172.884 116.705 172.156 116.978 171.418 117.24C171.294 117.283 171.172 117.323 171.051 117.365L171.055 117.363ZM211.306 88.452C211.506 88.2065 211.697 87.9695 211.868 87.7542C211.694 87.9712 211.502 88.2076 211.302 88.4514L211.306 88.452ZM174.073 116.236C174.758 115.963 175.435 115.684 176.104 115.396C175.433 115.685 174.755 115.965 174.069 116.237L174.073 116.236ZM176.795 115.098C177.514 114.781 178.226 114.458 178.927 114.125C178.223 114.46 177.508 114.784 176.792 115.101L176.795 115.098ZM179.176 114.009C179.949 113.639 180.707 113.257 181.456 112.869C180.703 113.259 179.946 113.642 179.172 114.011L179.176 114.009ZM182.086 112.538C182.665 112.232 183.237 111.921 183.802 111.606C183.235 111.922 182.662 112.234 182.083 112.539L182.086 112.538ZM184.362 111.295C185.068 110.893 185.765 110.485 186.452 110.071C185.765 110.486 185.068 110.895 184.358 111.297L184.362 111.295ZM186.906 109.79C187.458 109.453 188.001 109.112 188.535 108.769C187.998 109.114 187.454 109.455 186.903 109.792L186.906 109.79ZM189.139 108.379C189.725 107.995 190.302 107.609 190.869 107.22C190.301 107.61 189.723 107.997 189.135 108.38L189.139 108.379ZM191.094 107.068C191.721 106.635 192.333 106.198 192.936 105.761C192.331 106.2 191.717 106.637 191.092 107.07L191.094 107.068ZM193.489 105.353C193.944 105.019 194.391 104.683 194.83 104.346C194.389 104.684 193.94 105.02 193.484 105.356L193.489 105.353ZM195.311 103.979C195.872 103.545 196.421 103.11 196.958 102.675C196.42 103.111 195.871 103.546 195.309 103.98L195.311 103.979ZM197.371 102.337C197.787 101.997 198.196 101.657 198.597 101.318C198.194 101.657 197.785 101.998 197.369 102.338L197.371 102.337ZM199.099 100.892C199.551 100.504 199.995 100.118 200.427 99.7355C199.991 100.12 199.549 100.506 199.096 100.893L199.099 100.892ZM200.607 99.5778C201.086 99.1505 201.548 98.7284 202.001 98.3086C201.546 98.7298 201.084 99.1518 200.605 99.5792L200.607 99.5778ZM202.445 97.8965C202.784 97.58 203.114 97.2669 203.436 96.9572C203.11 97.2687 202.778 97.5825 202.44 97.8986L202.445 97.8965ZM203.794 96.6139C204.208 96.2117 204.61 95.8157 204.999 95.4259C204.607 95.8161 204.204 96.2127 203.79 96.6154L203.794 96.6139ZM205.314 95.1055C205.61 94.8059 205.9 94.5097 206.18 94.219C205.896 94.5105 205.606 94.8065 205.31 95.107L205.314 95.1055ZM206.533 93.851C206.863 93.5057 207.184 93.1653 207.49 92.8347C207.179 93.1668 206.858 93.5066 206.528 93.8525L206.533 93.851ZM207.589 92.7269C207.917 92.3725 208.225 92.0309 208.528 91.6955C208.222 92.033 207.913 92.3751 207.585 92.7295L207.589 92.7269ZM208.805 91.3846C209.035 91.1266 209.257 90.8753 209.469 90.6307C209.253 90.8767 209.031 91.1289 208.801 91.3873L208.805 91.3846ZM209.674 90.3961C209.94 90.0882 210.193 89.7924 210.432 89.5088C210.188 89.7946 209.935 90.0913 209.67 90.3989L209.674 90.3961ZM210.597 89.3143C210.783 89.0915 210.961 88.8764 211.129 88.672C210.958 88.8788 210.779 89.0928 210.594 89.3139L210.597 89.3143Z" fill="#50D2C2"/>
<path d="M95.6905 281.451C93.7188 282.15 91.5501 282.037 89.6617 281.137C87.7734 280.237 86.32 278.624 85.6211 276.652L9.53321 61.9912C9.18184 61.0137 9.02716 59.9763 9.07777 58.9388C9.12837 57.9013 9.38347 56.884 9.8283 55.9453C10.2731 55.0066 10.8988 54.1651 11.6697 53.4689C12.4407 52.7728 13.3418 52.2357 14.3208 51.8886C15.2999 51.5416 16.3378 51.3915 17.3751 51.4467C18.4124 51.5019 19.4285 51.7614 20.3652 52.2104C21.3019 52.6594 22.1405 53.2891 22.8332 54.0632C23.5259 54.8372 24.059 55.7404 24.4017 56.721L100.491 271.381C100.837 272.358 100.988 273.393 100.934 274.427C100.88 275.462 100.622 276.476 100.177 277.411C99.7308 278.346 99.1053 279.184 98.3355 279.877C97.5658 280.57 96.667 281.105 95.6905 281.451V281.451Z" fill="#FCD28A"/>
<path d="M117.179 115.686C125.53 117.179 132.401 112.858 132.31 107.733C127.174 107.056 120.418 112.085 117.179 115.686Z" fill="#F3A474"/>
<path d="M105.516 111.097C111.082 113.955 119.418 113.141 121.027 107.829C116.503 105.854 109.612 108.43 105.516 111.097Z" fill="#F3A474"/>
<path d="M95.8111 103.628C100.476 107.824 107.624 108.58 110.334 104.511C106.769 101.622 100.293 102.144 95.8111 103.628Z" fill="#F3A474"/>
<path d="M88.7568 93.9072C91.7699 98.4982 97.6069 101.282 101.256 98.2682C99.1929 94.7671 92.7324 93.6371 88.7568 93.9072Z" fill="#F3A474"/>
<path d="M94.6298 89.6319C94.2186 88.1523 93.2985 86.8652 92.0317 85.9972C91.8032 85.82 91.5715 85.6333 91.3033 85.4575C89.3734 84.1361 87.193 83.225 84.8967 82.7805C86.2578 87.4057 90.6096 91.3381 94.6298 89.6319Z" fill="#F3A474"/>
<path d="M91.052 79.4257C91.2541 76.0901 87.4908 72.6256 84.3708 71.1342C84.4103 75.5315 87.1855 79.9095 91.052 79.4257Z" fill="#F3A474"/>
<path d="M90.8534 68.6726C91.9479 65.7815 89.5371 61.9249 87.2055 59.9563C86.2075 63.6707 87.4014 68.082 90.8534 68.6726Z" fill="#F3A474"/>
<path d="M94.0241 58.2397C95.6713 55.9762 94.5905 52.194 93.011 49.9789C90.8006 53.9768 91.9452 57.2615 94.0241 58.2397Z" fill="#F3A474"/>
<path d="M130.467 105.141C131.59 100.972 128.091 96.5044 124.7 93.8477C123.412 102.212 127.097 105.318 130.467 105.141Z" fill="#F3A474"/>
<path d="M120.209 104.891C122.414 101.384 120.25 95.8801 118.113 93.2383C117.56 94.3619 117.119 95.5375 116.799 96.748C115.952 100.175 116.668 103.978 120.209 104.891Z" fill="#F3A474"/>
<path d="M111.777 90.673C106.901 96.2143 108.059 100.275 110.546 101.682C113.396 99.1374 113.064 94.1163 111.777 90.673Z" fill="#F3A474"/>
<path d="M106.347 86.269C100.732 89.9541 100.583 93.9952 102.34 95.8013C105.643 94.1824 106.662 89.2019 106.347 86.269Z" fill="#F3A474"/>
<path d="M102.379 80.2889C98.6966 81.4425 94.9117 84.404 96.3593 87.7753C99.6035 87.1724 101.903 83.1396 102.379 80.2889Z" fill="#F3A474"/>
<path d="M93.1786 78.3223C96.0652 78.5282 99.0858 75.6972 100.336 73.1532C95.0597 73.3851 92.8983 76.1793 93.1786 78.3223Z" fill="#F3A474"/>
<path d="M93.0574 68.3242C95.4922 69.2142 98.8652 67.4086 100.536 65.4864C96.2518 64.5554 93.486 66.2164 93.0574 68.3242Z" fill="#F3A474"/>
<path d="M103.145 57.9209C99.4462 56.0687 96.7044 57.2632 96.0339 58.6773C97.9362 59.9938 101.087 59.1991 103.145 57.9209Z" fill="#F3A474"/>
<path d="M136.219 105.768C166.232 97.9695 172.969 57.3369 144.496 42.242L144.332 42.5172C170.746 56.8184 165.805 93.0469 140.683 103.247C137.573 104.422 134.361 105.305 131.089 105.886C104.283 109.972 81.5043 81.3704 96.8843 55.5692L96.6024 55.4166C79.8636 82.9551 106.43 114.384 136.219 105.768Z" fill="#F3A474"/>
<path d="M140.584 105.457C143.119 109.908 151.242 110.104 157.654 104.55C153.029 103.112 144.651 102.247 140.584 105.457Z" fill="#F3A474"/>
<path d="M150.314 99.7194C154.426 103.508 162.005 99.9426 165.313 94.5924C160.442 94.4428 153.203 95.7545 150.314 99.7194Z" fill="#F3A474"/>
<path d="M157.817 91.4455C162.227 93.552 167.983 89.248 169.843 83.2563C165.235 84.2744 159.404 87.1393 157.817 91.4455Z" fill="#F3A474"/>
<path d="M162.425 81.4381C167.101 82.1512 170.695 76.7816 170.935 71.2966C167.38 73.0953 162.407 77.3732 162.425 81.4381Z" fill="#F3A474"/>
<path d="M164.421 65.3296C164.28 65.6184 164.177 65.8966 164.07 66.1647C163.424 67.5619 163.293 69.1423 163.698 70.6271C168.029 70.0472 169.756 64.4404 168.559 59.7702C166.814 61.3212 165.406 63.2133 164.421 65.3296Z" fill="#F3A474"/>
<path d="M161.554 60.0287C165.124 58.4662 165.268 53.2864 163.053 49.4864C161.127 52.3358 159.674 57.266 161.554 60.0287Z" fill="#F3A474"/>
<path d="M154.885 41.2848C153.888 44.1676 153.789 48.7158 156.209 50.6401C158.886 48.4135 157.655 44.012 154.885 41.2848Z" fill="#F3A474"/>
<path d="M144.806 35.7273C144.554 38.446 145.597 42.2388 148.161 43.3434C149.448 41.4395 148.753 38.031 144.806 35.7273Z" fill="#F3A474"/>
<path d="M140.02 89.6329C138.493 93.6429 137.739 99.2603 140.841 102.286C143.83 100.714 145.406 96.161 140.02 89.6329Z" fill="#F3A474"/>
<path d="M148.293 88.0856C147.398 87.2094 146.418 86.4239 145.368 85.7406C144.903 89.1389 145.839 94.9394 149.528 96.8261C152.103 94.2277 150.773 90.5933 148.293 88.0856Z" fill="#F3A474"/>
<path d="M149.499 80.2942C150.155 83.9134 152.448 88.3927 156.198 89.1207C157.606 86.6431 156.532 82.5993 149.499 80.2942Z" fill="#F3A474"/>
<path d="M160.232 79.8711C160.816 77.411 158.613 73.9868 151.913 73.7305C153.141 76.413 156.565 80.1702 160.232 79.8711Z" fill="#F3A474"/>
<path d="M161.264 69.9179C160.783 66.2802 156.026 65.6694 152.262 66.5645C154.129 68.7715 158.169 71.0597 161.264 69.9179Z" fill="#F3A474"/>
<path d="M150.367 59.3861C152.791 60.9292 156.794 61.8479 159.161 60.1663C158.306 58.1817 155.018 56.8839 150.367 59.3861Z" fill="#F3A474"/>
<path d="M146.272 52.9031C148.691 53.6973 152.513 53.5256 154.15 51.5156C152.702 49.9236 149.478 49.9112 146.272 52.9031Z" fill="#F3A474"/>
<path d="M146.659 44.7474C145.359 43.875 142.393 44.2536 140.161 47.7351C142.582 47.7787 145.698 46.8518 146.659 44.7474Z" fill="#F3A474"/>
</mask>
<g mask="url(#mask0_2842_9116)">
<ellipse cx="-18.8552" cy="180.895" rx="76.3105" ry="260.285" transform="rotate(-20.3708 -18.8552 180.895)" fill="black" fill-opacity="0.15"/>
</g>
</g>
<defs>
<clipPath id="clip0_2842_9116">
<rect width="240" height="294" fill="white"/>
</clipPath>
</defs>
</svg>
