<svg fill="none" height="294" viewBox="0 0 281 294" width="281" xmlns="http://www.w3.org/2000/svg" xmlns:xlink="http://www.w3.org/1999/xlink"><clipPath id="a"><path d="m0 0h281v294h-281z"/></clipPath><mask id="b" height="104" maskUnits="userSpaceOnUse" width="90" x="95" y="95"><path d="m140.01 95.7306-12.516 3.9994c-.764 2.317-2.065 4.42-3.797 6.137-1.732 1.718-3.846 3.001-6.169 3.745s-4.789.927-7.197.535c-2.407-.392-4.688-1.348-6.655-2.791l-7.7842 2.484v50.062c-.0599 13.98 10.7482 23.59 21.9872 29.843 6.981 3.833 14.416 6.774 22.131 8.753 7.699-1.981 15.12-4.922 22.087-8.753 11.223-6.249 22.029-15.867 22.029-29.849v-50.056l-7.765-2.484c-2.577 1.812-5.62 2.843-8.767 2.973h-.008c-3.281-.053-6.47-1.092-9.152-2.983-2.682-1.89-4.733-4.544-5.887-7.616l-12.537-4.0181zm.006 31.9894 6.478 12.515 13.908 2.305-9.902 10.032 2.105 13.93-12.595-6.312-12.602 6.312 2.11-13.938-9.894-10.026 13.909-2.298 6.486-12.515z" fill="#fccf69"/></mask><g clip-path="url(#a)"><path d="m236.484 67.963c24.146 28.6399 33.066 71.062 23.685 108.258-9.382 37.145-37.015 69.063-70.44 82.794-33.426 13.731-72.644 9.274-105.0446-7.173-32.4003-16.446-58.0334-44.829-65.9284-77.773-7.895-32.892 1.8969-70.345 23.9926-98.5233 22.0445-28.1788 56.3928-47.0842 93.3044-49.0823 36.86-2.0494 76.284 12.8085 100.431 41.4996z" fill="#50d2c2"/><path d="m255.771 177.661v-41.105c-.019-.458.088-.913.308-1.315s.545-.737.941-.968c.331-.304.736-.517 1.174-.617s.895-.085 1.325.046l18.739 3.996c.751.118 1.424.528 1.873 1.141.212.337.348.715.402 1.109s.024.794-.089 1.176l-6.559 26.546 6.872 30.543c.123.447.129.917.02 1.366-.109.45-.331.864-.646 1.204-.725.534-1.597.833-2.498.856h-.312l-38.104-4.568c-.751-.136-1.435-.519-1.944-1.087-.509-.569-.814-1.291-.867-2.052.179-.765.621-1.443 1.251-1.913.629-.47 1.405-.703 2.189-.656" fill="#aead9e"/><path d="m240.468 197.07h-.938c-.498-.029-.983-.173-1.416-.421-.434-.248-.804-.592-1.083-1.006-.274-.362-.447-.791-.502-1.242-.054-.452.011-.909.191-1.327 2.577-5.583 4.567-11.418 5.938-17.412.187-.74.643-1.383 1.279-1.806.636-.422 1.406-.592 2.161-.477 8.121 1.141 13.118 1.998 13.43 1.998.881.187 1.661.696 2.186 1.427.277.727.384 1.508.313 2.283-.322.571-6.568 17.983-21.559 17.983z" fill="#867e62"/><path d="m2.79214 201.64c-.43838.007-.87313-.079-1.27566-.253s-.763307-.431-1.058732-.755-.5186052-.707-.654628-1.124c-.136024-.417-.181839-.858-.134382-1.294l6.558762-30.543-6.558762-26.547c-.10233-.382-.127577-.781-.073909-1.173s.185046-.77.3863457-1.111c.2098463-.316.4862433-.582.8101263-.779.323879-.197.687089-.321 1.064009-.362l18.73949-3.997c.4302-.13.8865-.145 1.3246-.045s.8429.312 1.1739.616c.7005.568 1.1494 1.388 1.2493 2.284v41.105c.9367 2.283 6.246 14.273 15.9227 13.701.7844-.046 1.5603.186 2.1899.656.6296.471 1.0723 1.148 1.2503 1.914.3125 1.427-.9366 2.85-2.8101 3.139l-37.79082 4.568z" fill="#aead9e"/><path d="m39.9579 197.072c-14.9912 0-21.2374-17.412-21.55-17.987-.0707-.775.036-1.556.3125-2.284.5474-.708 1.3177-1.21 2.1861-1.427 0 0 4.9981-.857 13.4304-1.998.7538-.113 1.5225.058 2.1573.48s1.0901 1.064 1.2776 1.803c1.3249 6.007 3.3153 11.847 5.9339 17.412.1795.418.2453.876.1905 1.327-.0547.451-.2278.88-.502 1.243-.2783.414-.6488.758-1.0822 1.006-.4335.248-.918.392-1.4163.421z" fill="#867e62"/><path d="m21.5307 181.086c-.6659-.011-1.315-.209-1.8741-.571-.7006-.567-1.1494-1.387-1.2493-2.283v-57.376c-.0053-.699.2463-1.375.707-1.901.4606-.525 1.0981-.863 1.7915-.949.6252 0 62.7769-10.562 119.3062-10.562 56.53 0 118.682 10.562 119.307 10.562.693.086 1.331.424 1.792.949.461.526.712 1.202.706 1.901v57.376c.019.458-.088.913-.308 1.315s-.545.737-.941.968c-.331.304-.735.517-1.173.617s-.895.084-1.325-.046c-.626 0-62.465-10.562-118.058-10.562-55.9052 0-117.4318 10.276-118.0569 10.562z" fill="#e0dec6"/><path d="m140.209 243.178c53.323 0 96.549-43.227 96.549-96.549 0-53.3232-43.226-96.5499-96.549-96.5499-53.3231 0-96.5498 43.2267-96.5498 96.5499 0 53.322 43.2267 96.549 96.5498 96.549z" fill="#67787f"/><path d="m140.209 247.669c-19.984 0-39.52-5.926-56.136-17.029-16.6163-11.103-29.5668-26.883-37.2144-45.346-7.6477-18.463-9.6489-38.78-5.7501-58.38 3.8987-19.6 13.5222-37.6043 27.6532-51.7353 14.1311-14.1311 32.1353-23.7544 51.7353-27.6532 19.6-3.8987 39.917-1.8977 58.38 5.7499 18.463 7.6477 34.243 20.5985 45.346 37.2149 11.103 16.6167 17.029 36.1517 17.029 56.1357-.04 26.786-10.698 52.464-29.639 71.404-18.94 18.941-44.618 29.599-71.404 29.639zm0-197.5902c-19.096 0-37.763 5.6626-53.6403 16.2718-15.8777 10.6091-28.253 25.6884-35.5606 43.3304-7.3077 17.643-9.2193 37.056-5.4938 55.785s12.9207 35.932 26.4236 49.435c13.503 13.503 30.7071 22.699 49.4361 26.424s38.142 1.813 55.784-5.495c17.643-7.308 32.722-19.683 43.331-35.561s16.271-34.545 16.271-53.641c-.037-25.595-10.221-50.1314-28.32-68.23s-42.635-28.2825-68.231-28.3192z" fill="#434257"/><path d="m140.21 234.197v-4.491c3.603 0 7.202-.225 10.777-.673l.673 4.491c-3.8.447-7.624.672-11.45.673zm-11.452-.673c-3.786-.511-7.536-1.261-11.227-2.246l1.122-4.266c3.473.89 6.998 1.565 10.554 2.021zm33.905-2.246-1.123-4.266c3.551-.86 7.01-2.063 10.329-3.592l1.796 4.041c-3.544 1.605-7.226 2.882-11.002 3.817zm-56.134-3.817c-3.591-1.404-7.0467-3.132-10.324-5.164l2.2461-3.818c3.1269 1.754 6.3499 3.329 9.6549 4.718zm77.464-4.94-2.245-3.816c3.129-1.813 6.13-3.838 8.982-6.063l2.694 3.593c-3.002 2.299-6.153 4.399-9.431 6.284zm-97.223-6.512c-3.0032-2.361-5.8528-4.911-8.5322-7.634l3.145-3.145c2.47 2.47 5.3894 4.94 8.0835 7.185zm115.186-7.409-3.145-3.145c2.47-2.47 4.94-5.389 7.185-8.083l3.593 2.694c-2.361 3.003-4.911 5.854-7.633 8.534zm-131.3525-8.756c-2.3022-3.004-4.4035-6.156-6.2905-9.436l3.8164-2.245c1.8125 3.129 3.8381 6.13 6.0626 8.981zm145.4975-9.206-3.816-2.246c1.796-3.105 3.372-6.331 4.718-9.655l4.042 1.572c-1.464 3.528-3.114 6.976-4.944 10.329zm-156.9516-10.554c-1.3991-3.522-2.5983-7.12-3.5923-10.777l4.2657-1.123c.8595 3.552 2.063 7.011 3.5927 10.329zm165.7056-10.553-4.266-1.123c.89-3.473 1.565-6.997 2.021-10.553l4.491.674c-.671 3.368-1.344 7.185-2.243 11.002zm-171.544-11.451c-.448-3.801-.6729-7.625-.6733-11.452h4.4912c.0005 3.603.2254 7.203.6734 10.778zm174.465-11.227h-4.491v-.225c0-3.603-.225-7.202-.673-10.777l4.491-.674c.454 3.876.679 7.775.673 11.676zm-169.9709-11.222-4.4912-.675c.5105-3.786 1.2608-7.535 2.2461-11.226l4.2656 1.123c-.8983 3.814-1.5716 7.407-2.0205 10.778zm162.7869-10.329c-.885-3.516-2.01-6.967-3.368-10.329l4.041-1.796c1.4 3.522 2.599 7.12 3.593 10.778zm-157.1736-10.553-4.042-1.573c1.4035-3.593 3.1324-7.05 5.1646-10.328l3.8174 2.245c-1.9551 3.05-3.6095 6.282-4.94 9.652zm148.8666-9.431c-1.813-3.129-3.838-6.1297-6.063-8.9809l3.593-2.6941c2.302 3.0014 4.403 6.1516 6.29 9.43zm-138.0892-9.206-3.5923-2.6941c2.3619-3.0027 4.9118-5.8526 7.6343-8.5326l3.145 3.1453c-2.5672 2.5348-4.9679 5.233-7.187 8.0775zm124.8412-8.0824c-2.47-2.47-5.389-4.94-8.083-7.186l2.694-3.5925c3.003 2.3618 5.853 4.9116 8.532 7.6342zm-109.3475-7.4101-2.6953-3.5925c3.0036-2.302 6.1558-4.4034 9.4359-6.2906l2.2452 3.8166c-3.1483 2.0209-6.0676 4.0418-8.9858 6.0626zm92.2825-5.8374c-3.145-1.7968-6.29-3.3684-9.655-4.9401l1.573-4.0417c3.551 1.4951 7.001 3.2201 10.328 5.1641zm-73.647-4.9401-1.572-4.0417c3.486-1.4985 7.093-2.7003 10.781-3.5925l1.122 4.2658c-3.507.9176-6.956 2.041-10.331 3.3644zm53.667-3.3684c-3.473-.8892-6.997-1.5641-10.553-2.0209l.673-4.4899c3.786.5097 7.535 1.2595 11.225 2.245zm-32.558-2.2449-.673-4.491c3.801-.448 7.624-.6728 11.451-.6732h.224v4.4908h-.224c-3.606-.0011-7.208.2225-10.785.6694z" fill="#fa8184"/><path d="m140.21 95.2521-12.516 3.9994c-.764 2.3165-2.065 4.4195-3.797 6.1375-1.732 1.717-3.846 3-6.169 3.744s-4.789.928-7.197.536c-2.407-.392-4.688-1.349-6.655-2.791l-7.784 2.484v50.062c-.0599 13.98 10.748 23.589 21.987 29.843 6.981 3.833 14.416 6.773 22.131 8.752 7.7-1.981 15.12-4.921 22.087-8.752 11.224-6.25 22.029-15.867 22.029-29.85v-50.055l-7.765-2.484c-2.577 1.811-5.62 2.843-8.767 2.972h-.008c-3.281-.053-6.47-1.092-9.152-2.982-2.682-1.891-4.733-4.544-5.886-7.6165l-12.538-4.0181zm.007 31.9899 6.477 12.515 13.908 2.305-9.902 10.031 2.105 13.93-12.595-6.311-12.602 6.311 2.111-13.938-9.895-10.025 13.909-2.298 6.486-12.515z" fill="#fccf69"/><g mask="url(#b)"><ellipse cx="121.615" cy="162.536" fill="#000" fill-opacity=".15" rx="26.3602" ry="74.2091" transform="matrix(.91986669 -.39223116 .39223116 .91986669 -54.00627 60.725741)"/></g></g></svg>