<svg fill="none" height="294" viewBox="0 0 240 294" width="240" xmlns="http://www.w3.org/2000/svg" xmlns:xlink="http://www.w3.org/1999/xlink"><clipPath id="a"><path d="m0 0h240v294h-240z"/></clipPath><mask id="b" height="282" maskUnits="userSpaceOnUse" width="208" x="9" y="0"><path d="m183.474.141259c-.841-.1649865-1.709-.1085005-2.521.164141-.811.272641-1.538.75197-2.108 1.39069-7.7 8.62841-20.614 20.23761-38.402 26.54301-10.439 3.6915-21.535 5.1625-32.576 4.3189-16.6209-1.2158-34.4036 1.4839-52.8536 8.0239-12.0449 4.2871-23.5885 9.8691-34.4284 16.6481-.9408.5989-1.6508 1.4992-2.014 2.5538-.3631 1.0545-.3579 2.2008.0147 3.252l29.7902 84.0422c.2449.691.6406 1.318 1.1584 1.836.5178.519 1.1445.915 1.8347 1.161.6903.245 1.4266.334 2.1555.26.7289-.075 1.4319-.311 2.058-.692 10.3699-6.294 21.3492-11.525 32.7705-15.613 18.37-6.512 36.132-9.163 52.794-7.883 10.82.843 21.696-.609 31.917-4.261 22.611-8.015 37.368-24.3937 42.664-31.066.52-.6543.865-1.4301 1.002-2.2544.138-.8242.063-1.6698-.216-2.4574l-29.344-82.77709c-.286-.80687-.778-1.52536-1.426-2.08469-.648-.55934-1.43-.940129-2.27-1.105161zm-2.643 6.686061c-.335.35864-.68.72338-1.036 1.09412.354-.37024.7-.73498 1.036-1.09412zm1.677-1.83261c-.399.44763-.824.91293-1.262 1.38675.438-.47363.863-.93931 1.262-1.38675zm-3.177 3.40911c-.464.47581-.94.96024-1.437 1.45302.497-.49284.976-.9771 1.437-1.45302zm-1.572 1.58858c-.537.5314-1.099 1.072-1.676 1.6203.577-.5451 1.139-1.0889 1.677-1.61738zm-2.195 2.1066c-.435.4064-.88.8159-1.335 1.2285.455-.4126.9-.8221 1.335-1.2285zm-1.926 1.761c-.558.4969-1.13.9968-1.717 1.4998.588-.502 1.16-1.0019 1.717-1.4998zm-1.972 1.7215c-.67.5679-1.364 1.1388-2.072 1.7085.708-.5697 1.399-1.1385 2.074-1.7095zm-2.692 2.2029c-.534.4232-1.077.8462-1.631 1.269.555-.4221 1.098-.8451 1.631-1.269zm-2.351 1.8141c-.644.4819-1.303.9622-1.975 1.4407.672-.4783 1.329-.9583 1.972-1.4399zm-2.372 1.7269c-.8.5631-1.62 1.1208-2.461 1.6752.839-.5536 1.661-1.1121 2.461-1.6752zm-3.162 2.1288c-.637.4128-1.284.8214-1.942 1.2258.659-.4047 1.307-.8133 1.942-1.2258zm-2.787 1.7372c-.727.4368-1.468.8687-2.223 1.2957.754-.4244 1.495-.8555 2.224-1.2933zm-2.768 1.605c-.929.5159-1.877 1.0206-2.846 1.5138.968-.4916 1.916-.9955 2.846-1.5113zm-3.613 1.8943c-.742.3701-1.494.7321-2.256 1.086.763-.3506 1.515-.7118 2.256-1.0835zm-3.226 1.5296c-.81.3651-1.632.7194-2.467 1.0629.834-.3424 1.656-.6957 2.466-1.06zm-3.159 1.3538c-1.057.4256-2.133.834-3.228 1.2254 1.095-.3893 2.171-.7966 3.227-1.2219zm-5.582 2.0287c-.162.0515-.327.1037-.491.1554.163-.0481.329-.0974.491-.1519zm-2.641.8072c-.202.0582-.404.118-.608.1752.201-.0511.403-.1108.606-.169zm-3.207.8626c-.156.0381-.315.0737-.471.1108.154-.031.312-.0667.468-.1048zm-2.764.6274c-.223.0468-.445.0951-.669.1403.222-.0393.444-.0877.667-.1345zm-3.41.65c-.139.0231-.281.043-.42.0671.137-.0182.279-.0381.418-.0629zm-2.882.4259c-.241.0322-.482.0642-.725.0936.241-.0235.483-.0545.723-.0877zm-3.609.4018c-.112.0103-.227.0164-.339.0264.11-.0041.224-.0119.337-.0205zm-3.003.2046c-.258.0159-.514.027-.773.0379.257-.0067.514-.0186.771-.0321zm-3.805.1201c-.069.0009-.14-.0011-.209.0005.067.0044.138.0062.207.0053zm-3.124-.0387c-.27-.0072-.541-.0157-.813-.0259.27.0161.54.0246.814.029zm-3.99-.1946-.008.0025c-1.182-.0868-2.362-.1526-3.539-.1972 1.176.0449 2.356.1106 3.539.1972zm29.155 83.5049c-.869-.028-1.739-.059-2.604-.067.863.014 1.733.045 2.602.073zm-3.94-.06c-.783.001-1.566-.002-2.343.017.775-.013 1.558-.01 2.34-.011zm-3.762.067c-.744.025-1.49.046-2.228.085.736-.033 1.482-.054 2.225-.079zm-3.66.179c-.726.047-1.454.09-2.175.149.719-.053 1.447-.094 2.173-.143zm-3.613.287c-.71.068-1.422.13-2.126.208.702-.074 1.412-.136 2.123-.203zm-3.552.383c-.697.085-1.402.169-2.096.265.692-.092 1.393-.174 2.093-.26zm-3.506.477c-.687.103-1.377.202-2.059.315.679-.108 1.369-.208 2.057-.311zm-3.476.566c-.668.117-1.337.232-1.999.359.659-.123 1.328-.237 1.996-.355zm-3.41.645c-.652.131-1.305.26-1.951.401.643-.137 1.296-.267 1.948-.397zm-3.351.718c-.635.144-1.272.286-1.902.438.628-.148 1.265-.29 1.9-.432zm-3.296.788c-.616.154-1.2329.307-1.8416.468.6061-.157 1.2206-.309 1.8396-.464zm-3.2313.849c-.5953.164-1.1927.326-1.7803.497.585-.167 1.1821-.329 1.7786-.493zm-3.1652.905c-.5739.171-1.1502.341-1.7168.516.564-.171 1.1397-.341 1.714-.513zm-3.0961.955c-.5517.174-1.1045.349-1.6472.532.5412-.177 1.0935-.352 1.6447-.528zm-3.0272 1c-.5252.179-1.052.357-1.5691.539.515-.178 1.0413-.356 1.5665-.535zm-30.1264-84.1277c.5057-.1725 1.0103-.344 1.524-.5137-.5151.1735-1.0209.3454-1.5265.5179zm2.8906-.9552c.5182-.1639 1.037-.328 1.5595-.4933-.5249.1652-1.0455.331-1.562.4975zm2.9616-.9137c.5289-.1574 1.059-.3127 1.5939-.4655-.5363.1552-1.0684.3117-1.5965.4695zm3.0286-.8666c.541-.1487 1.0845-.2946 1.6304-.4374-.5485.1458-1.0931.2931-1.6333.4416zm3.0858-.8115c.5547-.1386 1.1121-.2745 1.6717-.4076-.5617.136-1.1199.2731-1.6743.4116zm3.1511-.7527c.5651-.128 1.1335-.2511 1.7038-.3729-.573.1259-1.1416.2491-1.7067.3772zm3.2062-.685c.5766-.1166 1.1571-.2257 1.7374-.3349-.5841.1137-1.1646.2222-1.7439.339zm3.2581-.6133c.5882-.1031 1.18-.1988 1.7722-.2933-.5964.0978-1.1887.1938-1.7763.2967zm3.3046-.5344c.6019-.089 1.2077-.1695 1.8136-.2499-.6101.0837-1.2159.1641-1.8177.2531zm3.3473-.4486c.6164-.0739 1.2369-.1372 1.857-.2017-.6231.0674-1.2432.1306-1.8603.2046zm3.3901-.3576c.6341-.0577 1.2722-.1029 1.9103-.1501-.6411.0501-1.2791.0953-1.9132.153zm3.426-.2596c.6588-.0398 1.3209-.0656 1.9829-.0933-.6641.0336-1.3258.0561-1.9858.0964zm3.46-.1557c.6953-.0225 1.3957-.0242 2.0965-.0313-.7038.01-1.4038.0136-2.0997.0342zm3.4892-.0458c.785.0031 1.575.0283 2.363.0463-.792-.0175-1.581-.0402-2.366-.0433zm-43.3311 7.8593c-.4592.161-.9107.3249-1.3638.4886.3-.1087.5925-.2203.8957-.3274.1527-.0522.3122-.1047.4669-.1589zm-33.9004 16.3191.2031-.1302zm30.9757-15.2623c-.4382.1629-.8707.3281-1.3023.4929.4292-.1601.8629-.3257 1.3017-.4889zm-2.8086 1.0813c-.4267.1679-.8493.3344-1.269.506.4227-.1725.8439-.3413 1.269-.506zm-2.7161 1.0962c-.4119.1698-.8189.34-1.2209.5106.4052-.1736.8113-.3443 1.223-.514zm-2.6232 1.1095c-.3949.1709-.7862.342-1.1737.5128.3904-.1748.781-.3451 1.1758-.5161zm-2.5198 1.1144c-.379.1713-.7547.3422-1.1272.5132.3734-.1735.7501-.3457 1.1296-.5167zm-2.4128 1.1122c-.3617.1697-.7218.3401-1.0765.5089.355-.1722.7148-.3413 1.0769-.5118zm-2.3107 1.1067c-.3422.1668-.6845.3337-1.0185.4993.3351-.1686.6761-.335 1.0189-.502zm-2.1915 1.0882c-.3243.1632-.6491.3272-.9644.4895.3164-.1653.6389-.3279.9648-.4922zm-2.0778 1.0668c-.3045.1589-.6119.3192-.9079.476.2971-.1598.6033-.3192.9083-.4788zm-1.9493 1.034c-.285.156-.5747.3081-.852.4596.2777-.1543.5666-.3089.8524-.4625zm-1.8278.9981c-.2647.1496-.5359.2965-.7924.4408.2575-.1473.5272-.2957.7931-.4437zm-1.7027.958c-.2403.1372-.4878.2768-.7194.4106.2326-.1368.4789-.276.7207-.4104zm-1.5695.9066c-.2159.1269-.4407.2571-.648.38.2089-.124.4319-.2558.6484-.3829zm-1.4225.8448c-.1937.1159-.3972.2369-.5816.3492.1846-.1157.3875-.2364.5818-.3525zm-1.3323.8099c-.1497.0928-.3117.1908-.4548.2795.1433-.0921.3053-.1901.455-.2829zm28.2786 84.9846c.1535-.094.324-.196.4833-.291-.1593.095-.33.197-.4833.291zm32.5527-15.636c-.4613.167-.9248.334-1.3796.503.4546-.17.918-.336 1.3793-.503zm-2.8207 1.05c-.438.167-.8812.335-1.3106.503.4316-.169.8724-.336 1.3105-.504zm-2.736 1.073c-.416.166-.8358.33-1.2446.501.4095-.169.829-.333 1.2444-.502zm-2.6576 1.092c-.3906.164-.7859.327-1.1701.492.3846-.165.7793-.329 1.1681-.492zm-2.5637 1.101c-.3681.161-.7408.323-1.103.485.3624-.164.7347-.324 1.1028-.486zm-2.4701 1.105c-.3452.158-.697.316-1.0355.473.3378-.16.6925-.317 1.0377-.474zm-2.3841 1.109c-.3201.151-.6456.303-.9606.454.3148-.151.6403-.304.961-.453zm-2.2784 1.098c-.2974.146-.6012.292-.8924.437.2916-.145.5948-.292.8922-.438zm-2.1676 1.08c-.2779.142-.5634.284-.8359.423.2721-.14.5576-.283.8355-.424zm-2.0588 1.059c-.2597.136-.5275.274-.7819.408.254-.136.5212-.273.7786-.408zm-1.949 1.032c-.2418.13-.4929.263-.7319.392.2386-.13.489-.263.7316-.393zm-1.8452 1.005c-.2245.123-.4524.247-.669.368.2162-.122.4465-.247.6685-.369zm-1.687.942c-.2173.122-.4444.249-.6557.37.2109-.122.4381-.249.6553-.371zm-1.5531.886c-.2169.126-.4454.256-.6543.378.2101-.122.4374-.252.6543-.378zm-1.5859.928c-.1625.096-.3328.196-.4924.29.1555-.093.3307-.192.4924-.29zm82.9653-23.348c1.242.053 2.489.127 3.741.223 1.105.086 2.197.139 3.281.175-1.084-.036-2.176-.089-3.281-.175-1.251-.096-2.498-.17-3.741-.223zm7.504.415c1.03.025 2.05.029 3.06.012-1.011.018-2.032.014-3.062-.011zm3.621.001c1.01-.025 2.011-.067 3.001-.133-.993.068-1.993.11-3.005.135zm3.413-.164c1.019-.073 2.03-.163 3.026-.277-1 .116-2.01.206-3.029.28zm3.09-.284c1.005-.117 1.996-.259 2.979-.416-.988.16-1.978.301-2.983.417zm3.419-.484c.939-.155 1.866-.327 2.783-.518-.919.19-1.848.363-2.786.519zm3.275-.622c.919-.196 1.828-.406 2.725-.632-.898.228-1.807.439-2.728.634zm3.072-.724c.897-.232 1.783-.479 2.659-.74-.877.263-1.764.51-2.662.742zm2.818-.786c.887-.267 1.759-.556 2.627-.849-.87.297-1.741.583-2.631.851zm3.063-.998c.862-.3 1.711-.613 2.55-.939-.721.281-1.449.554-2.187.816-.124.043-.246.083-.367.125zm40.251-28.911c.2-.2455.391-.4825.562-.6978-.174.217-.366.4534-.566.6972zm-37.233 27.784c.685-.273 1.362-.552 2.031-.84-.671.289-1.349.569-2.035.841zm2.722-1.138c.719-.317 1.431-.64 2.132-.973-.704.335-1.419.659-2.135.976zm2.381-1.089c.773-.37 1.531-.752 2.28-1.14-.753.39-1.51.773-2.284 1.142zm2.91-1.471c.579-.306 1.151-.617 1.716-.932-.567.316-1.14.628-1.719.933zm2.276-1.243c.706-.402 1.403-.81 2.09-1.224-.687.415-1.384.824-2.094 1.226zm2.544-1.505c.552-.337 1.095-.678 1.629-1.021-.537.345-1.081.686-1.632 1.023zm2.233-1.411c.586-.384 1.163-.77 1.73-1.159-.568.39-1.146.777-1.734 1.16zm1.955-1.311c.627-.433 1.239-.87 1.842-1.307-.605.439-1.219.876-1.844 1.309zm2.395-1.715c.455-.334.902-.67 1.341-1.007-.441.338-.89.674-1.346 1.01zm1.822-1.374c.561-.434 1.11-.869 1.647-1.304-.538.436-1.087.871-1.649 1.305zm2.06-1.642c.416-.34.825-.68 1.226-1.019-.403.339-.812.68-1.228 1.02zm1.728-1.445c.452-.388.896-.774 1.328-1.1565-.436.3845-.878.7705-1.331 1.1575zm1.508-1.3142c.479-.4273.941-.8494 1.394-1.2692-.455.4212-.917.8432-1.396 1.2706zm1.838-1.6813c.339-.3165.669-.6296.991-.9393-.326.3115-.658.6253-.996.9414zm1.349-1.2826c.414-.4022.816-.7982 1.205-1.188-.392.3902-.795.7868-1.209 1.1895zm1.52-1.5084c.296-.2996.586-.5958.866-.8865-.284.2915-.574.5875-.87.888zm1.219-1.2545c.33-.3453.651-.6857.957-1.0163-.311.3321-.632.6719-.962 1.0178zm1.056-1.1241c.328-.3544.636-.696.939-1.0314-.306.3375-.615.6796-.943 1.034zm1.216-1.3423c.23-.258.452-.5093.664-.7539-.216.246-.438.4982-.668.7566zm.869-.9885c.266-.3079.519-.6037.758-.8873-.244.2858-.497.5825-.762.8901zm.923-1.0818c.186-.2228.364-.4379.532-.6423-.171.2068-.35.4208-.535.6419z" fill="#50d2c2"/><path d="m95.6905 281.451c-1.9717.699-4.1404.586-6.0288-.314-1.8883-.9-3.3417-2.513-4.0406-4.485l-76.08789-214.6608c-.35137-.9775-.50605-2.0149-.45544-3.0524.0506-1.0375.3057-2.0548.75053-2.9935.4448-.9387 1.0705-1.7802 1.8414-2.4764.771-.6961 1.6721-1.2332 2.6511-1.5803.9791-.347 2.017-.4971 3.0543-.4419s2.0534.3147 2.9901.7637 1.7753 1.0787 2.468 1.8528c.6927.774 1.2258 1.6772 1.5685 2.6578l76.0893 214.66c.346.977.497 2.012.443 3.046-.054 1.035-.312 2.049-.757 2.984-.4462.935-1.0717 1.773-1.8415 2.466-.7697.693-1.6685 1.228-2.645 1.574z" fill="#fcd28a"/><path d="m117.179 115.686c8.351 1.493 15.222-2.828 15.131-7.953-5.136-.677-11.892 4.352-15.131 7.953z" fill="#f3a474"/><path d="m105.516 111.097c5.566 2.858 13.902 2.044 15.511-3.268-4.524-1.975-11.415.601-15.511 3.268z" fill="#f3a474"/><path d="m95.8111 103.628c4.6649 4.196 11.8129 4.952 14.5229.883-3.565-2.889-10.041-2.367-14.5229-.883z" fill="#f3a474"/><path d="m88.7568 93.9072c3.0131 4.591 8.8501 7.3748 12.4992 4.361-2.0631-3.5011-8.5236-4.6311-12.4992-4.361z" fill="#f3a474"/><path d="m94.6298 89.6319c-.4112-1.4796-1.3313-2.7667-2.5981-3.6347-.2285-.1772-.4602-.3639-.7284-.5397-1.9299-1.3214-4.1103-2.2325-6.4066-2.677 1.3611 4.6252 5.7129 8.5576 9.7331 6.8514z" fill="#f3a474"/><path d="m91.052 79.4257c.2021-3.3356-3.5612-6.8001-6.6812-8.2915.0395 4.3973 2.8147 8.7753 6.6812 8.2915z" fill="#f3a474"/><path d="m90.8534 68.6726c1.0945-2.8911-1.3163-6.7477-3.6479-8.7163-.998 3.7144.1959 8.1257 3.6479 8.7163z" fill="#f3a474"/><path d="m94.0241 58.2397c1.6472-2.2635.5664-6.0457-1.0131-8.2608-2.2104 3.9979-1.0658 7.2826 1.0131 8.2608z" fill="#f3a474"/><path d="m130.467 105.141c1.123-4.169-2.376-8.6366-5.767-11.2933-1.288 8.3643 2.397 11.4703 5.767 11.2933z" fill="#f3a474"/><path d="m120.209 104.891c2.205-3.507.041-9.0109-2.096-11.6527-.553 1.1236-.994 2.2992-1.314 3.5097-.847 3.427-.131 7.23 3.41 8.143z" fill="#f3a474"/><path d="m111.777 90.673c-4.876 5.5413-3.718 9.602-1.231 11.009 2.85-2.5446 2.518-7.5657 1.231-11.009z" fill="#f3a474"/><path d="m106.347 86.269c-5.615 3.6851-5.764 7.7262-4.007 9.5323 3.303-1.6189 4.322-6.5994 4.007-9.5323z" fill="#f3a474"/><path d="m102.379 80.2889c-3.6824 1.1536-7.4673 4.1151-6.0197 7.4864 3.2442-.6029 5.5437-4.6357 6.0197-7.4864z" fill="#f3a474"/><path d="m93.1786 78.3223c2.8866.2059 5.9072-2.6251 7.1574-5.1691-5.2763.2319-7.4377 3.0261-7.1574 5.1691z" fill="#f3a474"/><path d="m93.0574 68.3242c2.4348.89 5.8078-.9156 7.4786-2.8378-4.2842-.931-7.05.73-7.4786 2.8378z" fill="#f3a474"/><path d="m103.145 57.9209c-3.6988-1.8522-6.4406-.6577-7.1111.7564 1.9023 1.3165 5.0531.5218 7.1111-.7564z" fill="#f3a474"/><path d="m136.219 105.768c30.013-7.7985 36.75-48.4311 8.277-63.526l-.164.2752c26.414 14.3012 21.473 50.5297-3.649 60.7298-3.11 1.175-6.322 2.058-9.594 2.639-26.806 4.086-49.5847-24.5156-34.2047-50.3168l-.2819-.1526c-16.7388 27.5385 9.8276 58.9674 39.6166 50.3514z" fill="#f3a474"/><path d="m140.584 105.457c2.535 4.451 10.658 4.647 17.07-.907-4.625-1.438-13.003-2.303-17.07.907z" fill="#f3a474"/><path d="m150.314 99.7194c4.112 3.7886 11.691.2232 14.999-5.127-4.871-.1496-12.11 1.1621-14.999 5.127z" fill="#f3a474"/><path d="m157.817 91.4455c4.41 2.1065 10.166-2.1975 12.026-8.1892-4.608 1.0181-10.439 3.883-12.026 8.1892z" fill="#f3a474"/><path d="m162.425 81.4381c4.676.7131 8.27-4.6565 8.51-10.1415-3.555 1.7987-8.528 6.0766-8.51 10.1415z" fill="#f3a474"/><path d="m164.421 65.3296c-.141.2888-.244.567-.351.8351-.646 1.3972-.777 2.9776-.372 4.4624 4.331-.5799 6.058-6.1867 4.861-10.8569-1.745 1.551-3.153 3.4431-4.138 5.5594z" fill="#f3a474"/><path d="m161.554 60.0287c3.57-1.5625 3.714-6.7423 1.499-10.5423-1.926 2.8494-3.379 7.7796-1.499 10.5423z" fill="#f3a474"/><path d="m154.885 41.2848c-.997 2.8828-1.096 7.431 1.324 9.3553 2.677-2.2266 1.446-6.6281-1.324-9.3553z" fill="#f3a474"/><path d="m144.806 35.7273c-.252 2.7187.791 6.5115 3.355 7.6161 1.287-1.9039.592-5.3124-3.355-7.6161z" fill="#f3a474"/><path d="m140.02 89.6329c-1.527 4.01-2.281 9.6274.821 12.6531 2.989-1.572 4.565-6.125-.821-12.6531z" fill="#f3a474"/><path d="m148.293 88.0856c-.895-.8762-1.875-1.6617-2.925-2.345-.465 3.3983.471 9.1988 4.16 11.0855 2.575-2.5984 1.245-6.2328-1.235-8.7405z" fill="#f3a474"/><path d="m149.499 80.2942c.656 3.6192 2.949 8.0985 6.699 8.8265 1.408-2.4776.334-6.5214-6.699-8.8265z" fill="#f3a474"/><path d="m160.232 79.8711c.584-2.4601-1.619-5.8843-8.319-6.1406 1.228 2.6825 4.652 6.4397 8.319 6.1406z" fill="#f3a474"/><path d="m161.264 69.9179c-.481-3.6377-5.238-4.2485-9.002-3.3534 1.867 2.207 5.907 4.4952 9.002 3.3534z" fill="#f3a474"/><path d="m150.367 59.3861c2.424 1.5431 6.427 2.4618 8.794.7802-.855-1.9846-4.143-3.2824-8.794-.7802z" fill="#f3a474"/><path d="m146.272 52.9031c2.419.7942 6.241.6225 7.878-1.3875-1.448-1.592-4.672-1.6044-7.878 1.3875z" fill="#f3a474"/><path d="m146.659 44.7474c-1.3-.8724-4.266-.4938-6.498 2.9877 2.421.0436 5.537-.8833 6.498-2.9877z" fill="#f3a474"/></mask><g clip-path="url(#a)"><path d="m231.965 91.8416c14.539 32.8404 9.127 73.9384-8.748 107.0114-17.924 33.06-48.348 58.033-84.288 67.454-35.951 9.469-77.4179 3.387-102.7821-19.307-25.4017-22.756-34.66337-62.061-33.88505-100.879s11.63415-77.0872 37.67145-99.7199c26.0374-22.6326 67.3057-29.6171 105.1787-20.7936 37.836 8.7622 72.314 33.3938 86.853 66.2341z" fill="#7d8ca9"/><path d="m216.732 220.33c-.05-.634-.432-1.792-2.49-2.425l-16.881-5.189c-.079-.05-.142-.12-.183-.203l-2.406-17.508c-.294-2.129-1.374-2.698-1.993-2.848-.618-.149-1.84-.139-3.075 1.619l-10.152 14.452c-.072.059-.159.097-.25.11l-17.397-3.122c-2.115-.38-2.99.473-3.323 1.014-.333.542-.702 1.707.59 3.425l10.607 14.122c.035.086.045.179.031.271l-8.346 15.582c-.293.43-.48.923-.546 1.44-.066.516-.009 1.041.167 1.531.527 1.177 1.957 1.617 3.757 1.001l16.706-5.725c.09.014.178.034.266.058l12.239 12.752c.508.58 1.17 1.004 1.909 1.222.324.086.663.096.99.028.328-.067.636-.211.898-.418.381-.355.672-.796.85-1.285s.237-1.014.173-1.531l-.28-17.659c.024-.09.071-.171.138-.236l15.907-7.701c1.934-.939 2.142-2.143 2.094-2.777z" fill="#e9c17b"/><path d="m175.56 162.742c-.121-.327-.504-.88-1.679-.902l-9.688-.178c-.049-.015-.093-.042-.127-.08l-3.921-8.868c-.478-1.078-1.135-1.214-1.483-1.2-.348.015-.992.206-1.376 1.32l-3.164 9.158c-.029.043-.068.077-.115.099l-9.645.989c-1.173.121-1.506.703-1.6 1.039-.093.336-.11 1.007.83 1.716l7.733 5.839c.031.04.05.088.055.138l-2.034 9.481c-.089.271-.113.56-.07.842.044.282.154.55.321.782.455.542 1.276.557 2.131-.04l7.943-5.551c.049-.004.099-.007.149-.006l8.385 4.87c.356.229.769.352 1.192.355.184-.004.364-.05.527-.135.163-.086.303-.208.41-.357.147-.246.233-.522.253-.807.019-.285-.029-.57-.14-.833l-2.821-9.269c-.002-.05.011-.101.036-.144l7.223-6.472c.87-.792.797-1.457.675-1.786z" fill="#e9c17b"/><path d="m227.977 173.284c-.238-.031-.696.024-1.086.735l-3.204 5.844c-.025.025-.056.043-.09.052l-6.656-.445c-.809-.055-1.103.306-1.204.519-.101.214-.192.669.364 1.26l4.568 4.854c.016.031.024.066.022.101l-2.481 6.192c-.301.753-.052 1.142.122 1.307s.578.388 1.311.043l6.029-2.845c.033-.006.067-.002.099.009l5.123 4.272c.136.141.304.248.49.312.186.063.384.082.578.054.475-.105.747-.6.656-1.311l-.843-6.612c.013-.032.028-.063.044-.093l5.647-3.553c.254-.142.461-.354.599-.61.056-.113.085-.237.084-.363 0-.126-.03-.25-.086-.362-.102-.167-.243-.308-.41-.411s-.355-.165-.551-.181l-6.545-1.241c-.029-.015-.054-.038-.072-.066l-1.634-6.469c-.206-.794-.636-.963-.874-.992z" fill="#e9c17b"/><path d="m183.474.601219c-.841-.164986-1.709-.1085-2.521.164142-.811.272639-1.538.751969-2.108 1.390699-7.7 8.62834-20.614 20.23764-38.402 26.54304-10.439 3.6915-21.535 5.1625-32.576 4.3188-16.6209-1.2158-34.4036 1.484-52.8536 8.024-12.0449 4.287-23.5885 9.8691-34.4284 16.648-.9408.599-1.6508 1.4993-2.014 2.5538-.3631 1.0545-.3579 2.2009.0147 3.2521l29.7902 84.0422c.2449.69.6406 1.318 1.1584 1.836s1.1445.915 1.8347 1.161c.6903.245 1.4266.334 2.1555.26.7289-.075 1.4319-.311 2.058-.692 10.3699-6.294 21.3492-11.525 32.7705-15.613 18.37-6.512 36.132-9.163 52.794-7.883 10.82.843 21.696-.609 31.917-4.261 22.611-8.015 37.368-24.3938 42.664-31.066.52-.6544.865-1.4302 1.002-2.2544.138-.8242.063-1.6698-.216-2.4574l-29.344-82.77713c-.286-.80687-.778-1.52536-1.426-2.08469-.648-.55934-1.43-.940128-2.27-1.105161zm-2.643 6.686061c-.335.35864-.68.72338-1.036 1.09412.354-.37023.7-.73498 1.036-1.09412zm1.677-1.83261c-.399.44763-.824.91293-1.262 1.38675.438-.47363.863-.93931 1.262-1.38675zm-3.177 3.40911c-.464.47582-.94.96024-1.437 1.45302.497-.49284.976-.9771 1.437-1.45302zm-1.572 1.58862c-.537.5314-1.099 1.0719-1.676 1.6203.577-.5452 1.139-1.089 1.677-1.6174zm-2.195 2.1065c-.435.4065-.88.816-1.335 1.2286.455-.4126.9-.8221 1.335-1.2286zm-1.926 1.7611c-.558.4969-1.13.9968-1.717 1.4998.588-.5021 1.16-1.002 1.717-1.4998zm-1.972 1.7214c-.67.5679-1.364 1.1388-2.072 1.7085.708-.5697 1.399-1.1384 2.074-1.7094zm-2.692 2.203c-.534.4232-1.077.8462-1.631 1.2689.555-.422 1.098-.845 1.631-1.2689zm-2.351 1.814c-.644.482-1.303.9623-1.975 1.4408.672-.4784 1.329-.9584 1.972-1.44zm-2.372 1.727c-.8.5631-1.62 1.1208-2.461 1.6752.839-.5537 1.661-1.1121 2.461-1.6752zm-3.162 2.1287c-.637.4129-1.284.8215-1.942 1.2258.659-.4047 1.307-.8133 1.942-1.2258zm-2.787 1.7373c-.727.4368-1.468.8686-2.223 1.2957.754-.4245 1.495-.8556 2.224-1.2934zm-2.768 1.6049c-.929.516-1.877 1.0206-2.846 1.5139.968-.4917 1.916-.9955 2.846-1.5114zm-3.613 1.8943c-.742.3701-1.494.7322-2.256 1.0861.763-.3506 1.515-.7118 2.256-1.0835zm-3.226 1.5297c-.81.3651-1.632.7193-2.467 1.0628.834-.3423 1.656-.6956 2.466-1.0599zm-3.159 1.3538c-1.057.4256-2.133.834-3.228 1.2254 1.095-.3893 2.171-.7966 3.227-1.222zm-5.582 2.0287c-.162.0515-.327.1037-.491.1554.163-.0482.329-.0975.491-.1519zm-2.641.8071c-.202.0583-.404.1181-.608.1753.201-.0511.403-.1108.606-.169zm-3.207.8627c-.156.038-.315.0737-.471.1108.154-.031.312-.0668.468-.1049zm-2.764.6274c-.223.0468-.445.0951-.669.1403.222-.0393.444-.0878.667-.1345zm-3.41.65c-.139.023-.281.043-.42.067.137-.0181.279-.038.418-.0629zm-2.882.4259c-.241.0322-.482.0642-.725.0936.241-.0235.483-.0545.723-.0877zm-3.609.4017c-.112.0104-.227.0165-.339.0264.11-.004.224-.0119.337-.0205zm-3.003.2047c-.258.0158-.514.027-.773.0379.257-.0068.514-.0186.771-.0321zm-3.805.1201c-.069.0009-.14-.0011-.209.0004.067.0044.138.0063.207.0054zm-3.124-.0388c-.27-.0071-.541-.0157-.813-.0258.27.016.54.0245.814.0289zm-3.99-.1945-.008.0025c-1.182-.0869-2.362-.1526-3.539-.1972 1.176.0448 2.356.1106 3.539.1972zm29.155 83.5049c-.869-.028-1.739-.059-2.604-.067.863.014 1.733.045 2.602.073zm-3.94-.06c-.783.001-1.566-.002-2.343.017.775-.013 1.558-.01 2.34-.011zm-3.762.067c-.744.025-1.49.046-2.228.084.736-.032 1.482-.053 2.225-.078zm-3.66.179c-.726.047-1.454.09-2.175.149.719-.053 1.447-.094 2.173-.143zm-3.613.287c-.71.068-1.422.13-2.126.208.702-.074 1.412-.136 2.123-.203zm-3.552.383c-.697.085-1.402.169-2.096.265.692-.092 1.393-.175 2.093-.26zm-3.506.477c-.687.103-1.377.202-2.059.315.679-.108 1.369-.208 2.057-.311zm-3.476.566c-.668.117-1.337.232-1.999.359.659-.123 1.328-.237 1.996-.355zm-3.41.644c-.652.132-1.305.261-1.951.402.643-.137 1.296-.267 1.948-.397zm-3.351.719c-.635.144-1.272.286-1.902.438.628-.148 1.265-.29 1.9-.432zm-3.296.788c-.616.154-1.2329.307-1.8416.468.6061-.157 1.2206-.309 1.8396-.464zm-3.2313.849c-.5953.164-1.1927.326-1.7803.497.585-.167 1.1821-.329 1.7786-.494zm-3.1652.905c-.5739.171-1.1502.341-1.7168.516.564-.171 1.1397-.341 1.714-.513zm-3.0961.955c-.5517.174-1.1045.349-1.6472.531.5412-.176 1.0935-.351 1.6447-.527zm-3.0272 1c-.5252.179-1.052.357-1.5691.539.515-.178 1.0413-.356 1.5665-.535zm-30.1264-84.1277c.5057-.1725 1.0103-.344 1.524-.5138-.5151.1735-1.0209.3455-1.5265.5179zm2.8906-.9552c.5182-.164 1.037-.3281 1.5595-.4933-.5249.1651-1.0455.331-1.562.4974zm2.9616-.9137c.5289-.1574 1.059-.3127 1.5939-.4655-.5363.1552-1.0684.3117-1.5965.4695zm3.0286-.8666c.541-.1488 1.0845-.2946 1.6304-.4375-.5485.1459-1.0931.2931-1.6333.4416zm3.0858-.8116c.5547-.1386 1.1121-.2745 1.6717-.4076-.5617.136-1.1199.2732-1.6743.4117zm3.1511-.7526c.5651-.1281 1.1335-.2511 1.7038-.373-.573.126-1.1416.2492-1.7067.3773zm3.2062-.6851c.5766-.1165 1.1571-.2257 1.7374-.3349-.5841.1137-1.1646.2223-1.7439.339zm3.2581-.6132c.5882-.1031 1.18-.1988 1.7722-.2934-.5964.0979-1.1887.1938-1.7763.2967zm3.3046-.5345c.6019-.089 1.2077-.1694 1.8136-.2498-.6101.0837-1.2159.1641-1.8177.2531zm3.3473-.4486c.6164-.0738 1.2369-.1372 1.857-.2017-.6231.0674-1.2432.1306-1.8603.2047zm3.3901-.3575c.6341-.0577 1.2722-.103 1.9103-.1501-.6411.0501-1.2791.0952-1.9132.153zm3.426-.2596c.6588-.0399 1.3209-.0656 1.9829-.0934-.6641.0337-1.3258.0562-1.9858.0964zm3.46-.1558c.6953-.0224 1.3957-.0241 2.0965-.0312-.7038.01-1.4038.0135-2.0997.0342zm3.4892-.0458c.785.0032 1.575.0283 2.363.0464-.792-.0175-1.581-.0402-2.366-.0433zm-43.3311 7.8593c-.4592.1611-.9107.3249-1.3638.4887.3-.1087.5925-.2203.8957-.3274.1527-.0522.3122-.1048.4669-.159zm-33.9004 16.3192.2031-.1302zm30.9757-15.2624c-.4382.163-.8707.3281-1.3023.493.4292-.1601.8629-.3257 1.3017-.4889zm-2.8086 1.0813c-.4267.1679-.8493.3345-1.269.5061.4227-.1726.8439-.3413 1.269-.5061zm-2.7161 1.0963c-.4119.1698-.8189.34-1.2209.5106.4052-.1736.8113-.3443 1.223-.514zm-2.6232 1.1094c-.3949.171-.7862.342-1.1737.5129.3904-.1749.781-.3452 1.1758-.5162zm-2.5198 1.1145c-.379.1712-.7547.3422-1.1272.5131.3734-.1734.7501-.3457 1.1296-.5166zm-2.4128 1.1121c-.3617.1698-.7218.3402-1.0765.509.355-.1722.7148-.3413 1.0769-.5118zm-2.3107 1.1067c-.3422.1669-.6845.3338-1.0185.4993.3351-.1685.6761-.3349 1.0189-.502zm-2.1915 1.0883c-.3243.1631-.6491.3271-.9644.4894.3164-.1652.6389-.3278.9648-.4921zm-2.0778 1.0668c-.3045.1588-.6119.3192-.9079.476.2971-.1598.6033-.3192.9083-.4789zm-1.9493 1.034c-.285.156-.5747.308-.852.4596.2777-.1543.5666-.3089.8524-.4625zm-1.8278.9981c-.2647.1496-.5359.2965-.7924.4408.2575-.1473.5272-.2958.7931-.4437zm-1.7027.9579c-.2403.1373-.4878.2768-.7194.4106.2326-.1367.4789-.2759.7207-.4104zm-1.5695.9066c-.2159.1269-.4407.2572-.648.38.2089-.124.4319-.2557.6484-.3828zm-1.4225.8449c-.1937.1159-.3972.2369-.5816.3492.1846-.1157.3875-.2364.5818-.3525zm-1.3323.8099c-.1497.0928-.3117.1908-.4548.2795.1433-.0921.3053-.1902.455-.283zm28.2786 84.9846c.1535-.094.324-.196.4833-.291-.1593.095-.33.197-.4833.291zm32.5527-15.636c-.4613.167-.9248.334-1.3796.502.4546-.169.918-.335 1.3793-.502zm-2.8207 1.05c-.438.167-.8812.335-1.3106.503.4316-.169.8724-.336 1.3105-.504zm-2.736 1.073c-.416.166-.8358.33-1.2446.501.4095-.169.829-.334 1.2444-.502zm-2.6576 1.092c-.3906.164-.7859.327-1.1701.492.3846-.165.7793-.329 1.1681-.492zm-2.5637 1.101c-.3681.161-.7408.323-1.103.485.3624-.164.7347-.324 1.1028-.486zm-2.4701 1.105c-.3452.158-.697.316-1.0355.473.3378-.16.6925-.317 1.0377-.474zm-2.3841 1.109c-.3201.151-.6456.303-.9606.454.3148-.151.6403-.304.961-.453zm-2.2784 1.098c-.2974.146-.6012.292-.8924.437.2916-.145.5948-.292.8922-.438zm-2.1676 1.08c-.2779.141-.5634.284-.8359.423.2721-.14.5576-.283.8355-.424zm-2.0588 1.059c-.2597.136-.5275.274-.7819.408.254-.136.5212-.273.7786-.408zm-1.949 1.032c-.2418.13-.4929.263-.7319.392.2386-.13.489-.263.7316-.393zm-1.8452 1.005c-.2245.123-.4524.247-.669.367.2162-.121.4465-.246.6685-.368zm-1.687.942c-.2173.122-.4444.249-.6557.37.2109-.122.4381-.249.6553-.372zm-1.5531.886c-.2169.126-.4454.256-.6543.378.2101-.122.4374-.252.6543-.378zm-1.5859.928c-.1625.096-.3328.196-.4924.29.1555-.093.3307-.192.4924-.29zm82.9653-23.348c1.242.053 2.489.127 3.741.223 1.105.086 2.197.139 3.281.175-1.084-.036-2.176-.089-3.281-.175-1.251-.096-2.498-.17-3.741-.223zm7.504.415c1.03.025 2.05.029 3.06.012-1.011.018-2.032.014-3.062-.011zm3.621.001c1.01-.025 2.011-.067 3.001-.133-.993.068-1.993.11-3.005.135zm3.413-.164c1.019-.073 2.03-.163 3.026-.277-1 .116-2.01.206-3.029.28zm3.09-.284c1.005-.117 1.996-.259 2.979-.416-.988.16-1.978.301-2.983.417zm3.419-.484c.939-.155 1.866-.327 2.783-.518-.919.19-1.848.363-2.786.519zm3.275-.622c.919-.196 1.828-.406 2.725-.633-.898.229-1.807.44-2.728.635zm3.072-.724c.897-.232 1.783-.479 2.659-.74-.877.263-1.764.51-2.662.742zm2.818-.786c.887-.267 1.759-.556 2.627-.849-.87.297-1.741.583-2.631.851zm3.063-.998c.862-.3 1.711-.613 2.55-.939-.721.281-1.449.554-2.187.816-.124.043-.246.083-.367.125zm40.251-28.911c.2-.2455.391-.4826.562-.6979-.174.2171-.366.4535-.566.6973zm-37.233 27.784c.685-.273 1.362-.552 2.031-.84-.671.289-1.349.569-2.035.841zm2.722-1.138c.719-.317 1.431-.64 2.132-.973-.704.334-1.419.659-2.135.976zm2.381-1.089c.773-.37 1.531-.752 2.28-1.14-.753.39-1.51.773-2.284 1.142zm2.91-1.471c.579-.306 1.151-.617 1.716-.932-.567.316-1.14.628-1.719.933zm2.276-1.243c.706-.402 1.403-.81 2.09-1.224-.687.415-1.384.824-2.094 1.226zm2.544-1.505c.552-.337 1.095-.678 1.629-1.021-.537.345-1.081.686-1.632 1.023zm2.233-1.411c.586-.384 1.163-.77 1.73-1.159-.568.39-1.146.777-1.734 1.16zm1.955-1.311c.627-.433 1.239-.87 1.842-1.307-.605.439-1.219.876-1.844 1.309zm2.395-1.715c.455-.334.902-.67 1.341-1.007-.441.338-.89.674-1.346 1.01zm1.822-1.374c.561-.434 1.11-.869 1.647-1.304-.538.436-1.087.871-1.649 1.305zm2.06-1.642c.416-.34.825-.68 1.226-1.019-.403.339-.812.68-1.228 1.02zm1.728-1.445c.452-.388.896-.774 1.328-1.157-.436.385-.878.771-1.331 1.158zm1.508-1.314c.479-.4275.941-.8496 1.394-1.2694-.455.4211-.917.8432-1.396 1.2704zm1.838-1.6815c.339-.3165.669-.6296.991-.9394-.326.3116-.658.6254-.996.9415zm1.349-1.2827c.414-.4021.816-.7981 1.205-1.1879-.392.3901-.795.7867-1.209 1.1895zm1.52-1.5084c.296-.2995.586-.5958.866-.8864-.284.2915-.574.5875-.87.8879zm1.219-1.2544c.33-.3453.651-.6857.957-1.0163-.311.3321-.632.6719-.962 1.0177zm1.056-1.1241c.328-.3545.636-.6961.939-1.0315-.306.3376-.615.6797-.943 1.0341zm1.216-1.3424c.23-.2579.452-.5092.664-.7538-.216.246-.438.4982-.668.7566zm.869-.9884c.266-.308.519-.6038.758-.8874-.244.2858-.497.5826-.762.8901zm.923-1.0818c.186-.2229.364-.4379.532-.6423-.171.2068-.35.4208-.535.6418z" fill="#50d2c2"/><path d="m95.6905 281.912c-1.9717.699-4.1404.586-6.0288-.314-1.8883-.9-3.3417-2.513-4.0406-4.485l-76.08789-214.6609c-.35137-.9775-.50605-2.0148-.45544-3.0524.0506-1.0375.3057-2.0548.75053-2.9935.4448-.9386 1.0705-1.7802 1.8414-2.4763.771-.6962 1.6721-1.2333 2.6511-1.5803.9791-.3471 2.017-.4971 3.0543-.4419s2.0534.3146 2.9901.7636 1.7753 1.0787 2.468 1.8528c.6927.774 1.2258 1.6773 1.5685 2.6579l76.0893 214.66c.346.977.497 2.012.443 3.046-.054 1.035-.312 2.049-.757 2.984-.4462.935-1.0717 1.773-1.8415 2.466-.7697.693-1.6685 1.228-2.645 1.574z" fill="#fcd28a"/><g fill="#f3a474"><path d="m117.177 116.147c8.351 1.493 15.222-2.828 15.131-7.953-5.136-.677-11.892 4.352-15.131 7.953z"/><path d="m105.514 111.557c5.566 2.858 13.902 2.044 15.511-3.268-4.524-1.976-11.415.601-15.511 3.268z"/><path d="m95.8092 104.088c4.6648 4.196 11.8128 4.952 14.5228.883-3.565-2.889-10.041-2.367-14.5228-.883z"/><path d="m88.7549 94.3672c3.013 4.591 8.85 7.3748 12.4991 4.361-2.0631-3.5011-8.5236-4.6312-12.4991-4.361z"/><path d="m94.6279 90.0919c-.4112-1.4796-1.3313-2.7667-2.5982-3.6348-.2285-.1772-.4601-.3639-.7284-.5397-1.9298-1.3213-4.1103-2.2325-6.4065-2.6769 1.361 4.6251 5.7128 8.5576 9.7331 6.8514z"/><path d="m91.05 79.8857c.2022-3.3357-3.5611-6.8001-6.6812-8.2916.0395 4.3974 2.8148 8.7754 6.6812 8.2916z"/><path d="m90.8514 69.1326c1.0946-2.8912-1.3162-6.7477-3.6479-8.7164-.998 3.7145.196 8.1258 3.6479 8.7164z"/><path d="m94.0221 58.6997c1.6473-2.2635.5665-6.0458-1.013-8.2609-2.2105 3.9979-1.0659 7.2827 1.013 8.2609z"/><path d="m130.465 105.6c1.123-4.168-2.376-8.6357-5.767-11.2923-1.288 8.3643 2.397 11.4703 5.767 11.2923z"/><path d="m120.207 105.352c2.205-3.507.041-9.011-2.096-11.6527-.553 1.1235-.994 2.2992-1.314 3.5096-.847 3.4271-.131 7.2301 3.41 8.1431z"/><path d="m111.775 91.133c-4.876 5.5413-3.718 9.602-1.231 11.009 2.85-2.5447 2.518-7.5657 1.231-11.009z"/><path d="m106.345 86.7289c-5.615 3.6851-5.764 7.7262-4.007 9.5324 3.303-1.619 4.322-6.5995 4.007-9.5324z"/><path d="m102.377 80.7489c-3.6824 1.1536-7.4673 4.1151-6.0197 7.4864 3.2442-.603 5.5437-4.6357 6.0197-7.4864z"/><path d="m93.1767 78.7822c2.8865.206 5.9071-2.625 7.1573-5.169-5.2763.2319-7.4376 3.0261-7.1573 5.169z"/><path d="m93.0554 68.7841c2.4348.89 5.8079-.9156 7.4786-2.8377-4.2842-.931-7.0499.7299-7.4786 2.8377z"/><path d="m103.143 58.3808c-3.6988-1.8521-6.4406-.6577-7.111.7564 1.9022 1.3166 5.054.5219 7.111-.7564z"/><path d="m136.217 106.229c30.013-7.7985 36.75-48.4311 8.277-63.5261l-.164.2752c26.414 14.3013 21.473 50.5297-3.649 60.7289-3.11 1.176-6.321 2.059-9.594 2.64-26.806 4.085-49.5846-24.5156-34.2046-50.3169l-.282-.1525c-16.7388 27.5384 9.8276 58.9674 39.6166 50.3514z"/><path d="m140.582 105.917c2.535 4.451 10.658 4.647 17.07-.907-4.625-1.438-13.003-2.303-17.07.907z"/><path d="m150.312 100.179c4.112 3.789 11.691.224 14.999-5.1267-4.871-.1495-12.11 1.1622-14.999 5.1267z"/><path d="m157.815 91.9055c4.41 2.1064 10.166-2.1976 12.026-8.1892-4.608 1.0181-10.439 3.883-12.026 8.1892z"/><path d="m162.423 81.8981c4.676.7131 8.27-4.6565 8.51-10.1415-3.555 1.7987-8.528 6.0766-8.51 10.1415z"/><path d="m164.419 65.7896c-.141.2888-.244.567-.351.8351-.646 1.3971-.777 2.9776-.372 4.4623 4.331-.5799 6.058-6.1866 4.861-10.8569-1.745 1.5511-3.153 3.4432-4.138 5.5595z"/><path d="m161.552 60.4886c3.57-1.5624 3.715-6.7422 1.499-10.5422-1.926 2.8494-3.379 7.7796-1.499 10.5422z"/><path d="m154.883 41.7448c-.997 2.8828-1.096 7.4309 1.324 9.3553 2.677-2.2267 1.446-6.6282-1.324-9.3553z"/><path d="m144.804 36.1872c-.252 2.7188.791 6.5116 3.355 7.6162 1.287-1.9039.592-5.3124-3.355-7.6162z"/><path d="m140.018 90.0928c-1.527 4.01-2.281 9.6274.821 12.6532 2.989-1.572 4.565-6.1251-.821-12.6532z"/><path d="m148.291 88.5466c-.895-.8762-1.875-1.6618-2.925-2.345-.465 3.3982.471 9.1987 4.161 11.0854 2.574-2.5984 1.244-6.2327-1.236-8.7404z"/><path d="m149.497 80.7541c.656 3.6192 2.949 8.0986 6.699 8.8266 1.408-2.4776.334-6.5214-6.699-8.8266z"/><path d="m160.23 80.3311c.584-2.4602-1.619-5.8844-8.319-6.1407 1.228 2.6826 4.652 6.4398 8.319 6.1407z"/><path d="m161.262 70.3779c-.48-3.6377-5.238-4.2486-9.002-3.3535 1.867 2.2071 5.907 4.4953 9.002 3.3535z"/><path d="m150.365 59.847c2.424 1.5431 6.427 2.4618 8.794.7803-.855-1.9847-4.143-3.2824-8.794-.7803z"/><path d="m146.27 53.363c2.419.7943 6.241.6226 7.878-1.3875-1.448-1.592-4.672-1.6044-7.878 1.3875z"/><path d="m146.657 45.2073c-1.3-.8723-4.266-.4937-6.498 2.9878 2.421.0436 5.537-.8834 6.498-2.9878z"/></g><g mask="url(#b)"><ellipse cx="-18.8552" cy="180.895" fill="#000" fill-opacity=".15" rx="76.3105" ry="260.285" transform="matrix(.93745951 -.34809433 .34809433 .93745951 -64.147737 4.749873)"/></g></g></svg>