<svg width="1233" height="405" viewBox="0 0 1233 405" fill="none" xmlns="http://www.w3.org/2000/svg">
<g clip-path="url(#clip0_1362_47285)">
<path d="M169.793 306.45C169.793 265.912 131.956 233.05 85.2796 233.05C38.603 233.05 0.766602 265.912 0.766602 306.45C0.766602 329.647 6.41889 350.007 23.9071 363.369C24.2349 369.779 25.1845 375.917 27.2193 380.665C28.0412 382.577 29.4054 384.206 31.1433 385.352C32.8812 386.497 34.9165 387.108 36.9978 387.109C38.4331 387.107 39.8528 386.81 41.1692 386.238C43.3349 385.31 45.1303 383.687 46.2724 381.626C47.4144 379.565 47.8383 377.183 47.4771 374.854C51.4897 376.019 55.5661 376.951 59.6861 377.647V385.209C59.6861 388.028 60.8056 390.731 62.7984 392.723C64.7913 394.716 67.4941 395.836 70.3124 395.836C73.1306 395.836 75.8335 394.716 77.8263 392.723C79.8191 390.731 80.9387 388.028 80.9387 385.209V379.738C82.3631 379.795 83.7987 379.84 85.2796 379.862C88.053 379.862 90.736 379.84 93.3285 379.795V385.209C93.3285 388.028 94.448 390.731 96.4409 392.723C98.4337 394.716 101.137 395.836 103.955 395.836C106.773 395.836 109.476 394.716 111.469 392.723C113.462 390.731 114.581 388.028 114.581 385.209V377.613C119.581 376.696 124.497 375.365 129.277 373.634C129.094 374.496 128.833 375.34 128.497 376.154C127.946 377.437 127.654 378.815 127.637 380.211C127.619 381.607 127.878 382.992 128.396 384.288C128.915 385.583 129.684 386.764 130.66 387.762C131.635 388.76 132.798 389.556 134.081 390.104C135.399 390.673 136.818 390.965 138.253 390.963C140.335 390.965 142.371 390.356 144.11 389.21C145.848 388.065 147.212 386.434 148.031 384.52C150.812 378.008 151.581 368.886 151.423 360.012C165.158 346.525 169.793 327.387 169.793 306.45Z" fill="#7D8BA8"/>
<path d="M108.159 323.657C125.129 323.657 138.885 309.9 138.885 292.931C138.885 275.962 125.129 262.205 108.159 262.205C91.19 262.205 77.4336 275.962 77.4336 292.931C77.4336 309.9 91.19 323.657 108.159 323.657Z" fill="#7CC8C5"/>
<path d="M108.261 317.065C121.809 317.065 132.792 306.082 132.792 292.534C132.792 278.986 121.809 268.003 108.261 268.003C94.7133 268.003 83.7305 278.986 83.7305 292.534C83.7305 306.082 94.7133 317.065 108.261 317.065Z" fill="#EEEAE5"/>
<path d="M108.261 305.896C115.641 305.896 121.623 299.914 121.623 292.534C121.623 285.154 115.641 279.172 108.261 279.172C100.882 279.172 94.8994 285.154 94.8994 292.534C94.8994 299.914 100.882 305.896 108.261 305.896Z" fill="#EE787A"/>
<path d="M102.824 288.16C104.06 288.16 105.063 287.158 105.063 285.922C105.063 284.686 104.06 283.684 102.824 283.684C101.588 283.684 100.586 284.686 100.586 285.922C100.586 287.158 101.588 288.16 102.824 288.16Z" fill="#EEEAE5"/>
<path d="M81.3105 354.564C79.4226 361.946 66.0493 365.1 51.4212 361.595C36.7931 358.091 26.4946 349.273 28.3485 341.891C30.2025 334.51 44.3106 326.879 58.9387 330.372C73.5669 333.865 83.1871 347.227 81.3105 354.564Z" fill="#5A6174"/>
<path d="M36.9276 343.168L29.4666 339.02C29.2814 338.925 29.126 338.781 29.0175 338.603C28.909 338.426 28.8516 338.222 28.8516 338.013C28.8516 337.805 28.909 337.601 29.0175 337.424C29.126 337.246 29.2814 337.102 29.4666 337.007L36.9276 332.859C37.1017 332.755 37.3004 332.701 37.5029 332.7C37.7054 332.7 37.9042 332.754 38.0787 332.857C38.2531 332.96 38.3967 333.107 38.4945 333.285C38.5923 333.462 38.6407 333.662 38.6346 333.865V342.174C38.6386 342.375 38.5887 342.574 38.4901 342.75C38.3914 342.925 38.2476 343.071 38.0736 343.173C37.8995 343.274 37.7015 343.327 37.5 343.327C37.2985 343.326 37.1009 343.271 36.9276 343.168Z" fill="#EEEAE5"/>
<path d="M46.6717 338.624L40.8611 332.53C40.7155 332.384 40.6127 332.201 40.5636 332.001C40.5146 331.801 40.5213 331.591 40.583 331.394C40.6448 331.197 40.7591 331.021 40.9137 330.885C41.0683 330.748 41.2573 330.657 41.4603 330.62L49.8822 328.834C50.075 328.792 50.2756 328.801 50.4639 328.86C50.6522 328.919 50.8217 329.027 50.9554 329.172C51.0892 329.317 51.1826 329.495 51.2264 329.688C51.2701 329.88 51.2627 330.081 51.2048 330.269L48.5934 338.183C48.5368 338.375 48.4299 338.549 48.2837 338.687C48.1375 338.825 47.9573 338.921 47.7616 338.966C47.5659 339.011 47.3618 339.003 47.1702 338.942C46.9787 338.882 46.8066 338.772 46.6717 338.624Z" fill="#EEEAE5"/>
<path d="M56.5529 337.55L54.0207 329.637C53.9531 329.444 53.939 329.237 53.98 329.036C54.0211 328.836 54.1156 328.651 54.2536 328.5C54.3917 328.349 54.568 328.239 54.7639 328.18C54.9597 328.122 55.1678 328.117 55.3659 328.168L63.7991 329.999C64.0002 330.039 64.1866 330.133 64.3384 330.271C64.4902 330.408 64.6017 330.585 64.6609 330.781C64.7202 330.977 64.7249 331.186 64.6747 331.385C64.6244 331.584 64.521 331.765 64.3757 331.909L58.5086 337.991C58.3751 338.149 58.2009 338.267 58.0049 338.333C57.8089 338.399 57.5987 338.409 57.3971 338.364C57.1955 338.318 57.0102 338.219 56.8613 338.075C56.7125 337.932 56.6058 337.75 56.5529 337.55Z" fill="#EEEAE5"/>
<path d="M65.7315 341.892L66.6472 333.663C66.6642 333.462 66.7344 333.27 66.8504 333.106C66.9664 332.942 67.1241 332.812 67.3073 332.729C67.4904 332.646 67.6923 332.613 67.8923 332.634C68.0922 332.655 68.2829 332.729 68.4446 332.849L75.4082 337.744C75.5796 337.858 75.7166 338.016 75.8044 338.202C75.8922 338.388 75.9276 338.595 75.9066 338.8C75.8857 339.004 75.8092 339.2 75.6856 339.364C75.5619 339.529 75.3956 339.656 75.2048 339.733L67.2916 343.125C67.1045 343.205 66.8991 343.233 66.6972 343.207C66.4953 343.18 66.3044 343.099 66.1446 342.973C65.9848 342.847 65.8621 342.68 65.7894 342.489C65.7166 342.299 65.6967 342.093 65.7315 341.892Z" fill="#EEEAE5"/>
<path d="M72.4461 349.624L76.3123 342.197C76.4005 342.017 76.535 341.863 76.702 341.752C76.869 341.641 77.0625 341.577 77.2627 341.565C77.4629 341.554 77.6626 341.596 77.8412 341.687C78.0199 341.778 78.1711 341.915 78.2793 342.084L83.0159 349.025C83.1376 349.191 83.2115 349.388 83.2296 349.593C83.2476 349.799 83.2092 350.005 83.1184 350.19C83.0276 350.375 82.8879 350.532 82.7144 350.643C82.5409 350.755 82.3403 350.817 82.1341 350.822L73.5201 351.297C73.317 351.312 73.1135 351.272 72.9313 351.181C72.7491 351.09 72.5948 350.952 72.4848 350.78C72.3748 350.609 72.3131 350.411 72.3063 350.207C72.2995 350.004 72.3478 349.802 72.4461 349.624Z" fill="#EEEAE5"/>
<mask id="mask0_1362_47285" style="mask-type:alpha" maskUnits="userSpaceOnUse" x="0" y="233" width="170" height="163">
<path d="M169.793 306.45C169.793 265.912 131.956 233.05 85.2796 233.05C38.603 233.05 0.766602 265.912 0.766602 306.45C0.766602 329.647 6.41889 350.007 23.9071 363.369C24.2349 369.779 25.1845 375.917 27.2193 380.665C28.0412 382.577 29.4054 384.206 31.1433 385.352C32.8812 386.497 34.9165 387.108 36.9978 387.109C38.4331 387.107 39.8528 386.81 41.1692 386.238C43.3349 385.31 45.1303 383.687 46.2724 381.626C47.4144 379.565 47.8383 377.183 47.4771 374.854C51.4897 376.019 55.5661 376.951 59.6861 377.647V385.209C59.6861 388.028 60.8056 390.731 62.7984 392.723C64.7913 394.716 67.4941 395.836 70.3124 395.836C73.1306 395.836 75.8335 394.716 77.8263 392.723C79.8191 390.731 80.9387 388.028 80.9387 385.209V379.738C82.3631 379.795 83.7987 379.84 85.2796 379.862C88.053 379.862 90.736 379.84 93.3285 379.795V385.209C93.3285 388.028 94.448 390.731 96.4409 392.723C98.4337 394.716 101.137 395.836 103.955 395.836C106.773 395.836 109.476 394.716 111.469 392.723C113.462 390.731 114.581 388.028 114.581 385.209V377.613C119.581 376.696 124.497 375.365 129.277 373.634C129.094 374.496 128.833 375.34 128.497 376.154C127.946 377.437 127.654 378.815 127.637 380.211C127.619 381.607 127.878 382.992 128.396 384.288C128.915 385.583 129.684 386.764 130.66 387.762C131.635 388.76 132.798 389.556 134.081 390.104C135.399 390.673 136.818 390.965 138.253 390.963C140.335 390.965 142.371 390.356 144.11 389.21C145.848 388.065 147.212 386.434 148.031 384.52C150.812 378.008 151.581 368.886 151.423 360.012C165.158 346.525 169.793 327.387 169.793 306.45Z" fill="#7D8BA8"/>
<path d="M108.159 323.657C125.129 323.657 138.885 309.9 138.885 292.931C138.885 275.962 125.129 262.205 108.159 262.205C91.19 262.205 77.4336 275.962 77.4336 292.931C77.4336 309.9 91.19 323.657 108.159 323.657Z" fill="#7CC8C5"/>
<path d="M108.261 317.065C121.809 317.065 132.792 306.082 132.792 292.534C132.792 278.986 121.809 268.003 108.261 268.003C94.7133 268.003 83.7305 278.986 83.7305 292.534C83.7305 306.082 94.7133 317.065 108.261 317.065Z" fill="#EEEAE5"/>
<path d="M108.261 305.896C115.641 305.896 121.623 299.914 121.623 292.534C121.623 285.154 115.641 279.172 108.261 279.172C100.882 279.172 94.8994 285.154 94.8994 292.534C94.8994 299.914 100.882 305.896 108.261 305.896Z" fill="#EE787A"/>
<path d="M102.824 288.16C104.06 288.16 105.063 287.158 105.063 285.922C105.063 284.686 104.06 283.684 102.824 283.684C101.588 283.684 100.586 284.686 100.586 285.922C100.586 287.158 101.588 288.16 102.824 288.16Z" fill="#EEEAE5"/>
<path d="M81.3105 354.564C79.4226 361.946 66.0493 365.1 51.4212 361.595C36.7931 358.091 26.4946 349.273 28.3485 341.891C30.2025 334.51 44.3106 326.879 58.9387 330.372C73.5669 333.865 83.1871 347.227 81.3105 354.564Z" fill="#5A6174"/>
<path d="M36.9276 343.168L29.4666 339.02C29.2814 338.925 29.126 338.781 29.0175 338.603C28.909 338.426 28.8516 338.222 28.8516 338.013C28.8516 337.805 28.909 337.601 29.0175 337.424C29.126 337.246 29.2814 337.102 29.4666 337.007L36.9276 332.859C37.1017 332.755 37.3004 332.701 37.5029 332.7C37.7054 332.7 37.9042 332.754 38.0787 332.857C38.2531 332.96 38.3967 333.107 38.4945 333.285C38.5923 333.462 38.6407 333.662 38.6346 333.865V342.174C38.6386 342.375 38.5887 342.574 38.4901 342.75C38.3914 342.925 38.2476 343.071 38.0736 343.173C37.8995 343.274 37.7015 343.327 37.5 343.327C37.2985 343.326 37.1009 343.271 36.9276 343.168Z" fill="#EEEAE5"/>
<path d="M46.6717 338.624L40.8611 332.53C40.7155 332.384 40.6127 332.201 40.5636 332.001C40.5146 331.801 40.5213 331.591 40.583 331.394C40.6448 331.197 40.7591 331.021 40.9137 330.885C41.0683 330.748 41.2573 330.657 41.4603 330.62L49.8822 328.834C50.075 328.792 50.2756 328.801 50.4639 328.86C50.6522 328.919 50.8217 329.027 50.9554 329.172C51.0892 329.317 51.1826 329.495 51.2264 329.688C51.2701 329.88 51.2627 330.081 51.2048 330.269L48.5934 338.183C48.5368 338.375 48.4299 338.549 48.2837 338.687C48.1375 338.825 47.9573 338.921 47.7616 338.966C47.5659 339.011 47.3618 339.003 47.1702 338.942C46.9787 338.882 46.8066 338.772 46.6717 338.624Z" fill="#EEEAE5"/>
<path d="M56.5529 337.55L54.0207 329.637C53.9531 329.444 53.939 329.237 53.98 329.036C54.0211 328.836 54.1156 328.651 54.2536 328.5C54.3917 328.349 54.568 328.239 54.7639 328.18C54.9597 328.122 55.1678 328.117 55.3659 328.168L63.7991 329.999C64.0002 330.039 64.1866 330.133 64.3384 330.271C64.4902 330.408 64.6017 330.585 64.6609 330.781C64.7202 330.977 64.7249 331.186 64.6747 331.385C64.6244 331.584 64.521 331.765 64.3757 331.909L58.5086 337.991C58.3751 338.149 58.2009 338.267 58.0049 338.333C57.8089 338.399 57.5987 338.409 57.3971 338.364C57.1955 338.318 57.0102 338.218 56.8613 338.075C56.7125 337.932 56.6058 337.75 56.5529 337.55Z" fill="#EEEAE5"/>
<path d="M65.7315 341.892L66.6472 333.663C66.6642 333.462 66.7344 333.27 66.8504 333.106C66.9664 332.942 67.1241 332.812 67.3073 332.729C67.4904 332.646 67.6923 332.613 67.8923 332.634C68.0922 332.655 68.2829 332.729 68.4446 332.849L75.4082 337.744C75.5796 337.858 75.7166 338.016 75.8044 338.202C75.8922 338.388 75.9276 338.595 75.9066 338.8C75.8857 339.004 75.8092 339.2 75.6856 339.364C75.5619 339.529 75.3956 339.656 75.2048 339.733L67.2916 343.125C67.1045 343.205 66.8991 343.233 66.6972 343.207C66.4953 343.18 66.3044 343.099 66.1446 342.973C65.9848 342.847 65.8621 342.68 65.7894 342.489C65.7166 342.299 65.6967 342.093 65.7315 341.892Z" fill="#EEEAE5"/>
<path d="M72.4461 349.624L76.3123 342.197C76.4005 342.017 76.535 341.863 76.702 341.752C76.869 341.641 77.0625 341.577 77.2627 341.565C77.4629 341.554 77.6626 341.596 77.8412 341.687C78.0199 341.778 78.1711 341.915 78.2793 342.084L83.0159 349.025C83.1376 349.191 83.2115 349.388 83.2296 349.593C83.2476 349.799 83.2092 350.005 83.1184 350.19C83.0276 350.375 82.8879 350.532 82.7144 350.643C82.5409 350.755 82.3403 350.817 82.1341 350.822L73.5201 351.297C73.317 351.312 73.1135 351.272 72.9313 351.181C72.7491 351.09 72.5948 350.952 72.4848 350.78C72.3748 350.609 72.3131 350.411 72.3063 350.207C72.2995 350.004 72.3478 349.802 72.4461 349.624Z" fill="#EEEAE5"/>
</mask>
<g mask="url(#mask0_1362_47285)">
<path opacity="0.15" d="M224.836 395.465H93.9385C93.9385 395.465 81.5283 347.237 81.5283 301.608C81.5283 255.98 93.9385 225.896 93.9385 225.896H224.836V395.465Z" fill="black"/>
</g>
</g>
<g clip-path="url(#clip1_1362_47285)">
<path d="M135.65 240.196C135.65 240.196 115.277 247.475 110.511 253.222C105.745 258.969 100.72 271.117 108.326 277.019C115.931 282.921 139.815 291.163 139.815 291.163L135.65 240.196Z" fill="#7CC7C3"/>
<path d="M291.511 237.478C291.511 237.478 311.884 244.739 316.65 250.486C321.416 256.233 326.441 268.381 318.835 274.3C311.23 280.22 287.347 288.445 287.347 288.445L291.511 237.478Z" fill="#7CC7C3"/>
<path d="M186.565 394.389C201.449 391.946 199.178 362.986 199.178 362.986C199.178 362.986 199.006 361.799 212.944 361.506C226.881 361.214 226.537 366.066 226.537 366.066C226.537 366.066 220.532 394.32 244.02 394.32C267.507 394.32 268.264 373.431 280.602 357.084C292.939 340.738 295.623 250.143 288.482 186.133C284.129 137.506 236.861 136.611 211.756 136.611C186.651 136.611 143.686 136.336 136.149 183.81C132.432 217.57 125.825 311.348 142.877 351.785C154.044 386.112 171.681 396.832 186.565 394.389Z" fill="#5A6174"/>
<path d="M142.07 217.846L137.579 244.138C137.241 246.126 137.401 248.166 138.046 250.077C138.691 251.987 139.8 253.708 141.273 255.084C142.747 256.461 144.539 257.45 146.489 257.963C148.439 258.476 150.486 258.497 152.446 258.024L172.509 253.189C174.443 252.715 176.232 251.774 177.719 250.448C179.205 249.122 180.343 247.452 181.035 245.584C181.726 243.716 181.948 241.707 181.683 239.733C181.418 237.759 180.672 235.88 179.512 234.261L163.923 212.735C162.513 210.8 160.564 209.323 158.319 208.489C156.074 207.655 153.634 207.501 151.302 208.047C148.971 208.592 146.851 209.812 145.209 211.555C143.567 213.298 142.475 215.486 142.07 217.846Z" fill="#EEEAE5"/>
<path d="M259.87 208.778L246.018 231.439C244.975 233.155 244.372 235.103 244.263 237.108C244.154 239.114 244.543 241.115 245.394 242.934C246.246 244.753 247.534 246.333 249.144 247.534C250.754 248.734 252.636 249.519 254.622 249.816L275.012 253C277 253.308 279.034 253.119 280.932 252.45C282.83 251.781 284.532 250.651 285.887 249.164C287.242 247.676 288.207 245.875 288.697 243.924C289.186 241.972 289.184 239.929 288.692 237.978L282.153 212.167C281.582 209.82 280.326 207.695 278.544 206.063C276.763 204.431 274.536 203.366 272.148 203.003C269.759 202.639 267.317 202.995 265.13 204.023C262.944 205.051 261.113 206.706 259.87 208.778Z" fill="#EEEAE5"/>
<path d="M291.974 237.72C294.074 290.39 289.29 342.441 283.216 353.282C280.928 358.702 267.54 394.32 244.07 394.32C220.6 394.32 226.588 366.067 226.588 366.067C226.588 366.067 227.001 361.231 212.994 361.507C198.988 361.782 199.229 362.987 199.229 362.987C199.229 362.987 201.535 391.946 186.564 394.389C171.594 396.833 154.043 386.113 142.893 351.785C132.569 327.299 130.848 282.01 132.036 242.589C132.036 242.589 177.651 242.693 212.082 241.987C246.514 241.282 291.974 237.72 291.974 237.72Z" fill="#798E9C"/>
<path d="M213.665 338.569C184.585 338.569 146.059 333.545 143.116 322.842C137.3 308.388 134.857 273.716 135.941 241.677C135.941 241.677 179.561 241.677 212.495 241.178C245.429 240.679 288.894 237.736 288.894 237.736C290.89 280.547 284.145 319.727 281.237 327.213C278.329 334.698 242.831 338.569 213.665 338.569Z" fill="#F2A374"/>
<path d="M196.339 229.804C198.971 229.804 201.105 227.632 201.105 224.952C201.105 222.272 198.971 220.1 196.339 220.1C193.706 220.1 191.572 222.272 191.572 224.952C191.572 227.632 193.706 229.804 196.339 229.804Z" fill="#EEEAE5"/>
<path d="M196.373 227.74C197.865 227.74 199.075 226.507 199.075 224.987C199.075 223.466 197.865 222.233 196.373 222.233C194.881 222.233 193.672 223.466 193.672 224.987C193.672 226.507 194.881 227.74 196.373 227.74Z" fill="#5A6174"/>
<path d="M229.015 229.805C231.648 229.805 233.782 227.633 233.782 224.953C233.782 222.273 231.648 220.101 229.015 220.101C226.383 220.101 224.249 222.273 224.249 224.953C224.249 227.633 226.383 229.805 229.015 229.805Z" fill="#EEEAE5"/>
<path d="M229.239 227.741C230.731 227.741 231.94 226.508 231.94 224.987C231.94 223.467 230.731 222.234 229.239 222.234C227.747 222.234 226.537 223.467 226.537 224.987C226.537 226.508 227.747 227.741 229.239 227.741Z" fill="#5A6174"/>
<mask id="mask1_1362_47285" style="mask-type:alpha" maskUnits="userSpaceOnUse" x="104" y="136" width="219" height="259">
<path d="M135.65 240.196C135.65 240.196 115.277 247.475 110.511 253.222C105.745 258.969 100.72 271.117 108.326 277.019C115.931 282.921 139.815 291.163 139.815 291.163L135.65 240.196Z" fill="#7CC7C3"/>
<path d="M291.511 237.478C291.511 237.478 311.884 244.739 316.65 250.486C321.416 256.233 326.441 268.381 318.835 274.3C311.23 280.22 287.347 288.445 287.347 288.445L291.511 237.478Z" fill="#7CC7C3"/>
<path d="M186.565 394.389C201.449 391.946 199.178 362.986 199.178 362.986C199.178 362.986 199.006 361.799 212.944 361.506C226.881 361.214 226.537 366.066 226.537 366.066C226.537 366.066 220.532 394.32 244.02 394.32C267.507 394.32 268.264 373.431 280.602 357.084C292.939 340.738 295.623 250.143 288.482 186.133C284.129 137.506 236.861 136.611 211.756 136.611C186.651 136.611 143.686 136.336 136.149 183.81C132.432 217.57 125.825 311.348 142.877 351.785C154.044 386.112 171.681 396.832 186.565 394.389Z" fill="#5A6174"/>
<path d="M142.07 217.846L137.579 244.138C137.241 246.126 137.401 248.166 138.046 250.077C138.691 251.987 139.8 253.708 141.273 255.084C142.747 256.461 144.539 257.45 146.489 257.963C148.439 258.476 150.486 258.497 152.446 258.024L172.509 253.189C174.443 252.715 176.232 251.774 177.719 250.448C179.205 249.122 180.343 247.452 181.035 245.584C181.726 243.716 181.948 241.707 181.683 239.733C181.418 237.759 180.672 235.88 179.512 234.261L163.923 212.735C162.513 210.8 160.564 209.323 158.319 208.489C156.074 207.655 153.634 207.501 151.302 208.047C148.971 208.592 146.851 209.812 145.209 211.555C143.567 213.298 142.475 215.486 142.07 217.846Z" fill="#EEEAE5"/>
<path d="M259.87 208.778L246.018 231.439C244.975 233.155 244.372 235.103 244.263 237.108C244.154 239.114 244.543 241.115 245.394 242.934C246.246 244.753 247.534 246.333 249.144 247.534C250.754 248.734 252.636 249.519 254.622 249.816L275.012 253C277 253.308 279.034 253.119 280.932 252.45C282.83 251.781 284.532 250.651 285.887 249.164C287.242 247.676 288.207 245.875 288.697 243.924C289.186 241.972 289.184 239.929 288.692 237.978L282.153 212.167C281.582 209.82 280.326 207.695 278.544 206.063C276.763 204.431 274.536 203.366 272.148 203.003C269.759 202.639 267.317 202.995 265.13 204.023C262.944 205.051 261.113 206.706 259.87 208.778Z" fill="#EEEAE5"/>
<path d="M291.974 237.72C294.074 290.39 289.29 342.441 283.216 353.282C280.928 358.702 267.54 394.32 244.07 394.32C220.6 394.32 226.588 366.067 226.588 366.067C226.588 366.067 227.001 361.231 212.994 361.507C198.988 361.782 199.229 362.987 199.229 362.987C199.229 362.987 201.535 391.946 186.564 394.389C171.594 396.833 154.043 386.113 142.893 351.785C132.569 327.299 130.848 282.01 132.036 242.589C132.036 242.589 177.651 242.693 212.082 241.987C246.514 241.282 291.974 237.72 291.974 237.72Z" fill="#798E9C"/>
<path d="M213.665 338.569C184.585 338.569 146.059 333.545 143.116 322.842C137.3 308.388 134.857 273.716 135.941 241.677C135.941 241.677 179.561 241.677 212.495 241.178C245.429 240.679 288.894 237.736 288.894 237.736C290.89 280.547 284.145 319.728 281.237 327.213C278.329 334.698 242.831 338.569 213.665 338.569Z" fill="#F2A374"/>
<path d="M196.339 229.804C198.971 229.804 201.105 227.632 201.105 224.952C201.105 222.272 198.971 220.1 196.339 220.1C193.706 220.1 191.572 222.272 191.572 224.952C191.572 227.632 193.706 229.804 196.339 229.804Z" fill="#EEEAE5"/>
<path d="M196.373 227.74C197.865 227.74 199.075 226.507 199.075 224.987C199.075 223.466 197.865 222.233 196.373 222.233C194.881 222.233 193.672 223.466 193.672 224.987C193.672 226.507 194.881 227.74 196.373 227.74Z" fill="#5A6174"/>
<path d="M229.015 229.805C231.648 229.805 233.782 227.633 233.782 224.953C233.782 222.273 231.648 220.101 229.015 220.101C226.383 220.101 224.249 222.273 224.249 224.953C224.249 227.633 226.383 229.805 229.015 229.805Z" fill="#EEEAE5"/>
<path d="M229.239 227.741C230.731 227.741 231.94 226.508 231.94 224.987C231.94 223.467 230.731 222.234 229.239 222.234C227.747 222.234 226.537 223.467 226.537 224.987C226.537 226.508 227.747 227.741 229.239 227.741Z" fill="#5A6174"/>
</mask>
<g mask="url(#mask1_1362_47285)">
<path opacity="0.15" d="M336.18 442.465H212.409C212.409 442.465 200.675 343.364 200.675 249.602C200.675 155.841 212.409 94.0244 212.409 94.0244H336.18V442.465Z" fill="black"/>
</g>
</g>
<path d="M475.157 73.2802C475.157 73.2802 457.823 79.2496 453.048 86.1255C448.272 93.0014 448.98 120.041 440.203 127.735C434.485 132.376 427.171 134.584 419.84 133.881L398.395 97.3789C398.395 97.3789 413.539 101.602 420.128 95.168C426.716 88.7343 433.017 71.3788 443.209 66.4264C453.402 61.474 475.157 73.2802 475.157 73.2802Z" fill="#5A6174" stroke="#5A6174" stroke-width="1.33671" stroke-linecap="round" stroke-linejoin="round"/>
<path d="M440.468 128L418.47 95.4111" stroke="#6EC6D8" stroke-width="2.00507" stroke-miterlimit="10" stroke-linecap="round"/>
<path d="M448.603 105.184L429.059 82.3672" stroke="#6EC6D8" stroke-width="2.00507" stroke-miterlimit="10" stroke-linecap="round"/>
<path d="M455.127 83.1866L440.469 68.5283" stroke="#6EC6D8" stroke-width="2.00507" stroke-miterlimit="10" stroke-linecap="round"/>
<path d="M233.02 70.8262C233.02 70.8262 250.353 76.7956 255.128 83.6715C259.904 90.5474 259.197 117.609 267.974 125.281C273.692 129.924 281.003 132.139 288.336 131.449L309.782 94.9249C309.782 94.9249 294.637 99.1477 288.027 92.714C281.416 86.2803 275.159 68.969 264.967 63.9724C254.775 58.9758 233.02 70.8262 233.02 70.8262Z" fill="#5A6174" stroke="#5A6174" stroke-width="1.33671" stroke-linecap="round" stroke-linejoin="round"/>
<path d="M267.708 125.546L289.706 92.957" stroke="#6EC6D8" stroke-width="2.00507" stroke-miterlimit="10" stroke-linecap="round"/>
<path d="M259.573 102.729L279.118 79.9346" stroke="#6EC6D8" stroke-width="2.00507" stroke-miterlimit="10" stroke-linecap="round"/>
<path d="M253.051 80.7295L267.709 66.0713" stroke="#6EC6D8" stroke-width="2.00507" stroke-miterlimit="10" stroke-linecap="round"/>
<path d="M292.403 358.75C290.667 363.687 289.777 368.882 289.772 374.116C289.772 382.805 298.417 387.691 303.9 388.752C310.963 389.836 318.15 389.836 325.213 388.752C331.669 387.691 335.737 368.854 335.737 368.854L292.403 358.75Z" fill="#5A6174"/>
<path d="M414.555 358.751C416.292 363.688 417.182 368.883 417.186 374.117C417.186 382.806 408.542 387.692 403.059 388.753C395.996 389.837 388.809 389.837 381.746 388.753C375.29 387.692 371.222 368.855 371.222 368.855L414.555 358.751Z" fill="#5A6174"/>
<path d="M433.901 97.0259C422.846 98.264 409.05 94.1739 409.05 94.1739C409.05 94.1739 422.493 84.8218 420.857 84.0038C411.889 85.8738 402.627 85.8135 393.685 83.8269C392.69 83.2963 391.673 82.7878 390.656 82.3014C390.656 82.1466 390.811 82.0361 391.12 81.9697C391.43 81.9034 401.777 76.2656 399.278 74.6296C387.008 76.8405 374.516 72.5734 363.55 74.4527C359.999 74.0259 356.426 73.8118 352.849 73.8115C313.65 73.8115 281.062 99.1263 274.296 132.29C271.002 143.013 265.32 160.324 259.97 169.875C267.31 166.625 273.014 156.3 273.014 156.3C271.783 166.308 267.838 175.788 261.606 183.715C262.954 185.086 270.449 181.924 273.014 180.841V182.897C271.732 186.567 269.101 193.333 266.492 195.941C262.822 199.611 273.014 195.941 273.014 195.941V312.942C273.014 352.252 308.742 384.111 352.849 384.111C396.957 384.111 432.729 352.318 432.729 313.008V144.98C432.702 130.756 428.046 116.926 419.464 105.582H419.773C419.773 105.582 434.299 99.1263 433.901 97.0259Z" fill="#EE787A"/>
<path d="M318.957 244.668L315.553 237.35C314.993 236.199 314.729 234.926 314.785 233.647C314.841 232.368 315.215 231.123 315.874 230.026C316.532 228.928 317.455 228.012 318.557 227.36C319.659 226.709 320.906 226.343 322.185 226.295L328.376 225.986C329.64 225.92 330.9 226.167 332.046 226.705C333.191 227.243 334.187 228.056 334.943 229.07C335.7 230.085 336.194 231.27 336.383 232.522C336.572 233.773 336.449 235.052 336.026 236.245L333.24 243.938C332.736 245.389 331.811 246.657 330.582 247.579C329.354 248.501 327.878 249.035 326.344 249.113C324.81 249.192 323.288 248.811 321.972 248.019C320.656 247.227 319.606 246.06 318.957 244.668Z" fill="#FDD38B"/>
<path d="M378.21 242.59L375.999 234.808C375.672 233.59 375.649 232.312 375.931 231.083C376.213 229.855 376.791 228.714 377.616 227.761C378.44 226.808 379.486 226.071 380.661 225.615C381.836 225.159 383.104 224.998 384.356 225.146L390.502 225.898C391.76 226.045 392.963 226.501 394.003 227.224C395.042 227.948 395.887 228.917 396.463 230.046C397.038 231.174 397.326 232.427 397.3 233.694C397.275 234.961 396.937 236.201 396.317 237.306L392.337 244.359C391.587 245.688 390.459 246.765 389.095 247.451C387.732 248.137 386.195 248.403 384.68 248.213C383.166 248.023 381.741 247.387 380.589 246.386C379.437 245.385 378.609 244.063 378.21 242.59Z" fill="#FDD38B"/>
<path d="M275.447 235.116C275.447 235.116 302.708 225.742 354.045 225.742C405.382 225.742 431.868 235.116 431.868 235.116" stroke="#B55A5B" stroke-width="3.34178" stroke-linecap="round" stroke-linejoin="round"/>
<path d="M353.646 207.637C376.137 207.637 394.37 189.404 394.37 166.912C394.37 144.421 376.137 126.188 353.646 126.188C331.154 126.188 312.921 144.421 312.921 166.912C312.921 189.404 331.154 207.637 353.646 207.637Z" fill="#EEEAE5"/>
<path d="M353.646 189.088C365.893 189.088 375.821 179.16 375.821 166.913C375.821 154.666 365.893 144.737 353.646 144.737C341.399 144.737 331.471 154.666 331.471 166.913C331.471 179.16 341.399 189.088 353.646 189.088Z" fill="#5A6174"/>
<mask id="mask2_1362_47285" style="mask-type:alpha" maskUnits="userSpaceOnUse" x="232" y="62" width="244" height="328">
<path d="M475.157 73.2802C475.157 73.2802 457.823 79.2496 453.048 86.1255C448.272 93.0014 448.98 120.041 440.203 127.735C434.485 132.376 427.171 134.584 419.84 133.881L398.395 97.3789C398.395 97.3789 413.539 101.602 420.128 95.168C426.716 88.7343 433.017 71.3788 443.209 66.4264C453.402 61.474 475.157 73.2802 475.157 73.2802Z" fill="#5A6174" stroke="#5A6174" stroke-width="1.33671" stroke-linecap="round" stroke-linejoin="round"/>
<path d="M440.468 127.999L418.47 95.4102" stroke="#6EC6D8" stroke-width="2.00507" stroke-miterlimit="10" stroke-linecap="round"/>
<path d="M448.603 105.183L429.059 82.3662" stroke="#6EC6D8" stroke-width="2.00507" stroke-miterlimit="10" stroke-linecap="round"/>
<path d="M455.127 83.1856L440.469 68.5273" stroke="#6EC6D8" stroke-width="2.00507" stroke-miterlimit="10" stroke-linecap="round"/>
<path d="M233.02 70.8262C233.02 70.8262 250.353 76.7956 255.128 83.6715C259.904 90.5474 259.197 117.609 267.974 125.281C273.692 129.924 281.003 132.139 288.336 131.449L309.782 94.9249C309.782 94.9249 294.637 99.1477 288.027 92.714C281.416 86.2803 275.159 68.969 264.967 63.9724C254.775 58.9758 233.02 70.8262 233.02 70.8262Z" fill="#5A6174" stroke="#5A6174" stroke-width="1.33671" stroke-linecap="round" stroke-linejoin="round"/>
<path d="M267.708 125.546L289.706 92.957" stroke="#6EC6D8" stroke-width="2.00507" stroke-miterlimit="10" stroke-linecap="round"/>
<path d="M259.573 102.729L279.118 79.9346" stroke="#6EC6D8" stroke-width="2.00507" stroke-miterlimit="10" stroke-linecap="round"/>
<path d="M253.051 80.7295L267.709 66.0713" stroke="#6EC6D8" stroke-width="2.00507" stroke-miterlimit="10" stroke-linecap="round"/>
<path d="M292.403 358.75C290.667 363.687 289.777 368.882 289.772 374.116C289.772 382.805 298.417 387.691 303.9 388.752C310.963 389.836 318.15 389.836 325.213 388.752C331.669 387.691 335.737 368.854 335.737 368.854L292.403 358.75Z" fill="#5A6174"/>
<path d="M414.555 358.751C416.292 363.688 417.182 368.883 417.186 374.117C417.186 382.806 408.542 387.692 403.059 388.753C395.996 389.837 388.809 389.837 381.746 388.753C375.29 387.692 371.222 368.855 371.222 368.855L414.555 358.751Z" fill="#5A6174"/>
<path d="M433.901 97.025C422.846 98.2631 409.05 94.1729 409.05 94.1729C409.05 94.1729 422.493 84.8208 420.857 84.0028C411.889 85.8729 402.627 85.8126 393.685 83.8259C392.69 83.2953 391.673 82.7868 390.656 82.3004C390.656 82.1456 390.811 82.0351 391.12 81.9688C391.43 81.9024 401.777 76.2646 399.278 74.6286C387.008 76.8395 374.516 72.5724 363.55 74.4517C359.999 74.0249 356.426 73.8108 352.849 73.8105C313.65 73.8105 281.062 99.1253 274.296 132.289C271.002 143.012 265.32 160.323 259.97 169.874C267.31 166.624 273.014 156.299 273.014 156.299C271.783 166.307 267.838 175.787 261.606 183.714C262.954 185.085 270.449 181.923 273.014 180.84V182.896C271.732 186.566 269.101 193.332 266.492 195.94C262.822 199.611 273.014 195.94 273.014 195.94V312.941C273.014 352.251 308.742 384.11 352.849 384.11C396.957 384.11 432.729 352.317 432.729 313.007V144.979C432.702 130.755 428.046 116.925 419.464 105.581H419.773C419.773 105.581 434.299 99.1253 433.901 97.025Z" fill="#EE787A"/>
<path d="M318.957 244.669L315.553 237.351C314.993 236.2 314.729 234.927 314.785 233.648C314.841 232.369 315.215 231.124 315.874 230.027C316.532 228.929 317.455 228.013 318.557 227.361C319.659 226.71 320.906 226.344 322.185 226.296L328.376 225.987C329.64 225.921 330.9 226.168 332.046 226.706C333.191 227.244 334.187 228.057 334.943 229.071C335.7 230.086 336.194 231.271 336.383 232.523C336.572 233.774 336.449 235.053 336.026 236.245L333.24 243.939C332.736 245.39 331.811 246.658 330.582 247.58C329.354 248.502 327.878 249.036 326.344 249.114C324.81 249.193 323.288 248.812 321.972 248.02C320.656 247.228 319.606 246.061 318.957 244.669Z" fill="#FDD38B"/>
<path d="M378.21 242.591L375.999 234.809C375.672 233.591 375.649 232.313 375.931 231.084C376.213 229.856 376.791 228.715 377.616 227.762C378.44 226.809 379.486 226.072 380.661 225.616C381.836 225.16 383.104 224.999 384.356 225.147L390.502 225.899C391.76 226.046 392.963 226.502 394.003 227.225C395.042 227.949 395.888 228.918 396.463 230.047C397.038 231.175 397.326 232.428 397.3 233.695C397.275 234.962 396.937 236.202 396.317 237.307L392.337 244.36C391.587 245.689 390.459 246.766 389.095 247.452C387.732 248.138 386.195 248.403 384.68 248.214C383.166 248.024 381.741 247.388 380.589 246.387C379.437 245.386 378.609 244.064 378.21 242.591Z" fill="#FDD38B"/>
<path d="M275.447 235.117C275.447 235.117 302.708 225.743 354.045 225.743C405.382 225.743 431.868 235.117 431.868 235.117" stroke="#B55A5B" stroke-width="3.34178" stroke-linecap="round" stroke-linejoin="round"/>
<path d="M353.646 207.638C376.137 207.638 394.37 189.405 394.37 166.913C394.37 144.422 376.137 126.188 353.646 126.188C331.154 126.188 312.921 144.422 312.921 166.913C312.921 189.405 331.154 207.638 353.646 207.638Z" fill="#EEEAE5"/>
<path d="M353.646 189.088C365.893 189.088 375.821 179.16 375.821 166.913C375.821 154.666 365.893 144.737 353.646 144.737C341.399 144.737 331.471 154.666 331.471 166.913C331.471 179.16 341.399 189.088 353.646 189.088Z" fill="#5A6174"/>
</mask>
<g mask="url(#mask2_1362_47285)">
<path opacity="0.15" d="M578.649 428.55H366.608C366.608 428.55 346.505 302.788 346.505 183.803C346.505 64.8177 366.608 -13.6289 366.608 -13.6289H578.649V428.55Z" fill="black"/>
</g>
<g clip-path="url(#clip2_1362_47285)">
<path d="M852.913 5.00749C852.913 5.00749 835.561 21.2765 833.686 31.8936C831.811 42.5107 846.891 74.1507 840.579 87.9899C836.26 96.5184 828.769 103.014 819.715 106.081L774.816 74.3884C774.816 74.3884 794.994 71.3512 799.405 60.2587C803.815 49.1662 802.046 25.2645 811.422 13.9607C820.797 2.65693 852.913 5.00749 852.913 5.00749Z" fill="#5E5C64" stroke="#5E5C64" stroke-width="2.00507" stroke-linecap="round" stroke-linejoin="round"/>
<path d="M840.898 88.2016L797.558 61.2891" stroke="#EE787A" stroke-width="2.00507" stroke-miterlimit="10" stroke-linecap="round"/>
<path d="M838.44 56.879L803.182 40.2402" stroke="#EE787A" stroke-width="2.00507" stroke-miterlimit="10" stroke-linecap="round"/>
<path d="M834.48 27.3791L809.337 17.792" stroke="#EE787A" stroke-width="2.00507" stroke-miterlimit="10" stroke-linecap="round"/>
<path d="M630.51 5.00749C630.51 5.00749 647.835 21.2765 649.737 31.8936C651.638 42.5107 636.531 74.1507 642.844 87.9899C647.157 96.5132 654.637 103.008 663.682 106.081L708.58 74.3884C708.58 74.3884 688.402 71.3512 683.991 60.2587C679.581 49.1662 681.35 25.2645 671.975 13.9607C662.599 2.65693 630.51 5.00749 630.51 5.00749Z" fill="#5E5C64" stroke="#5E5C64" stroke-width="2.00507" stroke-linecap="round" stroke-linejoin="round"/>
<path d="M642.421 88.2016L685.761 61.2891" stroke="#EE787A" stroke-width="2.00507" stroke-miterlimit="10" stroke-linecap="round"/>
<path d="M644.879 56.879L680.137 40.2402" stroke="#EE787A" stroke-width="2.00507" stroke-miterlimit="10" stroke-linecap="round"/>
<path d="M648.84 27.3791L673.983 17.792" stroke="#EE787A" stroke-width="2.00507" stroke-miterlimit="10" stroke-linecap="round"/>
<path d="M896.861 302.868L866.198 164.027C863.557 151.719 833.66 65.647 743.626 62.4777C653.592 59.3085 619.945 141.683 617.093 154.493L586.43 293.334C583.604 306.143 590.999 319.005 602.963 322.042C604.648 322.459 606.377 322.672 608.113 322.676C613.289 322.534 618.26 320.621 622.197 317.256C626.133 313.892 628.797 309.279 629.744 304.188L633.494 287.233C634.63 303.607 641.919 385.507 674.879 389.31C688.085 389.31 708.157 371.985 720.2 360.258C727.804 362.206 735.619 363.208 743.468 363.243C747.585 363.227 751.697 362.935 755.775 362.371C766.102 372.935 791.06 396.705 806.457 396.705C843.063 392.453 848.001 291.775 848.001 291.775L847.473 292.145L848.345 290.217L853.627 313.696C854.574 318.787 857.237 323.4 861.174 326.764C865.11 330.129 870.081 332.041 875.257 332.184C877.037 332.191 878.812 331.978 880.539 331.55C892.292 328.539 899.687 315.677 896.861 302.868Z" fill="#7B8589"/>
<path d="M740.668 361.263C799.684 361.263 847.526 314.308 847.526 256.386C847.526 198.464 799.684 151.509 740.668 151.509C681.652 151.509 633.811 198.464 633.811 256.386C633.811 314.308 681.652 361.263 740.668 361.263Z" fill="#5A6174" stroke="#5A6174" stroke-width="2.00507" stroke-miterlimit="10"/>
<path d="M699.996 138.433C705.51 138.433 709.979 133.964 709.979 128.45C709.979 122.936 705.51 118.467 699.996 118.467C694.482 118.467 690.013 122.936 690.013 128.45C690.013 133.964 694.482 138.433 699.996 138.433Z" fill="#EEEAE5"/>
<path d="M699.997 133.891C703.002 133.891 705.438 131.455 705.438 128.45C705.438 125.446 703.002 123.01 699.997 123.01C696.992 123.01 694.557 125.446 694.557 128.45C694.557 131.455 696.992 133.891 699.997 133.891Z" fill="#5A6174"/>
<path d="M775.187 135.449C780.701 135.449 785.171 130.979 785.171 125.466C785.171 119.952 780.701 115.482 775.187 115.482C769.674 115.482 765.204 119.952 765.204 125.466C765.204 130.979 769.674 135.449 775.187 135.449Z" fill="#EEEAE5"/>
<path d="M775.188 130.907C778.192 130.907 780.628 128.471 780.628 125.466C780.628 122.461 778.192 120.025 775.188 120.025C772.183 120.025 769.747 122.461 769.747 125.466C769.747 128.471 772.183 130.907 775.188 130.907Z" fill="#5A6174"/>
<path d="M674.537 193.423L666.614 190.121C665.934 189.845 665.333 189.405 664.865 188.839C664.397 188.273 664.077 187.601 663.933 186.881C663.789 186.161 663.826 185.417 664.04 184.715C664.254 184.013 664.64 183.375 665.161 182.859L669.836 178.157C670.355 177.642 670.993 177.263 671.694 177.052C672.395 176.842 673.137 176.806 673.854 176.95C674.571 177.093 675.243 177.411 675.808 177.875C676.374 178.339 676.817 178.935 677.099 179.61L680.4 187.533C680.776 188.355 680.893 189.272 680.734 190.161C680.575 191.051 680.148 191.87 679.51 192.511C678.873 193.151 678.055 193.581 677.166 193.744C676.277 193.907 675.36 193.795 674.537 193.423Z" fill="#EEEAE5"/>
<path d="M694.107 181.3L685.392 174.619C684.653 174.055 684.065 173.319 683.679 172.474C683.293 171.629 683.121 170.702 683.179 169.776C683.236 168.849 683.521 167.95 684.009 167.16C684.496 166.369 685.17 165.711 685.973 165.243L693.262 161.017C694.072 160.523 694.992 160.241 695.94 160.197C696.887 160.152 697.83 160.347 698.682 160.762C699.535 161.178 700.269 161.801 700.817 162.575C701.365 163.349 701.71 164.248 701.819 165.19L703.245 176.071C703.412 177.196 703.236 178.345 702.739 179.368C702.243 180.392 701.449 181.241 700.462 181.806C699.475 182.371 698.34 182.625 697.206 182.535C696.073 182.444 694.993 182.014 694.107 181.3Z" fill="#EEEAE5"/>
<path d="M719.224 172.294L712.621 161.73C712.065 160.83 711.739 159.806 711.672 158.749C711.605 157.693 711.8 156.637 712.238 155.673C712.677 154.71 713.346 153.869 714.187 153.226C715.027 152.583 716.013 152.156 717.058 151.985L726.486 150.426C727.544 150.244 728.63 150.329 729.646 150.674C730.662 151.018 731.577 151.61 732.306 152.397C733.035 153.184 733.556 154.141 733.822 155.18C734.088 156.22 734.09 157.309 733.829 158.35L730.871 170.366C730.562 171.58 729.907 172.678 728.984 173.525C728.062 174.373 726.913 174.933 725.677 175.137C724.442 175.342 723.173 175.182 722.027 174.677C720.881 174.172 719.907 173.344 719.224 172.294Z" fill="#EEEAE5"/>
<path d="M806.748 193.423L814.672 190.121C815.352 189.845 815.952 189.405 816.42 188.839C816.888 188.273 817.209 187.601 817.352 186.881C817.496 186.161 817.46 185.417 817.245 184.715C817.031 184.013 816.646 183.375 816.124 182.859L811.449 178.157C810.93 177.642 810.292 177.263 809.591 177.052C808.89 176.842 808.149 176.806 807.431 176.95C806.714 177.093 806.043 177.411 805.477 177.875C804.911 178.339 804.468 178.935 804.187 179.61L800.885 187.533C800.509 188.355 800.393 189.272 800.552 190.161C800.711 191.051 801.137 191.87 801.775 192.511C802.412 193.151 803.23 193.581 804.119 193.744C805.008 193.907 805.925 193.795 806.748 193.423Z" fill="#EEEAE5"/>
<path d="M787.178 181.3L795.894 174.618C796.631 174.053 797.217 173.314 797.601 172.468C797.985 171.622 798.154 170.695 798.094 169.768C798.034 168.841 797.747 167.943 797.257 167.153C796.767 166.364 796.09 165.708 795.286 165.242L787.997 161.016C787.191 160.552 786.283 160.294 785.354 160.265C784.424 160.236 783.502 160.437 782.669 160.85C781.835 161.263 781.117 161.875 780.577 162.632C780.036 163.389 779.691 164.267 779.572 165.189L778.146 176.071C778 177.177 778.186 178.303 778.679 179.304C779.173 180.306 779.952 181.139 780.918 181.698C781.884 182.257 782.994 182.518 784.108 182.447C785.223 182.376 786.291 181.977 787.178 181.3Z" fill="#EEEAE5"/>
<path d="M761.771 172.479L768.665 161.915C769.255 161.034 769.618 160.022 769.722 158.967C769.825 157.912 769.666 156.848 769.258 155.869C768.85 154.891 768.206 154.029 767.383 153.36C766.561 152.692 765.585 152.237 764.544 152.037L755.142 150.215C754.102 150.011 753.027 150.067 752.013 150.378C751 150.689 750.079 151.246 749.332 151.998C748.584 152.75 748.035 153.675 747.731 154.691C747.427 155.707 747.378 156.782 747.589 157.821L750.071 170.076C750.304 171.337 750.908 172.5 751.806 173.417C752.704 174.333 753.855 174.96 755.112 175.218C756.368 175.476 757.673 175.354 758.86 174.866C760.046 174.378 761.06 173.547 761.771 172.479Z" fill="#EEEAE5"/>
<path d="M651.851 202.005C651.05 202.01 650.267 201.771 649.606 201.319C648.749 200.721 648.16 199.81 647.968 198.783C647.775 197.755 647.994 196.693 648.576 195.825C658.857 180.956 672.586 168.798 688.588 160.39C704.591 151.982 722.391 147.574 740.468 147.543C758.545 147.512 776.361 151.859 792.392 160.212C808.424 168.564 822.194 180.675 832.527 195.508C833.083 196.374 833.28 197.422 833.077 198.431C832.874 199.439 832.287 200.329 831.439 200.913C830.592 201.496 829.551 201.727 828.536 201.556C827.521 201.385 826.613 200.827 826.003 199.998C816.401 186.226 803.608 174.982 788.716 167.227C773.825 159.472 757.278 155.436 740.489 155.465C723.699 155.494 707.166 159.585 692.301 167.391C677.436 175.196 664.681 186.483 655.126 200.289C654.759 200.818 654.27 201.25 653.699 201.549C653.129 201.848 652.495 202.005 651.851 202.005Z" fill="#7CC7C3"/>
<mask id="mask3_1362_47285" style="mask-type:alpha" maskUnits="userSpaceOnUse" x="585" y="3" width="313" height="394">
<path d="M852.913 5.00749C852.913 5.00749 835.561 21.2765 833.686 31.8936C831.811 42.5107 846.891 74.1507 840.579 87.9899C836.26 96.5184 828.769 103.014 819.715 106.081L774.816 74.3884C774.816 74.3884 794.994 71.3512 799.405 60.2587C803.815 49.1662 802.046 25.2645 811.422 13.9607C820.797 2.65693 852.913 5.00749 852.913 5.00749Z" fill="#E9C17B" stroke="#E9C17B" stroke-width="2.00507" stroke-linecap="round" stroke-linejoin="round"/>
<path d="M840.898 88.2016L797.558 61.2891" stroke="#F39B99" stroke-width="2.00507" stroke-miterlimit="10" stroke-linecap="round"/>
<path d="M838.44 56.879L803.182 40.2402" stroke="#F39B99" stroke-width="2.00507" stroke-miterlimit="10" stroke-linecap="round"/>
<path d="M834.48 27.3791L809.337 17.792" stroke="#F39B99" stroke-width="2.00507" stroke-miterlimit="10" stroke-linecap="round"/>
<path d="M630.51 5.00749C630.51 5.00749 647.835 21.2765 649.737 31.8936C651.638 42.5107 636.531 74.1507 642.844 87.9899C647.157 96.5132 654.637 103.008 663.682 106.081L708.58 74.3884C708.58 74.3884 688.402 71.3512 683.991 60.2587C679.581 49.1662 681.35 25.2645 671.975 13.9607C662.599 2.65693 630.51 5.00749 630.51 5.00749Z" fill="#E9C17B" stroke="#E9C17B" stroke-width="2.00507" stroke-linecap="round" stroke-linejoin="round"/>
<path d="M642.421 88.2016L685.761 61.2891" stroke="#F39B99" stroke-width="2.00507" stroke-miterlimit="10" stroke-linecap="round"/>
<path d="M644.879 56.879L680.137 40.2402" stroke="#F39B99" stroke-width="2.00507" stroke-miterlimit="10" stroke-linecap="round"/>
<path d="M648.84 27.3791L673.983 17.792" stroke="#F39B99" stroke-width="2.00507" stroke-miterlimit="10" stroke-linecap="round"/>
<path d="M896.861 302.868L866.198 164.027C863.557 151.719 833.66 65.647 743.626 62.4777C653.592 59.3085 619.945 141.683 617.093 154.493L586.43 293.334C583.604 306.143 590.999 319.005 602.963 322.042C604.648 322.459 606.377 322.672 608.113 322.676C613.289 322.534 618.26 320.621 622.197 317.256C626.133 313.892 628.797 309.279 629.744 304.188L633.494 287.233C634.63 303.607 641.919 385.507 674.879 389.31C688.085 389.31 708.157 371.985 720.2 360.258C727.804 362.206 735.619 363.208 743.468 363.243C747.585 363.227 751.697 362.935 755.775 362.371C766.102 372.935 791.06 396.705 806.457 396.705C843.063 392.453 848.001 291.775 848.001 291.775L847.473 292.145L848.345 290.217L853.627 313.696C854.574 318.787 857.237 323.4 861.174 326.764C865.11 330.129 870.081 332.041 875.257 332.184C877.037 332.191 878.812 331.978 880.539 331.55C892.292 328.539 899.687 315.677 896.861 302.868Z" fill="#91CECB"/>
<path d="M740.668 361.263C799.684 361.263 847.526 314.308 847.526 256.386C847.526 198.464 799.684 151.509 740.668 151.509C681.652 151.509 633.811 198.464 633.811 256.386C633.811 314.308 681.652 361.263 740.668 361.263Z" fill="#5A6174" stroke="#5A6174" stroke-width="2.00507" stroke-miterlimit="10"/>
<path d="M699.996 138.433C705.51 138.433 709.979 133.964 709.979 128.45C709.979 122.936 705.51 118.467 699.996 118.467C694.482 118.467 690.013 122.936 690.013 128.45C690.013 133.964 694.482 138.433 699.996 138.433Z" fill="#EEEAE5"/>
<path d="M699.997 133.891C703.002 133.891 705.438 131.455 705.438 128.45C705.438 125.446 703.002 123.01 699.997 123.01C696.992 123.01 694.557 125.446 694.557 128.45C694.557 131.455 696.992 133.891 699.997 133.891Z" fill="#5A6174"/>
<path d="M775.187 135.449C780.701 135.449 785.171 130.979 785.171 125.466C785.171 119.952 780.701 115.482 775.187 115.482C769.674 115.482 765.204 119.952 765.204 125.466C765.204 130.979 769.674 135.449 775.187 135.449Z" fill="#EEEAE5"/>
<path d="M775.188 130.907C778.192 130.907 780.628 128.471 780.628 125.466C780.628 122.461 778.192 120.025 775.188 120.025C772.183 120.025 769.747 122.461 769.747 125.466C769.747 128.471 772.183 130.907 775.188 130.907Z" fill="#5A6174"/>
<path d="M674.537 193.423L666.614 190.121C665.934 189.845 665.333 189.405 664.865 188.839C664.397 188.273 664.077 187.601 663.933 186.881C663.789 186.161 663.826 185.417 664.04 184.715C664.254 184.013 664.64 183.375 665.161 182.859L669.836 178.157C670.355 177.642 670.993 177.263 671.694 177.052C672.395 176.842 673.137 176.806 673.854 176.95C674.571 177.093 675.243 177.411 675.808 177.875C676.374 178.339 676.817 178.935 677.099 179.61L680.4 187.533C680.776 188.355 680.893 189.272 680.734 190.161C680.575 191.051 680.148 191.87 679.51 192.511C678.873 193.151 678.055 193.581 677.166 193.744C676.277 193.907 675.36 193.795 674.537 193.423Z" fill="#EEEAE5"/>
<path d="M694.107 181.3L685.392 174.619C684.653 174.055 684.065 173.319 683.679 172.474C683.293 171.629 683.121 170.702 683.179 169.776C683.236 168.849 683.521 167.95 684.009 167.16C684.496 166.369 685.17 165.711 685.973 165.243L693.262 161.017C694.072 160.523 694.992 160.241 695.94 160.197C696.887 160.152 697.83 160.347 698.682 160.762C699.535 161.178 700.269 161.801 700.817 162.575C701.365 163.349 701.71 164.248 701.819 165.19L703.245 176.071C703.412 177.196 703.236 178.345 702.739 179.368C702.243 180.392 701.449 181.241 700.462 181.806C699.475 182.371 698.34 182.625 697.206 182.535C696.073 182.444 694.993 182.014 694.107 181.3Z" fill="#EEEAE5"/>
<path d="M719.224 172.294L712.621 161.73C712.065 160.83 711.739 159.806 711.672 158.749C711.605 157.693 711.8 156.637 712.238 155.673C712.677 154.71 713.346 153.869 714.187 153.226C715.027 152.583 716.013 152.156 717.058 151.985L726.486 150.426C727.544 150.244 728.63 150.329 729.646 150.674C730.662 151.018 731.577 151.61 732.306 152.397C733.035 153.184 733.556 154.141 733.822 155.18C734.088 156.22 734.09 157.309 733.829 158.35L730.871 170.366C730.562 171.58 729.907 172.678 728.984 173.525C728.062 174.373 726.913 174.933 725.677 175.137C724.442 175.342 723.173 175.182 722.027 174.677C720.881 174.172 719.907 173.344 719.224 172.294Z" fill="#EEEAE5"/>
<path d="M806.748 193.423L814.672 190.121C815.352 189.845 815.952 189.405 816.42 188.839C816.888 188.273 817.209 187.601 817.352 186.881C817.496 186.161 817.46 185.417 817.245 184.715C817.031 184.013 816.646 183.375 816.124 182.859L811.449 178.157C810.93 177.642 810.292 177.263 809.591 177.052C808.89 176.842 808.149 176.806 807.431 176.95C806.714 177.093 806.043 177.411 805.477 177.875C804.911 178.339 804.468 178.935 804.187 179.61L800.885 187.533C800.509 188.355 800.393 189.272 800.552 190.161C800.711 191.051 801.137 191.87 801.775 192.511C802.412 193.151 803.23 193.581 804.119 193.744C805.008 193.907 805.925 193.795 806.748 193.423Z" fill="#EEEAE5"/>
<path d="M787.178 181.3L795.894 174.618C796.631 174.053 797.217 173.314 797.601 172.468C797.985 171.622 798.154 170.695 798.094 169.768C798.034 168.841 797.747 167.943 797.257 167.153C796.767 166.364 796.09 165.708 795.286 165.242L787.997 161.016C787.191 160.552 786.283 160.294 785.354 160.265C784.424 160.236 783.502 160.437 782.669 160.85C781.835 161.263 781.117 161.875 780.577 162.632C780.036 163.389 779.691 164.267 779.572 165.189L778.146 176.071C778 177.177 778.186 178.303 778.679 179.304C779.173 180.306 779.952 181.139 780.918 181.698C781.884 182.257 782.994 182.518 784.108 182.447C785.223 182.376 786.291 181.977 787.178 181.3Z" fill="#EEEAE5"/>
<path d="M761.771 172.479L768.665 161.915C769.255 161.034 769.618 160.022 769.722 158.967C769.825 157.912 769.666 156.848 769.258 155.869C768.85 154.891 768.206 154.029 767.383 153.36C766.561 152.692 765.585 152.237 764.544 152.037L755.142 150.215C754.102 150.011 753.027 150.067 752.013 150.378C751 150.689 750.079 151.246 749.332 151.998C748.584 152.75 748.035 153.675 747.731 154.691C747.427 155.707 747.378 156.782 747.589 157.821L750.071 170.076C750.304 171.337 750.908 172.5 751.806 173.417C752.704 174.333 753.855 174.96 755.112 175.218C756.368 175.476 757.673 175.354 758.86 174.866C760.046 174.378 761.06 173.547 761.771 172.479Z" fill="#EEEAE5"/>
<path d="M651.851 202.004C651.05 202.009 650.267 201.77 649.606 201.318C648.749 200.72 648.16 199.809 647.968 198.782C647.775 197.754 647.994 196.692 648.576 195.824C658.857 180.955 672.586 168.797 688.588 160.389C704.591 151.981 722.391 147.573 740.468 147.542C758.545 147.511 776.361 151.858 792.393 160.211C808.424 168.563 822.194 180.674 832.527 195.507C833.083 196.373 833.28 197.421 833.077 198.43C832.874 199.438 832.287 200.328 831.439 200.912C830.592 201.495 829.551 201.726 828.536 201.555C827.522 201.384 826.613 200.826 826.003 199.997C816.401 186.225 803.608 174.981 788.716 167.226C773.825 159.471 757.278 155.436 740.489 155.464C723.699 155.493 707.166 159.584 692.301 167.39C677.436 175.195 664.681 186.483 655.126 200.288C654.759 200.817 654.27 201.249 653.699 201.548C653.129 201.847 652.495 202.004 651.851 202.004Z" fill="#7CC7C3"/>
</mask>
<g mask="url(#mask3_1362_47285)">
<path opacity="0.15" d="M1154.44 512.246H746.61C746.61 512.246 707.944 354.78 707.944 205.799C707.944 56.8184 746.61 -41.4043 746.61 -41.4043H1154.44V512.246Z" fill="black"/>
</g>
</g>
<path d="M473.257 143.767C473.257 143.767 467.971 140.032 463.808 126.399C461.012 100.787 477.053 97.3789 477.053 97.3789C477.053 97.3789 482.767 112.012 486.91 117.787C491.053 123.563 498.726 122.338 498.726 122.338L473.257 143.767Z" fill="#F2A374"/>
<path d="M602.564 139.44C602.564 139.44 607.829 135.725 611.992 122.072C614.788 96.4599 598.727 93.0518 598.727 93.0518C598.727 93.0518 593.033 107.684 588.89 113.46C584.747 119.236 577.013 118.113 577.013 118.113L602.564 139.44Z" fill="#F2A374"/>
<path d="M533.237 380.196C456.808 369.176 421.624 369.176 409.971 290.237C405.481 232.441 425.583 200.604 443.114 172.195C460.645 143.787 509.91 116.338 514.543 112.073C519.176 107.807 511.788 99.0114 513.38 99.093C514.972 99.1746 527.094 103.297 527.094 103.297L522.217 92.1338C522.217 92.1338 538.87 96.4808 543.625 100.522C548.38 104.562 549.747 112.236 551.441 112.542C553.135 112.848 553.482 112.787 554.237 111.746C554.992 110.705 551.645 98.4604 553.319 97.4603C557.053 96.7052 575.89 114.318 575.89 114.318L577.033 107.399L581.115 114.093C598.377 130.505 613.857 148.695 627.299 168.359C649.748 201.991 667.421 244.461 666.074 275.114C666.074 341.278 609.666 391.197 533.237 380.196Z" fill="#7D8BA8" stroke="#7D8BA8" stroke-width="0.668356" stroke-linecap="round" stroke-linejoin="round"/>
<path d="M462.991 337.38C459.944 345.992 458.385 355.061 458.379 364.196C458.379 379.319 473.461 387.829 483.032 389.707C495.355 391.586 507.893 391.586 520.216 389.707C531.461 387.829 538.583 355.115 538.583 355.115L462.991 337.38Z" fill="#5A6174"/>
<path d="M610.441 344.481C612.36 353.406 612.739 362.593 611.563 371.645C609.522 386.665 593.563 393.155 583.849 393.788C571.385 394.07 558.951 392.46 546.971 389.012C536.053 385.706 533.236 352.277 533.236 352.277L610.441 344.481Z" fill="#5A6174"/>
<path d="M630.604 233.706C645.339 293.42 650.482 376.564 535.787 375.727C414.032 374.829 434.318 278.237 450.277 233.44C450.277 233.44 476.195 217.93 535.155 217.114C594.114 216.297 630.604 233.706 630.604 233.706Z" fill="#FCD28A"/>
<path d="M537.501 377.849H535.869C492.195 377.543 462.399 364.91 447.399 340.318C434.991 319.91 432.868 291.012 441.276 256.502C445.211 240.56 450.735 225.054 457.766 210.216C457.89 209.971 458.06 209.752 458.268 209.573C458.475 209.393 458.716 209.256 458.977 209.17C459.238 209.084 459.513 209.05 459.786 209.07C460.06 209.09 460.327 209.164 460.572 209.287C460.818 209.41 461.036 209.581 461.216 209.789C461.395 209.996 461.532 210.237 461.618 210.498C461.704 210.758 461.738 211.033 461.718 211.307C461.698 211.581 461.624 211.848 461.501 212.093C461.113 212.869 422.297 291.216 450.991 338.155C465.277 361.421 493.848 373.38 535.91 373.686C578.42 373.992 607.951 362.155 623.665 338.482C654.767 291.543 621.4 212.91 621.073 212.114C620.965 211.863 620.907 211.594 620.902 211.321C620.898 211.048 620.947 210.776 621.048 210.522C621.148 210.268 621.298 210.037 621.488 209.841C621.678 209.644 621.904 209.488 622.155 209.379C622.405 209.27 622.675 209.212 622.948 209.208C623.221 209.204 623.492 209.253 623.746 209.353C624 209.454 624.232 209.603 624.428 209.793C624.624 209.983 624.781 210.21 624.89 210.461C630.945 225.453 635.432 241.033 638.277 256.951C644.4 291.645 640.563 320.543 627.135 340.788C610.706 365.359 580.583 377.849 537.501 377.849Z" fill="#5A6174"/>
<path d="M492.074 195.522C499.005 195.522 504.625 189.903 504.625 182.971C504.625 176.039 499.005 170.42 492.074 170.42C485.142 170.42 479.522 176.039 479.522 182.971C479.522 189.903 485.142 195.522 492.074 195.522Z" fill="#EEEAE5"/>
<path d="M492.074 189.807C495.85 189.807 498.911 186.746 498.911 182.971C498.911 179.195 495.85 176.134 492.074 176.134C488.298 176.134 485.237 179.195 485.237 182.971C485.237 186.746 488.298 189.807 492.074 189.807Z" fill="#5A6174"/>
<path d="M475.011 171.195L512.236 174.073L518.563 158.216L470.521 159.583L475.011 171.195Z" fill="#5A6174"/>
<path d="M580.707 195.522C587.639 195.522 593.258 189.903 593.258 182.971C593.258 176.039 587.639 170.42 580.707 170.42C573.776 170.42 568.156 176.039 568.156 182.971C568.156 189.903 573.776 195.522 580.707 195.522Z" fill="#EEEAE5"/>
<path d="M580.707 189.807C584.483 189.807 587.544 186.746 587.544 182.971C587.544 179.195 584.483 176.134 580.707 176.134C576.931 176.134 573.87 179.195 573.87 182.971C573.87 186.746 576.931 189.807 580.707 189.807Z" fill="#5A6174"/>
<path d="M601.401 174.583L562.095 176.379L555.85 160.338L606.462 163.113L601.401 174.583Z" fill="#5A6174"/>
<path d="M522.97 198.423L527.868 205.77L533.051 198.423H522.97Z" fill="white"/>
<path d="M544.012 198.422L548.91 205.769L554.093 198.422H544.012Z" fill="white"/>
<path d="M553.319 198.135H523.809" stroke="#5A6174" stroke-width="1.33671" stroke-linecap="round" stroke-linejoin="round"/>
<mask id="mask4_1362_47285" style="mask-type:alpha" maskUnits="userSpaceOnUse" x="409" y="91" width="258" height="303">
<path d="M473.257 143.767C473.257 143.767 467.971 140.032 463.808 126.399C461.012 100.787 477.053 97.3789 477.053 97.3789C477.053 97.3789 482.767 112.012 486.91 117.787C491.053 123.563 498.726 122.338 498.726 122.338L473.257 143.767Z" fill="#F2A374"/>
<path d="M602.564 139.44C602.564 139.44 607.829 135.725 611.992 122.072C614.788 96.4599 598.727 93.0518 598.727 93.0518C598.727 93.0518 593.033 107.684 588.89 113.46C584.747 119.236 577.013 118.113 577.013 118.113L602.564 139.44Z" fill="#F2A374"/>
<path d="M533.237 380.196C456.808 369.176 421.624 369.176 409.971 290.237C405.481 232.441 425.583 200.604 443.114 172.195C460.645 143.787 509.91 116.338 514.543 112.073C519.176 107.807 511.788 99.0114 513.38 99.093C514.972 99.1746 527.094 103.297 527.094 103.297L522.217 92.1338C522.217 92.1338 538.87 96.4808 543.625 100.522C548.38 104.562 549.747 112.236 551.441 112.542C553.135 112.848 553.482 112.787 554.237 111.746C554.992 110.705 551.645 98.4604 553.319 97.4603C557.054 96.7052 575.89 114.318 575.89 114.318L577.033 107.399L581.115 114.093C598.377 130.505 613.857 148.695 627.299 168.359C649.748 201.991 667.421 244.461 666.074 275.114C666.074 341.278 609.666 391.197 533.237 380.196Z" fill="#7D8BA8" stroke="#7D8BA8" stroke-width="0.668356" stroke-linecap="round" stroke-linejoin="round"/>
<path d="M462.991 337.38C459.944 345.992 458.385 355.061 458.379 364.196C458.379 379.319 473.461 387.829 483.032 389.707C495.355 391.586 507.893 391.586 520.216 389.707C531.461 387.829 538.583 355.115 538.583 355.115L462.991 337.38Z" fill="#5A6174"/>
<path d="M610.441 344.481C612.36 353.406 612.739 362.593 611.563 371.645C609.522 386.665 593.563 393.155 583.849 393.788C571.386 394.07 558.951 392.46 546.971 389.012C536.053 385.706 533.236 352.277 533.236 352.277L610.441 344.481Z" fill="#5A6174"/>
<path d="M630.604 233.706C645.339 293.42 650.482 376.564 535.788 375.727C414.032 374.829 434.318 278.237 450.277 233.44C450.277 233.44 476.195 217.93 535.155 217.114C594.114 216.297 630.604 233.706 630.604 233.706Z" fill="#FCD28A"/>
<path d="M537.501 377.849H535.869C492.195 377.543 462.399 364.91 447.399 340.318C434.991 319.91 432.868 291.012 441.276 256.502C445.211 240.56 450.735 225.054 457.766 210.216C457.89 209.971 458.06 209.752 458.268 209.573C458.475 209.393 458.716 209.256 458.977 209.17C459.238 209.084 459.513 209.05 459.786 209.07C460.06 209.09 460.327 209.164 460.572 209.287C460.818 209.41 461.036 209.581 461.216 209.789C461.395 209.996 461.532 210.237 461.618 210.498C461.704 210.758 461.738 211.033 461.718 211.307C461.698 211.581 461.624 211.848 461.501 212.093C461.113 212.869 422.297 291.216 450.991 338.155C465.277 361.421 493.848 373.38 535.91 373.686C578.42 373.992 607.951 362.155 623.665 338.482C654.767 291.543 621.4 212.91 621.073 212.114C620.965 211.863 620.907 211.594 620.902 211.321C620.898 211.048 620.947 210.776 621.048 210.522C621.148 210.268 621.298 210.037 621.488 209.841C621.678 209.644 621.904 209.488 622.155 209.379C622.405 209.27 622.675 209.212 622.948 209.208C623.221 209.204 623.492 209.253 623.746 209.353C624 209.454 624.232 209.603 624.428 209.793C624.624 209.983 624.781 210.21 624.89 210.461C630.945 225.453 635.432 241.033 638.277 256.951C644.4 291.645 640.563 320.543 627.135 340.788C610.706 365.359 580.583 377.849 537.501 377.849Z" fill="#5A6174"/>
<path d="M492.074 195.522C499.005 195.522 504.625 189.903 504.625 182.971C504.625 176.039 499.005 170.42 492.074 170.42C485.142 170.42 479.522 176.039 479.522 182.971C479.522 189.903 485.142 195.522 492.074 195.522Z" fill="#EEEAE5"/>
<path d="M492.074 189.807C495.85 189.807 498.911 186.746 498.911 182.971C498.911 179.195 495.85 176.134 492.074 176.134C488.298 176.134 485.237 179.195 485.237 182.971C485.237 186.746 488.298 189.807 492.074 189.807Z" fill="#5A6174"/>
<path d="M475.011 171.195L512.236 174.073L518.563 158.216L470.521 159.583L475.011 171.195Z" fill="#5A6174"/>
<path d="M580.707 195.522C587.639 195.522 593.258 189.903 593.258 182.971C593.258 176.039 587.639 170.42 580.707 170.42C573.776 170.42 568.156 176.039 568.156 182.971C568.156 189.903 573.776 195.522 580.707 195.522Z" fill="#EEEAE5"/>
<path d="M580.707 189.807C584.483 189.807 587.544 186.746 587.544 182.971C587.544 179.195 584.483 176.134 580.707 176.134C576.931 176.134 573.87 179.195 573.87 182.971C573.87 186.746 576.931 189.807 580.707 189.807Z" fill="#5A6174"/>
<path d="M601.401 174.583L562.095 176.379L555.85 160.338L606.462 163.113L601.401 174.583Z" fill="#5A6174"/>
<path d="M522.971 198.422L527.869 205.769L533.052 198.422H522.971Z" fill="white"/>
<path d="M544.012 198.422L548.91 205.769L554.093 198.422H544.012Z" fill="white"/>
<path d="M553.319 198.135H523.809" stroke="#5A6174" stroke-width="1.33671" stroke-linecap="round" stroke-linejoin="round"/>
</mask>
<g mask="url(#mask4_1362_47285)">
<path opacity="0.15" d="M687.925 450.626H511.528C511.528 450.626 494.804 345.874 494.804 246.768C494.804 147.661 511.528 82.3203 511.528 82.3203H687.925V450.626Z" fill="black"/>
</g>
<g clip-path="url(#clip3_1362_47285)">
<path d="M870.304 213.089C870.304 213.089 852.553 217.611 848.408 221.07C844.263 224.529 839.871 232.058 846.493 235.698C853.116 239.338 873.93 244.357 873.93 244.357L870.304 213.089Z" fill="#7CC7C3"/>
<path d="M981.943 208.183C981.943 208.183 999.694 212.704 1003.84 216.164C1007.98 219.623 1012.35 227.152 1005.73 230.792C999.108 234.432 978.316 239.451 978.316 239.451L981.943 208.183Z" fill="#7CC7C3"/>
<path d="M870.935 335.178C856.023 342.165 859.244 373.184 859.244 379.922C859.244 386.659 866.002 390.435 870.17 391.226C875.642 392.064 881.209 392.064 886.681 391.226C891.66 390.39 897.787 367.057 897.787 367.057C897.787 367.057 885.848 328.192 870.935 335.178Z" fill="#EE787A"/>
<path d="M981.247 335.179C996.159 342.165 992.938 373.185 992.938 379.922C992.938 386.66 986.18 390.436 982.013 391.227C976.548 392.064 970.988 392.064 965.523 391.227C960.523 390.436 954.44 367.035 954.44 367.035C954.44 367.035 966.334 328.193 981.247 335.179Z" fill="#EE787A"/>
<path d="M876.724 156.114C875.634 156.13 874.555 155.885 873.576 155.402C872.597 154.919 871.746 154.21 871.093 153.334C845.323 119.013 844.872 90.9775 844.872 89.8018C844.866 87.9528 845.591 86.1769 846.887 84.8631C848.183 83.5494 849.946 82.8049 851.788 82.793C853.622 82.7929 855.382 83.5196 856.686 84.8152C857.989 86.1107 858.73 87.8703 858.748 89.7114C858.748 90.1183 859.469 114.694 882.221 144.923C883.041 145.956 883.552 147.201 883.694 148.514C883.836 149.827 883.603 151.154 883.022 152.339C882.441 153.524 881.536 154.519 880.413 155.208C879.29 155.896 877.995 156.25 876.679 156.228L876.724 156.114Z" fill="#5A6174"/>
<path d="M852.059 97.6911C862.497 97.6911 870.958 89.1983 870.958 78.722C870.958 68.2457 862.497 59.7529 852.059 59.7529C841.621 59.7529 833.159 68.2457 833.159 78.722C833.159 89.1983 841.621 97.6911 852.059 97.6911Z" fill="#EEEAE5"/>
<path d="M852.058 101.671C847.529 101.676 843.101 100.332 839.334 97.8094C835.567 95.2871 832.63 91.6997 830.895 87.5014C829.16 83.3031 828.705 78.6826 829.587 74.2245C830.469 69.7665 832.65 65.6714 835.852 62.4575C839.054 59.2436 843.134 57.0554 847.576 56.1698C852.017 55.2842 856.621 55.741 860.804 57.4824C864.987 59.2238 868.561 62.1715 871.074 65.9526C873.587 69.7336 874.926 74.1779 874.922 78.723C874.91 84.8056 872.497 90.6356 868.212 94.9367C863.927 99.2378 858.118 101.659 852.058 101.671ZM852.058 63.7557C849.108 63.7557 846.225 64.6336 843.773 66.2782C841.32 67.9228 839.409 70.2604 838.28 72.9953C837.152 75.7302 836.856 78.7396 837.432 81.643C838.007 84.5463 839.427 87.2132 841.513 89.3065C843.599 91.3997 846.256 92.8252 849.148 93.4027C852.041 93.9802 855.039 93.6838 857.764 92.551C860.489 91.4181 862.818 89.4997 864.457 87.0384C866.095 84.577 866.97 81.6832 866.97 78.723C866.97 74.7534 865.399 70.9465 862.602 68.1396C859.806 65.3326 856.013 63.7557 852.058 63.7557Z" fill="#7CC7C3"/>
<path d="M855.618 86.7708C860.345 86.7708 864.178 82.9243 864.178 78.1794C864.178 73.4344 860.345 69.5879 855.618 69.5879C850.89 69.5879 847.058 73.4344 847.058 78.1794C847.058 82.9243 850.89 86.7708 855.618 86.7708Z" fill="#5A6174"/>
<path d="M966.581 149.129C965.283 149.138 964.008 148.782 962.902 148.101C961.795 147.42 960.901 146.44 960.322 145.274C959.742 144.109 959.5 142.803 959.623 141.506C959.746 140.209 960.229 138.972 961.017 137.937C983.859 107.596 984.489 82.9517 984.489 82.703C984.489 80.8502 985.223 79.0732 986.528 77.763C987.834 76.4528 989.604 75.7168 991.45 75.7168C993.296 75.7168 995.067 76.4528 996.372 77.763C997.677 79.0732 998.411 80.8502 998.411 82.703C998.411 83.8787 997.96 111.914 972.123 146.235C971.492 147.122 970.662 147.847 969.698 148.35C968.735 148.853 967.667 149.12 966.581 149.129Z" fill="#5A6174"/>
<path d="M989.242 94.6862C999.68 94.6862 1008.14 86.1935 1008.14 75.7171C1008.14 65.2408 999.68 56.748 989.242 56.748C978.804 56.748 970.343 65.2408 970.343 75.7171C970.343 86.1935 978.804 94.6862 989.242 94.6862Z" fill="#EEEAE5"/>
<path d="M989.243 98.6651C984.722 98.6607 980.304 97.311 976.547 94.7867C972.789 92.2624 969.862 88.6768 968.135 84.4831C966.408 80.2895 965.959 75.6761 966.843 71.226C967.728 66.776 969.908 62.6891 973.106 59.482C976.305 56.2749 980.379 54.0915 984.813 53.2079C989.248 52.3242 993.844 52.78 998.02 54.5176C1002.2 56.2551 1005.77 59.1965 1008.28 62.9698C1010.79 66.7431 1012.13 71.1791 1012.13 75.7169C1012.12 81.8052 1009.71 87.6421 1005.42 91.9451C1001.13 96.2481 995.309 98.6651 989.243 98.6651ZM989.243 60.7496C986.294 60.7496 983.41 61.6274 980.958 63.272C978.506 64.9167 976.594 67.2542 975.466 69.9891C974.337 72.724 974.042 75.7335 974.617 78.6368C975.193 81.5402 976.613 84.2071 978.698 86.3003C980.784 88.3935 983.441 89.819 986.334 90.3965C989.226 90.974 992.225 90.6776 994.95 89.5448C997.675 88.412 1000 86.4936 1001.64 84.0322C1003.28 81.5709 1004.16 78.6771 1004.16 75.7169C1004.15 71.7491 1002.58 67.9456 999.781 65.14C996.986 62.3344 993.196 60.7556 989.243 60.7496Z" fill="#7CC7C3"/>
<path d="M984.872 84.7826C989.6 84.7826 993.432 80.936 993.432 76.1911C993.432 71.4461 989.6 67.5996 984.872 67.5996C980.145 67.5996 976.312 71.4461 976.312 76.1911C976.312 80.936 980.145 84.7826 984.872 84.7826Z" fill="#5A6174"/>
<path d="M925.855 379.086C918.543 379.086 911.303 377.641 904.548 374.832C897.794 372.023 891.656 367.906 886.487 362.715C881.318 357.525 877.219 351.364 874.423 344.583C871.627 337.802 870.189 330.535 870.192 323.197C870.192 323.197 866.881 311.892 867.354 250.599C867.827 189.305 870.192 166.176 870.192 166.176C870.043 158.743 871.373 151.356 874.104 144.445C876.835 137.535 880.912 131.241 886.097 125.931C891.281 120.622 897.469 116.404 904.298 113.525C911.126 110.645 918.459 109.162 925.866 109.162C933.273 109.162 940.605 110.645 947.434 113.525C954.263 116.404 960.45 120.622 965.635 125.931C970.819 131.241 974.897 137.535 977.628 144.445C980.358 151.356 981.688 158.743 981.539 166.176C981.539 166.176 985.099 204.25 985.301 250.599C985.504 296.947 981.472 323.197 981.472 323.197C981.472 338.008 975.614 352.213 965.186 362.693C954.758 373.172 940.611 379.069 925.855 379.086Z" fill="#79909C"/>
<path d="M926.62 355.119C918.71 355.119 911.124 351.966 905.53 346.352C899.937 340.738 896.795 333.124 896.795 325.185V200.45C896.795 192.511 899.937 184.897 905.53 179.283C911.124 173.669 918.71 170.516 926.62 170.516C934.53 170.516 942.116 173.669 947.709 179.283C953.302 184.897 956.444 192.511 956.444 200.45V325.185C956.444 333.124 953.302 340.738 947.709 346.352C942.116 351.966 934.53 355.119 926.62 355.119Z" fill="#F2A374"/>
<path d="M900.265 214.423H952.954" stroke="#F39B99" stroke-width="3.34178" stroke-linecap="round" stroke-linejoin="round"/>
<path d="M900.264 240.875H952.953" stroke="#F39B99" stroke-width="3.34178" stroke-linecap="round" stroke-linejoin="round"/>
<path d="M900.264 267.802H952.953" stroke="#F39B99" stroke-width="3.34178" stroke-linecap="round" stroke-linejoin="round"/>
<path d="M900.264 293.759H952.953" stroke="#F39B99" stroke-width="3.34178" stroke-linecap="round" stroke-linejoin="round"/>
<path d="M901.255 319.714H953.966" stroke="#F39B99" stroke-width="3.34178" stroke-linecap="round" stroke-linejoin="round"/>
<mask id="mask5_1362_47285" style="mask-type:alpha" maskUnits="userSpaceOnUse" x="829" y="52" width="184" height="340">
<path d="M870.304 213.089C870.304 213.089 852.553 217.611 848.408 221.07C844.263 224.529 839.871 232.058 846.493 235.698C853.116 239.338 873.93 244.357 873.93 244.357L870.304 213.089Z" fill="#7CC7C3"/>
<path d="M981.943 208.183C981.943 208.183 999.694 212.704 1003.84 216.164C1007.98 219.623 1012.35 227.152 1005.73 230.792C999.108 234.432 978.316 239.451 978.316 239.451L981.943 208.183Z" fill="#7CC7C3"/>
<path d="M870.935 335.178C856.023 342.165 859.244 373.184 859.244 379.922C859.244 386.659 866.002 390.435 870.17 391.226C875.642 392.064 881.209 392.064 886.681 391.226C891.66 390.39 897.787 367.057 897.787 367.057C897.787 367.057 885.848 328.192 870.935 335.178Z" fill="#EE787A"/>
<path d="M981.247 335.179C996.159 342.165 992.938 373.185 992.938 379.922C992.938 386.66 986.18 390.436 982.013 391.227C976.548 392.064 970.988 392.064 965.523 391.227C960.523 390.436 954.44 367.035 954.44 367.035C954.44 367.035 966.334 328.193 981.247 335.179Z" fill="#EE787A"/>
<path d="M876.724 156.114C875.634 156.13 874.555 155.885 873.576 155.402C872.597 154.919 871.746 154.21 871.093 153.334C845.323 119.013 844.872 90.9775 844.872 89.8018C844.866 87.9528 845.591 86.1769 846.887 84.8631C848.183 83.5494 849.946 82.8049 851.788 82.793C853.622 82.7929 855.382 83.5196 856.686 84.8152C857.989 86.1107 858.73 87.8703 858.748 89.7114C858.748 90.1183 859.469 114.694 882.221 144.923C883.041 145.956 883.552 147.201 883.694 148.514C883.836 149.827 883.603 151.154 883.022 152.339C882.441 153.524 881.536 154.519 880.413 155.208C879.29 155.896 877.995 156.25 876.679 156.228L876.724 156.114Z" fill="#5A6174"/>
<path d="M852.059 97.6911C862.497 97.6911 870.958 89.1983 870.958 78.722C870.958 68.2457 862.497 59.7529 852.059 59.7529C841.621 59.7529 833.159 68.2457 833.159 78.722C833.159 89.1983 841.621 97.6911 852.059 97.6911Z" fill="#EEEAE5"/>
<path d="M852.058 101.671C847.529 101.676 843.101 100.332 839.334 97.8094C835.567 95.2871 832.63 91.6997 830.895 87.5014C829.16 83.3031 828.705 78.6826 829.587 74.2245C830.469 69.7665 832.65 65.6714 835.852 62.4575C839.054 59.2436 843.134 57.0554 847.576 56.1698C852.017 55.2842 856.621 55.741 860.804 57.4824C864.987 59.2238 868.561 62.1715 871.074 65.9526C873.587 69.7336 874.926 74.1779 874.922 78.723C874.91 84.8056 872.497 90.6356 868.212 94.9367C863.927 99.2378 858.118 101.659 852.058 101.671ZM852.058 63.7557C849.108 63.7557 846.225 64.6336 843.773 66.2782C841.32 67.9228 839.409 70.2604 838.28 72.9953C837.152 75.7302 836.856 78.7396 837.432 81.643C838.007 84.5463 839.427 87.2132 841.513 89.3065C843.599 91.3997 846.256 92.8252 849.148 93.4027C852.041 93.9802 855.039 93.6838 857.764 92.551C860.489 91.4181 862.818 89.4997 864.457 87.0384C866.095 84.577 866.97 81.6832 866.97 78.723C866.97 74.7534 865.399 70.9465 862.602 68.1396C859.806 65.3326 856.013 63.7557 852.058 63.7557Z" fill="#7CC7C3"/>
<path d="M855.618 86.7709C860.345 86.7709 864.178 82.9243 864.178 78.1794C864.178 73.4344 860.345 69.5879 855.618 69.5879C850.89 69.5879 847.058 73.4344 847.058 78.1794C847.058 82.9243 850.89 86.7709 855.618 86.7709Z" fill="#5A6174"/>
<path d="M966.581 149.129C965.283 149.138 964.008 148.782 962.902 148.101C961.795 147.42 960.901 146.44 960.322 145.274C959.742 144.109 959.5 142.803 959.623 141.506C959.746 140.209 960.229 138.972 961.017 137.937C983.859 107.596 984.489 82.9517 984.489 82.703C984.489 80.8502 985.223 79.0732 986.528 77.763C987.834 76.4528 989.604 75.7168 991.45 75.7168C993.296 75.7168 995.067 76.4528 996.372 77.763C997.677 79.0732 998.411 80.8502 998.411 82.703C998.411 83.8787 997.96 111.914 972.123 146.235C971.492 147.122 970.662 147.847 969.698 148.35C968.735 148.853 967.667 149.12 966.581 149.129Z" fill="#5A6174"/>
<path d="M989.242 94.6862C999.68 94.6862 1008.14 86.1935 1008.14 75.7171C1008.14 65.2408 999.68 56.748 989.242 56.748C978.804 56.748 970.343 65.2408 970.343 75.7171C970.343 86.1935 978.804 94.6862 989.242 94.6862Z" fill="#EEEAE5"/>
<path d="M989.243 98.6651C984.722 98.6607 980.304 97.311 976.547 94.7867C972.789 92.2624 969.862 88.6768 968.135 84.4831C966.408 80.2895 965.959 75.6761 966.843 71.226C967.728 66.776 969.908 62.6891 973.106 59.482C976.305 56.2749 980.379 54.0915 984.813 53.2079C989.248 52.3242 993.844 52.78 998.02 54.5176C1002.2 56.2551 1005.77 59.1965 1008.28 62.9698C1010.79 66.7431 1012.13 71.1791 1012.13 75.7168C1012.12 81.8052 1009.71 87.6421 1005.42 91.9451C1001.13 96.2481 995.309 98.6651 989.243 98.6651ZM989.243 60.7496C986.294 60.7496 983.41 61.6274 980.958 63.272C978.506 64.9166 976.594 67.2542 975.466 69.9891C974.337 72.724 974.042 75.7334 974.617 78.6368C975.193 81.5402 976.613 84.2071 978.698 86.3003C980.784 88.3935 983.441 89.819 986.334 90.3965C989.226 90.974 992.225 90.6776 994.95 89.5448C997.675 88.412 1000 86.4936 1001.64 84.0322C1003.28 81.5709 1004.16 78.6771 1004.16 75.7168C1004.15 71.7491 1002.58 67.9456 999.781 65.14C996.986 62.3344 993.196 60.7556 989.243 60.7496Z" fill="#7CC7C3"/>
<path d="M984.872 84.7826C989.6 84.7826 993.432 80.936 993.432 76.1911C993.432 71.4461 989.6 67.5996 984.872 67.5996C980.145 67.5996 976.312 71.4461 976.312 76.1911C976.312 80.936 980.145 84.7826 984.872 84.7826Z" fill="#5A6174"/>
<path d="M925.855 379.086C918.543 379.086 911.303 377.641 904.548 374.832C897.794 372.023 891.656 367.905 886.487 362.715C881.318 357.525 877.219 351.364 874.423 344.583C871.627 337.802 870.189 330.535 870.192 323.197C870.192 323.197 866.881 311.892 867.354 250.599C867.827 189.305 870.192 166.176 870.192 166.176C870.043 158.743 871.373 151.356 874.104 144.445C876.835 137.535 880.912 131.241 886.097 125.931C891.281 120.622 897.469 116.404 904.298 113.525C911.126 110.645 918.459 109.162 925.866 109.162C933.273 109.162 940.605 110.645 947.434 113.525C954.263 116.404 960.45 120.622 965.635 125.931C970.819 131.241 974.897 137.535 977.628 144.445C980.358 151.356 981.688 158.743 981.539 166.176C981.539 166.176 985.099 204.25 985.301 250.599C985.504 296.947 981.472 323.197 981.472 323.197C981.472 338.008 975.614 352.213 965.186 362.693C954.758 373.172 940.611 379.068 925.855 379.086Z" fill="#79909C"/>
<path d="M926.62 355.119C918.71 355.119 911.124 351.966 905.53 346.352C899.937 340.738 896.795 333.124 896.795 325.185V200.45C896.795 192.511 899.937 184.897 905.53 179.283C911.124 173.669 918.71 170.516 926.62 170.516C934.53 170.516 942.116 173.669 947.709 179.283C953.302 184.897 956.444 192.511 956.444 200.45V325.185C956.444 333.124 953.302 340.738 947.709 346.352C942.116 351.966 934.53 355.119 926.62 355.119Z" fill="#F2A374"/>
<path d="M900.265 214.423H952.954" stroke="#F39B99" stroke-width="3.34178" stroke-linecap="round" stroke-linejoin="round"/>
<path d="M900.264 240.875H952.953" stroke="#F39B99" stroke-width="3.34178" stroke-linecap="round" stroke-linejoin="round"/>
<path d="M900.264 267.802H952.953" stroke="#F39B99" stroke-width="3.34178" stroke-linecap="round" stroke-linejoin="round"/>
<path d="M900.264 293.759H952.953" stroke="#F39B99" stroke-width="3.34178" stroke-linecap="round" stroke-linejoin="round"/>
<path d="M901.255 319.714H953.966" stroke="#F39B99" stroke-width="3.34178" stroke-linecap="round" stroke-linejoin="round"/>
</mask>
<g mask="url(#mask5_1362_47285)">
<path opacity="0.15" d="M1183.8 478.569H943.179C943.179 478.569 920.366 348.785 920.366 225.995C920.366 103.205 943.179 22.25 943.179 22.25H1183.8V478.569Z" fill="black"/>
</g>
</g>
<g clip-path="url(#clip4_1362_47285)">
<path d="M1228.83 372.115L1224.24 314.733C1224.24 288.482 1200.45 267.235 1171.03 267.235C1141.6 267.235 1117.82 288.498 1117.82 314.733L1112.52 374.961C1111.8 375.627 1111.22 376.434 1110.81 377.333C1110.41 378.231 1110.2 379.203 1110.19 380.187C1110.19 384.403 1114.02 387.824 1118.75 387.824C1123.47 387.824 1127.3 384.403 1127.3 380.187C1127.3 380.08 1127.3 379.974 1127.3 379.859H1127.34C1127.49 378.771 1128.05 377.782 1128.9 377.082C1129.75 376.383 1130.82 376.025 1131.92 376.077C1132.97 376.04 1134.01 376.376 1134.83 377.024C1135.66 377.672 1136.24 378.591 1136.46 379.621H1136.52C1136.52 379.818 1136.52 380.015 1136.52 380.212C1136.52 384.428 1140.35 387.849 1145.07 387.849C1149.8 387.849 1153.62 384.428 1153.62 380.212C1153.62 379.849 1153.59 379.487 1153.53 379.129H1153.79C1154.14 378.259 1154.73 377.509 1155.49 376.972C1156.26 376.435 1157.17 376.134 1158.1 376.107C1159.04 376.08 1159.96 376.327 1160.75 376.819C1161.55 377.311 1162.18 378.026 1162.58 378.874H1162.98C1162.89 379.319 1162.84 379.773 1162.83 380.228C1162.83 384.444 1166.66 387.865 1171.39 387.865C1176.11 387.865 1179.94 384.444 1179.94 380.228C1179.94 379.606 1179.85 378.988 1179.68 378.39H1179.99C1180.15 377.243 1180.72 376.195 1181.61 375.454C1182.5 374.712 1183.64 374.332 1184.79 374.387C1187.45 374.387 1189.61 376.315 1189.61 378.686C1189.61 379.289 1189.47 379.884 1189.2 380.425C1189.3 384.526 1193.09 387.873 1197.74 387.873C1202.39 387.873 1206.24 384.403 1206.24 380.187C1206.24 379.3 1206.07 378.422 1205.73 377.603H1206.34C1206.62 376.631 1207.21 375.779 1208.03 375.184C1208.84 374.589 1209.84 374.285 1210.85 374.322C1211.81 374.294 1212.75 374.57 1213.54 375.109C1214.34 375.648 1214.94 376.423 1215.27 377.324H1215.54C1215.48 377.69 1215.44 378.06 1215.44 378.431C1215.44 382.656 1219.27 386.069 1223.99 386.069C1228.7 386.069 1232.54 382.656 1232.54 378.431C1232.52 377.148 1232.17 375.891 1231.52 374.784C1230.87 373.678 1229.94 372.758 1228.83 372.115Z" fill="#EE787A"/>
<g style="mix-blend-mode:lighten">
<path d="M1174.01 354.372C1175.11 354.372 1176 353.479 1176 352.378C1176 351.277 1175.11 350.385 1174.01 350.385C1172.9 350.385 1172.01 351.277 1172.01 352.378C1172.01 353.479 1172.9 354.372 1174.01 354.372Z" fill="#FCD28A"/>
<path d="M1183.51 366.644C1184.61 366.644 1185.51 365.752 1185.51 364.651C1185.51 363.55 1184.61 362.657 1183.51 362.657C1182.41 362.657 1181.52 363.55 1181.52 364.651C1181.52 365.752 1182.41 366.644 1183.51 366.644Z" fill="#FCD28A"/>
<path d="M1167.84 370.556C1168.94 370.556 1169.83 369.664 1169.83 368.563C1169.83 367.462 1168.94 366.569 1167.84 366.569C1166.74 366.569 1165.84 367.462 1165.84 368.563C1165.84 369.664 1166.74 370.556 1167.84 370.556Z" fill="#FCD28A"/>
<path d="M1182.21 329.204C1183.31 329.204 1184.2 328.311 1184.2 327.21C1184.2 326.109 1183.31 325.217 1182.21 325.217C1181.11 325.217 1180.21 326.109 1180.21 327.21C1180.21 328.311 1181.11 329.204 1182.21 329.204Z" fill="#FCD28A"/>
<path d="M1185.69 341.394C1186.79 341.394 1187.68 340.502 1187.68 339.401C1187.68 338.3 1186.79 337.407 1185.69 337.407C1184.59 337.407 1183.69 338.3 1183.69 339.401C1183.69 340.502 1184.59 341.394 1185.69 341.394Z" fill="#FCD28A"/>
<path d="M1224 376.651C1225.1 376.651 1225.99 375.758 1225.99 374.657C1225.99 373.557 1225.1 372.664 1224 372.664C1222.9 372.664 1222 373.557 1222 374.657C1222 375.758 1222.9 376.651 1224 376.651Z" fill="#FCD28A"/>
<path d="M1197.01 380.574C1198.11 380.574 1199 379.681 1199 378.58C1199 377.479 1198.11 376.587 1197.01 376.587C1195.91 376.587 1195.01 377.479 1195.01 378.58C1195.01 379.681 1195.91 380.574 1197.01 380.574Z" fill="#FCD28A"/>
<path d="M1180.03 378.833C1181.13 378.833 1182.02 377.941 1182.02 376.84C1182.02 375.739 1181.13 374.847 1180.03 374.847C1178.93 374.847 1178.03 375.739 1178.03 376.84C1178.03 377.941 1178.93 378.833 1180.03 378.833Z" fill="#FCD28A"/>
<path d="M1220.08 354.454C1221.19 354.454 1222.08 353.561 1222.08 352.46C1222.08 351.359 1221.19 350.467 1220.08 350.467C1218.98 350.467 1218.09 351.359 1218.09 352.46C1218.09 353.561 1218.98 354.454 1220.08 354.454Z" fill="#FCD28A"/>
<path d="M1199.18 358.366C1200.28 358.366 1201.17 357.473 1201.17 356.372C1201.17 355.271 1200.28 354.379 1199.18 354.379C1198.08 354.379 1197.19 355.271 1197.19 356.372C1197.19 357.473 1198.08 358.366 1199.18 358.366Z" fill="#FCD28A"/>
<path d="M1212.68 370.556C1213.78 370.556 1214.67 369.664 1214.67 368.563C1214.67 367.462 1213.78 366.569 1212.68 366.569C1211.58 366.569 1210.68 367.462 1210.68 368.563C1210.68 369.664 1211.58 370.556 1212.68 370.556Z" fill="#FCD28A"/>
<path d="M1226.17 364.461C1227.27 364.461 1228.16 363.569 1228.16 362.468C1228.16 361.367 1227.27 360.475 1226.17 360.475C1225.07 360.475 1224.18 361.367 1224.18 362.468C1224.18 363.569 1225.07 364.461 1226.17 364.461Z" fill="#FCD28A"/>
<path d="M1228.35 383.616C1229.45 383.616 1230.35 382.723 1230.35 381.622C1230.35 380.521 1229.45 379.629 1228.35 379.629C1227.25 379.629 1226.36 380.521 1226.36 381.622C1226.36 382.723 1227.25 383.616 1228.35 383.616Z" fill="#FCD28A"/>
<path d="M1165.66 381.442C1166.76 381.442 1167.66 380.549 1167.66 379.448C1167.66 378.348 1166.76 377.455 1165.66 377.455C1164.56 377.455 1163.67 378.348 1163.67 379.448C1163.67 380.549 1164.56 381.442 1165.66 381.442Z" fill="#FCD28A"/>
<path d="M1216.16 332.682C1217.26 332.682 1218.15 331.79 1218.15 330.689C1218.15 329.588 1217.26 328.695 1216.16 328.695C1215.06 328.695 1214.17 329.588 1214.17 330.689C1214.17 331.79 1215.06 332.682 1216.16 332.682Z" fill="#FCD28A"/>
<path d="M1204.84 343.568C1205.94 343.568 1206.84 342.675 1206.84 341.574C1206.84 340.474 1205.94 339.581 1204.84 339.581C1203.74 339.581 1202.85 340.474 1202.85 341.574C1202.85 342.675 1203.74 343.568 1204.84 343.568Z" fill="#FCD28A"/>
<path d="M1199.18 325.282C1200.28 325.282 1201.17 324.389 1201.17 323.288C1201.17 322.187 1200.28 321.295 1199.18 321.295C1198.08 321.295 1197.19 322.187 1197.19 323.288C1197.19 324.389 1198.08 325.282 1199.18 325.282Z" fill="#FCD28A"/>
<path d="M1226.17 339.647C1227.27 339.647 1228.16 338.754 1228.16 337.654C1228.16 336.553 1227.27 335.66 1226.17 335.66C1225.07 335.66 1224.18 336.553 1224.18 337.654C1224.18 338.754 1225.07 339.647 1226.17 339.647Z" fill="#FCD28A"/>
<path d="M1169.58 337.473C1170.68 337.473 1171.58 336.581 1171.58 335.48C1171.58 334.379 1170.68 333.486 1169.58 333.486C1168.48 333.486 1167.59 334.379 1167.59 335.48C1167.59 336.581 1168.48 337.473 1169.58 337.473Z" fill="#FCD28A"/>
<path d="M1183.58 289.507C1184.68 289.507 1185.57 288.615 1185.57 287.514C1185.57 286.413 1184.68 285.521 1183.58 285.521C1182.48 285.521 1181.58 286.413 1181.58 287.514C1181.58 288.615 1182.48 289.507 1183.58 289.507Z" fill="#FCD28A"/>
<path d="M1193.09 301.772C1194.19 301.772 1195.08 300.879 1195.08 299.779C1195.08 298.678 1194.19 297.785 1193.09 297.785C1191.99 297.785 1191.09 298.678 1191.09 299.779C1191.09 300.879 1191.99 301.772 1193.09 301.772Z" fill="#FCD28A"/>
<path d="M1171.32 310.483C1172.42 310.483 1173.32 309.59 1173.32 308.49C1173.32 307.389 1172.42 306.496 1171.32 306.496C1170.22 306.496 1169.33 307.389 1169.33 308.49C1169.33 309.59 1170.22 310.483 1171.32 310.483Z" fill="#FCD28A"/>
<path d="M1165.66 278.704C1166.76 278.704 1167.66 277.811 1167.66 276.71C1167.66 275.609 1166.76 274.717 1165.66 274.717C1164.56 274.717 1163.67 275.609 1163.67 276.71C1163.67 277.811 1164.56 278.704 1165.66 278.704Z" fill="#FCD28A"/>
<path d="M1195.27 276.53C1196.37 276.53 1197.26 275.637 1197.26 274.536C1197.26 273.435 1196.37 272.543 1195.27 272.543C1194.17 272.543 1193.27 273.435 1193.27 274.536C1193.27 275.637 1194.17 276.53 1195.27 276.53Z" fill="#FCD28A"/>
<path d="M1112.12 373.173C1113.22 373.173 1114.11 372.281 1114.11 371.18C1114.11 370.079 1113.22 369.187 1112.12 369.187C1111.02 369.187 1110.13 370.079 1110.13 371.18C1110.13 372.281 1111.02 373.173 1112.12 373.173Z" fill="#FCD28A"/>
<path d="M1206.58 315.709C1207.68 315.709 1208.57 314.817 1208.57 313.716C1208.57 312.615 1207.68 311.723 1206.58 311.723C1205.48 311.723 1204.59 312.615 1204.59 313.716C1204.59 314.817 1205.48 315.709 1206.58 315.709Z" fill="#FCD28A"/>
<path d="M1189.61 313.962C1190.71 313.962 1191.6 313.07 1191.6 311.969C1191.6 310.868 1190.71 309.976 1189.61 309.976C1188.51 309.976 1187.61 310.868 1187.61 311.969C1187.61 313.07 1188.51 313.962 1189.61 313.962Z" fill="#FCD28A"/>
<path d="M1140.85 370.556C1141.95 370.556 1142.84 369.664 1142.84 368.563C1142.84 367.462 1141.95 366.569 1140.85 366.569C1139.75 366.569 1138.85 367.462 1138.85 368.563C1138.85 369.664 1139.75 370.556 1140.85 370.556Z" fill="#FCD28A"/>
<path d="M1208.76 293.502C1209.86 293.502 1210.76 292.61 1210.76 291.509C1210.76 290.408 1209.86 289.516 1208.76 289.516C1207.66 289.516 1206.77 290.408 1206.77 291.509C1206.77 292.61 1207.66 293.502 1208.76 293.502Z" fill="#FCD28A"/>
<path d="M1222.26 305.694C1223.36 305.694 1224.25 304.801 1224.25 303.7C1224.25 302.6 1223.36 301.707 1222.26 301.707C1221.16 301.707 1220.26 302.6 1220.26 303.7C1220.26 304.801 1221.16 305.694 1222.26 305.694Z" fill="#FCD28A"/>
<path d="M1146.94 380.574C1148.04 380.574 1148.94 379.681 1148.94 378.58C1148.94 377.479 1148.04 376.587 1146.94 376.587C1145.84 376.587 1144.95 377.479 1144.95 378.58C1144.95 379.681 1145.84 380.574 1146.94 380.574Z" fill="#FCD28A"/>
<path d="M1116.47 380.138C1117.57 380.138 1118.46 379.246 1118.46 378.145C1118.46 377.044 1117.57 376.151 1116.47 376.151C1115.37 376.151 1114.47 377.044 1114.47 378.145C1114.47 379.246 1115.37 380.138 1116.47 380.138Z" fill="#FCD28A"/>
<path d="M1218.34 321.37C1219.44 321.37 1220.33 320.477 1220.33 319.376C1220.33 318.275 1219.44 317.383 1218.34 317.383C1217.23 317.383 1216.34 318.275 1216.34 319.376C1216.34 320.477 1217.23 321.37 1218.34 321.37Z" fill="#FCD28A"/>
<path d="M1125.18 366.644C1126.28 366.644 1127.17 365.752 1127.17 364.651C1127.17 363.55 1126.28 362.657 1125.18 362.657C1124.08 362.657 1123.19 363.55 1123.19 364.651C1123.19 365.752 1124.08 366.644 1125.18 366.644Z" fill="#FCD28A"/>
<path d="M1143.02 282.618C1144.12 282.618 1145.01 281.725 1145.01 280.624C1145.01 279.523 1144.12 278.631 1143.02 278.631C1141.92 278.631 1141.03 279.523 1141.03 280.624C1141.03 281.725 1141.92 282.618 1143.02 282.618Z" fill="#FCD28A"/>
<path d="M1153.04 340.959C1154.14 340.959 1155.03 340.067 1155.03 338.966C1155.03 337.865 1154.14 336.973 1153.04 336.973C1151.94 336.973 1151.04 337.865 1151.04 338.966C1151.04 340.067 1151.94 340.959 1153.04 340.959Z" fill="#FCD28A"/>
<path d="M1118.65 343.568C1119.75 343.568 1120.64 342.675 1120.64 341.574C1120.64 340.474 1119.75 339.581 1118.65 339.581C1117.55 339.581 1116.66 340.474 1116.66 341.574C1116.66 342.675 1117.55 343.568 1118.65 343.568Z" fill="#FCD28A"/>
<path d="M1132.76 347.659C1133.86 347.659 1134.76 346.766 1134.76 345.665C1134.76 344.564 1133.86 343.672 1132.76 343.672C1131.66 343.672 1130.77 344.564 1130.77 345.665C1130.77 346.766 1131.66 347.659 1132.76 347.659Z" fill="#FCD28A"/>
<path d="M1146.94 355.757C1148.04 355.757 1148.94 354.865 1148.94 353.764C1148.94 352.663 1148.04 351.771 1146.94 351.771C1145.84 351.771 1144.95 352.663 1144.95 353.764C1144.95 354.865 1145.84 355.757 1146.94 355.757Z" fill="#FCD28A"/>
<path d="M1179.16 272.609C1180.26 272.609 1181.15 271.716 1181.15 270.615C1181.15 269.515 1180.26 268.622 1179.16 268.622C1178.06 268.622 1177.16 269.515 1177.16 270.615C1177.16 271.716 1178.06 272.609 1179.16 272.609Z" fill="#FCD28A"/>
<path d="M1129.09 323.543C1130.19 323.543 1131.08 322.651 1131.08 321.55C1131.08 320.449 1130.19 319.557 1129.09 319.557C1127.99 319.557 1127.1 320.449 1127.1 321.55C1127.1 322.651 1127.99 323.543 1129.09 323.543Z" fill="#FCD28A"/>
<path d="M1139.98 301.772C1141.08 301.772 1141.97 300.879 1141.97 299.779C1141.97 298.678 1141.08 297.785 1139.98 297.785C1138.88 297.785 1137.98 298.678 1137.98 299.779C1137.98 300.879 1138.88 301.772 1139.98 301.772Z" fill="#FCD28A"/>
<path d="M1145.2 316.578C1146.31 316.578 1147.2 315.685 1147.2 314.584C1147.2 313.483 1146.31 312.591 1145.2 312.591C1144.1 312.591 1143.21 313.483 1143.21 314.584C1143.21 315.685 1144.1 316.578 1145.2 316.578Z" fill="#FCD28A"/>
<path d="M1123 305.694C1124.1 305.694 1124.99 304.801 1124.99 303.7C1124.99 302.6 1124.1 301.707 1123 301.707C1121.9 301.707 1121 302.6 1121 303.7C1121 304.801 1121.9 305.694 1123 305.694Z" fill="#FCD28A"/>
<path d="M1161.74 321.37C1162.84 321.37 1163.73 320.477 1163.73 319.376C1163.73 318.275 1162.84 317.383 1161.74 317.383C1160.64 317.383 1159.75 318.275 1159.75 319.376C1159.75 320.477 1160.64 321.37 1161.74 321.37Z" fill="#FCD28A"/>
<path d="M1142.15 331.377C1143.25 331.377 1144.15 330.485 1144.15 329.384C1144.15 328.283 1143.25 327.391 1142.15 327.391C1141.05 327.391 1140.16 328.283 1140.16 329.384C1140.16 330.485 1141.05 331.377 1142.15 331.377Z" fill="#FCD28A"/>
<path d="M1159.57 299.597C1160.67 299.597 1161.56 298.705 1161.56 297.604C1161.56 296.503 1160.67 295.61 1159.57 295.61C1158.47 295.61 1157.57 296.503 1157.57 297.604C1157.57 298.705 1158.47 299.597 1159.57 299.597Z" fill="#FCD28A"/>
</g>
<path d="M1154.95 331.171C1159.51 331.171 1163.21 327.472 1163.21 322.91C1163.21 318.348 1159.51 314.649 1154.95 314.649C1150.39 314.649 1146.69 318.348 1146.69 322.91C1146.69 327.472 1150.39 331.171 1154.95 331.171Z" fill="#EEEAE5"/>
<path d="M1154.95 327.407C1157.43 327.407 1159.44 325.394 1159.44 322.911C1159.44 320.429 1157.43 318.416 1154.95 318.416C1152.46 318.416 1150.45 320.429 1150.45 322.911C1150.45 325.394 1152.46 327.407 1154.95 327.407Z" fill="#5A6174"/>
<path d="M1178.86 331.171C1183.42 331.171 1187.12 327.472 1187.12 322.91C1187.12 318.348 1183.42 314.649 1178.86 314.649C1174.3 314.649 1170.6 318.348 1170.6 322.91C1170.6 327.472 1174.3 331.171 1178.86 331.171Z" fill="#EEEAE5"/>
<path d="M1178.86 327.406C1181.34 327.406 1183.36 325.393 1183.36 322.91C1183.36 320.428 1181.34 318.415 1178.86 318.415C1176.38 318.415 1174.37 320.428 1174.37 322.91C1174.37 325.393 1176.38 327.406 1178.86 327.406Z" fill="#5A6174"/>
<mask id="mask6_1362_47285" style="mask-type:alpha" maskUnits="userSpaceOnUse" x="1110" y="267" width="123" height="121">
<path d="M1228.83 372.114L1224.24 314.732C1224.24 288.481 1200.45 267.234 1171.03 267.234C1141.6 267.234 1117.82 288.497 1117.82 314.732L1112.52 374.96C1111.8 375.626 1111.21 376.433 1110.81 377.332C1110.41 378.23 1110.2 379.202 1110.19 380.186C1110.19 384.402 1114.02 387.823 1118.75 387.823C1123.47 387.823 1127.29 384.402 1127.29 380.186C1127.29 380.079 1127.29 379.973 1127.29 379.858H1127.34C1127.49 378.77 1128.05 377.781 1128.9 377.081C1129.75 376.382 1130.82 376.024 1131.92 376.076C1132.97 376.039 1134 376.375 1134.83 377.023C1135.66 377.671 1136.24 378.59 1136.46 379.62H1136.51C1136.51 379.817 1136.51 380.014 1136.51 380.211C1136.51 384.427 1140.35 387.848 1145.07 387.848C1149.8 387.848 1153.62 384.427 1153.62 380.211C1153.62 379.848 1153.59 379.486 1153.53 379.128H1153.79C1154.14 378.258 1154.73 377.508 1155.49 376.971C1156.26 376.434 1157.17 376.133 1158.1 376.106C1159.04 376.079 1159.96 376.326 1160.75 376.818C1161.55 377.31 1162.18 378.025 1162.58 378.873H1162.98C1162.88 379.318 1162.83 379.772 1162.83 380.227C1162.83 384.443 1166.66 387.864 1171.39 387.864C1176.11 387.864 1179.94 384.443 1179.94 380.227C1179.94 379.605 1179.85 378.987 1179.68 378.389H1179.99C1180.15 377.242 1180.72 376.194 1181.61 375.453C1182.5 374.711 1183.64 374.331 1184.79 374.386C1187.45 374.386 1189.61 376.314 1189.61 378.685C1189.61 379.288 1189.47 379.883 1189.2 380.424C1189.3 384.525 1193.08 387.872 1197.74 387.872C1202.39 387.872 1206.24 384.402 1206.24 380.186C1206.24 379.299 1206.07 378.421 1205.73 377.602H1206.34C1206.62 376.63 1207.21 375.778 1208.03 375.183C1208.84 374.588 1209.84 374.284 1210.85 374.321C1211.8 374.293 1212.75 374.569 1213.54 375.108C1214.33 375.647 1214.94 376.422 1215.27 377.323H1215.54C1215.48 377.689 1215.44 378.059 1215.44 378.43C1215.44 382.655 1219.27 386.068 1223.99 386.068C1228.7 386.068 1232.54 382.655 1232.54 378.43C1232.52 377.147 1232.17 375.89 1231.52 374.783C1230.86 373.677 1229.94 372.757 1228.83 372.114Z" fill="#EE787A"/>
<path d="M1154.95 331.17C1159.51 331.17 1163.21 327.471 1163.21 322.909C1163.21 318.347 1159.51 314.648 1154.95 314.648C1150.39 314.648 1146.69 318.347 1146.69 322.909C1146.69 327.471 1150.39 331.17 1154.95 331.17Z" fill="#EEEAE5"/>
<path d="M1154.95 327.406C1157.43 327.406 1159.44 325.393 1159.44 322.91C1159.44 320.428 1157.43 318.415 1154.95 318.415C1152.47 318.415 1150.45 320.428 1150.45 322.91C1150.45 325.393 1152.47 327.406 1154.95 327.406Z" fill="#5A6174"/>
<path d="M1178.86 331.17C1183.42 331.17 1187.12 327.471 1187.12 322.909C1187.12 318.347 1183.42 314.648 1178.86 314.648C1174.3 314.648 1170.6 318.347 1170.6 322.909C1170.6 327.471 1174.3 331.17 1178.86 331.17Z" fill="#EEEAE5"/>
<path d="M1178.86 327.406C1181.34 327.406 1183.36 325.393 1183.36 322.91C1183.36 320.428 1181.34 318.415 1178.86 318.415C1176.38 318.415 1174.37 320.428 1174.37 322.91C1174.37 325.393 1176.38 327.406 1178.86 327.406Z" fill="#5A6174"/>
</mask>
<g mask="url(#mask6_1362_47285)">
<path opacity="0.15" d="M1293.35 406.183H1176.68C1176.68 406.183 1165.62 359.964 1165.62 316.235C1165.62 272.507 1176.68 243.677 1176.68 243.677H1293.35V406.183Z" fill="black"/>
</g>
</g>
<path d="M1128.36 261.482C1128.36 261.482 1149.03 259.058 1154.87 261.132C1160.72 263.206 1168.35 269.355 1162.76 275.869C1157.17 282.384 1137.05 296.157 1137.05 296.157L1128.36 261.482Z" fill="#7D8BA8"/>
<path d="M983.896 267.208C983.896 267.208 963.214 264.783 957.386 266.857C951.558 268.932 943.905 275.066 949.484 281.551C955.064 288.036 975.191 301.809 975.191 301.809L983.896 267.208Z" fill="#7D8BA8"/>
<path d="M998.822 347.175C980.214 355.486 987.911 379.498 988.671 384.844C989.43 390.19 998.559 391.942 1004.17 391.825C1011.39 391.467 1018.57 390.441 1025.61 388.758C1032.01 387.181 1037.29 367.536 1037.29 367.536C1037.29 367.536 1017.43 338.879 998.822 347.175Z" fill="#5A6174"/>
<path d="M1112.88 347.175C1131.47 355.486 1123.79 379.498 1123.01 384.844C1122.24 390.19 1113.14 391.942 1107.52 391.825C1100.29 391.467 1093.11 390.441 1086.08 388.758C1079.68 387.181 1074.39 367.536 1074.39 367.536C1074.39 367.536 1094.27 338.879 1112.88 347.175Z" fill="#5A6174"/>
<path d="M992.6 239.033C992.6 239.033 988.013 235.791 984.406 223.945C982.025 201.715 995.9 198.75 995.9 198.75C995.9 198.75 1000.85 211.457 1004.44 216.379C1008.04 221.302 1014.67 220.425 1014.67 220.425L992.6 239.033Z" fill="#F2A374"/>
<path d="M1117.07 238.025C1117.07 238.025 1121.66 234.783 1125.27 222.937C1127.69 200.707 1113.77 197.757 1113.77 197.757C1113.77 197.757 1108.82 210.464 1105.23 215.372C1101.63 220.279 1095 219.417 1095 219.417L1117.07 238.025Z" fill="#F2A374"/>
<path d="M1139.16 308.908C1139.16 347.935 1102.64 379.615 1057.36 379.688C1012.08 379.761 975.409 348.183 975.351 309.171C975.292 270.158 988.832 206.126 1057.14 206.024C1125.46 205.921 1139.08 269.866 1139.16 308.908Z" fill="#7CC7C3"/>
<path d="M1086.63 294.434C1098.26 294.434 1107.68 285.011 1107.68 273.387C1107.68 261.763 1098.26 252.34 1086.63 252.34C1075.01 252.34 1065.58 261.763 1065.58 273.387C1065.58 285.011 1075.01 294.434 1086.63 294.434Z" fill="#EEEAE5"/>
<path d="M1086.95 286.065C1094.06 286.065 1099.82 280.304 1099.82 273.197C1099.82 266.09 1094.06 260.329 1086.95 260.329C1079.85 260.329 1074.08 266.09 1074.08 273.197C1074.08 280.304 1079.85 286.065 1086.95 286.065Z" fill="#F39B99"/>
<path d="M1080.53 271.063C1082.11 271.063 1083.39 269.782 1083.39 268.201C1083.39 266.62 1082.11 265.338 1080.53 265.338C1078.94 265.338 1077.66 266.62 1077.66 268.201C1077.66 269.782 1078.94 271.063 1080.53 271.063Z" fill="#EEEAE5"/>
<path d="M1041.7 291.059C1047.46 291.059 1052.13 286.39 1052.13 280.631C1052.13 274.871 1047.46 270.202 1041.7 270.202C1035.95 270.202 1031.28 274.871 1031.28 280.631C1031.28 286.39 1035.95 291.059 1041.7 291.059Z" fill="#EEEAE5"/>
<path d="M1041.86 286.927C1045.39 286.927 1048.25 284.069 1048.25 280.544C1048.25 277.019 1045.39 274.161 1041.86 274.161C1038.34 274.161 1035.48 277.019 1035.48 280.544C1035.48 284.069 1038.34 286.927 1041.86 286.927Z" fill="#F39B99"/>
<path d="M1038.68 279.478C1039.46 279.478 1040.1 278.844 1040.1 278.061C1040.1 277.279 1039.46 276.645 1038.68 276.645C1037.9 276.645 1037.26 277.279 1037.26 278.061C1037.26 278.844 1037.9 279.478 1038.68 279.478Z" fill="#EEEAE5"/>
<path d="M1008.48 270.349C1014.44 270.349 1019.27 265.517 1019.27 259.555C1019.27 253.594 1014.44 248.762 1008.48 248.762C1002.52 248.762 997.683 253.594 997.683 259.555C997.683 265.517 1002.52 270.349 1008.48 270.349Z" fill="#EEEAE5"/>
<path d="M1008.64 266.04C1012.28 266.04 1015.22 263.091 1015.22 259.453C1015.22 255.814 1012.28 252.865 1008.64 252.865C1005 252.865 1002.05 255.814 1002.05 259.453C1002.05 263.091 1005 266.04 1008.64 266.04Z" fill="#F39B99"/>
<path d="M1005.35 258.357C1006.16 258.357 1006.81 257.703 1006.81 256.896C1006.81 256.089 1006.16 255.436 1005.35 255.436C1004.54 255.436 1003.89 256.089 1003.89 256.896C1003.89 257.703 1004.54 258.357 1005.35 258.357Z" fill="#EEEAE5"/>
<path d="M1043.75 260.125C1055.37 260.125 1064.8 250.701 1064.8 239.077C1064.8 227.453 1055.37 218.03 1043.75 218.03C1032.13 218.03 1022.7 227.453 1022.7 239.077C1022.7 250.701 1032.13 260.125 1043.75 260.125Z" fill="#EEEAE5"/>
<path d="M1044.07 251.756C1051.18 251.756 1056.94 245.995 1056.94 238.888C1056.94 231.782 1051.18 226.021 1044.07 226.021C1036.96 226.021 1031.2 231.782 1031.2 238.888C1031.2 245.995 1036.96 251.756 1044.07 251.756Z" fill="#F39B99"/>
<path d="M1037.64 236.756C1039.22 236.756 1040.51 235.474 1040.51 233.893C1040.51 232.312 1039.22 231.03 1037.64 231.03C1036.06 231.03 1034.78 232.312 1034.78 233.893C1034.78 235.474 1036.06 236.756 1037.64 236.756Z" fill="#EEEAE5"/>
<path d="M1082.09 247.476C1088.05 247.476 1092.88 242.644 1092.88 236.682C1092.88 230.721 1088.05 225.889 1082.09 225.889C1076.13 225.889 1071.3 230.721 1071.3 236.682C1071.3 242.644 1076.13 247.476 1082.09 247.476Z" fill="#EEEAE5"/>
<path d="M1082.25 243.168C1085.89 243.168 1088.84 240.218 1088.84 236.58C1088.84 232.942 1085.89 229.993 1082.25 229.993C1078.61 229.993 1075.66 232.942 1075.66 236.58C1075.66 240.218 1078.61 243.168 1082.25 243.168Z" fill="#F39B99"/>
<path d="M1078.95 235.485C1079.76 235.485 1080.41 234.831 1080.41 234.024C1080.41 233.217 1079.76 232.563 1078.95 232.563C1078.14 232.563 1077.49 233.217 1077.49 234.024C1077.49 234.831 1078.14 235.485 1078.95 235.485Z" fill="#EEEAE5"/>
<path d="M1098.38 338.513C1097.73 348.738 1078.73 356.216 1055.92 355.398C1033.1 354.58 1015.15 345.685 1015.79 335.534C1016.44 325.383 1035.18 311.712 1057.98 312.544C1080.78 313.377 1099.02 328.289 1098.38 338.513Z" fill="#5A6174"/>
<path d="M1042.92 326.975L1031.23 319.672C1031.04 319.553 1030.88 319.381 1030.78 319.177C1030.68 318.972 1030.63 318.742 1030.66 318.515C1030.68 318.287 1030.77 318.071 1030.91 317.89C1031.05 317.71 1031.24 317.573 1031.45 317.496L1044.83 312.471C1045.03 312.398 1045.25 312.378 1045.45 312.413C1045.66 312.448 1045.86 312.537 1046.03 312.671C1046.19 312.805 1046.32 312.98 1046.4 313.178C1046.47 313.376 1046.5 313.59 1046.47 313.8L1044.83 326.099C1044.81 326.309 1044.73 326.51 1044.61 326.682C1044.48 326.854 1044.32 326.99 1044.12 327.079C1043.93 327.167 1043.72 327.204 1043.51 327.186C1043.3 327.167 1043.09 327.095 1042.92 326.975Z" fill="#EEEAE5"/>
<path d="M1071.55 326.536L1070.36 314.223C1070.34 314.015 1070.38 313.805 1070.46 313.614C1070.55 313.423 1070.68 313.257 1070.85 313.131C1071.01 313.005 1071.21 312.924 1071.42 312.896C1071.62 312.867 1071.83 312.891 1072.03 312.967L1085.17 318.108C1085.38 318.193 1085.57 318.335 1085.7 318.519C1085.84 318.703 1085.92 318.921 1085.94 319.149C1085.96 319.377 1085.91 319.605 1085.81 319.808C1085.7 320.011 1085.54 320.181 1085.35 320.299L1073.36 327.47C1073.18 327.571 1072.98 327.627 1072.78 327.631C1072.58 327.636 1072.38 327.59 1072.2 327.497C1072.02 327.404 1071.86 327.267 1071.75 327.099C1071.63 326.931 1071.57 326.737 1071.55 326.536Z" fill="#EEEAE5"/>
<mask id="mask7_1362_47285" style="mask-type:alpha" maskUnits="userSpaceOnUse" x="975" y="197" width="190" height="183">
<path d="M1116.64 238.073C1116.64 238.073 1121.22 234.831 1124.83 222.985C1127.26 200.755 1113.34 197.805 1113.34 197.805C1113.34 197.805 1108.39 210.512 1104.79 215.419C1101.2 220.327 1094.57 219.465 1094.57 219.465L1116.64 238.073Z" fill="#F2A374"/>
<path d="M1128.45 261.106C1128.45 261.106 1149.11 258.682 1154.96 260.756C1160.8 262.83 1168.44 268.979 1162.84 275.493C1157.25 282.008 1137.14 295.781 1137.14 295.781L1128.45 261.106Z" fill="#7D8BA8"/>
<path d="M1139.16 308.908C1139.16 347.935 1102.64 379.615 1057.36 379.688C1012.08 379.761 975.408 348.183 975.35 309.171C975.291 270.158 988.831 206.126 1057.14 206.024C1125.45 205.921 1139.08 269.866 1139.16 308.908Z" fill="#7CC7C3"/>
</mask>
<g mask="url(#mask7_1362_47285)">
<path opacity="0.15" d="M1165.72 404.471H1057.7C1057.7 404.471 1047.46 342.158 1047.46 283.204C1047.46 224.25 1057.7 185.382 1057.7 185.382H1165.72V404.471Z" fill="black"/>
</g>
<defs>
<clipPath id="clip0_1362_47285">
<rect width="169.569" height="169.569" fill="white" transform="translate(0.495117 227.398)"/>
</clipPath>
<clipPath id="clip1_1362_47285">
<rect width="258.104" height="258.104" fill="white" transform="translate(84.5293 136.612)"/>
</clipPath>
<clipPath id="clip2_1362_47285">
<rect width="396.16" height="396.16" fill="white" transform="translate(540.714 0.806641)"/>
</clipPath>
<clipPath id="clip3_1362_47285">
<rect width="187.576" height="339.137" fill="white" transform="translate(826.58 52.5781)"/>
</clipPath>
<clipPath id="clip4_1362_47285">
<rect width="123.05" height="123.05" fill="white" transform="translate(1109.44 266.415)"/>
</clipPath>
</defs>
</svg>
