<svg fill="none" height="405" viewBox="0 0 1233 405" width="1233" xmlns="http://www.w3.org/2000/svg" xmlns:xlink="http://www.w3.org/1999/xlink"><clipPath id="a"><path d="m.495117 227.398h169.569v169.569h-169.569z"/></clipPath><clipPath id="b"><path d="m84.5293 136.612h258.104v258.104h-258.104z"/></clipPath><clipPath id="c"><path d="m540.714.806641h396.16v396.16h-396.16z"/></clipPath><clipPath id="d"><path d="m826.58 52.5781h187.576v339.137h-187.576z"/></clipPath><clipPath id="e"><path d="m1109.44 266.415h123.05v123.05h-123.05z"/></clipPath><mask id="f" height="163" maskUnits="userSpaceOnUse" width="170" x="0" y="233"><path d="m169.793 306.45c0-40.538-37.837-73.4-84.5134-73.4-46.6766 0-84.512998 32.862-84.512998 73.4 0 23.197 5.652288 43.557 23.140498 56.919.3278 6.41 1.2774 12.548 3.3122 17.296.8219 1.912 2.1861 3.541 3.924 4.687 1.7379 1.145 3.7732 1.756 5.8545 1.757 1.4353-.002 2.855-.299 4.1714-.871 2.1657-.928 3.9611-2.551 5.1032-4.612 1.142-2.061 1.5659-4.443 1.2047-6.772 4.0126 1.165 8.089 2.097 12.209 2.793v7.562c0 2.819 1.1195 5.522 3.1123 7.514 1.9929 1.993 4.6957 3.113 7.514 3.113 2.8182 0 5.5211-1.12 7.5139-3.113 1.9928-1.992 3.1124-4.695 3.1124-7.514v-5.471c1.4244.057 2.86.102 4.3409.124 2.7734 0 5.4564-.022 8.0489-.067v5.414c0 2.819 1.1195 5.522 3.1124 7.514 1.9928 1.993 4.6961 3.113 7.5141 3.113s5.521-1.12 7.514-3.113c1.993-1.992 3.112-4.695 3.112-7.514v-7.596c5-.917 9.916-2.248 14.696-3.979-.183.862-.444 1.706-.78 2.52-.551 1.283-.843 2.661-.86 4.057-.018 1.396.241 2.781.759 4.077.519 1.295 1.288 2.476 2.264 3.474.975.998 2.138 1.794 3.421 2.342 1.318.569 2.737.861 4.172.859 2.082.002 4.118-.607 5.857-1.753 1.738-1.145 3.102-2.776 3.921-4.69 2.781-6.512 3.55-15.634 3.392-24.508 13.735-13.487 18.37-32.625 18.37-53.562z" fill="#7d8ba8"/><path d="m108.159 323.657c16.97 0 30.726-13.757 30.726-30.726s-13.756-30.726-30.726-30.726c-16.969 0-30.7254 13.757-30.7254 30.726s13.7564 30.726 30.7254 30.726z" fill="#7cc8c5"/><path d="m108.261 317.065c13.548 0 24.531-10.983 24.531-24.531s-10.983-24.531-24.531-24.531c-13.5477 0-24.5305 10.983-24.5305 24.531s10.9828 24.531 24.5305 24.531z" fill="#eeeae5"/><path d="m108.261 305.896c7.38 0 13.362-5.982 13.362-13.362s-5.982-13.362-13.362-13.362c-7.379 0-13.3616 5.982-13.3616 13.362s5.9826 13.362 13.3616 13.362z" fill="#ee787a"/><path d="m102.824 288.16c1.236 0 2.239-1.002 2.239-2.238s-1.003-2.238-2.239-2.238-2.238 1.002-2.238 2.238 1.002 2.238 2.238 2.238z" fill="#eeeae5"/><path d="m81.3105 354.564c-1.8879 7.382-15.2612 10.536-29.8893 7.031-14.6281-3.504-24.9266-12.322-23.0727-19.704 1.854-7.381 15.9621-15.012 30.5902-11.519 14.6282 3.493 24.2484 16.855 22.3718 24.192z" fill="#5a6174"/><path d="m36.9276 343.168-7.461-4.148c-.1852-.095-.3406-.239-.4491-.417-.1085-.177-.1659-.381-.1659-.59 0-.208.0574-.412.1659-.589.1085-.178.2639-.322.4491-.417l7.461-4.148c.1741-.104.3728-.158.5753-.159.2025 0 .4013.054.5758.157.1744.103.318.25.4158.428.0978.177.1462.377.1401.58v8.309c.004.201-.0459.4-.1445.576-.0987.175-.2425.321-.4165.423-.1741.101-.3721.154-.5736.154-.2015-.001-.3991-.056-.5724-.159z" fill="#eeeae5"/><path d="m46.6717 338.624-5.8106-6.094c-.1456-.146-.2484-.329-.2975-.529-.049-.2-.0423-.41.0194-.607.0618-.197.1761-.373.3307-.509.1546-.137.3436-.228.5466-.265l8.4219-1.786c.1928-.042.3934-.033.5817.026s.3578.167.4915.312c.1338.145.2272.323.271.516.0437.192.0363.393-.0216.581l-2.6114 7.914c-.0566.192-.1635.366-.3097.504s-.3264.234-.5221.279-.3998.037-.5914-.024c-.1915-.06-.3636-.17-.4985-.318z" fill="#eeeae5"/><path d="m56.5529 337.55-2.5322-7.913c-.0676-.193-.0817-.4-.0407-.601.0411-.2.1356-.385.2736-.536.1381-.151.3144-.261.5103-.32.1958-.058.4039-.063.602-.012l8.4332 1.831c.2011.04.3875.134.5393.272.1518.137.2633.314.3225.51.0593.196.064.405.0138.604-.0503.199-.1537.38-.299.524l-5.8671 6.082c-.1335.158-.3077.276-.5037.342s-.4062.076-.6078.031c-.2016-.046-.3869-.146-.5358-.289-.1488-.143-.2555-.325-.3084-.525z" fill="#eeeae5"/><path d="m65.7315 341.892.9157-8.229c.017-.201.0872-.393.2032-.557s.2737-.294.4569-.377c.1831-.083.385-.116.585-.095.1999.021.3906.095.5523.215l6.9636 4.895c.1714.114.3084.272.3962.458s.1232.393.1022.598c-.0209.204-.0974.4-.221.564-.1237.165-.29.292-.4808.369l-7.9132 3.392c-.1871.08-.3925.108-.5944.082-.2019-.027-.3928-.108-.5526-.234s-.2825-.293-.3552-.484c-.0728-.19-.0927-.396-.0579-.597z" fill="#eeeae5"/><path d="m72.4461 349.624 3.8662-7.427c.0882-.18.2227-.334.3897-.445s.3605-.175.5607-.187c.2002-.011.3999.031.5785.122.1787.091.3299.228.4381.397l4.7366 6.941c.1217.166.1956.363.2137.568.018.206-.0204.412-.1112.597s-.2305.342-.404.453c-.1735.112-.3741.174-.5803.179l-8.614.475c-.2031.015-.4066-.025-.5888-.116s-.3365-.229-.4465-.401c-.11-.171-.1717-.369-.1785-.573-.0068-.203.0415-.405.1398-.583z" fill="#eeeae5"/></mask><mask id="g" height="259" maskUnits="userSpaceOnUse" width="219" x="104" y="136"><path d="m135.65 240.196s-20.373 7.279-25.139 13.026-9.791 17.895-2.185 23.797c7.605 5.902 31.489 14.144 31.489 14.144z" fill="#7cc7c3"/><path d="m291.511 237.478s20.373 7.261 25.139 13.008 9.791 17.895 2.185 23.814c-7.605 5.92-31.488 14.145-31.488 14.145z" fill="#7cc7c3"/><path d="m186.565 394.389c14.884-2.443 12.613-31.403 12.613-31.403s-.172-1.187 13.766-1.48c13.937-.292 13.593 4.56 13.593 4.56s-6.005 28.254 17.483 28.254c23.487 0 24.244-20.889 36.582-37.236 12.337-16.346 15.021-106.941 7.88-170.951-4.353-48.627-51.621-49.522-76.726-49.522s-68.07-.275-75.607 47.199c-3.717 33.76-10.324 127.538 6.728 167.975 11.167 34.327 28.804 45.047 43.688 42.604z" fill="#5a6174"/><path d="m142.07 217.846-4.491 26.292c-.338 1.988-.178 4.028.467 5.939.645 1.91 1.754 3.631 3.227 5.007 1.474 1.377 3.266 2.366 5.216 2.879s3.997.534 5.957.061l20.063-4.835c1.934-.474 3.723-1.415 5.21-2.741 1.486-1.326 2.624-2.996 3.316-4.864.691-1.868.913-3.877.648-5.851s-1.011-3.853-2.171-5.472l-15.589-21.526c-1.41-1.935-3.359-3.412-5.604-4.246s-4.685-.988-7.017-.442c-2.331.545-4.451 1.765-6.093 3.508s-2.734 3.931-3.139 6.291z" fill="#eeeae5"/><path d="m259.87 208.778-13.852 22.661c-1.043 1.716-1.646 3.664-1.755 5.669-.109 2.006.28 4.007 1.131 5.826.852 1.819 2.14 3.399 3.75 4.6 1.61 1.2 3.492 1.985 5.478 2.282l20.39 3.184c1.988.308 4.022.119 5.92-.55s3.6-1.799 4.955-3.286c1.355-1.488 2.32-3.289 2.81-5.24.489-1.952.487-3.995-.005-5.946l-6.539-25.811c-.571-2.347-1.827-4.472-3.609-6.104-1.781-1.632-4.008-2.697-6.396-3.06-2.389-.364-4.831-.008-7.018 1.02-2.186 1.028-4.017 2.683-5.26 4.755z" fill="#eeeae5"/><path d="m291.974 237.72c2.1 52.67-2.684 104.721-8.758 115.562-2.288 5.42-15.676 41.038-39.146 41.038s-17.482-28.253-17.482-28.253.413-4.836-13.594-4.56c-14.006.275-13.765 1.48-13.765 1.48s2.306 28.959-12.665 31.402c-14.97 2.444-32.521-8.276-43.671-42.604-10.324-24.486-12.045-69.775-10.857-109.196 0 0 45.615.104 80.046-.602 34.432-.705 79.892-4.267 79.892-4.267z" fill="#798e9c"/><path d="m213.665 338.569c-29.08 0-67.606-5.024-70.549-15.727-5.816-14.454-8.259-49.126-7.175-81.165 0 0 43.62 0 76.554-.499s76.399-3.442 76.399-3.442c1.996 42.811-4.749 81.992-7.657 89.477s-38.406 11.356-67.572 11.356z" fill="#f2a374"/><path d="m196.339 229.804c2.632 0 4.766-2.172 4.766-4.852s-2.134-4.852-4.766-4.852c-2.633 0-4.767 2.172-4.767 4.852s2.134 4.852 4.767 4.852z" fill="#eeeae5"/><path d="m196.373 227.74c1.492 0 2.702-1.233 2.702-2.753 0-1.521-1.21-2.754-2.702-2.754s-2.701 1.233-2.701 2.754c0 1.52 1.209 2.753 2.701 2.753z" fill="#5a6174"/><path d="m229.015 229.805c2.633 0 4.767-2.172 4.767-4.852s-2.134-4.852-4.767-4.852c-2.632 0-4.766 2.172-4.766 4.852s2.134 4.852 4.766 4.852z" fill="#eeeae5"/><path d="m229.239 227.741c1.492 0 2.701-1.233 2.701-2.754 0-1.52-1.209-2.753-2.701-2.753s-2.702 1.233-2.702 2.753c0 1.521 1.21 2.754 2.702 2.754z" fill="#5a6174"/></mask><mask id="h" height="328" maskUnits="userSpaceOnUse" width="244" x="232" y="62"><path d="m475.157 73.2802s-17.334 5.9694-22.109 12.8453c-4.776 6.8759-4.068 33.9155-12.845 41.6095-5.718 4.641-13.032 6.849-20.363 6.146l-21.445-36.5021s15.144 4.2231 21.733-2.2109c6.588-6.4337 12.889-23.7892 23.081-28.7416 10.193-4.9524 31.948 6.8538 31.948 6.8538z" fill="#5a6174" stroke="#5a6174" stroke-linecap="round" stroke-linejoin="round" stroke-width="1.33671"/><path d="m440.468 127.999-21.998-32.5888" fill="none" stroke="#6ec6d8" stroke-linecap="round" stroke-miterlimit="10" stroke-width="2.00507"/><path d="m448.603 105.183-19.544-22.8168" fill="none" stroke="#6ec6d8" stroke-linecap="round" stroke-miterlimit="10" stroke-width="2.00507"/><path d="m455.127 83.1856-14.658-14.6583" fill="none" stroke="#6ec6d8" stroke-linecap="round" stroke-miterlimit="10" stroke-width="2.00507"/><path d="m233.02 70.8262s17.333 5.9694 22.108 12.8453c4.776 6.8759 4.069 33.9375 12.846 41.6095 5.718 4.643 13.029 6.858 20.362 6.168l21.446-36.5241s-15.145 4.2228-21.755-2.2109c-6.611-6.4337-12.868-23.745-23.06-28.7416s-31.947 6.8538-31.947 6.8538z" fill="#5a6174" stroke="#5a6174" stroke-linecap="round" stroke-linejoin="round" stroke-width="1.33671"/><path d="m267.708 125.546 21.998-32.589" fill="none" stroke="#6ec6d8" stroke-linecap="round" stroke-miterlimit="10" stroke-width="2.00507"/><path d="m259.573 102.729 19.545-22.7944" fill="none" stroke="#6ec6d8" stroke-linecap="round" stroke-miterlimit="10" stroke-width="2.00507"/><path d="m253.051 80.7295 14.658-14.6582" fill="none" stroke="#6ec6d8" stroke-linecap="round" stroke-miterlimit="10" stroke-width="2.00507"/><path d="m292.403 358.75c-1.736 4.937-2.626 10.132-2.631 15.366 0 8.689 8.645 13.575 14.128 14.636 7.063 1.084 14.25 1.084 21.313 0 6.456-1.061 10.524-19.898 10.524-19.898z" fill="#5a6174"/><path d="m414.555 358.751c1.737 4.937 2.627 10.132 2.631 15.366 0 8.689-8.644 13.575-14.127 14.636-7.063 1.084-14.25 1.084-21.313 0-6.456-1.061-10.524-19.898-10.524-19.898z" fill="#5a6174"/><path d="m433.901 97.025c-11.055 1.2381-24.851-2.8521-24.851-2.8521s13.443-9.3521 11.807-10.1701c-8.968 1.8701-18.23 1.8098-27.172-.1769-.995-.5306-2.012-1.0391-3.029-1.5255 0-.1548.155-.2653.464-.3316.31-.0664 10.657-5.7042 8.158-7.3402-12.27 2.2109-24.762-2.0562-35.728-.1769-3.551-.4268-7.124-.6409-10.701-.6412-39.199 0-71.787 25.3148-78.553 58.4785-3.294 10.723-8.976 28.034-14.326 37.585 7.34-3.25 13.044-13.575 13.044-13.575-1.231 10.008-5.176 19.488-11.408 27.415 1.348 1.371 8.843-1.791 11.408-2.874v2.056c-1.282 3.67-3.913 10.436-6.522 13.044-3.67 3.671 6.522 0 6.522 0v117.001c0 39.31 35.728 71.169 79.835 71.169 44.108 0 79.88-31.793 79.88-71.103v-168.028c-.027-14.224-4.683-28.054-13.265-39.398h.309s14.526-6.4557 14.128-8.556z" fill="#ee787a"/><path d="m318.957 244.669-3.404-7.318c-.56-1.151-.824-2.424-.768-3.703s.43-2.524 1.089-3.621c.658-1.098 1.581-2.014 2.683-2.666 1.102-.651 2.349-1.017 3.628-1.065l6.191-.309c1.264-.066 2.524.181 3.67.719 1.145.538 2.141 1.351 2.897 2.365.757 1.015 1.251 2.2 1.44 3.452.189 1.251.066 2.53-.357 3.722l-2.786 7.694c-.504 1.451-1.429 2.719-2.658 3.641-1.228.922-2.704 1.456-4.238 1.534-1.534.079-3.056-.302-4.372-1.094s-2.366-1.959-3.015-3.351z" fill="#fdd38b"/><path d="m378.21 242.591-2.211-7.782c-.327-1.218-.35-2.496-.068-3.725.282-1.228.86-2.369 1.685-3.322.824-.953 1.87-1.69 3.045-2.146s2.443-.617 3.695-.469l6.146.752c1.258.147 2.461.603 3.501 1.326 1.039.724 1.885 1.693 2.46 2.822.575 1.128.863 2.381.837 3.648-.025 1.267-.363 2.507-.983 3.612l-3.98 7.053c-.75 1.329-1.878 2.406-3.242 3.092-1.363.686-2.9.951-4.415.762-1.514-.19-2.939-.826-4.091-1.827s-1.98-2.323-2.379-3.796z" fill="#fdd38b"/><path d="m275.447 235.117s27.261-9.374 78.598-9.374 77.823 9.374 77.823 9.374" fill="none" stroke="#b55a5b" stroke-linecap="round" stroke-linejoin="round" stroke-width="3.34178"/><path d="m353.646 207.638c22.491 0 40.724-18.233 40.724-40.725 0-22.491-18.233-40.725-40.724-40.725-22.492 0-40.725 18.234-40.725 40.725 0 22.492 18.233 40.725 40.725 40.725z" fill="#eeeae5"/><path d="m353.646 189.088c12.247 0 22.175-9.928 22.175-22.175s-9.928-22.176-22.175-22.176-22.175 9.929-22.175 22.176 9.928 22.175 22.175 22.175z" fill="#5a6174"/></mask><mask id="i" height="394" maskUnits="userSpaceOnUse" width="313" x="585" y="3"><path d="m852.913 5.00749s-17.352 16.26901-19.227 26.88611 13.205 42.2571 6.893 56.0963c-4.319 8.5285-11.81 15.0241-20.864 18.0911l-44.899-31.6926s20.178-3.0372 24.589-14.1297c4.41-11.0925 2.641-34.9942 12.017-46.298 9.375-11.30377 41.491-8.95321 41.491-8.95321z" fill="#e9c17b" stroke="#e9c17b" stroke-linecap="round" stroke-linejoin="round" stroke-width="2.00507"/><path d="m840.898 88.2016-43.34-26.9125" fill="none" stroke="#f39b99" stroke-linecap="round" stroke-miterlimit="10" stroke-width="2.00507"/><path d="m838.44 56.879-35.258-16.6388" fill="none" stroke="#f39b99" stroke-linecap="round" stroke-miterlimit="10" stroke-width="2.00507"/><path d="m834.48 27.3791-25.143-9.5871" fill="none" stroke="#f39b99" stroke-linecap="round" stroke-miterlimit="10" stroke-width="2.00507"/><path d="m630.51 5.00749s17.325 16.26901 19.227 26.88611c1.901 10.6171-13.206 42.2571-6.893 56.0963 4.313 8.5233 11.793 15.0181 20.838 18.0911l44.898-31.6926s-20.178-3.0372-24.589-14.1297c-4.41-11.0925-2.641-34.9942-12.016-46.298-9.376-11.30377-41.465-8.95321-41.465-8.95321z" fill="#e9c17b" stroke="#e9c17b" stroke-linecap="round" stroke-linejoin="round" stroke-width="2.00507"/><path d="m642.421 88.2016 43.34-26.9125" fill="none" stroke="#f39b99" stroke-linecap="round" stroke-miterlimit="10" stroke-width="2.00507"/><path d="m644.879 56.879 35.258-16.6388" fill="none" stroke="#f39b99" stroke-linecap="round" stroke-miterlimit="10" stroke-width="2.00507"/><path d="m648.84 27.3791 25.143-9.5871" fill="none" stroke="#f39b99" stroke-linecap="round" stroke-miterlimit="10" stroke-width="2.00507"/><path d="m896.861 302.868-30.663-138.841c-2.641-12.308-32.538-98.38-122.572-101.5493-90.034-3.1692-123.681 79.2053-126.533 92.0153l-30.663 138.841c-2.826 12.809 4.569 25.671 16.533 28.708 1.685.417 3.414.63 5.15.634 5.176-.142 10.147-2.055 14.084-5.42 3.936-3.364 6.6-7.977 7.547-13.068l3.75-16.955c1.136 16.374 8.425 98.274 41.385 102.077 13.206 0 33.278-17.325 45.321-29.052 7.604 1.948 15.419 2.95 23.268 2.985 4.117-.016 8.229-.308 12.307-.872 10.327 10.564 35.285 34.334 50.682 34.334 36.606-4.252 41.544-104.93 41.544-104.93l-.528.37.872-1.928 5.282 23.479c.947 5.091 3.61 9.704 7.547 13.068 3.936 3.365 8.907 5.277 14.083 5.42 1.78.007 3.555-.206 5.282-.634 11.753-3.011 19.148-15.873 16.322-28.682z" fill="#91cecb"/><path d="m740.668 361.263c59.016 0 106.858-46.955 106.858-104.877s-47.842-104.877-106.858-104.877-106.857 46.955-106.857 104.877 47.841 104.877 106.857 104.877z" fill="#5a6174" stroke="#5a6174" stroke-miterlimit="10" stroke-width="2.00507"/><path d="m699.996 138.433c5.514 0 9.983-4.469 9.983-9.983s-4.469-9.983-9.983-9.983-9.983 4.469-9.983 9.983 4.469 9.983 9.983 9.983z" fill="#eeeae5"/><path d="m699.997 133.891c3.005 0 5.441-2.436 5.441-5.441 0-3.004-2.436-5.44-5.441-5.44s-5.44 2.436-5.44 5.44c0 3.005 2.435 5.441 5.44 5.441z" fill="#5a6174"/><path d="m775.187 135.449c5.514 0 9.984-4.47 9.984-9.983 0-5.514-4.47-9.984-9.984-9.984-5.513 0-9.983 4.47-9.983 9.984 0 5.513 4.47 9.983 9.983 9.983z" fill="#eeeae5"/><path d="m775.188 130.907c3.004 0 5.44-2.436 5.44-5.441s-2.436-5.441-5.44-5.441c-3.005 0-5.441 2.436-5.441 5.441s2.436 5.441 5.441 5.441z" fill="#5a6174"/><path d="m674.537 193.423-7.923-3.302c-.68-.276-1.281-.716-1.749-1.282s-.788-1.238-.932-1.958-.107-1.464.107-2.166.6-1.34 1.121-1.856l4.675-4.702c.519-.515 1.157-.894 1.858-1.105.701-.21 1.443-.246 2.16-.102.717.143 1.389.461 1.954.925.566.464 1.009 1.06 1.291 1.735l3.301 7.923c.376.822.493 1.739.334 2.628-.159.89-.586 1.709-1.224 2.35-.637.64-1.455 1.07-2.344 1.233s-1.806.051-2.629-.321z" fill="#eeeae5"/><path d="m694.107 181.3-8.715-6.681c-.739-.564-1.327-1.3-1.713-2.145s-.558-1.772-.5-2.698c.057-.927.342-1.826.83-2.616.487-.791 1.161-1.449 1.964-1.917l7.289-4.226c.81-.494 1.73-.776 2.678-.82.947-.045 1.89.15 2.742.565.853.416 1.587 1.039 2.135 1.813s.893 1.673 1.002 2.615l1.426 10.881c.167 1.125-.009 2.274-.506 3.297-.496 1.024-1.29 1.873-2.277 2.438s-2.122.819-3.256.729c-1.133-.091-2.213-.521-3.099-1.235z" fill="#eeeae5"/><path d="m719.224 172.294-6.603-10.564c-.556-.9-.882-1.924-.949-2.981-.067-1.056.128-2.112.566-3.076.439-.963 1.108-1.804 1.949-2.447.84-.643 1.826-1.07 2.871-1.241l9.428-1.559c1.058-.182 2.144-.097 3.16.248 1.016.344 1.931.936 2.66 1.723s1.25 1.744 1.516 2.783c.266 1.04.268 2.129.007 3.17l-2.958 12.016c-.309 1.214-.964 2.312-1.887 3.159-.922.848-2.071 1.408-3.307 1.612-1.235.205-2.504.045-3.65-.46s-2.12-1.333-2.803-2.383z" fill="#eeeae5"/><path d="m806.748 193.423 7.924-3.302c.68-.276 1.28-.716 1.748-1.282s.789-1.238.932-1.958c.144-.72.108-1.464-.107-2.166-.214-.702-.599-1.34-1.121-1.856l-4.675-4.702c-.519-.515-1.157-.894-1.858-1.105-.701-.21-1.442-.246-2.16-.102-.717.143-1.388.461-1.954.925s-1.009 1.06-1.29 1.735l-3.302 7.923c-.376.822-.492 1.739-.333 2.628.159.89.585 1.709 1.223 2.35.637.64 1.455 1.07 2.344 1.233s1.806.051 2.629-.321z" fill="#eeeae5"/><path d="m787.178 181.3 8.716-6.682c.737-.565 1.323-1.304 1.707-2.15s.553-1.773.493-2.7-.347-1.825-.837-2.615c-.49-.789-1.167-1.445-1.971-1.911l-7.289-4.226c-.806-.464-1.714-.722-2.643-.751-.93-.029-1.852.172-2.685.585-.834.413-1.552 1.025-2.092 1.782-.541.757-.886 1.635-1.005 2.557l-1.426 10.882c-.146 1.106.04 2.232.533 3.233.494 1.002 1.273 1.835 2.239 2.394s2.076.82 3.19.749c1.115-.071 2.183-.47 3.07-1.147z" fill="#eeeae5"/><path d="m761.771 172.479 6.894-10.564c.59-.881.953-1.893 1.057-2.948.103-1.055-.056-2.119-.464-3.098-.408-.978-1.052-1.84-1.875-2.509-.822-.668-1.798-1.123-2.839-1.323l-9.402-1.822c-1.04-.204-2.115-.148-3.129.163-1.013.311-1.934.868-2.681 1.62-.748.752-1.297 1.677-1.601 2.693s-.353 2.091-.142 3.13l2.482 12.255c.233 1.261.837 2.424 1.735 3.341.898.916 2.049 1.543 3.306 1.801 1.256.258 2.561.136 3.748-.352 1.186-.488 2.2-1.319 2.911-2.387z" fill="#eeeae5"/><path d="m651.851 202.004c-.801.005-1.584-.234-2.245-.686-.857-.598-1.446-1.509-1.638-2.536-.193-1.028.026-2.09.608-2.958 10.281-14.869 24.01-27.027 40.012-35.435 16.003-8.408 33.803-12.816 51.88-12.847s35.893 4.316 51.925 12.669c16.031 8.352 29.801 20.463 40.134 35.296.556.866.753 1.914.55 2.923-.203 1.008-.79 1.898-1.638 2.482-.847.583-1.888.814-2.903.643-1.014-.171-1.923-.729-2.533-1.558-9.602-13.772-22.395-25.016-37.287-32.771-14.891-7.755-31.438-11.79-48.227-11.762-16.79.029-33.323 4.12-48.188 11.926-14.865 7.805-27.62 19.093-37.175 32.898-.367.529-.856.961-1.427 1.26-.57.299-1.204.456-1.848.456z" fill="#7cc7c3"/></mask><mask id="j" height="303" maskUnits="userSpaceOnUse" width="258" x="409" y="91"><path d="m473.257 143.767s-5.286-3.735-9.449-17.368c-2.796-25.612 13.245-29.0201 13.245-29.0201s5.714 14.6331 9.857 20.4081c4.143 5.776 11.816 4.551 11.816 4.551z" fill="#f2a374"/><path d="m602.564 139.44s5.265-3.715 9.428-17.368c2.796-25.6121-13.265-29.0202-13.265-29.0202s-5.694 14.6322-9.837 20.4082-11.877 4.653-11.877 4.653z" fill="#f2a374"/><path d="m533.237 380.196c-76.429-11.02-111.613-11.02-123.266-89.959-4.49-57.796 15.612-89.633 33.143-118.042 17.531-28.408 66.796-55.857 71.429-60.122 4.633-4.266-2.755-13.0616-1.163-12.98s13.714 4.204 13.714 4.204l-4.877-11.1632s16.653 4.347 21.408 8.3882c4.755 4.04 6.122 11.714 7.816 12.02s2.041.245 2.796-.796-2.592-13.2856-.918-14.2857c3.735-.7551 22.571 16.8577 22.571 16.8577l1.143-6.919 4.082 6.694c17.262 16.412 32.742 34.602 46.184 54.266 22.449 33.632 40.122 76.102 38.775 106.755 0 66.164-56.408 116.083-132.837 105.082z" fill="#7d8ba8" stroke="#7d8ba8" stroke-linecap="round" stroke-linejoin="round" stroke-width=".668356"/><path d="m462.991 337.38c-3.047 8.612-4.606 17.681-4.612 26.816 0 15.123 15.082 23.633 24.653 25.511 12.323 1.879 24.861 1.879 37.184 0 11.245-1.878 18.367-34.592 18.367-34.592z" fill="#5a6174"/><path d="m610.441 344.481c1.919 8.925 2.298 18.112 1.122 27.164-2.041 15.02-18 21.51-27.714 22.143-12.463.282-24.898-1.328-36.878-4.776-10.918-3.306-13.735-36.735-13.735-36.735z" fill="#5a6174"/><path d="m630.604 233.706c14.735 59.714 19.878 142.858-94.816 142.021-121.756-.898-101.47-97.49-85.511-142.287 0 0 25.918-15.51 84.878-16.326 58.959-.817 95.449 16.592 95.449 16.592z" fill="#fcd28a"/><path d="m537.501 377.849h-1.632c-43.674-.306-73.47-12.939-88.47-37.531-12.408-20.408-14.531-49.306-6.123-83.816 3.935-15.942 9.459-31.448 16.49-46.286.124-.245.294-.464.502-.643.207-.18.448-.317.709-.403s.536-.12.809-.1c.274.02.541.094.786.217.246.123.464.294.644.502.179.207.316.448.402.709.086.26.12.535.1.809s-.094.541-.217.786c-.388.776-39.204 79.123-10.51 126.062 14.286 23.266 42.857 35.225 84.919 35.531 42.51.306 72.041-11.531 87.755-35.204 31.102-46.939-2.265-125.572-2.592-126.368-.108-.251-.166-.52-.171-.793-.004-.273.045-.545.146-.799.1-.254.25-.485.44-.681.19-.197.416-.353.667-.462.25-.109.52-.167.793-.171s.544.045.798.145c.254.101.486.25.682.44s.353.417.462.668c6.055 14.992 10.542 30.572 13.387 46.49 6.123 34.694 2.286 63.592-11.142 83.837-16.429 24.571-46.552 37.061-89.634 37.061z" fill="#5a6174"/><path d="m492.074 195.522c6.931 0 12.551-5.619 12.551-12.551s-5.62-12.551-12.551-12.551c-6.932 0-12.552 5.619-12.552 12.551s5.62 12.551 12.552 12.551z" fill="#eeeae5"/><path d="m492.074 189.807c3.776 0 6.837-3.061 6.837-6.836 0-3.776-3.061-6.837-6.837-6.837s-6.837 3.061-6.837 6.837c0 3.775 3.061 6.836 6.837 6.836z" fill="#5a6174"/><path d="m475.011 171.195 37.225 2.878 6.327-15.857-48.042 1.367z" fill="#5a6174"/><path d="m580.707 195.522c6.932 0 12.551-5.619 12.551-12.551s-5.619-12.551-12.551-12.551c-6.931 0-12.551 5.619-12.551 12.551s5.62 12.551 12.551 12.551z" fill="#eeeae5"/><path d="m580.707 189.807c3.776 0 6.837-3.061 6.837-6.836 0-3.776-3.061-6.837-6.837-6.837s-6.837 3.061-6.837 6.837c0 3.775 3.061 6.836 6.837 6.836z" fill="#5a6174"/><path d="m601.401 174.583-39.306 1.796-6.245-16.041 50.612 2.775z" fill="#5a6174"/><path d="m522.971 198.422 4.898 7.347 5.183-7.347z" fill="#fff"/><path d="m544.012 198.422 4.898 7.347 5.183-7.347z" fill="#fff"/><path d="m553.319 198.135h-29.51" fill="none" stroke="#5a6174" stroke-linecap="round" stroke-linejoin="round" stroke-width="1.33671"/></mask><mask id="k" height="340" maskUnits="userSpaceOnUse" width="184" x="829" y="52"><path d="m870.304 213.089s-17.751 4.522-21.896 7.981-8.537 10.988-1.915 14.628c6.623 3.64 27.437 8.659 27.437 8.659z" fill="#7cc7c3"/><path d="m981.943 208.183s17.751 4.521 21.897 7.981c4.14 3.459 8.51 10.988 1.89 14.628-6.622 3.64-27.414 8.659-27.414 8.659z" fill="#7cc7c3"/><path d="m870.935 335.178c-14.912 6.987-11.691 38.006-11.691 44.744 0 6.737 6.758 10.513 10.926 11.304 5.472.838 11.039.838 16.511 0 4.979-.836 11.106-24.169 11.106-24.169s-11.939-38.865-26.852-31.879z" fill="#ee787a"/><path d="m981.247 335.179c14.912 6.986 11.691 38.006 11.691 44.743 0 6.738-6.758 10.514-10.925 11.305-5.465.837-11.025.837-16.49 0-5-.791-11.083-24.192-11.083-24.192s11.894-38.842 26.807-31.856z" fill="#ee787a"/><path d="m876.724 156.114c-1.09.016-2.169-.229-3.148-.712s-1.83-1.192-2.483-2.068c-25.77-34.321-26.221-62.3565-26.221-63.5322-.006-1.849.719-3.6249 2.015-4.9387 1.296-1.3137 3.059-2.0582 4.901-2.0701 1.834-.0001 3.594.7266 4.898 2.0222 1.303 1.2955 2.044 3.0551 2.062 4.8962 0 .4069.721 24.9826 23.473 55.2116.82 1.033 1.331 2.278 1.473 3.591s-.091 2.64-.672 3.825-1.486 2.18-2.609 2.869c-1.123.688-2.418 1.042-3.734 1.02z" fill="#5a6174"/><path d="m852.059 97.6911c10.438 0 18.899-8.4928 18.899-18.9691s-8.461-18.9691-18.899-18.9691-18.9 8.4928-18.9 18.9691 8.462 18.9691 18.9 18.9691z" fill="#eeeae5"/><path d="m852.058 101.671c-4.529.005-8.957-1.339-12.724-3.8616-3.767-2.5223-6.704-6.1097-8.439-10.308s-2.19-8.8188-1.308-13.2769c.882-4.458 3.063-8.5531 6.265-11.767s7.282-5.4021 11.724-6.2877c4.441-.8856 9.045-.4288 13.228 1.3126s7.757 4.6891 10.27 8.4702c2.513 3.781 3.852 8.2253 3.848 12.7704-.012 6.0826-2.425 11.9126-6.71 16.2137s-10.094 6.7223-16.154 6.7343zm0-37.9153c-2.95 0-5.833.8779-8.285 2.5225-2.453 1.6446-4.364 3.9822-5.493 6.7171-1.128 2.7349-1.424 5.7443-.848 8.6477.575 2.9033 1.995 5.5702 4.081 7.6635 2.086 2.0932 4.743 3.5187 7.635 4.0962 2.893.5775 5.891.2811 8.616-.8517 2.725-1.1329 5.054-3.0513 6.693-5.5126 1.638-2.4614 2.513-5.3552 2.513-8.3154 0-3.9696-1.571-7.7765-4.368-10.5834-2.796-2.807-6.589-4.3839-10.544-4.3839z" fill="#7cc7c3"/><path d="m855.618 86.7709c4.727 0 8.56-3.8466 8.56-8.5915 0-4.745-3.833-8.5915-8.56-8.5915-4.728 0-8.56 3.8465-8.56 8.5915 0 4.7449 3.832 8.5915 8.56 8.5915z" fill="#5a6174"/><path d="m966.581 149.129c-1.298.009-2.573-.347-3.679-1.028-1.107-.681-2.001-1.661-2.58-2.827-.58-1.165-.822-2.471-.699-3.768s.606-2.534 1.394-3.569c22.842-30.341 23.472-54.9853 23.472-55.234 0-1.8528.734-3.6298 2.039-4.94 1.306-1.3102 3.076-2.0462 4.922-2.0462s3.617.736 4.922 2.0462 2.039 3.0872 2.039 4.94c0 1.1757-.451 29.211-26.288 63.532-.631.887-1.461 1.612-2.425 2.115-.963.503-2.031.77-3.117.779z" fill="#5a6174"/><path d="m989.242 94.6862c10.438 0 18.898-8.4927 18.898-18.9691 0-10.4763-8.46-18.9691-18.898-18.9691s-18.899 8.4928-18.899 18.9691c0 10.4764 8.461 18.9691 18.899 18.9691z" fill="#eeeae5"/><path d="m989.243 98.6651c-4.521-.0044-8.939-1.3541-12.696-3.8784-3.758-2.5243-6.685-6.1099-8.412-10.3036-1.727-4.1936-2.176-8.807-1.292-13.2571.885-4.45 3.065-8.5369 6.263-11.744 3.199-3.2071 7.273-5.3905 11.707-6.2741 4.435-.8837 9.031-.4279 13.207 1.3097 4.18 1.7375 7.75 4.6789 10.26 8.4522s3.85 8.2093 3.85 12.747c-.01 6.0884-2.42 11.9253-6.71 16.2283s-10.111 6.72-16.177 6.72zm0-37.9155c-2.949 0-5.833.8778-8.285 2.5224s-4.364 3.9822-5.492 6.7171c-1.129 2.7349-1.424 5.7443-.849 8.6477.576 2.9034 1.996 5.5703 4.081 7.6635 2.086 2.0932 4.743 3.5187 7.636 4.0962 2.892.5775 5.891.2811 8.616-.8517s5.05-3.0512 6.69-5.5126c1.64-2.4613 2.52-5.3551 2.52-8.3154-.01-3.9677-1.58-7.7712-4.379-10.5768-2.795-2.8056-6.585-4.3844-10.538-4.3904z" fill="#7cc7c3"/><path d="m984.872 84.7826c4.728 0 8.56-3.8466 8.56-8.5915 0-4.745-3.832-8.5915-8.56-8.5915-4.727 0-8.56 3.8465-8.56 8.5915 0 4.7449 3.833 8.5915 8.56 8.5915z" fill="#5a6174"/><path d="m925.855 379.086c-7.312 0-14.552-1.445-21.307-4.254-6.754-2.809-12.892-6.927-18.061-12.117s-9.268-11.351-12.064-18.132-4.234-14.048-4.231-21.386c0 0-3.311-11.305-2.838-72.598.473-61.294 2.838-84.423 2.838-84.423-.149-7.433 1.181-14.82 3.912-21.731 2.731-6.91 6.808-13.204 11.993-18.514 5.184-5.309 11.372-9.527 18.201-12.406 6.828-2.88 14.161-4.363 21.568-4.363s14.739 1.483 21.568 4.363c6.829 2.879 13.016 7.097 18.201 12.406 5.184 5.31 9.262 11.604 11.993 18.514 2.73 6.911 4.06 14.298 3.911 21.731 0 0 3.56 38.074 3.762 84.423.203 46.348-3.829 72.598-3.829 72.598 0 14.811-5.858 29.016-16.286 39.496-10.428 10.479-24.575 16.375-39.331 16.393z" fill="#79909c"/><path d="m926.62 355.119c-7.91 0-15.496-3.153-21.09-8.767-5.593-5.614-8.735-13.228-8.735-21.167v-124.735c0-7.939 3.142-15.553 8.735-21.167 5.594-5.614 13.18-8.767 21.09-8.767s15.496 3.153 21.089 8.767 8.735 13.228 8.735 21.167v124.735c0 7.939-3.142 15.553-8.735 21.167s-13.179 8.767-21.089 8.767z" fill="#f2a374"/><path d="m900.265 214.423h52.689" fill="none" stroke="#f39b99" stroke-linecap="round" stroke-linejoin="round" stroke-width="3.34178"/><path d="m900.264 240.875h52.689" fill="none" stroke="#f39b99" stroke-linecap="round" stroke-linejoin="round" stroke-width="3.34178"/><path d="m900.264 267.802h52.689" fill="none" stroke="#f39b99" stroke-linecap="round" stroke-linejoin="round" stroke-width="3.34178"/><path d="m900.264 293.759h52.689" fill="none" stroke="#f39b99" stroke-linecap="round" stroke-linejoin="round" stroke-width="3.34178"/><path d="m901.255 319.714h52.711" fill="none" stroke="#f39b99" stroke-linecap="round" stroke-linejoin="round" stroke-width="3.34178"/></mask><mask id="l" height="121" maskUnits="userSpaceOnUse" width="123" x="1110" y="267"><path d="m1228.83 372.114-4.59-57.382c0-26.251-23.79-47.498-53.21-47.498-29.43 0-53.21 21.263-53.21 47.498l-5.3 60.228c-.72.666-1.31 1.473-1.71 2.372-.4.898-.61 1.87-.62 2.854 0 4.216 3.83 7.637 8.56 7.637 4.72 0 8.54-3.421 8.54-7.637 0-.107 0-.213 0-.328h.05c.15-1.088.71-2.077 1.56-2.777.85-.699 1.92-1.057 3.02-1.005 1.05-.037 2.08.299 2.91.947s1.41 1.567 1.63 2.597h.05v.591c0 4.216 3.84 7.637 8.56 7.637 4.73 0 8.55-3.421 8.55-7.637 0-.363-.03-.725-.09-1.083h.26c.35-.87.94-1.62 1.7-2.157.77-.537 1.68-.838 2.61-.865.94-.027 1.86.22 2.65.712.8.492 1.43 1.207 1.83 2.055h.4c-.1.445-.15.899-.15 1.354 0 4.216 3.83 7.637 8.56 7.637 4.72 0 8.55-3.421 8.55-7.637 0-.622-.09-1.24-.26-1.838h.31c.16-1.147.73-2.195 1.62-2.936.89-.742 2.03-1.122 3.18-1.067 2.66 0 4.82 1.928 4.82 4.299 0 .603-.14 1.198-.41 1.739.1 4.101 3.88 7.448 8.54 7.448 4.65 0 8.5-3.47 8.5-7.686 0-.887-.17-1.765-.51-2.584h.61c.28-.972.87-1.824 1.69-2.419.81-.595 1.81-.899 2.82-.862.95-.028 1.9.248 2.69.787s1.4 1.314 1.73 2.215h.27c-.06.366-.1.736-.1 1.107 0 4.225 3.83 7.638 8.55 7.638 4.71 0 8.55-3.413 8.55-7.638-.02-1.283-.37-2.54-1.02-3.647-.66-1.106-1.58-2.026-2.69-2.669z" fill="#ee787a"/><path d="m1154.95 331.17c4.56 0 8.26-3.699 8.26-8.261s-3.7-8.261-8.26-8.261-8.26 3.699-8.26 8.261 3.7 8.261 8.26 8.261z" fill="#eeeae5"/><path d="m1154.95 327.406c2.48 0 4.49-2.013 4.49-4.496 0-2.482-2.01-4.495-4.49-4.495s-4.5 2.013-4.5 4.495c0 2.483 2.02 4.496 4.5 4.496z" fill="#5a6174"/><path d="m1178.86 331.17c4.56 0 8.26-3.699 8.26-8.261s-3.7-8.261-8.26-8.261-8.26 3.699-8.26 8.261 3.7 8.261 8.26 8.261z" fill="#eeeae5"/><path d="m1178.86 327.406c2.48 0 4.5-2.013 4.5-4.496 0-2.482-2.02-4.495-4.5-4.495s-4.49 2.013-4.49 4.495c0 2.483 2.01 4.496 4.49 4.496z" fill="#5a6174"/></mask><mask id="m" height="183" maskUnits="userSpaceOnUse" width="190" x="975" y="197"><path d="m1116.64 238.073s4.58-3.242 8.19-15.088c2.43-22.23-11.49-25.18-11.49-25.18s-4.95 12.707-8.55 17.614c-3.59 4.908-10.22 4.046-10.22 4.046z" fill="#f2a374"/><path d="m1128.45 261.106s20.66-2.424 26.51-.35c5.84 2.074 13.48 8.223 7.88 14.737-5.59 6.515-25.7 20.288-25.7 20.288z" fill="#7d8ba8"/><path d="m1139.16 308.908c0 39.027-36.52 70.707-81.8 70.78s-81.952-31.505-82.01-70.517c-.059-39.013 13.481-103.045 81.79-103.147 68.31-.103 81.94 63.842 82.02 102.884z" fill="#7cc7c3"/></mask><g clip-path="url(#a)"><path d="m169.793 306.45c0-40.538-37.837-73.4-84.5134-73.4-46.6766 0-84.512998 32.862-84.512998 73.4 0 23.197 5.652288 43.557 23.140498 56.919.3278 6.41 1.2774 12.548 3.3122 17.296.8219 1.912 2.1861 3.541 3.924 4.687 1.7379 1.145 3.7732 1.756 5.8545 1.757 1.4353-.002 2.855-.299 4.1714-.871 2.1657-.928 3.9611-2.551 5.1032-4.612 1.142-2.061 1.5659-4.443 1.2047-6.772 4.0126 1.165 8.089 2.097 12.209 2.793v7.562c0 2.819 1.1195 5.522 3.1123 7.514 1.9929 1.993 4.6957 3.113 7.514 3.113 2.8182 0 5.5211-1.12 7.5139-3.113 1.9928-1.992 3.1124-4.695 3.1124-7.514v-5.471c1.4244.057 2.86.102 4.3409.124 2.7734 0 5.4564-.022 8.0489-.067v5.414c0 2.819 1.1195 5.522 3.1124 7.514 1.9928 1.993 4.6961 3.113 7.5141 3.113s5.521-1.12 7.514-3.113c1.993-1.992 3.112-4.695 3.112-7.514v-7.596c5-.917 9.916-2.248 14.696-3.979-.183.862-.444 1.706-.78 2.52-.551 1.283-.843 2.661-.86 4.057-.018 1.396.241 2.781.759 4.077.519 1.295 1.288 2.476 2.264 3.474.975.998 2.138 1.794 3.421 2.342 1.318.569 2.737.861 4.172.859 2.082.002 4.118-.607 5.857-1.753 1.738-1.145 3.102-2.776 3.921-4.69 2.781-6.512 3.55-15.634 3.392-24.508 13.735-13.487 18.37-32.625 18.37-53.562z" fill="#7d8ba8"/><path d="m108.159 323.657c16.97 0 30.726-13.757 30.726-30.726s-13.756-30.726-30.726-30.726c-16.969 0-30.7254 13.757-30.7254 30.726s13.7564 30.726 30.7254 30.726z" fill="#7cc8c5"/><path d="m108.261 317.065c13.548 0 24.531-10.983 24.531-24.531s-10.983-24.531-24.531-24.531c-13.5477 0-24.5305 10.983-24.5305 24.531s10.9828 24.531 24.5305 24.531z" fill="#eeeae5"/><path d="m108.261 305.896c7.38 0 13.362-5.982 13.362-13.362s-5.982-13.362-13.362-13.362c-7.379 0-13.3616 5.982-13.3616 13.362s5.9826 13.362 13.3616 13.362z" fill="#ee787a"/><path d="m102.824 288.16c1.236 0 2.239-1.002 2.239-2.238s-1.003-2.238-2.239-2.238-2.238 1.002-2.238 2.238 1.002 2.238 2.238 2.238z" fill="#eeeae5"/><path d="m81.3105 354.564c-1.8879 7.382-15.2612 10.536-29.8893 7.031-14.6281-3.504-24.9266-12.322-23.0727-19.704 1.854-7.381 15.9621-15.012 30.5902-11.519 14.6282 3.493 24.2484 16.855 22.3718 24.192z" fill="#5a6174"/><g fill="#eeeae5"><path d="m36.9276 343.168-7.461-4.148c-.1852-.095-.3406-.239-.4491-.417-.1085-.177-.1659-.381-.1659-.59 0-.208.0574-.412.1659-.589.1085-.178.2639-.322.4491-.417l7.461-4.148c.1741-.104.3728-.158.5753-.159.2025 0 .4013.054.5758.157.1744.103.318.25.4158.428.0978.177.1462.377.1401.58v8.309c.004.201-.0459.4-.1445.576-.0987.175-.2425.321-.4165.423-.1741.101-.3721.154-.5736.154-.2015-.001-.3991-.056-.5724-.159z"/><path d="m46.6717 338.624-5.8106-6.094c-.1456-.146-.2484-.329-.2975-.529-.049-.2-.0423-.41.0194-.607.0618-.197.1761-.373.3307-.509.1546-.137.3436-.228.5466-.265l8.4219-1.786c.1928-.042.3934-.033.5817.026s.3578.167.4915.312c.1338.145.2272.323.271.516.0437.192.0363.393-.0216.581l-2.6114 7.914c-.0566.192-.1635.366-.3097.504s-.3264.234-.5221.279-.3998.037-.5914-.024c-.1915-.06-.3636-.17-.4985-.318z"/><path d="m56.5529 337.55-2.5322-7.913c-.0676-.193-.0817-.4-.0407-.601.0411-.2.1356-.385.2736-.536.1381-.151.3144-.261.5103-.32.1958-.058.4039-.063.602-.012l8.4332 1.831c.2011.04.3875.134.5393.272.1518.137.2633.314.3225.51.0593.196.064.405.0138.604-.0503.199-.1537.38-.299.524l-5.8671 6.082c-.1335.158-.3077.276-.5037.342s-.4062.076-.6078.031c-.2016-.046-.3869-.145-.5358-.289-.1488-.143-.2555-.325-.3084-.525z"/><path d="m65.7315 341.892.9157-8.229c.017-.201.0872-.393.2032-.557s.2737-.294.4569-.377c.1831-.083.385-.116.585-.095.1999.021.3906.095.5523.215l6.9636 4.895c.1714.114.3084.272.3962.458s.1232.393.1022.598c-.0209.204-.0974.4-.221.564-.1237.165-.29.292-.4808.369l-7.9132 3.392c-.1871.08-.3925.108-.5944.082-.2019-.027-.3928-.108-.5526-.234s-.2825-.293-.3552-.484c-.0728-.19-.0927-.396-.0579-.597z"/><path d="m72.4461 349.624 3.8662-7.427c.0882-.18.2227-.334.3897-.445s.3605-.175.5607-.187c.2002-.011.3999.031.5785.122.1787.091.3299.228.4381.397l4.7366 6.941c.1217.166.1956.363.2137.568.018.206-.0204.412-.1112.597s-.2305.342-.404.453c-.1735.112-.3741.174-.5803.179l-8.614.475c-.2031.015-.4066-.025-.5888-.116s-.3365-.229-.4465-.401c-.11-.171-.1717-.369-.1785-.573-.0068-.203.0415-.405.1398-.583z"/></g><g mask="url(#f)"><path d="m224.836 395.465h-130.8975s-12.4102-48.228-12.4102-93.857c0-45.628 12.4102-75.712 12.4102-75.712h130.8975z" fill="#000" opacity=".15"/></g></g><g clip-path="url(#b)"><path d="m135.65 240.196s-20.373 7.279-25.139 13.026-9.791 17.895-2.185 23.797c7.605 5.902 31.489 14.144 31.489 14.144z" fill="#7cc7c3"/><path d="m291.511 237.478s20.373 7.261 25.139 13.008 9.791 17.895 2.185 23.814c-7.605 5.92-31.488 14.145-31.488 14.145z" fill="#7cc7c3"/><path d="m186.565 394.389c14.884-2.443 12.613-31.403 12.613-31.403s-.172-1.187 13.766-1.48c13.937-.292 13.593 4.56 13.593 4.56s-6.005 28.254 17.483 28.254c23.487 0 24.244-20.889 36.582-37.236 12.337-16.346 15.021-106.941 7.88-170.951-4.353-48.627-51.621-49.522-76.726-49.522s-68.07-.275-75.607 47.199c-3.717 33.76-10.324 127.538 6.728 167.975 11.167 34.327 28.804 45.047 43.688 42.604z" fill="#5a6174"/><path d="m142.07 217.846-4.491 26.292c-.338 1.988-.178 4.028.467 5.939.645 1.91 1.754 3.631 3.227 5.007 1.474 1.377 3.266 2.366 5.216 2.879s3.997.534 5.957.061l20.063-4.835c1.934-.474 3.723-1.415 5.21-2.741 1.486-1.326 2.624-2.996 3.316-4.864.691-1.868.913-3.877.648-5.851s-1.011-3.853-2.171-5.472l-15.589-21.526c-1.41-1.935-3.359-3.412-5.604-4.246s-4.685-.988-7.017-.442c-2.331.545-4.451 1.765-6.093 3.508s-2.734 3.931-3.139 6.291z" fill="#eeeae5"/><path d="m259.87 208.778-13.852 22.661c-1.043 1.716-1.646 3.664-1.755 5.669-.109 2.006.28 4.007 1.131 5.826.852 1.819 2.14 3.399 3.75 4.6 1.61 1.2 3.492 1.985 5.478 2.282l20.39 3.184c1.988.308 4.022.119 5.92-.55s3.6-1.799 4.955-3.286c1.355-1.488 2.32-3.289 2.81-5.24.489-1.952.487-3.995-.005-5.946l-6.539-25.811c-.571-2.347-1.827-4.472-3.609-6.104-1.781-1.632-4.008-2.697-6.396-3.06-2.389-.364-4.831-.008-7.018 1.02-2.186 1.028-4.017 2.683-5.26 4.755z" fill="#eeeae5"/><path d="m291.974 237.72c2.1 52.67-2.684 104.721-8.758 115.562-2.288 5.42-15.676 41.038-39.146 41.038s-17.482-28.253-17.482-28.253.413-4.836-13.594-4.56c-14.006.275-13.765 1.48-13.765 1.48s2.306 28.959-12.665 31.402c-14.97 2.444-32.521-8.276-43.671-42.604-10.324-24.486-12.045-69.775-10.857-109.196 0 0 45.615.104 80.046-.602 34.432-.705 79.892-4.267 79.892-4.267z" fill="#798e9c"/><path d="m213.665 338.569c-29.08 0-67.606-5.024-70.549-15.727-5.816-14.454-8.259-49.126-7.175-81.165 0 0 43.62 0 76.554-.499s76.399-3.442 76.399-3.442c1.996 42.811-4.749 81.991-7.657 89.477-2.908 7.485-38.406 11.356-67.572 11.356z" fill="#f2a374"/><path d="m196.339 229.804c2.632 0 4.766-2.172 4.766-4.852s-2.134-4.852-4.766-4.852c-2.633 0-4.767 2.172-4.767 4.852s2.134 4.852 4.767 4.852z" fill="#eeeae5"/><path d="m196.373 227.74c1.492 0 2.702-1.233 2.702-2.753 0-1.521-1.21-2.754-2.702-2.754s-2.701 1.233-2.701 2.754c0 1.52 1.209 2.753 2.701 2.753z" fill="#5a6174"/><path d="m229.015 229.805c2.633 0 4.767-2.172 4.767-4.852s-2.134-4.852-4.767-4.852c-2.632 0-4.766 2.172-4.766 4.852s2.134 4.852 4.766 4.852z" fill="#eeeae5"/><path d="m229.239 227.741c1.492 0 2.701-1.233 2.701-2.754 0-1.52-1.209-2.753-2.701-2.753s-2.702 1.233-2.702 2.753c0 1.521 1.21 2.754 2.702 2.754z" fill="#5a6174"/><g mask="url(#g)"><path d="m336.18 442.465h-123.771s-11.734-99.101-11.734-192.863c0-93.761 11.734-155.5776 11.734-155.5776h123.771z" fill="#000" opacity=".15"/></g></g><g stroke-linecap="round"><path d="m475.157 73.2802s-17.334 5.9694-22.109 12.8453c-4.776 6.8759-4.068 33.9155-12.845 41.6095-5.718 4.641-13.032 6.849-20.363 6.146l-21.445-36.5021s15.144 4.2231 21.733-2.2109c6.588-6.4337 12.889-23.7892 23.081-28.7416 10.193-4.9524 31.948 6.8538 31.948 6.8538z" fill="#5a6174" stroke="#5a6174" stroke-linejoin="round" stroke-width="1.33671"/><path d="m440.468 128-21.998-32.5889" stroke="#6ec6d8" stroke-miterlimit="10" stroke-width="2.00507"/><path d="m448.603 105.184-19.544-22.8168" stroke="#6ec6d8" stroke-miterlimit="10" stroke-width="2.00507"/><path d="m455.127 83.1866-14.658-14.6583" stroke="#6ec6d8" stroke-miterlimit="10" stroke-width="2.00507"/><path d="m233.02 70.8262s17.333 5.9694 22.108 12.8453c4.776 6.8759 4.069 33.9375 12.846 41.6095 5.718 4.643 13.029 6.858 20.362 6.168l21.446-36.5241s-15.145 4.2228-21.755-2.2109c-6.611-6.4337-12.868-23.745-23.06-28.7416s-31.947 6.8538-31.947 6.8538z" fill="#5a6174" stroke="#5a6174" stroke-linejoin="round" stroke-width="1.33671"/><path d="m267.708 125.546 21.998-32.589" stroke="#6ec6d8" stroke-miterlimit="10" stroke-width="2.00507"/><path d="m259.573 102.729 19.545-22.7944" stroke="#6ec6d8" stroke-miterlimit="10" stroke-width="2.00507"/><path d="m253.051 80.7295 14.658-14.6582" stroke="#6ec6d8" stroke-miterlimit="10" stroke-width="2.00507"/></g><path d="m292.403 358.75c-1.736 4.937-2.626 10.132-2.631 15.366 0 8.689 8.645 13.575 14.128 14.636 7.063 1.084 14.25 1.084 21.313 0 6.456-1.061 10.524-19.898 10.524-19.898z" fill="#5a6174"/><path d="m414.555 358.751c1.737 4.937 2.627 10.132 2.631 15.366 0 8.689-8.644 13.575-14.127 14.636-7.063 1.084-14.25 1.084-21.313 0-6.456-1.061-10.524-19.898-10.524-19.898z" fill="#5a6174"/><path d="m433.901 97.0259c-11.055 1.2381-24.851-2.852-24.851-2.852s13.443-9.3521 11.807-10.1701c-8.968 1.87-18.23 1.8097-27.172-.1769-.995-.5306-2.012-1.0391-3.029-1.5255 0-.1548.155-.2653.464-.3317.31-.0663 10.657-5.7041 8.158-7.3401-12.27 2.2109-24.762-2.0562-35.728-.1769-3.551-.4268-7.124-.6409-10.701-.6412-39.199 0-71.787 25.3148-78.553 58.4785-3.294 10.723-8.976 28.034-14.326 37.585 7.34-3.25 13.044-13.575 13.044-13.575-1.231 10.008-5.176 19.488-11.408 27.415 1.348 1.371 8.843-1.791 11.408-2.874v2.056c-1.282 3.67-3.913 10.436-6.522 13.044-3.67 3.67 6.522 0 6.522 0v117.001c0 39.31 35.728 71.169 79.835 71.169 44.108 0 79.88-31.793 79.88-71.103v-168.028c-.027-14.224-4.683-28.054-13.265-39.398h.309s14.526-6.4557 14.128-8.5561z" fill="#ee787a"/><path d="m318.957 244.668-3.404-7.318c-.56-1.151-.824-2.424-.768-3.703s.43-2.524 1.089-3.621c.658-1.098 1.581-2.014 2.683-2.666 1.102-.651 2.349-1.017 3.628-1.065l6.191-.309c1.264-.066 2.524.181 3.67.719 1.145.538 2.141 1.351 2.897 2.365.757 1.015 1.251 2.2 1.44 3.452.189 1.251.066 2.53-.357 3.723l-2.786 7.693c-.504 1.451-1.429 2.719-2.658 3.641-1.228.922-2.704 1.456-4.238 1.534-1.534.079-3.056-.302-4.372-1.094s-2.366-1.959-3.015-3.351z" fill="#fdd38b"/><path d="m378.21 242.59-2.211-7.782c-.327-1.218-.35-2.496-.068-3.725.282-1.228.86-2.369 1.685-3.322.824-.953 1.87-1.69 3.045-2.146s2.443-.617 3.695-.469l6.146.752c1.258.147 2.461.603 3.501 1.326 1.039.724 1.884 1.693 2.46 2.822.575 1.128.863 2.381.837 3.648-.025 1.267-.363 2.507-.983 3.612l-3.98 7.053c-.75 1.329-1.878 2.406-3.242 3.092-1.363.686-2.9.952-4.415.762-1.514-.19-2.939-.826-4.091-1.827s-1.98-2.323-2.379-3.796z" fill="#fdd38b"/><path d="m275.447 235.116s27.261-9.374 78.598-9.374 77.823 9.374 77.823 9.374" stroke="#b55a5b" stroke-linecap="round" stroke-linejoin="round" stroke-width="3.34178"/><path d="m353.646 207.637c22.491 0 40.724-18.233 40.724-40.725 0-22.491-18.233-40.724-40.724-40.724-22.492 0-40.725 18.233-40.725 40.724 0 22.492 18.233 40.725 40.725 40.725z" fill="#eeeae5"/><path d="m353.646 189.088c12.247 0 22.175-9.928 22.175-22.175s-9.928-22.176-22.175-22.176-22.175 9.929-22.175 22.176 9.928 22.175 22.175 22.175z" fill="#5a6174"/><g mask="url(#h)"><path d="m578.649 428.55h-212.041s-20.103-125.762-20.103-244.747c0-118.9853 20.103-197.4319 20.103-197.4319h212.041z" fill="#000" opacity=".15"/></g><g clip-path="url(#c)"><g stroke-linecap="round" stroke-width="2.00507"><path d="m852.913 5.00749s-17.352 16.26901-19.227 26.88611 13.205 42.2571 6.893 56.0963c-4.319 8.5285-11.81 15.0241-20.864 18.0911l-44.899-31.6926s20.178-3.0372 24.589-14.1297c4.41-11.0925 2.641-34.9942 12.017-46.298 9.375-11.30377 41.491-8.95321 41.491-8.95321z" fill="#5e5c64" stroke="#5e5c64" stroke-linejoin="round"/><path d="m840.898 88.2016-43.34-26.9125" stroke="#ee787a" stroke-miterlimit="10"/><path d="m838.44 56.879-35.258-16.6388" stroke="#ee787a" stroke-miterlimit="10"/><path d="m834.48 27.3791-25.143-9.5871" stroke="#ee787a" stroke-miterlimit="10"/><path d="m630.51 5.00749s17.325 16.26901 19.227 26.88611c1.901 10.6171-13.206 42.2571-6.893 56.0963 4.313 8.5233 11.793 15.0181 20.838 18.0911l44.898-31.6926s-20.178-3.0372-24.589-14.1297c-4.41-11.0925-2.641-34.9942-12.016-46.298-9.376-11.30377-41.465-8.95321-41.465-8.95321z" fill="#5e5c64" stroke="#5e5c64" stroke-linejoin="round"/><path d="m642.421 88.2016 43.34-26.9125" stroke="#ee787a" stroke-miterlimit="10"/><path d="m644.879 56.879 35.258-16.6388" stroke="#ee787a" stroke-miterlimit="10"/><path d="m648.84 27.3791 25.143-9.5871" stroke="#ee787a" stroke-miterlimit="10"/></g><path d="m896.861 302.868-30.663-138.841c-2.641-12.308-32.538-98.38-122.572-101.5493-90.034-3.1692-123.681 79.2053-126.533 92.0153l-30.663 138.841c-2.826 12.809 4.569 25.671 16.533 28.708 1.685.417 3.414.63 5.15.634 5.176-.142 10.147-2.055 14.084-5.42 3.936-3.364 6.6-7.977 7.547-13.068l3.75-16.955c1.136 16.374 8.425 98.274 41.385 102.077 13.206 0 33.278-17.325 45.321-29.052 7.604 1.948 15.419 2.95 23.268 2.985 4.117-.016 8.229-.308 12.307-.872 10.327 10.564 35.285 34.334 50.682 34.334 36.606-4.252 41.544-104.93 41.544-104.93l-.528.37.872-1.928 5.282 23.479c.947 5.091 3.61 9.704 7.547 13.068 3.936 3.365 8.907 5.277 14.083 5.42 1.78.007 3.555-.206 5.282-.634 11.753-3.011 19.148-15.873 16.322-28.682z" fill="#7b8589"/><path d="m740.668 361.263c59.016 0 106.858-46.955 106.858-104.877s-47.842-104.877-106.858-104.877-106.857 46.955-106.857 104.877 47.841 104.877 106.857 104.877z" fill="#5a6174" stroke="#5a6174" stroke-miterlimit="10" stroke-width="2.00507"/><path d="m699.996 138.433c5.514 0 9.983-4.469 9.983-9.983s-4.469-9.983-9.983-9.983-9.983 4.469-9.983 9.983 4.469 9.983 9.983 9.983z" fill="#eeeae5"/><path d="m699.997 133.891c3.005 0 5.441-2.436 5.441-5.441 0-3.004-2.436-5.44-5.441-5.44s-5.44 2.436-5.44 5.44c0 3.005 2.435 5.441 5.44 5.441z" fill="#5a6174"/><path d="m775.187 135.449c5.514 0 9.984-4.47 9.984-9.983 0-5.514-4.47-9.984-9.984-9.984-5.513 0-9.983 4.47-9.983 9.984 0 5.513 4.47 9.983 9.983 9.983z" fill="#eeeae5"/><path d="m775.188 130.907c3.004 0 5.44-2.436 5.44-5.441s-2.436-5.441-5.44-5.441c-3.005 0-5.441 2.436-5.441 5.441s2.436 5.441 5.441 5.441z" fill="#5a6174"/><path d="m674.537 193.423-7.923-3.302c-.68-.276-1.281-.716-1.749-1.282s-.788-1.238-.932-1.958-.107-1.464.107-2.166.6-1.34 1.121-1.856l4.675-4.702c.519-.515 1.157-.894 1.858-1.105.701-.21 1.443-.246 2.16-.102.717.143 1.389.461 1.954.925.566.464 1.009 1.06 1.291 1.735l3.301 7.923c.376.822.493 1.739.334 2.628-.159.89-.586 1.709-1.224 2.35-.637.64-1.455 1.07-2.344 1.233s-1.806.051-2.629-.321z" fill="#eeeae5"/><path d="m694.107 181.3-8.715-6.681c-.739-.564-1.327-1.3-1.713-2.145s-.558-1.772-.5-2.698c.057-.927.342-1.826.83-2.616.487-.791 1.161-1.449 1.964-1.917l7.289-4.226c.81-.494 1.73-.776 2.678-.82.947-.045 1.89.15 2.742.565.853.416 1.587 1.039 2.135 1.813s.893 1.673 1.002 2.615l1.426 10.881c.167 1.125-.009 2.274-.506 3.297-.496 1.024-1.29 1.873-2.277 2.438s-2.122.819-3.256.729c-1.133-.091-2.213-.521-3.099-1.235z" fill="#eeeae5"/><path d="m719.224 172.294-6.603-10.564c-.556-.9-.882-1.924-.949-2.981-.067-1.056.128-2.112.566-3.076.439-.963 1.108-1.804 1.949-2.447.84-.643 1.826-1.07 2.871-1.241l9.428-1.559c1.058-.182 2.144-.097 3.16.248 1.016.344 1.931.936 2.66 1.723s1.25 1.744 1.516 2.783c.266 1.04.268 2.129.007 3.17l-2.958 12.016c-.309 1.214-.964 2.312-1.887 3.159-.922.848-2.071 1.408-3.307 1.612-1.235.205-2.504.045-3.65-.46s-2.12-1.333-2.803-2.383z" fill="#eeeae5"/><path d="m806.748 193.423 7.924-3.302c.68-.276 1.28-.716 1.748-1.282s.789-1.238.932-1.958c.144-.72.108-1.464-.107-2.166-.214-.702-.599-1.34-1.121-1.856l-4.675-4.702c-.519-.515-1.157-.894-1.858-1.105-.701-.21-1.442-.246-2.16-.102-.717.143-1.388.461-1.954.925s-1.009 1.06-1.29 1.735l-3.302 7.923c-.376.822-.492 1.739-.333 2.628.159.89.585 1.709 1.223 2.35.637.64 1.455 1.07 2.344 1.233s1.806.051 2.629-.321z" fill="#eeeae5"/><path d="m787.178 181.3 8.716-6.682c.737-.565 1.323-1.304 1.707-2.15s.553-1.773.493-2.7-.347-1.825-.837-2.615c-.49-.789-1.167-1.445-1.971-1.911l-7.289-4.226c-.806-.464-1.714-.722-2.643-.751-.93-.029-1.852.172-2.685.585-.834.413-1.552 1.025-2.092 1.782-.541.757-.886 1.635-1.005 2.557l-1.426 10.882c-.146 1.106.04 2.232.533 3.233.494 1.002 1.273 1.835 2.239 2.394s2.076.82 3.19.749c1.115-.071 2.183-.47 3.07-1.147z" fill="#eeeae5"/><path d="m761.771 172.479 6.894-10.564c.59-.881.953-1.893 1.057-2.948.103-1.055-.056-2.119-.464-3.098-.408-.978-1.052-1.84-1.875-2.509-.822-.668-1.798-1.123-2.839-1.323l-9.402-1.822c-1.04-.204-2.115-.148-3.129.163-1.013.311-1.934.868-2.681 1.62-.748.752-1.297 1.677-1.601 2.693s-.353 2.091-.142 3.13l2.482 12.255c.233 1.261.837 2.424 1.735 3.341.898.916 2.049 1.543 3.306 1.801 1.256.258 2.561.136 3.748-.352 1.186-.488 2.2-1.319 2.911-2.387z" fill="#eeeae5"/><path d="m651.851 202.005c-.801.005-1.584-.234-2.245-.686-.857-.598-1.446-1.509-1.638-2.536-.193-1.028.026-2.09.608-2.958 10.281-14.869 24.01-27.027 40.012-35.435 16.003-8.408 33.803-12.816 51.88-12.847s35.893 4.316 51.924 12.669c16.032 8.352 29.802 20.463 40.135 35.296.556.866.753 1.914.55 2.923-.203 1.008-.79 1.898-1.638 2.482-.847.583-1.888.814-2.903.643s-1.923-.729-2.533-1.558c-9.602-13.772-22.395-25.016-37.287-32.771-14.891-7.755-31.438-11.791-48.227-11.762-16.79.029-33.323 4.12-48.188 11.926-14.865 7.805-27.62 19.092-37.175 32.898-.367.529-.856.961-1.427 1.26-.57.299-1.204.456-1.848.456z" fill="#7cc7c3"/><g mask="url(#i)"><path d="m1154.44 512.246h-407.83s-38.666-157.466-38.666-306.447c0-148.9806 38.666-247.2033 38.666-247.2033h407.83z" fill="#000" opacity=".15"/></g></g><path d="m473.257 143.767s-5.286-3.735-9.449-17.368c-2.796-25.612 13.245-29.0201 13.245-29.0201s5.714 14.6331 9.857 20.4081c4.143 5.776 11.816 4.551 11.816 4.551z" fill="#f2a374"/><path d="m602.564 139.44s5.265-3.715 9.428-17.368c2.796-25.6121-13.265-29.0202-13.265-29.0202s-5.694 14.6322-9.837 20.4082-11.877 4.653-11.877 4.653z" fill="#f2a374"/><path d="m533.237 380.196c-76.429-11.02-111.613-11.02-123.266-89.959-4.49-57.796 15.612-89.633 33.143-118.042 17.531-28.408 66.796-55.857 71.429-60.122 4.633-4.266-2.755-13.0616-1.163-12.98s13.714 4.204 13.714 4.204l-4.877-11.1632s16.653 4.347 21.408 8.3882c4.755 4.04 6.122 11.714 7.816 12.02s2.041.245 2.796-.796-2.592-13.2856-.918-14.2857c3.734-.7551 22.571 16.8577 22.571 16.8577l1.143-6.919 4.082 6.694c17.262 16.412 32.742 34.602 46.184 54.266 22.449 33.632 40.122 76.102 38.775 106.755 0 66.164-56.408 116.083-132.837 105.082z" fill="#7d8ba8" stroke="#7d8ba8" stroke-linecap="round" stroke-linejoin="round" stroke-width=".668356"/><path d="m462.991 337.38c-3.047 8.612-4.606 17.681-4.612 26.816 0 15.123 15.082 23.633 24.653 25.511 12.323 1.879 24.861 1.879 37.184 0 11.245-1.878 18.367-34.592 18.367-34.592z" fill="#5a6174"/><path d="m610.441 344.481c1.919 8.925 2.298 18.112 1.122 27.164-2.041 15.02-18 21.51-27.714 22.143-12.464.282-24.898-1.328-36.878-4.776-10.918-3.306-13.735-36.735-13.735-36.735z" fill="#5a6174"/><path d="m630.604 233.706c14.735 59.714 19.878 142.858-94.817 142.021-121.755-.898-101.469-97.49-85.51-142.287 0 0 25.918-15.51 84.878-16.326 58.959-.817 95.449 16.592 95.449 16.592z" fill="#fcd28a"/><path d="m537.501 377.849h-1.632c-43.674-.306-73.47-12.939-88.47-37.531-12.408-20.408-14.531-49.306-6.123-83.816 3.935-15.942 9.459-31.448 16.49-46.286.124-.245.294-.464.502-.643.207-.18.448-.317.709-.403s.536-.12.809-.1c.274.02.541.094.786.217.246.123.464.294.644.502.179.207.316.448.402.709.086.26.12.535.1.809s-.094.541-.217.786c-.388.776-39.204 79.123-10.51 126.062 14.286 23.266 42.857 35.225 84.919 35.531 42.51.306 72.041-11.531 87.755-35.204 31.102-46.939-2.265-125.572-2.592-126.368-.108-.251-.166-.52-.171-.793-.004-.273.045-.545.146-.799.1-.254.25-.485.44-.681.19-.197.416-.353.667-.462.25-.109.52-.167.793-.171s.544.045.798.145c.254.101.486.25.682.44s.353.417.462.668c6.055 14.992 10.542 30.572 13.387 46.49 6.123 34.694 2.286 63.592-11.142 83.837-16.429 24.571-46.552 37.061-89.634 37.061z" fill="#5a6174"/><path d="m492.074 195.522c6.931 0 12.551-5.619 12.551-12.551s-5.62-12.551-12.551-12.551c-6.932 0-12.552 5.619-12.552 12.551s5.62 12.551 12.552 12.551z" fill="#eeeae5"/><path d="m492.074 189.807c3.776 0 6.837-3.061 6.837-6.836 0-3.776-3.061-6.837-6.837-6.837s-6.837 3.061-6.837 6.837c0 3.775 3.061 6.836 6.837 6.836z" fill="#5a6174"/><path d="m475.011 171.195 37.225 2.878 6.327-15.857-48.042 1.367z" fill="#5a6174"/><path d="m580.707 195.522c6.932 0 12.551-5.619 12.551-12.551s-5.619-12.551-12.551-12.551c-6.931 0-12.551 5.619-12.551 12.551s5.62 12.551 12.551 12.551z" fill="#eeeae5"/><path d="m580.707 189.807c3.776 0 6.837-3.061 6.837-6.836 0-3.776-3.061-6.837-6.837-6.837s-6.837 3.061-6.837 6.837c0 3.775 3.061 6.836 6.837 6.836z" fill="#5a6174"/><path d="m601.401 174.583-39.306 1.796-6.245-16.041 50.612 2.775z" fill="#5a6174"/><path d="m522.97 198.423 4.898 7.347 5.183-7.347z" fill="#fff"/><path d="m544.012 198.422 4.898 7.347 5.183-7.347z" fill="#fff"/><path d="m553.319 198.135h-29.51" stroke="#5a6174" stroke-linecap="round" stroke-linejoin="round" stroke-width="1.33671"/><g mask="url(#j)"><path d="m687.925 450.626h-176.397s-16.724-104.752-16.724-203.858c0-99.107 16.724-164.4477 16.724-164.4477h176.397z" fill="#000" opacity=".15"/></g><g clip-path="url(#d)"><path d="m870.304 213.089s-17.751 4.522-21.896 7.981-8.537 10.988-1.915 14.628c6.623 3.64 27.437 8.659 27.437 8.659z" fill="#7cc7c3"/><path d="m981.943 208.183s17.751 4.521 21.897 7.981c4.14 3.459 8.51 10.988 1.89 14.628-6.622 3.64-27.414 8.659-27.414 8.659z" fill="#7cc7c3"/><path d="m870.935 335.178c-14.912 6.987-11.691 38.006-11.691 44.744 0 6.737 6.758 10.513 10.926 11.304 5.472.838 11.039.838 16.511 0 4.979-.836 11.106-24.169 11.106-24.169s-11.939-38.865-26.852-31.879z" fill="#ee787a"/><path d="m981.247 335.179c14.912 6.986 11.691 38.006 11.691 44.743 0 6.738-6.758 10.514-10.925 11.305-5.465.837-11.025.837-16.49 0-5-.791-11.083-24.192-11.083-24.192s11.894-38.842 26.807-31.856z" fill="#ee787a"/><path d="m876.724 156.114c-1.09.016-2.169-.229-3.148-.712s-1.83-1.192-2.483-2.068c-25.77-34.321-26.221-62.3565-26.221-63.5322-.006-1.849.719-3.6249 2.015-4.9387 1.296-1.3137 3.059-2.0582 4.901-2.0701 1.834-.0001 3.594.7266 4.898 2.0222 1.303 1.2955 2.044 3.0551 2.062 4.8962 0 .4069.721 24.9826 23.473 55.2116.82 1.033 1.331 2.278 1.473 3.591s-.091 2.64-.672 3.825-1.486 2.18-2.609 2.869c-1.123.688-2.418 1.042-3.734 1.02z" fill="#5a6174"/><path d="m852.059 97.6911c10.438 0 18.899-8.4928 18.899-18.9691s-8.461-18.9691-18.899-18.9691-18.9 8.4928-18.9 18.9691 8.462 18.9691 18.9 18.9691z" fill="#eeeae5"/><path d="m852.058 101.671c-4.529.005-8.957-1.339-12.724-3.8616-3.767-2.5223-6.704-6.1097-8.439-10.308s-2.19-8.8188-1.308-13.2769c.882-4.458 3.063-8.5531 6.265-11.767s7.282-5.4021 11.724-6.2877c4.441-.8856 9.045-.4288 13.228 1.3126s7.757 4.6891 10.27 8.4702c2.513 3.781 3.852 8.2253 3.848 12.7704-.012 6.0826-2.425 11.9126-6.71 16.2137s-10.094 6.7223-16.154 6.7343zm0-37.9153c-2.95 0-5.833.8779-8.285 2.5225-2.453 1.6446-4.364 3.9822-5.493 6.7171-1.128 2.7349-1.424 5.7443-.848 8.6477.575 2.9033 1.995 5.5702 4.081 7.6635 2.086 2.0932 4.743 3.5187 7.635 4.0962 2.893.5775 5.891.2811 8.616-.8517 2.725-1.1329 5.054-3.0513 6.693-5.5126 1.638-2.4614 2.513-5.3552 2.513-8.3154 0-3.9696-1.571-7.7765-4.368-10.5834-2.796-2.807-6.589-4.3839-10.544-4.3839z" fill="#7cc7c3"/><path d="m855.618 86.7708c4.727 0 8.56-3.8465 8.56-8.5914 0-4.745-3.833-8.5915-8.56-8.5915-4.728 0-8.56 3.8465-8.56 8.5915 0 4.7449 3.832 8.5914 8.56 8.5914z" fill="#5a6174"/><path d="m966.581 149.129c-1.298.009-2.573-.347-3.679-1.028-1.107-.681-2.001-1.661-2.58-2.827-.58-1.165-.822-2.471-.699-3.768s.606-2.534 1.394-3.569c22.842-30.341 23.472-54.9853 23.472-55.234 0-1.8528.734-3.6298 2.039-4.94 1.306-1.3102 3.076-2.0462 4.922-2.0462s3.617.736 4.922 2.0462 2.039 3.0872 2.039 4.94c0 1.1757-.451 29.211-26.288 63.532-.631.887-1.461 1.612-2.425 2.115-.963.503-2.031.77-3.117.779z" fill="#5a6174"/><path d="m989.242 94.6862c10.438 0 18.898-8.4927 18.898-18.9691 0-10.4763-8.46-18.9691-18.898-18.9691s-18.899 8.4928-18.899 18.9691c0 10.4764 8.461 18.9691 18.899 18.9691z" fill="#eeeae5"/><path d="m989.243 98.6651c-4.521-.0044-8.939-1.3541-12.696-3.8784-3.758-2.5243-6.685-6.1099-8.412-10.3036-1.727-4.1936-2.176-8.807-1.292-13.2571.885-4.45 3.065-8.5369 6.263-11.744 3.199-3.2071 7.273-5.3905 11.707-6.2741 4.435-.8837 9.031-.4279 13.207 1.3097 4.18 1.7375 7.75 4.6789 10.26 8.4522s3.85 8.2093 3.85 12.7471c-.01 6.0883-2.42 11.9252-6.71 16.2282s-10.111 6.72-16.177 6.72zm0-37.9155c-2.949 0-5.833.8778-8.285 2.5224-2.452 1.6447-4.364 3.9822-5.492 6.7171-1.129 2.7349-1.424 5.7444-.849 8.6477.576 2.9034 1.996 5.5703 4.081 7.6635 2.086 2.0932 4.743 3.5187 7.636 4.0962 2.892.5775 5.891.2811 8.616-.8517s5.05-3.0512 6.69-5.5126c1.64-2.4613 2.52-5.3551 2.52-8.3153-.01-3.9678-1.58-7.7713-4.379-10.5769-2.795-2.8056-6.585-4.3844-10.538-4.3904z" fill="#7cc7c3"/><path d="m984.872 84.7826c4.728 0 8.56-3.8466 8.56-8.5915 0-4.745-3.832-8.5915-8.56-8.5915-4.727 0-8.56 3.8465-8.56 8.5915 0 4.7449 3.833 8.5915 8.56 8.5915z" fill="#5a6174"/><path d="m925.855 379.086c-7.312 0-14.552-1.445-21.307-4.254-6.754-2.809-12.892-6.926-18.061-12.117-5.169-5.19-9.268-11.351-12.064-18.132s-4.234-14.048-4.231-21.386c0 0-3.311-11.305-2.838-72.598.473-61.294 2.838-84.423 2.838-84.423-.149-7.433 1.181-14.82 3.912-21.731 2.731-6.91 6.808-13.204 11.993-18.514 5.184-5.309 11.372-9.527 18.201-12.406 6.828-2.88 14.161-4.363 21.568-4.363s14.739 1.483 21.568 4.363c6.829 2.879 13.016 7.097 18.201 12.406 5.184 5.31 9.262 11.604 11.993 18.514 2.73 6.911 4.06 14.298 3.911 21.731 0 0 3.56 38.074 3.762 84.423.203 46.348-3.829 72.598-3.829 72.598 0 14.811-5.858 29.016-16.286 39.496-10.428 10.479-24.575 16.376-39.331 16.393z" fill="#79909c"/><path d="m926.62 355.119c-7.91 0-15.496-3.153-21.09-8.767-5.593-5.614-8.735-13.228-8.735-21.167v-124.735c0-7.939 3.142-15.553 8.735-21.167 5.594-5.614 13.18-8.767 21.09-8.767s15.496 3.153 21.089 8.767 8.735 13.228 8.735 21.167v124.735c0 7.939-3.142 15.553-8.735 21.167s-13.179 8.767-21.089 8.767z" fill="#f2a374"/><g stroke="#f39b99" stroke-linecap="round" stroke-linejoin="round" stroke-width="3.34178"><path d="m900.265 214.423h52.689"/><path d="m900.264 240.875h52.689"/><path d="m900.264 267.802h52.689"/><path d="m900.264 293.759h52.689"/><path d="m901.255 319.714h52.711"/></g><g mask="url(#k)"><path d="m1183.8 478.569h-240.621s-22.813-129.784-22.813-252.574 22.813-203.745 22.813-203.745h240.621z" fill="#000" opacity=".15"/></g></g><g clip-path="url(#e)"><path d="m1228.83 372.115-4.59-57.382c0-26.251-23.79-47.498-53.21-47.498-29.43 0-53.21 21.263-53.21 47.498l-5.3 60.228c-.72.666-1.3 1.473-1.71 2.372-.4.898-.61 1.87-.62 2.854 0 4.216 3.83 7.637 8.56 7.637 4.72 0 8.55-3.421 8.55-7.637 0-.107 0-.213 0-.328h.04c.15-1.088.71-2.077 1.56-2.777.85-.699 1.92-1.057 3.02-1.005 1.05-.037 2.09.299 2.91.947.83.648 1.41 1.567 1.63 2.597h.06v.591c0 4.216 3.83 7.637 8.55 7.637 4.73 0 8.55-3.421 8.55-7.637 0-.363-.03-.725-.09-1.083h.26c.35-.87.94-1.62 1.7-2.157.77-.537 1.68-.838 2.61-.865.94-.027 1.86.22 2.65.712.8.492 1.43 1.207 1.83 2.055h.4c-.09.445-.14.899-.15 1.354 0 4.216 3.83 7.637 8.56 7.637 4.72 0 8.55-3.421 8.55-7.637 0-.622-.09-1.24-.26-1.838h.31c.16-1.147.73-2.195 1.62-2.936.89-.742 2.03-1.122 3.18-1.067 2.66 0 4.82 1.928 4.82 4.299 0 .603-.14 1.198-.41 1.739.1 4.101 3.89 7.448 8.54 7.448s8.5-3.47 8.5-7.686c0-.887-.17-1.765-.51-2.584h.61c.28-.972.87-1.824 1.69-2.419.81-.595 1.81-.899 2.82-.862.96-.028 1.9.248 2.69.787.8.539 1.4 1.314 1.73 2.215h.27c-.06.366-.1.736-.1 1.107 0 4.225 3.83 7.638 8.55 7.638 4.71 0 8.55-3.413 8.55-7.638-.02-1.283-.37-2.54-1.02-3.647-.65-1.106-1.58-2.026-2.69-2.669z" fill="#ee787a"/><g fill="#fcd28a"><path d="m1174.01 354.372c1.1 0 1.99-.893 1.99-1.994s-.89-1.993-1.99-1.993c-1.11 0-2 .892-2 1.993s.89 1.994 2 1.994z"/><path d="m1183.51 366.644c1.1 0 2-.892 2-1.993s-.9-1.994-2-1.994-1.99.893-1.99 1.994.89 1.993 1.99 1.993z"/><path d="m1167.84 370.556c1.1 0 1.99-.892 1.99-1.993s-.89-1.994-1.99-1.994-2 .893-2 1.994.9 1.993 2 1.993z"/><path d="m1182.21 329.204c1.1 0 1.99-.893 1.99-1.994s-.89-1.993-1.99-1.993-2 .892-2 1.993.9 1.994 2 1.994z"/><path d="m1185.69 341.394c1.1 0 1.99-.892 1.99-1.993s-.89-1.994-1.99-1.994-2 .893-2 1.994.9 1.993 2 1.993z"/><path d="m1224 376.651c1.1 0 1.99-.893 1.99-1.994 0-1.1-.89-1.993-1.99-1.993s-2 .893-2 1.993c0 1.101.9 1.994 2 1.994z"/><path d="m1197.01 380.574c1.1 0 1.99-.893 1.99-1.994s-.89-1.993-1.99-1.993-2 .892-2 1.993.9 1.994 2 1.994z"/><path d="m1180.03 378.833c1.1 0 1.99-.892 1.99-1.993s-.89-1.993-1.99-1.993-2 .892-2 1.993.9 1.993 2 1.993z"/><path d="m1220.08 354.454c1.11 0 2-.893 2-1.994s-.89-1.993-2-1.993c-1.1 0-1.99.892-1.99 1.993s.89 1.994 1.99 1.994z"/><path d="m1199.18 358.366c1.1 0 1.99-.893 1.99-1.994s-.89-1.993-1.99-1.993-1.99.892-1.99 1.993.89 1.994 1.99 1.994z"/><path d="m1212.68 370.556c1.1 0 1.99-.892 1.99-1.993s-.89-1.994-1.99-1.994-2 .893-2 1.994.9 1.993 2 1.993z"/><path d="m1226.17 364.461c1.1 0 1.99-.892 1.99-1.993s-.89-1.993-1.99-1.993-1.99.892-1.99 1.993.89 1.993 1.99 1.993z"/><path d="m1228.35 383.616c1.1 0 2-.893 2-1.994s-.9-1.993-2-1.993-1.99.892-1.99 1.993.89 1.994 1.99 1.994z"/><path d="m1165.66 381.442c1.1 0 2-.893 2-1.994 0-1.1-.9-1.993-2-1.993s-1.99.893-1.99 1.993c0 1.101.89 1.994 1.99 1.994z"/><path d="m1216.16 332.682c1.1 0 1.99-.892 1.99-1.993s-.89-1.994-1.99-1.994-1.99.893-1.99 1.994.89 1.993 1.99 1.993z"/><path d="m1204.84 343.568c1.1 0 2-.893 2-1.994 0-1.1-.9-1.993-2-1.993s-1.99.893-1.99 1.993c0 1.101.89 1.994 1.99 1.994z"/><path d="m1199.18 325.282c1.1 0 1.99-.893 1.99-1.994s-.89-1.993-1.99-1.993-1.99.892-1.99 1.993.89 1.994 1.99 1.994z"/><path d="m1226.17 339.647c1.1 0 1.99-.893 1.99-1.993 0-1.101-.89-1.994-1.99-1.994s-1.99.893-1.99 1.994c0 1.1.89 1.993 1.99 1.993z"/><path d="m1169.58 337.473c1.1 0 2-.892 2-1.993s-.9-1.994-2-1.994-1.99.893-1.99 1.994.89 1.993 1.99 1.993z"/><path d="m1183.58 289.507c1.1 0 1.99-.892 1.99-1.993s-.89-1.993-1.99-1.993-2 .892-2 1.993.9 1.993 2 1.993z"/><path d="m1193.09 301.772c1.1 0 1.99-.893 1.99-1.993 0-1.101-.89-1.994-1.99-1.994s-2 .893-2 1.994c0 1.1.9 1.993 2 1.993z"/><path d="m1171.32 310.483c1.1 0 2-.893 2-1.993 0-1.101-.9-1.994-2-1.994s-1.99.893-1.99 1.994c0 1.1.89 1.993 1.99 1.993z"/><path d="m1165.66 278.704c1.1 0 2-.893 2-1.994s-.9-1.993-2-1.993-1.99.892-1.99 1.993.89 1.994 1.99 1.994z"/><path d="m1195.27 276.53c1.1 0 1.99-.893 1.99-1.994s-.89-1.993-1.99-1.993-2 .892-2 1.993.9 1.994 2 1.994z"/><path d="m1112.12 373.173c1.1 0 1.99-.892 1.99-1.993s-.89-1.993-1.99-1.993-1.99.892-1.99 1.993.89 1.993 1.99 1.993z"/><path d="m1206.58 315.709c1.1 0 1.99-.892 1.99-1.993s-.89-1.993-1.99-1.993-1.99.892-1.99 1.993.89 1.993 1.99 1.993z"/><path d="m1189.61 313.962c1.1 0 1.99-.892 1.99-1.993s-.89-1.993-1.99-1.993-2 .892-2 1.993.9 1.993 2 1.993z"/><path d="m1140.85 370.556c1.1 0 1.99-.892 1.99-1.993s-.89-1.994-1.99-1.994-2 .893-2 1.994.9 1.993 2 1.993z"/><path d="m1208.76 293.502c1.1 0 2-.892 2-1.993s-.9-1.993-2-1.993-1.99.892-1.99 1.993.89 1.993 1.99 1.993z"/><path d="m1222.26 305.694c1.1 0 1.99-.893 1.99-1.994 0-1.1-.89-1.993-1.99-1.993s-2 .893-2 1.993c0 1.101.9 1.994 2 1.994z"/><path d="m1146.94 380.574c1.1 0 2-.893 2-1.994s-.9-1.993-2-1.993-1.99.892-1.99 1.993.89 1.994 1.99 1.994z"/><path d="m1116.47 380.138c1.1 0 1.99-.892 1.99-1.993s-.89-1.994-1.99-1.994-2 .893-2 1.994.9 1.993 2 1.993z"/><path d="m1218.34 321.37c1.1 0 1.99-.893 1.99-1.994s-.89-1.993-1.99-1.993c-1.11 0-2 .892-2 1.993s.89 1.994 2 1.994z"/><path d="m1125.18 366.644c1.1 0 1.99-.892 1.99-1.993s-.89-1.994-1.99-1.994-1.99.893-1.99 1.994.89 1.993 1.99 1.993z"/><path d="m1143.02 282.618c1.1 0 1.99-.893 1.99-1.994s-.89-1.993-1.99-1.993-1.99.892-1.99 1.993.89 1.994 1.99 1.994z"/><path d="m1153.04 340.959c1.1 0 1.99-.892 1.99-1.993s-.89-1.993-1.99-1.993-2 .892-2 1.993.9 1.993 2 1.993z"/><path d="m1118.65 343.568c1.1 0 1.99-.893 1.99-1.994 0-1.1-.89-1.993-1.99-1.993s-1.99.893-1.99 1.993c0 1.101.89 1.994 1.99 1.994z"/><path d="m1132.76 347.659c1.1 0 2-.893 2-1.994s-.9-1.993-2-1.993-1.99.892-1.99 1.993.89 1.994 1.99 1.994z"/><path d="m1146.94 355.757c1.1 0 2-.892 2-1.993s-.9-1.993-2-1.993-1.99.892-1.99 1.993.89 1.993 1.99 1.993z"/><path d="m1179.16 272.609c1.1 0 1.99-.893 1.99-1.994 0-1.1-.89-1.993-1.99-1.993s-2 .893-2 1.993c0 1.101.9 1.994 2 1.994z"/><path d="m1129.09 323.543c1.1 0 1.99-.892 1.99-1.993s-.89-1.993-1.99-1.993-1.99.892-1.99 1.993.89 1.993 1.99 1.993z"/><path d="m1139.98 301.772c1.1 0 1.99-.893 1.99-1.993 0-1.101-.89-1.994-1.99-1.994s-2 .893-2 1.994c0 1.1.9 1.993 2 1.993z"/><path d="m1145.2 316.578c1.11 0 2-.893 2-1.994s-.89-1.993-2-1.993c-1.1 0-1.99.892-1.99 1.993s.89 1.994 1.99 1.994z"/><path d="m1123 305.694c1.1 0 1.99-.893 1.99-1.994 0-1.1-.89-1.993-1.99-1.993s-2 .893-2 1.993c0 1.101.9 1.994 2 1.994z"/><path d="m1161.74 321.37c1.1 0 1.99-.893 1.99-1.994s-.89-1.993-1.99-1.993-1.99.892-1.99 1.993.89 1.994 1.99 1.994z"/><path d="m1142.15 331.377c1.1 0 2-.892 2-1.993s-.9-1.993-2-1.993-1.99.892-1.99 1.993.89 1.993 1.99 1.993z"/><path d="m1159.57 299.597c1.1 0 1.99-.892 1.99-1.993s-.89-1.994-1.99-1.994-2 .893-2 1.994.9 1.993 2 1.993z"/></g><path d="m1154.95 331.171c4.56 0 8.26-3.699 8.26-8.261s-3.7-8.261-8.26-8.261-8.26 3.699-8.26 8.261 3.7 8.261 8.26 8.261z" fill="#eeeae5"/><path d="m1154.95 327.407c2.48 0 4.49-2.013 4.49-4.496 0-2.482-2.01-4.495-4.49-4.495-2.49 0-4.5 2.013-4.5 4.495 0 2.483 2.01 4.496 4.5 4.496z" fill="#5a6174"/><path d="m1178.86 331.171c4.56 0 8.26-3.699 8.26-8.261s-3.7-8.261-8.26-8.261-8.26 3.699-8.26 8.261 3.7 8.261 8.26 8.261z" fill="#eeeae5"/><path d="m1178.86 327.406c2.48 0 4.5-2.013 4.5-4.496 0-2.482-2.02-4.495-4.5-4.495s-4.49 2.013-4.49 4.495c0 2.483 2.01 4.496 4.49 4.496z" fill="#5a6174"/><g mask="url(#l)"><path d="m1293.35 406.183h-116.67s-11.06-46.219-11.06-89.948c0-43.728 11.06-72.558 11.06-72.558h116.67z" fill="#000" opacity=".15"/></g></g><path d="m1128.36 261.482s20.67-2.424 26.51-.35c5.85 2.074 13.48 8.223 7.89 14.737-5.59 6.515-25.71 20.288-25.71 20.288z" fill="#7d8ba8"/><path d="m983.896 267.208s-20.682-2.425-26.51-.351c-5.828 2.075-13.481 8.209-7.902 14.694 5.58 6.485 25.707 20.258 25.707 20.258z" fill="#7d8ba8"/><path d="m998.822 347.175c-18.608 8.311-10.911 32.323-10.151 37.669.759 5.346 9.888 7.098 15.499 6.981 7.22-.358 14.4-1.384 21.44-3.067 6.4-1.577 11.68-21.222 11.68-21.222s-19.86-28.657-38.468-20.361z" fill="#5a6174"/><path d="m1112.88 347.175c18.59 8.311 10.91 32.323 10.13 37.669-.77 5.346-9.87 7.098-15.49 6.981-7.23-.358-14.41-1.384-21.44-3.067-6.4-1.577-11.69-21.222-11.69-21.222s19.88-28.657 38.49-20.361z" fill="#5a6174"/><path d="m992.6 239.033s-4.587-3.242-8.194-15.088c-2.381-22.23 11.494-25.195 11.494-25.195s4.95 12.707 8.54 17.629c3.6 4.923 10.23 4.046 10.23 4.046z" fill="#f2a374"/><path d="m1117.07 238.025s4.59-3.242 8.2-15.088c2.42-22.23-11.5-25.18-11.5-25.18s-4.95 12.707-8.54 17.615c-3.6 4.907-10.23 4.045-10.23 4.045z" fill="#f2a374"/><path d="m1139.16 308.908c0 39.027-36.52 70.707-81.8 70.78s-81.951-31.505-82.009-70.517c-.059-39.013 13.481-103.045 81.789-103.147 68.32-.103 81.94 63.842 82.02 102.884z" fill="#7cc7c3"/><path d="m1086.63 294.434c11.63 0 21.05-9.423 21.05-21.047s-9.42-21.047-21.05-21.047c-11.62 0-21.05 9.423-21.05 21.047s9.43 21.047 21.05 21.047z" fill="#eeeae5"/><path d="m1086.95 286.065c7.11 0 12.87-5.761 12.87-12.868s-5.76-12.868-12.87-12.868c-7.1 0-12.87 5.761-12.87 12.868s5.77 12.868 12.87 12.868z" fill="#f39b99"/><path d="m1080.53 271.063c1.58 0 2.86-1.281 2.86-2.862s-1.28-2.863-2.86-2.863c-1.59 0-2.87 1.282-2.87 2.863s1.28 2.862 2.87 2.862z" fill="#eeeae5"/><path d="m1041.7 291.059c5.76 0 10.43-4.669 10.43-10.428 0-5.76-4.67-10.429-10.43-10.429-5.75 0-10.42 4.669-10.42 10.429 0 5.759 4.67 10.428 10.42 10.428z" fill="#eeeae5"/><path d="m1041.86 286.927c3.53 0 6.39-2.858 6.39-6.383s-2.86-6.383-6.39-6.383c-3.52 0-6.38 2.858-6.38 6.383s2.86 6.383 6.38 6.383z" fill="#f39b99"/><path d="m1038.68 279.478c.78 0 1.42-.634 1.42-1.417 0-.782-.64-1.416-1.42-1.416s-1.42.634-1.42 1.416c0 .783.64 1.417 1.42 1.417z" fill="#eeeae5"/><path d="m1008.48 270.349c5.96 0 10.79-4.832 10.79-10.794 0-5.961-4.83-10.793-10.79-10.793s-10.797 4.832-10.797 10.793c0 5.962 4.837 10.794 10.797 10.794z" fill="#eeeae5"/><path d="m1008.64 266.04c3.64 0 6.58-2.949 6.58-6.587 0-3.639-2.94-6.588-6.58-6.588s-6.59 2.949-6.59 6.588c0 3.638 2.95 6.587 6.59 6.587z" fill="#f39b99"/><path d="m1005.35 258.357c.81 0 1.46-.654 1.46-1.461s-.65-1.46-1.46-1.46-1.46.653-1.46 1.46.65 1.461 1.46 1.461z" fill="#eeeae5"/><path d="m1043.75 260.125c11.62 0 21.05-9.424 21.05-21.048s-9.43-21.047-21.05-21.047-21.05 9.423-21.05 21.047 9.43 21.048 21.05 21.048z" fill="#eeeae5"/><path d="m1044.07 251.756c7.11 0 12.87-5.761 12.87-12.868 0-7.106-5.76-12.867-12.87-12.867s-12.87 5.761-12.87 12.867c0 7.107 5.76 12.868 12.87 12.868z" fill="#f39b99"/><path d="m1037.64 236.756c1.58 0 2.87-1.282 2.87-2.863s-1.29-2.863-2.87-2.863-2.86 1.282-2.86 2.863 1.28 2.863 2.86 2.863z" fill="#eeeae5"/><path d="m1082.09 247.476c5.96 0 10.79-4.832 10.79-10.794 0-5.961-4.83-10.793-10.79-10.793s-10.79 4.832-10.79 10.793c0 5.962 4.83 10.794 10.79 10.794z" fill="#eeeae5"/><path d="m1082.25 243.168c3.64 0 6.59-2.95 6.59-6.588s-2.95-6.587-6.59-6.587-6.59 2.949-6.59 6.587 2.95 6.588 6.59 6.588z" fill="#f39b99"/><path d="m1078.95 235.485c.81 0 1.46-.654 1.46-1.461s-.65-1.461-1.46-1.461-1.46.654-1.46 1.461.65 1.461 1.46 1.461z" fill="#eeeae5"/><path d="m1098.38 338.513c-.65 10.225-19.65 17.703-42.46 16.885-22.82-.818-40.77-9.713-40.13-19.864.65-10.151 19.39-23.822 42.19-22.99 22.8.833 41.04 15.745 40.4 25.969z" fill="#5a6174"/><path d="m1042.92 326.975-11.69-7.303c-.19-.119-.35-.291-.45-.495-.1-.205-.15-.435-.12-.662.02-.228.11-.444.25-.625.14-.18.33-.317.54-.394l13.38-5.025c.2-.073.42-.093.62-.058.21.035.41.124.58.258.16.134.29.309.37.507.07.198.1.412.07.622l-1.64 12.299c-.02.21-.1.411-.22.583-.13.172-.29.308-.49.397-.19.088-.4.125-.61.107-.21-.019-.42-.091-.59-.211z" fill="#eeeae5"/><path d="m1071.55 326.536-1.19-12.313c-.02-.208.02-.418.1-.609.09-.191.22-.357.39-.483.16-.126.36-.207.57-.235.2-.029.41-.005.61.071l13.14 5.141c.21.085.4.227.53.411.14.184.22.402.24.63s-.03.456-.13.659c-.11.203-.27.373-.46.491l-11.99 7.171c-.18.101-.38.157-.58.161-.2.005-.4-.041-.58-.134s-.34-.23-.45-.398c-.12-.168-.18-.362-.2-.563z" fill="#eeeae5"/><g mask="url(#m)"><path d="m1165.72 404.471h-108.02s-10.24-62.313-10.24-121.267 10.24-97.822 10.24-97.822h108.02z" fill="#000" opacity=".15"/></g></svg>