<svg fill="none" height="72" viewBox="0 0 72 72" width="72" xmlns="http://www.w3.org/2000/svg" xmlns:xlink="http://www.w3.org/1999/xlink"><clipPath id="a"><path d="m0 0h72v72h-72z"/></clipPath><g clip-path="url(#a)"><path d="m37.2705 70.4048c-2.5294-13.6884-6.624-26.9963-12.1924-39.627" stroke="#000" stroke-linecap="round" stroke-linejoin="round" stroke-width="2"/><path d="m35.6391 29.634s4.446 24.4843-2.1313 37.4532" stroke="#000" stroke-linecap="round" stroke-linejoin="round" stroke-width="2"/><path d="m47.4084 29.634s-5.6787 25.9717-15.5275 39.9249" stroke="#000" stroke-linecap="round" stroke-linejoin="round" stroke-width="2"/><path d="m31.716 57.3713s-3.2818 3.3399 6.3027 4.5817c6.8384.886 4.8633-3.1765 4.8633-3.1765" stroke="#000" stroke-linecap="round" stroke-linejoin="round" stroke-width="2.1049"/><path d="m34.598 69.3517c-1.1758-.001-2.1283-1.0156-2.1273-2.2662.0003-.3745.0879-.7431.2551-1.0728 6.9184-12.9304 1.2441-39.715 1.2015-39.9517-.2228-1.2279.5326-2.4154 1.6871-2.6524 1.1546-.2369 2.2712.5664 2.494 1.7945.1871 1.0315 5.2252 29.4349-1.6339 42.959-.372.7335-1.0928 1.1906-1.8765 1.1896z" fill="#5c9e31"/><path d="m31.5617 71.8308c.4791.3128 1.104.1808 1.4343-.3032 9.7113-14.5256 16.807-44.7035 17.0384-45.7619.2664-1.2182-.4462-2.4354-1.5915-2.7188-1.1454-.2833-2.2899.4746-2.5563 1.6927-.0539.2491-6.234 30.1454-16.4681 44.1309-.3514.5004-.2549 1.209.2156 1.5829.032.0253.0652.0488.0995.0701z" fill="#b1cc33"/><path d="m39.4022 71.0945c.5492-.1149.9068-.6817.7988-1.2658-.0017-.0091-.0035-.0183-.0054-.0274-1.0587-4.9988-5.9384-26.2861-14.2859-45.4139-.4984-1.1363-1.7685-1.6276-2.8369-1.0974-.1063.0527-.2083.1148-.3051.1853-.8576.6739-1.1417 1.902-.6762 2.9222 3.5633 8.2616 5.7784 12.7006 8.7114 21.5631 3.0106 9.0969 4.4961 18.3445 5.465 22.7474.1276.5695.658.9277 1.1969.808z" fill="#b1cc33"/><path d="m42.1909 25.8619s6.4269 4.4351 10.8368-1.586c4.4099-6.021-3.179-14.73095-3.179-14.73095s-4.8907-5.27835-7.7276-2.42622c0 0 5.7884 10.48127 3.1218 14.99277-2.665 4.5083-3.052 3.7504-3.052 3.7504z" fill="#b399c8"/><path d="m50.9242 25.735c2.4098 2.0868 5.9541 1.7008 7.9162-.8623.1324-.1729.2555-.3534.3689-.5408 3.8095-5.2759.3513-12.446.3513-12.446s-1.8407-4.80633-4.5534-5.53453c-2.7127-.72821-5.5267 4.36323-5.5267 4.36323s6.9797 8.2582 1.4437 15.0204z" fill="#b399c8"/><path d="m50.0667 9.7764s-2.7091-2.96773-5.3226-3.44992c.4244-1.85957 1.3771-3.53494 2.7287-4.79809.7851-.33784 1.6767-.23866 2.3792.26458.9838.84267 1.8504 1.82946 2.5736 2.93094l.8026 1.81802c-1.2751.80315-2.3574 1.91041-3.1615 3.23447z" fill="#8967aa"/><path d="m26.756 22.111c-2.6667-4.5114 3.1218-14.9927 3.1218-14.9927-2.837-2.85213-7.7277 2.42622-7.7277 2.42622s-7.5886 8.70998-3.179 14.73098c4.4097 6.0211 10.8368 1.5859 10.8368 1.5859s-.3866.7585-3.0519-3.7504z" fill="#ffa7c0"/><path d="m22.5162 10.7146s-2.814-5.09144-5.5267-4.36323c-2.7127.7282-4.5536 5.53453-4.5536 5.53453s-3.45798 7.1702.3513 12.446c1.6813 2.7797 5.163 3.5835 7.7766 1.7954.1763-.1206.3461-.2516.5085-.3923-5.5358-6.7622 1.4439-15.0204 1.4439-15.0204z" fill="#ffa7c0"/><path d="m18.7695 6.54193.8027-1.81802c.7232-1.10148 1.5897-2.08827 2.5736-2.93094.7024-.50324 1.5941-.60242 2.3792-.26458 1.3517 1.26303 2.3045 2.9384 2.7288 4.79809-2.6137.48219-5.3225 3.44992-5.3225 3.44992-.8042-1.32406-1.8866-2.43132-3.1618-3.23447z" fill="#e67a94"/><path d="m35.8721 10.1116c-1.7485 1.7186-3.9243 6.2739-4.0143 8.0748-.1538 3.076-.0571 3.773 1.5918 6.7147.1898.3387.3832.3075.9702.7965.8009.6671-3.002 1.4514-3.002 1.4514-2.4194.1817-3.9787-2.607-4.8733-5.0295-2.1464-5.8121 2.6783-15.75964 5.0978-15.94079 0 0 1.316.16847 4.6001 3.48309z" fill="#f4aa41"/><path d="m40.8926 8.7142c2.1126.67296 5.7947 9.743 2.8097 14.3898-.8871 1.4379-2.3483 2.36-3.96 2.4991-.9682.1355-1.9519.0676-2.8955-.2001-2.1596-.4755-3.6087-2.8488-3.8381-5.1816-.5506-5.597 5.7244-11.98271 7.8839-11.5072z" fill="#f4aa41"/><path d="m33.8164 6.24416c1.1461-1.9566 2.7421-3.38935 3.5893-3.28576z" fill="#e27022"/><path d="m35.9 10.7787s-3.3862-3.06-3.6046-3.15929c-.2662-.12159.7146-3.80405 3.9539-5.89119 3.2393-2.087136 5.5186 5.86855 5.5186 5.86855l-1.6028.2433c-.2587.03838-.5059.13778-.7239.29085-.9817.69017-3.5412 2.64778-3.5412 2.64778z" fill="#e27022"/><g stroke-linecap="round" stroke-linejoin="round"><path d="m37.2705 70.4048c-2.5294-13.6884-6.624-26.9963-12.1924-39.627" stroke="#000" stroke-width="2"/><path d="m35.6371 29.634s4.4461 24.4843-2.1312 37.4532" stroke="#000" stroke-width="2"/><path d="m45.8117 29.634c-.9613 3.5676-8.1948 31.7984-13.9308 39.925" stroke="#000" stroke-width="2"/><path d="m31.716 57.3713s-3.2818 3.3399 6.3027 4.5817c6.8384.886 4.8633-3.1765 4.8633-3.1765" stroke="#fcea2b" stroke-width="2.1049"/><path d="m40.9592 7.79977c2.3039.73387 6.3193 10.62513 3.0641 15.69243-.9674 1.5681-2.5609 2.5737-4.3186 2.7253-1.0559.1479-2.1288.0737-3.1577-.2182-2.3551-.5185-3.9355-3.1067-4.1856-5.6507-.6005-6.1037 6.2426-13.06736 8.5978-12.54883z" stroke="#000" stroke-width="2"/><path d="m34.3066 5.25536c.9973-1.70254 2.386-2.94917 3.1232-2.85905" stroke="#000" stroke-width="2"/><path d="m37.4297 2.3963c.5839.12669 1.4387 1.23406 2.0753 2.68911" stroke="#000" stroke-width="2"/><path d="m31.0707 26.051c-2.3995.1718-4.0462-1.8896-4.9287-4.2691-2.1169-5.7091 2.7207-14.36889 5.1204-14.54075" stroke="#000" stroke-width="2"/><path d="m31.0762 7.22699c.9207.18137 1.7564.68903 2.3711 1.44033" stroke="#000" stroke-width="2"/><path d="m46.6607 26.2797c.8632.0488 1.7281-.0458 2.5637-.2803 2.3551-.5185 3.9354-3.1068 4.1856-5.6507.5078-5.1615-4.3075-10.93804-7.2303-12.28486" stroke="#000" stroke-width="2"/><path d="m51.465 5.25536c-.9969-1.70254-2.386-2.94917-3.1232-2.85905" stroke="#000" stroke-width="2"/><path d="m48.3414 2.3963c-.5839.12669-1.4387 1.23406-2.0758 2.68911" stroke="#000" stroke-width="2"/><path d="m54.6994 26.051c2.3996.1718 4.0463-1.8896 4.9287-4.2691 2.1169-5.7091-2.7207-14.36889-5.1203-14.54075" stroke="#000" stroke-width="2"/><path d="m54.6953 7.22699c-.9207.18137-1.7564.68903-2.3711 1.44033" stroke="#000" stroke-width="2"/><path d="m25.8221 8.06384c-2.9228 1.34727-7.738 7.12336-7.2303 12.28486.2502 2.5439 1.831 5.1322 4.1856 5.6507.8357.2345 1.7006.3291 2.5637.2803" stroke="#000" stroke-width="2"/><path d="m23.6623 2.3963c-.7372-.09058-2.126 1.1565-3.1232 2.85904" stroke="#000" stroke-width="2"/><path d="m25.734 5.08541c-.6366-1.45551-1.4914-2.56242-2.0758-2.68911" stroke="#000" stroke-width="2"/><path d="m17.4948 7.24127c-2.3997.17186-7.2372 8.83163-5.1203 14.54083.8822 2.3794 2.5289 4.4409 4.9287 4.269" stroke="#000" stroke-width="2"/><path d="m19.6777 8.66732c-.6146-.7513-1.4504-1.25896-2.3711-1.44033" stroke="#000" stroke-width="2"/></g></g></svg>