<svg fill="none" height="512" viewBox="0 0 512 512" width="512" xmlns="http://www.w3.org/2000/svg" xmlns:xlink="http://www.w3.org/1999/xlink"><clipPath id="a"><rect height="512" rx="110" width="512"/></clipPath><g clip-path="url(#a)"><rect fill="#fff" height="512" rx="110" width="512"/><path d="m99.5211 122.763c60.1249-76.9041 156.6049-47.5406 156.6049-47.5406v373.8016c-158.9356-39.618-174.3164-139.826-173.8501-134.699.4664 5.127-4.6608 6.991-4.6608 6.991-15.381-6.991-38.2192-121.649 21.906-198.553z" fill="#56b12e"/><path d="m412.731 123.141c-60.125-76.9039-156.605-47.5405-156.605-47.5405v373.8015c158.936-39.617 174.317-139.826 173.85-134.699-.466 5.127 4.661 6.991 4.661 6.991 15.381-6.991 38.219-121.648-21.906-198.553z" fill="#3f720d"/><path d="m111.173 310.596c-8.39 82.031 46.609 110.929 145.419 139.36l-2.33-221.391-93.684 2.33c-6.525-6.525-41.015-2.33-49.405 79.701z" fill="#000"/><path d="m401.545 310.596c8.39 82.031-46.609 110.929-145.419 139.36l2.33-221.391 93.684 2.33c6.525-6.525 41.015-2.33 49.405 79.701z" fill="#000"/><path d="m199.56 208.523c0 17.481-11.087 30.592-23.601 30.592s-23.601-13.111-23.601-30.592 11.087-30.592 23.601-30.592 23.601 13.111 23.601 30.592z" fill="#fff" stroke="#000" stroke-width="5"/><ellipse cx="180.62" cy="204.761" fill="#000" rx="20.1637" ry="28.1132" transform="matrix(.98153716 .19127156 -.19127156 .98153716 42.499713 -30.766998)"/><ellipse cx="183.883" cy="197.337" fill="#fff" rx="5.12695" ry="6.9913"/><path d="m312.711 207.004c-1.966 17.371 7.576 31.645 20.011 33.052 12.434 1.408 24.925-10.374 26.891-27.744s-7.577-31.645-20.011-33.052c-12.435-1.407-24.926 10.374-26.891 27.744z" fill="#fff" stroke="#000" stroke-width="5"/><ellipse cx="20.3271" cy="28.3411" fill="#000" rx="20.3271" ry="28.3411" transform="matrix(-.990581 .13693 .13693 .990581 348.389 174.753)"/><ellipse cx="4.13049" cy="6.18516" fill="#fff" rx="4.13049" ry="6.18516" transform="matrix(-.987262 .159103 .159103 .987262 331.528 190.251)"/><path d="m337.96 173.047c-28.856 13.137-70.486 20.716-82.312-14.652l-.473 108.127c67.174-.506 65.281-64.675 69.066-76.296s13.719-17.179 13.719-17.179z" fill="#fff"/><path d="m175.769 173.6c28.856 13.178 70.012 20.274 81.839-15.205l.946 108.971c-67.174-.506-65.282-64.876-69.066-76.533-3.785-11.658-13.719-17.233-13.719-17.233z" fill="#fff"/><path d="m163.841 296.614c-10.254-11.186 0-45.677 0-45.677s14.914 6.525 37.753-9.788z" fill="#ffe902"/><path d="m199.263 241.149c-6.525.932-49.405 45.211-55.93 82.498s34.024 90.887 49.405 97.878 56.397 28.897 63.388 39.151v-155.207s-50.337-65.252-56.863-64.32z" fill="#fd9a18"/><path d="m312.988 240.693c6.526.932 49.406 45.211 55.931 82.497 6.525 37.287-34.024 90.887-49.405 97.879-15.381 6.991-56.397 28.897-63.388 39.151v-155.207s50.337-65.252 56.862-64.32z" fill="#ed6f00"/><g fill="#000"><path d="m182.254 175.712c-1.389-.903-3.247-.508-4.15.881-.902 1.389-.508 3.247.881 4.15zm-1.634 2.516c-1.635 2.515-1.635 2.515-1.636 2.514-.001 0-.001-.001-.002-.001-.001-.001-.002-.001-.002-.002-.002-.001-.003-.001-.004-.002s-.001 0 .001.001c.004.003.015.009.031.021.033.022.09.062.168.118.158.114.4.295.705.542.612.496 1.466 1.25 2.39 2.254 1.859 2.019 3.925 4.961 4.95 8.759l5.793-1.564c-1.349-4.997-4.033-8.766-6.329-11.259-1.153-1.253-2.228-2.205-3.026-2.852-.4-.324-.733-.573-.974-.747-.121-.087-.219-.156-.292-.205-.036-.025-.066-.045-.09-.061-.011-.007-.021-.014-.029-.019-.004-.003-.008-.006-.011-.008-.002-.001-.003-.002-.005-.003 0 0-.001-.001-.002-.001s-.002-.001-1.636 2.515zm6.601 14.204c.532 1.967 1.067 5.767 1.773 10.807.689 4.916 1.515 10.789 2.63 16.574 1.111 5.765 2.534 11.582 4.458 16.368 1.859 4.62 4.466 9.014 8.392 10.928l2.629-5.394c-1.773-.864-3.676-3.353-5.454-7.773-1.711-4.254-3.048-9.631-4.134-15.264-1.081-5.612-1.888-11.339-2.579-16.272-.674-4.809-1.266-9.109-1.922-11.538z"/><path d="m331.862 175.712c1.389-.903 3.247-.508 4.15.881s.508 3.247-.881 4.15zm1.634 2.516c1.635 2.515 1.636 2.515 1.637 2.514 0 0 .001-.001.001-.001.001-.001.002-.001.003-.002s.002-.001.003-.002.001 0-.001.001c-.004.003-.014.009-.031.021-.033.022-.09.062-.168.118-.158.114-.4.295-.705.542-.612.496-1.466 1.25-2.39 2.254-1.859 2.019-3.925 4.961-4.95 8.759l-5.793-1.564c1.349-4.997 4.033-8.766 6.329-11.259 1.153-1.253 2.228-2.205 3.026-2.852.4-.324.733-.573.974-.747.121-.087.22-.156.292-.205.037-.025.067-.045.09-.061.011-.007.021-.014.029-.019.005-.003.008-.006.011-.008.002-.001.004-.002.005-.003.001 0 .002-.001.002-.001.001 0 .002-.001 1.636 2.515zm-6.601 14.204c-.531 1.967-1.067 5.767-1.773 10.807-.689 4.916-1.515 10.789-2.63 16.574-1.11 5.765-2.533 11.582-4.458 16.368-1.858 4.62-4.466 9.014-8.392 10.928l-2.629-5.394c1.773-.864 3.677-3.353 5.454-7.773 1.711-4.254 3.048-9.631 4.134-15.264 1.081-5.612 1.888-11.339 2.579-16.272.674-4.809 1.267-9.109 1.922-11.538z"/><path d="m313.454 260.259c-4.661-46.609-50.803-50.337-57.328-60.591l.466 196.688c33.092-40.549 61.524-89.489 56.862-136.097z"/><path d="m198.834 260.259c4.661-46.609 50.767-49.871 57.292-60.125l.932 196.222c-33.092-40.549-62.885-89.489-58.224-136.097z"/></g><path d="m274.604 217.949-10.982-5.913c-7.457 10.254-5.632 150.762-3.301 151.694 2.33.932 8.224-137.391 14.283-145.781z" fill="#fff"/><path d="m172.599 240.836c10.217 0 21.828-12.965 22.757-9.261.929 3.705 4.644 9.261 4.644 9.261s-9.289 12.039-27.401 11.113c-18.113-.926-23.686-20.374-19.042-22.689s8.824 11.576 19.042 11.576z" fill="#fff" stroke="#000" stroke-width="4"/><path d="m338.153 241.199c-13.47 2.361-18.579-11.537-19.508-7.76s-4.645 9.442-4.645 9.442 10.218 14.841 24.153 12.953c13.934-1.888 27.403-24.313 21.365-27.381-6.038-3.069-7.896 10.386-21.365 12.746z" fill="#fff" stroke="#000" stroke-width="4"/><path d="m112.571 108.326c69.913-65.0773 144.487-33.2407 144.487-33.2407v90.8277c-59.659 73.973-144.487-57.587-144.487-57.587z" fill="#57ba2c"/><path d="m401.315 108.346c-70.304-65.3253-145.295-33.3678-145.295-33.3678v91.1728c59.993 74.254 145.295-57.805 145.295-57.805z" fill="#57ba2c"/></g></svg>