<svg fill="none" height="512" viewBox="0 0 512 512" width="512" xmlns="http://www.w3.org/2000/svg" xmlns:xlink="http://www.w3.org/1999/xlink"><clipPath id="a"><path d="m76 47h360v465h-360z"/></clipPath><rect fill="#fff" height="512" rx="110" width="512"/><g clip-path="url(#a)"><path d="m410.124 285.948c-.32 1.609-1.314 3.589-4.217 3.891-.084.008-.169.015-.253.019-3.12.202-6.064 1.535-8.275 3.747-2.414 2.419-3.775 5.703-3.775 9.119 0 3.229 1.21 6.339 3.392 8.718.777.843 1.59 1.66 2.418 2.426 4.451 4.163 2.803 9.192 2.192 10.635-.772 1.822-3.201 6.027-9.021 5.717-.026 0-.052-.003-.077-.003-.21-.011-.42-.026-.63-.041-3.561-.25-7.071.987-9.687 3.428-2.612 2.437-4.099 5.849-4.099 9.424v168.972h-244.181v-169.351c0-3.575-1.486-6.988-4.098-9.425-2.616-2.437-6.126-3.677-9.688-3.427-.213.015-.423.033-.636.04-.022.004-.048.004-.07.004-5.835.302-8.253-3.895-9.025-5.713-.611-1.443-2.256-6.472 2.192-10.636.828-.766 1.641-1.583 2.418-2.43 2.182-2.378 3.396-5.489 3.396-8.717 0-3.417-1.362-6.7-3.775-9.115-2.215-2.217-5.155-3.545-8.279-3.748-.08-.007-.165-.011-.25-.022-2.903-.298-3.896-2.279-4.22-3.891-.239-1.215-.456-4.227 2.785-5.971 8.676-4.68 15.56-11.07 20.464-18.989 5.751-9.296 8.639-20.528 8.588-33.383-.011-2.647-.019-5.165-.019-7.37 0-28.214 20.402-54.197 53.243-67.808 6.442-2.669 9.592-9.991 7.101-16.507-4.07-10.639-4.592-19.309-1.553-25.766.563-1.189 1.542-1.66 2.267-1.848.555-.144 2.005-.361 3.44.681 10.099 7.319 21.895 8.6 23.208 8.725 3.492.324 6.961-.792 9.614-3.085 2.653-2.294 4.253-5.574 4.437-9.075.549-10.5101 3.212-18.5834 7.918-23.9914 3.562-4.0937 8.532-6.8878 14.772-8.3015 1.288-.2908 2.16-.0736 2.911.7326.717.7657 1.067 1.8738.838 2.6432-4.404 14.7514-5.897 24.4301-5.96 24.8351-.99 6.512 3.094 12.726 9.463 14.398 6.373 1.671 12.977-1.738 15.31-7.901 2.159-5.702 9.889-9.1554 13.215-9.0744.317.0074 7.605.3019 7.819 8.4634-.066.398-.228 1.156-.35 1.73-.96 4.47-2.564 11.947.769 20.428 3.525 8.965 11.369 16.129 23.982 21.894 14.996 7.274 27.715 17.015 36.792 28.177 10.206 12.554 15.379 26.355 15.379 41.029 0 2.205-.007 4.723-.018 7.367-.055 12.859 2.837 24.091 8.587 33.386 4.901 7.919 11.785 14.306 20.461 18.985 3.241 1.749 3.028 4.76 2.785 5.975z" fill="#fff"/><path d="m178.243 285.782c-2.303 3.707-6.196 6.612-10.269 7.941-4.879 1.682-10.471 1.347-15.107-.876-4.272-2.051-6.656-5.128-7.988-8.055-1.276-2.813 1.752-5.651 4.489-4.211 3.149 1.656 7.241 3.254 11.593 3.508 4.677.272 9.393-1.344 12.999-3.074 3.002-1.436 6.041 1.94 4.283 4.767z" fill="#fff"/><path d="m178.478 257.189-1.317 2.286c-4.548 7.882-14.621 10.584-22.502 6.034-7.878-4.554-10.578-14.634-6.031-22.516l1.321-2.286c3.05-5.29 8.588-8.242 14.279-8.242 2.797 0 5.63.71 8.224 2.209 7.877 4.55 10.577 14.633 6.026 22.515z" fill="#fff"/><path d="m333.522 257.189c-4.548-7.882-1.851-17.965 6.03-22.515 2.594-1.499 5.427-2.209 8.22-2.209 5.695 0 11.232 2.952 14.282 8.242l1.318 2.286c4.551 7.882 1.85 17.962-6.031 22.516-7.877 4.55-17.951 1.848-22.502-6.034z" fill="#fff"/><path d="m367.124 284.792c-1.328 2.927-3.716 6.004-7.984 8.055-4.635 2.223-10.232 2.558-15.107.876-4.073-1.329-7.965-4.234-10.272-7.941-1.755-2.827 1.284-6.203 4.286-4.767 3.602 1.73 8.323 3.346 12.999 3.074 4.353-.254 8.44-1.852 11.593-3.508 2.734-1.44 5.766 1.398 4.485 4.211z" fill="#fff"/><g fill="#020203"><path d="m435.378 290.999c2.716-13.592-3.639-27.14-15.821-33.711-10.496-5.662-15.57-15.337-15.511-29.576.011-2.684.018-5.239.018-7.477 0-10.742-1.972-21.271-5.861-31.292-3.543-9.126-8.687-17.873-15.295-25.998-11.468-14.103-27.267-26.267-45.689-35.179-.091-.048-.183-.089-.275-.133-8.702-3.957-10.479-7.068-10.817-7.93-.457-1.159-.14-2.886.441-5.588.442-2.058.942-4.388.927-6.969-.048-10.05-3.911-19.0951-10.872-25.475-5.949-5.4484-13.966-8.6991-22.002-8.92-2.248-.0589-4.606.1436-7.009.5964-.541-6.3283-3.212-12.4762-7.737-17.3246-6.991-7.488-17.241-10.5803-27.418-8.2758-11.693 2.6469-21.285 8.2021-28.514 16.5147-5.424 6.2326-9.331 13.8494-11.686 22.7547-7.06-4.6827-15.706-6.159-23.918-4.0459-8.455 2.1757-15.435 7.9371-19.151 15.819-4.75 10.0905-5.67 21.6245-2.756 34.4025-15.578 8.081-28.849 18.845-38.801 31.542-12.881 16.441-19.691 35.504-19.691 55.122 0 2.238.007 4.793.018 7.477.059 14.239-5.015 23.918-15.5191 29.58-10.3019 5.558-16.4389 16.113-16.4389 27.459 0 2.065.2024 4.156.6218 6.247 1.3687 6.855 4.7683 12.705 9.566 16.986-3.2634 8.346-3.223 17.803.4967 26.584 4.1171 9.711 11.9797 16.746 21.4725 19.78v158.031h25.754v-169.352c0-3.574-1.486-6.987-4.098-9.424-2.616-2.437-6.126-3.678-9.688-3.427-.213.014-.423.033-.636.04-.022.004-.048.004-.07.004-5.835.302-8.253-3.895-9.025-5.714-.611-1.443-2.256-6.472 2.192-10.635.828-.766 1.641-1.583 2.418-2.43 2.182-2.378 3.396-5.489 3.396-8.717 0-3.417-1.362-6.701-3.775-9.116-2.215-2.216-5.155-3.545-8.279-3.747-.08-.008-.165-.011-.25-.022-2.903-.299-3.896-2.279-4.22-3.892-.239-1.214-.456-4.226 2.785-5.971 8.676-4.679 15.56-11.07 20.464-18.988 5.751-9.296 8.639-20.528 8.588-33.383-.011-2.647-.019-5.165-.019-7.37 0-28.215 20.402-54.198 53.243-67.808 6.442-2.669 9.592-9.991 7.101-16.507-4.07-10.639-4.592-19.309-1.553-25.766.563-1.189 1.542-1.661 2.267-1.848.555-.144 2.005-.361 3.44.681 10.099 7.318 21.895 8.599 23.208 8.725 3.492.324 6.961-.792 9.614-3.085 2.653-2.294 4.253-5.574 4.437-9.075.549-10.5104 3.212-18.5837 7.918-23.9916 3.562-4.0937 8.532-6.8879 14.772-8.3015 1.288-.2909 2.16-.0737 2.911.7325.717.7658 1.067 1.8739.838 2.6433-4.404 14.7513-5.897 24.4293-5.96 24.8343-.99 6.513 3.094 12.727 9.463 14.398 6.373 1.672 12.977-1.737 15.31-7.9 2.159-5.702 9.889-9.1556 13.215-9.0746.317.0073 7.605.3018 7.819 8.4636-.066.397-.228 1.156-.35 1.73-.96 4.469-2.564 11.946.769 20.428 3.525 8.964 11.369 16.128 23.982 21.893 14.996 7.275 27.715 17.016 36.792 28.178 10.206 12.553 15.379 26.355 15.379 41.029 0 2.205-.007 4.723-.018 7.366-.055 12.859 2.837 24.091 8.587 33.387 4.901 7.919 11.785 14.306 20.461 18.985 3.241 1.748 3.028 4.76 2.785 5.975-.32 1.608-1.314 3.589-4.217 3.891-.084.007-.169.015-.253.018-3.12.203-6.064 1.535-8.275 3.748-2.414 2.419-3.775 5.702-3.775 9.119 0 3.228 1.21 6.339 3.392 8.717.777.843 1.59 1.661 2.418 2.426 4.451 4.164 2.803 9.193 2.192 10.636-.772 1.822-3.201 6.026-9.021 5.717-.026 0-.052-.004-.077-.004-.21-.011-.42-.025-.63-.04-3.561-.25-7.071.986-9.687 3.427-2.612 2.437-4.099 5.85-4.099 9.425v168.972h25.755v-157.652c9.489-3.034 17.355-10.072 21.472-19.784 3.72-8.776 3.757-18.234.493-26.583 4.802-4.278 8.198-10.128 9.566-16.982z"/><path d="m357.341 265.509c-7.877 4.55-17.951 1.848-22.502-6.034l-1.317-2.286c-4.548-7.882-1.851-17.965 6.03-22.515 2.594-1.499 5.427-2.209 8.22-2.209 5.695 0 11.232 2.952 14.282 8.242l1.318 2.286c4.551 7.882 1.85 17.962-6.031 22.516z"/><path d="m178.478 257.189-1.317 2.286c-4.548 7.882-14.621 10.584-22.502 6.034-7.878-4.554-10.578-14.634-6.031-22.516l1.321-2.286c3.05-5.29 8.588-8.242 14.279-8.242 2.797 0 5.63.71 8.224 2.209 7.877 4.55 10.577 14.633 6.026 22.515z"/><path d="m300.096 272.434c-.508 2.816-1.251 5.492-2.219 8.021.983-3.552 1.763-6.372 2.219-8.021z"/><path d="m314.975 276.339-.033.115c-.475 1.719-1.321 4.778-2.392 8.651 1.085-2.975 1.943-6.082 2.564-9.307-.04.181-.088.361-.139.541z"/><path d="m313.783 242.596c-4.36-16.861-16.995-30.316-34.663-36.917-19.717-7.37-42.263-4.86-58.842 6.549-12.465 8.581-21.295 21.223-26.248 37.572-7.115 23.502-6.427 45.974 2.05 66.784 6.953 17.078 17.752 30.103 27.329 40.974 4.22 4.794 9.905 7.382 15.975 7.382 1.178 0 2.366-.096 3.562-.291 8.109-1.337 15.181-7.028 18.451-14.851.504-1.204 1.108-2.559 1.822-4.035 3.366.663 6.755 1.66 9.496 3.137 2.469 1.329 5.195 1.999 7.951 1.999 2.27 0 4.562-.453 6.751-1.366 5.055-2.113 8.841-6.339 10.387-11.6 1.81-6.174 10.257-36.623 14.746-52.828 1.071-3.873 1.917-6.932 2.392-8.651l.033-.114c.051-.181.099-.361.14-.542.007-.025.011-.051.014-.081.022-.099.041-.198.059-.301.258-1.385.471-2.787.64-4.212 1.472-12.322-.651-23.211-2.045-28.608zm-13.227 26.782c-.125 1.034-.276 2.054-.46 3.056-.508 2.816-1.251 5.492-2.219 8.021v.011c-2.884 7.536-7.785 13.776-14.651 18.632-13.388 9.468-22.458 20.627-28.414 30.158-3.547 5.68-5.994 10.783-7.594 14.6-.037.089-.078.177-.114.265-1.273 2.798-3.853 4.882-6.649 5.338-2.123.35-3.977-.349-5.5-2.08-19.585-22.228-39.376-49.588-26.197-93.117 3.915-12.925 10.725-22.799 20.247-29.351 4.798-3.303 10.28-5.611 16.064-6.885-5.151 9.911-7.167 16.894-7.767 21.676-.53 4.245 4.643 6.745 7.668 3.722 3.848-3.847 6.832-11.051 19.297-21.727 1.358-1.164 3.845-3.06 7.348-2.342.713.229 1.424.475 2.13.74 12.899 4.819 22.068 14.428 25.155 26.359 1.126 4.348 2.837 13.106 1.663 22.924z"/><path d="m178.243 285.782c-2.303 3.707-6.196 6.612-10.269 7.941-4.879 1.682-10.471 1.347-15.107-.876-4.272-2.051-6.656-5.128-7.988-8.055-1.276-2.813 1.752-5.651 4.489-4.211 3.149 1.656 7.241 3.254 11.593 3.508 4.677.272 9.393-1.344 12.999-3.074 3.002-1.436 6.041 1.94 4.283 4.767z"/><path d="m367.124 284.792c-1.328 2.927-3.716 6.004-7.984 8.055-4.635 2.223-10.232 2.558-15.107.876-4.073-1.329-7.965-4.234-10.272-7.941-1.755-2.827 1.284-6.203 4.286-4.767 3.602 1.73 8.323 3.346 12.999 3.074 4.353-.254 8.44-1.852 11.593-3.508 2.734-1.44 5.766 1.398 4.485 4.211z"/></g></g></svg>