<svg fill="none" height="852" viewBox="0 0 393 852" width="393" xmlns="http://www.w3.org/2000/svg" xmlns:xlink="http://www.w3.org/1999/xlink"><filter id="a" color-interpolation-filters="sRGB" filterUnits="userSpaceOnUse" height="80" width="72" x="308" y="773"><feFlood flood-opacity="0" result="BackgroundImageFix"/><feColorMatrix in="SourceAlpha" result="hardAlpha" type="matrix" values="0 0 0 0 0 0 0 0 0 0 0 0 0 0 0 0 0 0 127 0"/><feMorphology in="SourceAlpha" operator="erode" radius="8" result="effect1_dropShadow_1015_55125"/><feOffset dy="16"/><feGaussianBlur stdDeviation="8"/><feColorMatrix type="matrix" values="0 0 0 0 0.0782721 0 0 0 0 0.000942007 0 0 0 0 0.0832611 0 0 0 1 0"/><feBlend in2="BackgroundImageFix" mode="normal" result="effect1_dropShadow_1015_55125"/><feBlend in="SourceGraphic" in2="effect1_dropShadow_1015_55125" mode="normal" result="shape"/></filter><linearGradient id="b" gradientUnits="userSpaceOnUse" x1="316" x2="372" y1="772.978" y2="828.978"><stop offset="0" stop-color="#ff5fe5"/><stop offset="1" stop-color="#ff5f72"/></linearGradient><clipPath id="c"><path d="m0 0h393v852h-393z"/></clipPath><clipPath id="d"><path d="m16 332h361v122h-361z"/></clipPath><g clip-path="url(#c)"><path d="m0 0h393v852h-393z" fill="#fff"/><path d="m0 0h396v853h-396z" fill="#150423"/><path d="m25.2442 30.5v-13.0909h8.6676v2.282h-5.8998v3.1193h5.3246v2.2819h-5.3246v5.4077zm10.4782 0v-9.8182h2.723v9.8182zm1.3679-11.0838c-.4048 0-.7521-.1342-1.0419-.4027-.2855-.2727-.4283-.5987-.4283-.978 0-.375.1428-.6967.4283-.9652.2898-.2727.6371-.4091 1.0419-.4091s.75.1364 1.0355.4091c.2898.2685.4347.5902.4347.9652 0 .3793-.1449.7053-.4347.978-.2855.2685-.6307.4027-1.0355.4027zm11.7054 4.0653-2.4929.1534c-.0426-.213-.1342-.4048-.2748-.5752-.1407-.1748-.326-.3133-.5561-.4155-.2259-.1066-.4965-.1598-.8118-.1598-.4219 0-.7777.0895-1.0675.2684-.2898.1748-.4347.4091-.4347.7032 0 .2343.0938.4325.2813.5944.1875.162.5092.2919.9652.3899l1.777.358c.9545.196 1.6662.5114 2.1349.946.4688.4347.7031 1.0057.7031 1.7131 0 .6435-.1896 1.2081-.5688 1.6939-.375.4858-.8907.865-1.5469 1.1378-.652.2684-1.4041.4027-2.2564.4027-1.2997 0-2.3352-.2706-3.1066-.8118-.767-.5455-1.2166-1.287-1.3487-2.2245l2.6783-.1406c.081.3963.277.6989.5881.9077.311.2045.7095.3068 1.1953.3068.4772 0 .8608-.0916 1.1505-.2749.2941-.1875.4432-.4282.4475-.7223-.0043-.2471-.1087-.4495-.3132-.6072-.2046-.1619-.5199-.2855-.946-.3707l-1.7003-.3388c-.9588-.1918-1.6726-.5242-2.1414-.9972-.4645-.473-.6967-1.076-.6967-1.8089 0-.6307.1705-1.174.5114-1.63.3451-.456.8288-.8075 1.451-1.0547.6264-.2471 1.3593-.3707 2.1988-.3707 1.2401 0 2.2159.2621 2.9276.7862.7159.5241 1.1335 1.2379 1.2528 2.1413zm10.1074 0-2.4929.1534c-.0426-.213-.1342-.4048-.2748-.5752-.1406-.1748-.326-.3133-.5561-.4155-.2259-.1066-.4965-.1598-.8118-.1598-.4219 0-.7777.0895-1.0675.2684-.2898.1748-.4346.4091-.4346.7032 0 .2343.0937.4325.2812.5944.1875.162.5092.2919.9652.3899l1.777.358c.9545.196 1.6662.5114 2.1349.946.4688.4347.7032 1.0057.7032 1.7131 0 .6435-.1897 1.2081-.5689 1.6939-.375.4858-.8907.865-1.5469 1.1378-.652.2684-1.4041.4027-2.2564.4027-1.2997 0-2.3352-.2706-3.1065-.8118-.7671-.5455-1.2166-1.287-1.3488-2.2245l2.6783-.1406c.081.3963.277.6989.5881.9077.3111.2045.7095.3068 1.1953.3068.4773 0 .8608-.0916 1.1506-.2749.294-.1875.4431-.4282.4474-.7223-.0043-.2471-.1087-.4495-.3132-.6072-.2045-.1619-.5199-.2855-.946-.3707l-1.7003-.3388c-.9588-.1918-1.6726-.5242-2.1413-.9972-.4645-.473-.6968-1.076-.6968-1.8089 0-.6307.1705-1.174.5114-1.63.3452-.456.8288-.8075 1.451-1.0547.6264-.2471 1.3594-.3707 2.1988-.3707 1.2401 0 2.216.2621 2.9276.7862.7159.5241 1.1335 1.2379 1.2528 2.1413zm4.7381 7.2039c-.6264 0-1.1846-.1087-1.6747-.326-.49-.2216-.8778-.5476-1.1633-.978-.2813-.4347-.4219-.9759-.4219-1.6236 0-.5454.1001-1.0035.3004-1.3743.2003-.3707.473-.669.8182-.8949.3452-.2258.7372-.3963 1.1761-.5113.4432-.1151.9077-.1961 1.3935-.2429.571-.0597 1.0313-.1151 1.3807-.1662.3494-.0554.603-.1364.7606-.2429.1577-.1066.2366-.2642.2366-.473v-.0384c0-.4048-.1279-.718-.3836-.9396-.2514-.2216-.6093-.3324-1.0738-.3324-.4901 0-.88.1087-1.1698.326-.2897.2131-.4815.4815-.5753.8054l-2.5184-.2045c.1278-.5966.3792-1.1123.7542-1.5469.375-.4389.8587-.7756 1.451-1.01.5966-.2386 1.287-.3579 2.0711-.3579.5454 0 1.0674.0639 1.566.1917.5028.1279.9482.326 1.3359.5945.3921.2685.701.6136.9269 1.0355.2258.4176.3388.9183.3388 1.5021v6.6222h-2.5824v-1.3615h-.0767c-.1577.3068-.3686.5774-.6328.8118-.2642.2301-.5817.4112-.9525.5433-.3707.1278-.799.1918-1.2848.1918zm.7799-1.8793c.4005 0 .7542-.0788 1.0611-.2365.3068-.1619.5475-.3793.7223-.652.1747-.2727.262-.5817.262-.9268v-1.0419c-.0852.0554-.2024.1065-.3515.1534-.1449.0426-.309.0831-.4922.1214-.1833.0341-.3665.0661-.5497.0959-.1833.0256-.3495.049-.4986.0703-.3196.0469-.5987.1215-.8374.2237-.2386.1023-.424.2408-.5561.4155-.1321.1705-.1981.3835-.1981.6392 0 .3708.1342.6541.4027.8502.2727.1917.6179.2876 1.0355.2876zm15.7388-11.576c.6733 0 1.321.1129 1.9432.3388.6264.2258 1.1846.5859 1.6747 1.0802.4943.4944.8842 1.1506 1.1697 1.9688.2898.8139.4368 1.8132.4411 2.9979 0 1.1122-.1257 2.1051-.3771 2.9787-.2472.8693-.603 1.6086-1.0675 2.218s-1.0249 1.0739-1.6811 1.3935c-.6563.3153-1.3892.473-2.1989.473-.8736 0-1.6449-.1683-2.3139-.505-.669-.3409-1.2081-.8033-1.6172-1.3871-.4048-.588-.6499-1.2485-.7351-1.9815h2.7294c.1066.4773.3303.848.6712 1.1122.3409.26.7628.3899 1.2656.3899.8523 0 1.5-.3707 1.9432-1.1122.4432-.7457.6669-1.7663.6712-3.0618h-.0895c-.1961.3835-.4603.7138-.7926.9908-.3324.2727-.7138.4837-1.1442.6328-.4262.1491-.88.2237-1.3615.2237-.7713 0-1.4595-.1811-2.0647-.5433-.6051-.3622-1.0823-.8608-1.4318-1.4957-.3494-.635-.5241-1.3594-.5241-2.1733-.0043-.8779.1981-1.6598.6072-2.3459s.9801-1.223 1.7131-1.6108c.7372-.3921 1.5937-.5859 2.5696-.5817zm.0192 2.1733c-.4304 0-.814.1023-1.1506.3068-.3324.2046-.5966.4794-.7926.8246-.1918.3452-.2855.7308-.2813 1.157 0 .4304.0938.8181.2813 1.1633.1917.3409.4517.6136.7798.8182.3324.2003.7117.3004 1.1378.3004.3196 0 .6158-.0596.8885-.179.2727-.1193.5092-.2833.7095-.4921.2046-.2131.3644-.4581.4794-.7351.1151-.277.1726-.5711.1726-.8821-.0043-.4134-.1023-.7926-.294-1.1378-.1918-.3452-.456-.6222-.7926-.831-.3367-.2088-.716-.3132-1.1378-.3132zm11.8636-2.1733c.6733 0 1.321.1129 1.9432.3388.6264.2258 1.1846.5859 1.6747 1.0802.4943.4944.8842 1.1506 1.1697 1.9688.2898.8139.4368 1.8132.4411 2.9979 0 1.1122-.1257 2.1051-.3771 2.9787-.2472.8693-.603 1.6086-1.0675 2.218s-1.0249 1.0739-1.6811 1.3935c-.6563.3153-1.3892.473-2.1989.473-.8736 0-1.6449-.1683-2.3139-.505-.669-.3409-1.2081-.8033-1.6172-1.3871-.4048-.588-.6498-1.2485-.7351-1.9815h2.7294c.1066.4773.3303.848.6712 1.1122.3409.26.7628.3899 1.2656.3899.8523 0 1.5-.3707 1.9432-1.1122.4432-.7457.6669-1.7663.6712-3.0618h-.0895c-.196.3835-.4602.7138-.7926.9908-.3324.2727-.7138.4837-1.1442.6328-.4261.1491-.88.2237-1.3615.2237-.7713 0-1.4595-.1811-2.0646-.5433-.6052-.3622-1.0824-.8608-1.4319-1.4957-.3494-.635-.5241-1.3594-.5241-2.1733-.0043-.8779.1981-1.6598.6072-2.3459s.9801-1.223 1.7131-1.6108c.7372-.3921 1.5938-.5859 2.5696-.5817zm.0192 2.1733c-.4304 0-.8139.1023-1.1506.3068-.3324.2046-.5966.4794-.7926.8246-.1918.3452-.2855.7308-.2813 1.157 0 .4304.0938.8181.2813 1.1633.1918.3409.4517.6136.7798.8182.3324.2003.7117.3004 1.1378.3004.3196 0 .6158-.0596.8885-.179.2727-.1193.5092-.2833.7095-.4921.2046-.2131.3644-.4581.4794-.7351.1151-.277.1726-.5711.1726-.8821-.0043-.4134-.1023-.7926-.294-1.1378-.1918-.3452-.456-.6222-.7926-.831-.3367-.2088-.7159-.3132-1.1378-.3132zm11.8641-2.1733c.673 0 1.321.1129 1.943.3388.626.2258 1.184.5859 1.674 1.0802.495.4944.885 1.1506 1.17 1.9688.29.8139.437 1.8132.441 2.9979 0 1.1122-.126 2.1051-.377 2.9787-.247.8693-.603 1.6086-1.067 2.218-.465.6094-1.025 1.0739-1.682 1.3935-.656.3153-1.389.473-2.198.473-.874 0-1.645-.1683-2.314-.505-.669-.3409-1.208-.8033-1.6175-1.3871-.4048-.588-.6498-1.2485-.7351-1.9815h2.7296c.106.4773.33.848.671 1.1122.341.26.763.3899 1.266.3899.852 0 1.5-.3707 1.943-1.1122.443-.7457.667-1.7663.671-3.0618h-.09c-.196.3835-.46.7138-.792.9908-.333.2727-.714.4837-1.144.6328-.426.1491-.88.2237-1.362.2237-.771 0-1.459-.1811-2.064-.5433-.606-.3622-1.0828-.8608-1.4323-1.4957-.3494-.635-.5241-1.3594-.5241-2.1733-.0043-.8779.1982-1.6598.6072-2.3459.4092-.6861.9802-1.223 1.7132-1.6108.737-.3921 1.594-.5859 2.57-.5817zm.019 2.1733c-.431 0-.814.1023-1.151.3068-.332.2046-.596.4794-.792.8246-.192.3452-.286.7308-.282 1.157 0 .4304.094.8181.282 1.1633.191.3409.451.6136.779.8182.333.2003.712.3004 1.138.3004.32 0 .616-.0596.889-.179.272-.1193.509-.2833.709-.4921.205-.2131.364-.4581.48-.7351.115-.277.172-.5711.172-.8821-.004-.4134-.102-.7926-.294-1.1378s-.456-.6222-.793-.831c-.336-.2088-.715-.3132-1.137-.3132zm11.863-2.1733c.674 0 1.321.1129 1.944.3388.626.2258 1.184.5859 1.674 1.0802.495.4944.884 1.1506 1.17 1.9688.29.8139.437 1.8132.441 2.9979 0 1.1122-.126 2.1051-.377 2.9787-.247.8693-.603 1.6086-1.068 2.218-.464.6094-1.024 1.0739-1.681 1.3935-.656.3153-1.389.473-2.199.473-.873 0-1.644-.1683-2.313-.505-.67-.3409-1.209-.8033-1.618-1.3871-.404-.588-.65-1.2485-.735-1.9815h2.73c.106.4773.33.848.671 1.1122.341.26.763.3899 1.265.3899.853 0 1.5-.3707 1.944-1.1122.443-.7457.667-1.7663.671-3.0618h-.09c-.196.3835-.46.7138-.792.9908-.333.2727-.714.4837-1.144.6328-.427.1491-.88.2237-1.362.2237-.771 0-1.46-.1811-2.065-.5433s-1.082-.8608-1.431-1.4957c-.35-.635-.525-1.3594-.525-2.1733-.004-.8779.199-1.6598.608-2.3459s.98-1.223 1.713-1.6108c.737-.3921 1.593-.5859 2.569-.5817zm.02 2.1733c-.431 0-.814.1023-1.151.3068-.332.2046-.597.4794-.793.8246-.191.3452-.285.7308-.281 1.157 0 .4304.094.8181.281 1.1633.192.3409.452.6136.78.8182.333.2003.712.3004 1.138.3004.32 0 .616-.0596.888-.179.273-.1193.51-.2833.71-.4921.204-.2131.364-.4581.479-.7351s.173-.5711.173-.8821c-.004-.4134-.102-.7926-.294-1.1378s-.456-.6222-.793-.831c-.336-.2088-.716-.3132-1.137-.3132z" fill="#ffcaf7"/><path d="m356.99 35-.438-3.52c-.237-.0917-.46-.2017-.67-.33-.209-.1283-.414-.2658-.616-.4125l-3.256 1.375-3.01-5.225 2.818-2.145c-.018-.1283-.027-.2519-.027-.3707v-.7425c0-.1195.009-.2435.027-.3718l-2.818-2.145 3.01-5.225 3.256 1.375c.201-.1467.411-.2842.63-.4125.218-.1283.437-.2383.656-.33l.438-3.52h6.02l.438 3.52c.237.0917.461.2017.671.33s.415.2658.615.4125l3.256-1.375 3.01 5.225-2.818 2.145c.018.1283.027.2523.027.3718v.7414c0 .1195-.018.2435-.055.3718l2.819 2.145-3.01 5.225-3.229-1.375c-.201.1467-.411.2842-.63.4125-.218.1283-.437.2383-.656.33l-.438 3.52zm1.915-2.2h2.162l.383-2.915c.566-.1467 1.09-.3619 1.574-.6457s.926-.6277 1.327-1.0318l2.709 1.1275 1.067-1.87-2.353-1.7875c.091-.2567.155-.5269.191-.8107.037-.2838.055-.5727.055-.8668 0-.2933-.018-.5819-.055-.8657-.036-.2838-.1-.5544-.191-.8118l2.353-1.7875-1.067-1.87-2.709 1.155c-.402-.4217-.844-.7744-1.327-1.0582s-1.008-.4994-1.574-.6468l-.355-2.915h-2.162l-.383 2.915c-.566.1467-1.09.3623-1.573.6468s-.926.6281-1.328 1.0307l-2.709-1.1275-1.067 1.87 2.353 1.76c-.091.275-.155.55-.191.825-.037.275-.055.5683-.055.88 0 .2933.018.5775.055.8525.036.275.1.55.191.825l-2.353 1.7875 1.067 1.87 2.709-1.155c.402.4217.844.7748 1.328 1.0593s1.008.4998 1.573.6457zm1.15-4.95c1.058 0 1.961-.3758 2.709-1.1275s1.122-1.6592 1.122-2.7225-.374-1.9708-1.122-2.7225-1.651-1.1275-2.709-1.1275c-1.077 0-1.984.3758-2.723 1.1275-.74.7517-1.109 1.6592-1.108 2.7225 0 1.0633.369 1.9708 1.109 2.7225.739.7517 1.646 1.1275 2.722 1.1275z" fill="#ffcaf7"/><g filter="url(#a)"><rect fill="url(#b)" height="56" rx="16" width="56" x="316" y="773"/><path d="m344 791.667v18.666m-9.333-9.333h18.666" stroke="#150423" stroke-linecap="round" stroke-linejoin="round" stroke-width="3"/></g><g clip-path="url(#d)"><path d="m164.5 383.48h64v-64h-64z" fill="#150423"/><g fill="#ffcaf7"><path d="m83.8679 413.588v-3.043h14.3352v3.043h-5.3437v14.412h-3.6478v-14.412zm20.2581 6.844v7.568h-3.63v-17.455h3.528v6.674h.154c.295-.773.772-1.378 1.431-1.816.659-.443 1.486-.664 2.48-.664.91 0 1.702.199 2.378.596.682.392 1.211.958 1.586 1.696.38.733.568 1.611.562 2.634v8.335h-3.631v-7.688c.006-.806-.198-1.434-.613-1.883-.409-.449-.983-.673-1.722-.673-.494 0-.932.105-1.312.315-.375.21-.671.517-.887.92-.21.398-.318.878-.324 1.441zm11.346 7.568v-13.091h3.631v13.091zm1.824-14.778c-.54 0-1.003-.179-1.389-.537-.381-.364-.571-.799-.571-1.304 0-.5.19-.929.571-1.287.386-.364.849-.546 1.389-.546s1 .182 1.381.546c.386.358.579.787.579 1.287 0 .505-.193.94-.579 1.304-.381.358-.841.537-1.381.537zm15.607 5.42-3.323.205c-.057-.285-.179-.54-.367-.767-.187-.233-.435-.418-.741-.554-.302-.142-.662-.214-1.083-.214-.562 0-1.037.12-1.423.358-.386.233-.58.546-.58.938 0 .312.125.577.375.793.25.215.679.389 1.287.519l2.37.478c1.272.261 2.221.682 2.846 1.261.625.58.938 1.341.938 2.284 0 .858-.253 1.611-.759 2.259-.5.647-1.187 1.153-2.062 1.517-.87.358-1.872.537-3.009.537-1.733 0-3.113-.361-4.142-1.083-1.023-.727-1.622-1.716-1.798-2.966l3.571-.187c.108.528.369.932.784 1.21.415.273.946.409 1.594.409.636 0 1.147-.122 1.534-.366.392-.25.591-.571.596-.963-.005-.33-.145-.6-.417-.81-.273-.216-.693-.381-1.262-.494l-2.267-.452c-1.278-.256-2.23-.699-2.855-1.33-.619-.63-.929-1.434-.929-2.412 0-.84.228-1.565.682-2.173.46-.608 1.105-1.077 1.935-1.406.835-.33 1.812-.494 2.932-.494 1.653 0 2.954.349 3.903 1.048.955.699 1.511 1.65 1.67 2.855zm8.208 9.358v-17.455h11.557v3.043h-7.867v4.159h7.1v3.043h-7.1v7.21zm13.971 0v-13.091h3.63v13.091zm1.824-14.778c-.54 0-1.003-.179-1.39-.537-.38-.364-.571-.799-.571-1.304 0-.5.191-.929.571-1.287.387-.364.85-.546 1.39-.546.539 0 1 .182 1.38.546.387.358.58.787.58 1.287 0 .505-.193.94-.58 1.304-.38.358-.841.537-1.38.537zm15.607 5.42-3.324.205c-.057-.285-.179-.54-.367-.767-.187-.233-.434-.418-.741-.554-.301-.142-.662-.214-1.082-.214-.563 0-1.037.12-1.424.358-.386.233-.579.546-.579.938 0 .312.125.577.375.793.25.215.679.389 1.287.519l2.369.478c1.273.261 2.222.682 2.847 1.261.625.58.937 1.341.937 2.284 0 .858-.253 1.611-.758 2.259-.5.647-1.188 1.153-2.063 1.517-.869.358-1.872.537-3.008.537-1.733 0-3.114-.361-4.143-1.083-1.022-.727-1.622-1.716-1.798-2.966l3.571-.187c.108.528.37.932.784 1.21.415.273.946.409 1.594.409.636 0 1.148-.122 1.534-.366.392-.25.591-.571.597-.963-.006-.33-.145-.6-.418-.81-.273-.216-.693-.381-1.261-.494l-2.267-.452c-1.279-.256-2.23-.699-2.855-1.33-.62-.63-.929-1.434-.929-2.412 0-.84.227-1.565.681-2.173.461-.608 1.106-1.077 1.935-1.406.835-.33 1.813-.494 2.932-.494 1.653 0 2.954.349 3.903 1.048.955.699 1.512 1.65 1.671 2.855zm13.476 0-3.324.205c-.056-.285-.178-.54-.366-.767-.187-.233-.435-.418-.741-.554-.302-.142-.662-.214-1.083-.214-.562 0-1.037.12-1.423.358-.387.233-.58.546-.58.938 0 .312.125.577.375.793.25.215.679.389 1.287.519l2.37.478c1.272.261 2.221.682 2.846 1.261.625.58.938 1.341.938 2.284 0 .858-.253 1.611-.759 2.259-.5.647-1.187 1.153-2.062 1.517-.87.358-1.873.537-3.009.537-1.733 0-3.114-.361-4.142-1.083-1.023-.727-1.622-1.716-1.798-2.966l3.571-.187c.108.528.369.932.784 1.21.415.273.946.409 1.594.409.636 0 1.147-.122 1.534-.366.392-.25.591-.571.596-.963-.005-.33-.145-.6-.417-.81-.273-.216-.693-.381-1.262-.494l-2.267-.452c-1.278-.256-2.23-.699-2.855-1.33-.619-.63-.929-1.434-.929-2.412 0-.84.227-1.565.682-2.173.46-.608 1.105-1.077 1.935-1.406.835-.33 1.812-.494 2.931-.494 1.654 0 2.955.349 3.904 1.048.954.699 1.511 1.65 1.67 2.855zm6.318 9.605c-.835 0-1.58-.145-2.233-.435-.654-.295-1.171-.73-1.551-1.303-.375-.58-.563-1.302-.563-2.165 0-.728.134-1.338.401-1.833.267-.494.63-.892 1.091-1.193.46-.301.983-.528 1.568-.682.591-.153 1.21-.261 1.858-.324.761-.079 1.375-.153 1.841-.221.466-.074.804-.182 1.014-.324s.315-.352.315-.631v-.051c0-.54-.17-.957-.511-1.253-.335-.295-.813-.443-1.432-.443-.653 0-1.173.145-1.56.435-.386.284-.642.642-.767 1.074l-3.358-.273c.171-.795.506-1.483 1.006-2.063.5-.585 1.145-1.034 1.935-1.346.795-.318 1.716-.477 2.761-.477.727 0 1.423.085 2.088.255.671.171 1.264.435 1.781.793.523.358.935.818 1.236 1.381.301.556.452 1.224.452 2.002v8.83h-3.443v-1.815h-.102c-.211.409-.492.77-.844 1.082-.352.307-.776.548-1.27.724-.494.171-1.065.256-1.713.256zm1.04-2.506c.534 0 1.005-.105 1.414-.315.409-.216.73-.506.963-.869.233-.364.35-.776.35-1.236v-1.389c-.114.074-.27.142-.469.204-.193.057-.412.111-.656.162-.244.046-.489.088-.733.128-.244.034-.466.065-.665.094-.426.062-.798.162-1.116.298-.319.137-.566.321-.742.554-.176.227-.264.512-.264.852 0 .495.179.873.537 1.134.364.256.824.383 1.381.383zm14.703 2.259v-13.091h3.631v13.091zm1.824-14.778c-.539 0-1.003-.179-1.389-.537-.381-.364-.571-.799-.571-1.304 0-.5.19-.929.571-1.287.386-.364.85-.546 1.389-.546.54 0 1 .182 1.381.546.386.358.58.787.58 1.287 0 .505-.194.94-.58 1.304-.381.358-.841.537-1.381.537zm15.608 5.42-3.324.205c-.057-.285-.179-.54-.367-.767-.187-.233-.434-.418-.741-.554-.301-.142-.662-.214-1.083-.214-.562 0-1.037.12-1.423.358-.386.233-.58.546-.58.938 0 .312.125.577.375.793.25.215.679.389 1.287.519l2.37.478c1.272.261 2.221.682 2.846 1.261.625.58.938 1.341.938 2.284 0 .858-.253 1.611-.759 2.259-.5.647-1.187 1.153-2.062 1.517-.87.358-1.872.537-3.009.537-1.733 0-3.113-.361-4.142-1.083-1.022-.727-1.622-1.716-1.798-2.966l3.571-.187c.108.528.369.932.784 1.21.415.273.946.409 1.594.409.636 0 1.148-.122 1.534-.366.392-.25.591-.571.596-.963-.005-.33-.144-.6-.417-.81-.273-.216-.693-.381-1.261-.494l-2.268-.452c-1.278-.256-2.23-.699-2.855-1.33-.619-.63-.929-1.434-.929-2.412 0-.84.228-1.565.682-2.173.46-.608 1.105-1.077 1.935-1.406.835-.33 1.812-.494 2.932-.494 1.653 0 2.954.349 3.903 1.048.955.699 1.511 1.65 1.671 2.855zm11.872 9.605c-.836 0-1.58-.145-2.233-.435-.654-.295-1.171-.73-1.551-1.303-.375-.58-.563-1.302-.563-2.165 0-.728.134-1.338.401-1.833.267-.494.63-.892 1.091-1.193.46-.301.983-.528 1.568-.682.591-.153 1.21-.261 1.858-.324.761-.079 1.375-.153 1.841-.221.466-.074.804-.182 1.014-.324s.315-.352.315-.631v-.051c0-.54-.17-.957-.511-1.253-.335-.295-.813-.443-1.432-.443-.653 0-1.173.145-1.56.435-.386.284-.642.642-.767 1.074l-3.358-.273c.171-.795.506-1.483 1.006-2.063.5-.585 1.145-1.034 1.935-1.346.795-.318 1.716-.477 2.761-.477.727 0 1.423.085 2.088.255.671.171 1.264.435 1.781.793.523.358.935.818 1.236 1.381.301.556.452 1.224.452 2.002v8.83h-3.443v-1.815h-.103c-.21.409-.491.77-.843 1.082-.353.307-.776.548-1.27.724-.495.171-1.066.256-1.713.256zm1.039-2.506c.535 0 1.006-.105 1.415-.315.409-.216.73-.506.963-.869.233-.364.35-.776.35-1.236v-1.389c-.114.074-.27.142-.469.204-.193.057-.412.111-.656.162-.245.046-.489.088-.733.128-.245.034-.466.065-.665.094-.426.062-.798.162-1.116.298-.319.137-.566.321-.742.554-.176.227-.264.512-.264.852 0 .495.179.873.537 1.134.363.256.824.383 1.38.383zm20.042-7.099-3.324.205c-.057-.285-.179-.54-.367-.767-.187-.233-.434-.418-.741-.554-.301-.142-.662-.214-1.083-.214-.562 0-1.036.12-1.423.358-.386.233-.579.546-.579.938 0 .312.125.577.375.793.25.215.679.389 1.287.519l2.369.478c1.273.261 2.221.682 2.846 1.261.625.58.938 1.341.938 2.284 0 .858-.253 1.611-.759 2.259-.5.647-1.187 1.153-2.062 1.517-.869.358-1.872.537-3.009.537-1.733 0-3.113-.361-4.142-1.083-1.022-.727-1.622-1.716-1.798-2.966l3.571-.187c.108.528.369.932.784 1.21.415.273.946.409 1.594.409.636 0 1.148-.122 1.534-.366.392-.25.591-.571.597-.963-.006-.33-.145-.6-.418-.81-.273-.216-.693-.381-1.261-.494l-2.267-.452c-1.279-.256-2.231-.699-2.856-1.33-.619-.63-.929-1.434-.929-2.412 0-.84.228-1.565.682-2.173.461-.608 1.105-1.077 1.935-1.406.835-.33 1.812-.494 2.932-.494 1.653 0 2.954.349 3.903 1.048.955.699 1.512 1.65 1.671 2.855zm6.215-8.097v17.455h-3.631v-17.455zm8.874 17.711c-1.346 0-2.506-.273-3.477-.818-.966-.552-1.71-1.33-2.233-2.336-.523-1.011-.784-2.207-.784-3.588 0-1.346.261-2.528.784-3.545s1.258-1.81 2.207-2.378c.955-.568 2.074-.852 3.358-.852.864 0 1.668.139 2.412.417.75.273 1.404.685 1.96 1.236.563.551 1 1.244 1.313 2.08.312.829.469 1.801.469 2.914v.998h-11.054v-2.25h7.636c0-.523-.114-.986-.341-1.39-.227-.403-.542-.718-.946-.946-.398-.233-.861-.349-1.389-.349-.551 0-1.04.128-1.466.383-.42.25-.75.588-.989 1.015-.238.42-.36.889-.366 1.406v2.139c0 .648.119 1.207.358 1.679.244.472.588.835 1.031 1.091s.969.383 1.577.383c.403 0 .773-.056 1.108-.17s.622-.284.861-.511c.238-.228.42-.506.545-.836l3.358.222c-.17.807-.52 1.511-1.048 2.114-.523.596-1.199 1.062-2.029 1.397-.824.33-1.775.495-2.855.495zm14.344 0c-1.347 0-2.506-.273-3.477-.818-.966-.552-1.711-1.33-2.233-2.336-.523-1.011-.784-2.207-.784-3.588 0-1.346.261-2.528.784-3.545.522-1.017 1.258-1.81 2.207-2.378.955-.568 2.074-.852 3.358-.852.864 0 1.668.139 2.412.417.75.273 1.403.685 1.96 1.236.563.551 1 1.244 1.313 2.08.312.829.468 1.801.468 2.914v.998h-11.054v-2.25h7.637c0-.523-.114-.986-.341-1.39-.227-.403-.543-.718-.946-.946-.398-.233-.861-.349-1.389-.349-.551 0-1.04.128-1.466.383-.421.25-.75.588-.989 1.015-.239.42-.361.889-.366 1.406v2.139c0 .648.119 1.207.358 1.679.244.472.588.835 1.031 1.091s.969.383 1.577.383c.403 0 .772-.056 1.108-.17.335-.114.622-.284.86-.511.239-.228.421-.506.546-.836l3.358.222c-.171.807-.52 1.511-1.049 2.114-.522.596-1.198 1.062-2.028 1.397-.824.33-1.776.495-2.855.495zm8.378 4.653v-18h3.579v2.199h.162c.159-.352.389-.71.691-1.074.306-.369.704-.676 1.193-.92.494-.25 1.108-.375 1.841-.375.954 0 1.835.25 2.642.75.807.494 1.451 1.241 1.934 2.241.483.994.725 2.242.725 3.742 0 1.46-.236 2.693-.708 3.698-.466 1-1.102 1.759-1.909 2.276-.801.511-1.699.767-2.693.767-.704 0-1.304-.116-1.798-.349-.489-.233-.889-.526-1.202-.878-.312-.358-.551-.719-.716-1.083h-.111v7.006zm3.554-11.454c0 .778.108 1.457.324 2.036.215.58.528 1.032.937 1.356.409.318.906.477 1.492.477.59 0 1.09-.162 1.5-.486.409-.329.718-.784.929-1.364.215-.585.323-1.258.323-2.019 0-.756-.105-1.421-.315-1.995s-.52-1.023-.929-1.346c-.409-.324-.912-.486-1.508-.486-.591 0-1.091.156-1.5.469-.404.312-.714.755-.929 1.329-.216.574-.324 1.25-.324 2.029z"/><path d="m109.132 454v-10.182h3.441c.798 0 1.451.144 1.959.433.51.285.888.671 1.133 1.158s.368 1.031.368 1.631-.123 1.145-.368 1.635c-.242.491-.616.882-1.124 1.174-.507.288-1.156.432-1.948.432h-2.466v-1.093h2.426c.547 0 .986-.095 1.317-.284.332-.189.572-.444.721-.766.153-.324.229-.691.229-1.098 0-.408-.076-.772-.229-1.094-.149-.321-.391-.573-.726-.756-.334-.185-.779-.278-1.332-.278h-2.168v9.088zm11.748.159c-.689 0-1.294-.164-1.814-.492-.517-.328-.922-.787-1.213-1.377-.289-.59-.433-1.28-.433-2.068 0-.796.144-1.49.433-2.084.291-.593.696-1.053 1.213-1.382.52-.328 1.125-.492 1.814-.492.69 0 1.293.164 1.81.492.52.329.925.789 1.213 1.382.292.594.437 1.288.437 2.084 0 .788-.145 1.478-.437 2.068-.288.59-.693 1.049-1.213 1.377-.517.328-1.12.492-1.81.492zm0-1.054c.524 0 .955-.134 1.293-.403.338-.268.588-.621.751-1.059.162-.437.243-.911.243-1.421 0-.511-.081-.986-.243-1.427-.163-.441-.413-.797-.751-1.069s-.769-.408-1.293-.408c-.523 0-.954.136-1.292.408s-.589.628-.751 1.069-.244.916-.244 1.427c0 .51.082.984.244 1.421.162.438.413.791.751 1.059.338.269.769.403 1.292.403zm6.345-1.889-.02-1.452h.239l3.341-3.4h1.452l-3.56 3.599h-.099zm-1.094 2.784v-10.182h1.174v10.182zm4.853 0-2.983-3.778.835-.816 3.639 4.594zm5.65.159c-.736 0-1.371-.162-1.904-.487-.53-.328-.94-.786-1.228-1.372-.285-.59-.428-1.276-.428-2.059 0-.782.143-1.471.428-2.068.288-.6.689-1.067 1.203-1.402.517-.338 1.12-.507 1.81-.507.397 0 .79.066 1.178.199s.741.348 1.059.646c.318.295.572.686.761 1.174.188.487.283 1.087.283 1.799v.498h-5.886v-1.015h4.693c0-.431-.086-.815-.259-1.153-.169-.338-.411-.605-.726-.8-.311-.196-.679-.294-1.103-.294-.468 0-.872.116-1.213.348-.338.229-.599.527-.781.895s-.273.762-.273 1.183v.676c0 .577.099 1.066.298 1.467.202.398.482.701.84.91.358.205.774.308 1.248.308.308 0 .587-.043.835-.129.252-.09.469-.222.651-.398.183-.179.324-.401.423-.666l1.134.318c-.12.385-.32.723-.602 1.014-.282.289-.63.514-1.044.676-.414.16-.88.239-1.397.239zm9.64 2.705c-.199 0-.376-.017-.532-.05-.156-.03-.264-.06-.323-.09l.298-1.034c.285.073.537.1.756.08.218-.02.412-.118.581-.293.173-.173.33-.453.473-.841l.218-.596-2.823-7.676h1.272l2.108 6.085h.08l2.108-6.085h1.273l-3.242 8.75c-.146.394-.326.721-.542.979-.215.262-.466.456-.751.582-.281.126-.599.189-.954.189zm9.866-2.705c-.689 0-1.294-.164-1.815-.492-.517-.328-.921-.787-1.213-1.377-.288-.59-.432-1.28-.432-2.068 0-.796.144-1.49.432-2.084.292-.593.696-1.053 1.213-1.382.521-.328 1.126-.492 1.815-.492s1.293.164 1.81.492c.52.329.924.789 1.213 1.382.291.594.437 1.288.437 2.084 0 .788-.146 1.478-.437 2.068-.289.59-.693 1.049-1.213 1.377-.517.328-1.121.492-1.81.492zm0-1.054c.524 0 .955-.134 1.293-.403.338-.268.588-.621.75-1.059.163-.437.244-.911.244-1.421 0-.511-.081-.986-.244-1.427-.162-.441-.412-.797-.75-1.069s-.769-.408-1.293-.408-.955.136-1.293.408-.588.628-.75 1.069c-.163.441-.244.916-.244 1.427 0 .51.081.984.244 1.421.162.438.412.791.75 1.059.338.269.769.403 1.293.403zm10.064-2.227v-4.514h1.173v7.636h-1.173v-1.293h-.08c-.179.388-.457.718-.835.99-.378.268-.855.402-1.432.402-.477 0-.901-.104-1.273-.313-.371-.212-.662-.53-.875-.954-.212-.428-.318-.966-.318-1.616v-4.852h1.174v4.772c0 .557.155 1.001.467 1.333.315.331.716.497 1.203.497.292 0 .588-.075.89-.224.305-.149.56-.378.766-.686.208-.308.313-.701.313-1.178zm3.322 3.122v-7.636h1.134v1.153h.079c.139-.378.391-.684.756-.92.364-.235.775-.353 1.233-.353.086 0 .194.002.323.005.129.004.227.009.293.015v1.193c-.04-.01-.131-.024-.273-.044-.139-.024-.287-.035-.443-.035-.371 0-.702.078-.994.234-.288.152-.517.364-.686.636-.166.268-.249.575-.249.92v4.832zm10.32-4.594v4.594h-1.174v-10.182h1.174v3.739h.099c.179-.395.448-.708.806-.94.361-.235.841-.353 1.441-.353.521 0 .976.105 1.368.313.391.206.694.522.909.95.219.424.328.964.328 1.621v4.852h-1.173v-4.773c0-.606-.157-1.075-.472-1.407-.312-.334-.744-.502-1.298-.502-.384 0-.729.081-1.034.244-.301.162-.54.399-.716.711-.172.311-.258.689-.258 1.133zm10.2 4.753c-.689 0-1.294-.164-1.814-.492-.517-.328-.922-.787-1.213-1.377-.289-.59-.433-1.28-.433-2.068 0-.796.144-1.49.433-2.084.291-.593.696-1.053 1.213-1.382.52-.328 1.125-.492 1.814-.492.69 0 1.293.164 1.81.492.52.329.925.789 1.213 1.382.292.594.437 1.288.437 2.084 0 .788-.145 1.478-.437 2.068-.288.59-.693 1.049-1.213 1.377-.517.328-1.12.492-1.81.492zm0-1.054c.524 0 .955-.134 1.293-.403.338-.268.588-.621.751-1.059.162-.437.243-.911.243-1.421 0-.511-.081-.986-.243-1.427-.163-.441-.413-.797-.751-1.069s-.769-.408-1.293-.408c-.523 0-.954.136-1.292.408s-.589.628-.751 1.069-.244.916-.244 1.427c0 .51.082.984.244 1.421.162.438.413.791.751 1.059.338.269.769.403 1.292.403zm10.661-5.031-1.054.298c-.067-.176-.164-.346-.294-.512-.126-.169-.298-.308-.517-.418-.219-.109-.499-.164-.84-.164-.467 0-.857.108-1.168.324-.309.212-.463.482-.463.81 0 .292.106.522.319.691.212.169.543.31.994.423l1.133.278c.683.166 1.192.419 1.527.761.334.338.502.774.502 1.307 0 .438-.126.829-.378 1.173-.249.345-.597.617-1.044.816-.448.199-.968.298-1.561.298-.779 0-1.424-.169-1.934-.507-.511-.338-.834-.832-.97-1.482l1.114-.278c.106.411.307.719.602.925.298.205.687.308 1.168.308.547 0 .981-.116 1.303-.348.324-.235.487-.517.487-.845 0-.265-.093-.487-.279-.666-.185-.183-.47-.319-.855-.408l-1.273-.298c-.699-.166-1.213-.423-1.541-.771-.325-.351-.487-.79-.487-1.317 0-.431.121-.812.363-1.144.245-.331.578-.591.999-.78.425-.189.905-.284 1.442-.284.756 0 1.349.166 1.78.497.434.332.742.769.925 1.313zm5.226-1.71v.994h-3.957v-.994zm-2.804-1.83h1.173v7.278c0 .332.048.581.144.746.1.163.226.272.378.328.156.053.32.08.492.08.13 0 .236-.007.319-.02.083-.017.149-.03.199-.04l.238 1.054c-.079.03-.19.06-.333.09-.142.033-.323.049-.542.049-.331 0-.656-.071-.974-.213-.315-.143-.577-.36-.786-.652-.205-.291-.308-.659-.308-1.103zm11.827 1.83v.994h-3.957v-.994zm-2.804-1.83h1.174v7.278c0 .332.048.581.144.746.099.163.225.272.378.328.156.053.32.08.492.08.129 0 .235-.007.318-.02.083-.017.149-.03.199-.04l.239 1.054c-.08.03-.191.06-.333.09-.143.033-.324.049-.542.049-.332 0-.657-.071-.975-.213-.315-.143-.577-.36-.785-.652-.206-.291-.309-.659-.309-1.103zm7.59 9.625c-.69 0-1.295-.164-1.815-.492-.517-.328-.921-.787-1.213-1.377-.288-.59-.433-1.28-.433-2.068 0-.796.145-1.49.433-2.084.292-.593.696-1.053 1.213-1.382.52-.328 1.125-.492 1.815-.492.689 0 1.292.164 1.809.492.521.329.925.789 1.213 1.382.292.594.438 1.288.438 2.084 0 .788-.146 1.478-.438 2.068-.288.59-.692 1.049-1.213 1.377-.517.328-1.12.492-1.809.492zm0-1.054c.523 0 .954-.134 1.292-.403.338-.268.588-.621.751-1.059.162-.437.243-.911.243-1.421 0-.511-.081-.986-.243-1.427-.163-.441-.413-.797-.751-1.069s-.769-.408-1.292-.408c-.524 0-.955.136-1.293.408s-.588.628-.751 1.069c-.162.441-.243.916-.243 1.427 0 .51.081.984.243 1.421.163.438.413.791.751 1.059.338.269.769.403 1.293.403zm12.291 1.054c-.716 0-1.333-.169-1.85-.507s-.915-.804-1.193-1.397-.418-1.271-.418-2.033c0-.776.143-1.46.428-2.054.288-.596.689-1.062 1.203-1.397.517-.338 1.12-.507 1.81-.507.537 0 1.021.1 1.451.298.431.199.784.478 1.059.836s.446.775.512 1.253h-1.173c-.089-.348-.288-.657-.596-.925-.305-.272-.716-.408-1.233-.408-.458 0-.859.119-1.204.358-.341.235-.608.569-.8.999-.189.428-.283.93-.283 1.507 0 .59.092 1.104.278 1.541.189.438.454.777.796 1.019.344.242.749.363 1.213.363.305 0 .581-.053.83-.159.248-.106.459-.258.631-.457.173-.199.295-.438.368-.716h1.173c-.066.45-.23.856-.492 1.218-.258.358-.601.643-1.029.855-.424.209-.918.313-1.481.313zm7.82 0c-.689 0-1.294-.164-1.815-.492-.517-.328-.921-.787-1.213-1.377-.288-.59-.432-1.28-.432-2.068 0-.796.144-1.49.432-2.084.292-.593.696-1.053 1.213-1.382.521-.328 1.126-.492 1.815-.492s1.293.164 1.81.492c.52.329.924.789 1.213 1.382.291.594.437 1.288.437 2.084 0 .788-.146 1.478-.437 2.068-.289.59-.693 1.049-1.213 1.377-.517.328-1.121.492-1.81.492zm0-1.054c.524 0 .954-.134 1.293-.403.338-.268.588-.621.75-1.059.163-.437.244-.911.244-1.421 0-.511-.081-.986-.244-1.427-.162-.441-.412-.797-.75-1.069-.339-.272-.769-.408-1.293-.408s-.955.136-1.293.408-.588.628-.75 1.069c-.163.441-.244.916-.244 1.427 0 .51.081.984.244 1.421.162.438.412.791.75 1.059.338.269.769.403 1.293.403zm6.424-3.699v4.594h-1.173v-7.636h1.134v1.193h.099c.179-.388.451-.7.815-.935.365-.238.836-.358 1.412-.358.517 0 .97.106 1.358.318.387.209.689.527.904.955.216.424.324.961.324 1.611v4.852h-1.174v-4.773c0-.6-.155-1.067-.467-1.402-.312-.338-.739-.507-1.283-.507-.374 0-.709.081-1.004.244-.292.162-.522.399-.691.711-.169.311-.254.689-.254 1.133zm10.338-3.042v.994h-3.958v-.994zm-2.804-1.83h1.173v7.278c0 .332.048.581.144.746.1.163.225.272.378.328.156.053.32.08.492.08.129 0 .235-.007.318-.02.083-.017.149-.03.199-.04l.239 1.054c-.08.03-.191.06-.333.09-.143.033-.323.049-.542.049-.332 0-.656-.071-.975-.213-.314-.143-.576-.36-.785-.652-.206-.291-.308-.659-.308-1.103zm4.569 9.466v-7.636h1.173v7.636zm.596-8.909c-.229 0-.426-.078-.592-.234-.162-.156-.243-.343-.243-.562 0-.218.081-.406.243-.561.166-.156.363-.234.592-.234s.424.078.587.234c.165.155.248.343.248.561 0 .219-.083.406-.248.562-.163.156-.358.234-.587.234zm3.899 4.315v4.594h-1.173v-7.636h1.133v1.193h.1c.179-.388.451-.7.815-.935.365-.238.835-.358 1.412-.358.517 0 .969.106 1.357.318.388.209.69.527.905.955.216.424.323.961.323 1.611v4.852h-1.173v-4.773c0-.6-.156-1.067-.467-1.402-.312-.338-.739-.507-1.283-.507-.375 0-.709.081-1.004.244-.292.162-.522.399-.691.711-.169.311-.254.689-.254 1.133zm11.829 1.472v-4.514h1.173v7.636h-1.173v-1.293h-.08c-.179.388-.457.718-.835.99-.378.268-.855.402-1.432.402-.477 0-.901-.104-1.273-.313-.371-.212-.662-.53-.875-.954-.212-.428-.318-.966-.318-1.616v-4.852h1.174v4.772c0 .557.155 1.001.467 1.333.315.331.716.497 1.203.497.292 0 .588-.075.89-.224.305-.149.56-.378.766-.686.208-.308.313-.701.313-1.178zm6.524 3.281c-.736 0-1.371-.162-1.904-.487-.531-.328-.94-.786-1.228-1.372-.285-.59-.428-1.276-.428-2.059 0-.782.143-1.471.428-2.068.288-.6.689-1.067 1.203-1.402.517-.338 1.12-.507 1.809-.507.398 0 .791.066 1.179.199.387.133.74.348 1.059.646.318.295.571.686.76 1.174.189.487.284 1.087.284 1.799v.498h-5.887v-1.015h4.693c0-.431-.086-.815-.258-1.153-.169-.338-.411-.605-.726-.8-.311-.196-.679-.294-1.104-.294-.467 0-.871.116-1.213.348-.338.229-.598.527-.78.895-.183.368-.274.762-.274 1.183v.676c0 .577.1 1.066.299 1.467.202.398.482.701.84.91.358.205.774.308 1.248.308.308 0 .586-.043.835-.129.252-.09.469-.222.651-.398.183-.179.323-.401.423-.666l1.133.318c-.119.385-.32.723-.601 1.014-.282.289-.63.514-1.044.676-.415.16-.88.239-1.397.239z"/></g></g></g></svg>