<svg width="393" height="852" viewBox="0 0 393 852" fill="none" xmlns="http://www.w3.org/2000/svg">
<g clip-path="url(#clip0_1015_55125)">
<rect width="393" height="852" fill="white"/>
<rect width="396" height="853" fill="#150423"/>
<path d="M25.2442 30.5V17.4091H33.9118V19.6911H28.012V22.8104H33.3366V25.0923H28.012V30.5H25.2442ZM35.7224 30.5V20.6818H38.4454V30.5H35.7224ZM37.0903 19.4162C36.6855 19.4162 36.3382 19.282 36.0484 19.0135C35.7629 18.7408 35.6201 18.4148 35.6201 18.0355C35.6201 17.6605 35.7629 17.3388 36.0484 17.0703C36.3382 16.7976 36.6855 16.6612 37.0903 16.6612C37.4951 16.6612 37.8403 16.7976 38.1258 17.0703C38.4156 17.3388 38.5605 17.6605 38.5605 18.0355C38.5605 18.4148 38.4156 18.7408 38.1258 19.0135C37.8403 19.282 37.4951 19.4162 37.0903 19.4162ZM48.7957 23.4815L46.3028 23.6349C46.2602 23.4219 46.1686 23.2301 46.028 23.0597C45.8873 22.8849 45.702 22.7464 45.4719 22.6442C45.246 22.5376 44.9754 22.4844 44.6601 22.4844C44.2382 22.4844 43.8824 22.5739 43.5926 22.7528C43.3028 22.9276 43.1579 23.1619 43.1579 23.456C43.1579 23.6903 43.2517 23.8885 43.4392 24.0504C43.6267 24.2124 43.9484 24.3423 44.4044 24.4403L46.1814 24.7983C47.1359 24.9943 47.8476 25.3097 48.3163 25.7443C48.7851 26.179 49.0194 26.75 49.0194 27.4574C49.0194 28.1009 48.8298 28.6655 48.4506 29.1513C48.0756 29.6371 47.5599 30.0163 46.9037 30.2891C46.2517 30.5575 45.4996 30.6918 44.6473 30.6918C43.3476 30.6918 42.3121 30.4212 41.5407 29.88C40.7737 29.3345 40.3241 28.593 40.192 27.6555L42.8703 27.5149C42.9513 27.9112 43.1473 28.2138 43.4584 28.4226C43.7694 28.6271 44.1679 28.7294 44.6537 28.7294C45.1309 28.7294 45.5145 28.6378 45.8042 28.4545C46.0983 28.267 46.2474 28.0263 46.2517 27.7322C46.2474 27.4851 46.143 27.2827 45.9385 27.125C45.7339 26.9631 45.4186 26.8395 44.9925 26.7543L43.2922 26.4155C42.3334 26.2237 41.6196 25.8913 41.1508 25.4183C40.6863 24.9453 40.4541 24.3423 40.4541 23.6094C40.4541 22.9787 40.6246 22.4354 40.9655 21.9794C41.3106 21.5234 41.7943 21.1719 42.4165 20.9247C43.0429 20.6776 43.7758 20.554 44.6153 20.554C45.8554 20.554 46.8312 20.8161 47.5429 21.3402C48.2588 21.8643 48.6764 22.5781 48.7957 23.4815ZM58.9031 23.4815L56.4102 23.6349C56.3676 23.4219 56.276 23.2301 56.1354 23.0597C55.9948 22.8849 55.8094 22.7464 55.5793 22.6442C55.3534 22.5376 55.0828 22.4844 54.7675 22.4844C54.3456 22.4844 53.9898 22.5739 53.7 22.7528C53.4102 22.9276 53.2654 23.1619 53.2654 23.456C53.2654 23.6903 53.3591 23.8885 53.5466 24.0504C53.7341 24.2124 54.0558 24.3423 54.5118 24.4403L56.2888 24.7983C57.2433 24.9943 57.955 25.3097 58.4237 25.7443C58.8925 26.179 59.1269 26.75 59.1269 27.4574C59.1269 28.1009 58.9372 28.6655 58.558 29.1513C58.183 29.6371 57.6673 30.0163 57.0111 30.2891C56.3591 30.5575 55.607 30.6918 54.7547 30.6918C53.455 30.6918 52.4195 30.4212 51.6482 29.88C50.8811 29.3345 50.4316 28.593 50.2994 27.6555L52.9777 27.5149C53.0587 27.9112 53.2547 28.2138 53.5658 28.4226C53.8769 28.6271 54.2753 28.7294 54.7611 28.7294C55.2384 28.7294 55.6219 28.6378 55.9117 28.4545C56.2057 28.267 56.3548 28.0263 56.3591 27.7322C56.3548 27.4851 56.2504 27.2827 56.0459 27.125C55.8414 26.9631 55.526 26.8395 55.0999 26.7543L53.3996 26.4155C52.4408 26.2237 51.727 25.8913 51.2583 25.4183C50.7938 24.9453 50.5615 24.3423 50.5615 23.6094C50.5615 22.9787 50.732 22.4354 51.0729 21.9794C51.4181 21.5234 51.9017 21.1719 52.5239 20.9247C53.1503 20.6776 53.8833 20.554 54.7227 20.554C55.9628 20.554 56.9387 20.8161 57.6503 21.3402C58.3662 21.8643 58.7838 22.5781 58.9031 23.4815ZM63.6412 30.6854C63.0148 30.6854 62.4566 30.5767 61.9665 30.3594C61.4765 30.1378 61.0887 29.8118 60.8032 29.3814C60.5219 28.9467 60.3813 28.4055 60.3813 27.7578C60.3813 27.2124 60.4814 26.7543 60.6817 26.3835C60.882 26.0128 61.1547 25.7145 61.4999 25.4886C61.8451 25.2628 62.2371 25.0923 62.676 24.9773C63.1192 24.8622 63.5837 24.7812 64.0695 24.7344C64.6405 24.6747 65.1008 24.6193 65.4502 24.5682C65.7996 24.5128 66.0532 24.4318 66.2108 24.3253C66.3685 24.2187 66.4474 24.0611 66.4474 23.8523V23.8139C66.4474 23.4091 66.3195 23.0959 66.0638 22.8743C65.8124 22.6527 65.4545 22.5419 64.99 22.5419C64.4999 22.5419 64.11 22.6506 63.8202 22.8679C63.5305 23.081 63.3387 23.3494 63.2449 23.6733L60.7265 23.4688C60.8543 22.8722 61.1057 22.3565 61.4807 21.9219C61.8557 21.483 62.3394 21.1463 62.9317 20.9119C63.5283 20.6733 64.2187 20.554 65.0028 20.554C65.5482 20.554 66.0702 20.6179 66.5688 20.7457C67.0716 20.8736 67.517 21.0717 67.9047 21.3402C68.2968 21.6087 68.6057 21.9538 68.8316 22.3757C69.0574 22.7933 69.1704 23.294 69.1704 23.8778V30.5H66.588V29.1385H66.5113C66.3536 29.4453 66.1427 29.7159 65.8785 29.9503C65.6143 30.1804 65.2968 30.3615 64.926 30.4936C64.5553 30.6214 64.127 30.6854 63.6412 30.6854ZM64.4211 28.8061C64.8216 28.8061 65.1753 28.7273 65.4822 28.5696C65.789 28.4077 66.0297 28.1903 66.2045 27.9176C66.3792 27.6449 66.4665 27.3359 66.4665 26.9908V25.9489C66.3813 26.0043 66.2641 26.0554 66.115 26.1023C65.9701 26.1449 65.806 26.1854 65.6228 26.2237C65.4395 26.2578 65.2563 26.2898 65.0731 26.3196C64.8898 26.3452 64.7236 26.3686 64.5745 26.3899C64.2549 26.4368 63.9758 26.5114 63.7371 26.6136C63.4985 26.7159 63.3131 26.8544 63.181 27.0291C63.0489 27.1996 62.9829 27.4126 62.9829 27.6683C62.9829 28.0391 63.1171 28.3224 63.3856 28.5185C63.6583 28.7102 64.0035 28.8061 64.4211 28.8061ZM80.1599 17.2301C80.8332 17.2301 81.4809 17.343 82.1031 17.5689C82.7295 17.7947 83.2877 18.1548 83.7778 18.6491C84.2721 19.1435 84.662 19.7997 84.9475 20.6179C85.2373 21.4318 85.3843 22.4311 85.3886 23.6158C85.3886 24.728 85.2629 25.7209 85.0115 26.5945C84.7643 27.4638 84.4085 28.2031 83.944 28.8125C83.4795 29.4219 82.9191 29.8864 82.2629 30.206C81.6066 30.5213 80.8737 30.679 80.064 30.679C79.1904 30.679 78.4191 30.5107 77.7501 30.174C77.0811 29.8331 76.542 29.3707 76.1329 28.7869C75.7281 28.1989 75.483 27.5384 75.3978 26.8054H78.1272C78.2338 27.2827 78.4575 27.6534 78.7984 27.9176C79.1393 28.1776 79.5612 28.3075 80.064 28.3075C80.9163 28.3075 81.564 27.9368 82.0072 27.1953C82.4504 26.4496 82.6741 25.429 82.6784 24.1335H82.5889C82.3928 24.517 82.1286 24.8473 81.7963 25.1243C81.4639 25.397 81.0825 25.608 80.6521 25.7571C80.2259 25.9062 79.7721 25.9808 79.2906 25.9808C78.5193 25.9808 77.8311 25.7997 77.2259 25.4375C76.6208 25.0753 76.1436 24.5767 75.7941 23.9418C75.4447 23.3068 75.27 22.5824 75.27 21.7685C75.2657 20.8906 75.4681 20.1087 75.8772 19.4226C76.2863 18.7365 76.8573 18.1996 77.5903 17.8118C78.3275 17.4197 79.184 17.2259 80.1599 17.2301ZM80.1791 19.4034C79.7487 19.4034 79.3651 19.5057 79.0285 19.7102C78.6961 19.9148 78.4319 20.1896 78.2359 20.5348C78.0441 20.88 77.9504 21.2656 77.9546 21.6918C77.9546 22.1222 78.0484 22.5099 78.2359 22.8551C78.4276 23.196 78.6876 23.4687 79.0157 23.6733C79.3481 23.8736 79.7274 23.9737 80.1535 23.9737C80.4731 23.9737 80.7693 23.9141 81.042 23.7947C81.3147 23.6754 81.5512 23.5114 81.7515 23.3026C81.9561 23.0895 82.1159 22.8445 82.2309 22.5675C82.346 22.2905 82.4035 21.9964 82.4035 21.6854C82.3992 21.272 82.3012 20.8928 82.1095 20.5476C81.9177 20.2024 81.6535 19.9254 81.3169 19.7166C80.9802 19.5078 80.6009 19.4034 80.1791 19.4034ZM92.0427 17.2301C92.716 17.2301 93.3637 17.343 93.9859 17.5689C94.6123 17.7947 95.1705 18.1548 95.6606 18.6491C96.1549 19.1435 96.5448 19.7997 96.8303 20.6179C97.1201 21.4318 97.2671 22.4311 97.2714 23.6158C97.2714 24.728 97.1457 25.7209 96.8943 26.5945C96.6471 27.4638 96.2913 28.2031 95.8268 28.8125C95.3623 29.4219 94.8019 29.8864 94.1457 30.206C93.4894 30.5213 92.7565 30.679 91.9468 30.679C91.0732 30.679 90.3019 30.5107 89.6329 30.174C88.9639 29.8331 88.4248 29.3707 88.0157 28.7869C87.6109 28.1989 87.3659 27.5384 87.2806 26.8054H90.01C90.1166 27.2827 90.3403 27.6534 90.6812 27.9176C91.0221 28.1776 91.444 28.3075 91.9468 28.3075C92.7991 28.3075 93.4468 27.9368 93.89 27.1953C94.3332 26.4496 94.5569 25.429 94.5612 24.1335H94.4717C94.2757 24.517 94.0115 24.8473 93.6791 25.1243C93.3467 25.397 92.9653 25.608 92.5349 25.7571C92.1088 25.9062 91.6549 25.9808 91.1734 25.9808C90.4021 25.9808 89.7139 25.7997 89.1088 25.4375C88.5036 25.0753 88.0264 24.5767 87.6769 23.9418C87.3275 23.3068 87.1528 22.5824 87.1528 21.7685C87.1485 20.8906 87.3509 20.1087 87.76 19.4226C88.1691 18.7365 88.7401 18.1996 89.4731 17.8118C90.2103 17.4197 91.0669 17.2259 92.0427 17.2301ZM92.0619 19.4034C91.6315 19.4034 91.248 19.5057 90.9113 19.7102C90.5789 19.9148 90.3147 20.1896 90.1187 20.5348C89.9269 20.88 89.8332 21.2656 89.8374 21.6918C89.8374 22.1222 89.9312 22.5099 90.1187 22.8551C90.3105 23.196 90.5704 23.4687 90.8985 23.6733C91.2309 23.8736 91.6102 23.9737 92.0363 23.9737C92.3559 23.9737 92.6521 23.9141 92.9248 23.7947C93.1975 23.6754 93.434 23.5114 93.6343 23.3026C93.8389 23.0895 93.9987 22.8445 94.1137 22.5675C94.2288 22.2905 94.2863 21.9964 94.2863 21.6854C94.282 21.272 94.184 20.8928 93.9923 20.5476C93.8005 20.2024 93.5363 19.9254 93.1997 19.7166C92.863 19.5078 92.4838 19.4034 92.0619 19.4034ZM103.926 17.2301C104.599 17.2301 105.247 17.343 105.869 17.5689C106.495 17.7947 107.053 18.1548 107.543 18.6491C108.038 19.1435 108.428 19.7997 108.713 20.6179C109.003 21.4318 109.15 22.4311 109.154 23.6158C109.154 24.728 109.028 25.7209 108.777 26.5945C108.53 27.4638 108.174 28.2031 107.71 28.8125C107.245 29.4219 106.685 29.8864 106.028 30.206C105.372 30.5213 104.639 30.679 103.83 30.679C102.956 30.679 102.185 30.5107 101.516 30.174C100.847 29.8331 100.308 29.3707 99.8985 28.7869C99.4937 28.1989 99.2487 27.5384 99.1634 26.8054H101.893C101.999 27.2827 102.223 27.6534 102.564 27.9176C102.905 28.1776 103.327 28.3075 103.83 28.3075C104.682 28.3075 105.33 27.9368 105.773 27.1953C106.216 26.4496 106.44 25.429 106.444 24.1335H106.354C106.158 24.517 105.894 24.8473 105.562 25.1243C105.229 25.397 104.848 25.608 104.418 25.7571C103.992 25.9062 103.538 25.9808 103.056 25.9808C102.285 25.9808 101.597 25.7997 100.992 25.4375C100.386 25.0753 99.9092 24.5767 99.5597 23.9418C99.2103 23.3068 99.0356 22.5824 99.0356 21.7685C99.0313 20.8906 99.2338 20.1087 99.6428 19.4226C100.052 18.7365 100.623 18.1996 101.356 17.8118C102.093 17.4197 102.95 17.2259 103.926 17.2301ZM103.945 19.4034C103.514 19.4034 103.131 19.5057 102.794 19.7102C102.462 19.9148 102.198 20.1896 102.002 20.5348C101.81 20.88 101.716 21.2656 101.72 21.6918C101.72 22.1222 101.814 22.5099 102.002 22.8551C102.193 23.196 102.453 23.4687 102.781 23.6733C103.114 23.8736 103.493 23.9737 103.919 23.9737C104.239 23.9737 104.535 23.9141 104.808 23.7947C105.08 23.6754 105.317 23.5114 105.517 23.3026C105.722 23.0895 105.881 22.8445 105.997 22.5675C106.112 22.2905 106.169 21.9964 106.169 21.6854C106.165 21.272 106.067 20.8928 105.875 20.5476C105.683 20.2024 105.419 19.9254 105.082 19.7166C104.746 19.5078 104.367 19.4034 103.945 19.4034ZM115.808 17.2301C116.482 17.2301 117.129 17.343 117.752 17.5689C118.378 17.7947 118.936 18.1548 119.426 18.6491C119.921 19.1435 120.31 19.7997 120.596 20.6179C120.886 21.4318 121.033 22.4311 121.037 23.6158C121.037 24.728 120.911 25.7209 120.66 26.5945C120.413 27.4638 120.057 28.2031 119.592 28.8125C119.128 29.4219 118.568 29.8864 117.911 30.206C117.255 30.5213 116.522 30.679 115.712 30.679C114.839 30.679 114.068 30.5107 113.399 30.174C112.729 29.8331 112.19 29.3707 111.781 28.7869C111.377 28.1989 111.131 27.5384 111.046 26.8054H113.776C113.882 27.2827 114.106 27.6534 114.447 27.9176C114.788 28.1776 115.21 28.3075 115.712 28.3075C116.565 28.3075 117.212 27.9368 117.656 27.1953C118.099 26.4496 118.323 25.429 118.327 24.1335H118.237C118.041 24.517 117.777 24.8473 117.445 25.1243C117.112 25.397 116.731 25.608 116.301 25.7571C115.874 25.9062 115.421 25.9808 114.939 25.9808C114.168 25.9808 113.479 25.7997 112.874 25.4375C112.269 25.0753 111.792 24.5767 111.443 23.9418C111.093 23.3068 110.918 22.5824 110.918 21.7685C110.914 20.8906 111.117 20.1087 111.526 19.4226C111.935 18.7365 112.506 18.1996 113.239 17.8118C113.976 17.4197 114.832 17.2259 115.808 17.2301ZM115.828 19.4034C115.397 19.4034 115.014 19.5057 114.677 19.7102C114.345 19.9148 114.08 20.1896 113.884 20.5348C113.693 20.88 113.599 21.2656 113.603 21.6918C113.603 22.1222 113.697 22.5099 113.884 22.8551C114.076 23.196 114.336 23.4687 114.664 23.6733C114.997 23.8736 115.376 23.9737 115.802 23.9737C116.122 23.9737 116.418 23.9141 116.69 23.7947C116.963 23.6754 117.2 23.5114 117.4 23.3026C117.604 23.0895 117.764 22.8445 117.879 22.5675C117.994 22.2905 118.052 21.9964 118.052 21.6854C118.048 21.272 117.95 20.8928 117.758 20.5476C117.566 20.2024 117.302 19.9254 116.965 19.7166C116.629 19.5078 116.249 19.4034 115.828 19.4034Z" fill="#FFCAF7"/>
<path d="M356.99 35L356.552 31.48C356.315 31.3883 356.092 31.2783 355.882 31.15C355.673 31.0217 355.468 30.8842 355.266 30.7375L352.01 32.1125L349 26.8875L351.818 24.7425C351.8 24.6142 351.791 24.4906 351.791 24.3718V23.6293C351.791 23.5098 351.8 23.3858 351.818 23.2575L349 21.1125L352.01 15.8875L355.266 17.2625C355.467 17.1158 355.677 16.9783 355.896 16.85C356.114 16.7217 356.333 16.6117 356.552 16.52L356.99 13H363.01L363.448 16.52C363.685 16.6117 363.909 16.7217 364.119 16.85C364.329 16.9783 364.534 17.1158 364.734 17.2625L367.99 15.8875L371 21.1125L368.182 23.2575C368.2 23.3858 368.209 23.5098 368.209 23.6293V24.3707C368.209 24.4902 368.191 24.6142 368.154 24.7425L370.973 26.8875L367.963 32.1125L364.734 30.7375C364.533 30.8842 364.323 31.0217 364.104 31.15C363.886 31.2783 363.667 31.3883 363.448 31.48L363.01 35H356.99ZM358.905 32.8H361.067L361.45 29.885C362.016 29.7383 362.54 29.5231 363.024 29.2393C363.508 28.9555 363.95 28.6116 364.351 28.2075L367.06 29.335L368.127 27.465L365.774 25.6775C365.865 25.4208 365.929 25.1506 365.965 24.8668C366.002 24.583 366.02 24.2941 366.02 24C366.02 23.7067 366.002 23.4181 365.965 23.1343C365.929 22.8505 365.865 22.5799 365.774 22.3225L368.127 20.535L367.06 18.665L364.351 19.82C363.949 19.3983 363.507 19.0456 363.024 18.7618C362.541 18.478 362.016 18.2624 361.45 18.115L361.095 15.2H358.933L358.55 18.115C357.984 18.2617 357.46 18.4773 356.977 18.7618C356.494 19.0463 356.051 19.3899 355.649 19.7925L352.94 18.665L351.873 20.535L354.226 22.295C354.135 22.57 354.071 22.845 354.035 23.12C353.998 23.395 353.98 23.6883 353.98 24C353.98 24.2933 353.998 24.5775 354.035 24.8525C354.071 25.1275 354.135 25.4025 354.226 25.6775L351.873 27.465L352.94 29.335L355.649 28.18C356.051 28.6017 356.493 28.9548 356.977 29.2393C357.461 29.5238 357.985 29.7391 358.55 29.885L358.905 32.8ZM360.055 27.85C361.113 27.85 362.016 27.4742 362.764 26.7225C363.512 25.9708 363.886 25.0633 363.886 24C363.886 22.9367 363.512 22.0292 362.764 21.2775C362.016 20.5258 361.113 20.15 360.055 20.15C358.978 20.15 358.071 20.5258 357.332 21.2775C356.592 22.0292 356.223 22.9367 356.224 24C356.224 25.0633 356.593 25.9708 357.333 26.7225C358.072 27.4742 358.979 27.85 360.055 27.85Z" fill="#FFCAF7"/>
<g filter="url(#filter0_d_1015_55125)">
<rect x="316" y="773" width="56" height="56" rx="16" fill="url(#paint0_linear_1015_55125)"/>
<path d="M344 791.667V810.333M334.667 801H353.333" stroke="#150423" stroke-width="3" stroke-linecap="round" stroke-linejoin="round"/>
</g>
<g clip-path="url(#clip1_1015_55125)">
<path d="M164.5 383.48H228.5V319.48H164.5V383.48Z" fill="#150423"/>
<path d="M83.8679 413.588V410.545H98.2031V413.588H92.8594V428H89.2116V413.588H83.8679ZM104.126 420.432V428H100.496V410.545H104.024V417.219H104.178C104.473 416.446 104.95 415.841 105.609 415.403C106.268 414.96 107.095 414.739 108.089 414.739C108.999 414.739 109.791 414.938 110.467 415.335C111.149 415.727 111.678 416.293 112.053 417.031C112.433 417.764 112.621 418.642 112.615 419.665V428H108.984V420.312C108.99 419.506 108.786 418.878 108.371 418.429C107.962 417.98 107.388 417.756 106.649 417.756C106.155 417.756 105.717 417.861 105.337 418.071C104.962 418.281 104.666 418.588 104.45 418.991C104.24 419.389 104.132 419.869 104.126 420.432ZM115.472 428V414.909H119.103V428H115.472ZM117.296 413.222C116.756 413.222 116.293 413.043 115.907 412.685C115.526 412.321 115.336 411.886 115.336 411.381C115.336 410.881 115.526 410.452 115.907 410.094C116.293 409.73 116.756 409.548 117.296 409.548C117.836 409.548 118.296 409.73 118.677 410.094C119.063 410.452 119.256 410.881 119.256 411.381C119.256 411.886 119.063 412.321 118.677 412.685C118.296 413.043 117.836 413.222 117.296 413.222ZM132.903 418.642L129.58 418.847C129.523 418.562 129.401 418.307 129.213 418.08C129.026 417.847 128.778 417.662 128.472 417.526C128.17 417.384 127.81 417.312 127.389 417.312C126.827 417.312 126.352 417.432 125.966 417.67C125.58 417.903 125.386 418.216 125.386 418.608C125.386 418.92 125.511 419.185 125.761 419.401C126.011 419.616 126.44 419.79 127.048 419.92L129.418 420.398C130.69 420.659 131.639 421.08 132.264 421.659C132.889 422.239 133.202 423 133.202 423.943C133.202 424.801 132.949 425.554 132.443 426.202C131.943 426.849 131.256 427.355 130.381 427.719C129.511 428.077 128.509 428.256 127.372 428.256C125.639 428.256 124.259 427.895 123.23 427.173C122.207 426.446 121.608 425.457 121.432 424.207L125.003 424.02C125.111 424.548 125.372 424.952 125.787 425.23C126.202 425.503 126.733 425.639 127.381 425.639C128.017 425.639 128.528 425.517 128.915 425.273C129.307 425.023 129.506 424.702 129.511 424.31C129.506 423.98 129.366 423.71 129.094 423.5C128.821 423.284 128.401 423.119 127.832 423.006L125.565 422.554C124.287 422.298 123.335 421.855 122.71 421.224C122.091 420.594 121.781 419.79 121.781 418.812C121.781 417.972 122.009 417.247 122.463 416.639C122.923 416.031 123.568 415.562 124.398 415.233C125.233 414.903 126.21 414.739 127.33 414.739C128.983 414.739 130.284 415.088 131.233 415.787C132.188 416.486 132.744 417.437 132.903 418.642ZM141.111 428V410.545H152.668V413.588H144.801V417.747H151.901V420.79H144.801V428H141.111ZM155.082 428V414.909H158.712V428H155.082ZM156.906 413.222C156.366 413.222 155.903 413.043 155.516 412.685C155.136 412.321 154.945 411.886 154.945 411.381C154.945 410.881 155.136 410.452 155.516 410.094C155.903 409.73 156.366 409.548 156.906 409.548C157.445 409.548 157.906 409.73 158.286 410.094C158.673 410.452 158.866 410.881 158.866 411.381C158.866 411.886 158.673 412.321 158.286 412.685C157.906 413.043 157.445 413.222 156.906 413.222ZM172.513 418.642L169.189 418.847C169.132 418.562 169.01 418.307 168.822 418.08C168.635 417.847 168.388 417.662 168.081 417.526C167.78 417.384 167.419 417.312 166.999 417.312C166.436 417.312 165.962 417.432 165.575 417.67C165.189 417.903 164.996 418.216 164.996 418.608C164.996 418.92 165.121 419.185 165.371 419.401C165.621 419.616 166.05 419.79 166.658 419.92L169.027 420.398C170.3 420.659 171.249 421.08 171.874 421.659C172.499 422.239 172.811 423 172.811 423.943C172.811 424.801 172.558 425.554 172.053 426.202C171.553 426.849 170.865 427.355 169.99 427.719C169.121 428.077 168.118 428.256 166.982 428.256C165.249 428.256 163.868 427.895 162.839 427.173C161.817 426.446 161.217 425.457 161.041 424.207L164.612 424.02C164.72 424.548 164.982 424.952 165.396 425.23C165.811 425.503 166.342 425.639 166.99 425.639C167.626 425.639 168.138 425.517 168.524 425.273C168.916 425.023 169.115 424.702 169.121 424.31C169.115 423.98 168.976 423.71 168.703 423.5C168.43 423.284 168.01 423.119 167.442 423.006L165.175 422.554C163.896 422.298 162.945 421.855 162.32 421.224C161.7 420.594 161.391 419.79 161.391 418.812C161.391 417.972 161.618 417.247 162.072 416.639C162.533 416.031 163.178 415.562 164.007 415.233C164.842 414.903 165.82 414.739 166.939 414.739C168.592 414.739 169.893 415.088 170.842 415.787C171.797 416.486 172.354 417.437 172.513 418.642ZM185.989 418.642L182.665 418.847C182.609 418.562 182.487 418.307 182.299 418.08C182.112 417.847 181.864 417.662 181.558 417.526C181.256 417.384 180.896 417.312 180.475 417.312C179.913 417.312 179.438 417.432 179.052 417.67C178.665 417.903 178.472 418.216 178.472 418.608C178.472 418.92 178.597 419.185 178.847 419.401C179.097 419.616 179.526 419.79 180.134 419.92L182.504 420.398C183.776 420.659 184.725 421.08 185.35 421.659C185.975 422.239 186.288 423 186.288 423.943C186.288 424.801 186.035 425.554 185.529 426.202C185.029 426.849 184.342 427.355 183.467 427.719C182.597 428.077 181.594 428.256 180.458 428.256C178.725 428.256 177.344 427.895 176.316 427.173C175.293 426.446 174.694 425.457 174.518 424.207L178.089 424.02C178.197 424.548 178.458 424.952 178.873 425.23C179.288 425.503 179.819 425.639 180.467 425.639C181.103 425.639 181.614 425.517 182.001 425.273C182.393 425.023 182.592 424.702 182.597 424.31C182.592 423.98 182.452 423.71 182.18 423.5C181.907 423.284 181.487 423.119 180.918 423.006L178.651 422.554C177.373 422.298 176.421 421.855 175.796 421.224C175.177 420.594 174.867 419.79 174.867 418.812C174.867 417.972 175.094 417.247 175.549 416.639C176.009 416.031 176.654 415.562 177.484 415.233C178.319 414.903 179.296 414.739 180.415 414.739C182.069 414.739 183.37 415.088 184.319 415.787C185.273 416.486 185.83 417.437 185.989 418.642ZM192.307 428.247C191.472 428.247 190.727 428.102 190.074 427.812C189.42 427.517 188.903 427.082 188.523 426.509C188.148 425.929 187.96 425.207 187.96 424.344C187.96 423.616 188.094 423.006 188.361 422.511C188.628 422.017 188.991 421.619 189.452 421.318C189.912 421.017 190.435 420.79 191.02 420.636C191.611 420.483 192.23 420.375 192.878 420.312C193.639 420.233 194.253 420.159 194.719 420.091C195.185 420.017 195.523 419.909 195.733 419.767C195.943 419.625 196.048 419.415 196.048 419.136V419.085C196.048 418.545 195.878 418.128 195.537 417.832C195.202 417.537 194.724 417.389 194.105 417.389C193.452 417.389 192.932 417.534 192.545 417.824C192.159 418.108 191.903 418.466 191.778 418.898L188.42 418.625C188.591 417.83 188.926 417.142 189.426 416.562C189.926 415.977 190.571 415.528 191.361 415.216C192.156 414.898 193.077 414.739 194.122 414.739C194.849 414.739 195.545 414.824 196.21 414.994C196.881 415.165 197.474 415.429 197.991 415.787C198.514 416.145 198.926 416.605 199.227 417.168C199.528 417.724 199.679 418.392 199.679 419.17V428H196.236V426.185H196.134C195.923 426.594 195.642 426.955 195.29 427.267C194.938 427.574 194.514 427.815 194.02 427.991C193.526 428.162 192.955 428.247 192.307 428.247ZM193.347 425.741C193.881 425.741 194.352 425.636 194.761 425.426C195.17 425.21 195.491 424.92 195.724 424.557C195.957 424.193 196.074 423.781 196.074 423.321V421.932C195.96 422.006 195.804 422.074 195.605 422.136C195.412 422.193 195.193 422.247 194.949 422.298C194.705 422.344 194.46 422.386 194.216 422.426C193.972 422.46 193.75 422.491 193.551 422.52C193.125 422.582 192.753 422.682 192.435 422.818C192.116 422.955 191.869 423.139 191.693 423.372C191.517 423.599 191.429 423.884 191.429 424.224C191.429 424.719 191.608 425.097 191.966 425.358C192.33 425.614 192.79 425.741 193.347 425.741ZM208.05 428V414.909H211.681V428H208.05ZM209.874 413.222C209.335 413.222 208.871 413.043 208.485 412.685C208.104 412.321 207.914 411.886 207.914 411.381C207.914 410.881 208.104 410.452 208.485 410.094C208.871 409.73 209.335 409.548 209.874 409.548C210.414 409.548 210.874 409.73 211.255 410.094C211.641 410.452 211.835 410.881 211.835 411.381C211.835 411.886 211.641 412.321 211.255 412.685C210.874 413.043 210.414 413.222 209.874 413.222ZM225.482 418.642L222.158 418.847C222.101 418.562 221.979 418.307 221.791 418.08C221.604 417.847 221.357 417.662 221.05 417.526C220.749 417.384 220.388 417.312 219.967 417.312C219.405 417.312 218.93 417.432 218.544 417.67C218.158 417.903 217.964 418.216 217.964 418.608C217.964 418.92 218.089 419.185 218.339 419.401C218.589 419.616 219.018 419.79 219.626 419.92L221.996 420.398C223.268 420.659 224.217 421.08 224.842 421.659C225.467 422.239 225.78 423 225.78 423.943C225.78 424.801 225.527 425.554 225.021 426.202C224.521 426.849 223.834 427.355 222.959 427.719C222.089 428.077 221.087 428.256 219.95 428.256C218.217 428.256 216.837 427.895 215.808 427.173C214.786 426.446 214.186 425.457 214.01 424.207L217.581 424.02C217.689 424.548 217.95 424.952 218.365 425.23C218.78 425.503 219.311 425.639 219.959 425.639C220.595 425.639 221.107 425.517 221.493 425.273C221.885 425.023 222.084 424.702 222.089 424.31C222.084 423.98 221.945 423.71 221.672 423.5C221.399 423.284 220.979 423.119 220.411 423.006L218.143 422.554C216.865 422.298 215.913 421.855 215.288 421.224C214.669 420.594 214.359 419.79 214.359 418.812C214.359 417.972 214.587 417.247 215.041 416.639C215.501 416.031 216.146 415.562 216.976 415.233C217.811 414.903 218.788 414.739 219.908 414.739C221.561 414.739 222.862 415.088 223.811 415.787C224.766 416.486 225.322 417.437 225.482 418.642ZM237.354 428.247C236.518 428.247 235.774 428.102 235.121 427.812C234.467 427.517 233.95 427.082 233.57 426.509C233.195 425.929 233.007 425.207 233.007 424.344C233.007 423.616 233.141 423.006 233.408 422.511C233.675 422.017 234.038 421.619 234.499 421.318C234.959 421.017 235.482 420.79 236.067 420.636C236.658 420.483 237.277 420.375 237.925 420.312C238.686 420.233 239.3 420.159 239.766 420.091C240.232 420.017 240.57 419.909 240.78 419.767C240.99 419.625 241.095 419.415 241.095 419.136V419.085C241.095 418.545 240.925 418.128 240.584 417.832C240.249 417.537 239.771 417.389 239.152 417.389C238.499 417.389 237.979 417.534 237.592 417.824C237.206 418.108 236.95 418.466 236.825 418.898L233.467 418.625C233.638 417.83 233.973 417.142 234.473 416.562C234.973 415.977 235.618 415.528 236.408 415.216C237.203 414.898 238.124 414.739 239.169 414.739C239.896 414.739 240.592 414.824 241.257 414.994C241.928 415.165 242.521 415.429 243.038 415.787C243.561 416.145 243.973 416.605 244.274 417.168C244.575 417.724 244.726 418.392 244.726 419.17V428H241.283V426.185H241.18C240.97 426.594 240.689 426.955 240.337 427.267C239.984 427.574 239.561 427.815 239.067 427.991C238.572 428.162 238.001 428.247 237.354 428.247ZM238.393 425.741C238.928 425.741 239.399 425.636 239.808 425.426C240.217 425.21 240.538 424.92 240.771 424.557C241.004 424.193 241.121 423.781 241.121 423.321V421.932C241.007 422.006 240.851 422.074 240.652 422.136C240.459 422.193 240.24 422.247 239.996 422.298C239.751 422.344 239.507 422.386 239.263 422.426C239.018 422.46 238.797 422.491 238.598 422.52C238.172 422.582 237.8 422.682 237.482 422.818C237.163 422.955 236.916 423.139 236.74 423.372C236.564 423.599 236.476 423.884 236.476 424.224C236.476 424.719 236.655 425.097 237.013 425.358C237.376 425.614 237.837 425.741 238.393 425.741ZM258.435 418.642L255.111 418.847C255.054 418.562 254.932 418.307 254.744 418.08C254.557 417.847 254.31 417.662 254.003 417.526C253.702 417.384 253.341 417.312 252.92 417.312C252.358 417.312 251.884 417.432 251.497 417.67C251.111 417.903 250.918 418.216 250.918 418.608C250.918 418.92 251.043 419.185 251.293 419.401C251.543 419.616 251.972 419.79 252.58 419.92L254.949 420.398C256.222 420.659 257.17 421.08 257.795 421.659C258.42 422.239 258.733 423 258.733 423.943C258.733 424.801 258.48 425.554 257.974 426.202C257.474 426.849 256.787 427.355 255.912 427.719C255.043 428.077 254.04 428.256 252.903 428.256C251.17 428.256 249.79 427.895 248.761 427.173C247.739 426.446 247.139 425.457 246.963 424.207L250.534 424.02C250.642 424.548 250.903 424.952 251.318 425.23C251.733 425.503 252.264 425.639 252.912 425.639C253.548 425.639 254.06 425.517 254.446 425.273C254.838 425.023 255.037 424.702 255.043 424.31C255.037 423.98 254.898 423.71 254.625 423.5C254.352 423.284 253.932 423.119 253.364 423.006L251.097 422.554C249.818 422.298 248.866 421.855 248.241 421.224C247.622 420.594 247.312 419.79 247.312 418.812C247.312 417.972 247.54 417.247 247.994 416.639C248.455 416.031 249.099 415.562 249.929 415.233C250.764 414.903 251.741 414.739 252.861 414.739C254.514 414.739 255.815 415.088 256.764 415.787C257.719 416.486 258.276 417.437 258.435 418.642ZM264.65 410.545V428H261.019V410.545H264.65ZM273.524 428.256C272.178 428.256 271.018 427.983 270.047 427.438C269.081 426.886 268.337 426.108 267.814 425.102C267.291 424.091 267.03 422.895 267.03 421.514C267.03 420.168 267.291 418.986 267.814 417.969C268.337 416.952 269.072 416.159 270.021 415.591C270.976 415.023 272.095 414.739 273.379 414.739C274.243 414.739 275.047 414.878 275.791 415.156C276.541 415.429 277.195 415.841 277.751 416.392C278.314 416.943 278.751 417.636 279.064 418.472C279.376 419.301 279.533 420.273 279.533 421.386V422.384H268.479V420.134H276.115C276.115 419.611 276.001 419.148 275.774 418.744C275.547 418.341 275.232 418.026 274.828 417.798C274.43 417.565 273.967 417.449 273.439 417.449C272.888 417.449 272.399 417.577 271.973 417.832C271.553 418.082 271.223 418.42 270.984 418.847C270.746 419.267 270.624 419.736 270.618 420.253V422.392C270.618 423.04 270.737 423.599 270.976 424.071C271.22 424.543 271.564 424.906 272.007 425.162C272.45 425.418 272.976 425.545 273.584 425.545C273.987 425.545 274.357 425.489 274.692 425.375C275.027 425.261 275.314 425.091 275.553 424.864C275.791 424.636 275.973 424.358 276.098 424.028L279.456 424.25C279.286 425.057 278.936 425.761 278.408 426.364C277.885 426.96 277.209 427.426 276.379 427.761C275.555 428.091 274.604 428.256 273.524 428.256ZM287.868 428.256C286.521 428.256 285.362 427.983 284.391 427.438C283.425 426.886 282.68 426.108 282.158 425.102C281.635 424.091 281.374 422.895 281.374 421.514C281.374 420.168 281.635 418.986 282.158 417.969C282.68 416.952 283.416 416.159 284.365 415.591C285.32 415.023 286.439 414.739 287.723 414.739C288.587 414.739 289.391 414.878 290.135 415.156C290.885 415.429 291.538 415.841 292.095 416.392C292.658 416.943 293.095 417.636 293.408 418.472C293.72 419.301 293.876 420.273 293.876 421.386V422.384H282.822V420.134H290.459C290.459 419.611 290.345 419.148 290.118 418.744C289.891 418.341 289.575 418.026 289.172 417.798C288.774 417.565 288.311 417.449 287.783 417.449C287.232 417.449 286.743 417.577 286.317 417.832C285.896 418.082 285.567 418.42 285.328 418.847C285.089 419.267 284.967 419.736 284.962 420.253V422.392C284.962 423.04 285.081 423.599 285.32 424.071C285.564 424.543 285.908 424.906 286.351 425.162C286.794 425.418 287.32 425.545 287.928 425.545C288.331 425.545 288.7 425.489 289.036 425.375C289.371 425.261 289.658 425.091 289.896 424.864C290.135 424.636 290.317 424.358 290.442 424.028L293.8 424.25C293.629 425.057 293.28 425.761 292.751 426.364C292.229 426.96 291.553 427.426 290.723 427.761C289.899 428.091 288.947 428.256 287.868 428.256ZM296.246 432.909V414.909H299.825V417.108H299.987C300.146 416.756 300.376 416.398 300.678 416.034C300.984 415.665 301.382 415.358 301.871 415.114C302.365 414.864 302.979 414.739 303.712 414.739C304.666 414.739 305.547 414.989 306.354 415.489C307.161 415.983 307.805 416.73 308.288 417.73C308.771 418.724 309.013 419.972 309.013 421.472C309.013 422.932 308.777 424.165 308.305 425.17C307.839 426.17 307.203 426.929 306.396 427.446C305.595 427.957 304.697 428.213 303.703 428.213C302.999 428.213 302.399 428.097 301.905 427.864C301.416 427.631 301.016 427.338 300.703 426.986C300.391 426.628 300.152 426.267 299.987 425.903H299.876V432.909H296.246ZM299.8 421.455C299.8 422.233 299.908 422.912 300.124 423.491C300.339 424.071 300.652 424.523 301.061 424.847C301.47 425.165 301.967 425.324 302.553 425.324C303.143 425.324 303.643 425.162 304.053 424.838C304.462 424.509 304.771 424.054 304.982 423.474C305.197 422.889 305.305 422.216 305.305 421.455C305.305 420.699 305.2 420.034 304.99 419.46C304.78 418.886 304.47 418.437 304.061 418.114C303.652 417.79 303.149 417.628 302.553 417.628C301.962 417.628 301.462 417.784 301.053 418.097C300.649 418.409 300.339 418.852 300.124 419.426C299.908 420 299.8 420.676 299.8 421.455Z" fill="#FFCAF7"/>
<path d="M109.132 454V443.818H112.573C113.371 443.818 114.024 443.962 114.532 444.251C115.042 444.536 115.42 444.922 115.665 445.409C115.91 445.896 116.033 446.44 116.033 447.04C116.033 447.64 115.91 448.185 115.665 448.675C115.423 449.166 115.049 449.557 114.541 449.849C114.034 450.137 113.385 450.281 112.593 450.281H110.127V449.188H112.553C113.1 449.188 113.539 449.093 113.87 448.904C114.202 448.715 114.442 448.46 114.591 448.138C114.744 447.814 114.82 447.447 114.82 447.04C114.82 446.632 114.744 446.268 114.591 445.946C114.442 445.625 114.2 445.373 113.865 445.19C113.531 445.005 113.086 444.912 112.533 444.912H110.365V454H109.132ZM120.88 454.159C120.191 454.159 119.586 453.995 119.066 453.667C118.549 453.339 118.144 452.88 117.853 452.29C117.564 451.7 117.42 451.01 117.42 450.222C117.42 449.426 117.564 448.732 117.853 448.138C118.144 447.545 118.549 447.085 119.066 446.756C119.586 446.428 120.191 446.264 120.88 446.264C121.57 446.264 122.173 446.428 122.69 446.756C123.21 447.085 123.615 447.545 123.903 448.138C124.195 448.732 124.34 449.426 124.34 450.222C124.34 451.01 124.195 451.7 123.903 452.29C123.615 452.88 123.21 453.339 122.69 453.667C122.173 453.995 121.57 454.159 120.88 454.159ZM120.88 453.105C121.404 453.105 121.835 452.971 122.173 452.702C122.511 452.434 122.761 452.081 122.924 451.643C123.086 451.206 123.167 450.732 123.167 450.222C123.167 449.711 123.086 449.236 122.924 448.795C122.761 448.354 122.511 447.998 122.173 447.726C121.835 447.454 121.404 447.318 120.88 447.318C120.357 447.318 119.926 447.454 119.588 447.726C119.25 447.998 118.999 448.354 118.837 448.795C118.675 449.236 118.593 449.711 118.593 450.222C118.593 450.732 118.675 451.206 118.837 451.643C118.999 452.081 119.25 452.434 119.588 452.702C119.926 452.971 120.357 453.105 120.88 453.105ZM127.225 451.216L127.205 449.764H127.444L130.785 446.364H132.237L128.677 449.963H128.578L127.225 451.216ZM126.131 454V443.818H127.305V454H126.131ZM130.984 454L128.001 450.222L128.836 449.406L132.475 454H130.984ZM136.634 454.159C135.898 454.159 135.263 453.997 134.73 453.672C134.2 453.344 133.79 452.886 133.502 452.3C133.217 451.71 133.074 451.024 133.074 450.241C133.074 449.459 133.217 448.77 133.502 448.173C133.79 447.573 134.191 447.106 134.705 446.771C135.222 446.433 135.825 446.264 136.515 446.264C136.912 446.264 137.305 446.33 137.693 446.463C138.081 446.596 138.434 446.811 138.752 447.109C139.07 447.404 139.324 447.795 139.513 448.283C139.701 448.77 139.796 449.37 139.796 450.082V450.58H133.91V449.565H138.603C138.603 449.134 138.517 448.75 138.344 448.412C138.175 448.074 137.933 447.807 137.618 447.612C137.307 447.416 136.939 447.318 136.515 447.318C136.047 447.318 135.643 447.434 135.302 447.666C134.964 447.895 134.703 448.193 134.521 448.561C134.339 448.929 134.248 449.323 134.248 449.744V450.42C134.248 450.997 134.347 451.486 134.546 451.887C134.748 452.285 135.028 452.588 135.386 452.797C135.744 453.002 136.16 453.105 136.634 453.105C136.942 453.105 137.221 453.062 137.469 452.976C137.721 452.886 137.938 452.754 138.12 452.578C138.303 452.399 138.444 452.177 138.543 451.912L139.677 452.23C139.557 452.615 139.357 452.953 139.075 453.244C138.793 453.533 138.445 453.758 138.031 453.92C137.617 454.08 137.151 454.159 136.634 454.159ZM146.274 456.864C146.075 456.864 145.898 456.847 145.742 456.814C145.586 456.784 145.478 456.754 145.419 456.724L145.717 455.69C146.002 455.763 146.254 455.79 146.473 455.77C146.691 455.75 146.885 455.652 147.054 455.477C147.227 455.304 147.384 455.024 147.527 454.636L147.745 454.04L144.922 446.364H146.194L148.302 452.449H148.382L150.49 446.364H151.763L148.521 455.114C148.375 455.508 148.195 455.835 147.979 456.093C147.764 456.355 147.513 456.549 147.228 456.675C146.947 456.801 146.629 456.864 146.274 456.864ZM156.14 454.159C155.451 454.159 154.846 453.995 154.325 453.667C153.808 453.339 153.404 452.88 153.112 452.29C152.824 451.7 152.68 451.01 152.68 450.222C152.68 449.426 152.824 448.732 153.112 448.138C153.404 447.545 153.808 447.085 154.325 446.756C154.846 446.428 155.451 446.264 156.14 446.264C156.829 446.264 157.433 446.428 157.95 446.756C158.47 447.085 158.874 447.545 159.163 448.138C159.454 448.732 159.6 449.426 159.6 450.222C159.6 451.01 159.454 451.7 159.163 452.29C158.874 452.88 158.47 453.339 157.95 453.667C157.433 453.995 156.829 454.159 156.14 454.159ZM156.14 453.105C156.664 453.105 157.095 452.971 157.433 452.702C157.771 452.434 158.021 452.081 158.183 451.643C158.346 451.206 158.427 450.732 158.427 450.222C158.427 449.711 158.346 449.236 158.183 448.795C158.021 448.354 157.771 447.998 157.433 447.726C157.095 447.454 156.664 447.318 156.14 447.318C155.616 447.318 155.185 447.454 154.847 447.726C154.509 447.998 154.259 448.354 154.097 448.795C153.934 449.236 153.853 449.711 153.853 450.222C153.853 450.732 153.934 451.206 154.097 451.643C154.259 452.081 154.509 452.434 154.847 452.702C155.185 452.971 155.616 453.105 156.14 453.105ZM166.204 450.878V446.364H167.377V454H166.204V452.707H166.124C165.945 453.095 165.667 453.425 165.289 453.697C164.911 453.965 164.434 454.099 163.857 454.099C163.38 454.099 162.956 453.995 162.584 453.786C162.213 453.574 161.922 453.256 161.709 452.832C161.497 452.404 161.391 451.866 161.391 451.216V446.364H162.565V451.136C162.565 451.693 162.72 452.137 163.032 452.469C163.347 452.8 163.748 452.966 164.235 452.966C164.527 452.966 164.823 452.891 165.125 452.742C165.43 452.593 165.685 452.364 165.891 452.056C166.099 451.748 166.204 451.355 166.204 450.878ZM169.526 454V446.364H170.66V447.517H170.739C170.878 447.139 171.13 446.833 171.495 446.597C171.859 446.362 172.27 446.244 172.728 446.244C172.814 446.244 172.922 446.246 173.051 446.249C173.18 446.253 173.278 446.258 173.344 446.264V447.457C173.304 447.447 173.213 447.433 173.071 447.413C172.932 447.389 172.784 447.378 172.628 447.378C172.257 447.378 171.926 447.456 171.634 447.612C171.346 447.764 171.117 447.976 170.948 448.248C170.782 448.516 170.699 448.823 170.699 449.168V454H169.526ZM179.846 449.406V454H178.672V443.818H179.846V447.557H179.945C180.124 447.162 180.393 446.849 180.751 446.617C181.112 446.382 181.592 446.264 182.192 446.264C182.713 446.264 183.168 446.369 183.56 446.577C183.951 446.783 184.254 447.099 184.469 447.527C184.688 447.951 184.797 448.491 184.797 449.148V454H183.624V449.227C183.624 448.621 183.467 448.152 183.152 447.82C182.84 447.486 182.408 447.318 181.854 447.318C181.47 447.318 181.125 447.399 180.82 447.562C180.519 447.724 180.28 447.961 180.104 448.273C179.932 448.584 179.846 448.962 179.846 449.406ZM190.046 454.159C189.357 454.159 188.752 453.995 188.232 453.667C187.715 453.339 187.31 452.88 187.019 452.29C186.73 451.7 186.586 451.01 186.586 450.222C186.586 449.426 186.73 448.732 187.019 448.138C187.31 447.545 187.715 447.085 188.232 446.756C188.752 446.428 189.357 446.264 190.046 446.264C190.736 446.264 191.339 446.428 191.856 446.756C192.376 447.085 192.781 447.545 193.069 448.138C193.361 448.732 193.506 449.426 193.506 450.222C193.506 451.01 193.361 451.7 193.069 452.29C192.781 452.88 192.376 453.339 191.856 453.667C191.339 453.995 190.736 454.159 190.046 454.159ZM190.046 453.105C190.57 453.105 191.001 452.971 191.339 452.702C191.677 452.434 191.927 452.081 192.09 451.643C192.252 451.206 192.333 450.732 192.333 450.222C192.333 449.711 192.252 449.236 192.09 448.795C191.927 448.354 191.677 447.998 191.339 447.726C191.001 447.454 190.57 447.318 190.046 447.318C189.523 447.318 189.092 447.454 188.754 447.726C188.416 447.998 188.165 448.354 188.003 448.795C187.841 449.236 187.759 449.711 187.759 450.222C187.759 450.732 187.841 451.206 188.003 451.643C188.165 452.081 188.416 452.434 188.754 452.702C189.092 452.971 189.523 453.105 190.046 453.105ZM200.707 448.074L199.653 448.372C199.586 448.196 199.489 448.026 199.359 447.86C199.233 447.691 199.061 447.552 198.842 447.442C198.623 447.333 198.343 447.278 198.002 447.278C197.535 447.278 197.145 447.386 196.834 447.602C196.525 447.814 196.371 448.084 196.371 448.412C196.371 448.704 196.477 448.934 196.69 449.103C196.902 449.272 197.233 449.413 197.684 449.526L198.817 449.804C199.5 449.97 200.009 450.223 200.344 450.565C200.678 450.903 200.846 451.339 200.846 451.872C200.846 452.31 200.72 452.701 200.468 453.045C200.219 453.39 199.871 453.662 199.424 453.861C198.976 454.06 198.456 454.159 197.863 454.159C197.084 454.159 196.439 453.99 195.929 453.652C195.418 453.314 195.095 452.82 194.959 452.17L196.073 451.892C196.179 452.303 196.38 452.611 196.675 452.817C196.973 453.022 197.362 453.125 197.843 453.125C198.39 453.125 198.824 453.009 199.146 452.777C199.47 452.542 199.633 452.26 199.633 451.932C199.633 451.667 199.54 451.445 199.354 451.266C199.169 451.083 198.884 450.947 198.499 450.858L197.226 450.56C196.527 450.394 196.013 450.137 195.685 449.789C195.36 449.438 195.198 448.999 195.198 448.472C195.198 448.041 195.319 447.66 195.561 447.328C195.806 446.997 196.139 446.737 196.56 446.548C196.985 446.359 197.465 446.264 198.002 446.264C198.758 446.264 199.351 446.43 199.782 446.761C200.216 447.093 200.524 447.53 200.707 448.074ZM205.933 446.364V447.358H201.976V446.364H205.933ZM203.129 444.534H204.302V451.812C204.302 452.144 204.35 452.393 204.446 452.558C204.546 452.721 204.672 452.83 204.824 452.886C204.98 452.939 205.144 452.966 205.316 452.966C205.446 452.966 205.552 452.959 205.635 452.946C205.718 452.929 205.784 452.916 205.834 452.906L206.072 453.96C205.993 453.99 205.882 454.02 205.739 454.05C205.597 454.083 205.416 454.099 205.197 454.099C204.866 454.099 204.541 454.028 204.223 453.886C203.908 453.743 203.646 453.526 203.437 453.234C203.232 452.943 203.129 452.575 203.129 452.131V444.534ZM214.956 446.364V447.358H210.999V446.364H214.956ZM212.152 444.534H213.326V451.812C213.326 452.144 213.374 452.393 213.47 452.558C213.569 452.721 213.695 452.83 213.848 452.886C214.004 452.939 214.168 452.966 214.34 452.966C214.469 452.966 214.575 452.959 214.658 452.946C214.741 452.929 214.807 452.916 214.857 452.906L215.096 453.96C215.016 453.99 214.905 454.02 214.763 454.05C214.62 454.083 214.439 454.099 214.221 454.099C213.889 454.099 213.564 454.028 213.246 453.886C212.931 453.743 212.669 453.526 212.461 453.234C212.255 452.943 212.152 452.575 212.152 452.131V444.534ZM219.742 454.159C219.052 454.159 218.447 453.995 217.927 453.667C217.41 453.339 217.006 452.88 216.714 452.29C216.426 451.7 216.281 451.01 216.281 450.222C216.281 449.426 216.426 448.732 216.714 448.138C217.006 447.545 217.41 447.085 217.927 446.756C218.447 446.428 219.052 446.264 219.742 446.264C220.431 446.264 221.034 446.428 221.551 446.756C222.072 447.085 222.476 447.545 222.764 448.138C223.056 448.732 223.202 449.426 223.202 450.222C223.202 451.01 223.056 451.7 222.764 452.29C222.476 452.88 222.072 453.339 221.551 453.667C221.034 453.995 220.431 454.159 219.742 454.159ZM219.742 453.105C220.265 453.105 220.696 452.971 221.034 452.702C221.372 452.434 221.622 452.081 221.785 451.643C221.947 451.206 222.028 450.732 222.028 450.222C222.028 449.711 221.947 449.236 221.785 448.795C221.622 448.354 221.372 447.998 221.034 447.726C220.696 447.454 220.265 447.318 219.742 447.318C219.218 447.318 218.787 447.454 218.449 447.726C218.111 447.998 217.861 448.354 217.698 448.795C217.536 449.236 217.455 449.711 217.455 450.222C217.455 450.732 217.536 451.206 217.698 451.643C217.861 452.081 218.111 452.434 218.449 452.702C218.787 452.971 219.218 453.105 219.742 453.105ZM232.033 454.159C231.317 454.159 230.7 453.99 230.183 453.652C229.666 453.314 229.268 452.848 228.99 452.255C228.712 451.662 228.572 450.984 228.572 450.222C228.572 449.446 228.715 448.762 229 448.168C229.288 447.572 229.689 447.106 230.203 446.771C230.72 446.433 231.323 446.264 232.013 446.264C232.55 446.264 233.034 446.364 233.464 446.562C233.895 446.761 234.248 447.04 234.523 447.398C234.798 447.756 234.969 448.173 235.035 448.651H233.862C233.773 448.303 233.574 447.994 233.266 447.726C232.961 447.454 232.55 447.318 232.033 447.318C231.575 447.318 231.174 447.437 230.829 447.676C230.488 447.911 230.221 448.245 230.029 448.675C229.84 449.103 229.746 449.605 229.746 450.182C229.746 450.772 229.838 451.286 230.024 451.723C230.213 452.161 230.478 452.5 230.82 452.742C231.164 452.984 231.569 453.105 232.033 453.105C232.338 453.105 232.614 453.052 232.863 452.946C233.111 452.84 233.322 452.688 233.494 452.489C233.667 452.29 233.789 452.051 233.862 451.773H235.035C234.969 452.223 234.805 452.629 234.543 452.991C234.285 453.349 233.942 453.634 233.514 453.846C233.09 454.055 232.596 454.159 232.033 454.159ZM239.853 454.159C239.164 454.159 238.559 453.995 238.038 453.667C237.521 453.339 237.117 452.88 236.825 452.29C236.537 451.7 236.393 451.01 236.393 450.222C236.393 449.426 236.537 448.732 236.825 448.138C237.117 447.545 237.521 447.085 238.038 446.756C238.559 446.428 239.164 446.264 239.853 446.264C240.542 446.264 241.146 446.428 241.663 446.756C242.183 447.085 242.587 447.545 242.876 448.138C243.167 448.732 243.313 449.426 243.313 450.222C243.313 451.01 243.167 451.7 242.876 452.29C242.587 452.88 242.183 453.339 241.663 453.667C241.146 453.995 240.542 454.159 239.853 454.159ZM239.853 453.105C240.377 453.105 240.807 452.971 241.146 452.702C241.484 452.434 241.734 452.081 241.896 451.643C242.059 451.206 242.14 450.732 242.14 450.222C242.14 449.711 242.059 449.236 241.896 448.795C241.734 448.354 241.484 447.998 241.146 447.726C240.807 447.454 240.377 447.318 239.853 447.318C239.329 447.318 238.898 447.454 238.56 447.726C238.222 447.998 237.972 448.354 237.81 448.795C237.647 449.236 237.566 449.711 237.566 450.222C237.566 450.732 237.647 451.206 237.81 451.643C237.972 452.081 238.222 452.434 238.56 452.702C238.898 452.971 239.329 453.105 239.853 453.105ZM246.277 449.406V454H245.104V446.364H246.238V447.557H246.337C246.516 447.169 246.788 446.857 247.152 446.622C247.517 446.384 247.988 446.264 248.564 446.264C249.081 446.264 249.534 446.37 249.922 446.582C250.309 446.791 250.611 447.109 250.826 447.537C251.042 447.961 251.15 448.498 251.15 449.148V454H249.976V449.227C249.976 448.627 249.821 448.16 249.509 447.825C249.197 447.487 248.77 447.318 248.226 447.318C247.852 447.318 247.517 447.399 247.222 447.562C246.93 447.724 246.7 447.961 246.531 448.273C246.362 448.584 246.277 448.962 246.277 449.406ZM256.615 446.364V447.358H252.657V446.364H256.615ZM253.811 444.534H254.984V451.812C254.984 452.144 255.032 452.393 255.128 452.558C255.228 452.721 255.353 452.83 255.506 452.886C255.662 452.939 255.826 452.966 255.998 452.966C256.127 452.966 256.233 452.959 256.316 452.946C256.399 452.929 256.465 452.916 256.515 452.906L256.754 453.96C256.674 453.99 256.563 454.02 256.421 454.05C256.278 454.083 256.098 454.099 255.879 454.099C255.547 454.099 255.223 454.028 254.904 453.886C254.59 453.743 254.328 453.526 254.119 453.234C253.913 452.943 253.811 452.575 253.811 452.131V444.534ZM258.38 454V446.364H259.553V454H258.38ZM258.976 445.091C258.747 445.091 258.55 445.013 258.384 444.857C258.222 444.701 258.141 444.514 258.141 444.295C258.141 444.077 258.222 443.889 258.384 443.734C258.55 443.578 258.747 443.5 258.976 443.5C259.205 443.5 259.4 443.578 259.563 443.734C259.728 443.889 259.811 444.077 259.811 444.295C259.811 444.514 259.728 444.701 259.563 444.857C259.4 445.013 259.205 445.091 258.976 445.091ZM262.875 449.406V454H261.702V446.364H262.835V447.557H262.935C263.114 447.169 263.386 446.857 263.75 446.622C264.115 446.384 264.585 446.264 265.162 446.264C265.679 446.264 266.131 446.37 266.519 446.582C266.907 446.791 267.209 447.109 267.424 447.537C267.64 447.961 267.747 448.498 267.747 449.148V454H266.574V449.227C266.574 448.627 266.418 448.16 266.107 447.825C265.795 447.487 265.368 447.318 264.824 447.318C264.449 447.318 264.115 447.399 263.82 447.562C263.528 447.724 263.298 447.961 263.129 448.273C262.96 448.584 262.875 448.962 262.875 449.406ZM274.704 450.878V446.364H275.877V454H274.704V452.707H274.624C274.445 453.095 274.167 453.425 273.789 453.697C273.411 453.965 272.934 454.099 272.357 454.099C271.88 454.099 271.456 453.995 271.084 453.786C270.713 453.574 270.422 453.256 270.209 452.832C269.997 452.404 269.891 451.866 269.891 451.216V446.364H271.065V451.136C271.065 451.693 271.22 452.137 271.532 452.469C271.847 452.8 272.248 452.966 272.735 452.966C273.027 452.966 273.323 452.891 273.625 452.742C273.93 452.593 274.185 452.364 274.391 452.056C274.599 451.748 274.704 451.355 274.704 450.878ZM281.228 454.159C280.492 454.159 279.857 453.997 279.324 453.672C278.793 453.344 278.384 452.886 278.096 452.3C277.811 451.71 277.668 451.024 277.668 450.241C277.668 449.459 277.811 448.77 278.096 448.173C278.384 447.573 278.785 447.106 279.299 446.771C279.816 446.433 280.419 446.264 281.108 446.264C281.506 446.264 281.899 446.33 282.287 446.463C282.674 446.596 283.027 446.811 283.346 447.109C283.664 447.404 283.917 447.795 284.106 448.283C284.295 448.77 284.39 449.37 284.39 450.082V450.58H278.503V449.565H283.196C283.196 449.134 283.11 448.75 282.938 448.412C282.769 448.074 282.527 447.807 282.212 447.612C281.901 447.416 281.533 447.318 281.108 447.318C280.641 447.318 280.237 447.434 279.895 447.666C279.557 447.895 279.297 448.193 279.115 448.561C278.932 448.929 278.841 449.323 278.841 449.744V450.42C278.841 450.997 278.941 451.486 279.14 451.887C279.342 452.285 279.622 452.588 279.98 452.797C280.338 453.002 280.754 453.105 281.228 453.105C281.536 453.105 281.814 453.062 282.063 452.976C282.315 452.886 282.532 452.754 282.714 452.578C282.897 452.399 283.037 452.177 283.137 451.912L284.27 452.23C284.151 452.615 283.95 452.953 283.669 453.244C283.387 453.533 283.039 453.758 282.625 453.92C282.21 454.08 281.745 454.159 281.228 454.159Z" fill="#FFCAF7"/>
</g>
</g>
<defs>
<filter id="filter0_d_1015_55125" x="308" y="773" width="72" height="80" filterUnits="userSpaceOnUse" color-interpolation-filters="sRGB">
<feFlood flood-opacity="0" result="BackgroundImageFix"/>
<feColorMatrix in="SourceAlpha" type="matrix" values="0 0 0 0 0 0 0 0 0 0 0 0 0 0 0 0 0 0 127 0" result="hardAlpha"/>
<feMorphology radius="8" operator="erode" in="SourceAlpha" result="effect1_dropShadow_1015_55125"/>
<feOffset dy="16"/>
<feGaussianBlur stdDeviation="8"/>
<feColorMatrix type="matrix" values="0 0 0 0 0.0782721 0 0 0 0 0.000942007 0 0 0 0 0.0832611 0 0 0 1 0"/>
<feBlend mode="normal" in2="BackgroundImageFix" result="effect1_dropShadow_1015_55125"/>
<feBlend mode="normal" in="SourceGraphic" in2="effect1_dropShadow_1015_55125" result="shape"/>
</filter>
<linearGradient id="paint0_linear_1015_55125" x1="316" y1="772.978" x2="372" y2="828.978" gradientUnits="userSpaceOnUse">
<stop stop-color="#FF5FE5"/>
<stop offset="1" stop-color="#FF5F72"/>
</linearGradient>
<clipPath id="clip0_1015_55125">
<rect width="393" height="852" fill="white"/>
</clipPath>
<clipPath id="clip1_1015_55125">
<rect width="361" height="122" fill="white" transform="translate(16 332)"/>
</clipPath>
</defs>
</svg>
