<svg width="393" height="852" viewBox="0 0 393 852" fill="none" xmlns="http://www.w3.org/2000/svg">
<g clip-path="url(#clip0_1010_28560)">
<rect width="393" height="852" fill="white"/>
<g clip-path="url(#clip1_1010_28560)">
<rect x="-11" y="-22" width="414" height="896" rx="32" fill="white"/>
<rect x="-11" y="-22" width="414" height="896" rx="32" fill="url(#paint0_linear_1010_28560)"/>
<circle cx="196" cy="621" r="337" fill="white"/>
<circle cx="196" cy="621" r="337" fill="url(#paint1_linear_1010_28560)"/>
<path d="M154.103 482.455L160.289 487.923L177.116 468.885L183.829 474.819L167.003 493.857L170.599 497.036L165.64 502.646L162.044 499.467L160.475 501.242C157.904 504.151 155.146 505.5 152.201 505.288C149.228 505.109 146.254 503.705 143.281 501.078L140.116 498.28L145.075 492.67L148.144 495.382C150.222 497.219 152.194 497.082 154.059 494.972L155.33 493.534L149.144 488.066L154.103 482.455Z" fill="white"/>
<path d="M119.228 423.118L118.704 432.191L110.717 431.731L111.241 422.658L119.228 423.118ZM124.847 423.507L157.688 425.402L157.172 434.347L124.331 432.452L124.847 423.507Z" fill="white"/>
<path d="M184.55 362.612L176.581 366.566C175.365 364.978 173.343 364.886 170.514 366.289C167.648 367.712 166.631 369.264 167.466 370.945C167.826 371.671 168.321 372.093 168.95 372.209C169.599 372.269 170.553 372.128 171.814 371.789L177.544 369.946C184.286 367.792 188.985 369.391 191.639 374.742C192.948 377.379 192.92 380.203 191.556 383.213C190.192 386.224 187.445 388.753 183.318 390.801C178.96 392.963 175.199 393.733 172.033 393.113C168.906 392.473 166.383 390.653 164.466 387.651L172.435 383.697C174.087 386.069 176.672 386.382 180.188 384.638C183.59 382.95 184.76 381.036 183.698 378.896C183.224 377.94 182.548 377.394 181.671 377.258C180.775 377.083 179.496 377.241 177.834 377.732L171.646 379.659C165.878 381.282 161.895 379.877 159.695 375.443C158.349 372.73 158.3 369.991 159.549 367.228C160.836 364.446 163.544 362.032 167.672 359.984C171.303 358.182 174.606 357.544 177.581 358.068C180.594 358.574 182.917 360.089 184.55 362.612Z" fill="white"/>
<path d="M264.204 396.386L258.368 389.672C259.598 388.095 259.177 386.115 257.105 383.732C255.006 381.316 253.248 380.725 251.831 381.956C251.219 382.488 250.936 383.073 250.983 383.711C251.089 384.354 251.465 385.242 252.112 386.376L255.34 391.456C259.125 397.437 258.764 402.387 254.256 406.306C252.034 408.237 249.294 408.922 246.037 408.362C242.779 407.801 239.639 405.782 236.616 402.304C233.425 398.633 231.731 395.187 231.533 391.968C231.363 388.78 232.488 385.88 234.909 383.267L240.745 389.981C238.867 392.179 239.216 394.759 241.791 397.721C244.282 400.587 246.429 401.236 248.233 399.669C249.038 398.969 249.396 398.178 249.306 397.294C249.249 396.383 248.773 395.185 247.879 393.701L244.453 388.199C241.428 383.028 241.783 378.818 245.519 375.571C247.805 373.584 250.442 372.846 253.431 373.358C256.448 373.902 259.467 375.912 262.49 379.39C265.149 382.45 266.6 385.485 266.843 388.496C267.114 391.539 266.234 394.169 264.204 396.386Z" fill="white"/>
<path d="M232.32 469.975L234.562 471.678L235.569 470.353C234.897 467.217 235.787 464.035 238.238 460.808C240.406 457.953 242.955 456.326 245.884 455.926C248.848 455.552 251.552 456.293 253.999 458.152C256.343 459.932 257.711 462.364 258.102 465.447C258.492 468.53 257.333 471.855 254.623 475.423L249.32 482.405L249.982 482.908C252.7 484.973 255.234 484.459 257.582 481.367C259.673 478.615 259.861 476.428 258.147 474.804L263.528 467.72C265.956 469.672 267.114 472.239 267.001 475.422C266.922 478.63 265.656 481.848 263.204 485.075C260.366 488.813 257.361 491.111 254.189 491.971C250.992 492.865 247.712 492.034 244.348 489.479L227.326 476.549L232.32 469.975ZM241.999 467.602C240.682 469.335 240.121 471.132 240.314 472.993C240.508 474.855 241.42 476.405 243.051 477.644L244.682 478.882L248.94 473.276C251.418 470.014 251.484 467.493 249.14 465.712C246.727 463.88 244.347 464.51 241.999 467.602Z" fill="white"/>
</g>
</g>
<defs>
<linearGradient id="paint0_linear_1010_28560" x1="-218" y1="-476" x2="383" y2="874" gradientUnits="userSpaceOnUse">
<stop stop-color="#00FAAC"/>
<stop offset="0.274645" stop-color="#1A6979"/>
<stop offset="0.56968" stop-color="#233366"/>
<stop offset="0.807803" stop-color="#2B0857"/>
</linearGradient>
<linearGradient id="paint1_linear_1010_28560" x1="-478" y1="-57.5134" x2="-237.87" y2="1109.87" gradientUnits="userSpaceOnUse">
<stop stop-color="#00FAAC"/>
<stop offset="0.274645" stop-color="#1A6979"/>
<stop offset="0.56968" stop-color="#233366"/>
<stop offset="0.807803" stop-color="#2B0857"/>
</linearGradient>
<clipPath id="clip0_1010_28560">
<rect width="393" height="852" fill="white"/>
</clipPath>
<clipPath id="clip1_1010_28560">
<rect x="-11" y="-22" width="414" height="896" rx="32" fill="white"/>
</clipPath>
</defs>
</svg>
