<svg width="393" height="852" viewBox="0 0 393 852" fill="none" xmlns="http://www.w3.org/2000/svg">
<g clip-path="url(#clip0_1010_28520)">
<rect width="393" height="852" fill="white"/>
<g clip-path="url(#clip1_1010_28520)">
<rect width="393" height="852" fill="white"/>
<rect width="393" height="852" fill="url(#paint0_linear_1010_28520)"/>
<mask id="mask0_1010_28520" style="mask-type:alpha" maskUnits="userSpaceOnUse" x="-14" y="-51" width="421" height="954">
<rect x="-14" y="-50.6821" width="421" height="952.729" rx="32" fill="#C4C4C4"/>
</mask>
<g mask="url(#mask0_1010_28520)">
<rect x="-13" y="-49.6821" width="419" height="950.729" rx="31" fill="white"/>
<rect x="-13" y="-49.6821" width="419" height="950.729" rx="31" fill="url(#paint1_linear_1010_28520)"/>
<rect x="-13" y="-49.6821" width="419" height="950.729" rx="31" stroke="url(#paint2_linear_1010_28520)" stroke-width="2"/>
<path d="M56.5299 -99.229L56.9242 -98.3236L56.5299 -99.229C13.4942 -80.4876 -16.5119 -55.5647 -33.3492 -24.4044C-50.4447 6.39642 -49.6463 42.9777 -31.214 85.1932L-20.4221 109.91L-30.8128 114.435C-53.7233 124.412 -64.1943 151.117 -54.1865 174.038C-44.2066 196.895 -17.6307 207.347 5.21585 197.398L15.7703 192.801L114.344 418.564C126.234 445.797 157.897 458.25 185.117 446.396C212.413 434.509 224.889 402.693 212.965 375.384L114.477 149.816L162.233 129.019C185.144 119.042 195.615 92.3372 185.607 69.4162C175.627 46.5592 149.051 36.1068 126.205 46.0562L78.2847 66.9245L69.6096 47.0558C63.0146 31.9513 61.8566 19.1749 65.8976 8.62286C69.9371 -1.92513 79.2574 -10.4737 94.1045 -16.9393L99.7305 -19.3894C121.576 -28.9028 131.561 -54.3663 122.018 -76.2219C111.572 -100.146 83.7563 -111.086 59.8437 -100.672L56.5299 -99.229Z" fill="white"/>
<path d="M56.5299 -99.229L56.9242 -98.3236L56.5299 -99.229C13.4942 -80.4876 -16.5119 -55.5647 -33.3492 -24.4044C-50.4447 6.39642 -49.6463 42.9777 -31.214 85.1932L-20.4221 109.91L-30.8128 114.435C-53.7233 124.412 -64.1943 151.117 -54.1865 174.038C-44.2066 196.895 -17.6307 207.347 5.21585 197.398L15.7703 192.801L114.344 418.564C126.234 445.797 157.897 458.25 185.117 446.396C212.413 434.509 224.889 402.693 212.965 375.384L114.477 149.816L162.233 129.019C185.144 119.042 195.615 92.3372 185.607 69.4162C175.627 46.5592 149.051 36.1068 126.205 46.0562L78.2847 66.9245L69.6096 47.0558C63.0146 31.9513 61.8566 19.1749 65.8976 8.62286C69.9371 -1.92513 79.2574 -10.4737 94.1045 -16.9393L99.7305 -19.3894C121.576 -28.9028 131.561 -54.3663 122.018 -76.2219C111.572 -100.146 83.7563 -111.086 59.8437 -100.672L56.5299 -99.229Z" fill="url(#paint3_linear_1010_28520)"/>
<path d="M56.5299 -99.229L56.9242 -98.3236L56.5299 -99.229C13.4942 -80.4876 -16.5119 -55.5647 -33.3492 -24.4044C-50.4447 6.39642 -49.6463 42.9777 -31.214 85.1932L-20.4221 109.91L-30.8128 114.435C-53.7233 124.412 -64.1943 151.117 -54.1865 174.038C-44.2066 196.895 -17.6307 207.347 5.21585 197.398L15.7703 192.801L114.344 418.564C126.234 445.797 157.897 458.25 185.117 446.396C212.413 434.509 224.889 402.693 212.965 375.384L114.477 149.816L162.233 129.019C185.144 119.042 195.615 92.3372 185.607 69.4162C175.627 46.5592 149.051 36.1068 126.205 46.0562L78.2847 66.9245L69.6096 47.0558C63.0146 31.9513 61.8566 19.1749 65.8976 8.62286C69.9371 -1.92513 79.2574 -10.4737 94.1045 -16.9393L99.7305 -19.3894C121.576 -28.9028 131.561 -54.3663 122.018 -76.2219C111.572 -100.146 83.7563 -111.086 59.8437 -100.672L56.5299 -99.229Z" stroke="black" stroke-width="2"/>
<path d="M39.1953 607.405L39.2005 607.397C49.5163 590.907 52.0793 571.268 47.0007 548.573C41.305 523.122 29.3779 505.426 11.1244 495.693L9.0983 486.639C18.8375 483.806 24.7938 473.842 22.5519 463.825L20.784 455.924C17.4337 440.953 2.51401 431.606 -12.3978 435.14L-120.075 460.662C-146.724 466.978 -164.666 480.053 -173.662 499.985C-182.679 519.561 -183.803 544.186 -177.183 573.767C-171.457 599.354 -160.825 619.056 -145.225 632.779C-138.17 639.123 -130.611 643.59 -122.549 646.155C-114.183 648.817 -107.05 645.569 -102.551 639.588C-98.0827 633.646 -96.1814 624.996 -98.0549 616.625C-99.794 608.853 -105.105 602.541 -110.841 596.648C-112.119 595.335 -113.417 594.044 -114.706 592.761C-119.274 588.216 -123.738 583.775 -126.874 578.821C-129.783 574.226 -132.102 568.148 -133.803 560.55C-136.502 548.488 -135.84 538.993 -132.023 531.93C-128.22 524.896 -121.179 520.081 -110.683 517.593L-106.461 516.593L-94.3678 570.634C-88.044 598.893 -76.4306 618.587 -59.3898 629.479C-42.4391 640.314 -24.5829 643.537 -5.87982 639.104C13.5932 634.489 28.6365 623.915 39.1953 607.405ZM523.099 578.337L523.1 578.335L544.071 524.857C549.139 513.541 553.776 505.769 557.963 501.427C562.287 497.72 567.967 496.561 575.176 498.133C583.453 499.939 588.781 504.809 591.273 512.835C593.795 520.956 593.426 532.367 590.014 547.17C587.575 557.753 584.354 566.337 580.376 572.953C576.328 579.687 570.703 585.882 564.982 592.184C563.295 594.042 561.599 595.909 559.934 597.802C552.676 606.05 546.021 614.753 543.647 625.05C540.633 638.126 544.004 651.334 551.256 659.937C558.547 668.585 569.78 672.572 582.203 667.024C591.658 662.801 600.619 656.911 609.087 649.366C630.966 630.185 646.223 601.643 654.934 563.852C664.828 520.931 663.537 486.244 650.871 459.91L650.868 459.902C638.114 433.98 617.634 417.921 589.496 411.784C566.543 406.777 546.362 409.631 529.034 420.43C511.732 431.213 497.386 449.848 485.936 476.197L485.931 476.21L485.926 476.222L462.815 533.614C462.814 533.617 462.813 533.62 462.812 533.623C456.429 548.838 449.98 559.095 443.517 564.563L443.502 564.575L443.488 564.588C437.516 570.039 429.836 571.794 420.284 569.711C409.622 567.385 402.698 561.408 399.364 551.744C395.998 541.99 396.257 528.381 400.307 510.811C404.541 492.445 411.14 479.092 420.015 470.617C423.776 467.025 427.948 463.588 432.192 460.113L432.755 459.651C436.806 456.335 440.908 452.977 444.713 449.444C452.67 442.056 459.446 433.8 461.871 423.278C464.826 410.458 461.671 397.465 454.579 388.587C447.462 379.679 436.359 374.912 423.607 378.7C409.882 382.777 397.324 389.547 385.939 399.001L385.933 399.006C362.184 419.049 345.143 451.803 334.702 497.101C324.803 540.044 326.706 575.691 340.572 603.942C354.418 632.15 375.042 649.316 402.435 655.291C430.088 661.322 454.052 657.943 474.237 645.051C494.396 632.174 510.66 609.886 523.099 578.337ZM-22.8763 509.987C-13.196 516.49 -6.82762 526.414 -3.81717 539.866C-1.1132 551.949 -1.47917 561.394 -4.72202 568.323C-7.94035 575.201 -14.0755 579.774 -23.3315 581.968C-32.2913 584.091 -39.569 582.544 -45.3252 577.464C-51.1397 572.332 -55.5355 563.48 -58.3926 550.712L-68.0646 507.492L-56.2077 504.682C-43.6306 501.701 -32.5488 503.489 -22.8763 509.987Z" fill="white"/>
<path d="M39.1953 607.405L39.2005 607.397C49.5163 590.907 52.0793 571.268 47.0007 548.573C41.305 523.122 29.3779 505.426 11.1244 495.693L9.0983 486.639C18.8375 483.806 24.7938 473.842 22.5519 463.825L20.784 455.924C17.4337 440.953 2.51401 431.606 -12.3978 435.14L-120.075 460.662C-146.724 466.978 -164.666 480.053 -173.662 499.985C-182.679 519.561 -183.803 544.186 -177.183 573.767C-171.457 599.354 -160.825 619.056 -145.225 632.779C-138.17 639.123 -130.611 643.59 -122.549 646.155C-114.183 648.817 -107.05 645.569 -102.551 639.588C-98.0827 633.646 -96.1814 624.996 -98.0549 616.625C-99.794 608.853 -105.105 602.541 -110.841 596.648C-112.119 595.335 -113.417 594.044 -114.706 592.761C-119.274 588.216 -123.738 583.775 -126.874 578.821C-129.783 574.226 -132.102 568.148 -133.803 560.55C-136.502 548.488 -135.84 538.993 -132.023 531.93C-128.22 524.896 -121.179 520.081 -110.683 517.593L-106.461 516.593L-94.3678 570.634C-88.044 598.893 -76.4306 618.587 -59.3898 629.479C-42.4391 640.314 -24.5829 643.537 -5.87982 639.104C13.5932 634.489 28.6365 623.915 39.1953 607.405ZM523.099 578.337L523.1 578.335L544.071 524.857C549.139 513.541 553.776 505.769 557.963 501.427C562.287 497.72 567.967 496.561 575.176 498.133C583.453 499.939 588.781 504.809 591.273 512.835C593.795 520.956 593.426 532.367 590.014 547.17C587.575 557.753 584.354 566.337 580.376 572.953C576.328 579.687 570.703 585.882 564.982 592.184C563.295 594.042 561.599 595.909 559.934 597.802C552.676 606.05 546.021 614.753 543.647 625.05C540.633 638.126 544.004 651.334 551.256 659.937C558.547 668.585 569.78 672.572 582.203 667.024C591.658 662.801 600.619 656.911 609.087 649.366C630.966 630.185 646.223 601.643 654.934 563.852C664.828 520.931 663.537 486.244 650.871 459.91L650.868 459.902C638.114 433.98 617.634 417.921 589.496 411.784C566.543 406.777 546.362 409.631 529.034 420.43C511.732 431.213 497.386 449.848 485.936 476.197L485.931 476.21L485.926 476.222L462.815 533.614C462.814 533.617 462.813 533.62 462.812 533.623C456.429 548.838 449.98 559.095 443.517 564.563L443.502 564.575L443.488 564.588C437.516 570.039 429.836 571.794 420.284 569.711C409.622 567.385 402.698 561.408 399.364 551.744C395.998 541.99 396.257 528.381 400.307 510.811C404.541 492.445 411.14 479.092 420.015 470.617C423.776 467.025 427.948 463.588 432.192 460.113L432.755 459.651C436.806 456.335 440.908 452.977 444.713 449.444C452.67 442.056 459.446 433.8 461.871 423.278C464.826 410.458 461.671 397.465 454.579 388.587C447.462 379.679 436.359 374.912 423.607 378.7C409.882 382.777 397.324 389.547 385.939 399.001L385.933 399.006C362.184 419.049 345.143 451.803 334.702 497.101C324.803 540.044 326.706 575.691 340.572 603.942C354.418 632.15 375.042 649.316 402.435 655.291C430.088 661.322 454.052 657.943 474.237 645.051C494.396 632.174 510.66 609.886 523.099 578.337ZM-22.8763 509.987C-13.196 516.49 -6.82762 526.414 -3.81717 539.866C-1.1132 551.949 -1.47917 561.394 -4.72202 568.323C-7.94035 575.201 -14.0755 579.774 -23.3315 581.968C-32.2913 584.091 -39.569 582.544 -45.3252 577.464C-51.1397 572.332 -55.5355 563.48 -58.3926 550.712L-68.0646 507.492L-56.2077 504.682C-43.6306 501.701 -32.5488 503.489 -22.8763 509.987Z" fill="url(#paint4_linear_1010_28520)"/>
<path d="M39.1953 607.405L39.2005 607.397C49.5163 590.907 52.0793 571.268 47.0007 548.573C41.305 523.122 29.3779 505.426 11.1244 495.693L9.0983 486.639C18.8375 483.806 24.7938 473.842 22.5519 463.825L20.784 455.924C17.4337 440.953 2.51401 431.606 -12.3978 435.14L-120.075 460.662C-146.724 466.978 -164.666 480.053 -173.662 499.985C-182.679 519.561 -183.803 544.186 -177.183 573.767C-171.457 599.354 -160.825 619.056 -145.225 632.779C-138.17 639.123 -130.611 643.59 -122.549 646.155C-114.183 648.817 -107.05 645.569 -102.551 639.588C-98.0827 633.646 -96.1814 624.996 -98.0549 616.625C-99.794 608.853 -105.105 602.541 -110.841 596.648C-112.119 595.335 -113.417 594.044 -114.706 592.761C-119.274 588.216 -123.738 583.775 -126.874 578.821C-129.783 574.226 -132.102 568.148 -133.803 560.55C-136.502 548.488 -135.84 538.993 -132.023 531.93C-128.22 524.896 -121.179 520.081 -110.683 517.593L-106.461 516.593L-94.3678 570.634C-88.044 598.893 -76.4306 618.587 -59.3898 629.479C-42.4391 640.314 -24.5829 643.537 -5.87982 639.104C13.5932 634.489 28.6365 623.915 39.1953 607.405ZM523.099 578.337L523.1 578.335L544.071 524.857C549.139 513.541 553.776 505.769 557.963 501.427C562.287 497.72 567.967 496.561 575.176 498.133C583.453 499.939 588.781 504.809 591.273 512.835C593.795 520.956 593.426 532.367 590.014 547.17C587.575 557.753 584.354 566.337 580.376 572.953C576.328 579.687 570.703 585.882 564.982 592.184C563.295 594.042 561.599 595.909 559.934 597.802C552.676 606.05 546.021 614.753 543.647 625.05C540.633 638.126 544.004 651.334 551.256 659.937C558.547 668.585 569.78 672.572 582.203 667.024C591.658 662.801 600.619 656.911 609.087 649.366C630.966 630.185 646.223 601.643 654.934 563.852C664.828 520.931 663.537 486.244 650.871 459.91L650.868 459.902C638.114 433.98 617.634 417.921 589.496 411.784C566.543 406.777 546.362 409.631 529.034 420.43C511.732 431.213 497.386 449.848 485.936 476.197L485.931 476.21L485.926 476.222L462.815 533.614C462.814 533.617 462.813 533.62 462.812 533.623C456.429 548.838 449.98 559.095 443.517 564.563L443.502 564.575L443.488 564.588C437.516 570.039 429.836 571.794 420.284 569.711C409.622 567.385 402.698 561.408 399.364 551.744C395.998 541.99 396.257 528.381 400.307 510.811C404.541 492.445 411.14 479.092 420.015 470.617C423.776 467.025 427.948 463.588 432.192 460.113L432.755 459.651C436.806 456.335 440.908 452.977 444.713 449.444C452.67 442.056 459.446 433.8 461.871 423.278C464.826 410.458 461.671 397.465 454.579 388.587C447.462 379.679 436.359 374.912 423.607 378.7C409.882 382.777 397.324 389.547 385.939 399.001L385.933 399.006C362.184 419.049 345.143 451.803 334.702 497.101C324.803 540.044 326.706 575.691 340.572 603.942C354.418 632.15 375.042 649.316 402.435 655.291C430.088 661.322 454.052 657.943 474.237 645.051C494.396 632.174 510.66 609.886 523.099 578.337ZM-22.8763 509.987C-13.196 516.49 -6.82762 526.414 -3.81717 539.866C-1.1132 551.949 -1.47917 561.394 -4.72202 568.323C-7.94035 575.201 -14.0755 579.774 -23.3315 581.968C-32.2913 584.091 -39.569 582.544 -45.3252 577.464C-51.1397 572.332 -55.5355 563.48 -58.3926 550.712L-68.0646 507.492L-56.2077 504.682C-43.6306 501.701 -32.5488 503.489 -22.8763 509.987Z" stroke="black" stroke-width="2"/>
<path d="M435.025 142.499L439.669 146.215C449.529 154.107 463.912 152.5 471.792 142.626C479.672 132.753 478.068 118.353 468.208 110.461L463.564 106.745C453.704 98.8527 439.322 100.46 431.441 110.334C423.562 120.207 425.166 134.607 435.025 142.499ZM341.731 305.027L423.38 202.723C432.164 191.717 430.376 175.664 419.385 166.867C408.393 158.069 392.361 159.861 383.576 170.868L301.927 273.171C293.143 284.177 294.931 300.23 305.922 309.027C316.914 317.825 332.946 316.033 341.731 305.027Z" fill="white"/>
<path d="M435.025 142.499L439.669 146.215C449.529 154.107 463.912 152.5 471.792 142.626C479.672 132.753 478.068 118.353 468.208 110.461L463.564 106.745C453.704 98.8527 439.322 100.46 431.441 110.334C423.562 120.207 425.166 134.607 435.025 142.499ZM341.731 305.027L423.38 202.723C432.164 191.717 430.376 175.664 419.385 166.867C408.393 158.069 392.361 159.861 383.576 170.868L301.927 273.171C293.143 284.177 294.931 300.23 305.922 309.027C316.914 317.825 332.946 316.033 341.731 305.027Z" fill="url(#paint5_linear_1010_28520)"/>
<path d="M435.025 142.499L439.669 146.215C449.529 154.107 463.912 152.5 471.792 142.626C479.672 132.753 478.068 118.353 468.208 110.461L463.564 106.745C453.704 98.8527 439.322 100.46 431.441 110.334C423.562 120.207 425.166 134.607 435.025 142.499ZM341.731 305.027L423.38 202.723C432.164 191.717 430.376 175.664 419.385 166.867C408.393 158.069 392.361 159.861 383.576 170.868L301.927 273.171C293.143 284.177 294.931 300.23 305.922 309.027C316.914 317.825 332.946 316.033 341.731 305.027Z" stroke="black" stroke-width="2"/>
<path d="M162.393 794.618L162.394 794.618L203.43 800.723C212.194 802.462 218.357 804.475 222.03 806.716C225.224 809.125 226.903 812.899 226.913 818.256C226.925 824.39 224.358 828.926 219.157 831.995C213.874 835.113 205.815 836.745 194.846 836.767C187.187 836.781 180.774 835.947 175.582 834.292C170.067 832.535 164.683 829.504 159.176 826.405C157.622 825.531 156.058 824.651 154.479 823.792C147.383 819.934 140.012 816.541 132.191 816.556C122.472 816.575 113.658 821.092 108.679 827.647C103.667 834.247 102.552 842.934 108.35 850.988C112.888 857.291 118.595 862.922 125.461 867.881C142.48 880.386 165.083 886.561 193.177 886.506C225.074 886.444 249.451 879.745 266.15 866.253L266.157 866.247C282.546 852.766 290.739 835.375 290.698 814.154C290.664 796.851 285.491 782.819 275.106 772.16C264.742 761.522 249.281 754.341 228.85 750.527L228.836 750.524L228.822 750.522L184.686 743.538C184.683 743.538 184.681 743.538 184.679 743.537C172.949 741.504 164.757 738.607 159.946 734.937L159.931 734.926L159.915 734.915C155.227 731.615 152.818 726.508 152.805 719.391C152.789 711.457 155.897 705.595 162.124 701.655C168.428 697.666 178.019 695.59 191.041 695.564C204.485 695.538 214.795 697.975 222.082 702.756C225.259 704.84 228.391 707.255 231.568 709.729C231.777 709.891 231.987 710.055 232.196 710.218C235.159 712.526 238.165 714.868 241.243 716.979C247.83 721.496 254.881 725.055 262.875 725.039C272.402 725.02 281.083 720.695 286.267 714.222C291.474 707.72 293.153 699.03 288.566 690.49C283.499 681.054 276.626 672.964 267.957 666.222L267.951 666.217C250.026 652.511 224.161 645.764 190.503 645.829C158.583 645.891 133.626 653.191 115.761 667.859C97.9345 682.496 88.9747 700.17 89.0148 720.841C89.0552 741.674 95.187 758.327 107.498 770.683C119.789 783.019 138.132 790.963 162.393 794.618Z" fill="white"/>
<path d="M162.393 794.618L162.394 794.618L203.43 800.723C212.194 802.462 218.357 804.475 222.03 806.716C225.224 809.125 226.903 812.899 226.913 818.256C226.925 824.39 224.358 828.926 219.157 831.995C213.874 835.113 205.815 836.745 194.846 836.767C187.187 836.781 180.774 835.947 175.582 834.292C170.067 832.535 164.683 829.504 159.176 826.405C157.622 825.531 156.058 824.651 154.479 823.792C147.383 819.934 140.012 816.541 132.191 816.556C122.472 816.575 113.658 821.092 108.679 827.647C103.667 834.247 102.552 842.934 108.35 850.988C112.888 857.291 118.595 862.922 125.461 867.881C142.48 880.386 165.083 886.561 193.177 886.506C225.074 886.444 249.451 879.745 266.15 866.253L266.157 866.247C282.546 852.766 290.739 835.375 290.698 814.154C290.664 796.851 285.491 782.819 275.106 772.16C264.742 761.522 249.281 754.341 228.85 750.527L228.836 750.524L228.822 750.522L184.686 743.538C184.683 743.538 184.681 743.538 184.679 743.537C172.949 741.504 164.757 738.607 159.946 734.937L159.931 734.926L159.915 734.915C155.227 731.615 152.818 726.508 152.805 719.391C152.789 711.457 155.897 705.595 162.124 701.655C168.428 697.666 178.019 695.59 191.041 695.564C204.485 695.538 214.795 697.975 222.082 702.756C225.259 704.84 228.391 707.255 231.568 709.729C231.777 709.891 231.987 710.055 232.196 710.218C235.159 712.526 238.165 714.868 241.243 716.979C247.83 721.496 254.881 725.055 262.875 725.039C272.402 725.02 281.083 720.695 286.267 714.222C291.474 707.72 293.153 699.03 288.566 690.49C283.499 681.054 276.626 672.964 267.957 666.222L267.951 666.217C250.026 652.511 224.161 645.764 190.503 645.829C158.583 645.891 133.626 653.191 115.761 667.859C97.9345 682.496 88.9747 700.17 89.0148 720.841C89.0552 741.674 95.187 758.327 107.498 770.683C119.789 783.019 138.132 790.963 162.393 794.618Z" fill="url(#paint6_linear_1010_28520)"/>
<path d="M162.393 794.618L162.394 794.618L203.43 800.723C212.194 802.462 218.357 804.475 222.03 806.716C225.224 809.125 226.903 812.899 226.913 818.256C226.925 824.39 224.358 828.926 219.157 831.995C213.874 835.113 205.815 836.745 194.846 836.767C187.187 836.781 180.774 835.947 175.582 834.292C170.067 832.535 164.683 829.504 159.176 826.405C157.622 825.531 156.058 824.651 154.479 823.792C147.383 819.934 140.012 816.541 132.191 816.556C122.472 816.575 113.658 821.092 108.679 827.647C103.667 834.247 102.552 842.934 108.35 850.988C112.888 857.291 118.595 862.922 125.461 867.881C142.48 880.386 165.083 886.561 193.177 886.506C225.074 886.444 249.451 879.745 266.15 866.253L266.157 866.247C282.546 852.766 290.739 835.375 290.698 814.154C290.664 796.851 285.491 782.819 275.106 772.16C264.742 761.522 249.281 754.341 228.85 750.527L228.836 750.524L228.822 750.522L184.686 743.538C184.683 743.538 184.681 743.538 184.679 743.537C172.949 741.504 164.757 738.607 159.946 734.937L159.931 734.926L159.915 734.915C155.227 731.615 152.818 726.508 152.805 719.391C152.789 711.457 155.897 705.595 162.124 701.655C168.428 697.666 178.019 695.59 191.041 695.564C204.485 695.538 214.795 697.975 222.082 702.756C225.259 704.84 228.391 707.255 231.568 709.729C231.777 709.891 231.987 710.055 232.196 710.218C235.159 712.526 238.165 714.868 241.243 716.979C247.83 721.496 254.881 725.055 262.875 725.039C272.402 725.02 281.083 720.695 286.267 714.222C291.474 707.72 293.153 699.03 288.566 690.49C283.499 681.054 276.626 672.964 267.957 666.222L267.951 666.217C250.026 652.511 224.161 645.764 190.503 645.829C158.583 645.891 133.626 653.191 115.761 667.859C97.9345 682.496 88.9747 700.17 89.0148 720.841C89.0552 741.674 95.187 758.327 107.498 770.683C119.789 783.019 138.132 790.963 162.393 794.618Z" stroke="black" stroke-width="2"/>
</g>
</g>
</g>
<defs>
<linearGradient id="paint0_linear_1010_28520" x1="393" y1="852" x2="-1.10394" y2="0.510947" gradientUnits="userSpaceOnUse">
<stop stop-color="#FFC3A0"/>
<stop offset="1" stop-color="#FFAFBC"/>
</linearGradient>
<linearGradient id="paint1_linear_1010_28520" x1="407" y1="902.047" x2="-45.8627" y2="-35.288" gradientUnits="userSpaceOnUse">
<stop stop-color="#FFC3A0"/>
<stop offset="1" stop-color="#FFAFBC"/>
</linearGradient>
<linearGradient id="paint2_linear_1010_28520" x1="196.5" y1="-50.6821" x2="196.5" y2="902.047" gradientUnits="userSpaceOnUse">
<stop offset="0.0339615" stop-opacity="0"/>
<stop offset="0.188954" stop-opacity="0.930587"/>
<stop offset="1"/>
</linearGradient>
<linearGradient id="paint3_linear_1010_28520" x1="216.486" y1="449.881" x2="-28.0783" y2="-116.101" gradientUnits="userSpaceOnUse">
<stop stop-color="#AFFFF2"/>
<stop offset="1" stop-color="#FFF2AF"/>
</linearGradient>
<linearGradient id="paint4_linear_1010_28520" x1="660.482" y1="668.58" x2="634.678" y2="318.338" gradientUnits="userSpaceOnUse">
<stop stop-color="#FFC3A0"/>
<stop offset="1" stop-color="#FFAFBC"/>
</linearGradient>
<linearGradient id="paint5_linear_1010_28520" x1="475.794" y1="313.612" x2="415.095" y2="73.0284" gradientUnits="userSpaceOnUse">
<stop stop-color="#A0DCFF"/>
<stop offset="1" stop-color="#889BFF"/>
</linearGradient>
<linearGradient id="paint6_linear_1010_28520" x1="290.238" y1="885.507" x2="221.011" y2="613.491" gradientUnits="userSpaceOnUse">
<stop stop-color="#A0DCFF"/>
<stop offset="1" stop-color="#889BFF"/>
</linearGradient>
<clipPath id="clip0_1010_28520">
<rect width="393" height="852" fill="white"/>
</clipPath>
<clipPath id="clip1_1010_28520">
<rect width="393" height="852" fill="white"/>
</clipPath>
</defs>
</svg>
