<svg fill="none" height="852" viewBox="0 0 393 852" width="393" xmlns="http://www.w3.org/2000/svg" xmlns:xlink="http://www.w3.org/1999/xlink"><linearGradient id="a"><stop offset="0" stop-color="#00faac"/><stop offset=".274645" stop-color="#1a6979"/><stop offset=".56968" stop-color="#233366"/><stop offset=".807803" stop-color="#2b0857"/></linearGradient><linearGradient id="b" gradientUnits="userSpaceOnUse" x1="-196.5" x2="375.638" xlink:href="#a" y1="-431.705" y2="851.276"/><linearGradient id="c" gradientUnits="userSpaceOnUse" x1="-467" x2="-226.87" xlink:href="#a" y1="-35.5134" y2="1131.87"/><clipPath id="d"><path d="m0 0h393v852h-393z"/></clipPath><clipPath id="e"><path d="m0 0h393v852h-393z"/></clipPath><g clip-path="url(#d)"><g clip-path="url(#e)"><path d="m0 0h393v852h-393z" fill="#fff"/><path d="m0 0h393v852h-393z" fill="url(#b)"/><circle cx="207" cy="643" fill="#fff" r="337"/><circle cx="207" cy="643" fill="url(#c)" r="337"/><g fill="#fff"><path d="m159.103 504.455 6.186 5.468 16.827-19.038 6.713 5.934-16.826 19.038 3.596 3.179-4.959 5.61-3.596-3.179-1.569 1.775c-2.571 2.909-5.329 4.258-8.274 4.046-2.973-.179-5.947-1.583-8.92-4.21l-3.165-2.798 4.959-5.61 3.069 2.712c2.078 1.837 4.05 1.7 5.915-.41l1.271-1.438-6.186-5.468z"/><path d="m124.228 445.118-.524 9.073-7.987-.46.524-9.073zm5.619.389 32.841 1.895-.516 8.945-32.841-1.895z"/><path d="m189.55 384.612-7.969 3.954c-1.216-1.588-3.238-1.68-6.067-.277-2.866 1.423-3.883 2.975-3.048 4.656.36.726.855 1.148 1.484 1.264.649.06 1.603-.081 2.864-.42l5.73-1.843c6.742-2.154 11.441-.555 14.095 4.796 1.309 2.637 1.281 5.461-.083 8.471-1.364 3.011-4.111 5.54-8.238 7.588-4.358 2.162-8.119 2.932-11.285 2.312-3.127-.64-5.65-2.46-7.567-5.462l7.969-3.954c1.652 2.372 4.237 2.685 7.753.941 3.402-1.688 4.572-3.602 3.51-5.742-.474-.956-1.15-1.502-2.027-1.638-.896-.175-2.175-.017-3.837.474l-6.188 1.927c-5.768 1.623-9.751.218-11.951-4.216-1.346-2.713-1.395-5.452-.146-8.215 1.287-2.782 3.995-5.196 8.123-7.244 3.631-1.802 6.934-2.44 9.909-1.916 3.013.506 5.336 2.021 6.969 4.544z"/><path d="m265.204 418.386-5.836-6.714c1.23-1.577.809-3.557-1.263-5.94-2.099-2.416-3.857-3.007-5.274-1.776-.612.532-.895 1.117-.848 1.755.106.643.482 1.531 1.129 2.665l3.228 5.08c3.785 5.981 3.424 10.931-1.084 14.85-2.222 1.931-4.962 2.616-8.219 2.056-3.258-.561-6.398-2.58-9.421-6.058-3.191-3.671-4.885-7.117-5.083-10.336-.17-3.188.955-6.088 3.376-8.701l5.836 6.714c-1.878 2.198-1.529 4.778 1.046 7.74 2.491 2.866 4.638 3.515 6.442 1.948.805-.7 1.163-1.491 1.073-2.375-.057-.911-.533-2.109-1.427-3.593l-3.426-5.502c-3.025-5.171-2.67-9.381 1.066-12.628 2.286-1.987 4.923-2.725 7.912-2.213 3.017.544 6.036 2.554 9.059 6.032 2.659 3.06 4.11 6.095 4.353 9.106.271 3.043-.609 5.673-2.639 7.89z"/><path d="m233.32 491.975 2.242 1.703 1.007-1.325c-.672-3.136.218-6.318 2.669-9.545 2.168-2.855 4.717-4.482 7.646-4.882 2.964-.374 5.668.367 8.115 2.226 2.344 1.78 3.712 4.212 4.103 7.295.39 3.083-.769 6.408-3.479 9.976l-5.303 6.982.662.503c2.718 2.065 5.252 1.551 7.6-1.541 2.091-2.752 2.279-4.939.565-6.563l5.381-7.084c2.428 1.952 3.586 4.519 3.473 7.702-.079 3.208-1.345 6.426-3.797 9.653-2.838 3.738-5.843 6.036-9.015 6.896-3.197.894-6.477.063-9.841-2.492l-17.022-12.93zm9.679-2.373c-1.317 1.733-1.878 3.53-1.685 5.391.194 1.862 1.106 3.412 2.737 4.651l1.631 1.238 4.258-5.606c2.478-3.262 2.544-5.783.2-7.564-2.413-1.832-4.793-1.202-7.141 1.89z"/></g></g></g></svg>