<svg fill="none" height="852" viewBox="0 0 393 852" width="393" xmlns="http://www.w3.org/2000/svg" xmlns:xlink="http://www.w3.org/1999/xlink"><linearGradient id="a"><stop offset="0" stop-color="#ffc3a0"/><stop offset="1" stop-color="#ffafbc"/></linearGradient><linearGradient id="b" gradientUnits="userSpaceOnUse" x1="393" x2="-1.10394" xlink:href="#a" y1="852" y2=".510947"/><linearGradient id="c" gradientUnits="userSpaceOnUse" x1="407" x2="-45.8627" xlink:href="#a" y1="902.047" y2="-35.288"/><linearGradient id="d" gradientUnits="userSpaceOnUse" x1="196.5" x2="196.5" y1="-50.6821" y2="902.047"><stop offset=".0339615" stop-opacity="0"/><stop offset=".188954" stop-opacity=".930587"/><stop offset="1"/></linearGradient><linearGradient id="e" gradientUnits="userSpaceOnUse" x1="216.486" x2="-28.0783" y1="449.881" y2="-116.101"><stop offset="0" stop-color="#affff2"/><stop offset="1" stop-color="#fff2af"/></linearGradient><linearGradient id="f" gradientUnits="userSpaceOnUse" x1="660.482" x2="634.678" xlink:href="#a" y1="668.58" y2="318.338"/><linearGradient id="g"><stop offset="0" stop-color="#a0dcff"/><stop offset="1" stop-color="#889bff"/></linearGradient><linearGradient id="h" gradientUnits="userSpaceOnUse" x1="475.794" x2="415.095" xlink:href="#g" y1="313.612" y2="73.0284"/><linearGradient id="i" gradientUnits="userSpaceOnUse" x1="290.238" x2="221.011" xlink:href="#g" y1="885.507" y2="613.491"/><clipPath id="j"><path d="m0 0h393v852h-393z"/></clipPath><clipPath id="k"><path d="m0 0h393v852h-393z"/></clipPath><mask id="l" height="954" maskUnits="userSpaceOnUse" width="421" x="-14" y="-51"><rect fill="#c4c4c4" height="952.729" rx="32" width="421" x="-14" y="-50.6821"/></mask><g clip-path="url(#j)"><path d="m0 0h393v852h-393z" fill="#fff"/><g clip-path="url(#k)"><path d="m0 0h393v852h-393z" fill="#fff"/><path d="m0 0h393v852h-393z" fill="url(#b)"/><g mask="url(#l)"><rect fill="#fff" height="950.729" rx="31" width="419" x="-13" y="-49.6821"/><rect fill="url(#c)" height="950.729" rx="31" width="419" x="-13" y="-49.6821"/><rect height="950.729" rx="31" stroke="url(#d)" stroke-width="2" width="419" x="-13" y="-49.6821"/><path d="m56.5299-99.229.3943.9054-.3943-.9054c-43.0357 18.7414-73.0418 43.6643-89.8791 74.8246-17.0955 30.80082-16.2971 67.3821 2.1352 109.5976l10.7919 24.7168-10.3907 4.525c-22.9105 9.977-33.3815 36.682-23.3737 59.603 9.9799 22.857 36.5558 33.309 59.40235 23.36l10.55445-4.597 98.5737 225.763c11.89 27.233 43.553 39.686 70.773 27.832 27.296-11.887 39.772-43.703 27.848-71.012l-98.488-225.568 47.756-20.797c22.911-9.977 33.382-36.6818 23.374-59.6028-9.98-22.857-36.556-33.3094-59.402-23.36l-47.9203 20.8683-8.6751-19.8687c-6.595-15.1045-7.753-27.8809-3.712-38.43294 4.0395-10.54799 13.3598-19.09656 28.2069-25.56216l5.626-2.4501c21.8455-9.5134 31.8305-34.9769 22.2875-56.8325-10.446-23.9241-38.2617-34.8641-62.1743-24.4501z" fill="#fff"/><path d="m56.5299-99.229.3943.9054-.3943-.9054c-43.0357 18.7414-73.0418 43.6643-89.8791 74.8246-17.0955 30.80082-16.2971 67.3821 2.1352 109.5976l10.7919 24.7168-10.3907 4.525c-22.9105 9.977-33.3815 36.682-23.3737 59.603 9.9799 22.857 36.5558 33.309 59.40235 23.36l10.55445-4.597 98.5737 225.763c11.89 27.233 43.553 39.686 70.773 27.832 27.296-11.887 39.772-43.703 27.848-71.012l-98.488-225.568 47.756-20.797c22.911-9.977 33.382-36.6818 23.374-59.6028-9.98-22.857-36.556-33.3094-59.402-23.36l-47.9203 20.8683-8.6751-19.8687c-6.595-15.1045-7.753-27.8809-3.712-38.43294 4.0395-10.54799 13.3598-19.09656 28.2069-25.56216l5.626-2.4501c21.8455-9.5134 31.8305-34.9769 22.2875-56.8325-10.446-23.9241-38.2617-34.8641-62.1743-24.4501z" fill="url(#e)"/><path d="m56.5299-99.229.3943.9054-.3943-.9054c-43.0357 18.7414-73.0418 43.6643-89.8791 74.8246-17.0955 30.80082-16.2971 67.3821 2.1352 109.5976l10.7919 24.7168-10.3907 4.525c-22.9105 9.977-33.3815 36.682-23.3737 59.603 9.9799 22.857 36.5558 33.309 59.40235 23.36l10.55445-4.597 98.5737 225.763c11.89 27.233 43.553 39.686 70.773 27.832 27.296-11.887 39.772-43.703 27.848-71.012l-98.488-225.568 47.756-20.797c22.911-9.977 33.382-36.6818 23.374-59.6028-9.98-22.857-36.556-33.3094-59.402-23.36l-47.9203 20.8683-8.6751-19.8687c-6.595-15.1045-7.753-27.8809-3.712-38.43294 4.0395-10.54799 13.3598-19.09656 28.2069-25.56216l5.626-2.4501c21.8455-9.5134 31.8305-34.9769 22.2875-56.8325-10.446-23.9241-38.2617-34.8641-62.1743-24.4501z" stroke="#000" stroke-width="2"/><path d="m39.1953 607.405.0052-.008c10.3158-16.49 12.8788-36.129 7.8002-58.824-5.6957-25.451-17.6228-43.147-35.8763-52.88l-2.0261-9.054c9.7392-2.833 15.6955-12.797 13.4536-22.814l-1.7679-7.901c-3.3503-14.971-18.26999-24.318-33.1818-20.784l-107.6772 25.522c-26.649 6.316-44.591 19.391-53.587 39.323-9.017 19.576-10.141 44.201-3.521 73.782 5.726 25.587 16.358 45.289 31.958 59.012 7.055 6.344 14.614 10.811 22.676 13.376 8.366 2.662 15.499-.586 19.998-6.567 4.4683-5.942 6.3696-14.592 4.4961-22.963-1.7391-7.772-7.0501-14.084-12.7861-19.977-1.278-1.313-2.576-2.604-3.865-3.887-4.568-4.545-9.032-8.986-12.168-13.94-2.909-4.595-5.228-10.673-6.929-18.271-2.699-12.062-2.037-21.557 1.78-28.62 3.803-7.034 10.844-11.849 21.34-14.337l4.222-1 12.0932 54.041c6.3238 28.259 17.9372 47.953 34.978 58.845 16.9507 10.835 34.8069 14.058 53.50998 9.625 19.47302-4.615 34.51632-15.189 45.07512-31.699zm483.9037-29.068.001-.002 20.971-53.478c5.068-11.316 9.705-19.088 13.892-23.43 4.324-3.707 10.004-4.866 17.213-3.294 8.277 1.806 13.605 6.676 16.097 14.702 2.522 8.121 2.153 19.532-1.259 34.335-2.439 10.583-5.66 19.167-9.638 25.783-4.048 6.734-9.673 12.929-15.394 19.231-1.687 1.858-3.383 3.725-5.048 5.618-7.258 8.248-13.913 16.951-16.287 27.248-3.014 13.076.357 26.284 7.609 34.887 7.291 8.648 18.524 12.635 30.947 7.087 9.455-4.223 18.416-10.113 26.884-17.658 21.879-19.181 37.136-47.723 45.847-85.514 9.894-42.921 8.603-77.608-4.063-103.942l-.003-.008c-12.754-25.922-33.234-41.981-61.372-48.118-22.953-5.007-43.134-2.153-60.462 8.646-17.302 10.783-31.648 29.418-43.098 55.767l-.005.013-.005.012-23.111 57.392c-.001.003-.002.006-.003.009-6.383 15.215-12.832 25.472-19.295 30.94l-.015.012-.014.013c-5.972 5.451-13.652 7.206-23.204 5.123-10.662-2.326-17.586-8.303-20.92-17.967-3.366-9.754-3.107-23.363.943-40.933 4.234-18.366 10.833-31.719 19.708-40.194 3.761-3.592 7.933-7.029 12.177-10.504l.563-.462c4.051-3.316 8.153-6.674 11.958-10.207 7.957-7.388 14.733-15.644 17.158-26.166 2.955-12.82-.2-25.813-7.292-34.691-7.117-8.908-18.22-13.675-30.972-9.887-13.725 4.077-26.283 10.847-37.668 20.301l-.006.005c-23.749 20.043-40.79 52.797-51.231 98.095-9.899 42.943-7.996 78.59 5.87 106.841 13.846 28.208 34.47 45.374 61.863 51.349 27.653 6.031 51.617 2.652 71.802-10.24 20.159-12.877 36.423-35.165 48.862-66.714zm-545.9753-68.35c9.6803 6.503 16.04868 16.427 19.05913 29.879 2.70397 12.083 2.338 21.528-.90485 28.457-3.21833 6.878-9.35348 11.451-18.60948 13.645-8.9598 2.123-16.2375.576-21.9937-4.504-5.8145-5.132-10.2103-13.984-13.0674-26.752l-9.672-43.22 11.8569-2.81c12.5771-2.981 23.6589-1.193 33.3314 5.305z" fill="#fff"/><path d="m39.1953 607.405.0052-.008c10.3158-16.49 12.8788-36.129 7.8002-58.824-5.6957-25.451-17.6228-43.147-35.8763-52.88l-2.0261-9.054c9.7392-2.833 15.6955-12.797 13.4536-22.814l-1.7679-7.901c-3.3503-14.971-18.26999-24.318-33.1818-20.784l-107.6772 25.522c-26.649 6.316-44.591 19.391-53.587 39.323-9.017 19.576-10.141 44.201-3.521 73.782 5.726 25.587 16.358 45.289 31.958 59.012 7.055 6.344 14.614 10.811 22.676 13.376 8.366 2.662 15.499-.586 19.998-6.567 4.4683-5.942 6.3696-14.592 4.4961-22.963-1.7391-7.772-7.0501-14.084-12.7861-19.977-1.278-1.313-2.576-2.604-3.865-3.887-4.568-4.545-9.032-8.986-12.168-13.94-2.909-4.595-5.228-10.673-6.929-18.271-2.699-12.062-2.037-21.557 1.78-28.62 3.803-7.034 10.844-11.849 21.34-14.337l4.222-1 12.0932 54.041c6.3238 28.259 17.9372 47.953 34.978 58.845 16.9507 10.835 34.8069 14.058 53.50998 9.625 19.47302-4.615 34.51632-15.189 45.07512-31.699zm483.9037-29.068.001-.002 20.971-53.478c5.068-11.316 9.705-19.088 13.892-23.43 4.324-3.707 10.004-4.866 17.213-3.294 8.277 1.806 13.605 6.676 16.097 14.702 2.522 8.121 2.153 19.532-1.259 34.335-2.439 10.583-5.66 19.167-9.638 25.783-4.048 6.734-9.673 12.929-15.394 19.231-1.687 1.858-3.383 3.725-5.048 5.618-7.258 8.248-13.913 16.951-16.287 27.248-3.014 13.076.357 26.284 7.609 34.887 7.291 8.648 18.524 12.635 30.947 7.087 9.455-4.223 18.416-10.113 26.884-17.658 21.879-19.181 37.136-47.723 45.847-85.514 9.894-42.921 8.603-77.608-4.063-103.942l-.003-.008c-12.754-25.922-33.234-41.981-61.372-48.118-22.953-5.007-43.134-2.153-60.462 8.646-17.302 10.783-31.648 29.418-43.098 55.767l-.005.013-.005.012-23.111 57.392c-.001.003-.002.006-.003.009-6.383 15.215-12.832 25.472-19.295 30.94l-.015.012-.014.013c-5.972 5.451-13.652 7.206-23.204 5.123-10.662-2.326-17.586-8.303-20.92-17.967-3.366-9.754-3.107-23.363.943-40.933 4.234-18.366 10.833-31.719 19.708-40.194 3.761-3.592 7.933-7.029 12.177-10.504l.563-.462c4.051-3.316 8.153-6.674 11.958-10.207 7.957-7.388 14.733-15.644 17.158-26.166 2.955-12.82-.2-25.813-7.292-34.691-7.117-8.908-18.22-13.675-30.972-9.887-13.725 4.077-26.283 10.847-37.668 20.301l-.006.005c-23.749 20.043-40.79 52.797-51.231 98.095-9.899 42.943-7.996 78.59 5.87 106.841 13.846 28.208 34.47 45.374 61.863 51.349 27.653 6.031 51.617 2.652 71.802-10.24 20.159-12.877 36.423-35.165 48.862-66.714zm-545.9753-68.35c9.6803 6.503 16.04868 16.427 19.05913 29.879 2.70397 12.083 2.338 21.528-.90485 28.457-3.21833 6.878-9.35348 11.451-18.60948 13.645-8.9598 2.123-16.2375.576-21.9937-4.504-5.8145-5.132-10.2103-13.984-13.0674-26.752l-9.672-43.22 11.8569-2.81c12.5771-2.981 23.6589-1.193 33.3314 5.305z" fill="url(#f)"/><path d="m39.1953 607.405.0052-.008c10.3158-16.49 12.8788-36.129 7.8002-58.824-5.6957-25.451-17.6228-43.147-35.8763-52.88l-2.0261-9.054c9.7392-2.833 15.6955-12.797 13.4536-22.814l-1.7679-7.901c-3.3503-14.971-18.26999-24.318-33.1818-20.784l-107.6772 25.522c-26.649 6.316-44.591 19.391-53.587 39.323-9.017 19.576-10.141 44.201-3.521 73.782 5.726 25.587 16.358 45.289 31.958 59.012 7.055 6.344 14.614 10.811 22.676 13.376 8.366 2.662 15.499-.586 19.998-6.567 4.4683-5.942 6.3696-14.592 4.4961-22.963-1.7391-7.772-7.0501-14.084-12.7861-19.977-1.278-1.313-2.576-2.604-3.865-3.887-4.568-4.545-9.032-8.986-12.168-13.94-2.909-4.595-5.228-10.673-6.929-18.271-2.699-12.062-2.037-21.557 1.78-28.62 3.803-7.034 10.844-11.849 21.34-14.337l4.222-1 12.0932 54.041c6.3238 28.259 17.9372 47.953 34.978 58.845 16.9507 10.835 34.8069 14.058 53.50998 9.625 19.47302-4.615 34.51632-15.189 45.07512-31.699zm483.9037-29.068.001-.002 20.971-53.478c5.068-11.316 9.705-19.088 13.892-23.43 4.324-3.707 10.004-4.866 17.213-3.294 8.277 1.806 13.605 6.676 16.097 14.702 2.522 8.121 2.153 19.532-1.259 34.335-2.439 10.583-5.66 19.167-9.638 25.783-4.048 6.734-9.673 12.929-15.394 19.231-1.687 1.858-3.383 3.725-5.048 5.618-7.258 8.248-13.913 16.951-16.287 27.248-3.014 13.076.357 26.284 7.609 34.887 7.291 8.648 18.524 12.635 30.947 7.087 9.455-4.223 18.416-10.113 26.884-17.658 21.879-19.181 37.136-47.723 45.847-85.514 9.894-42.921 8.603-77.608-4.063-103.942l-.003-.008c-12.754-25.922-33.234-41.981-61.372-48.118-22.953-5.007-43.134-2.153-60.462 8.646-17.302 10.783-31.648 29.418-43.098 55.767l-.005.013-.005.012-23.111 57.392c-.001.003-.002.006-.003.009-6.383 15.215-12.832 25.472-19.295 30.94l-.015.012-.014.013c-5.972 5.451-13.652 7.206-23.204 5.123-10.662-2.326-17.586-8.303-20.92-17.967-3.366-9.754-3.107-23.363.943-40.933 4.234-18.366 10.833-31.719 19.708-40.194 3.761-3.592 7.933-7.029 12.177-10.504l.563-.462c4.051-3.316 8.153-6.674 11.958-10.207 7.957-7.388 14.733-15.644 17.158-26.166 2.955-12.82-.2-25.813-7.292-34.691-7.117-8.908-18.22-13.675-30.972-9.887-13.725 4.077-26.283 10.847-37.668 20.301l-.006.005c-23.749 20.043-40.79 52.797-51.231 98.095-9.899 42.943-7.996 78.59 5.87 106.841 13.846 28.208 34.47 45.374 61.863 51.349 27.653 6.031 51.617 2.652 71.802-10.24 20.159-12.877 36.423-35.165 48.862-66.714zm-545.9753-68.35c9.6803 6.503 16.04868 16.427 19.05913 29.879 2.70397 12.083 2.338 21.528-.90485 28.457-3.21833 6.878-9.35348 11.451-18.60948 13.645-8.9598 2.123-16.2375.576-21.9937-4.504-5.8145-5.132-10.2103-13.984-13.0674-26.752l-9.672-43.22 11.8569-2.81c12.5771-2.981 23.6589-1.193 33.3314 5.305z" stroke="#000" stroke-width="2"/><path d="m435.025 142.499 4.644 3.716c9.86 7.892 24.243 6.285 32.123-3.589 7.88-9.873 6.276-24.273-3.584-32.165l-4.644-3.716c-9.86-7.8923-24.242-6.285-32.123 3.589-7.879 9.873-6.275 24.273 3.584 32.165zm-93.294 162.528 81.649-102.304c8.784-11.006 6.996-27.059-3.995-35.856-10.992-8.798-27.024-7.006-35.809 4.001l-81.649 102.303c-8.784 11.006-6.996 27.059 3.995 35.856 10.992 8.798 27.024 7.006 35.809-4z" fill="#fff"/><path d="m435.025 142.499 4.644 3.716c9.86 7.892 24.243 6.285 32.123-3.589 7.88-9.873 6.276-24.273-3.584-32.165l-4.644-3.716c-9.86-7.8923-24.242-6.285-32.123 3.589-7.879 9.873-6.275 24.273 3.584 32.165zm-93.294 162.528 81.649-102.304c8.784-11.006 6.996-27.059-3.995-35.856-10.992-8.798-27.024-7.006-35.809 4.001l-81.649 102.303c-8.784 11.006-6.996 27.059 3.995 35.856 10.992 8.798 27.024 7.006 35.809-4z" fill="url(#h)"/><path d="m435.025 142.499 4.644 3.716c9.86 7.892 24.243 6.285 32.123-3.589 7.88-9.873 6.276-24.273-3.584-32.165l-4.644-3.716c-9.86-7.8923-24.242-6.285-32.123 3.589-7.879 9.873-6.275 24.273 3.584 32.165zm-93.294 162.528 81.649-102.304c8.784-11.006 6.996-27.059-3.995-35.856-10.992-8.798-27.024-7.006-35.809 4.001l-81.649 102.303c-8.784 11.006-6.996 27.059 3.995 35.856 10.992 8.798 27.024 7.006 35.809-4z" stroke="#000" stroke-width="2"/><path d="m162.393 794.618h.001l41.036 6.105c8.764 1.739 14.927 3.752 18.6 5.993 3.194 2.409 4.873 6.183 4.883 11.54.012 6.134-2.555 10.67-7.756 13.739-5.283 3.118-13.342 4.75-24.311 4.772-7.659.014-14.072-.82-19.264-2.475-5.515-1.757-10.899-4.788-16.406-7.887-1.554-.874-3.118-1.754-4.697-2.613-7.096-3.858-14.467-7.251-22.288-7.236-9.719.019-18.533 4.536-23.512 11.091-5.012 6.6-6.127 15.287-.329 23.341 4.538 6.303 10.245 11.934 17.111 16.893 17.019 12.505 39.622 18.68 67.716 18.625 31.897-.062 56.274-6.761 72.973-20.253l.007-.006c16.389-13.481 24.582-30.872 24.541-52.093-.034-17.303-5.207-31.335-15.592-41.994-10.364-10.638-25.825-17.819-46.256-21.633l-.014-.003-.014-.002-44.136-6.984c-.003 0-.005 0-.007-.001-11.73-2.033-19.922-4.93-24.733-8.6l-.015-.011-.016-.011c-4.688-3.3-7.097-8.407-7.11-15.524-.016-7.934 3.092-13.796 9.319-17.736 6.304-3.989 15.895-6.065 28.917-6.091 13.444-.026 23.754 2.411 31.041 7.192 3.177 2.084 6.309 4.499 9.486 6.973.209.162.419.326.628.489 2.963 2.308 5.969 4.65 9.047 6.761 6.587 4.517 13.638 8.076 21.632 8.06 9.527-.019 18.208-4.344 23.392-10.817 5.207-6.502 6.886-15.192 2.299-23.732-5.067-9.436-11.94-17.526-20.609-24.268l-.006-.005c-17.925-13.706-43.79-20.453-77.448-20.388-31.92.062-56.877 7.362-74.742 22.03-17.8265 14.637-26.7863 32.311-26.7462 52.982.0404 20.833 6.1722 37.486 18.4832 49.842 12.291 12.336 30.634 20.28 54.895 23.935z" fill="#fff"/><path d="m162.393 794.618h.001l41.036 6.105c8.764 1.739 14.927 3.752 18.6 5.993 3.194 2.409 4.873 6.183 4.883 11.54.012 6.134-2.555 10.67-7.756 13.739-5.283 3.118-13.342 4.75-24.311 4.772-7.659.014-14.072-.82-19.264-2.475-5.515-1.757-10.899-4.788-16.406-7.887-1.554-.874-3.118-1.754-4.697-2.613-7.096-3.858-14.467-7.251-22.288-7.236-9.719.019-18.533 4.536-23.512 11.091-5.012 6.6-6.127 15.287-.329 23.341 4.538 6.303 10.245 11.934 17.111 16.893 17.019 12.505 39.622 18.68 67.716 18.625 31.897-.062 56.274-6.761 72.973-20.253l.007-.006c16.389-13.481 24.582-30.872 24.541-52.093-.034-17.303-5.207-31.335-15.592-41.994-10.364-10.638-25.825-17.819-46.256-21.633l-.014-.003-.014-.002-44.136-6.984c-.003 0-.005 0-.007-.001-11.73-2.033-19.922-4.93-24.733-8.6l-.015-.011-.016-.011c-4.688-3.3-7.097-8.407-7.11-15.524-.016-7.934 3.092-13.796 9.319-17.736 6.304-3.989 15.895-6.065 28.917-6.091 13.444-.026 23.754 2.411 31.041 7.192 3.177 2.084 6.309 4.499 9.486 6.973.209.162.419.326.628.489 2.963 2.308 5.969 4.65 9.047 6.761 6.587 4.517 13.638 8.076 21.632 8.06 9.527-.019 18.208-4.344 23.392-10.817 5.207-6.502 6.886-15.192 2.299-23.732-5.067-9.436-11.94-17.526-20.609-24.268l-.006-.005c-17.925-13.706-43.79-20.453-77.448-20.388-31.92.062-56.877 7.362-74.742 22.03-17.8265 14.637-26.7863 32.311-26.7462 52.982.0404 20.833 6.1722 37.486 18.4832 49.842 12.291 12.336 30.634 20.28 54.895 23.935z" fill="url(#i)"/><path d="m162.393 794.618h.001l41.036 6.105c8.764 1.739 14.927 3.752 18.6 5.993 3.194 2.409 4.873 6.183 4.883 11.54.012 6.134-2.555 10.67-7.756 13.739-5.283 3.118-13.342 4.75-24.311 4.772-7.659.014-14.072-.82-19.264-2.475-5.515-1.757-10.899-4.788-16.406-7.887-1.554-.874-3.118-1.754-4.697-2.613-7.096-3.858-14.467-7.251-22.288-7.236-9.719.019-18.533 4.536-23.512 11.091-5.012 6.6-6.127 15.287-.329 23.341 4.538 6.303 10.245 11.934 17.111 16.893 17.019 12.505 39.622 18.68 67.716 18.625 31.897-.062 56.274-6.761 72.973-20.253l.007-.006c16.389-13.481 24.582-30.872 24.541-52.093-.034-17.303-5.207-31.335-15.592-41.994-10.364-10.638-25.825-17.819-46.256-21.633l-.014-.003-.014-.002-44.136-6.984c-.003 0-.005 0-.007-.001-11.73-2.033-19.922-4.93-24.733-8.6l-.015-.011-.016-.011c-4.688-3.3-7.097-8.407-7.11-15.524-.016-7.934 3.092-13.796 9.319-17.736 6.304-3.989 15.895-6.065 28.917-6.091 13.444-.026 23.754 2.411 31.041 7.192 3.177 2.084 6.309 4.499 9.486 6.973.209.162.419.326.628.489 2.963 2.308 5.969 4.65 9.047 6.761 6.587 4.517 13.638 8.076 21.632 8.06 9.527-.019 18.208-4.344 23.392-10.817 5.207-6.502 6.886-15.192 2.299-23.732-5.067-9.436-11.94-17.526-20.609-24.268l-.006-.005c-17.925-13.706-43.79-20.453-77.448-20.388-31.92.062-56.877 7.362-74.742 22.03-17.8265 14.637-26.7863 32.311-26.7462 52.982.0404 20.833 6.1722 37.486 18.4832 49.842 12.291 12.336 30.634 20.28 54.895 23.935z" stroke="#000" stroke-width="2"/></g></g></g></svg>