<svg fill="none" height="852" viewBox="0 0 393 852" width="393" xmlns="http://www.w3.org/2000/svg" xmlns:xlink="http://www.w3.org/1999/xlink"><filter id="a" color-interpolation-filters="sRGB" filterUnits="userSpaceOnUse" height="103" width="430" x="-18" y="757"><feFlood flood-opacity="0" result="BackgroundImageFix"/><feGaussianBlur in="BackgroundImageFix" stdDeviation="4"/><feComposite in2="SourceAlpha" operator="in" result="effect1_backgroundBlur_1015_54924"/><feBlend in="SourceGraphic" in2="effect1_backgroundBlur_1015_54924" mode="normal" result="shape"/></filter><linearGradient id="b" gradientUnits="userSpaceOnUse" x1="393" x2="-1.10394" y1="852" y2=".510947"><stop offset="0" stop-color="#ffc3a0"/><stop offset="1" stop-color="#ffafbc"/></linearGradient><linearGradient id="c" gradientUnits="userSpaceOnUse" x1="196.5" x2="196.5" y1="0" y2="107.88"><stop offset="0" stop-color="#190620" stop-opacity="0"/><stop offset=".578727" stop-color="#18051f" stop-opacity=".699228"/><stop offset="1" stop-color="#17041e"/></linearGradient><radialGradient id="d" cx="0" cy="0" gradientTransform="matrix(127.38462518 83.32387367 -85.25785726 130.3412781 266.009 74.1338)" gradientUnits="userSpaceOnUse" r="1"><stop offset="0" stop-color="#a1ffd8"/><stop offset="1" stop-color="#e1b8fa"/></radialGradient><clipPath id="e"><path d="m0 0h393v852h-393z"/></clipPath><clipPath id="f"><path d="m0 0h393v852h-393z"/></clipPath><clipPath id="g"><path d="m61.6667 786h32v32h-32z"/></clipPath><clipPath id="h"><path d="m181 786h32v32h-32z"/></clipPath><clipPath id="i"><path d="m300.334 786h32v32h-32z"/></clipPath><g clip-path="url(#e)"><g clip-path="url(#f)"><path d="m0 0h393v852h-393z" fill="#fff"/><path d="m0 0h393v852h-393z" fill="url(#b)"/><g fill="#000"><path d="m33.696 115.384c-1.9627 0-3.6267-.331-4.992-.992-1.3653-.683-2.528-1.557-3.488-2.624l3.2-3.232c1.5147 1.707 3.3813 2.56 5.6 2.56 1.1947 0 2.08-.245 2.656-.736s.864-1.141.864-1.952c0-.619-.1707-1.131-.512-1.536-.3413-.427-1.0347-.715-2.08-.864l-2.208-.288c-2.368-.299-4.1067-1.013-5.216-2.144-1.088-1.131-1.632-2.635-1.632-4.512 0-1.0027.192-1.92.576-2.752s.928-1.5467 1.632-2.144c.7253-.5973 1.6-1.056 2.624-1.376 1.0453-.3413 2.2293-.512 3.552-.512 1.6853 0 3.168.2667 4.448.8s2.3787 1.312 3.296 2.336l-3.232 3.264c-.5333-.6187-1.184-1.12-1.952-1.504-.7467-.4053-1.696-.608-2.848-.608-1.088 0-1.8987.192-2.432.576s-.8.9173-.8 1.6c0 .768.2027 1.323.608 1.664.4267.341 1.1093.587 2.048.736l2.208.352c2.304.363 4.0107 1.077 5.12 2.144 1.1093 1.045 1.664 2.539 1.664 4.48 0 1.067-.192 2.048-.576 2.944s-.9493 1.664-1.696 2.304c-.7253.64-1.632 1.141-2.72 1.504-1.088.341-2.3253.512-3.712.512zm19.4888 0c-1.28 0-2.4214-.203-3.424-.608-1.0027-.427-1.856-1.013-2.56-1.76-.6827-.768-1.2054-1.696-1.568-2.784-.3414-1.088-.512-2.304-.512-3.648 0-1.323.1706-2.517.512-3.584.3413-1.088.8426-2.016 1.504-2.784.6826-.768 1.5146-1.3547 2.496-1.76.9813-.4267 2.1013-.64 3.36-.64 1.3866 0 2.5706.2347 3.552.704 1.0026.4693 1.8133 1.0987 2.432 1.888.64.789 1.0986 1.707 1.376 2.752.2986 1.024.448 2.101.448 3.232v1.408h-10.784v.256c0 1.109.2986 1.995.896 2.656.5973.64 1.536.96 2.816.96.9813 0 1.7813-.192 2.4-.576.6186-.405 1.1946-.885 1.728-1.44l2.368 2.944c-.7467.875-1.728 1.557-2.944 2.048-1.1947.491-2.56.736-4.096.736zm-.096-14.08c-.96 0-1.7174.32-2.272.96-.5334.619-.8 1.451-.8 2.496v.256h5.888v-.288c0-1.024-.2347-1.845-.704-2.464-.448-.64-1.152-.96-2.112-.96zm23.4727 13.696c-.8533 0-1.568-.267-2.144-.8-.5547-.533-.9067-1.248-1.056-2.144h-.192c-.256 1.088-.8213 1.92-1.696 2.496-.8747.555-1.952.832-3.232.832-1.6853 0-2.976-.448-3.872-1.344s-1.344-2.08-1.344-3.552c0-1.771.64-3.083 1.92-3.936 1.3013-.875 3.0613-1.312 5.28-1.312h2.656v-1.056c0-.811-.2133-1.451-.64-1.92-.4267-.491-1.1413-.736-2.144-.736-.9387 0-1.6853.203-2.24.608s-1.0133.864-1.376 1.376l-2.816-2.496c.6827-1.003 1.536-1.7813 2.56-2.336 1.0453-.576 2.4533-.864 4.224-.864 2.3893 0 4.1813.5227 5.376 1.568 1.1947 1.045 1.792 2.571 1.792 4.576v7.36h1.568v3.68zm-6.56-2.912c.7893 0 1.4613-.171 2.016-.512.576-.341.864-.896.864-1.664v-1.984h-2.304c-1.856 0-2.784.629-2.784 1.888v.48c0 .619.192 1.077.576 1.376.384.277.928.416 1.632.416zm12.3628 2.912v-16.8h4.736v3.648h.16c.0853-.469.2346-.917.448-1.344.2133-.448.4906-.8427.832-1.184.3626-.3413.7893-.608 1.28-.8.4906-.2133 1.0666-.32 1.728-.32h.832v4.416h-1.184c-1.3867 0-2.4214.181-3.104.544-.6614.363-.992 1.035-.992 2.016v9.824zm19.5657.384c-1.259 0-2.3792-.203-3.3605-.608-.9813-.427-1.8027-1.013-2.464-1.76-.6613-.768-1.1627-1.696-1.504-2.784s-.512-2.304-.512-3.648.1707-2.549.512-3.616c.3413-1.088.8427-2.016 1.504-2.784s1.4827-1.3547 2.464-1.76 2.1015-.608 3.3605-.608c1.706 0 3.125.384 4.256 1.152 1.152.768 1.973 1.845 2.464 3.232l-3.84 1.664c-.15-.64-.459-1.184-.928-1.632-.47-.448-1.12-.672-1.952-.672-.96 0-1.686.32-2.1765.96-.4907.619-.736 1.461-.736 2.528v3.136c0 1.067.2453 1.909.736 2.528.4905.619 1.2165.928 2.1765.928.853 0 1.525-.224 2.016-.672.512-.469.885-1.077 1.12-1.824l3.68 1.6c-.555 1.6-1.419 2.773-2.592 3.52-1.152.747-2.56 1.12-4.224 1.12zm9.747-24.064h4.736v9.728h.192c.298-.875.821-1.632 1.568-2.272.746-.64 1.781-.96 3.104-.96 1.728 0 3.029.576 3.904 1.728.896 1.152 1.344 2.795 1.344 4.928v10.528h-4.736v-10.144c0-1.088-.171-1.888-.512-2.4-.342-.533-.95-.8-1.824-.8-.384 0-.758.053-1.12.16-.363.085-.694.235-.992.448-.278.213-.502.48-.672.8-.171.299-.256.651-.256 1.056v10.88h-4.736z"/><path d="m29.496 246h-3.648v-16.752h7.944c.768 0 1.464.128 2.088.384s1.152.624 1.584 1.104c.448.464.792 1.024 1.032 1.68s.36 1.384.36 2.184c0 1.136-.256 2.128-.768 2.976-.496.848-1.256 1.464-2.28 1.848l3.288 6.576h-4.056l-2.928-6.144h-2.616zm3.84-9.216c.544 0 .968-.136 1.272-.408.32-.288.48-.704.48-1.248v-1.056c0-.544-.16-.952-.48-1.224-.304-.288-.728-.432-1.272-.432h-3.84v4.368zm13.3963 9.504c-.96 0-1.816-.152-2.568-.456-.752-.32-1.392-.76-1.92-1.32-.512-.576-.904-1.272-1.176-2.088-.256-.816-.384-1.728-.384-2.736 0-.992.128-1.888.384-2.688.256-.816.632-1.512 1.128-2.088.512-.576 1.136-1.016 1.872-1.32.736-.32 1.576-.48 2.52-.48 1.04 0 1.928.176 2.664.528.752.352 1.36.824 1.824 1.416.48.592.824 1.28 1.032 2.064.224.768.336 1.576.336 2.424v1.056h-8.088v.192c0 .832.224 1.496.672 1.992.448.48 1.152.72 2.112.72.736 0 1.336-.144 1.8-.432.464-.304.896-.664 1.296-1.08l1.776 2.208c-.56.656-1.296 1.168-2.208 1.536-.896.368-1.92.552-3.072.552zm-.072-10.56c-.72 0-1.288.24-1.704.72-.4.464-.6 1.088-.6 1.872v.192h4.416v-.216c0-.768-.176-1.384-.528-1.848-.336-.48-.864-.72-1.584-.72zm13.3806 10.56c-.944 0-1.784-.152-2.52-.456-.736-.32-1.352-.76-1.848-1.32-.496-.576-.872-1.272-1.128-2.088s-.384-1.728-.384-2.736.128-1.912.384-2.712c.256-.816.632-1.512 1.128-2.088s1.112-1.016 1.848-1.32 1.576-.456 2.52-.456c1.28 0 2.344.288 3.192.864.864.576 1.48 1.384 1.848 2.424l-2.88 1.248c-.112-.48-.344-.888-.696-1.224s-.84-.504-1.464-.504c-.72 0-1.264.24-1.632.72-.368.464-.552 1.096-.552 1.896v2.352c0 .8.184 1.432.552 1.896s.912.696 1.632.696c.64 0 1.144-.168 1.512-.504.384-.352.664-.808.84-1.368l2.76 1.2c-.416 1.2-1.064 2.08-1.944 2.64-.864.56-1.92.84-3.168.84zm12.4492 0c-.96 0-1.816-.152-2.568-.456-.752-.32-1.392-.76-1.92-1.32-.512-.576-.904-1.272-1.176-2.088-.256-.816-.384-1.728-.384-2.736 0-.992.128-1.888.384-2.688.256-.816.632-1.512 1.128-2.088.512-.576 1.136-1.016 1.872-1.32.736-.32 1.576-.48 2.52-.48 1.04 0 1.928.176 2.664.528.752.352 1.36.824 1.824 1.416.48.592.824 1.28 1.032 2.064.224.768.336 1.576.336 2.424v1.056h-8.088v.192c0 .832.224 1.496.672 1.992.448.48 1.152.72 2.112.72.736 0 1.336-.144 1.8-.432.464-.304.896-.664 1.296-1.08l1.776 2.208c-.56.656-1.296 1.168-2.208 1.536-.896.368-1.92.552-3.072.552zm-.072-10.56c-.72 0-1.288.24-1.704.72-.4.464-.6 1.088-.6 1.872v.192h4.416v-.216c0-.768-.176-1.384-.528-1.848-.336-.48-.864-.72-1.584-.72zm8.2926 10.272v-12.6h3.552v2.136h.144c.224-.656.616-1.224 1.176-1.704s1.336-.72 2.328-.72c1.296 0 2.272.432 2.928 1.296.672.864 1.008 2.096 1.008 3.696v7.896h-3.552v-7.608c0-.816-.128-1.416-.384-1.8-.256-.4-.712-.6-1.368-.6-.288 0-.568.04-.84.12-.272.064-.52.176-.744.336-.208.16-.376.36-.504.6-.128.224-.192.488-.192.792v8.16zm18.7129 0c-1.232 0-2.168-.312-2.808-.936-.624-.624-.936-1.536-.936-2.736v-6.168h-1.776v-2.76h.888c.48 0 .808-.112.984-.336.176-.24.264-.576.264-1.008v-2.064h3.192v3.408h2.4964v2.76h-2.4964v7.08h2.3044v2.76zm14.7154.288c-1.216 0-2.24-.192-3.072-.576-.832-.4-1.576-.96-2.232-1.68l2.088-2.112c.448.496.944.888 1.488 1.176s1.16.432 1.848.432c.704 0 1.192-.104 1.464-.312.272-.224.408-.52.408-.888 0-.592-.424-.944-1.272-1.056l-1.368-.168c-2.832-.352-4.248-1.648-4.248-3.888 0-.608.112-1.16.336-1.656.24-.512.568-.944.984-1.296.432-.368.944-.648 1.536-.84.608-.208 1.288-.312 2.04-.312.656 0 1.232.048 1.728.144.512.08.96.208 1.344.384.4.16.76.368 1.08.624.336.24.664.512.984.816l-2.04 2.088c-.4-.4-.856-.712-1.368-.936-.496-.24-1.008-.36-1.536-.36-.608 0-1.04.096-1.296.288s-.384.448-.384.768c0 .336.088.6.264.792.192.176.544.304 1.056.384l1.416.192c2.768.368 4.152 1.632 4.152 3.792 0 .608-.128 1.168-.384 1.68s-.624.96-1.104 1.344c-.464.368-1.032.656-1.704.864-.656.208-1.392.312-2.208.312zm13.078 0c-.96 0-1.816-.152-2.568-.456-.752-.32-1.392-.76-1.92-1.32-.512-.576-.904-1.272-1.176-2.088-.256-.816-.384-1.728-.384-2.736 0-.992.128-1.888.384-2.688.256-.816.632-1.512 1.128-2.088.512-.576 1.136-1.016 1.872-1.32.736-.32 1.576-.48 2.52-.48 1.04 0 1.928.176 2.664.528.752.352 1.36.824 1.824 1.416.48.592.824 1.28 1.032 2.064.224.768.336 1.576.336 2.424v1.056h-8.088v.192c0 .832.224 1.496.672 1.992.448.48 1.152.72 2.112.72.736 0 1.336-.144 1.8-.432.464-.304.896-.664 1.296-1.08l1.776 2.208c-.56.656-1.296 1.168-2.208 1.536-.896.368-1.92.552-3.072.552zm-.072-10.56c-.72 0-1.288.24-1.704.72-.4.464-.6 1.088-.6 1.872v.192h4.416v-.216c0-.768-.176-1.384-.528-1.848-.336-.48-.864-.72-1.584-.72zm17.604 10.272c-.64 0-1.176-.2-1.608-.6-.416-.4-.68-.936-.792-1.608h-.144c-.192.816-.616 1.44-1.272 1.872-.656.416-1.464.624-2.424.624-1.264 0-2.232-.336-2.904-1.008s-1.008-1.56-1.008-2.664c0-1.328.48-2.312 1.44-2.952.976-.656 2.296-.984 3.96-.984h1.992v-.792c0-.608-.16-1.088-.48-1.44-.32-.368-.856-.552-1.608-.552-.704 0-1.264.152-1.68.456s-.76.648-1.032 1.032l-2.112-1.872c.512-.752 1.152-1.336 1.92-1.752.784-.432 1.84-.648 3.168-.648 1.792 0 3.136.392 4.032 1.176s1.344 1.928 1.344 3.432v5.52h1.176v2.76zm-4.92-2.184c.592 0 1.096-.128 1.512-.384.432-.256.648-.672.648-1.248v-1.488h-1.728c-1.392 0-2.088.472-2.088 1.416v.36c0 .464.144.808.432 1.032.288.208.696.312 1.224.312zm9.272 2.184v-12.6h3.552v2.736h.12c.064-.352.176-.688.336-1.008.16-.336.368-.632.624-.888.272-.256.592-.456.96-.6.368-.16.8-.24 1.296-.24h.624v3.312h-.888c-1.04 0-1.816.136-2.328.408-.496.272-.744.776-.744 1.512v7.368zm14.674.288c-.944 0-1.784-.152-2.52-.456-.736-.32-1.352-.76-1.848-1.32-.496-.576-.872-1.272-1.128-2.088s-.384-1.728-.384-2.736.128-1.912.384-2.712c.256-.816.632-1.512 1.128-2.088s1.112-1.016 1.848-1.32 1.576-.456 2.52-.456c1.28 0 2.344.288 3.192.864.864.576 1.48 1.384 1.848 2.424l-2.88 1.248c-.112-.48-.344-.888-.696-1.224s-.84-.504-1.464-.504c-.72 0-1.264.24-1.632.72-.368.464-.552 1.096-.552 1.896v2.352c0 .8.184 1.432.552 1.896s.912.696 1.632.696c.64 0 1.144-.168 1.512-.504.384-.352.664-.808.84-1.368l2.76 1.2c-.416 1.2-1.064 2.08-1.944 2.64-.864.56-1.92.84-3.168.84zm7.311-18.048h3.552v7.296h.144c.224-.656.616-1.224 1.176-1.704s1.336-.72 2.328-.72c1.296 0 2.272.432 2.928 1.296.672.864 1.008 2.096 1.008 3.696v7.896h-3.552v-7.608c0-.816-.128-1.416-.384-1.8-.256-.4-.712-.6-1.368-.6-.288 0-.568.04-.84.12-.272.064-.52.176-.744.336-.208.16-.376.36-.504.6-.128.224-.192.488-.192.792v8.16h-3.552zm19.553 18.048c-.96 0-1.816-.152-2.568-.456-.752-.32-1.392-.76-1.92-1.32-.512-.576-.904-1.272-1.176-2.088-.256-.816-.384-1.728-.384-2.736 0-.992.128-1.888.384-2.688.256-.816.632-1.512 1.128-2.088.512-.576 1.136-1.016 1.872-1.32.736-.32 1.576-.48 2.52-.48 1.04 0 1.928.176 2.664.528.752.352 1.36.824 1.824 1.416.48.592.824 1.28 1.032 2.064.224.768.336 1.576.336 2.424v1.056h-8.088v.192c0 .832.224 1.496.672 1.992.448.48 1.152.72 2.112.72.736 0 1.336-.144 1.8-.432.464-.304.896-.664 1.296-1.08l1.776 2.208c-.56.656-1.296 1.168-2.208 1.536-.896.368-1.92.552-3.072.552zm-.072-10.56c-.72 0-1.288.24-1.704.72-.4.464-.6 1.088-.6 1.872v.192h4.416v-.216c0-.768-.176-1.384-.528-1.848-.336-.48-.864-.72-1.584-.72zm12.564 10.56c-1.216 0-2.24-.192-3.072-.576-.832-.4-1.576-.96-2.232-1.68l2.088-2.112c.448.496.944.888 1.488 1.176s1.16.432 1.848.432c.704 0 1.192-.104 1.464-.312.272-.224.408-.52.408-.888 0-.592-.424-.944-1.272-1.056l-1.368-.168c-2.832-.352-4.248-1.648-4.248-3.888 0-.608.112-1.16.336-1.656.24-.512.568-.944.984-1.296.432-.368.944-.648 1.536-.84.608-.208 1.288-.312 2.04-.312.656 0 1.232.048 1.728.144.512.08.96.208 1.344.384.4.16.76.368 1.08.624.336.24.664.512.984.816l-2.04 2.088c-.4-.4-.856-.712-1.368-.936-.496-.24-1.008-.36-1.536-.36-.608 0-1.04.096-1.296.288s-.384.448-.384.768c0 .336.088.6.264.792.192.176.544.304 1.056.384l1.416.192c2.768.368 4.152 1.632 4.152 3.792 0 .608-.128 1.168-.384 1.68s-.624.96-1.104 1.344c-.464.368-1.032.656-1.704.864-.656.208-1.392.312-2.208.312z"/><path d="m33.252 288-1.008-3.204h-4.464l-.99 3.204h-2.412l4.212-12.564h2.952l4.176 12.564zm-3.204-10.404h-.09l-1.602 5.166h3.312zm9.6818 10.404c-.792 0-1.374-.198-1.746-.594s-.558-.954-.558-1.674v-11.052h2.304v11.484h1.242v1.836zm5.1679 0c-.792 0-1.374-.198-1.746-.594s-.558-.954-.558-1.674v-11.052h2.304v11.484h1.242v1.836zm6.785.216c-.696 0-1.32-.114-1.872-.342-.54-.24-1.002-.57-1.386-.99-.372-.432-.66-.948-.864-1.548-.204-.612-.306-1.296-.306-2.052 0-.744.096-1.416.288-2.016.204-.6.492-1.11.864-1.53.372-.432.828-.762 1.368-.99.54-.24 1.152-.36 1.836-.36.732 0 1.368.126 1.908.378s.984.594 1.332 1.026.606.936.774 1.512c.18.564.27 1.17.27 1.818v.756h-6.246v.234c0 .684.192 1.236.576 1.656.384.408.954.612 1.71.612.576 0 1.044-.12 1.404-.36.372-.24.702-.546.99-.918l1.242 1.386c-.384.54-.912.966-1.584 1.278-.66.3-1.428.45-2.304.45zm-.036-8.1c-.612 0-1.098.204-1.458.612s-.54.936-.54 1.584v.144h3.852v-.162c0-.648-.162-1.17-.486-1.566-.312-.408-.768-.612-1.368-.612zm9.3531 8.1c-.9 0-1.656-.15-2.268-.45-.612-.312-1.152-.738-1.62-1.278l1.404-1.368c.348.396.726.708 1.134.936.42.228.9.342 1.44.342.552 0 .948-.096 1.188-.288.252-.192.378-.456.378-.792 0-.276-.09-.492-.27-.648-.168-.168-.462-.282-.882-.342l-.936-.126c-1.02-.132-1.8-.42-2.34-.864-.528-.456-.792-1.116-.792-1.98 0-.456.084-.864.252-1.224.168-.372.408-.684.72-.936.312-.264.684-.462 1.116-.594.444-.144.936-.216 1.476-.216.456 0 .858.036 1.206.108.36.06.684.156.972.288.288.12.552.276.792.468.24.18.474.384.702.612l-1.35 1.35c-.276-.288-.606-.528-.99-.72s-.804-.288-1.26-.288c-.504 0-.87.09-1.098.27-.216.18-.324.414-.324.702 0 .312.09.552.27.72.192.156.51.27.954.342l.954.126c2.028.288 3.042 1.212 3.042 2.772 0 .456-.096.876-.288 1.26-.18.372-.438.696-.774.972-.336.264-.744.474-1.224.63-.468.144-.996.216-1.584.216zm11.3104-10.98c-.48 0-.828-.108-1.044-.324-.204-.216-.306-.492-.306-.828v-.36c0-.336.102-.612.306-.828.216-.216.564-.324 1.044-.324.468 0 .81.108 1.026.324s.324.492.324.828v.36c0 .336-.108.612-.324.828s-.558.324-1.026.324zm-1.152 1.368h2.304v9.396h-2.304zm8.0526 9.612c-.9 0-1.656-.15-2.268-.45-.612-.312-1.152-.738-1.62-1.278l1.404-1.368c.348.396.726.708 1.134.936.42.228.9.342 1.44.342.552 0 .948-.096 1.188-.288.252-.192.378-.456.378-.792 0-.276-.09-.492-.27-.648-.168-.168-.462-.282-.882-.342l-.936-.126c-1.02-.132-1.8-.42-2.34-.864-.528-.456-.792-1.116-.792-1.98 0-.456.084-.864.252-1.224.168-.372.408-.684.72-.936.312-.264.684-.462 1.116-.594.444-.144.936-.216 1.476-.216.456 0 .858.036 1.206.108.36.06.684.156.972.288.288.12.552.276.792.468.24.18.474.384.702.612l-1.35 1.35c-.276-.288-.606-.528-.99-.72s-.804-.288-1.26-.288c-.504 0-.87.09-1.098.27-.216.18-.324.414-.324.702 0 .312.09.552.27.72.192.156.51.27.954.342l.954.126c2.028.288 3.042 1.212 3.042 2.772 0 .456-.096.876-.288 1.26-.18.372-.438.696-.774.972-.336.264-.744.474-1.224.63-.468.144-.996.216-1.584.216zm18.6363.576c0 .492-.09.924-.27 1.296-.168.384-.45.702-.846.954s-.906.444-1.53.576-1.386.198-2.286.198c-.792 0-1.464-.054-2.016-.162-.552-.096-1.008-.24-1.368-.432-.348-.18-.6-.408-.756-.684s-.234-.588-.234-.936c0-.528.144-.942.432-1.242.3-.288.714-.474 1.242-.558v-.198c-.384-.096-.684-.282-.9-.558-.204-.288-.306-.624-.306-1.008 0-.24.048-.45.144-.63.096-.192.222-.354.378-.486.168-.132.354-.24.558-.324.204-.096.42-.168.648-.216v-.072c-.576-.264-1.008-.63-1.296-1.098-.276-.468-.414-1.014-.414-1.638 0-.96.33-1.728.99-2.304.66-.588 1.626-.882 2.898-.882.288 0 .57.018.846.054.288.036.552.096.792.18v-.306c0-.912.444-1.368 1.332-1.368h1.458v1.764h-1.998v.252c.492.276.858.636 1.098 1.08s.36.954.36 1.53c0 .948-.33 1.71-.99 2.286-.648.576-1.614.864-2.898.864-.552 0-1.032-.054-1.44-.162-.18.084-.336.198-.468.342-.132.132-.198.3-.198.504 0 .468.408.702 1.224.702h2.52c1.152 0 1.986.24 2.502.72.528.468.792 1.122.792 1.962zm-2.16.27c0-.3-.12-.534-.36-.702s-.654-.252-1.242-.252h-3.204c-.324.24-.486.564-.486.972 0 .36.15.642.45.846s.81.306 1.53.306h1.152c.756 0 1.302-.096 1.638-.288.348-.192.522-.486.522-.882zm-2.772-5.904c1.128 0 1.692-.48 1.692-1.44v-.306c0-.96-.564-1.44-1.692-1.44s-1.692.48-1.692 1.44v.306c0 .96.564 1.44 1.692 1.44zm9.9549 5.058c-.696 0-1.32-.114-1.872-.342-.54-.24-1.0018-.57-1.3858-.99-.372-.432-.66-.948-.864-1.548-.204-.612-.306-1.296-.306-2.052 0-.744.096-1.416.288-2.016.204-.6.492-1.11.864-1.53.372-.432.8278-.762 1.3678-.99.54-.24 1.152-.36 1.836-.36.732 0 1.368.126 1.908.378s.984.594 1.332 1.026.606.936.774 1.512c.18.564.27 1.17.27 1.818v.756h-6.246v.234c0 .684.192 1.236.576 1.656.384.408.954.612 1.71.612.576 0 1.044-.12 1.404-.36.372-.24.702-.546.99-.918l1.242 1.386c-.384.54-.912.966-1.584 1.278-.66.3-1.428.45-2.304.45zm-.036-8.1c-.612 0-1.098.204-1.458.612s-.54.936-.54 1.584v.144h3.852v-.162c0-.648-.162-1.17-.486-1.566-.312-.408-.768-.612-1.368-.612zm5.521 7.884v-1.836l4.878-5.742h-4.716v-1.818h7.416v1.782l-4.914 5.778h5.04v1.836zm13.306.216c-.696 0-1.32-.114-1.872-.342-.54-.24-1.002-.57-1.386-.99-.372-.432-.66-.948-.864-1.548-.204-.612-.306-1.296-.306-2.052 0-.744.096-1.416.288-2.016.204-.6.492-1.11.864-1.53.372-.432.828-.762 1.368-.99.54-.24 1.152-.36 1.836-.36.732 0 1.368.126 1.908.378s.984.594 1.332 1.026.606.936.774 1.512c.18.564.27 1.17.27 1.818v.756h-6.246v.234c0 .684.192 1.236.576 1.656.384.408.954.612 1.71.612.576 0 1.044-.12 1.404-.36.372-.24.702-.546.99-.918l1.242 1.386c-.384.54-.912.966-1.584 1.278-.66.3-1.428.45-2.304.45zm-.036-8.1c-.612 0-1.098.204-1.458.612s-.54.936-.54 1.584v.144h3.852v-.162c0-.648-.162-1.17-.486-1.566-.312-.408-.768-.612-1.368-.612zm14.753 8.676c0 .492-.09.924-.27 1.296-.168.384-.45.702-.846.954s-.906.444-1.53.576-1.386.198-2.286.198c-.792 0-1.464-.054-2.016-.162-.552-.096-1.008-.24-1.368-.432-.348-.18-.6-.408-.756-.684s-.234-.588-.234-.936c0-.528.144-.942.432-1.242.3-.288.714-.474 1.242-.558v-.198c-.384-.096-.684-.282-.9-.558-.204-.288-.306-.624-.306-1.008 0-.24.048-.45.144-.63.096-.192.222-.354.378-.486.168-.132.354-.24.558-.324.204-.096.42-.168.648-.216v-.072c-.576-.264-1.008-.63-1.296-1.098-.276-.468-.414-1.014-.414-1.638 0-.96.33-1.728.99-2.304.66-.588 1.626-.882 2.898-.882.288 0 .57.018.846.054.288.036.552.096.792.18v-.306c0-.912.444-1.368 1.332-1.368h1.458v1.764h-1.998v.252c.492.276.858.636 1.098 1.08s.36.954.36 1.53c0 .948-.33 1.71-.99 2.286-.648.576-1.614.864-2.898.864-.552 0-1.032-.054-1.44-.162-.18.084-.336.198-.468.342-.132.132-.198.3-.198.504 0 .468.408.702 1.224.702h2.52c1.152 0 1.986.24 2.502.72.528.468.792 1.122.792 1.962zm-2.16.27c0-.3-.12-.534-.36-.702s-.654-.252-1.242-.252h-3.204c-.324.24-.486.564-.486.972 0 .36.15.642.45.846s.81.306 1.53.306h1.152c.756 0 1.302-.096 1.638-.288.348-.192.522-.486.522-.882zm-2.772-5.904c1.128 0 1.692-.48 1.692-1.44v-.306c0-.96-.564-1.44-1.692-1.44s-1.692.48-1.692 1.44v.306c0 .96.564 1.44 1.692 1.44zm9.955 5.058c-.696 0-1.32-.114-1.872-.342-.54-.24-1.002-.57-1.386-.99-.372-.432-.66-.948-.864-1.548-.204-.612-.306-1.296-.306-2.052 0-.744.096-1.416.288-2.016.204-.6.492-1.11.864-1.53.372-.432.828-.762 1.368-.99.54-.24 1.152-.36 1.836-.36.732 0 1.368.126 1.908.378s.984.594 1.332 1.026.606.936.774 1.512c.18.564.27 1.17.27 1.818v.756h-6.246v.234c0 .684.192 1.236.576 1.656.384.408.954.612 1.71.612.576 0 1.044-.12 1.404-.36.372-.24.702-.546.99-.918l1.242 1.386c-.384.54-.912.966-1.584 1.278-.66.3-1.428.45-2.304.45zm-.036-8.1c-.612 0-1.098.204-1.458.612s-.54.936-.54 1.584v.144h3.852v-.162c0-.648-.162-1.17-.486-1.566-.312-.408-.768-.612-1.368-.612zm6.276 7.884v-9.396h2.304v1.566h.09c.192-.504.492-.924.9-1.26.42-.348.996-.522 1.728-.522.972 0 1.716.318 2.232.954s.774 1.542.774 2.718v5.94h-2.304v-5.706c0-.672-.12-1.176-.36-1.512s-.636-.504-1.188-.504c-.24 0-.474.036-.702.108-.216.06-.414.156-.594.288-.168.12-.306.276-.414.468-.108.18-.162.396-.162.648v6.21zm16.414-1.566h-.09c-.168.54-.486.972-.954 1.296s-1.014.486-1.638.486c-1.188 0-2.1-.426-2.736-1.278-.624-.852-.936-2.07-.936-3.654 0-1.572.312-2.778.936-3.618.636-.852 1.548-1.278 2.736-1.278.624 0 1.17.162 1.638.486.468.312.786.738.954 1.278h.09v-5.472h2.304v13.32h-2.304zm-1.944-.126c.552 0 1.014-.132 1.386-.396s.558-.642.558-1.134v-2.988c0-.456-.186-.822-.558-1.098s-.834-.414-1.386-.414c-.6 0-1.086.204-1.458.612-.36.396-.54.93-.54 1.602v1.62c0 .672.18 1.206.54 1.602.372.396.858.594 1.458.594z"/><path d="m25.476 327v-12.564h8.28v2.106h-5.904v3.042h5.22v2.106h-5.22v3.204h5.904v2.106zm12.665 0-3.132-9.396h2.268l1.314 4.05.918 3.348h.126l.918-3.348 1.278-4.05h2.196l-3.15 9.396zm8.5754-10.764c-.48 0-.828-.108-1.044-.324-.204-.216-.306-.492-.306-.828v-.36c0-.336.102-.612.306-.828.216-.216.564-.324 1.044-.324.468 0 .81.108 1.026.324s.324.492.324.828v.36c0 .336-.108.612-.324.828s-.558.324-1.026.324zm-1.152 1.368h2.304v9.396h-2.304zm10.8066 7.83h-.09c-.168.54-.486.972-.954 1.296s-1.014.486-1.638.486c-1.188 0-2.1-.426-2.736-1.278-.624-.852-.936-2.07-.936-3.654 0-1.572.312-2.778.936-3.618.636-.852 1.548-1.278 2.736-1.278.624 0 1.17.162 1.638.486.468.312.786.738.954 1.278h.09v-5.472h2.304v13.32h-2.304zm-1.944-.126c.552 0 1.014-.132 1.386-.396s.558-.642.558-1.134v-2.988c0-.456-.186-.822-.558-1.098s-.834-.414-1.386-.414c-.6 0-1.086.204-1.458.612-.36.396-.54.93-.54 1.602v1.62c0 .672.18 1.206.54 1.602.372.396.858.594 1.458.594zm10.703 1.908c-.696 0-1.32-.114-1.872-.342-.54-.24-1.002-.57-1.386-.99-.372-.432-.66-.948-.864-1.548-.204-.612-.306-1.296-.306-2.052 0-.744.096-1.416.288-2.016.204-.6.492-1.11.864-1.53.372-.432.828-.762 1.368-.99.54-.24 1.152-.36 1.836-.36.732 0 1.368.126 1.908.378s.984.594 1.332 1.026.606.936.774 1.512c.18.564.27 1.17.27 1.818v.756h-6.246v.234c0 .684.192 1.236.576 1.656.384.408.954.612 1.71.612.576 0 1.044-.12 1.404-.36.372-.24.702-.546.99-.918l1.242 1.386c-.384.54-.912.966-1.584 1.278-.66.3-1.428.45-2.304.45zm-.036-8.1c-.612 0-1.098.204-1.458.612s-.54.936-.54 1.584v.144h3.852v-.162c0-.648-.162-1.17-.486-1.566-.312-.408-.768-.612-1.368-.612zm6.2751 7.884v-9.396h2.304v1.566h.09c.192-.504.492-.924.9-1.26.42-.348.996-.522 1.728-.522.972 0 1.716.318 2.232.954s.774 1.542.774 2.718v5.94h-2.304v-5.706c0-.672-.12-1.176-.36-1.512s-.636-.504-1.188-.504c-.24 0-.474.036-.702.108-.216.06-.414.156-.594.288-.168.12-.306.276-.414.468-.108.18-.162.396-.162.648v6.21zm14.29.216c-.696 0-1.314-.114-1.854-.342s-.996-.558-1.368-.99c-.36-.432-.636-.948-.828-1.548-.192-.612-.288-1.296-.288-2.052s.096-1.434.288-2.034.468-1.11.828-1.53c.372-.432.828-.762 1.368-.99s1.158-.342 1.854-.342c.948 0 1.728.21 2.34.63.624.42 1.074 1.002 1.35 1.746l-1.89.846c-.108-.396-.312-.72-.612-.972-.288-.264-.684-.396-1.188-.396-.648 0-1.134.204-1.458.612-.312.408-.468.942-.468 1.602v1.71c0 .66.156 1.194.468 1.602.324.396.81.594 1.458.594.552 0 .978-.138 1.278-.414.3-.288.534-.642.702-1.062l1.764.846c-.312.828-.786 1.452-1.422 1.872-.636.408-1.41.612-2.322.612zm9.2307 0c-.696 0-1.32-.114-1.872-.342-.54-.24-1.002-.57-1.386-.99-.372-.432-.66-.948-.864-1.548-.204-.612-.306-1.296-.306-2.052 0-.744.096-1.416.288-2.016.204-.6.492-1.11.864-1.53.372-.432.828-.762 1.368-.99.54-.24 1.152-.36 1.836-.36.732 0 1.368.126 1.908.378s.984.594 1.332 1.026.606.936.774 1.512c.18.564.27 1.17.27 1.818v.756h-6.246v.234c0 .684.192 1.236.576 1.656.384.408.954.612 1.71.612.576 0 1.044-.12 1.404-.36.372-.24.702-.546.99-.918l1.242 1.386c-.384.54-.912.966-1.584 1.278-.66.3-1.428.45-2.304.45zm-.036-8.1c-.612 0-1.098.204-1.458.612s-.54.936-.54 1.584v.144h3.852v-.162c0-.648-.162-1.17-.486-1.566-.312-.408-.768-.612-1.368-.612z"/><path d="m29.382 367.216c-1.08 0-1.998-.192-2.754-.576-.744-.384-1.386-.888-1.926-1.512l1.602-1.548c.432.504.912.888 1.44 1.152.54.264 1.134.396 1.782.396.732 0 1.284-.156 1.656-.468.372-.324.558-.756.558-1.296 0-.42-.12-.762-.36-1.026s-.69-.456-1.35-.576l-1.188-.18c-2.508-.396-3.762-1.614-3.762-3.654 0-.564.102-1.074.306-1.53.216-.456.522-.846.918-1.17s.87-.57 1.422-.738c.564-.18 1.2-.27 1.908-.27.948 0 1.776.156 2.484.468s1.314.774 1.818 1.386l-1.62 1.53c-.312-.384-.69-.696-1.134-.936s-1.002-.36-1.674-.36c-.684 0-1.2.132-1.548.396-.336.252-.504.612-.504 1.08 0 .48.138.834.414 1.062s.72.396 1.332.504l1.17.216c1.272.228 2.208.636 2.808 1.224.612.576.918 1.386.918 2.43 0 .6-.108 1.146-.324 1.638-.204.48-.51.9-.918 1.26-.396.348-.888.618-1.476.81-.576.192-1.242.288-1.998.288zm13.8659-.216c-.504 0-.906-.144-1.206-.432-.288-.3-.468-.696-.54-1.188h-.108c-.156.612-.474 1.074-.954 1.386-.48.3-1.074.45-1.782.45-.96 0-1.698-.252-2.214-.756s-.774-1.176-.774-2.016c0-.972.348-1.692 1.044-2.16.696-.48 1.686-.72 2.97-.72h1.602v-.684c0-.528-.138-.936-.414-1.224s-.72-.432-1.332-.432c-.54 0-.978.12-1.314.36-.324.228-.6.504-.828.828l-1.368-1.224c.348-.54.81-.972 1.386-1.296.576-.336 1.338-.504 2.286-.504 1.272 0 2.238.288 2.898.864s.99 1.404.99 2.484v4.428h.936v1.836zm-3.816-1.458c.516 0 .954-.114 1.314-.342s.54-.564.54-1.008v-1.242h-1.476c-1.2 0-1.8.384-1.8 1.152v.306c0 .384.12.672.36.864.252.18.606.27 1.062.27zm6.9587 1.458v-9.396h2.304v1.566h.09c.18-.492.468-.912.864-1.26s.948-.522 1.656-.522c.648 0 1.206.156 1.674.468s.816.786 1.044 1.422h.036c.168-.528.498-.972.99-1.332.504-.372 1.134-.558 1.89-.558.924 0 1.632.318 2.124.954.504.636.756 1.542.756 2.718v5.94h-2.304v-5.706c0-1.344-.504-2.016-1.512-2.016-.228 0-.45.036-.666.108-.204.06-.39.156-.558.288-.156.12-.282.276-.378.468-.096.18-.144.396-.144.648v6.21h-2.304v-5.706c0-1.344-.504-2.016-1.512-2.016-.216 0-.432.036-.648.108-.204.06-.39.156-.558.288-.156.12-.288.276-.396.468-.096.18-.144.396-.144.648v6.21zm19.7765.216c-.696 0-1.32-.114-1.872-.342-.54-.24-1.002-.57-1.386-.99-.372-.432-.66-.948-.864-1.548-.204-.612-.306-1.296-.306-2.052 0-.744.096-1.416.288-2.016.204-.6.492-1.11.864-1.53.372-.432.828-.762 1.368-.99.54-.24 1.152-.36 1.836-.36.732 0 1.368.126 1.908.378s.984.594 1.332 1.026.606.936.774 1.512c.18.564.27 1.17.27 1.818v.756h-6.246v.234c0 .684.192 1.236.576 1.656.384.408.954.612 1.71.612.576 0 1.044-.12 1.404-.36.372-.24.702-.546.99-.918l1.242 1.386c-.384.54-.912.966-1.584 1.278-.66.3-1.428.45-2.304.45zm-.036-8.1c-.612 0-1.098.204-1.458.612s-.54.936-.54 1.584v.144h3.852v-.162c0-.648-.162-1.17-.486-1.566-.312-.408-.768-.612-1.368-.612zm14.255 8.1c-.672 0-1.278-.114-1.818-.342-.528-.228-.984-.558-1.368-.99-.372-.432-.66-.948-.864-1.548-.204-.612-.306-1.296-.306-2.052s.102-1.434.306-2.034.492-1.11.864-1.53c.384-.432.84-.762 1.368-.99.54-.228 1.146-.342 1.818-.342s1.278.114 1.818.342.996.558 1.368.99c.384.42.678.93.882 1.53s.306 1.278.306 2.034-.102 1.44-.306 2.052c-.204.6-.498 1.116-.882 1.548-.372.432-.828.762-1.368.99s-1.146.342-1.818.342zm0-1.854c.612 0 1.092-.186 1.44-.558s.522-.918.522-1.638v-1.746c0-.708-.174-1.248-.522-1.62s-.828-.558-1.44-.558c-.6 0-1.074.186-1.422.558s-.522.912-.522 1.62v1.746c0 .72.174 1.266.522 1.638s.822.558 1.422.558zm8.7206 1.638c-.792 0-1.374-.198-1.746-.594s-.558-.954-.558-1.674v-11.052h2.304v11.484h1.242v1.836zm8.819-1.566h-.09c-.168.54-.486.972-.954 1.296s-1.014.486-1.638.486c-1.188 0-2.1-.426-2.736-1.278-.624-.852-.936-2.07-.936-3.654 0-1.572.312-2.778.936-3.618.636-.852 1.548-1.278 2.736-1.278.624 0 1.17.162 1.638.486.468.312.786.738.954 1.278h.09v-5.472h2.3043v13.32h-2.3043zm-1.944-.126c.552 0 1.014-.132 1.386-.396s.558-.642.558-1.134v-2.988c0-.456-.186-.822-.558-1.098s-.834-.414-1.386-.414c-.6 0-1.086.204-1.458.612-.36.396-.54.93-.54 1.602v1.62c0 .672.18 1.206.54 1.602.372.396.858.594 1.458.594z"/><path d="m34.962 397.982h-.072l-.972 1.998-2.574 4.752-2.574-4.752-.972-1.998h-.072v9.018h-2.25v-12.564h2.682l3.222 6.138h.072l3.186-6.138h2.574v12.564h-2.25zm8.7913 9.234c-.672 0-1.278-.114-1.818-.342-.528-.228-.984-.558-1.368-.99-.372-.432-.66-.948-.864-1.548-.204-.612-.306-1.296-.306-2.052s.102-1.434.306-2.034.492-1.11.864-1.53c.384-.432.84-.762 1.368-.99.54-.228 1.146-.342 1.818-.342s1.278.114 1.818.342.996.558 1.368.99c.384.42.678.93.882 1.53s.306 1.278.306 2.034-.102 1.44-.306 2.052c-.204.6-.498 1.116-.882 1.548-.372.432-.828.762-1.368.99s-1.146.342-1.818.342zm0-1.854c.612 0 1.092-.186 1.44-.558s.522-.918.522-1.638v-1.746c0-.708-.174-1.248-.522-1.62s-.828-.558-1.44-.558c-.6 0-1.074.186-1.422.558s-.522.912-.522 1.62v1.746c0 .72.174 1.266.522 1.638s.822.558 1.422.558zm6.4166-7.758h2.304v10.53c0 .792-.198 1.398-.594 1.818-.396.432-1.026.648-1.89.648h-1.26v-1.836h1.44zm1.152-1.368c-.48 0-.828-.108-1.044-.324-.204-.216-.306-.492-.306-.828v-.36c0-.336.102-.612.306-.828.216-.216.564-.324 1.044-.324.468 0 .81.108 1.026.324s.324.492.324.828v.36c0 .336-.108.612-.324.828s-.558.324-1.026.324zm7.5486 10.98c-.672 0-1.278-.114-1.818-.342-.528-.228-.984-.558-1.368-.99-.372-.432-.66-.948-.864-1.548-.204-.612-.306-1.296-.306-2.052s.102-1.434.306-2.034.492-1.11.864-1.53c.384-.432.84-.762 1.368-.99.54-.228 1.146-.342 1.818-.342s1.278.114 1.818.342.996.558 1.368.99c.384.42.678.93.882 1.53s.306 1.278.306 2.034-.102 1.44-.306 2.052c-.204.6-.498 1.116-.882 1.548-.372.432-.828.762-1.368.99s-1.146.342-1.818.342zm0-1.854c.612 0 1.092-.186 1.44-.558s.522-.918.522-1.638v-1.746c0-.708-.174-1.248-.522-1.62s-.828-.558-1.44-.558c-.6 0-1.074.186-1.422.558s-.522.912-.522 1.62v1.746c0 .72.174 1.266.522 1.638s.822.558 1.422.558zm13.7485 1.854c-.9 0-1.656-.15-2.268-.45-.612-.312-1.152-.738-1.62-1.278l1.404-1.368c.348.396.726.708 1.134.936.42.228.9.342 1.44.342.552 0 .948-.096 1.188-.288.252-.192.378-.456.378-.792 0-.276-.09-.492-.27-.648-.168-.168-.462-.282-.882-.342l-.936-.126c-1.02-.132-1.8-.42-2.34-.864-.528-.456-.792-1.116-.792-1.98 0-.456.084-.864.252-1.224.168-.372.408-.684.72-.936.312-.264.684-.462 1.116-.594.444-.144.936-.216 1.476-.216.456 0 .858.036 1.206.108.36.06.684.156.972.288.288.12.552.276.792.468.24.18.474.384.702.612l-1.35 1.35c-.276-.288-.606-.528-.99-.72s-.804-.288-1.26-.288c-.504 0-.87.09-1.098.27-.216.18-.324.414-.324.702 0 .312.09.552.27.72.192.156.51.27.954.342l.954.126c2.028.288 3.042 1.212 3.042 2.772 0 .456-.096.876-.288 1.26-.18.372-.438.696-.774.972-.336.264-.744.474-1.224.63-.468.144-.996.216-1.584.216zm9.6304 0c-.672 0-1.278-.114-1.818-.342-.528-.228-.984-.558-1.368-.99-.372-.432-.66-.948-.864-1.548-.204-.612-.306-1.296-.306-2.052s.102-1.434.306-2.034.492-1.11.864-1.53c.384-.432.84-.762 1.368-.99.54-.228 1.146-.342 1.818-.342s1.278.114 1.818.342.996.558 1.368.99c.384.42.678.93.882 1.53s.306 1.278.306 2.034-.102 1.44-.306 2.052c-.204.6-.498 1.116-.882 1.548-.372.432-.828.762-1.368.99s-1.146.342-1.818.342zm0-1.854c.612 0 1.092-.186 1.44-.558s.522-.918.522-1.638v-1.746c0-.708-.174-1.248-.522-1.62s-.828-.558-1.44-.558c-.6 0-1.074.186-1.422.558s-.522.912-.522 1.62v1.746c0 .72.174 1.266.522 1.638s.822.558 1.422.558zm16.5025.072h-.09c-.168.54-.486.972-.954 1.296s-1.014.486-1.638.486c-1.188 0-2.1-.426-2.736-1.278-.624-.852-.936-2.07-.936-3.654 0-1.572.312-2.778.936-3.618.636-.852 1.548-1.278 2.736-1.278.624 0 1.17.162 1.638.486.468.312.786.738.954 1.278h.09v-5.472h2.3041v13.32h-2.3041zm-1.944-.126c.552 0 1.014-.132 1.386-.396s.558-.642.558-1.134v-2.988c0-.456-.186-.822-.558-1.098s-.834-.414-1.386-.414c-.6 0-1.086.204-1.458.612-.36.396-.54.93-.54 1.602v1.62c0 .672.18 1.206.54 1.602.372.396.858.594 1.458.594zm10.6311 1.908c-.672 0-1.278-.114-1.818-.342-.528-.228-.984-.558-1.368-.99-.372-.432-.66-.948-.864-1.548-.204-.612-.306-1.296-.306-2.052s.102-1.434.306-2.034.492-1.11.864-1.53c.384-.432.84-.762 1.368-.99.54-.228 1.146-.342 1.818-.342s1.278.114 1.818.342.996.558 1.368.99c.384.42.678.93.882 1.53s.306 1.278.306 2.034-.102 1.44-.306 2.052c-.204.6-.498 1.116-.882 1.548-.372.432-.828.762-1.368.99s-1.146.342-1.818.342zm0-1.854c.612 0 1.092-.186 1.44-.558s.522-.918.522-1.638v-1.746c0-.708-.174-1.248-.522-1.62s-.828-.558-1.44-.558c-.6 0-1.074.186-1.422.558s-.522.912-.522 1.62v1.746c0 .72.174 1.266.522 1.638s.822.558 1.422.558zm6.416-7.758h2.304v1.548h.072c.168-.54.486-.966.954-1.278.468-.324 1.014-.486 1.638-.486 1.2 0 2.112.426 2.736 1.278.636.84.954 2.046.954 3.618 0 1.584-.318 2.802-.954 3.654-.624.852-1.536 1.278-2.736 1.278-.624 0-1.17-.162-1.638-.486-.456-.324-.774-.756-.954-1.296h-.072v5.166h-2.304zm4.23 7.704c.6 0 1.086-.198 1.458-.594s.558-.93.558-1.602v-1.62c0-.672-.186-1.206-.558-1.602-.372-.408-.858-.612-1.458-.612-.552 0-1.014.138-1.386.414-.36.276-.54.642-.54 1.098v2.988c0 .492.18.87.54 1.134.372.264.834.396 1.386.396zm10.361 1.908c-.696 0-1.32-.114-1.872-.342-.54-.24-1.002-.57-1.386-.99-.372-.432-.66-.948-.864-1.548-.204-.612-.306-1.296-.306-2.052 0-.744.096-1.416.288-2.016.204-.6.492-1.11.864-1.53.372-.432.828-.762 1.368-.99.54-.24 1.152-.36 1.836-.36.732 0 1.368.126 1.908.378s.984.594 1.332 1.026.606.936.774 1.512c.18.564.27 1.17.27 1.818v.756h-6.246v.234c0 .684.192 1.236.576 1.656.384.408.954.612 1.71.612.576 0 1.044-.12 1.404-.36.372-.24.702-.546.99-.918l1.242 1.386c-.384.54-.912.966-1.584 1.278-.66.3-1.428.45-2.304.45zm-.036-8.1c-.612 0-1.098.204-1.458.612s-.54.936-.54 1.584v.144h3.852v-.162c0-.648-.162-1.17-.486-1.566-.312-.408-.768-.612-1.368-.612z"/></g><path d="m25 147h343v50h-343z" stroke="#000" stroke-width="2"/><path clip-rule="evenodd" d="m53.9056 177.32c-1.3546 1.053-3.0569 1.68-4.9056 1.68-4.4183 0-8-3.582-8-8s3.5817-8 8-8 8 3.582 8 8c0 1.849-.6271 3.551-1.6801 4.906l3.3872 3.387c.3905.39.3905 1.024 0 1.414-.3905.391-1.0237.391-1.4142 0zm1.0944-6.32c0 3.314-2.6863 6-6 6s-6-2.686-6-6 2.6863-6 6-6 6 2.686 6 6z" fill="#200122" fill-rule="evenodd"/><rect fill="#ff5f5f" height="24" rx="1" width="2" x="74" y="160"/><path d="m0 0h393v87h-393z" fill="url(#c)" fill-opacity=".5" transform="translate(0 765)"/><g filter="url(#a)"><path d="m0 0h414v87h-414z" fill="#fff" transform="translate(-10 765)"/><path d="m0 0h414v87h-414z" fill="#ffc5ad" transform="translate(-10 765)"/><path d="m0 0h414v87h-414z" fill="url(#d)" transform="translate(-10 765)"/><g clip-path="url(#g)"><path d="m76.3334 815.333h2.6667v-26.666h-2.6667zm6.6667 0h2.6666v-20h-2.6666zm-13.3334 0h2.6667v-16h-2.6667z" fill="#000"/></g><g clip-path="url(#h)"><path d="m201.666 804.667h-1.053l-.373-.36c1.306-1.52 2.093-3.494 2.093-5.64 0-4.787-3.88-8.667-8.667-8.667-4.786 0-8.666 3.88-8.666 8.667 0 4.786 3.88 8.666 8.666 8.666 2.147 0 4.12-.786 5.64-2.093l.36.373v1.054l6.667 6.653 1.987-1.987zm-8 0c-3.32 0-6-2.68-6-6s2.68-6 6-6 6 2.68 6 6-2.68 6-6 6z" fill="#000"/></g><g clip-path="url(#i)" fill="#000"><path d="m321 800.667c1.105 0 2-.896 2-2 0-1.105-.895-2-2-2-1.104 0-2 .895-2 2 0 1.104.896 2 2 2z"/><path d="m311.667 800.667c1.105 0 2-.896 2-2 0-1.105-.895-2-2-2s-2 .895-2 2c0 1.104.895 2 2 2z"/><path d="m321 800.667c1.105 0 2-.896 2-2 0-1.105-.895-2-2-2-1.104 0-2 .895-2 2 0 1.104.896 2 2 2z"/><path d="m311.667 800.667c1.105 0 2-.896 2-2 0-1.105-.895-2-2-2s-2 .895-2 2c0 1.104.895 2 2 2z"/><path d="m316.32 788.667c-7.36 0-13.32 5.973-13.32 13.333s5.96 13.333 13.32 13.333c7.374 0 13.347-5.973 13.347-13.333s-5.973-13.333-13.347-13.333zm.014 24c-5.894 0-10.667-4.774-10.667-10.667s4.773-10.667 10.667-10.667c5.893 0 10.666 4.774 10.666 10.667s-4.773 10.667-10.666 10.667zm0-3.334c3.106 0 5.76-1.933 6.826-4.666h-2.226c-.92 1.586-2.627 2.666-4.6 2.666-1.974 0-3.667-1.08-4.6-2.666h-2.227c1.067 2.733 3.72 4.666 6.827 4.666z"/></g><path d="m-10 766h414" stroke="#000" stroke-width="2"/></g><rect fill="#000" height="5" rx="2.5" width="134" x="130" y="839"/></g></g></svg>