<svg width="393" height="852" viewBox="0 0 393 852" fill="none" xmlns="http://www.w3.org/2000/svg">
<g clip-path="url(#clip0_1015_54924)">
<g clip-path="url(#clip1_1015_54924)">
<rect width="393" height="852" fill="white"/>
<rect width="393" height="852" fill="url(#paint0_linear_1015_54924)"/>
<path d="M33.696 115.384C31.7333 115.384 30.0693 115.053 28.704 114.392C27.3387 113.709 26.176 112.835 25.216 111.768L28.416 108.536C29.9307 110.243 31.7973 111.096 34.016 111.096C35.2107 111.096 36.096 110.851 36.672 110.36C37.248 109.869 37.536 109.219 37.536 108.408C37.536 107.789 37.3653 107.277 37.024 106.872C36.6827 106.445 35.9893 106.157 34.944 106.008L32.736 105.72C30.368 105.421 28.6293 104.707 27.52 103.576C26.432 102.445 25.888 100.941 25.888 99.064C25.888 98.0613 26.08 97.144 26.464 96.312C26.848 95.48 27.392 94.7653 28.096 94.168C28.8213 93.5707 29.696 93.112 30.72 92.792C31.7653 92.4507 32.9493 92.28 34.272 92.28C35.9573 92.28 37.44 92.5467 38.72 93.08C40 93.6133 41.0987 94.392 42.016 95.416L38.784 98.68C38.2507 98.0613 37.6 97.56 36.832 97.176C36.0853 96.7707 35.136 96.568 33.984 96.568C32.896 96.568 32.0853 96.76 31.552 97.144C31.0187 97.528 30.752 98.0613 30.752 98.744C30.752 99.512 30.9547 100.067 31.36 100.408C31.7867 100.749 32.4693 100.995 33.408 101.144L35.616 101.496C37.92 101.859 39.6267 102.573 40.736 103.64C41.8453 104.685 42.4 106.179 42.4 108.12C42.4 109.187 42.208 110.168 41.824 111.064C41.44 111.96 40.8747 112.728 40.128 113.368C39.4027 114.008 38.496 114.509 37.408 114.872C36.32 115.213 35.0827 115.384 33.696 115.384ZM53.1848 115.384C51.9048 115.384 50.7634 115.181 49.7608 114.776C48.7581 114.349 47.9048 113.763 47.2008 113.016C46.5181 112.248 45.9954 111.32 45.6328 110.232C45.2914 109.144 45.1208 107.928 45.1208 106.584C45.1208 105.261 45.2914 104.067 45.6328 103C45.9741 101.912 46.4754 100.984 47.1368 100.216C47.8194 99.448 48.6514 98.8613 49.6328 98.456C50.6141 98.0293 51.7341 97.816 52.9928 97.816C54.3794 97.816 55.5634 98.0507 56.5448 98.52C57.5474 98.9893 58.3581 99.6187 58.9768 100.408C59.6168 101.197 60.0754 102.115 60.3528 103.16C60.6514 104.184 60.8008 105.261 60.8008 106.392V107.8H50.0168V108.056C50.0168 109.165 50.3154 110.051 50.9128 110.712C51.5101 111.352 52.4488 111.672 53.7288 111.672C54.7101 111.672 55.5101 111.48 56.1288 111.096C56.7474 110.691 57.3234 110.211 57.8568 109.656L60.2248 112.6C59.4781 113.475 58.4968 114.157 57.2808 114.648C56.0861 115.139 54.7208 115.384 53.1848 115.384ZM53.0888 101.304C52.1288 101.304 51.3714 101.624 50.8168 102.264C50.2834 102.883 50.0168 103.715 50.0168 104.76V105.016H55.9048V104.728C55.9048 103.704 55.6701 102.883 55.2008 102.264C54.7528 101.624 54.0488 101.304 53.0888 101.304ZM76.5615 115C75.7082 115 74.9935 114.733 74.4175 114.2C73.8628 113.667 73.5108 112.952 73.3615 112.056H73.1695C72.9135 113.144 72.3482 113.976 71.4735 114.552C70.5988 115.107 69.5215 115.384 68.2415 115.384C66.5562 115.384 65.2655 114.936 64.3695 114.04C63.4735 113.144 63.0255 111.96 63.0255 110.488C63.0255 108.717 63.6655 107.405 64.9455 106.552C66.2468 105.677 68.0068 105.24 70.2255 105.24H72.8815V104.184C72.8815 103.373 72.6682 102.733 72.2415 102.264C71.8148 101.773 71.1002 101.528 70.0975 101.528C69.1588 101.528 68.4122 101.731 67.8575 102.136C67.3028 102.541 66.8442 103 66.4815 103.512L63.6655 101.016C64.3482 100.013 65.2015 99.2347 66.2255 98.68C67.2708 98.104 68.6788 97.816 70.4495 97.816C72.8388 97.816 74.6308 98.3387 75.8255 99.384C77.0202 100.429 77.6175 101.955 77.6175 103.96V111.32H79.1855V115H76.5615ZM70.0015 112.088C70.7908 112.088 71.4628 111.917 72.0175 111.576C72.5935 111.235 72.8815 110.68 72.8815 109.912V107.928H70.5775C68.7215 107.928 67.7935 108.557 67.7935 109.816V110.296C67.7935 110.915 67.9855 111.373 68.3695 111.672C68.7535 111.949 69.2975 112.088 70.0015 112.088ZM82.3643 115V98.2H87.1003V101.848H87.2603C87.3456 101.379 87.4949 100.931 87.7083 100.504C87.9216 100.056 88.1989 99.6613 88.5403 99.32C88.9029 98.9787 89.3296 98.712 89.8203 98.52C90.3109 98.3067 90.8869 98.2 91.5483 98.2H92.3803V102.616H91.1963C89.8096 102.616 88.7749 102.797 88.0923 103.16C87.4309 103.523 87.1003 104.195 87.1003 105.176V115H82.3643ZM101.93 115.384C100.671 115.384 99.5508 115.181 98.5695 114.776C97.5882 114.349 96.7668 113.763 96.1055 113.016C95.4442 112.248 94.9428 111.32 94.6015 110.232C94.2602 109.144 94.0895 107.928 94.0895 106.584C94.0895 105.24 94.2602 104.035 94.6015 102.968C94.9428 101.88 95.4442 100.952 96.1055 100.184C96.7668 99.416 97.5882 98.8293 98.5695 98.424C99.5508 98.0187 100.671 97.816 101.93 97.816C103.636 97.816 105.055 98.2 106.186 98.968C107.338 99.736 108.159 100.813 108.65 102.2L104.81 103.864C104.66 103.224 104.351 102.68 103.882 102.232C103.412 101.784 102.762 101.56 101.93 101.56C100.97 101.56 100.244 101.88 99.7535 102.52C99.2628 103.139 99.0175 103.981 99.0175 105.048V108.184C99.0175 109.251 99.2628 110.093 99.7535 110.712C100.244 111.331 100.97 111.64 101.93 111.64C102.783 111.64 103.455 111.416 103.946 110.968C104.458 110.499 104.831 109.891 105.066 109.144L108.746 110.744C108.191 112.344 107.327 113.517 106.154 114.264C105.002 115.011 103.594 115.384 101.93 115.384ZM111.677 91.32H116.413V101.048H116.605C116.903 100.173 117.426 99.416 118.173 98.776C118.919 98.136 119.954 97.816 121.277 97.816C123.005 97.816 124.306 98.392 125.181 99.544C126.077 100.696 126.525 102.339 126.525 104.472V115H121.789V104.856C121.789 103.768 121.618 102.968 121.277 102.456C120.935 101.923 120.327 101.656 119.453 101.656C119.069 101.656 118.695 101.709 118.333 101.816C117.97 101.901 117.639 102.051 117.341 102.264C117.063 102.477 116.839 102.744 116.669 103.064C116.498 103.363 116.413 103.715 116.413 104.12V115H111.677V91.32Z" fill="black"/>
<path d="M29.496 246H25.848V229.248H33.792C34.56 229.248 35.256 229.376 35.88 229.632C36.504 229.888 37.032 230.256 37.464 230.736C37.912 231.2 38.256 231.76 38.496 232.416C38.736 233.072 38.856 233.8 38.856 234.6C38.856 235.736 38.6 236.728 38.088 237.576C37.592 238.424 36.832 239.04 35.808 239.424L39.096 246H35.04L32.112 239.856H29.496V246ZM33.336 236.784C33.88 236.784 34.304 236.648 34.608 236.376C34.928 236.088 35.088 235.672 35.088 235.128V234.072C35.088 233.528 34.928 233.12 34.608 232.848C34.304 232.56 33.88 232.416 33.336 232.416H29.496V236.784H33.336ZM46.7323 246.288C45.7723 246.288 44.9163 246.136 44.1643 245.832C43.4123 245.512 42.7723 245.072 42.2443 244.512C41.7323 243.936 41.3403 243.24 41.0683 242.424C40.8123 241.608 40.6843 240.696 40.6843 239.688C40.6843 238.696 40.8123 237.8 41.0683 237C41.3243 236.184 41.7003 235.488 42.1963 234.912C42.7083 234.336 43.3323 233.896 44.0683 233.592C44.8043 233.272 45.6443 233.112 46.5883 233.112C47.6283 233.112 48.5163 233.288 49.2523 233.64C50.0043 233.992 50.6123 234.464 51.0763 235.056C51.5563 235.648 51.9003 236.336 52.1083 237.12C52.3323 237.888 52.4443 238.696 52.4443 239.544V240.6H44.3563V240.792C44.3563 241.624 44.5803 242.288 45.0283 242.784C45.4763 243.264 46.1803 243.504 47.1403 243.504C47.8763 243.504 48.4763 243.36 48.9403 243.072C49.4043 242.768 49.8363 242.408 50.2363 241.992L52.0123 244.2C51.4523 244.856 50.7163 245.368 49.8043 245.736C48.9083 246.104 47.8843 246.288 46.7323 246.288ZM46.6603 235.728C45.9403 235.728 45.3723 235.968 44.9563 236.448C44.5563 236.912 44.3563 237.536 44.3563 238.32V238.512H48.7723V238.296C48.7723 237.528 48.5963 236.912 48.2443 236.448C47.9083 235.968 47.3803 235.728 46.6603 235.728ZM60.0409 246.288C59.0969 246.288 58.2569 246.136 57.5209 245.832C56.7849 245.512 56.1689 245.072 55.6729 244.512C55.1769 243.936 54.8009 243.24 54.5449 242.424C54.2889 241.608 54.1609 240.696 54.1609 239.688C54.1609 238.68 54.2889 237.776 54.5449 236.976C54.8009 236.16 55.1769 235.464 55.6729 234.888C56.1689 234.312 56.7849 233.872 57.5209 233.568C58.2569 233.264 59.0969 233.112 60.0409 233.112C61.3209 233.112 62.3849 233.4 63.2329 233.976C64.0969 234.552 64.7129 235.36 65.0809 236.4L62.2009 237.648C62.0889 237.168 61.8569 236.76 61.5049 236.424C61.1529 236.088 60.6649 235.92 60.0409 235.92C59.3209 235.92 58.7769 236.16 58.4089 236.64C58.0409 237.104 57.8569 237.736 57.8569 238.536V240.888C57.8569 241.688 58.0409 242.32 58.4089 242.784C58.7769 243.248 59.3209 243.48 60.0409 243.48C60.6809 243.48 61.1849 243.312 61.5529 242.976C61.9369 242.624 62.2169 242.168 62.3929 241.608L65.1529 242.808C64.7369 244.008 64.0889 244.888 63.2089 245.448C62.3449 246.008 61.2889 246.288 60.0409 246.288ZM72.4901 246.288C71.5301 246.288 70.6741 246.136 69.9221 245.832C69.1701 245.512 68.5301 245.072 68.0021 244.512C67.4901 243.936 67.0981 243.24 66.8261 242.424C66.5701 241.608 66.4421 240.696 66.4421 239.688C66.4421 238.696 66.5701 237.8 66.8261 237C67.0821 236.184 67.4581 235.488 67.9541 234.912C68.4661 234.336 69.0901 233.896 69.8261 233.592C70.5621 233.272 71.4021 233.112 72.3461 233.112C73.3861 233.112 74.2741 233.288 75.0101 233.64C75.7621 233.992 76.3701 234.464 76.8341 235.056C77.3141 235.648 77.6581 236.336 77.8661 237.12C78.0901 237.888 78.2021 238.696 78.2021 239.544V240.6H70.1141V240.792C70.1141 241.624 70.3381 242.288 70.7861 242.784C71.2341 243.264 71.9381 243.504 72.8981 243.504C73.6341 243.504 74.2341 243.36 74.6981 243.072C75.1621 242.768 75.5941 242.408 75.9941 241.992L77.7701 244.2C77.2101 244.856 76.4741 245.368 75.5621 245.736C74.6661 246.104 73.6421 246.288 72.4901 246.288ZM72.4181 235.728C71.6981 235.728 71.1301 235.968 70.7141 236.448C70.3141 236.912 70.1141 237.536 70.1141 238.32V238.512H74.5301V238.296C74.5301 237.528 74.3541 236.912 74.0021 236.448C73.6661 235.968 73.1381 235.728 72.4181 235.728ZM80.7107 246V233.4H84.2627V235.536H84.4067C84.6307 234.88 85.0227 234.312 85.5827 233.832C86.1427 233.352 86.9187 233.112 87.9107 233.112C89.2067 233.112 90.1827 233.544 90.8387 234.408C91.5107 235.272 91.8467 236.504 91.8467 238.104V246H88.2947V238.392C88.2947 237.576 88.1667 236.976 87.9107 236.592C87.6547 236.192 87.1987 235.992 86.5427 235.992C86.2547 235.992 85.9747 236.032 85.7027 236.112C85.4307 236.176 85.1827 236.288 84.9587 236.448C84.7507 236.608 84.5827 236.808 84.4547 237.048C84.3267 237.272 84.2627 237.536 84.2627 237.84V246H80.7107ZM99.4236 246C98.1916 246 97.2556 245.688 96.6156 245.064C95.9916 244.44 95.6796 243.528 95.6796 242.328V236.16H93.9036V233.4H94.7916C95.2716 233.4 95.5996 233.288 95.7756 233.064C95.9516 232.824 96.0396 232.488 96.0396 232.056V229.992H99.2316V233.4H101.728V236.16H99.2316V243.24H101.536V246H99.4236ZM114.139 246.288C112.923 246.288 111.899 246.096 111.067 245.712C110.235 245.312 109.491 244.752 108.835 244.032L110.923 241.92C111.371 242.416 111.867 242.808 112.411 243.096C112.955 243.384 113.571 243.528 114.259 243.528C114.963 243.528 115.451 243.424 115.723 243.216C115.995 242.992 116.131 242.696 116.131 242.328C116.131 241.736 115.707 241.384 114.859 241.272L113.491 241.104C110.659 240.752 109.243 239.456 109.243 237.216C109.243 236.608 109.355 236.056 109.579 235.56C109.819 235.048 110.147 234.616 110.563 234.264C110.995 233.896 111.507 233.616 112.099 233.424C112.707 233.216 113.387 233.112 114.139 233.112C114.795 233.112 115.371 233.16 115.867 233.256C116.379 233.336 116.827 233.464 117.211 233.64C117.611 233.8 117.971 234.008 118.291 234.264C118.627 234.504 118.955 234.776 119.275 235.08L117.235 237.168C116.835 236.768 116.379 236.456 115.867 236.232C115.371 235.992 114.859 235.872 114.331 235.872C113.723 235.872 113.291 235.968 113.035 236.16C112.779 236.352 112.651 236.608 112.651 236.928C112.651 237.264 112.739 237.528 112.915 237.72C113.107 237.896 113.459 238.024 113.971 238.104L115.387 238.296C118.155 238.664 119.539 239.928 119.539 242.088C119.539 242.696 119.411 243.256 119.155 243.768C118.899 244.28 118.531 244.728 118.051 245.112C117.587 245.48 117.019 245.768 116.347 245.976C115.691 246.184 114.955 246.288 114.139 246.288ZM127.217 246.288C126.257 246.288 125.401 246.136 124.649 245.832C123.897 245.512 123.257 245.072 122.729 244.512C122.217 243.936 121.825 243.24 121.553 242.424C121.297 241.608 121.169 240.696 121.169 239.688C121.169 238.696 121.297 237.8 121.553 237C121.809 236.184 122.185 235.488 122.681 234.912C123.193 234.336 123.817 233.896 124.553 233.592C125.289 233.272 126.129 233.112 127.073 233.112C128.113 233.112 129.001 233.288 129.737 233.64C130.489 233.992 131.097 234.464 131.561 235.056C132.041 235.648 132.385 236.336 132.593 237.12C132.817 237.888 132.929 238.696 132.929 239.544V240.6H124.841V240.792C124.841 241.624 125.065 242.288 125.513 242.784C125.961 243.264 126.665 243.504 127.625 243.504C128.361 243.504 128.961 243.36 129.425 243.072C129.889 242.768 130.321 242.408 130.721 241.992L132.497 244.2C131.937 244.856 131.201 245.368 130.289 245.736C129.393 246.104 128.369 246.288 127.217 246.288ZM127.145 235.728C126.425 235.728 125.857 235.968 125.441 236.448C125.041 236.912 124.841 237.536 124.841 238.32V238.512H129.257V238.296C129.257 237.528 129.081 236.912 128.729 236.448C128.393 235.968 127.865 235.728 127.145 235.728ZM144.749 246C144.109 246 143.573 245.8 143.141 245.4C142.725 245 142.461 244.464 142.349 243.792H142.205C142.013 244.608 141.589 245.232 140.933 245.664C140.277 246.08 139.469 246.288 138.509 246.288C137.245 246.288 136.277 245.952 135.605 245.28C134.933 244.608 134.597 243.72 134.597 242.616C134.597 241.288 135.077 240.304 136.037 239.664C137.013 239.008 138.333 238.68 139.997 238.68H141.989V237.888C141.989 237.28 141.829 236.8 141.509 236.448C141.189 236.08 140.653 235.896 139.901 235.896C139.197 235.896 138.637 236.048 138.221 236.352C137.805 236.656 137.461 237 137.189 237.384L135.077 235.512C135.589 234.76 136.229 234.176 136.997 233.76C137.781 233.328 138.837 233.112 140.165 233.112C141.957 233.112 143.301 233.504 144.197 234.288C145.093 235.072 145.541 236.216 145.541 237.72V243.24H146.717V246H144.749ZM139.829 243.816C140.421 243.816 140.925 243.688 141.341 243.432C141.773 243.176 141.989 242.76 141.989 242.184V240.696H140.261C138.869 240.696 138.173 241.168 138.173 242.112V242.472C138.173 242.936 138.317 243.28 138.605 243.504C138.893 243.712 139.301 243.816 139.829 243.816ZM149.101 246V233.4H152.653V236.136H152.773C152.837 235.784 152.949 235.448 153.109 235.128C153.269 234.792 153.477 234.496 153.733 234.24C154.005 233.984 154.325 233.784 154.693 233.64C155.061 233.48 155.493 233.4 155.989 233.4H156.613V236.712H155.725C154.685 236.712 153.909 236.848 153.397 237.12C152.901 237.392 152.653 237.896 152.653 238.632V246H149.101ZM163.775 246.288C162.831 246.288 161.991 246.136 161.255 245.832C160.519 245.512 159.903 245.072 159.407 244.512C158.911 243.936 158.535 243.24 158.279 242.424C158.023 241.608 157.895 240.696 157.895 239.688C157.895 238.68 158.023 237.776 158.279 236.976C158.535 236.16 158.911 235.464 159.407 234.888C159.903 234.312 160.519 233.872 161.255 233.568C161.991 233.264 162.831 233.112 163.775 233.112C165.055 233.112 166.119 233.4 166.967 233.976C167.831 234.552 168.447 235.36 168.815 236.4L165.935 237.648C165.823 237.168 165.591 236.76 165.239 236.424C164.887 236.088 164.399 235.92 163.775 235.92C163.055 235.92 162.511 236.16 162.143 236.64C161.775 237.104 161.591 237.736 161.591 238.536V240.888C161.591 241.688 161.775 242.32 162.143 242.784C162.511 243.248 163.055 243.48 163.775 243.48C164.415 243.48 164.919 243.312 165.287 242.976C165.671 242.624 165.951 242.168 166.127 241.608L168.887 242.808C168.471 244.008 167.823 244.888 166.943 245.448C166.079 246.008 165.023 246.288 163.775 246.288ZM171.086 228.24H174.638V235.536H174.782C175.006 234.88 175.398 234.312 175.958 233.832C176.518 233.352 177.294 233.112 178.286 233.112C179.582 233.112 180.558 233.544 181.214 234.408C181.886 235.272 182.222 236.504 182.222 238.104V246H178.67V238.392C178.67 237.576 178.542 236.976 178.286 236.592C178.03 236.192 177.574 235.992 176.918 235.992C176.63 235.992 176.35 236.032 176.078 236.112C175.806 236.176 175.558 236.288 175.334 236.448C175.126 236.608 174.958 236.808 174.83 237.048C174.702 237.272 174.638 237.536 174.638 237.84V246H171.086V228.24ZM190.639 246.288C189.679 246.288 188.823 246.136 188.071 245.832C187.319 245.512 186.679 245.072 186.151 244.512C185.639 243.936 185.247 243.24 184.975 242.424C184.719 241.608 184.591 240.696 184.591 239.688C184.591 238.696 184.719 237.8 184.975 237C185.231 236.184 185.607 235.488 186.103 234.912C186.615 234.336 187.239 233.896 187.975 233.592C188.711 233.272 189.551 233.112 190.495 233.112C191.535 233.112 192.423 233.288 193.159 233.64C193.911 233.992 194.519 234.464 194.983 235.056C195.463 235.648 195.807 236.336 196.015 237.12C196.239 237.888 196.351 238.696 196.351 239.544V240.6H188.263V240.792C188.263 241.624 188.487 242.288 188.935 242.784C189.383 243.264 190.087 243.504 191.047 243.504C191.783 243.504 192.383 243.36 192.847 243.072C193.311 242.768 193.743 242.408 194.143 241.992L195.919 244.2C195.359 244.856 194.623 245.368 193.711 245.736C192.815 246.104 191.791 246.288 190.639 246.288ZM190.567 235.728C189.847 235.728 189.279 235.968 188.863 236.448C188.463 236.912 188.263 237.536 188.263 238.32V238.512H192.679V238.296C192.679 237.528 192.503 236.912 192.151 236.448C191.815 235.968 191.287 235.728 190.567 235.728ZM203.131 246.288C201.915 246.288 200.891 246.096 200.059 245.712C199.227 245.312 198.483 244.752 197.827 244.032L199.915 241.92C200.363 242.416 200.859 242.808 201.403 243.096C201.947 243.384 202.563 243.528 203.251 243.528C203.955 243.528 204.443 243.424 204.715 243.216C204.987 242.992 205.123 242.696 205.123 242.328C205.123 241.736 204.699 241.384 203.851 241.272L202.483 241.104C199.651 240.752 198.235 239.456 198.235 237.216C198.235 236.608 198.347 236.056 198.571 235.56C198.811 235.048 199.139 234.616 199.555 234.264C199.987 233.896 200.499 233.616 201.091 233.424C201.699 233.216 202.379 233.112 203.131 233.112C203.787 233.112 204.363 233.16 204.859 233.256C205.371 233.336 205.819 233.464 206.203 233.64C206.603 233.8 206.963 234.008 207.283 234.264C207.619 234.504 207.947 234.776 208.267 235.08L206.227 237.168C205.827 236.768 205.371 236.456 204.859 236.232C204.363 235.992 203.851 235.872 203.323 235.872C202.715 235.872 202.283 235.968 202.027 236.16C201.771 236.352 201.643 236.608 201.643 236.928C201.643 237.264 201.731 237.528 201.907 237.72C202.099 237.896 202.451 238.024 202.963 238.104L204.379 238.296C207.147 238.664 208.531 239.928 208.531 242.088C208.531 242.696 208.403 243.256 208.147 243.768C207.891 244.28 207.523 244.728 207.043 245.112C206.579 245.48 206.011 245.768 205.339 245.976C204.683 246.184 203.947 246.288 203.131 246.288Z" fill="black"/>
<path d="M33.252 288L32.244 284.796H27.78L26.79 288H24.378L28.59 275.436H31.542L35.718 288H33.252ZM30.048 277.596H29.958L28.356 282.762H31.668L30.048 277.596ZM39.7298 288C38.9378 288 38.3558 287.802 37.9838 287.406C37.6118 287.01 37.4258 286.452 37.4258 285.732V274.68H39.7298V286.164H40.9718V288H39.7298ZM44.8977 288C44.1057 288 43.5237 287.802 43.1517 287.406C42.7797 287.01 42.5937 286.452 42.5937 285.732V274.68H44.8977V286.164H46.1397V288H44.8977ZM51.6827 288.216C50.9867 288.216 50.3627 288.102 49.8107 287.874C49.2707 287.634 48.8087 287.304 48.4247 286.884C48.0527 286.452 47.7647 285.936 47.5607 285.336C47.3567 284.724 47.2547 284.04 47.2547 283.284C47.2547 282.54 47.3507 281.868 47.5427 281.268C47.7467 280.668 48.0347 280.158 48.4067 279.738C48.7787 279.306 49.2347 278.976 49.7747 278.748C50.3147 278.508 50.9267 278.388 51.6107 278.388C52.3427 278.388 52.9787 278.514 53.5187 278.766C54.0587 279.018 54.5027 279.36 54.8507 279.792C55.1987 280.224 55.4567 280.728 55.6247 281.304C55.8047 281.868 55.8947 282.474 55.8947 283.122V283.878H49.6487V284.112C49.6487 284.796 49.8407 285.348 50.2247 285.768C50.6087 286.176 51.1787 286.38 51.9347 286.38C52.5107 286.38 52.9787 286.26 53.3387 286.02C53.7107 285.78 54.0407 285.474 54.3287 285.102L55.5707 286.488C55.1867 287.028 54.6587 287.454 53.9867 287.766C53.3267 288.066 52.5587 288.216 51.6827 288.216ZM51.6467 280.116C51.0347 280.116 50.5487 280.32 50.1887 280.728C49.8287 281.136 49.6487 281.664 49.6487 282.312V282.456H53.5007V282.294C53.5007 281.646 53.3387 281.124 53.0147 280.728C52.7027 280.32 52.2467 280.116 51.6467 280.116ZM60.9998 288.216C60.0998 288.216 59.3438 288.066 58.7318 287.766C58.1198 287.454 57.5798 287.028 57.1118 286.488L58.5158 285.12C58.8638 285.516 59.2418 285.828 59.6498 286.056C60.0698 286.284 60.5498 286.398 61.0898 286.398C61.6418 286.398 62.0378 286.302 62.2778 286.11C62.5298 285.918 62.6558 285.654 62.6558 285.318C62.6558 285.042 62.5658 284.826 62.3858 284.67C62.2178 284.502 61.9238 284.388 61.5038 284.328L60.5678 284.202C59.5478 284.07 58.7678 283.782 58.2278 283.338C57.6998 282.882 57.4358 282.222 57.4358 281.358C57.4358 280.902 57.5198 280.494 57.6878 280.134C57.8558 279.762 58.0958 279.45 58.4078 279.198C58.7198 278.934 59.0918 278.736 59.5238 278.604C59.9678 278.46 60.4598 278.388 60.9998 278.388C61.4558 278.388 61.8578 278.424 62.2058 278.496C62.5658 278.556 62.8898 278.652 63.1778 278.784C63.4658 278.904 63.7298 279.06 63.9698 279.252C64.2098 279.432 64.4438 279.636 64.6718 279.864L63.3218 281.214C63.0458 280.926 62.7158 280.686 62.3318 280.494C61.9478 280.302 61.5278 280.206 61.0718 280.206C60.5678 280.206 60.2018 280.296 59.9738 280.476C59.7578 280.656 59.6498 280.89 59.6498 281.178C59.6498 281.49 59.7398 281.73 59.9198 281.898C60.1118 282.054 60.4298 282.168 60.8738 282.24L61.8278 282.366C63.8558 282.654 64.8698 283.578 64.8698 285.138C64.8698 285.594 64.7738 286.014 64.5818 286.398C64.4018 286.77 64.1438 287.094 63.8078 287.37C63.4718 287.634 63.0638 287.844 62.5838 288C62.1158 288.144 61.5878 288.216 60.9998 288.216ZM72.3102 277.236C71.8302 277.236 71.4822 277.128 71.2662 276.912C71.0622 276.696 70.9602 276.42 70.9602 276.084V275.724C70.9602 275.388 71.0622 275.112 71.2662 274.896C71.4822 274.68 71.8302 274.572 72.3102 274.572C72.7782 274.572 73.1202 274.68 73.3362 274.896C73.5522 275.112 73.6602 275.388 73.6602 275.724V276.084C73.6602 276.42 73.5522 276.696 73.3362 276.912C73.1202 277.128 72.7782 277.236 72.3102 277.236ZM71.1582 278.604H73.4622V288H71.1582V278.604ZM79.2108 288.216C78.3108 288.216 77.5548 288.066 76.9428 287.766C76.3308 287.454 75.7908 287.028 75.3228 286.488L76.7268 285.12C77.0748 285.516 77.4528 285.828 77.8608 286.056C78.2808 286.284 78.7608 286.398 79.3008 286.398C79.8528 286.398 80.2488 286.302 80.4888 286.11C80.7408 285.918 80.8668 285.654 80.8668 285.318C80.8668 285.042 80.7768 284.826 80.5968 284.67C80.4288 284.502 80.1348 284.388 79.7148 284.328L78.7788 284.202C77.7588 284.07 76.9788 283.782 76.4388 283.338C75.9108 282.882 75.6468 282.222 75.6468 281.358C75.6468 280.902 75.7308 280.494 75.8988 280.134C76.0668 279.762 76.3068 279.45 76.6188 279.198C76.9308 278.934 77.3028 278.736 77.7348 278.604C78.1788 278.46 78.6708 278.388 79.2108 278.388C79.6668 278.388 80.0688 278.424 80.4168 278.496C80.7768 278.556 81.1008 278.652 81.3888 278.784C81.6768 278.904 81.9408 279.06 82.1808 279.252C82.4208 279.432 82.6548 279.636 82.8828 279.864L81.5328 281.214C81.2568 280.926 80.9268 280.686 80.5428 280.494C80.1588 280.302 79.7388 280.206 79.2828 280.206C78.7788 280.206 78.4128 280.296 78.1848 280.476C77.9688 280.656 77.8608 280.89 77.8608 281.178C77.8608 281.49 77.9508 281.73 78.1308 281.898C78.3228 282.054 78.6408 282.168 79.0848 282.24L80.0388 282.366C82.0668 282.654 83.0808 283.578 83.0808 285.138C83.0808 285.594 82.9848 286.014 82.7928 286.398C82.6128 286.77 82.3548 287.094 82.0188 287.37C81.6828 287.634 81.2748 287.844 80.7948 288C80.3268 288.144 79.7988 288.216 79.2108 288.216ZM97.8471 288.792C97.8471 289.284 97.7571 289.716 97.5771 290.088C97.4091 290.472 97.1271 290.79 96.7311 291.042C96.3351 291.294 95.8251 291.486 95.2011 291.618C94.5771 291.75 93.8151 291.816 92.9151 291.816C92.1231 291.816 91.4511 291.762 90.8991 291.654C90.3471 291.558 89.8911 291.414 89.5311 291.222C89.1831 291.042 88.9311 290.814 88.7751 290.538C88.6191 290.262 88.5411 289.95 88.5411 289.602C88.5411 289.074 88.6851 288.66 88.9731 288.36C89.2731 288.072 89.6871 287.886 90.2151 287.802V287.604C89.8311 287.508 89.5311 287.322 89.3151 287.046C89.1111 286.758 89.0091 286.422 89.0091 286.038C89.0091 285.798 89.0571 285.588 89.1531 285.408C89.2491 285.216 89.3751 285.054 89.5311 284.922C89.6991 284.79 89.8851 284.682 90.0891 284.598C90.2931 284.502 90.5091 284.43 90.7371 284.382V284.31C90.1611 284.046 89.7291 283.68 89.4411 283.212C89.1651 282.744 89.0271 282.198 89.0271 281.574C89.0271 280.614 89.3571 279.846 90.0171 279.27C90.6771 278.682 91.6431 278.388 92.9151 278.388C93.2031 278.388 93.4851 278.406 93.7611 278.442C94.0491 278.478 94.3131 278.538 94.5531 278.622V278.316C94.5531 277.404 94.9971 276.948 95.8851 276.948H97.3431V278.712H95.3451V278.964C95.8371 279.24 96.2031 279.6 96.4431 280.044C96.6831 280.488 96.8031 280.998 96.8031 281.574C96.8031 282.522 96.4731 283.284 95.8131 283.86C95.1651 284.436 94.1991 284.724 92.9151 284.724C92.3631 284.724 91.8831 284.67 91.4751 284.562C91.2951 284.646 91.1391 284.76 91.0071 284.904C90.8751 285.036 90.8091 285.204 90.8091 285.408C90.8091 285.876 91.2171 286.11 92.0331 286.11H94.5531C95.7051 286.11 96.5391 286.35 97.0551 286.83C97.5831 287.298 97.8471 287.952 97.8471 288.792ZM95.6871 289.062C95.6871 288.762 95.5671 288.528 95.3271 288.36C95.0871 288.192 94.6731 288.108 94.0851 288.108H90.8811C90.5571 288.348 90.3951 288.672 90.3951 289.08C90.3951 289.44 90.5451 289.722 90.8451 289.926C91.1451 290.13 91.6551 290.232 92.3751 290.232H93.5271C94.2831 290.232 94.8291 290.136 95.1651 289.944C95.5131 289.752 95.6871 289.458 95.6871 289.062ZM92.9151 283.158C94.0431 283.158 94.6071 282.678 94.6071 281.718V281.412C94.6071 280.452 94.0431 279.972 92.9151 279.972C91.7871 279.972 91.2231 280.452 91.2231 281.412V281.718C91.2231 282.678 91.7871 283.158 92.9151 283.158ZM102.87 288.216C102.174 288.216 101.55 288.102 100.998 287.874C100.458 287.634 99.9962 287.304 99.6122 286.884C99.2402 286.452 98.9522 285.936 98.7482 285.336C98.5442 284.724 98.4422 284.04 98.4422 283.284C98.4422 282.54 98.5382 281.868 98.7302 281.268C98.9342 280.668 99.2222 280.158 99.5942 279.738C99.9662 279.306 100.422 278.976 100.962 278.748C101.502 278.508 102.114 278.388 102.798 278.388C103.53 278.388 104.166 278.514 104.706 278.766C105.246 279.018 105.69 279.36 106.038 279.792C106.386 280.224 106.644 280.728 106.812 281.304C106.992 281.868 107.082 282.474 107.082 283.122V283.878H100.836V284.112C100.836 284.796 101.028 285.348 101.412 285.768C101.796 286.176 102.366 286.38 103.122 286.38C103.698 286.38 104.166 286.26 104.526 286.02C104.898 285.78 105.228 285.474 105.516 285.102L106.758 286.488C106.374 287.028 105.846 287.454 105.174 287.766C104.514 288.066 103.746 288.216 102.87 288.216ZM102.834 280.116C102.222 280.116 101.736 280.32 101.376 280.728C101.016 281.136 100.836 281.664 100.836 282.312V282.456H104.688V282.294C104.688 281.646 104.526 281.124 104.202 280.728C103.89 280.32 103.434 280.116 102.834 280.116ZM108.355 288V286.164L113.233 280.422H108.517V278.604H115.933V280.386L111.019 286.164H116.059V288H108.355ZM121.661 288.216C120.965 288.216 120.341 288.102 119.789 287.874C119.249 287.634 118.787 287.304 118.403 286.884C118.031 286.452 117.743 285.936 117.539 285.336C117.335 284.724 117.233 284.04 117.233 283.284C117.233 282.54 117.329 281.868 117.521 281.268C117.725 280.668 118.013 280.158 118.385 279.738C118.757 279.306 119.213 278.976 119.753 278.748C120.293 278.508 120.905 278.388 121.589 278.388C122.321 278.388 122.957 278.514 123.497 278.766C124.037 279.018 124.481 279.36 124.829 279.792C125.177 280.224 125.435 280.728 125.603 281.304C125.783 281.868 125.873 282.474 125.873 283.122V283.878H119.627V284.112C119.627 284.796 119.819 285.348 120.203 285.768C120.587 286.176 121.157 286.38 121.913 286.38C122.489 286.38 122.957 286.26 123.317 286.02C123.689 285.78 124.019 285.474 124.307 285.102L125.549 286.488C125.165 287.028 124.637 287.454 123.965 287.766C123.305 288.066 122.537 288.216 121.661 288.216ZM121.625 280.116C121.013 280.116 120.527 280.32 120.167 280.728C119.807 281.136 119.627 281.664 119.627 282.312V282.456H123.479V282.294C123.479 281.646 123.317 281.124 122.993 280.728C122.681 280.32 122.225 280.116 121.625 280.116ZM136.378 288.792C136.378 289.284 136.288 289.716 136.108 290.088C135.94 290.472 135.658 290.79 135.262 291.042C134.866 291.294 134.356 291.486 133.732 291.618C133.108 291.75 132.346 291.816 131.446 291.816C130.654 291.816 129.982 291.762 129.43 291.654C128.878 291.558 128.422 291.414 128.062 291.222C127.714 291.042 127.462 290.814 127.306 290.538C127.15 290.262 127.072 289.95 127.072 289.602C127.072 289.074 127.216 288.66 127.504 288.36C127.804 288.072 128.218 287.886 128.746 287.802V287.604C128.362 287.508 128.062 287.322 127.846 287.046C127.642 286.758 127.54 286.422 127.54 286.038C127.54 285.798 127.588 285.588 127.684 285.408C127.78 285.216 127.906 285.054 128.062 284.922C128.23 284.79 128.416 284.682 128.62 284.598C128.824 284.502 129.04 284.43 129.268 284.382V284.31C128.692 284.046 128.26 283.68 127.972 283.212C127.696 282.744 127.558 282.198 127.558 281.574C127.558 280.614 127.888 279.846 128.548 279.27C129.208 278.682 130.174 278.388 131.446 278.388C131.734 278.388 132.016 278.406 132.292 278.442C132.58 278.478 132.844 278.538 133.084 278.622V278.316C133.084 277.404 133.528 276.948 134.416 276.948H135.874V278.712H133.876V278.964C134.368 279.24 134.734 279.6 134.974 280.044C135.214 280.488 135.334 280.998 135.334 281.574C135.334 282.522 135.004 283.284 134.344 283.86C133.696 284.436 132.73 284.724 131.446 284.724C130.894 284.724 130.414 284.67 130.006 284.562C129.826 284.646 129.67 284.76 129.538 284.904C129.406 285.036 129.34 285.204 129.34 285.408C129.34 285.876 129.748 286.11 130.564 286.11H133.084C134.236 286.11 135.07 286.35 135.586 286.83C136.114 287.298 136.378 287.952 136.378 288.792ZM134.218 289.062C134.218 288.762 134.098 288.528 133.858 288.36C133.618 288.192 133.204 288.108 132.616 288.108H129.412C129.088 288.348 128.926 288.672 128.926 289.08C128.926 289.44 129.076 289.722 129.376 289.926C129.676 290.13 130.186 290.232 130.906 290.232H132.058C132.814 290.232 133.36 290.136 133.696 289.944C134.044 289.752 134.218 289.458 134.218 289.062ZM131.446 283.158C132.574 283.158 133.138 282.678 133.138 281.718V281.412C133.138 280.452 132.574 279.972 131.446 279.972C130.318 279.972 129.754 280.452 129.754 281.412V281.718C129.754 282.678 130.318 283.158 131.446 283.158ZM141.401 288.216C140.705 288.216 140.081 288.102 139.529 287.874C138.989 287.634 138.527 287.304 138.143 286.884C137.771 286.452 137.483 285.936 137.279 285.336C137.075 284.724 136.973 284.04 136.973 283.284C136.973 282.54 137.069 281.868 137.261 281.268C137.465 280.668 137.753 280.158 138.125 279.738C138.497 279.306 138.953 278.976 139.493 278.748C140.033 278.508 140.645 278.388 141.329 278.388C142.061 278.388 142.697 278.514 143.237 278.766C143.777 279.018 144.221 279.36 144.569 279.792C144.917 280.224 145.175 280.728 145.343 281.304C145.523 281.868 145.613 282.474 145.613 283.122V283.878H139.367V284.112C139.367 284.796 139.559 285.348 139.943 285.768C140.327 286.176 140.897 286.38 141.653 286.38C142.229 286.38 142.697 286.26 143.057 286.02C143.429 285.78 143.759 285.474 144.047 285.102L145.289 286.488C144.905 287.028 144.377 287.454 143.705 287.766C143.045 288.066 142.277 288.216 141.401 288.216ZM141.365 280.116C140.753 280.116 140.267 280.32 139.907 280.728C139.547 281.136 139.367 281.664 139.367 282.312V282.456H143.219V282.294C143.219 281.646 143.057 281.124 142.733 280.728C142.421 280.32 141.965 280.116 141.365 280.116ZM147.641 288V278.604H149.945V280.17H150.035C150.227 279.666 150.527 279.246 150.935 278.91C151.355 278.562 151.931 278.388 152.663 278.388C153.635 278.388 154.379 278.706 154.895 279.342C155.411 279.978 155.669 280.884 155.669 282.06V288H153.365V282.294C153.365 281.622 153.245 281.118 153.005 280.782C152.765 280.446 152.369 280.278 151.817 280.278C151.577 280.278 151.343 280.314 151.115 280.386C150.899 280.446 150.701 280.542 150.521 280.674C150.353 280.794 150.215 280.95 150.107 281.142C149.999 281.322 149.945 281.538 149.945 281.79V288H147.641ZM164.055 286.434H163.965C163.797 286.974 163.479 287.406 163.011 287.73C162.543 288.054 161.997 288.216 161.373 288.216C160.185 288.216 159.273 287.79 158.637 286.938C158.013 286.086 157.701 284.868 157.701 283.284C157.701 281.712 158.013 280.506 158.637 279.666C159.273 278.814 160.185 278.388 161.373 278.388C161.997 278.388 162.543 278.55 163.011 278.874C163.479 279.186 163.797 279.612 163.965 280.152H164.055V274.68H166.359V288H164.055V286.434ZM162.111 286.308C162.663 286.308 163.125 286.176 163.497 285.912C163.869 285.648 164.055 285.27 164.055 284.778V281.79C164.055 281.334 163.869 280.968 163.497 280.692C163.125 280.416 162.663 280.278 162.111 280.278C161.511 280.278 161.025 280.482 160.653 280.89C160.293 281.286 160.113 281.82 160.113 282.492V284.112C160.113 284.784 160.293 285.318 160.653 285.714C161.025 286.11 161.511 286.308 162.111 286.308Z" fill="black"/>
<path d="M25.476 327V314.436H33.756V316.542H27.852V319.584H33.072V321.69H27.852V324.894H33.756V327H25.476ZM38.141 327L35.009 317.604H37.277L38.591 321.654L39.509 325.002H39.635L40.553 321.654L41.831 317.604H44.027L40.877 327H38.141ZM46.7164 316.236C46.2364 316.236 45.8884 316.128 45.6724 315.912C45.4684 315.696 45.3664 315.42 45.3664 315.084V314.724C45.3664 314.388 45.4684 314.112 45.6724 313.896C45.8884 313.68 46.2364 313.572 46.7164 313.572C47.1844 313.572 47.5264 313.68 47.7424 313.896C47.9584 314.112 48.0664 314.388 48.0664 314.724V315.084C48.0664 315.42 47.9584 315.696 47.7424 315.912C47.5264 316.128 47.1844 316.236 46.7164 316.236ZM45.5644 317.604H47.8684V327H45.5644V317.604ZM56.371 325.434H56.281C56.113 325.974 55.795 326.406 55.327 326.73C54.859 327.054 54.313 327.216 53.689 327.216C52.501 327.216 51.589 326.79 50.953 325.938C50.329 325.086 50.017 323.868 50.017 322.284C50.017 320.712 50.329 319.506 50.953 318.666C51.589 317.814 52.501 317.388 53.689 317.388C54.313 317.388 54.859 317.55 55.327 317.874C55.795 318.186 56.113 318.612 56.281 319.152H56.371V313.68H58.675V327H56.371V325.434ZM54.427 325.308C54.979 325.308 55.441 325.176 55.813 324.912C56.185 324.648 56.371 324.27 56.371 323.778V320.79C56.371 320.334 56.185 319.968 55.813 319.692C55.441 319.416 54.979 319.278 54.427 319.278C53.827 319.278 53.341 319.482 52.969 319.89C52.609 320.286 52.429 320.82 52.429 321.492V323.112C52.429 323.784 52.609 324.318 52.969 324.714C53.341 325.11 53.827 325.308 54.427 325.308ZM65.13 327.216C64.434 327.216 63.81 327.102 63.258 326.874C62.718 326.634 62.256 326.304 61.872 325.884C61.5 325.452 61.212 324.936 61.008 324.336C60.804 323.724 60.702 323.04 60.702 322.284C60.702 321.54 60.798 320.868 60.99 320.268C61.194 319.668 61.482 319.158 61.854 318.738C62.226 318.306 62.682 317.976 63.222 317.748C63.762 317.508 64.374 317.388 65.058 317.388C65.79 317.388 66.426 317.514 66.966 317.766C67.506 318.018 67.95 318.36 68.298 318.792C68.646 319.224 68.904 319.728 69.072 320.304C69.252 320.868 69.342 321.474 69.342 322.122V322.878H63.096V323.112C63.096 323.796 63.288 324.348 63.672 324.768C64.056 325.176 64.626 325.38 65.382 325.38C65.958 325.38 66.426 325.26 66.786 325.02C67.158 324.78 67.488 324.474 67.776 324.102L69.018 325.488C68.634 326.028 68.106 326.454 67.434 326.766C66.774 327.066 66.006 327.216 65.13 327.216ZM65.094 319.116C64.482 319.116 63.996 319.32 63.636 319.728C63.276 320.136 63.096 320.664 63.096 321.312V321.456H66.948V321.294C66.948 320.646 66.786 320.124 66.462 319.728C66.15 319.32 65.694 319.116 65.094 319.116ZM71.3691 327V317.604H73.6731V319.17H73.7631C73.9551 318.666 74.2551 318.246 74.6631 317.91C75.0831 317.562 75.6591 317.388 76.3911 317.388C77.3631 317.388 78.1071 317.706 78.6231 318.342C79.1391 318.978 79.3971 319.884 79.3971 321.06V327H77.0931V321.294C77.0931 320.622 76.9731 320.118 76.7331 319.782C76.4931 319.446 76.0971 319.278 75.5451 319.278C75.3051 319.278 75.0711 319.314 74.8431 319.386C74.6271 319.446 74.4291 319.542 74.2491 319.674C74.0811 319.794 73.9431 319.95 73.8351 320.142C73.7271 320.322 73.6731 320.538 73.6731 320.79V327H71.3691ZM85.6591 327.216C84.9631 327.216 84.3451 327.102 83.8051 326.874C83.2651 326.646 82.8091 326.316 82.4371 325.884C82.0771 325.452 81.8011 324.936 81.6091 324.336C81.4171 323.724 81.3211 323.04 81.3211 322.284C81.3211 321.528 81.4171 320.85 81.6091 320.25C81.8011 319.65 82.0771 319.14 82.4371 318.72C82.8091 318.288 83.2651 317.958 83.8051 317.73C84.3451 317.502 84.9631 317.388 85.6591 317.388C86.6071 317.388 87.3871 317.598 87.9991 318.018C88.6231 318.438 89.0731 319.02 89.3491 319.764L87.4591 320.61C87.3511 320.214 87.1471 319.89 86.8471 319.638C86.5591 319.374 86.1631 319.242 85.6591 319.242C85.0111 319.242 84.5251 319.446 84.2011 319.854C83.8891 320.262 83.7331 320.796 83.7331 321.456V323.166C83.7331 323.826 83.8891 324.36 84.2011 324.768C84.5251 325.164 85.0111 325.362 85.6591 325.362C86.2111 325.362 86.6371 325.224 86.9371 324.948C87.2371 324.66 87.4711 324.306 87.6391 323.886L89.4031 324.732C89.0911 325.56 88.6171 326.184 87.9811 326.604C87.3451 327.012 86.5711 327.216 85.6591 327.216ZM94.8898 327.216C94.1938 327.216 93.5698 327.102 93.0178 326.874C92.4778 326.634 92.0158 326.304 91.6318 325.884C91.2598 325.452 90.9718 324.936 90.7678 324.336C90.5638 323.724 90.4618 323.04 90.4618 322.284C90.4618 321.54 90.5578 320.868 90.7498 320.268C90.9538 319.668 91.2418 319.158 91.6138 318.738C91.9858 318.306 92.4418 317.976 92.9818 317.748C93.5218 317.508 94.1338 317.388 94.8178 317.388C95.5498 317.388 96.1858 317.514 96.7258 317.766C97.2658 318.018 97.7098 318.36 98.0578 318.792C98.4058 319.224 98.6638 319.728 98.8318 320.304C99.0118 320.868 99.1018 321.474 99.1018 322.122V322.878H92.8558V323.112C92.8558 323.796 93.0478 324.348 93.4318 324.768C93.8158 325.176 94.3858 325.38 95.1418 325.38C95.7178 325.38 96.1858 325.26 96.5458 325.02C96.9178 324.78 97.2478 324.474 97.5358 324.102L98.7778 325.488C98.3938 326.028 97.8658 326.454 97.1938 326.766C96.5338 327.066 95.7658 327.216 94.8898 327.216ZM94.8538 319.116C94.2418 319.116 93.7558 319.32 93.3958 319.728C93.0358 320.136 92.8558 320.664 92.8558 321.312V321.456H96.7078V321.294C96.7078 320.646 96.5458 320.124 96.2218 319.728C95.9098 319.32 95.4538 319.116 94.8538 319.116Z" fill="black"/>
<path d="M29.382 367.216C28.302 367.216 27.384 367.024 26.628 366.64C25.884 366.256 25.242 365.752 24.702 365.128L26.304 363.58C26.736 364.084 27.216 364.468 27.744 364.732C28.284 364.996 28.878 365.128 29.526 365.128C30.258 365.128 30.81 364.972 31.182 364.66C31.554 364.336 31.74 363.904 31.74 363.364C31.74 362.944 31.62 362.602 31.38 362.338C31.14 362.074 30.69 361.882 30.03 361.762L28.842 361.582C26.334 361.186 25.08 359.968 25.08 357.928C25.08 357.364 25.182 356.854 25.386 356.398C25.602 355.942 25.908 355.552 26.304 355.228C26.7 354.904 27.174 354.658 27.726 354.49C28.29 354.31 28.926 354.22 29.634 354.22C30.582 354.22 31.41 354.376 32.118 354.688C32.826 355 33.432 355.462 33.936 356.074L32.316 357.604C32.004 357.22 31.626 356.908 31.182 356.668C30.738 356.428 30.18 356.308 29.508 356.308C28.824 356.308 28.308 356.44 27.96 356.704C27.624 356.956 27.456 357.316 27.456 357.784C27.456 358.264 27.594 358.618 27.87 358.846C28.146 359.074 28.59 359.242 29.202 359.35L30.372 359.566C31.644 359.794 32.58 360.202 33.18 360.79C33.792 361.366 34.098 362.176 34.098 363.22C34.098 363.82 33.99 364.366 33.774 364.858C33.57 365.338 33.264 365.758 32.856 366.118C32.46 366.466 31.968 366.736 31.38 366.928C30.804 367.12 30.138 367.216 29.382 367.216ZM43.2479 367C42.7439 367 42.3419 366.856 42.0419 366.568C41.7539 366.268 41.5739 365.872 41.5019 365.38H41.3939C41.2379 365.992 40.9199 366.454 40.4399 366.766C39.9599 367.066 39.3659 367.216 38.6579 367.216C37.6979 367.216 36.9599 366.964 36.4439 366.46C35.9279 365.956 35.6699 365.284 35.6699 364.444C35.6699 363.472 36.0179 362.752 36.7139 362.284C37.4099 361.804 38.3999 361.564 39.6839 361.564H41.2859V360.88C41.2859 360.352 41.1479 359.944 40.8719 359.656C40.5959 359.368 40.1519 359.224 39.5399 359.224C38.9999 359.224 38.5619 359.344 38.2259 359.584C37.9019 359.812 37.6259 360.088 37.3979 360.412L36.0299 359.188C36.3779 358.648 36.8399 358.216 37.4159 357.892C37.9919 357.556 38.7539 357.388 39.7019 357.388C40.9739 357.388 41.9399 357.676 42.5999 358.252C43.2599 358.828 43.5899 359.656 43.5899 360.736V365.164H44.5259V367H43.2479ZM39.4319 365.542C39.9479 365.542 40.3859 365.428 40.7459 365.2C41.1059 364.972 41.2859 364.636 41.2859 364.192V362.95H39.8099C38.6099 362.95 38.0099 363.334 38.0099 364.102V364.408C38.0099 364.792 38.1299 365.08 38.3699 365.272C38.6219 365.452 38.9759 365.542 39.4319 365.542ZM46.3906 367V357.604H48.6946V359.17H48.7846C48.9646 358.678 49.2526 358.258 49.6486 357.91C50.0446 357.562 50.5966 357.388 51.3046 357.388C51.9526 357.388 52.5106 357.544 52.9786 357.856C53.4466 358.168 53.7946 358.642 54.0226 359.278H54.0586C54.2266 358.75 54.5566 358.306 55.0486 357.946C55.5526 357.574 56.1826 357.388 56.9386 357.388C57.8626 357.388 58.5706 357.706 59.0626 358.342C59.5666 358.978 59.8186 359.884 59.8186 361.06V367H57.5146V361.294C57.5146 359.95 57.0106 359.278 56.0026 359.278C55.7746 359.278 55.5526 359.314 55.3366 359.386C55.1326 359.446 54.9466 359.542 54.7786 359.674C54.6226 359.794 54.4966 359.95 54.4006 360.142C54.3046 360.322 54.2566 360.538 54.2566 360.79V367H51.9526V361.294C51.9526 359.95 51.4486 359.278 50.4406 359.278C50.2246 359.278 50.0086 359.314 49.7926 359.386C49.5886 359.446 49.4026 359.542 49.2346 359.674C49.0786 359.794 48.9466 359.95 48.8386 360.142C48.7426 360.322 48.6946 360.538 48.6946 360.79V367H46.3906ZM66.1671 367.216C65.4711 367.216 64.8471 367.102 64.2951 366.874C63.7551 366.634 63.2931 366.304 62.9091 365.884C62.5371 365.452 62.2491 364.936 62.0451 364.336C61.8411 363.724 61.7391 363.04 61.7391 362.284C61.7391 361.54 61.8351 360.868 62.0271 360.268C62.2311 359.668 62.5191 359.158 62.8911 358.738C63.2631 358.306 63.7191 357.976 64.2591 357.748C64.7991 357.508 65.4111 357.388 66.0951 357.388C66.8271 357.388 67.4631 357.514 68.0031 357.766C68.5431 358.018 68.9871 358.36 69.3351 358.792C69.6831 359.224 69.9411 359.728 70.1091 360.304C70.2891 360.868 70.3791 361.474 70.3791 362.122V362.878H64.1331V363.112C64.1331 363.796 64.3251 364.348 64.7091 364.768C65.0931 365.176 65.6631 365.38 66.4191 365.38C66.9951 365.38 67.4631 365.26 67.8231 365.02C68.1951 364.78 68.5251 364.474 68.8131 364.102L70.0551 365.488C69.6711 366.028 69.1431 366.454 68.4711 366.766C67.8111 367.066 67.0431 367.216 66.1671 367.216ZM66.1311 359.116C65.5191 359.116 65.0331 359.32 64.6731 359.728C64.3131 360.136 64.1331 360.664 64.1331 361.312V361.456H67.9851V361.294C67.9851 360.646 67.8231 360.124 67.4991 359.728C67.1871 359.32 66.7311 359.116 66.1311 359.116ZM80.3861 367.216C79.7141 367.216 79.1081 367.102 78.5681 366.874C78.0401 366.646 77.5841 366.316 77.2001 365.884C76.8281 365.452 76.5401 364.936 76.3361 364.336C76.1321 363.724 76.0301 363.04 76.0301 362.284C76.0301 361.528 76.1321 360.85 76.3361 360.25C76.5401 359.65 76.8281 359.14 77.2001 358.72C77.5841 358.288 78.0401 357.958 78.5681 357.73C79.1081 357.502 79.7141 357.388 80.3861 357.388C81.0581 357.388 81.6641 357.502 82.2041 357.73C82.7441 357.958 83.2001 358.288 83.5721 358.72C83.9561 359.14 84.2501 359.65 84.4541 360.25C84.6581 360.85 84.7601 361.528 84.7601 362.284C84.7601 363.04 84.6581 363.724 84.4541 364.336C84.2501 364.936 83.9561 365.452 83.5721 365.884C83.2001 366.316 82.7441 366.646 82.2041 366.874C81.6641 367.102 81.0581 367.216 80.3861 367.216ZM80.3861 365.362C80.9981 365.362 81.4781 365.176 81.8261 364.804C82.1741 364.432 82.3481 363.886 82.3481 363.166V361.42C82.3481 360.712 82.1741 360.172 81.8261 359.8C81.4781 359.428 80.9981 359.242 80.3861 359.242C79.7861 359.242 79.3121 359.428 78.9641 359.8C78.6161 360.172 78.4421 360.712 78.4421 361.42V363.166C78.4421 363.886 78.6161 364.432 78.9641 364.804C79.3121 365.176 79.7861 365.362 80.3861 365.362ZM89.1067 367C88.3147 367 87.7327 366.802 87.3607 366.406C86.9887 366.01 86.8027 365.452 86.8027 364.732V353.68H89.1067V365.164H90.3487V367H89.1067ZM97.9257 365.434H97.8357C97.6677 365.974 97.3497 366.406 96.8817 366.73C96.4137 367.054 95.8677 367.216 95.2437 367.216C94.0557 367.216 93.1437 366.79 92.5077 365.938C91.8837 365.086 91.5717 363.868 91.5717 362.284C91.5717 360.712 91.8837 359.506 92.5077 358.666C93.1437 357.814 94.0557 357.388 95.2437 357.388C95.8677 357.388 96.4137 357.55 96.8817 357.874C97.3497 358.186 97.6677 358.612 97.8357 359.152H97.9257V353.68H100.23V367H97.9257V365.434ZM95.9817 365.308C96.5337 365.308 96.9957 365.176 97.3677 364.912C97.7397 364.648 97.9257 364.27 97.9257 363.778V360.79C97.9257 360.334 97.7397 359.968 97.3677 359.692C96.9957 359.416 96.5337 359.278 95.9817 359.278C95.3817 359.278 94.8957 359.482 94.5237 359.89C94.1637 360.286 93.9837 360.82 93.9837 361.492V363.112C93.9837 363.784 94.1637 364.318 94.5237 364.714C94.8957 365.11 95.3817 365.308 95.9817 365.308Z" fill="black"/>
<path d="M34.962 397.982H34.89L33.918 399.98L31.344 404.732L28.77 399.98L27.798 397.982H27.726V407H25.476V394.436H28.158L31.38 400.574H31.452L34.638 394.436H37.212V407H34.962V397.982ZM43.7533 407.216C43.0813 407.216 42.4753 407.102 41.9353 406.874C41.4073 406.646 40.9513 406.316 40.5673 405.884C40.1953 405.452 39.9073 404.936 39.7033 404.336C39.4993 403.724 39.3973 403.04 39.3973 402.284C39.3973 401.528 39.4993 400.85 39.7033 400.25C39.9073 399.65 40.1953 399.14 40.5673 398.72C40.9513 398.288 41.4073 397.958 41.9353 397.73C42.4753 397.502 43.0813 397.388 43.7533 397.388C44.4253 397.388 45.0313 397.502 45.5713 397.73C46.1113 397.958 46.5673 398.288 46.9393 398.72C47.3233 399.14 47.6173 399.65 47.8213 400.25C48.0253 400.85 48.1273 401.528 48.1273 402.284C48.1273 403.04 48.0253 403.724 47.8213 404.336C47.6173 404.936 47.3233 405.452 46.9393 405.884C46.5673 406.316 46.1113 406.646 45.5713 406.874C45.0313 407.102 44.4253 407.216 43.7533 407.216ZM43.7533 405.362C44.3653 405.362 44.8453 405.176 45.1933 404.804C45.5413 404.432 45.7153 403.886 45.7153 403.166V401.42C45.7153 400.712 45.5413 400.172 45.1933 399.8C44.8453 399.428 44.3653 399.242 43.7533 399.242C43.1533 399.242 42.6793 399.428 42.3313 399.8C41.9833 400.172 41.8093 400.712 41.8093 401.42V403.166C41.8093 403.886 41.9833 404.432 42.3313 404.804C42.6793 405.176 43.1533 405.362 43.7533 405.362ZM50.1699 397.604H52.4739V408.134C52.4739 408.926 52.2759 409.532 51.8799 409.952C51.4839 410.384 50.8539 410.6 49.9899 410.6H48.7299V408.764H50.1699V397.604ZM51.3219 396.236C50.8419 396.236 50.4939 396.128 50.2779 395.912C50.0739 395.696 49.9719 395.42 49.9719 395.084V394.724C49.9719 394.388 50.0739 394.112 50.2779 393.896C50.4939 393.68 50.8419 393.572 51.3219 393.572C51.7899 393.572 52.1319 393.68 52.3479 393.896C52.5639 394.112 52.6719 394.388 52.6719 394.724V395.084C52.6719 395.42 52.5639 395.696 52.3479 395.912C52.1319 396.128 51.7899 396.236 51.3219 396.236ZM58.8705 407.216C58.1985 407.216 57.5925 407.102 57.0525 406.874C56.5245 406.646 56.0685 406.316 55.6845 405.884C55.3125 405.452 55.0245 404.936 54.8205 404.336C54.6165 403.724 54.5145 403.04 54.5145 402.284C54.5145 401.528 54.6165 400.85 54.8205 400.25C55.0245 399.65 55.3125 399.14 55.6845 398.72C56.0685 398.288 56.5245 397.958 57.0525 397.73C57.5925 397.502 58.1985 397.388 58.8705 397.388C59.5425 397.388 60.1485 397.502 60.6885 397.73C61.2285 397.958 61.6845 398.288 62.0565 398.72C62.4405 399.14 62.7345 399.65 62.9385 400.25C63.1425 400.85 63.2445 401.528 63.2445 402.284C63.2445 403.04 63.1425 403.724 62.9385 404.336C62.7345 404.936 62.4405 405.452 62.0565 405.884C61.6845 406.316 61.2285 406.646 60.6885 406.874C60.1485 407.102 59.5425 407.216 58.8705 407.216ZM58.8705 405.362C59.4825 405.362 59.9625 405.176 60.3105 404.804C60.6585 404.432 60.8325 403.886 60.8325 403.166V401.42C60.8325 400.712 60.6585 400.172 60.3105 399.8C59.9625 399.428 59.4825 399.242 58.8705 399.242C58.2705 399.242 57.7965 399.428 57.4485 399.8C57.1005 400.172 56.9265 400.712 56.9265 401.42V403.166C56.9265 403.886 57.1005 404.432 57.4485 404.804C57.7965 405.176 58.2705 405.362 58.8705 405.362ZM72.619 407.216C71.719 407.216 70.963 407.066 70.351 406.766C69.739 406.454 69.199 406.028 68.731 405.488L70.135 404.12C70.483 404.516 70.861 404.828 71.269 405.056C71.689 405.284 72.169 405.398 72.709 405.398C73.261 405.398 73.657 405.302 73.897 405.11C74.149 404.918 74.275 404.654 74.275 404.318C74.275 404.042 74.185 403.826 74.005 403.67C73.837 403.502 73.543 403.388 73.123 403.328L72.187 403.202C71.167 403.07 70.387 402.782 69.847 402.338C69.319 401.882 69.055 401.222 69.055 400.358C69.055 399.902 69.139 399.494 69.307 399.134C69.475 398.762 69.715 398.45 70.027 398.198C70.339 397.934 70.711 397.736 71.143 397.604C71.587 397.46 72.079 397.388 72.619 397.388C73.075 397.388 73.477 397.424 73.825 397.496C74.185 397.556 74.509 397.652 74.797 397.784C75.085 397.904 75.349 398.06 75.589 398.252C75.829 398.432 76.063 398.636 76.291 398.864L74.941 400.214C74.665 399.926 74.335 399.686 73.951 399.494C73.567 399.302 73.147 399.206 72.691 399.206C72.187 399.206 71.821 399.296 71.593 399.476C71.377 399.656 71.269 399.89 71.269 400.178C71.269 400.49 71.359 400.73 71.539 400.898C71.731 401.054 72.049 401.168 72.493 401.24L73.447 401.366C75.475 401.654 76.489 402.578 76.489 404.138C76.489 404.594 76.393 405.014 76.201 405.398C76.021 405.77 75.763 406.094 75.427 406.37C75.091 406.634 74.683 406.844 74.203 407C73.735 407.144 73.207 407.216 72.619 407.216ZM82.2494 407.216C81.5774 407.216 80.9714 407.102 80.4314 406.874C79.9034 406.646 79.4474 406.316 79.0634 405.884C78.6914 405.452 78.4034 404.936 78.1994 404.336C77.9954 403.724 77.8934 403.04 77.8934 402.284C77.8934 401.528 77.9954 400.85 78.1994 400.25C78.4034 399.65 78.6914 399.14 79.0634 398.72C79.4474 398.288 79.9034 397.958 80.4314 397.73C80.9714 397.502 81.5774 397.388 82.2494 397.388C82.9214 397.388 83.5274 397.502 84.0674 397.73C84.6074 397.958 85.0634 398.288 85.4354 398.72C85.8194 399.14 86.1134 399.65 86.3174 400.25C86.5214 400.85 86.6234 401.528 86.6234 402.284C86.6234 403.04 86.5214 403.724 86.3174 404.336C86.1134 404.936 85.8194 405.452 85.4354 405.884C85.0634 406.316 84.6074 406.646 84.0674 406.874C83.5274 407.102 82.9214 407.216 82.2494 407.216ZM82.2494 405.362C82.8614 405.362 83.3414 405.176 83.6894 404.804C84.0374 404.432 84.2114 403.886 84.2114 403.166V401.42C84.2114 400.712 84.0374 400.172 83.6894 399.8C83.3414 399.428 82.8614 399.242 82.2494 399.242C81.6494 399.242 81.1754 399.428 80.8274 399.8C80.4794 400.172 80.3054 400.712 80.3054 401.42V403.166C80.3054 403.886 80.4794 404.432 80.8274 404.804C81.1754 405.176 81.6494 405.362 82.2494 405.362ZM98.7519 405.434H98.6619C98.4939 405.974 98.1759 406.406 97.7079 406.73C97.2399 407.054 96.6939 407.216 96.0699 407.216C94.8819 407.216 93.9699 406.79 93.3339 405.938C92.7099 405.086 92.3979 403.868 92.3979 402.284C92.3979 400.712 92.7099 399.506 93.3339 398.666C93.9699 397.814 94.8819 397.388 96.0699 397.388C96.6939 397.388 97.2399 397.55 97.7079 397.874C98.1759 398.186 98.4939 398.612 98.6619 399.152H98.7519V393.68H101.056V407H98.7519V405.434ZM96.8079 405.308C97.3599 405.308 97.8219 405.176 98.1939 404.912C98.5659 404.648 98.7519 404.27 98.7519 403.778V400.79C98.7519 400.334 98.5659 399.968 98.1939 399.692C97.8219 399.416 97.3599 399.278 96.8079 399.278C96.2079 399.278 95.7219 399.482 95.3499 399.89C94.9899 400.286 94.8099 400.82 94.8099 401.492V403.112C94.8099 403.784 94.9899 404.318 95.3499 404.714C95.7219 405.11 96.2079 405.308 96.8079 405.308ZM107.439 407.216C106.767 407.216 106.161 407.102 105.621 406.874C105.093 406.646 104.637 406.316 104.253 405.884C103.881 405.452 103.593 404.936 103.389 404.336C103.185 403.724 103.083 403.04 103.083 402.284C103.083 401.528 103.185 400.85 103.389 400.25C103.593 399.65 103.881 399.14 104.253 398.72C104.637 398.288 105.093 397.958 105.621 397.73C106.161 397.502 106.767 397.388 107.439 397.388C108.111 397.388 108.717 397.502 109.257 397.73C109.797 397.958 110.253 398.288 110.625 398.72C111.009 399.14 111.303 399.65 111.507 400.25C111.711 400.85 111.813 401.528 111.813 402.284C111.813 403.04 111.711 403.724 111.507 404.336C111.303 404.936 111.009 405.452 110.625 405.884C110.253 406.316 109.797 406.646 109.257 406.874C108.717 407.102 108.111 407.216 107.439 407.216ZM107.439 405.362C108.051 405.362 108.531 405.176 108.879 404.804C109.227 404.432 109.401 403.886 109.401 403.166V401.42C109.401 400.712 109.227 400.172 108.879 399.8C108.531 399.428 108.051 399.242 107.439 399.242C106.839 399.242 106.365 399.428 106.017 399.8C105.669 400.172 105.495 400.712 105.495 401.42V403.166C105.495 403.886 105.669 404.432 106.017 404.804C106.365 405.176 106.839 405.362 107.439 405.362ZM113.855 397.604H116.159V399.152H116.231C116.399 398.612 116.717 398.186 117.185 397.874C117.653 397.55 118.199 397.388 118.823 397.388C120.023 397.388 120.935 397.814 121.559 398.666C122.195 399.506 122.513 400.712 122.513 402.284C122.513 403.868 122.195 405.086 121.559 405.938C120.935 406.79 120.023 407.216 118.823 407.216C118.199 407.216 117.653 407.054 117.185 406.73C116.729 406.406 116.411 405.974 116.231 405.434H116.159V410.6H113.855V397.604ZM118.085 405.308C118.685 405.308 119.171 405.11 119.543 404.714C119.915 404.318 120.101 403.784 120.101 403.112V401.492C120.101 400.82 119.915 400.286 119.543 399.89C119.171 399.482 118.685 399.278 118.085 399.278C117.533 399.278 117.071 399.416 116.699 399.692C116.339 399.968 116.159 400.334 116.159 400.79V403.778C116.159 404.27 116.339 404.648 116.699 404.912C117.071 405.176 117.533 405.308 118.085 405.308ZM128.446 407.216C127.75 407.216 127.126 407.102 126.574 406.874C126.034 406.634 125.572 406.304 125.188 405.884C124.816 405.452 124.528 404.936 124.324 404.336C124.12 403.724 124.018 403.04 124.018 402.284C124.018 401.54 124.114 400.868 124.306 400.268C124.51 399.668 124.798 399.158 125.17 398.738C125.542 398.306 125.998 397.976 126.538 397.748C127.078 397.508 127.69 397.388 128.374 397.388C129.106 397.388 129.742 397.514 130.282 397.766C130.822 398.018 131.266 398.36 131.614 398.792C131.962 399.224 132.22 399.728 132.388 400.304C132.568 400.868 132.658 401.474 132.658 402.122V402.878H126.412V403.112C126.412 403.796 126.604 404.348 126.988 404.768C127.372 405.176 127.942 405.38 128.698 405.38C129.274 405.38 129.742 405.26 130.102 405.02C130.474 404.78 130.804 404.474 131.092 404.102L132.334 405.488C131.95 406.028 131.422 406.454 130.75 406.766C130.09 407.066 129.322 407.216 128.446 407.216ZM128.41 399.116C127.798 399.116 127.312 399.32 126.952 399.728C126.592 400.136 126.412 400.664 126.412 401.312V401.456H130.264V401.294C130.264 400.646 130.102 400.124 129.778 399.728C129.466 399.32 129.01 399.116 128.41 399.116Z" fill="black"/>
<rect x="25" y="147" width="343" height="50" stroke="black" stroke-width="2"/>
<path fill-rule="evenodd" clip-rule="evenodd" d="M53.9056 177.32C52.551 178.373 50.8487 179 49 179C44.5817 179 41 175.418 41 171C41 166.582 44.5817 163 49 163C53.4183 163 57 166.582 57 171C57 172.849 56.3729 174.551 55.3199 175.906L58.7071 179.293C59.0976 179.683 59.0976 180.317 58.7071 180.707C58.3166 181.098 57.6834 181.098 57.2929 180.707L53.9056 177.32ZM55 171C55 174.314 52.3137 177 49 177C45.6863 177 43 174.314 43 171C43 167.686 45.6863 165 49 165C52.3137 165 55 167.686 55 171Z" fill="#200122"/>
<rect x="74" y="160" width="2" height="24" rx="1" fill="#FF5F5F"/>
<rect width="393" height="87" transform="translate(0 765)" fill="url(#paint1_linear_1015_54924)" fill-opacity="0.5"/>
<g filter="url(#filter0_b_1015_54924)">
<rect width="414" height="87" transform="translate(-10 765)" fill="white"/>
<rect width="414" height="87" transform="translate(-10 765)" fill="#FFC5AD"/>
<rect width="414" height="87" transform="translate(-10 765)" fill="url(#paint2_radial_1015_54924)"/>
<g clip-path="url(#clip2_1015_54924)">
<path d="M76.3334 815.333H79.0001V788.667H76.3334V815.333ZM83.0001 815.333H85.6667V795.333H83.0001V815.333ZM69.6667 815.333H72.3334V799.333H69.6667V815.333Z" fill="black"/>
</g>
<g clip-path="url(#clip3_1015_54924)">
<path d="M201.666 804.667H200.613L200.24 804.307C201.546 802.787 202.333 800.813 202.333 798.667C202.333 793.88 198.453 790 193.666 790C188.88 790 185 793.88 185 798.667C185 803.453 188.88 807.333 193.666 807.333C195.813 807.333 197.786 806.547 199.306 805.24L199.666 805.613V806.667L206.333 813.32L208.32 811.333L201.666 804.667V804.667ZM193.666 804.667C190.346 804.667 187.666 801.987 187.666 798.667C187.666 795.347 190.346 792.667 193.666 792.667C196.986 792.667 199.666 795.347 199.666 798.667C199.666 801.987 196.986 804.667 193.666 804.667Z" fill="black"/>
</g>
<g clip-path="url(#clip4_1015_54924)">
<path d="M321 800.667C322.105 800.667 323 799.771 323 798.667C323 797.562 322.105 796.667 321 796.667C319.896 796.667 319 797.562 319 798.667C319 799.771 319.896 800.667 321 800.667Z" fill="black"/>
<path d="M311.667 800.667C312.772 800.667 313.667 799.771 313.667 798.667C313.667 797.562 312.772 796.667 311.667 796.667C310.562 796.667 309.667 797.562 309.667 798.667C309.667 799.771 310.562 800.667 311.667 800.667Z" fill="black"/>
<path d="M321 800.667C322.105 800.667 323 799.771 323 798.667C323 797.562 322.105 796.667 321 796.667C319.896 796.667 319 797.562 319 798.667C319 799.771 319.896 800.667 321 800.667Z" fill="black"/>
<path d="M311.667 800.667C312.772 800.667 313.667 799.771 313.667 798.667C313.667 797.562 312.772 796.667 311.667 796.667C310.562 796.667 309.667 797.562 309.667 798.667C309.667 799.771 310.562 800.667 311.667 800.667Z" fill="black"/>
<path d="M316.32 788.667C308.96 788.667 303 794.64 303 802C303 809.36 308.96 815.333 316.32 815.333C323.694 815.333 329.667 809.36 329.667 802C329.667 794.64 323.694 788.667 316.32 788.667ZM316.334 812.667C310.44 812.667 305.667 807.893 305.667 802C305.667 796.107 310.44 791.333 316.334 791.333C322.227 791.333 327 796.107 327 802C327 807.893 322.227 812.667 316.334 812.667ZM316.334 809.333C319.44 809.333 322.094 807.4 323.16 804.667H320.934C320.014 806.253 318.307 807.333 316.334 807.333C314.36 807.333 312.667 806.253 311.734 804.667H309.507C310.574 807.4 313.227 809.333 316.334 809.333Z" fill="black"/>
</g>
<line x1="-10" y1="766" x2="404" y2="766" stroke="black" stroke-width="2"/>
</g>
<rect x="130" y="839" width="134" height="5" rx="2.5" fill="black"/>
</g>
</g>
<defs>
<filter id="filter0_b_1015_54924" x="-18" y="757" width="430" height="103" filterUnits="userSpaceOnUse" color-interpolation-filters="sRGB">
<feFlood flood-opacity="0" result="BackgroundImageFix"/>
<feGaussianBlur in="BackgroundImageFix" stdDeviation="4"/>
<feComposite in2="SourceAlpha" operator="in" result="effect1_backgroundBlur_1015_54924"/>
<feBlend mode="normal" in="SourceGraphic" in2="effect1_backgroundBlur_1015_54924" result="shape"/>
</filter>
<linearGradient id="paint0_linear_1015_54924" x1="393" y1="852" x2="-1.10394" y2="0.510947" gradientUnits="userSpaceOnUse">
<stop stop-color="#FFC3A0"/>
<stop offset="1" stop-color="#FFAFBC"/>
</linearGradient>
<linearGradient id="paint1_linear_1015_54924" x1="196.5" y1="0" x2="196.5" y2="107.88" gradientUnits="userSpaceOnUse">
<stop stop-color="#190620" stop-opacity="0"/>
<stop offset="0.578727" stop-color="#18051F" stop-opacity="0.699228"/>
<stop offset="1" stop-color="#17041E"/>
</linearGradient>
<radialGradient id="paint2_radial_1015_54924" cx="0" cy="0" r="1" gradientUnits="userSpaceOnUse" gradientTransform="translate(266.009 74.1338) rotate(33.1892) scale(152.216 155.749)">
<stop stop-color="#A1FFD8"/>
<stop offset="1" stop-color="#E1B8FA"/>
</radialGradient>
<clipPath id="clip0_1015_54924">
<rect width="393" height="852" fill="white"/>
</clipPath>
<clipPath id="clip1_1015_54924">
<rect width="393" height="852" fill="white"/>
</clipPath>
<clipPath id="clip2_1015_54924">
<rect width="32" height="32" fill="white" transform="translate(61.6667 786)"/>
</clipPath>
<clipPath id="clip3_1015_54924">
<rect width="32" height="32" fill="white" transform="translate(181 786)"/>
</clipPath>
<clipPath id="clip4_1015_54924">
<rect width="32" height="32" fill="white" transform="translate(300.334 786)"/>
</clipPath>
</defs>
</svg>
